<svg xmlns="http://www.w3.org/2000/svg" xmlns:svg="http://www.w3.org/2000/svg" xmlns:xlink="http://www.w3.org/1999/xlink" id="svg11300" width="48" height="48" version="1.0"><metadata id="metadata99"/><defs id="defs3"><linearGradient id="linearGradient3512"><stop id="stop3514" offset="0" stop-color="#fff" stop-opacity="1"/><stop id="stop3516" offset=".034" stop-color="#fff" stop-opacity=".235"/><stop id="stop3518" offset="1" stop-color="#fff" stop-opacity=".157"/><stop id="stop3520" offset="1" stop-color="#fff" stop-opacity=".392"/></linearGradient><linearGradient id="linearGradient3688-166-749-6"><stop id="stop2883-8" offset="0" stop-color="#181818" stop-opacity="1"/><stop id="stop2885-3" offset="1" stop-color="#181818" stop-opacity="0"/></linearGradient><linearGradient id="linearGradient3688-464-309-7"><stop id="stop2889-0" offset="0" stop-color="#181818" stop-opacity="1"/><stop id="stop2891-66" offset="1" stop-color="#181818" stop-opacity="0"/></linearGradient><linearGradient id="linearGradient3702-501-757-3"><stop id="stop2895-3" offset="0" stop-color="#181818" stop-opacity="0"/><stop id="stop2897-28" offset=".5" stop-color="#181818" stop-opacity="1"/><stop id="stop2899-8" offset="1" stop-color="#181818" stop-opacity="0"/></linearGradient><linearGradient id="linearGradient2867-449-88-871-390-598-476-591-434-148-57-177-8-3-3-6-4-8-8-8-5-9-4-5"><stop id="stop3750-1-0-7-6-6-1-3-9-3-3-3-6" offset="0" stop-color="#505050" stop-opacity="1"/><stop id="stop3752-3-7-4-0-32-8-923-0-7-1-1-4" offset=".262" stop-color="#2b2b2b" stop-opacity="1"/><stop id="stop3754-1-8-5-2-7-6-7-1-9-8-6-2" offset=".705" stop-color="#0a0a0a" stop-opacity="1"/><stop id="stop3756-1-6-2-6-6-1-96-6-0-0-6-2" offset="1" stop-color="#000" stop-opacity="1"/></linearGradient><linearGradient id="linearGradient3924-0-9-4"><stop id="stop3926-6-0-8" offset="0" stop-color="#fff" stop-opacity="1"/><stop id="stop3928-3-5-9" offset=".063" stop-color="#fff" stop-opacity=".235"/><stop id="stop3930-2-1-9" offset=".951" stop-color="#fff" stop-opacity=".157"/><stop id="stop3932-62-5-8" offset="1" stop-color="#fff" stop-opacity=".392"/></linearGradient><linearGradient id="linearGradient3600-4-3"><stop id="stop3602-7-9" offset="0" stop-color="#f4f4f4" stop-opacity="1"/><stop id="stop3604-6-6" offset="1" stop-color="#dbdbdb" stop-opacity="1"/></linearGradient><linearGradient id="linearGradient3977-6"><stop id="stop3979-5" offset="0" stop-color="#fff" stop-opacity="1"/><stop id="stop3981-9" offset=".036" stop-color="#fff" stop-opacity=".235"/><stop id="stop3983-2" offset=".951" stop-color="#fff" stop-opacity=".157"/><stop id="stop3985-4" offset="1" stop-color="#fff" stop-opacity=".392"/></linearGradient><linearGradient id="linearGradient3977"><stop id="stop3979" offset="0" stop-color="#fff" stop-opacity="1"/><stop id="stop3981" offset=".036" stop-color="#fff" stop-opacity=".235"/><stop id="stop3983" offset=".951" stop-color="#fff" stop-opacity=".157"/><stop id="stop3985" offset="1" stop-color="#fff" stop-opacity=".392"/></linearGradient><linearGradient id="linearGradient3600-4"><stop id="stop3602-7" offset="0" stop-color="#f4f4f4" stop-opacity="1"/><stop id="stop3604-6" offset="1" stop-color="#dbdbdb" stop-opacity="1"/></linearGradient><linearGradient id="linearGradient4251-1"><stop id="stop4253-8" offset="0" stop-color="#000" stop-opacity="1"/><stop id="stop4255-2" offset="1" stop-color="#000" stop-opacity="0"/></linearGradient><linearGradient id="linearGradient3471" x1="25.058" x2="25.058" y1="47.028" y2="39.999" gradientTransform="matrix(0.84210526,0,0,0.42857134,-1.1257809,20.857146)" gradientUnits="userSpaceOnUse" xlink:href="#linearGradient3702-501-757-3"/><radialGradient id="radialGradient3473" cx="4.993" cy="43.5" r="2.5" fx="4.993" fy="43.5" gradientTransform="matrix(-1.687397,0,0,-0.59999988,15.72632,65.599994)" gradientUnits="userSpaceOnUse" xlink:href="#linearGradient3688-464-309-7"/><radialGradient id="radialGradient3475" cx="3.003" cy="43.788" r="2.5" fx="3.003" fy="43.788" gradientTransform="matrix(1.899529,0,0,0.59999988,36.206774,13.329547)" gradientUnits="userSpaceOnUse" xlink:href="#linearGradient3688-166-749-6"/><linearGradient id="linearGradient3739" x1="17" x2="17" y1="14" y2="10" gradientTransform="matrix(1.3,0,0,1.6666666,3.199998,-2.6666663)" gradientUnits="userSpaceOnUse" xlink:href="#linearGradient4251-1"/><linearGradient id="linearGradient3743" x1="24" x2="24" y1="5.564" y2="43" gradientTransform="matrix(0.62162161,0,0,1.042471,9.081084,1.7664208)" gradientUnits="userSpaceOnUse" xlink:href="#linearGradient3977-6"/><linearGradient id="linearGradient3746" x1="25.132" x2="25.132" y1=".985" y2="62.706" gradientTransform="matrix(0.68571268,0,0,0.19108172,7.542894,6.5179604)" gradientUnits="userSpaceOnUse" xlink:href="#linearGradient3600-4-3"/><linearGradient id="linearGradient3749" x1="24" x2="24" y1="10.125" y2="37.875" gradientTransform="matrix(0.99277432,0,0,0.10810811,0.173416,15.905407)" gradientUnits="userSpaceOnUse" xlink:href="#linearGradient3924-0-9-4"/><linearGradient id="linearGradient3755" x1="24" x2="24" y1="5.564" y2="43" gradientTransform="matrix(0.62162161,0,0,1.042471,9.081085,-0.80500837)" gradientUnits="userSpaceOnUse" xlink:href="#linearGradient3977"/><linearGradient id="linearGradient3758" x1="33.211" x2="33.211" y1="46.354" y2="11.289" gradientTransform="matrix(0.68571268,0,0,0.30867042,7.542894,29.015438)" gradientUnits="userSpaceOnUse" xlink:href="#linearGradient3600-4"/><linearGradient id="linearGradient3764" x1="24" x2="24" y1="6.656" y2="41.344" gradientTransform="matrix(0.99999999,0,0,0.43243241,0,20.12163)" gradientUnits="userSpaceOnUse" xlink:href="#linearGradient3512"/><radialGradient id="radialGradient3767" cx="7.118" cy="9.957" r="12.672" fx="7.118" fy="9.957" gradientTransform="matrix(0,7.8046631,-11.214713,0,136.04426,-56.530174)" gradientUnits="userSpaceOnUse" xlink:href="#linearGradient2867-449-88-871-390-598-476-591-434-148-57-177-8-3-3-6-4-8-8-8-5-9-4-5"/><linearGradient id="linearGradient3277-442"><stop id="stop3378" offset="0" stop-color="#575757" stop-opacity="1"/><stop id="stop3380" offset="1" stop-color="#333" stop-opacity="1"/></linearGradient><linearGradient id="linearGradient2543" x1="32.893" x2="31.364" y1="27.988" y2="29.484" gradientTransform="matrix(0.5018785,0,0,0.462207,-0.3803386,1.9030377)" gradientUnits="userSpaceOnUse" xlink:href="#linearGradient3277-442"/><linearGradient id="linearGradient11114-516"><stop id="stop3372" offset="0" stop-color="#242424" stop-opacity=".992"/><stop id="stop3374" offset="1" stop-color="#656565" stop-opacity="1"/></linearGradient><linearGradient id="linearGradient2541" x1="-172.653" x2="-164.718" y1="99.667" y2="91.973" gradientTransform="matrix(0.1953514,0,0,0.1799097,50.0016,-0.8912687)" gradientUnits="userSpaceOnUse" xlink:href="#linearGradient11114-516"/><linearGradient id="linearGradient3294"><stop id="stop3296" offset="0" stop-color="#fff" stop-opacity=".195"/><stop id="stop3298" offset="1" stop-color="#fff" stop-opacity="0"/></linearGradient><linearGradient id="linearGradient2538" x1="212.044" x2="210.581" y1="123.74" y2="74.262" gradientTransform="matrix(0.1953514,0,0,0.1799097,-25.223109,0.847388)" gradientUnits="userSpaceOnUse" xlink:href="#linearGradient3294"/><linearGradient id="linearGradient4454-600"><stop id="stop3408" offset="0" stop-color="#fff" stop-opacity=".647"/><stop id="stop3410" offset="1" stop-color="#fff" stop-opacity=".195"/></linearGradient><radialGradient id="radialGradient2514" cx="18.241" cy="21.818" r="8.309" fx="18.241" fy="21.818" gradientUnits="userSpaceOnUse" xlink:href="#linearGradient4454-600"/><linearGradient id="linearGradient4467-402"><stop id="stop3390" offset="0" stop-color="#fff" stop-opacity="1"/><stop id="stop3392" offset="1" stop-color="#fff" stop-opacity=".248"/></linearGradient><radialGradient id="radialGradient2533" cx="15.414" cy="13.078" r="6.656" fx="15.414" fy="13.078" gradientTransform="matrix(1.4500546,0,0,1.1280465,-15.280129,-9.906347)" gradientUnits="userSpaceOnUse" xlink:href="#linearGradient4467-402"/><linearGradient id="linearGradient11104-770"><stop id="stop3402" offset="0" stop-color="#333" stop-opacity="1"/><stop id="stop3404" offset="1" stop-color="#333" stop-opacity=".612"/></linearGradient><linearGradient id="linearGradient2530" x1="41.542" x2="41.485" y1="68.292" y2="4.536" gradientTransform="matrix(0.1906508,0,0,0.1908549,0.5616077,1.5616236)" gradientUnits="userSpaceOnUse" xlink:href="#linearGradient11104-770"/><linearGradient id="linearGradient2300-465"><stop id="stop3396" offset="0" stop-color="#343434" stop-opacity=".976"/><stop id="stop3398" offset="1" stop-color="#929292" stop-opacity="1"/></linearGradient><linearGradient id="linearGradient2528" x1="173.096" x2="173.096" y1="75.319" y2="11.949" gradientTransform="matrix(0.1906508,0,0,0.1908549,-24.167929,0.1252679)" gradientUnits="userSpaceOnUse" xlink:href="#linearGradient2300-465"/><linearGradient id="linearGradient6209-717"><stop id="stop3366" offset="0" stop-color="#979797" stop-opacity="1"/><stop id="stop3368" offset="1" stop-color="#000" stop-opacity=".341"/></linearGradient><linearGradient id="linearGradient2525" x1="173.096" x2="173.096" y1="75.319" y2="11.949" gradientTransform="matrix(0.1815664,0,0,0.1817607,-22.545212,0.4075216)" gradientUnits="userSpaceOnUse" xlink:href="#linearGradient6209-717"/></defs><path id="rect2801-0" fill="url(#radialGradient3475)" fill-opacity="1" stroke="none" d="m 41.874219,38 4.210526,0 0,2.999999 -4.210526,0 z" opacity=".4"/><path id="rect3696-2" fill="url(#radialGradient3473)" fill-opacity="1" stroke="none" d="m 7.2952717,40.999999 -4.2105263,0 0,-2.999999 4.2105263,0 z" opacity=".4"/><path id="rect3700-1" fill="url(#linearGradient3471)" fill-opacity="1" stroke="none" d="m 7.2952717,38 34.5721453,0 0,2.999999 -34.5721453,0 z" opacity=".4"/><path id="rect5505-21-9" fill="url(#radialGradient3767)" fill-opacity="1" fill-rule="nonzero" stroke="none" stroke-width="1" d="m 7.210907,15.5 c 12.096344,0 21.504609,0 33.600952,0 1.743341,0 2.688076,4.428543 2.688076,6.660257 0,5.565649 0,10.419455 0,15.985104 0.01388,1.284323 -1.389269,1.423756 -2.369187,1.332051 -11.754627,0 -23.509253,0 -35.263879,0 -1.295881,0.01376 -1.43657,-1.376878 -1.344038,-2.348055 l 0,-14.9691 c 0,0 0.637953,-6.660257 2.688076,-6.660257 z" color="#000" display="inline" enable-background="accumulate" opacity=".9" overflow="visible" visibility="visible" style="marker:none"/><rect id="rect6741-7-4-4" width="37" height="16" x="5.5" y="22.5" fill="none" stroke="url(#linearGradient3764)" stroke-dasharray="none" stroke-dashoffset="0" stroke-linecap="round" stroke-linejoin="round" stroke-miterlimit="4" stroke-opacity="1" stroke-width="1" opacity=".25"/><path id="rect5505-6-9" fill="none" stroke="#000" stroke-dasharray="none" stroke-dashoffset="0" stroke-linecap="round" stroke-linejoin="round" stroke-miterlimit="4" stroke-opacity="1" stroke-width="1" d="m 7.210906,15.499999 c 0,0 21.504609,0 33.600952,0 1.947903,0 2.688075,6.660527 2.688075,6.660527 0,0 0,10.259812 0,15.984746 0.01102,1.306008 -1.42111,1.419954 -2.410157,1.332105 -11.74097,0 -23.48194,0 -35.22291,0 -1.317707,0.01092 -1.432675,-1.408495 -1.344038,-2.38876 l 0,-14.928091 c 0,0 0.708193,-6.660527 2.688078,-6.660527 z" color="#000" display="inline" enable-background="accumulate" opacity=".7" overflow="visible" visibility="visible" style="marker:none"/><rect id="rect3957-0" width="38" height="1" x="5" y="-22" fill="#000" fill-opacity="1" fill-rule="nonzero" stroke="none" stroke-width="1" color="#000" display="inline" enable-background="accumulate" opacity=".4" overflow="visible" rx="0" ry="0" transform="scale(1,-1)" visibility="visible" style="marker:none"/><path id="path4160-3" fill="url(#linearGradient3758)" fill-opacity="1" stroke="none" d="m 12,32.5 c 5.499618,0 23.99997,9.06e-4 23.99997,9.06e-4 L 36,44 c 0,0 -16.000001,0 -24,0 0,-4.735294 0,-6.764705 0,-11.5 z" display="inline"/><path id="rect6741-1" fill="none" stroke="url(#linearGradient3755)" stroke-dasharray="none" stroke-dashoffset="0" stroke-linecap="round" stroke-linejoin="round" stroke-miterlimit="4" stroke-opacity="1" stroke-width="1" d="m 35.5,43.5 -23,0 0,-10 23,0 z"/><path id="path4160-3-4" fill="none" stroke="#000" stroke-dasharray="none" stroke-dashoffset="0" stroke-linecap="butt" stroke-linejoin="round" stroke-miterlimit="4" stroke-opacity="1" stroke-width="1" d="m 11.499961,32.499961 c 5.728787,0 25.000048,7.63e-4 25.000048,7.63e-4 l 3e-5,11.999315 c 0,0 -16.666717,0 -25.000078,0 0,-4.000026 0,-8.000052 0,-12.000077 z" display="inline" opacity=".3"/><rect id="rect4124-5-6" width="26" height="1" x="11" y="32" fill="#000" fill-opacity="1" fill-rule="nonzero" stroke="none" stroke-width="1" color="#000" display="inline" enable-background="accumulate" opacity=".15" overflow="visible" visibility="visible" style="marker:none"/><path id="rect6741-7-4-2-7" fill="none" stroke="url(#linearGradient3749)" stroke-dasharray="none" stroke-dashoffset="0" stroke-linecap="round" stroke-linejoin="round" stroke-miterlimit="4" stroke-opacity="1" stroke-width="1" d="m 7.674381,16.5 32.651243,0 c 1.137104,0 2.040702,4 2.040702,4 -12.244217,0 -36.73265,0 -36.73265,0 0,0 0.788956,-4 2.040705,-4 z" opacity=".1"/><path id="path4160-3-8" fill="url(#linearGradient3746)" fill-opacity="1" stroke="none" d="m 12,7.0000001 c 5.499618,0 23.99997,5.61e-4 23.99997,5.61e-4 L 36,18.5 c 0,0 -16.000001,0 -24,0 0,-2.931373 0,-8.5686269 0,-11.4999999 z" display="inline"/><path id="rect6741-1-8" fill="none" stroke="url(#linearGradient3743)" stroke-dasharray="none" stroke-dashoffset="0" stroke-linecap="round" stroke-linejoin="round" stroke-miterlimit="4" stroke-opacity="1" stroke-width="1" d="m 35.499999,17.5 -23,0 0,-9.9999999 23,0 z"/><path id="path4160-3-4-7" fill="none" stroke="#000" stroke-dasharray="none" stroke-dashoffset="0" stroke-linecap="butt" stroke-linejoin="round" stroke-miterlimit="4" stroke-opacity="1" stroke-width="1" d="m 11.499961,6.4999402 25.000048,0.0026 3e-5,11.9974988 -25.000078,0 z" display="inline" opacity=".3"/><rect id="rect4249-5" width="26" height="5" x="11" y="14" fill="url(#linearGradient3739)" fill-opacity="1" fill-rule="nonzero" stroke="none" stroke-width="1" color="#000" display="inline" enable-background="accumulate" opacity=".3" overflow="visible" visibility="visible" style="marker:none"/><path id="rect4731" fill="#000" fill-opacity="1" stroke="none" d="m 16,36 0,1 16,0 0,-1 -16,0 z m 0,2 0,1 9,0 0,-1 -9,0 z m 11,0 0,1 3,0 0,-1 -3,0 z m -11,2 0,1 4,0 0,-1 -4,0 z m 5,0 0,1 10,0 0,-1 -10,0 z" opacity=".1"/><path id="rect3991" fill="#0cceff" fill-opacity="1" fill-rule="nonzero" stroke="none" stroke-width="1" d="m 39,25 2,0 0,2 -2,0 z" color="#000" display="inline" enable-background="accumulate" overflow="visible" visibility="visible" style="marker:none"/><g id="layer1" stroke-width=".85" transform="matrix(1.1459442,0,0,1.2090938,16.713,18.324921)"><path id="path11112" fill="url(#linearGradient2541)" fill-opacity="1" fill-rule="evenodd" stroke="url(#linearGradient2543)" stroke-dasharray="none" stroke-linecap="round" stroke-linejoin="round" stroke-miterlimit="4" stroke-opacity="1" stroke-width=".85" d="M 13.679117,12.5 22.413809,19.986728 21.203058,21.5 12.5,13.401362 Z" display="inline"/><path id="path11122" fill="url(#linearGradient2538)" fill-opacity="1" fill-rule="evenodd" stroke="none" stroke-width=".85" d="m 21.217785,21.008568 -7.005051,-8.044248 8.475248,6.849559 z" display="inline"/><path id="path13082" fill="#3e3e3e" fill-opacity="1" stroke="none" stroke-width=".85" d="m 247.90924,110.29199 a 4.86685,2.6562012 0 1 1 -9.7337,0 4.86685,2.6562012 0 1 1 9.7337,0 z" display="inline" transform="matrix(0.1837074,-0.1915779,0.2354746,0.1427652,-48.692604,51.644667)"/><path d="m 25.897786,18.478292 a 8.3085051,8.3085051 0 1 1 -16.61701,0 8.3085051,8.3085051 0 1 1 16.61701,0 z" style="marker:none" id="path4452" fill="url(#radialGradient2514)" fill-opacity="1" fill-rule="evenodd" stroke="none" stroke-width=".749" display="inline" opacity=".4" transform="matrix(0.7030485,0,0,0.6866873,-3.2377028,-4.4914744)" visibility="visible"/><path d="m 8.8877932,3.285826 c -2.9122238,0 -5.2704608,2.112213 -5.2704608,4.7206197 0,0.7533185 0.065298,1.5314093 0.4158554,2.1635933 0.7003648,0.231216 1.6140995,0.303562 2.4037328,0.303562 3.4509655,0 6.4192074,-2.5625743 6.6321734,-5.6057008 C 12.101092,3.8433232 10.502538,3.285826 8.8877932,3.285826 Z" style="marker:none" id="path4462" fill="url(#radialGradient2533)" fill-opacity="1" fill-rule="evenodd" stroke="none" stroke-width=".85" display="inline" opacity=".6" overflow="visible" visibility="visible"/><path id="path2298" fill="url(#linearGradient2528)" fill-opacity="1" stroke="url(#linearGradient2530)" stroke-dasharray="none" stroke-linecap="round" stroke-linejoin="round" stroke-miterlimit="4" stroke-opacity="1" stroke-width=".85" d="M 9.0000005,2.5 C 5.4126135,2.5 2.499998,5.1886101 2.5,8.4999999 2.5,11.811391 5.4126135,14.5 9.0000005,14.5 12.587385,14.5 15.5,11.811391 15.5,8.4999999 15.5,5.1886101 12.587386,2.5 9.0000005,2.5 Z m 0.077451,0.3936385 c 3.2107345,0 5.8208075,2.4040776 5.8208075,5.3677935 0,2.963715 -2.610073,5.367794 -5.8208075,5.367794 -3.2107343,0 -5.8148483,-2.404078 -5.8148483,-5.367794 0,-2.9637159 2.604114,-5.3677935 5.8148483,-5.3677935 z" display="inline"/><path id="path4267" fill="url(#linearGradient2525)" fill-opacity="1" stroke="none" stroke-width=".85" d="m 9.0417066,2.6729635 c -3.4164491,0 -6.1842359,2.5601138 -6.1842359,5.7137188 0,3.1536037 2.7677849,5.7137167 6.1842359,5.7137167 3.4164494,0 6.1901934,-2.560114 6.1901934,-5.7137167 0,-3.153605 -2.773746,-5.7137188 -6.1901934,-5.7137188 z m 0.035747,0.220676 c 3.2107324,0 5.5661824,2.4040786 5.5661824,5.3677936 0,2.9637149 -2.35545,5.1128949 -5.5661824,5.1128949 -3.2107351,0 -5.6026612,-2.149179 -5.6026612,-5.1128949 0,-2.963715 2.3919261,-5.3677936 5.6026612,-5.3677936 z" display="inline"/></g></svg>