<svg xmlns="http://www.w3.org/2000/svg" xmlns:svg="http://www.w3.org/2000/svg" xmlns:xlink="http://www.w3.org/1999/xlink" id="svg3901" width="48" height="48" version="1.1"><defs id="defs3903"><linearGradient id="linearGradient3403"><stop id="stop3405" offset="0" stop-color="#fff" stop-opacity="1"/><stop id="stop3407" offset="0" stop-color="#fff" stop-opacity=".235"/><stop id="stop3409" offset="1" stop-color="#fff" stop-opacity=".157"/><stop id="stop3411" offset="1" stop-color="#fff" stop-opacity=".392"/></linearGradient><linearGradient id="linearGradient3600"><stop id="stop3602" offset="0" stop-color="#f4f4f4" stop-opacity="1"/><stop id="stop3604" offset="1" stop-color="#dbdbdb" stop-opacity="1"/></linearGradient><linearGradient id="linearGradient5060"><stop id="stop5062" offset="0" stop-color="#000" stop-opacity="1"/><stop id="stop5064" offset="1" stop-color="#000" stop-opacity="0"/></linearGradient><linearGradient id="linearGradient5048"><stop id="stop5050" offset="0" stop-color="#000" stop-opacity="0"/><stop id="stop5056" offset=".5" stop-color="#000" stop-opacity="1"/><stop id="stop5052" offset="1" stop-color="#000" stop-opacity="0"/></linearGradient><linearGradient id="linearGradient3104-6"><stop id="stop3106-3" offset="0" stop-color="#000" stop-opacity=".318"/><stop id="stop3108-9" offset="1" stop-color="#000" stop-opacity=".24"/></linearGradient><linearGradient id="linearGradient3106" x1="24" x2="24" y1="5.94" y2="42.111" gradientTransform="matrix(0.89189189,0,0,1.1351351,2.5945999,-4.7432314)" gradientUnits="userSpaceOnUse" xlink:href="#linearGradient3403"/><linearGradient id="linearGradient3109" x1="25.132" x2="25.132" y1=".985" y2="47.013" gradientTransform="matrix(0.97142632,0,0,0.93431938,0.68576678,-1.3569996)" gradientUnits="userSpaceOnUse" xlink:href="#linearGradient3600"/><radialGradient id="radialGradient3112" cx="605.714" cy="486.648" r="117.143" fx="605.714" fy="486.648" gradientTransform="matrix(0.02303995,0,0,0.01470022,26.360882,37.040176)" gradientUnits="userSpaceOnUse" xlink:href="#linearGradient5060"/><radialGradient id="radialGradient3115" cx="605.714" cy="486.648" r="117.143" fx="605.714" fy="486.648" gradientTransform="matrix(-0.02303994,0,0,0.01470022,21.62311,37.040176)" gradientUnits="userSpaceOnUse" xlink:href="#linearGradient5060"/><linearGradient id="linearGradient3118" x1="302.857" x2="302.857" y1="366.648" y2="609.505" gradientTransform="matrix(0.06732488,0,0,0.01470022,-0.3411391,37.040146)" gradientUnits="userSpaceOnUse" xlink:href="#linearGradient5048"/><linearGradient id="linearGradient3170" x1="-51.786" x2="-51.786" y1="50.786" y2="2.906" gradientTransform="matrix(0.80749686,0,0,0.89471714,59.410232,-2.9773433)" gradientUnits="userSpaceOnUse" xlink:href="#linearGradient3104-6"/><linearGradient id="linearGradient3284" x1="302.292" x2="308.649" y1="58.443" y2="60.768" gradientTransform="matrix(1.1811195,0,0,1.1804503,-332.45814,-37.518446)" gradientUnits="userSpaceOnUse" xlink:href="#linearGradient7381"/><linearGradient id="linearGradient7381"><stop id="stop7383" offset="0" stop-color="#abacae" stop-opacity="1"/><stop id="stop7385" offset="1" stop-color="#fafafa" stop-opacity="1"/></linearGradient><linearGradient id="linearGradient7421"><stop id="stop7423" offset="0" stop-color="#fff" stop-opacity="1"/><stop id="stop7425" offset="1" stop-color="#fff" stop-opacity="0"/></linearGradient><linearGradient id="linearGradient968" x1="47.43" x2="50.421" y1="54.704" y2="58.912" gradientTransform="translate(-9.6411934,-10.809574)" gradientUnits="userSpaceOnUse" xlink:href="#linearGradient7421"/><linearGradient id="linearGradient994" x1="39.706" x2="41.641" y1="44.005" y2="47.442" gradientUnits="userSpaceOnUse" xlink:href="#linearGradient992"/><linearGradient id="linearGradient992"><stop id="stop988" offset="0" stop-color="#d4d4d4" stop-opacity="1"/><stop id="stop990" offset="1" stop-color="#d4d4d4" stop-opacity="0"/></linearGradient><linearGradient id="linearGradient986" x1="38.833" x2="40.777" y1="44.152" y2="47.46" gradientUnits="userSpaceOnUse" xlink:href="#linearGradient984"/><linearGradient id="linearGradient984"><stop id="stop980" offset="0" stop-color="#555761" stop-opacity="1"/><stop id="stop982" offset="1" stop-color="#555761" stop-opacity="0"/></linearGradient></defs><metadata id="metadata3906"/><rect id="rect2879" width="32.508" height="3.57" x="7.738" y="42.43" fill="url(#linearGradient3118)" fill-opacity="1" fill-rule="nonzero" stroke="none" stroke-width="1" display="inline" opacity=".3" overflow="visible" visibility="visible" style="marker:none"/><path id="path2881" fill="url(#radialGradient3115)" fill-opacity="1" fill-rule="nonzero" stroke="none" stroke-width="1" d="m 7.7378475,42.430102 c 0,0 0,3.569856 0,3.569856 -1.1865002,0.0067 -2.8683795,-0.799823 -2.8683795,-1.785158 0,-0.985333 1.3240446,-1.784697 2.8683795,-1.784698 z" display="inline" opacity=".3" overflow="visible" visibility="visible" style="marker:none"/><path id="path2883" fill="url(#radialGradient3112)" fill-opacity="1" fill-rule="nonzero" stroke="none" stroke-width="1" d="m 40.246148,42.430102 c 0,0 0,3.569856 0,3.569856 1.1865,0.0067 2.86838,-0.799823 2.86838,-1.785158 0,-0.985333 -1.324045,-1.784697 -2.86838,-1.784698 z" display="inline" opacity=".3" overflow="visible" visibility="visible" style="marker:none"/><path id="path4160" fill="url(#linearGradient3109)" fill-opacity="1" stroke="none" d="m 7,1.0000001 c 7.791126,0 33.999959,0.00274 33.999959,0.00274 L 41,44 C 41,44 18.333334,44 7,44 7,29.666666 7,15.333333 7,1 z" display="inline"/><path id="rect6741-1" fill="none" stroke="url(#linearGradient3106)" stroke-dasharray="none" stroke-dashoffset="0" stroke-linecap="round" stroke-linejoin="miter" stroke-miterlimit="4" stroke-opacity="1" stroke-width="1" d="m 40.5,43.5 -33,0 0,-41.9999998 33,0 z"/><path id="path4160-6-1" fill="none" stroke="url(#linearGradient3170)" stroke-dasharray="none" stroke-dashoffset="0" stroke-linecap="butt" stroke-linejoin="round" stroke-miterlimit="4" stroke-opacity="1" stroke-width="1" d="m 6.4999605,0.4999623 c 8.0202885,0 35.0000415,0.00298 35.0000415,0.00298 l 3.7e-5,43.9970957 c 0,0 -23.333385,0 -35.0000785,0 0,-14.666738 0,-29.333326 0,-43.9998923 z" display="inline"/><path stroke-miterlimit="4" style="font-variant-east_asian:normal" id="path6912" fill="url(#linearGradient994)" fill-opacity="1" fill-rule="evenodd" stroke="url(#linearGradient986)" stroke-dasharray="none" stroke-dashoffset=".361" stroke-linecap="round" stroke-linejoin="round" stroke-opacity=".5" stroke-width="1" d="m 20.876076,27.330901 c -0.05457,0.05832 -0.09378,0.129 -0.112443,0.206591 -0.513929,2.213521 -0.270961,4.756837 0.703841,6.500138 1.331263,2.380803 4.103906,3.516797 6.81891,3.036248 1.109425,0.373022 2.581053,1.194238 4.325283,2.925828 l 21.774977,21.617245 4.1023,-4.072767 L 36.713979,35.92694 c -1.572378,-1.560968 -2.397496,-2.899079 -2.820136,-3.955724 0.366691,-1.460725 0.217303,-3.020265 -0.554323,-4.400246 -0.9744,-1.742558 -3.019036,-3.283352 -5.185918,-4.034721 -0.185943,-0.06799 -0.390726,-0.01605 -0.5172,0.133486 -0.126486,0.149504 -0.148467,0.363933 -0.04925,0.534437 l 2.653019,4.754972 c 0.238303,0.426154 0.113978,0.974273 -0.270098,1.534845 -0.387715,0.565884 -1.032795,1.131308 -1.858185,1.580953 -0.825555,0.449716 -1.650969,0.696454 -2.341049,0.719768 -0.686006,0.02325 -1.225081,-0.167034 -1.463986,-0.594309 l -2.668964,-4.781367 c -0.07441,-0.132659 -0.205007,-0.219611 -0.356462,-0.237223 -0.151443,-0.01759 -0.304292,0.03683 -0.405325,0.14909 z" display="inline" enable-background="new" opacity="1" vector-effect="none"/><path id="path7379" fill="url(#linearGradient3284)" fill-opacity="1" fill-rule="evenodd" stroke="none" stroke-width="1.181" d="m 28.00477,23.938748 c 0.02209,0.0083 0.0083,0.03683 0,0.03695 l 2.657518,4.75869 c 0.358506,0.641079 0.09992,1.398184 -0.332189,2.028899 -0.436412,0.636959 -1.112615,1.25411 -1.99314,1.733786 -0.882414,0.480703 -1.807963,0.711564 -2.583699,0.737782 -0.774034,0.02621 -1.500576,-0.194668 -1.845499,-0.81156 l -2.657519,-4.795579 c -0.01524,-0.0024 -0.03945,0.0024 -0.03697,0 0.02433,-0.02597 0.0047,0.01889 0,0.03695 -0.49007,2.110799 -0.235893,4.550459 0.66438,6.160475 1.231459,2.202319 3.802508,3.254206 6.348517,2.803569 2.534057,-0.453316 4.700809,-2.659755 5.241218,-4.75869 0.341237,-1.359383 0.195865,-2.820261 -0.51674,-4.094687 -0.897828,-1.605613 -2.872919,-3.11764 -4.945938,-3.836463 z" display="inline" enable-background="new"/><path id="path6394" fill="none" fill-opacity="1" stroke="url(#linearGradient968)" stroke-dasharray="none" stroke-dashoffset=".361" stroke-linecap="round" stroke-linejoin="round" stroke-miterlimit="4" stroke-opacity="1" stroke-width="1" d="m 29.333527,25.266754 1.771679,3.20935 c 0.503818,0.900923 0.158034,1.866726 -0.33219,2.582235 -0.49529,0.722899 -1.230514,1.365362 -2.177689,1.881342 -0.951155,0.518149 -1.925874,0.818732 -2.805159,0.848449 -0.880453,0.02977 -1.852243,-0.260566 -2.325329,-1.106672 L 21.61934,29.361441 c -0.07866,1.555962 0.09862,3.127549 0.70129,4.205355 1.110807,1.986545 3.453156,2.959822 5.794867,2.545345 0.171428,-0.03384 0.351856,-0.02096 0.51674,0.03689 1.269219,0.426735 2.856703,1.317985 4.687568,3.135571 L 55.096696,60.901598 57.791125,58.245585 36.014234,36.628588 c -1.650697,-1.638708 -2.548691,-3.084275 -3.026619,-4.279132 -0.07205,-0.186842 -0.08504,-0.395886 -0.03685,-0.590225 0.310481,-1.236868 0.198334,-2.578973 -0.442919,-3.725796 -0.586084,-1.048119 -1.82659,-2.008378 -3.174259,-2.766681 z" display="inline" enable-background="new" opacity="1" vector-effect="none" style="font-variant-east_asian:normal"/></svg>