<svg xmlns="http://www.w3.org/2000/svg" xmlns:svg="http://www.w3.org/2000/svg" xmlns:xlink="http://www.w3.org/1999/xlink" id="svg3508" width="48" height="48" version="1.0"><metadata id="metadata57"/><defs id="defs3510"><linearGradient id="linearGradient5048"><stop id="stop5050" offset="0" stop-color="#000" stop-opacity="0"/><stop id="stop5056" offset=".5" stop-color="#000" stop-opacity="1"/><stop id="stop5052" offset="1" stop-color="#000" stop-opacity="0"/></linearGradient><linearGradient id="linearGradient2721" x1="302.857" x2="302.857" y1="366.648" y2="609.505" gradientTransform="matrix(0.06732488,0,0,0.01470022,-0.3411391,37.040146)" gradientUnits="userSpaceOnUse" xlink:href="#linearGradient5048"/><radialGradient id="radialGradient2718" cx="605.714" cy="486.648" r="117.143" fx="605.714" fy="486.648" gradientTransform="matrix(-0.02303994,0,0,0.01470022,21.62311,37.040176)" gradientUnits="userSpaceOnUse" xlink:href="#linearGradient5060"/><linearGradient id="linearGradient5060"><stop id="stop5062" offset="0" stop-color="#000" stop-opacity="1"/><stop id="stop5064" offset="1" stop-color="#000" stop-opacity="0"/></linearGradient><radialGradient id="radialGradient2715" cx="605.714" cy="486.648" r="117.143" fx="605.714" fy="486.648" gradientTransform="matrix(0.02303995,0,0,0.01470022,26.360882,37.040176)" gradientUnits="userSpaceOnUse" xlink:href="#linearGradient5060"/><linearGradient id="linearGradient2712" x1="-51.786" x2="-51.786" y1="50.786" y2="2.906" gradientTransform="matrix(0.8074968,0,0,0.8948322,59.410232,-2.9805533)" gradientUnits="userSpaceOnUse" xlink:href="#linearGradient3104"/><linearGradient id="linearGradient3600"><stop id="stop3602" offset="0" stop-color="#f4f4f4" stop-opacity="1"/><stop id="stop3604" offset="1" stop-color="#dbdbdb" stop-opacity="1"/></linearGradient><linearGradient id="linearGradient2710" x1="25.132" x2="25.132" y1=".985" y2="47.013" gradientTransform="matrix(1,0,0,0.9561695,-1.0064697e-7,-1.914922)" gradientUnits="userSpaceOnUse" xlink:href="#linearGradient3600"/><radialGradient id="XMLID_8_" cx="102" cy="112.305" r="139.559" gradientUnits="userSpaceOnUse"><stop id="stop41" offset="0" stop-color="#b7b8b9" stop-opacity="1"/><stop id="stop47" offset=".189" stop-color="#ececec" stop-opacity="1"/><stop id="stop49" offset=".257" stop-color="#fafafa" stop-opacity="0"/><stop id="stop51" offset=".301" stop-color="#fff" stop-opacity="0"/><stop id="stop53" offset=".531" stop-color="#fafafa" stop-opacity="0"/><stop id="stop55" offset=".845" stop-color="#ebecec" stop-opacity="0"/><stop id="stop57" offset="1" stop-color="#e1e2e3" stop-opacity="0"/></radialGradient><radialGradient id="radialGradient2707" cx="102" cy="112.305" r="139.559" gradientTransform="matrix(0.3617022,0,0,-0.3907784,0.8510637,47.517004)" gradientUnits="userSpaceOnUse" xlink:href="#XMLID_8_"/><linearGradient id="linearGradient3211"><stop id="stop3213" offset="0" stop-color="#fff" stop-opacity="1"/><stop id="stop3215" offset="1" stop-color="#fff" stop-opacity="0"/></linearGradient><linearGradient id="linearGradient2704" x1="24" x2="24" y1="2" y2="46.017" gradientTransform="matrix(1,0,0,0.9777778,0,-0.9666693)" gradientUnits="userSpaceOnUse" xlink:href="#linearGradient3211"/><linearGradient id="linearGradient3104"><stop id="stop3106" offset="0" stop-color="#aaa" stop-opacity="1"/><stop id="stop3108" offset="1" stop-color="#c8c8c8" stop-opacity="1"/></linearGradient><linearGradient id="linearGradient2701" x1="22.004" x2="22.004" y1="47.813" y2="3.364" gradientTransform="translate(-1.982096,-3.0470736)" gradientUnits="userSpaceOnUse" xlink:href="#linearGradient3104"/><filter id="filter3248" width="1.297" height="1.329" x="-.148" y="-.164" color-interpolation-filters="sRGB"><feGaussianBlur id="feGaussianBlur3250" stdDeviation=".774"/></filter><linearGradient id="linearGradient8589"><stop id="stop8591" offset="0" stop-color="#fefefe" stop-opacity="1"/><stop id="stop8593" offset="1" stop-color="#cbcbcb" stop-opacity="1"/></linearGradient><linearGradient id="linearGradient2697" x1="32.892" x2="36.358" y1="8.059" y2="5.457" gradientTransform="matrix(0.9976985,0,0,1.0406866,0.1638029,-1.1057939)" gradientUnits="userSpaceOnUse" xlink:href="#linearGradient8589"/><linearGradient id="linearGradient3035" x1="32.892" x2="36.358" y1="8.059" y2="5.457" gradientTransform="matrix(0.9976985,0,0,1.0406866,0.1638029,-1.1057939)" gradientUnits="userSpaceOnUse" xlink:href="#linearGradient8589"/><linearGradient id="linearGradient3042" x1="22.004" x2="22.004" y1="47.813" y2="3.364" gradientTransform="translate(-1.982096,-3.0470736)" gradientUnits="userSpaceOnUse" xlink:href="#linearGradient3104"/><linearGradient id="linearGradient3045" x1="24" x2="24" y1="2" y2="46.017" gradientTransform="matrix(1,0,0,0.9777778,0,-0.9666693)" gradientUnits="userSpaceOnUse" xlink:href="#linearGradient3211"/><radialGradient id="radialGradient3048" cx="102" cy="112.305" r="139.559" gradientTransform="matrix(0.3617022,0,0,-0.3907784,0.8510637,47.517004)" gradientUnits="userSpaceOnUse" xlink:href="#XMLID_8_"/><linearGradient id="linearGradient3051" x1="25.132" x2="25.132" y1=".985" y2="47.013" gradientTransform="matrix(1,0,0,0.9561695,-1.0064697e-7,-1.914922)" gradientUnits="userSpaceOnUse" xlink:href="#linearGradient3600"/><linearGradient id="linearGradient3053" x1="-51.786" x2="-51.786" y1="50.786" y2="2.906" gradientTransform="matrix(0.8074968,0,0,0.8948322,59.410232,-2.9805533)" gradientUnits="userSpaceOnUse" xlink:href="#linearGradient3104"/><radialGradient id="radialGradient3056" cx="605.714" cy="486.648" r="117.143" fx="605.714" fy="486.648" gradientTransform="matrix(0.02303995,0,0,0.01470022,26.360882,37.040176)" gradientUnits="userSpaceOnUse" xlink:href="#linearGradient5060"/><radialGradient id="radialGradient3059" cx="605.714" cy="486.648" r="117.143" fx="605.714" fy="486.648" gradientTransform="matrix(-0.02303994,0,0,0.01470022,21.62311,37.040176)" gradientUnits="userSpaceOnUse" xlink:href="#linearGradient5060"/><linearGradient id="linearGradient3062" x1="302.857" x2="302.857" y1="366.648" y2="609.505" gradientTransform="matrix(0.06732488,0,0,0.01470022,-0.3411391,37.040146)" gradientUnits="userSpaceOnUse" xlink:href="#linearGradient5048"/><linearGradient id="linearGradient3988" x1="24" x2="24" y1="5.564" y2="43" gradientTransform="matrix(0.89189189,0,0,1.1351351,2.5945999,-4.7432314)" gradientUnits="userSpaceOnUse" xlink:href="#linearGradient3977"/><linearGradient id="linearGradient3977"><stop id="stop3979" offset="0" stop-color="#fff" stop-opacity="1"/><stop id="stop3981" offset=".036" stop-color="#fff" stop-opacity=".235"/><stop id="stop3983" offset=".951" stop-color="#fff" stop-opacity=".157"/><stop id="stop3985" offset="1" stop-color="#fff" stop-opacity=".392"/></linearGradient><linearGradient id="linearGradient3322" x1="25.132" x2="25.132" y1=".985" y2="47.013" gradientTransform="matrix(1,0,0,0.9561695,-9.9999999e-8,-1.9149218)" gradientUnits="userSpaceOnUse" xlink:href="#linearGradient3600-7"/><linearGradient id="linearGradient3600-7"><stop id="stop3602-6" offset="0" stop-color="#f4f4f4" stop-opacity="1"/><stop id="stop3604-5" offset="1" stop-color="#dbdbdb" stop-opacity="1"/></linearGradient><linearGradient id="linearGradient3324" x1="-51.786" x2="-51.786" y1="50.786" y2="2.906" gradientTransform="matrix(0.8074968,0,0,0.8948322,59.410232,-2.9805531)" gradientUnits="userSpaceOnUse" xlink:href="#linearGradient3104-6"/><linearGradient id="linearGradient3104-6"><stop id="stop3106-9" offset="0" stop-color="#a0a0a0" stop-opacity="1"/><stop id="stop3108-3" offset="1" stop-color="#bebebe" stop-opacity="1"/></linearGradient><radialGradient id="radialGradient3327" cx="605.714" cy="486.648" r="117.143" fx="605.714" fy="486.648" gradientTransform="matrix(0.02303995,0,0,0.01470022,26.360882,37.040176)" gradientUnits="userSpaceOnUse" xlink:href="#linearGradient5060-7"/><linearGradient id="linearGradient5060-7"><stop id="stop5062-4" offset="0" stop-color="#000" stop-opacity="1"/><stop id="stop5064-5" offset="1" stop-color="#000" stop-opacity="0"/></linearGradient><radialGradient id="radialGradient3330" cx="605.714" cy="486.648" r="117.143" fx="605.714" fy="486.648" gradientTransform="matrix(-0.02303994,0,0,0.01470022,21.62311,37.040176)" gradientUnits="userSpaceOnUse" xlink:href="#linearGradient5060-7"/><linearGradient id="linearGradient5048-2"><stop id="stop5050-5" offset="0" stop-color="#000" stop-opacity="0"/><stop id="stop5056-4" offset=".5" stop-color="#000" stop-opacity="1"/><stop id="stop5052-7" offset="1" stop-color="#000" stop-opacity="0"/></linearGradient><linearGradient id="linearGradient3057" x1="302.857" x2="302.857" y1="366.648" y2="609.505" gradientTransform="matrix(0.06732488,0,0,0.01470022,-0.3411391,37.040146)" gradientUnits="userSpaceOnUse" xlink:href="#linearGradient5048-2"/></defs><rect id="rect2879" width="32.508" height="3.57" x="7.738" y="42.43" fill="url(#linearGradient3057)" fill-opacity="1" fill-rule="nonzero" stroke="none" stroke-width="1" display="inline" opacity=".3" overflow="visible" visibility="visible" style="marker:none"/><path id="path2881" fill="url(#radialGradient3330)" fill-opacity="1" fill-rule="nonzero" stroke="none" stroke-width="1" d="m 7.7378475,42.430102 c 0,0 0,3.569856 0,3.569856 -1.1865002,0.0067 -2.8683795,-0.799823 -2.8683795,-1.785158 0,-0.985333 1.3240446,-1.784697 2.8683795,-1.784698 z" display="inline" opacity=".3" overflow="visible" visibility="visible" style="marker:none"/><path id="path2883" fill="url(#radialGradient3327)" fill-opacity="1" fill-rule="nonzero" stroke="none" stroke-width="1" d="m 40.246148,42.430102 c 0,0 0,3.569856 0,3.569856 1.1865,0.0067 2.86838,-0.799823 2.86838,-1.785158 0,-0.985333 -1.324045,-1.784697 -2.86838,-1.784698 z" display="inline" opacity=".3" overflow="visible" visibility="visible" style="marker:none"/><path id="path4160" fill="url(#linearGradient3322)" fill-opacity="1" stroke="url(#linearGradient3324)" stroke-dasharray="none" stroke-dashoffset="0" stroke-linecap="butt" stroke-linejoin="round" stroke-miterlimit="4" stroke-opacity="1" stroke-width="1" d="M 6.4999609,0.497199 C 14.520256,0.497199 41.5,0.5 41.5,0.5 l 4.2e-5,44.002803 c 0,0 -23.333387,0 -35.0000811,0 0,-14.668535 0,-29.33707 0,-44.00560407 z" display="inline"/><path id="rect6741-1" fill="none" stroke="url(#linearGradient3988)" stroke-dasharray="none" stroke-dashoffset="0" stroke-linecap="round" stroke-linejoin="round" stroke-miterlimit="4" stroke-opacity="1" stroke-width="1" d="m 40.5,43.5 -33,0 0,-41.9999998 33,0 z"/><path id="path3475" fill="none" stroke="url(#linearGradient3042)" stroke-linecap="butt" stroke-linejoin="miter" stroke-opacity="1" stroke-width="1" d="m 11,8.5 2.34375,0 L 11,8.5 z m 2.6875,0 2.1875,0 -2.1875,0 z m 2.53125,0 1.9375,0 -1.9375,0 z m 2.25,0 0.84375,0 -0.84375,0 z m 1.1875,0 1.875,0 -1.875,0 z m 2.25,0 4.9375,0 -4.9375,0 z m 5.25,0 3.78125,0 -3.78125,0 z m 4.09375,0 1.15625,0 -1.15625,0 z m -20.25,2 3.65625,0 L 11,10.5 z m 4.0625,0 1.75,0 -1.75,0 z m 2.0625,0 0.875,0 -0.875,0 z m 1.21875,0 1.59375,0 -1.59375,0 z m 1.9375,0 1.625,0 -1.625,0 z m 1.9375,0 2.59375,0 -2.59375,0 z m 2.9375,0 3.375,0 -3.375,0 z m 3.6875,0 2.25,0 -2.25,0 z m 2.5625,0 0.5625,0 -0.5625,0 z M 11,12.46875 l 3.09375,0 -3.09375,0 z m 3.40625,0 5.0625,0 -5.0625,0 z m 5.375,0 2.46875,0 -2.46875,0 z m 2.78125,0 2.3125,0 -2.3125,0 z m 2.625,0 1.96875,0 -1.96875,0 z m 2.28125,0 L 30.5625,12.5 27.46875,12.46875 z m 3.375,0.03125 5.03125,0 -5.03125,0 z M 11,14.5 15.28125,14.5 11,14.5 z m 4.625,0 4.625,0 -4.625,0 z m 4.9375,0 1.84375,0 -1.84375,0 z m 2.15625,0 4.34375,0 -4.34375,0 z m 4.625,0 2.96875,0 -2.96875,0 z m 3.3125,0 1.1875,0 -1.1875,0 z m 1.5,0 0.65625,0 -0.65625,0 z m 1,0 1.84375,0 -1.84375,0 z M 11,16.5 12.59375,16.5 11,16.5 z m 2.09375,0 5.90625,0 -5.90625,0 z M 11,20.46875 l 3.09375,0 -3.09375,0 z m 3.40625,0 5.0625,0 -5.0625,0 z m 5.375,0 2.46875,0 -2.46875,0 z m 2.78125,0 2.3125,0 -2.3125,0 z m 2.625,0 1.96875,0 -1.96875,0 z m 2.28125,0 L 30.5625,20.5 27.46875,20.46875 z m 3.375,0.03125 5.03125,0 -5.03125,0 z M 11,22.5 13.34375,22.5 11,22.5 z m 2.6875,0 2.15625,0 -2.15625,0 z m 2.53125,0 1.9375,0 -1.9375,0 z m 2.25,0 0.84375,0 -0.84375,0 z m 1.1875,0 1.875,0 -1.875,0 z m 2.25,0 4.90625,0 -4.90625,0 z m 5.25,0 3.75,0 -3.75,0 z m 4.0625,0 1.1875,0 -1.1875,0 z m 1.5,0 2.8125,0 -2.8125,0 z M 11,24.5 l 3.9375,0 -3.9375,0 z m 4.25,0 4.21875,0 -4.21875,0 z m 4.53125,0 1.625,0 -1.625,0 z m 1.9375,0 3.96875,0 -3.96875,0 z m 4.28125,0 5,0 -5,0 z m 5.34375,0 1.84375,0 -1.84375,0 z M 11,26.5 15.28125,26.5 11,26.5 z m 4.625,0 4.625,0 -4.625,0 z m 4.9375,0 1.84375,0 -1.84375,0 z m 2.15625,0 4.34375,0 -4.34375,0 z m 4.625,0 2.96875,0 -2.96875,0 z m 3.3125,0 1.1875,0 -1.1875,0 z m 1.5,0 0.65625,0 -0.65625,0 z m 1,0 1.84375,0 -1.84375,0 z M 11,28.5 14.65625,28.5 11,28.5 z m 4.0625,0 1.75,0 -1.75,0 z m 2.0625,0 0.875,0 -0.875,0 z m 1.21875,0 1.59375,0 -1.59375,0 z m 1.9375,0 1.625,0 -1.625,0 z m 1.9375,0 2.59375,0 -2.59375,0 z m 2.9375,0 3.375,0 -3.375,0 z m 3.6875,0 2.25,0 -2.25,0 z m 2.5625,0 0.5625,0 -0.5625,0 z M 11,32.46875 l 3.09375,0 -3.09375,0 z m 3.40625,0 5.0625,0 -5.0625,0 z m 5.375,0 2.46875,0 -2.46875,0 z m 2.78125,0 2.3125,0 -2.3125,0 z m 2.625,0 1.96875,0 -1.96875,0 z m 2.28125,0 L 30.5625,32.5 27.46875,32.46875 z m 3.375,0.03125 5.03125,0 -5.03125,0 z M 11,34.5 14.65625,34.5 11,34.5 z m 4.0625,0 1.75,0 -1.75,0 z m 2.0625,0 0.875,0 -0.875,0 z m 1.21875,0 1.59375,0 -1.59375,0 z m 1.9375,0 1.625,0 -1.625,0 z m 1.9375,0 2.59375,0 -2.59375,0 z m 2.9375,0 3.375,0 -3.375,0 z m 3.6875,0 2.25,0 -2.25,0 z m 2.5625,0 0.5625,0 -0.5625,0 z M 11,36.5 l 3.875,0 -3.875,0 z m 4.21875,0 1.21875,0 -1.21875,0 z m 1.53125,0 2.78125,0 -2.78125,0 z m 3.09375,0 4.09375,0 -4.09375,0 z m 4.4375,0 2.78125,0 -2.78125,0 z m 3.0625,0 0.59375,0 -0.59375,0 z m 0.90625,0 3.53125,0 -3.53125,0 z m 3.90625,0 1.84375,0 -1.84375,0 z M 11,38.5 l 3.875,0 -3.875,0 z m 4.21875,0 1.75,0 -1.75,0 z m 2.0625,0 2.75,0 -2.75,0 z m 3.0625,0 2.96875,0 -2.96875,0 z m 3.3125,0 1.1875,0 -1.1875,0 z m 1.5,0 0.65625,0 -0.65625,0 z m 1,0 1.84375,0 -1.84375,0 z"/><path id="rect2878" fill="#729fcf" fill-opacity="1" stroke="none" d="m 10,7 0,30 0,1 0,2 17.62963,0 0,-2 L 38,38 38,7 10,7 z" display="inline" opacity=".3"/><path id="rect3782" fill="#fff" fill-opacity="1" stroke="none" d="m 24,35 0,3 1,0 0,1 -1,0 0,3 5,0 0,-3 -0.96875,0 0,-1 0.96875,0 0,-3 -5,0 z" display="inline"/><path id="rect3789" fill="#000" fill-opacity="1" stroke="none" d="m 25,36 0,1 1,0 0,3 -1,0 0,1 3,0 0,-1 -1,0 0,-3 1,0 0,-1 -3,0 z" display="inline"/></svg>