<svg xmlns="http://www.w3.org/2000/svg" xmlns:svg="http://www.w3.org/2000/svg" xmlns:xlink="http://www.w3.org/1999/xlink" id="svg18157" width="48" height="48" version="1.1"><defs id="defs18159"><linearGradient id="linearGradient12489" x1="42.471" x2="42.471" y1="11.953" y2="35.582" gradientTransform="matrix(0.89189031,0,0,1.0986542,3.142773,3.887208)" gradientUnits="userSpaceOnUse" xlink:href="#linearGradient3454-2-5-0-3"/><linearGradient id="linearGradient3454-2-5-0-3"><stop id="stop3456-4-9-38-1" offset="0" stop-color="#fff" stop-opacity="1"/><stop id="stop3458-39-80-3-5" offset=".01" stop-color="#fff" stop-opacity=".235"/><stop id="stop3460-7-0-2-4" offset=".99" stop-color="#fff" stop-opacity=".157"/><stop id="stop3462-0-9-8-7" offset="1" stop-color="#fff" stop-opacity=".392"/></linearGradient><radialGradient id="radialGradient12475" cx="605.714" cy="486.648" r="117.143" fx="605.714" fy="486.648" gradientTransform="matrix(-0.03079083,0,0,0.02470588,23.389752,31.94164)" gradientUnits="userSpaceOnUse" xlink:href="#linearGradient5060-820-91-9-0"/><linearGradient id="linearGradient5060-820-91-9-0"><stop id="stop2681-778-5-1" offset="0" stop-color="#000" stop-opacity="1"/><stop id="stop2683-2-86-2" offset="1" stop-color="#000" stop-opacity="0"/></linearGradient><radialGradient id="radialGradient12471" cx="605.714" cy="486.648" r="117.143" fx="605.714" fy="486.648" gradientTransform="matrix(0.03079083,0,0,0.02470588,24.610252,31.94164)" gradientUnits="userSpaceOnUse" xlink:href="#linearGradient5060-179-37-4-0"/><linearGradient id="linearGradient5060-179-37-4-0"><stop id="stop2675-91-9-2" offset="0" stop-color="#000" stop-opacity="1"/><stop id="stop2677-09-0-9" offset="1" stop-color="#000" stop-opacity="0"/></linearGradient><linearGradient id="linearGradient12467" x1="302.857" x2="302.857" y1="366.648" y2="609.505" gradientTransform="matrix(0.07938856,0,0,0.02470588,-4.6932879,31.94164)" gradientUnits="userSpaceOnUse" xlink:href="#linearGradient5048-585-73-1-5"/><linearGradient id="linearGradient5048-585-73-1-5"><stop id="stop2667-99-4-6" offset="0" stop-color="#000" stop-opacity="0"/><stop id="stop2669-5-9-4" offset=".5" stop-color="#000" stop-opacity="1"/><stop id="stop2671-56-4-2" offset="1" stop-color="#000" stop-opacity="0"/></linearGradient><linearGradient id="linearGradient12463" x1="21.37" x2="21.37" y1="7.227" y2="34.143" gradientTransform="matrix(0.89189031,0,0,1.0580283,3.1206621,5.3535997)" gradientUnits="userSpaceOnUse" xlink:href="#linearGradient4507-0-4-7"/><linearGradient id="linearGradient4507-0-4-7"><stop id="stop4509-35-6-1" offset="0" stop-color="#fff" stop-opacity="1"/><stop id="stop4511-46-3-8" offset="0" stop-color="#fff" stop-opacity=".235"/><stop id="stop4513-15-5-9" offset=".99" stop-color="#fff" stop-opacity=".157"/><stop id="stop4515-1-1-8" offset="1" stop-color="#fff" stop-opacity=".392"/></linearGradient><linearGradient id="linearGradient12459" x1="62.989" x2="62.989" y1="13" y2="16" gradientTransform="translate(-50.940897)" gradientUnits="userSpaceOnUse" xlink:href="#linearGradient4646-7-4-3"/><linearGradient id="linearGradient4646-7-4-3"><stop id="stop4648-8-0-3" offset="0" stop-color="#f9f9f9" stop-opacity="1"/><stop id="stop4650-1-7-3" offset="1" stop-color="#d8d8d8" stop-opacity="1"/></linearGradient><linearGradient id="linearGradient4632-0-6-4-4-4"><stop id="stop4634-4-4-7-4" offset="0" stop-color="#efdfc4" stop-opacity="1"/><stop id="stop4636-3-1-5-9" offset="1" stop-color="#e7c591" stop-opacity="1"/></linearGradient><linearGradient id="linearGradient997" x1="45.429" x2="45.429" y1="52.771" y2="113.494" gradientTransform="matrix(0.50413225,0,0,0.49333391,3.097875,-11.033513)" gradientUnits="userSpaceOnUse" xlink:href="#linearGradient4632-0-6-4-4-4"/><radialGradient id="radialGradient3343" cx="65.598" cy="48.745" r="31" fx="65.598" fy="48.745" gradientTransform="matrix(0,0.95936489,-1.0436697,0,87.757589,-35.865792)" gradientUnits="userSpaceOnUse" xlink:href="#linearGradient3242-7-3-8-0-4-58-06"/><linearGradient id="linearGradient3242-7-3-8-0-4-58-06"><stop id="stop3244-5-8-5-6-4-3-8" offset="0" stop-color="#cdf87e" stop-opacity="1"/><stop id="stop3246-9-5-1-5-3-0-7" offset=".262" stop-color="#a2e34f" stop-opacity="1"/><stop id="stop3248-7-2-0-7-5-35-9" offset=".661" stop-color="#68b723" stop-opacity="1"/><stop id="stop3250-8-2-8-5-6-40-4" offset="1" stop-color="#1d7e0d" stop-opacity="1"/></linearGradient><linearGradient id="linearGradient3030-10" x1="24.139" x2="24.139" y1="9.712" y2="36.594" gradientTransform="matrix(0.70448868,0,0,0.59520312,21.241407,23.219131)" gradientUnits="userSpaceOnUse" xlink:href="#linearGradient4154"/><linearGradient id="linearGradient4154"><stop id="stop4156" offset="0" stop-color="#fff" stop-opacity="1"/><stop id="stop4158" offset="0" stop-color="#fff" stop-opacity=".235"/><stop id="stop4160" offset="1" stop-color="#fff" stop-opacity=".157"/><stop id="stop4162" offset="1" stop-color="#fff" stop-opacity=".392"/></linearGradient><linearGradient id="linearGradient3030-1" x1="24.139" x2="24.139" y1="20.271" y2="26.006" gradientTransform="matrix(0.60015241,0,0,0.69748032,23.556108,20.861165)" gradientUnits="userSpaceOnUse" xlink:href="#linearGradient4154"/></defs><metadata id="metadata18162"/><path id="rect4251-0-0-61" fill="none" fill-opacity="1" stroke="#7e8087" stroke-dasharray="none" stroke-dashoffset="0" stroke-linecap="square" stroke-linejoin="miter" stroke-miterlimit="4" stroke-opacity="1" stroke-width=".992" d="m 5.5000021,8.4999997 c -0.554,0 -1,0.446 -1,1 V 11.5 h -1 c -0.554,0 -1,0.446 -1,1 v 6 c 0,0.554 0.446,1 1,1 H 44.500002 c 0.554,0 1,-0.446 1,-1 v -6 c 0,-0.554 -0.446,-1 -1,-1 h -23 V 9.4999997 c 0,-0.554 -0.446,-1 -1,-1 z" color="#000" display="inline" enable-background="accumulate" opacity=".5" overflow="visible" vector-effect="none" visibility="visible" style="marker:none;font-variant-east_asian:normal"/><path id="rect4251-3-2" fill="url(#linearGradient12459)" fill-opacity="1" fill-rule="nonzero" stroke="none" stroke-width="1" d="m 5.5000021,8.9999997 c -0.277,0 -0.5,0.223 -0.5,0.5 V 12 h -1.5 c -0.277,0 -0.5,0.223 -0.5,0.5 v 6 c 0,0.277 0.223,0.5 0.5,0.5 H 44.500002 c 0.277,0 0.5,-0.223 0.5,-0.5 v -6 c 0,-0.277 -0.223,-0.5 -0.5,-0.5 h -23.5 V 9.4999997 c 0,-0.277 -0.223,-0.5 -0.5,-0.5 z" color="#000" display="inline" enable-background="accumulate" overflow="visible" visibility="visible" style="marker:none"/><path id="rect4251-9-21-7" fill="none" stroke="url(#linearGradient12463)" stroke-dasharray="none" stroke-dashoffset="0" stroke-linecap="round" stroke-linejoin="round" stroke-miterlimit="4" stroke-opacity="1" stroke-width="1" d="M 5.5000021,9.4999997 V 12.5 h -2 v 7 H 44.500002 v -7 h -24 V 9.4999997 Z" color="#000" display="inline" enable-background="accumulate" overflow="visible" visibility="visible" style="marker:none"/><rect id="rect4173-8-8" width="38.333" height="6" x="4.833" y="41" fill="url(#linearGradient12467)" fill-opacity="1" fill-rule="nonzero" stroke="none" stroke-width="1" display="inline" opacity=".3" overflow="visible" visibility="visible" style="marker:none"/><path d="m 43.166672,41.00021 c 0,0 0,5.99967 0,5.99967 1.58565,0.0113 3.83333,-1.34422 3.83333,-3.00022 0,-1.656 -1.76947,-2.99945 -3.83333,-2.99945 z" style="marker:none" id="path5058-9-0" fill="url(#radialGradient12471)" fill-opacity="1" fill-rule="nonzero" stroke="none" stroke-width="1" display="inline" opacity=".3" overflow="visible" visibility="visible"/><path d="m 4.8333321,41.00021 c 0,0 0,5.99967 0,5.99967 -1.58565,0.0113 -3.83333,-1.34422 -3.83333,-3.00022 0,-1.656 1.76947,-2.99945 3.83333,-2.99945 z" style="marker:none" id="path5018-6-6" fill="url(#radialGradient12475)" fill-opacity="1" fill-rule="nonzero" stroke="none" stroke-width="1" display="inline" opacity=".3" overflow="visible" visibility="visible"/><path id="path3388-7-1" fill="url(#linearGradient997)" fill-opacity="1" stroke="#987124" stroke-dasharray="none" stroke-dashoffset="0" stroke-linecap="butt" stroke-linejoin="miter" stroke-miterlimit="4" stroke-opacity=".498" stroke-width="1" d="m 2.1626121,15.50019 c -1.07231,0.12829 -0.49959,1.45416 -0.58508,2.19974 0.12444,0.48182 0.92748,26.17643 0.92748,26.17643 0,0.7414 0.35172,0.61579 1.24292,0.61579 13.1885599,0 27.7725299,0 40.9610899,0 0.96008,0.0231 0.75718,0.0121 0.75718,-0.62748 0,0 0.99298,-27.35421 1.0285,-27.7811 0,-0.44949 0.0902,-0.58338 -0.47316,-0.58338 -14.08405,0 -29.77488,0 -43.8589299,0 z" opacity="1" vector-effect="none" style="font-variant-east_asian:normal;marker:none"/><path id="path4587-3-5" fill="none" stroke="url(#linearGradient12489)" stroke-dasharray="none" stroke-dashoffset="0" stroke-linecap="round" stroke-linejoin="miter" stroke-miterlimit="4" stroke-opacity="1" stroke-width="1" d="m 2.5221121,16.499999 c 0.016793,0.183202 0.022163,0.537823 0.03125,0.908598 0.023112,0.08973 0.025524,0.06151 0.03125,0.09735 0.011058,0.06921 0.027034,0.143566 0.03125,0.1947 0.0064,0.07761 -0.00668,0.179686 0,0.292049 0.013352,0.224726 0.045306,0.530459 0.0625,0.908598 0.034388,0.756279 0.078083,1.7745 0.125,3.017843 0.093834,2.486687 0.2030642,5.769016 0.3125,9.02108 0.2122959,6.308724 0.3945663,12.188203 0.40625,12.558123 0.1225025,0.0037 0.071108,0 0.25,0 H 44.490862 c 0.0124,-0.341463 0.253182,-6.673493 0.5,-13.401821 0.126691,-3.453636 0.245386,-6.941969 0.34375,-9.572728 0.04918,-1.31538 0.09434,-2.421026 0.125,-3.212543 0.01322,-0.341237 0.02246,-0.594976 0.03125,-0.811249 z" color="#000" display="inline" enable-background="accumulate" opacity=".5" overflow="visible" visibility="visible" style="marker:none"/><g id="g4429"><path id="path2262" fill="url(#radialGradient3343)" fill-opacity="1" fill-rule="nonzero" stroke="none" stroke-dasharray="none" stroke-dashoffset="0" stroke-linecap="round" stroke-linejoin="round" stroke-miterlimit="4" stroke-opacity="1" stroke-width=".985" d="m 33.500001,33.5 v -6.02737 h 7 V 33.5 h 6.007286 v 7 h -6.007286 v 6.007286 h -7 V 40.5 h -6.007287 v -7 z" color="#000" display="inline" enable-background="accumulate" overflow="visible" visibility="visible" style="marker:none"/><path id="path2272-4" fill="none" stroke="url(#linearGradient3030-10)" stroke-dasharray="none" stroke-linecap="butt" stroke-linejoin="miter" stroke-miterlimit="4" stroke-opacity="1" stroke-width="1" d="M 34.500001,35.459225 V 28.5 h 5 v 6.949866 m 0,3.095588 V 45.5 h -5 v -6.954546" display="inline" opacity=".5"/><path id="path2272-2" fill="none" stroke="url(#linearGradient3030-1)" stroke-dasharray="none" stroke-linecap="butt" stroke-linejoin="miter" stroke-miterlimit="4" stroke-opacity="1" stroke-width="1" d="m 40,34.519929 5.499798,-0.01811 v 4.980302 L 40,39.500231 m -6,0 -5.500203,-0.01811 V 34.501819 L 34,34.519929" display="inline" opacity=".5"/><path id="path2262-2" fill="none" fill-opacity="1" fill-rule="nonzero" stroke="#0f5a00" stroke-dasharray="none" stroke-dashoffset="0" stroke-linecap="round" stroke-linejoin="round" stroke-miterlimit="4" stroke-opacity="1" stroke-width="1" d="m 33.500001,33.5 v -6.02737 h 7 V 33.5 h 6.007286 v 7 h -6.007286 v 6.007286 h -7 V 40.5 h -6.007287 v -7 z" clip-rule="nonzero" color="#000" color-interpolation="sRGB" color-interpolation-filters="linearRGB" color-rendering="auto" display="inline" enable-background="accumulate" image-rendering="auto" opacity=".5" overflow="visible" shape-rendering="auto" text-rendering="auto" visibility="visible" style="isolation:auto;mix-blend-mode:normal;solid-color:#000;solid-opacity:1;marker:none"/></g></svg>