<svg xmlns="http://www.w3.org/2000/svg" xmlns:svg="http://www.w3.org/2000/svg" xmlns:xlink="http://www.w3.org/1999/xlink" id="svg2395" width="48" height="48" version="1.1"><defs id="defs2397"><linearGradient id="linearGradient5105"><stop id="stop5107" offset="0" stop-color="#000" stop-opacity="1"/><stop id="stop5109" offset="1" stop-color="#000" stop-opacity="0"/></linearGradient><radialGradient id="radialGradient5855" cx="11.25" cy="19.031" r="8.063" fx="11.25" fy="19.031" gradientTransform="matrix(-2.4806202,0,0,0.68217177,50.906977,26.517428)" gradientUnits="userSpaceOnUse" xlink:href="#linearGradient5105"/><linearGradient id="linearGradient3169" x1="25" x2="25" y1="9" y2="37" gradientTransform="matrix(-1,0,0,1,45.999999,0)" gradientUnits="userSpaceOnUse" xlink:href="#linearGradient2867-449-88-871-390-598-476-591-434-148-57-177"/><linearGradient id="linearGradient5113"><stop id="stop5115" offset="0" stop-color="#fff" stop-opacity="1"/><stop id="stop5117" offset="1" stop-color="#fff" stop-opacity="0"/></linearGradient><linearGradient id="linearGradient5862" x1="58.749" x2="105.324" y1="2.048" y2="58.048" gradientTransform="matrix(-1.004639,0,0,1,101.02133,-3.04779)" gradientUnits="userSpaceOnUse" xlink:href="#linearGradient5113"/><linearGradient id="linearGradient2867-449-88-871-390-598-476-591-434-148-57-177"><stop id="stop3750" offset="0" stop-color="#8cd5ff" stop-opacity="1"/><stop id="stop3752" offset=".262" stop-color="#64baff" stop-opacity="1"/><stop id="stop3754" offset=".705" stop-color="#3689e6" stop-opacity="1"/><stop id="stop3756" offset="1" stop-color="#0d52bf" stop-opacity="1"/></linearGradient></defs><metadata id="metadata2400"/><path d="m 3,39.499995 a 20,5.5000053 0 1 0 40,0 20,5.5000053 0 1 0 -40,0 z" style="marker:none" id="path4346" fill="url(#radialGradient5855)" fill-opacity="1" fill-rule="nonzero" stroke="none" stroke-width="2.461" color="#000" display="inline" opacity=".163" overflow="visible" visibility="visible"/><path id="path4972" fill="url(#linearGradient3169)" fill-opacity="1" fill-rule="nonzero" stroke="#0d52bf" stroke-dasharray="none" stroke-dashoffset="0" stroke-linecap="butt" stroke-linejoin="round" stroke-miterlimit="4" stroke-opacity=".498" stroke-width="1" d="M 3.499999,25.52548 15.535249,39.5 27.510179,25.52548 h -6.09179 c -2.0473,-5.48597 2.1567,-8.9778 7.03107,-8.9778 3.46376,0 8.16323,1.90496 9.75068,6.6414 0.825659,2.46352 2.27994,1.38432 2.223739,-0.75674 C 40.206349,14.17053 34.080999,7.56333 24.936859,7.56333 c -9.14414,0 -15.93686,7.09859 -15.42377,17.96215 z" color="#000" display="inline" overflow="visible" visibility="visible" style="marker:none"/><path id="path4980" fill="none" stroke="url(#linearGradient5862)" stroke-dasharray="none" stroke-dashoffset="0" stroke-linecap="butt" stroke-linejoin="miter" stroke-miterlimit="4" stroke-opacity="1" stroke-width="1" d="m 5.617849,26.52548 9.9174,11.5424 9.85707,-11.5424 h -4.69895 C 18.215609,21 21.792089,15.62862 27.999999,15.52859 c 3.89925,-0.06283 5.94695,1.23305 8.6624,3.47141 1.488009,1.22658 2.24772,3.63896 2.598219,4.51309 0.48056,0.02462 0.19802,-2.6805 -0.26062,-4.36294 -1.67191,-6.13316 -6.846619,-10.65078 -14.183879,-10.66448 -7.33726,-0.0137 -15.30137,5.0245 -14.30303,18.03981 z" color="#000" display="inline" enable-background="accumulate" opacity=".354" overflow="visible" visibility="visible" style="marker:none"/></svg>