<svg xmlns="http://www.w3.org/2000/svg" xmlns:svg="http://www.w3.org/2000/svg" xmlns:xlink="http://www.w3.org/1999/xlink" id="svg4708" width="48" height="48" version="1.1"><defs id="defs4710"><radialGradient id="radialGradient4643" cx="6.703" cy="73.616" r="7.228" fx="6.703" fy="73.616" gradientTransform="matrix(3.0435441,0,0,0.76088585,4.6002692,-16.513156)" gradientUnits="userSpaceOnUse" xlink:href="#linearGradient10691-3"/><linearGradient id="linearGradient10691-3"><stop id="stop10693-1" offset="0" stop-color="#000" stop-opacity="1"/><stop id="stop10695-4" offset="1" stop-color="#000" stop-opacity="0"/></linearGradient><linearGradient id="linearGradient4428-9-7" x1="24.027" x2="24.027" y1="10.082" y2="45.969" gradientTransform="matrix(0.91891894,0,0,0.91891894,-0.0792844,1.7350269)" gradientUnits="userSpaceOnUse" xlink:href="#linearGradient4094-3-9-3"/><linearGradient id="linearGradient4094-3-9-3"><stop id="stop4096-1-4-9" offset="0" stop-color="#fff" stop-opacity="1"/><stop id="stop4098-7-7-6" offset="0" stop-color="#fff" stop-opacity=".235"/><stop id="stop4100-0-5-8" offset="1" stop-color="#fff" stop-opacity=".157"/><stop id="stop4102-4-3-5" offset="1" stop-color="#fff" stop-opacity=".392"/></linearGradient><linearGradient id="linearGradient4494" x1="5.802" x2="5.802" y1="19.413" y2="1.483" gradientTransform="matrix(-2,0,0,-2,47.5,48.5)" gradientUnits="userSpaceOnUse" xlink:href="#linearGradient4190-59"/><linearGradient id="linearGradient4190-59"><stop id="stop4192-42" offset="0" stop-color="#fad4a1" stop-opacity="1"/><stop id="stop4194-6" offset="1" stop-color="#e6b481" stop-opacity="1"/></linearGradient><linearGradient id="linearGradient4428-9" x1="13.145" x2="13.145" y1="1.919" y2="38.88" gradientTransform="matrix(0.91891894,0,0,0.91891894,0.9207156,2.236195)" gradientUnits="userSpaceOnUse" xlink:href="#linearGradient4094-3-9"/><linearGradient id="linearGradient4094-3-9"><stop id="stop4096-1-4" offset="0" stop-color="#fff" stop-opacity="1"/><stop id="stop4098-7-7" offset="0" stop-color="#fff" stop-opacity=".235"/><stop id="stop4100-0-5" offset=".991" stop-color="#fff" stop-opacity=".157"/><stop id="stop4102-4-3" offset="1" stop-color="#fff" stop-opacity=".392"/></linearGradient><linearGradient id="linearGradient4190"><stop id="stop4192" offset="0" stop-color="#fad4a1" stop-opacity="1"/><stop id="stop4194" offset="1" stop-color="#e6b481" stop-opacity="1"/></linearGradient><linearGradient id="linearGradient4706" x1="10" x2="10" y1="2" y2="20" gradientTransform="matrix(2,0,0,2,0.49999997,-0.49999997)" gradientUnits="userSpaceOnUse" xlink:href="#linearGradient4190"/></defs><metadata id="metadata4713"/><path d="m 47.00027,39.499998 c 0,3.037567 -9.849736,5.5 -22,5.5 -12.150266,0 -22,-2.462433 -22,-5.5 0,-3.037565 9.849734,-5.5 22,-5.5 12.150264,0 22,2.462435 22,5.5 z" style="marker:none" id="path10689" fill="url(#radialGradient4643)" fill-opacity="1" fill-rule="nonzero" stroke="none" stroke-width=".8" display="inline" opacity=".2" overflow="visible" visibility="visible"/><path id="rect4169" fill="url(#linearGradient4706)" fill-opacity="1" fill-rule="nonzero" stroke="none" stroke-width="1" d="m 9.5,2.5 v 30 6 h 6 30 v -6 h -30 v -30 z" color="#000" display="inline" enable-background="accumulate" overflow="visible" visibility="visible" style="marker:none"/><path id="rect4169-5" fill="none" stroke="#a1550a" stroke-opacity="1" stroke-width="1" d="m 9.5,2.5 c 0,12 0,36 0,36 h 6 30 v -6 h -30 v -30 z" color="#000" display="inline" enable-background="accumulate" opacity=".5" overflow="visible" visibility="visible" style="marker:none"/><path id="path4537" fill="none" stroke="#fff" stroke-dasharray="none" stroke-dashoffset="0" stroke-linecap="butt" stroke-linejoin="round" stroke-miterlimit="4" stroke-opacity="1" stroke-width="1" d="M 45,33.5 H 15" color="#000" display="inline" enable-background="accumulate" opacity=".5" overflow="visible" visibility="visible" style="marker:none"/><path id="path4357" fill="none" stroke="url(#linearGradient4428-9)" stroke-dasharray="none" stroke-dashoffset="0" stroke-linecap="butt" stroke-linejoin="miter" stroke-miterlimit="4" stroke-opacity="1" stroke-width="1" d="M 15,3.5 H 10.5 V 38" color="#000" display="inline" enable-background="accumulate" opacity=".5" overflow="visible" visibility="visible" style="marker:none"/><path id="rect4169-9" fill="url(#linearGradient4494)" fill-opacity="1" fill-rule="nonzero" stroke="none" stroke-width="1" d="M 9,9.5 H 2.5 v 6 H 9 m 7,0 h 16.5 v 30 h 6 v -30 -6 H 16" color="#000" display="inline" enable-background="accumulate" overflow="visible" visibility="visible" style="marker:none"/><path id="rect4169-5-8" fill="none" stroke="#a1550a" stroke-opacity="1" stroke-width="1" d="m 9.5,9.5 h -7 v 6 h 7 m 6,0 h 17 v 30 h 6 v -30 -6 h -6 -17" color="#000" display="inline" enable-background="accumulate" opacity=".5" overflow="visible" visibility="visible" style="marker:none"/><path id="path4357-2" fill="none" stroke="url(#linearGradient4428-9-7)" stroke-dasharray="none" stroke-dashoffset="0" stroke-linecap="butt" stroke-linejoin="round" stroke-miterlimit="4" stroke-opacity="1" stroke-width="1" d="m 3,10.498832 h 6 m 7,0 H 38 M 33.53506,45 33.46494,15" color="#000" display="inline" enable-background="accumulate" opacity=".5" overflow="visible" visibility="visible" style="marker:none"/><path id="rect879" fill="#a1550a" fill-opacity="1" stroke="none" stroke-dasharray="none" stroke-dashoffset="0" stroke-linecap="butt" stroke-linejoin="miter" stroke-miterlimit="4" stroke-opacity="1" stroke-width="1" d="M 12 9 L 12 10 L 15.5 10 L 15.5 9 L 12 9 z M 17 12 L 17 15.5 L 18 15.5 L 18 12 L 17 12 z M 21 12 L 21 15.5 L 22 15.5 L 22 12 L 21 12 z M 25 12 L 25 15.5 L 26 15.5 L 26 12 L 25 12 z M 29 12 L 29 15.5 L 30 15.5 L 30 12 L 29 12 z M 12 13 L 12 14 L 15.5 14 L 15.5 13 L 12 13 z M 12 17 L 12 18 L 15.5 18 L 15.5 17 L 12 17 z M 32.5 19 L 32.5 20 L 36 20 L 36 19 L 32.5 19 z M 12 21 L 12 22 L 15.5 22 L 15.5 21 L 12 21 z M 32.5 23 L 32.5 24 L 36 24 L 36 23 L 32.5 23 z M 12 25 L 12 26 L 15.5 26 L 15.5 25 L 12 25 z M 32.5 27 L 32.5 28 L 36 28 L 36 27 L 32.5 27 z M 12 29 L 12 30 L 15.5 30 L 15.5 29 L 12 29 z M 32.5 31 L 32.5 32 L 36 32 L 36 31 L 32.5 31 z M 18 32.5 L 18 36 L 19 36 L 19 32.5 L 18 32.5 z M 22 32.5 L 22 36 L 23 36 L 23 32.5 L 22 32.5 z M 26 32.5 L 26 36 L 27 36 L 27 32.5 L 26 32.5 z M 30 32.5 L 30 36 L 31 36 L 31 32.5 L 30 32.5 z M 32.5 35 L 32.5 36 L 36 36 L 36 35 L 32.5 35 z M 32.5 39 L 32.5 40 L 36 40 L 36 39 L 32.5 39 z" opacity=".3" paint-order="normal" vector-effect="none" style="marker:none;font-variant-east_asian:normal"/></svg>