<svg xmlns="http://www.w3.org/2000/svg" xmlns:svg="http://www.w3.org/2000/svg" xmlns:xlink="http://www.w3.org/1999/xlink" id="svg2453" width="48" height="48" version="1.0"><metadata id="metadata35"/><defs id="defs2455"><radialGradient id="radialGradient19613" cx="605.714" cy="486.648" r="117.143" fx="605.714" fy="486.648" gradientTransform="matrix(0.02891661,0,0,0.01235294,26.973101,38.470848)" gradientUnits="userSpaceOnUse" xlink:href="#linearGradient5060"/><linearGradient id="linearGradient5060"><stop id="stop5062" offset="0" stop-color="#000" stop-opacity="1"/><stop id="stop5064" offset="1" stop-color="#000" stop-opacity="0"/></linearGradient><radialGradient id="radialGradient19616" cx="605.714" cy="486.648" r="117.143" fx="605.714" fy="486.648" gradientTransform="matrix(-0.0289166,0,0,0.01235294,21.026894,38.470848)" gradientUnits="userSpaceOnUse" xlink:href="#linearGradient5060"/><linearGradient id="linearGradient5048"><stop id="stop5050" offset="0" stop-color="#000" stop-opacity="0"/><stop id="stop5056" offset=".5" stop-color="#000" stop-opacity="1"/><stop id="stop5052" offset="1" stop-color="#000" stop-opacity="0"/></linearGradient><linearGradient id="linearGradient19619" x1="302.857" x2="302.857" y1="366.648" y2="609.505" gradientTransform="matrix(0.08449704,0,0,0.01235294,-6.5396456,38.470822)" gradientUnits="userSpaceOnUse" xlink:href="#linearGradient5048"/><linearGradient id="linearGradient3600"><stop id="stop3602" offset="0" stop-color="#f4f4f4" stop-opacity="1"/><stop id="stop3604" offset="1" stop-color="#dbdbdb" stop-opacity="1"/></linearGradient><linearGradient id="linearGradient3977"><stop id="stop3979" offset="0" stop-color="#fff" stop-opacity="1"/><stop id="stop3981" offset=".036" stop-color="#fff" stop-opacity=".235"/><stop id="stop3983" offset=".951" stop-color="#fff" stop-opacity=".157"/><stop id="stop3985" offset="1" stop-color="#fff" stop-opacity=".392"/></linearGradient><linearGradient id="linearGradient3138" x1="24" x2="24" y1="5.564" y2="43" gradientTransform="matrix(1.1621622,0,0,0.91891889,-3.8918883,4.4459543)" gradientUnits="userSpaceOnUse" xlink:href="#linearGradient3977"/><linearGradient id="linearGradient3141" x1="25.132" x2="25.132" y1=".985" y2="47.013" gradientTransform="matrix(1.2571399,0,0,0.76049252,-6.1713598,7.0815133)" gradientUnits="userSpaceOnUse" xlink:href="#linearGradient3600"/><linearGradient id="linearGradient4785-3"><stop id="stop4787-5" offset="0" stop-color="#262626" stop-opacity="1"/><stop id="stop4789-1" offset="1" stop-color="#4d4d4d" stop-opacity="1"/></linearGradient><linearGradient id="linearGradient3610-302-9-7"><stop id="stop3796-3-8" offset="0" stop-color="#1d1d1d" stop-opacity="1"/><stop id="stop3798-1-9" offset="1" stop-color="#000" stop-opacity="1"/></linearGradient><linearGradient id="linearGradient3104-6"><stop id="stop3106-3" offset="0" stop-color="#000" stop-opacity=".318"/><stop id="stop3108-9" offset="1" stop-color="#000" stop-opacity=".24"/></linearGradient><linearGradient id="linearGradient3144" x1="-51.786" x2="-51.786" y1="50.786" y2="2.906" gradientTransform="matrix(1.0382097,0,0,0.73204138,69.527413,5.6548677)" gradientUnits="userSpaceOnUse" xlink:href="#linearGradient3104-6"/><linearGradient id="linearGradient4002" x1="45.414" x2="45.567" y1="15.27" y2="96.253" gradientTransform="matrix(-0.48995989,6.9868352e-4,0.00181362,-0.38149037,57.128707,48.266601)" gradientUnits="userSpaceOnUse" xlink:href="#linearGradient4785-3"/><linearGradient id="linearGradient4004" x1="-24.032" x2="-24.098" y1="-13.091" y2="-40.164" gradientTransform="matrix(-1.1122886,0.00158613,0.00529831,-1.1144864,-2.6249379,-3.6540545)" gradientUnits="userSpaceOnUse" xlink:href="#linearGradient3610-302-9-7"/><radialGradient id="radialGradient3343" cx="65.598" cy="48.745" r="31" fx="65.598" fy="48.745" gradientTransform="matrix(0,0.95936489,-1.0436697,0,87.757589,-35.865792)" gradientUnits="userSpaceOnUse" xlink:href="#linearGradient3242-7-3-8-0-4-58-06"/><linearGradient id="linearGradient3242-7-3-8-0-4-58-06"><stop id="stop3244-5-8-5-6-4-3-8" offset="0" stop-color="#cdf87e" stop-opacity="1"/><stop id="stop3246-9-5-1-5-3-0-7" offset=".262" stop-color="#a2e34f" stop-opacity="1"/><stop id="stop3248-7-2-0-7-5-35-9" offset=".661" stop-color="#68b723" stop-opacity="1"/><stop id="stop3250-8-2-8-5-6-40-4" offset="1" stop-color="#1d7e0d" stop-opacity="1"/></linearGradient><linearGradient id="linearGradient3030" x1="24.139" x2="24.139" y1="9.712" y2="36.594" gradientTransform="matrix(0.70448868,0,0,0.59520312,21.241407,23.219131)" gradientUnits="userSpaceOnUse" xlink:href="#linearGradient4154"/><linearGradient id="linearGradient4154"><stop id="stop4156" offset="0" stop-color="#fff" stop-opacity="1"/><stop id="stop4158" offset="0" stop-color="#fff" stop-opacity=".235"/><stop id="stop4160" offset="1" stop-color="#fff" stop-opacity=".157"/><stop id="stop4162" offset="1" stop-color="#fff" stop-opacity=".392"/></linearGradient><linearGradient id="linearGradient3030-1" x1="24.139" x2="24.139" y1="20.271" y2="26.006" gradientTransform="matrix(0.60015241,0,0,0.69748032,23.556108,20.861165)" gradientUnits="userSpaceOnUse" xlink:href="#linearGradient4154"/></defs><g id="g3257" opacity=".4"><rect id="rect2879" width="40.8" height="3" x="3.6" y="43" fill="url(#linearGradient19619)" fill-opacity="1" fill-rule="nonzero" stroke="none" stroke-width="1" display="inline" overflow="visible" visibility="visible" style="marker:none"/><path id="path2881" fill="url(#radialGradient19616)" fill-opacity="1" fill-rule="nonzero" stroke="none" stroke-width="1" d="m 3.6,43.00013 c 0,0 0,2.999835 0,2.999835 C 2.1108662,46.005612 0,45.327854 0,44.499854 0,43.671856 1.6617608,43.000131 3.6,43.00013 z" display="inline" overflow="visible" visibility="visible" style="marker:none"/><path id="path2883" fill="url(#radialGradient19613)" fill-opacity="1" fill-rule="nonzero" stroke="none" stroke-width="1" d="m 44.4,43.00013 c 0,0 0,2.999835 0,2.999835 1.489133,0.0056 3.6,-0.672111 3.6,-1.500111 0,-0.827998 -1.661761,-1.499723 -3.6,-1.499724 z" display="inline" overflow="visible" visibility="visible" style="marker:none"/></g><path id="path4160" fill="url(#linearGradient3141)" fill-opacity="1" stroke="none" d="m 2,9.0000015 c 10.082633,0 43.999947,0.00223 43.999947,0.00223 L 46,44 C 46,44 16.666668,44 2,44 2,32.333334 2,20.666667 2,9 z" display="inline"/><path id="rect6741-1" fill="none" stroke="url(#linearGradient3138)" stroke-dasharray="none" stroke-dashoffset="0" stroke-linecap="round" stroke-linejoin="round" stroke-miterlimit="4" stroke-opacity="1" stroke-width="1" d="m 45.499997,43.499999 -43.0000003,0 0,-34.0000001 43.0000003,0 z"/><path id="rect3582-50-4" fill="url(#linearGradient4002)" fill-opacity="1" stroke="url(#linearGradient4004)" stroke-dasharray="none" stroke-linecap="round" stroke-linejoin="miter" stroke-miterlimit="4" stroke-opacity="1" stroke-width="1" d="m 43.5,41.5 -39.0000023,0 2.3e-6,-30 38.999997,3e-6 z"/><path id="path4160-6-1" fill="none" stroke="url(#linearGradient3144)" stroke-dasharray="none" stroke-dashoffset="0" stroke-linecap="butt" stroke-linejoin="round" stroke-miterlimit="4" stroke-opacity="1" stroke-width="1" d="m 1.4999552,8.4999357 c 10.3117928,0 45.0000318,0.0025 45.0000318,0.0025 l 4.7e-5,35.9976273 c 0,0 -30.000052,0 -45.0000788,0 0,-12.000058 0,-23.999996 0,-35.9999143 z" display="inline"/><g id="g4429"><path id="path2262" fill="url(#radialGradient3343)" fill-opacity="1" fill-rule="nonzero" stroke="none" stroke-dasharray="none" stroke-dashoffset="0" stroke-linecap="round" stroke-linejoin="round" stroke-miterlimit="4" stroke-opacity="1" stroke-width=".985" d="m 33.500001,33.5 0,-6.02737 7,0 0,6.02737 6.007286,0 0,7 -6.007286,0 0,6.007286 -7,0 0,-6.007286 -6.007287,0 0,-7 6.007287,0 z" color="#000" display="inline" enable-background="accumulate" overflow="visible" visibility="visible" style="marker:none"/><path id="path2272-4" fill="none" stroke="url(#linearGradient3030)" stroke-dasharray="none" stroke-linecap="butt" stroke-linejoin="miter" stroke-miterlimit="4" stroke-opacity="1" stroke-width="1" d="m 34.500001,35.459225 0,-6.959225 5,0 0,6.949866 m 0,3.095588 0,6.954546 -5,0 0,-6.954546" display="inline" opacity=".5"/><path id="path2272-2" fill="none" stroke="url(#linearGradient3030-1)" stroke-dasharray="none" stroke-linecap="butt" stroke-linejoin="miter" stroke-miterlimit="4" stroke-opacity="1" stroke-width="1" d="m 40,34.519929 5.499798,-0.01811 0,4.980302 L 40,39.500231 m -6,0 -5.500203,-0.01811 0,-4.980302 L 34,34.519929" display="inline" opacity=".5"/><path clip-rule="nonzero" style="isolation:auto;mix-blend-mode:normal;solid-color:#000;solid-opacity:1;marker:none" id="path2262-2" fill="none" fill-opacity="1" fill-rule="nonzero" stroke="#0f5a00" stroke-dasharray="none" stroke-dashoffset="0" stroke-linecap="round" stroke-linejoin="round" stroke-miterlimit="4" stroke-opacity="1" stroke-width="1" d="m 33.500001,33.5 0,-6.02737 7,0 0,6.02737 6.007286,0 0,7 -6.007286,0 0,6.007286 -7,0 0,-6.007286 -6.007287,0 0,-7 6.007287,0 z" color="#000" color-interpolation="sRGB" color-interpolation-filters="linearRGB" color-rendering="auto" display="inline" enable-background="accumulate" image-rendering="auto" opacity=".5" overflow="visible" shape-rendering="auto" text-rendering="auto" visibility="visible"/></g></svg>