<svg xmlns="http://www.w3.org/2000/svg" xmlns:svg="http://www.w3.org/2000/svg" xmlns:xlink="http://www.w3.org/1999/xlink" id="svg3946" width="48" height="48" version="1.1"><defs id="defs3948"><linearGradient id="linearGradient4251"><stop id="stop4247" offset="0" stop-color="#000" stop-opacity="1"/><stop id="stop4249" offset="1" stop-color="#fff" stop-opacity="1"/></linearGradient><linearGradient id="linearGradient3242-7-3-8-0-4-58-06"><stop id="stop3244-5-8-5-6-4-3-8" offset="0" stop-color="#cdf87e" stop-opacity="1"/><stop id="stop3246-9-5-1-5-3-0-7" offset=".262" stop-color="#a2e34f" stop-opacity="1"/><stop id="stop3248-7-2-0-7-5-35-9" offset=".661" stop-color="#68b723" stop-opacity="1"/><stop id="stop3250-8-2-8-5-6-40-4" offset="1" stop-color="#1d7e0d" stop-opacity="1"/></linearGradient><radialGradient id="radialGradient3343" cx="65.598" cy="48.745" r="31" fx="65.598" fy="48.745" gradientTransform="matrix(0,0.95936489,-1.0436697,0,87.757589,-35.865792)" gradientUnits="userSpaceOnUse" xlink:href="#linearGradient3242-7-3-8-0-4-58-06"/><linearGradient id="linearGradient3030-3" x1="24.139" x2="24.139" y1="9.712" y2="36.594" gradientTransform="matrix(0.70448868,0,0,0.59520312,21.241407,23.219131)" gradientUnits="userSpaceOnUse" xlink:href="#linearGradient4154"/><linearGradient id="linearGradient4154"><stop id="stop4156" offset="0" stop-color="#fff" stop-opacity="1"/><stop id="stop4158" offset="0" stop-color="#fff" stop-opacity=".235"/><stop id="stop4160" offset="1" stop-color="#fff" stop-opacity=".157"/><stop id="stop4162" offset="1" stop-color="#fff" stop-opacity=".392"/></linearGradient><linearGradient id="linearGradient3030-1-3" x1="24.139" x2="24.139" y1="20.271" y2="26.006" gradientTransform="matrix(0.60015241,0,0,0.69748032,23.556108,20.861165)" gradientUnits="userSpaceOnUse" xlink:href="#linearGradient4154"/><linearGradient id="linearGradient4253" x1="76.25" x2="97" y1="40.125" y2="40.125" gradientUnits="userSpaceOnUse" xlink:href="#linearGradient4251"/><linearGradient id="linearGradient4257" x1="76.25" x2="97" y1="40.125" y2="40.125" gradientTransform="translate(-27.75)" gradientUnits="userSpaceOnUse" xlink:href="#linearGradient4251"/><linearGradient id="linearGradient4267" x1="66" x2="77" y1="40.125" y2="40.125" gradientUnits="userSpaceOnUse" xlink:href="#linearGradient4251"/><radialGradient id="radialGradient4277" cx="99.157" cy="186.171" r="62.769" fx="99.157" fy="186.171" gradientTransform="matrix(0.11948551,0,0,0.07603625,0.1521741,28.071563)" gradientUnits="userSpaceOnUse" xlink:href="#linearGradient3820-7-2-2"/><linearGradient id="linearGradient3820-7-2-2"><stop id="stop3822-2-6-36" offset="0" stop-color="#3d3d3d" stop-opacity="1"/><stop id="stop3864-8-7-6" offset=".5" stop-color="#686868" stop-opacity=".498"/><stop id="stop3824-1-2-4" offset="1" stop-color="#686868" stop-opacity="0"/></linearGradient></defs><metadata id="metadata3951"/><path id="path3818-0-2" fill="url(#radialGradient4277)" fill-opacity="1" stroke="none" stroke-width="1" d="m 19.5,42.227273 a 7.5,4.7727271 0 1 1 -15,0 7.5,4.7727271 0 1 1 15,0 z"/><g id="g4429" transform="translate(0.007286,-0.007286)"><path id="path2262-5" fill="url(#radialGradient3343)" fill-opacity="1" fill-rule="nonzero" stroke="none" stroke-dasharray="none" stroke-dashoffset="0" stroke-linecap="round" stroke-linejoin="round" stroke-miterlimit="4" stroke-opacity="1" stroke-width=".985" d="m 33.500001,33.5 v -6.02737 h 7 V 33.5 h 6.007286 v 7 h -6.007286 v 6.007286 h -7 V 40.5 h -6.007287 v -7 z" color="#000" display="inline" enable-background="accumulate" overflow="visible" visibility="visible" style="marker:none"/><path id="path2272-4" fill="none" stroke="url(#linearGradient3030-3)" stroke-dasharray="none" stroke-linecap="butt" stroke-linejoin="miter" stroke-miterlimit="4" stroke-opacity="1" stroke-width="1" d="M 34.500001,35.459225 V 28.5 h 5 v 6.949866 m 0,3.095588 V 45.5 h -5 v -6.954546" display="inline" opacity=".5"/><path id="path2272-2-6" fill="none" stroke="url(#linearGradient3030-1-3)" stroke-dasharray="none" stroke-linecap="butt" stroke-linejoin="miter" stroke-miterlimit="4" stroke-opacity="1" stroke-width="1" d="m 40,34.519929 5.499798,-0.01811 v 4.980302 L 40,39.500231 m -6,0 -5.500203,-0.01811 V 34.501819 L 34,34.519929" display="inline" opacity=".5"/><path id="path2262-2-2" fill="none" fill-opacity="1" fill-rule="nonzero" stroke="#0f5a00" stroke-dasharray="none" stroke-dashoffset="0" stroke-linecap="round" stroke-linejoin="round" stroke-miterlimit="4" stroke-opacity="1" stroke-width="1" d="m 33.500001,33.5 v -6.02737 h 7 V 33.5 h 6.007286 v 7 h -6.007286 v 6.007286 h -7 V 40.5 h -6.007287 v -7 z" clip-rule="nonzero" color="#000" color-interpolation="sRGB" color-interpolation-filters="linearRGB" color-rendering="auto" display="inline" enable-background="accumulate" image-rendering="auto" opacity=".5" overflow="visible" shape-rendering="auto" text-rendering="auto" visibility="visible" style="isolation:auto;mix-blend-mode:normal;solid-color:#000;solid-opacity:1;marker:none"/></g><g id="g4282" transform="rotate(-45,28.910403,90.908956)"><path id="rect3636" fill="#d4d4d4" fill-opacity="1" stroke="#000" stroke-linecap="round" stroke-linejoin="bevel" stroke-opacity=".427" stroke-width="1" d="m 53.75,32.75 c -2.9085,0 -5.25,2.3415 -5.25,5.25 v 4.25 c 0,2.9085 2.3415,5.25 5.25,5.25 H 64 c 2.9085,0 5.25,-2.3415 5.25,-5.25 V 38 c 0,-2.9085 -2.3415,-5.25 -5.25,-5.25 z m 0.375,3.75 h 9.5 c 1.03875,0 1.875,0.83625 1.875,1.875 v 3.5 c 0,1.03875 -0.83625,1.875 -1.875,1.875 h -9.5 c -1.03875,0 -1.875,-0.83625 -1.875,-1.875 v -3.5 c 0,-1.03875 0.83625,-1.875 1.875,-1.875 z" opacity="1"/><path id="rect3650" fill="#d4d4d4" fill-opacity="1" stroke="#000" stroke-linecap="round" stroke-linejoin="bevel" stroke-opacity=".427" stroke-width="1" d="m 81.5,32.75 c -2.9085,0 -5.25,2.3415 -5.25,5.25 v 4.25 c 0,2.9085 2.3415,5.25 5.25,5.25 H 91.75 C 94.6585,47.5 97,45.1585 97,42.25 V 38 c 0,-2.9085 -2.3415,-5.25 -5.25,-5.25 z m 0.375,3.75 h 9.5 c 1.03875,0 1.875,0.83625 1.875,1.875 v 3.5 c 0,1.03875 -0.83625,1.875 -1.875,1.875 h -9.5 C 80.83625,43.75 80,42.91375 80,41.875 v -3.5 C 80,37.33625 80.83625,36.5 81.875,36.5 Z" opacity="1"/><path id="path3702" fill="url(#linearGradient4253)" fill-opacity="1" stroke="none" stroke-linecap="round" stroke-linejoin="bevel" stroke-opacity=".427" stroke-width="1" d="m 81.5,32.75 c -2.9085,0 -5.25,2.3415 -5.25,5.25 v 4.25 c 0,2.9085 2.3415,5.25 5.25,5.25 H 91.75 C 94.6585,47.5 97,45.1585 97,42.25 V 38 c 0,-2.9085 -2.3415,-5.25 -5.25,-5.25 z m 0.375,3.75 h 9.5 c 1.03875,0 1.875,0.83625 1.875,1.875 v 3.5 c 0,1.03875 -0.83625,1.875 -1.875,1.875 h -9.5 C 80.83625,43.75 80,42.91375 80,41.875 v -3.5 C 80,37.33625 80.83625,36.5 81.875,36.5 Z" opacity=".2"/><path id="rect3646" fill="none" fill-opacity="1" stroke="#fff" stroke-linecap="round" stroke-linejoin="bevel" stroke-opacity="1" stroke-width="1" d="m 81.5,33.75 h 10.25 c 2.3545,0 4.25,1.8955 4.25,4.25 v 4.25" opacity=".4"/><path id="rect3648" fill="none" fill-opacity="1" stroke="#fff" stroke-linecap="round" stroke-linejoin="bevel" stroke-opacity="1" stroke-width="1" d="M 91.375001,44.75 H 81.875 C 80.28225,44.75 79,43.46775 79,41.875" opacity=".4"/><path id="path4255" fill="url(#linearGradient4257)" fill-opacity="1" stroke="none" stroke-linecap="round" stroke-linejoin="bevel" stroke-opacity=".427" stroke-width="1" d="m 53.75,32.75 c -2.9085,0 -5.25,2.3415 -5.25,5.25 v 4.25 c 0,2.9085 2.3415,5.25 5.25,5.25 H 64 c 2.9085,0 5.25,-2.3415 5.25,-5.25 V 38 c 0,-2.9085 -2.3415,-5.25 -5.25,-5.25 z m 0.375,3.75 h 9.5 c 1.03875,0 1.875,0.83625 1.875,1.875 v 3.5 c 0,1.03875 -0.83625,1.875 -1.875,1.875 h -9.5 c -1.03875,0 -1.875,-0.83625 -1.875,-1.875 v -3.5 c 0,-1.03875 0.83625,-1.875 1.875,-1.875 z" opacity=".2"/><path id="path3691" fill="none" fill-opacity="1" stroke="#fff" stroke-linecap="round" stroke-linejoin="bevel" stroke-opacity="1" stroke-width="1" d="M 64,46.5 H 53.75 c -2.3545,0 -4.25,-1.8955 -4.25,-4.25 V 38" opacity=".4"/><path id="path3693" fill="none" fill-opacity="1" stroke="#fff" stroke-linecap="round" stroke-linejoin="bevel" stroke-opacity="1" stroke-width="1" d="M 54.124999,35.5 H 63.625 c 1.59275,0 2.875,1.28225 2.875,2.875" opacity=".4"/><rect id="rect3644" width="20" height="3.75" x="62.75" y="38.25" fill="#d4d4d4" fill-opacity="1" stroke="#000" stroke-linecap="round" stroke-linejoin="bevel" stroke-opacity=".427" stroke-width="1" opacity="1" rx="2.25" ry="2.25"/><rect id="rect4259" width="20" height="3.75" x="62.75" y="38.25" fill="url(#linearGradient4267)" fill-opacity="1" stroke="none" stroke-linecap="round" stroke-linejoin="bevel" stroke-opacity=".427" stroke-width="1" opacity=".2" rx="2.25" ry="2.25"/><path id="rect3687" fill="none" fill-opacity="1" stroke="#fff" stroke-linecap="round" stroke-linejoin="bevel" stroke-opacity="1" stroke-width="1" d="m 63.75,40.125 c 0,-0.48475 0.5575,-0.875 1.25,-0.875 h 15.5 c 0.6925,0 1.25,0.39025 1.25,0.875" opacity=".4"/></g></svg>