<svg xmlns="http://www.w3.org/2000/svg" xmlns:svg="http://www.w3.org/2000/svg" xmlns:xlink="http://www.w3.org/1999/xlink" id="svg4143" width="48" height="48" version="1.1" viewBox="0 0 48 48"><defs id="defs4145"><linearGradient id="linearGradient867"><stop id="stop863" offset="0" stop-color="#cd9ef7" stop-opacity="1"/><stop id="stop865" offset="1" stop-color="#a56de2" stop-opacity="1"/></linearGradient><linearGradient id="linearGradient3198" x1="38.941" x2="20.576" y1="15.991" y2="15.991" gradientTransform="matrix(0,-1.1363095,1.2208188,0,-6.806158,53.703806)" gradientUnits="userSpaceOnUse" xlink:href="#linearGradient4087-4"/><linearGradient id="linearGradient4087-4"><stop id="stop4089-0" offset="0" stop-color="#fff" stop-opacity="1"/><stop id="stop4091-5" offset=".512" stop-color="#fff" stop-opacity=".235"/><stop id="stop4093-9" offset=".585" stop-color="#fff" stop-opacity=".157"/><stop id="stop4095-4" offset="1" stop-color="#fff" stop-opacity=".392"/></linearGradient><linearGradient id="linearGradient3201" x1="23.732" x2="23.732" y1="4.418" y2="42.04" gradientTransform="matrix(1.0417199,0,0,0.96960863,-8.663336,1.2469198)" gradientUnits="userSpaceOnUse" xlink:href="#linearGradient2867-449-88-871-390-598-476-591-434-148-57-177-6"/><linearGradient id="linearGradient2867-449-88-871-390-598-476-591-434-148-57-177-6"><stop id="stop3750-9" offset="0" stop-color="#90dbec" stop-opacity="1"/><stop id="stop3752-2" offset=".262" stop-color="#55c1ec" stop-opacity="1"/><stop id="stop3754-2" offset=".705" stop-color="#3689e6" stop-opacity="1"/><stop id="stop3756-4" offset="1" stop-color="#2b63a0" stop-opacity="1"/></linearGradient><radialGradient id="radialGradient3140" cx="24.837" cy="36.421" r="15.645" fx="24.837" fy="36.421" gradientTransform="matrix(-1.0599091,0,0,-0.7061547,47.034277,59.671354)" gradientUnits="userSpaceOnUse" xlink:href="#linearGradient8662"/><linearGradient id="linearGradient8662"><stop id="stop8664" offset="0" stop-color="#000" stop-opacity="1"/><stop id="stop8666" offset="1" stop-color="#000" stop-opacity="0"/></linearGradient><radialGradient id="radialGradient4195" cx="24.837" cy="36.421" r="15.645" fx="24.837" fy="36.421" gradientTransform="matrix(1,0,0,0.536723,0,16.87306)" gradientUnits="userSpaceOnUse" xlink:href="#linearGradient8662-7"/><linearGradient id="linearGradient8662-7"><stop id="stop8664-0" offset="0" stop-color="#000" stop-opacity="1"/><stop id="stop8666-1" offset="1" stop-color="#000" stop-opacity="0"/></linearGradient><linearGradient id="linearGradient3198-5-6" x1="38.941" x2="20.576" y1="15.991" y2="15.991" gradientTransform="matrix(0,-1.1363095,1.2208188,0,5.193892,53.703806)" gradientUnits="userSpaceOnUse" xlink:href="#linearGradient4087-4"/><linearGradient id="linearGradient869" x1="35.907" x2="35.907" y1="5.218" y2="38.75" gradientUnits="userSpaceOnUse" xlink:href="#linearGradient867"/></defs><metadata id="metadata4148"/><path id="path3501" fill="url(#radialGradient3140)" fill-opacity="1" fill-rule="evenodd" stroke="none" stroke-width="1.181" d="m 4.127182,33.952391 a 16.581999,11.047612 0 1 1 33.163999,0 16.581999,11.047612 0 1 1 -33.163999,0 z" display="inline" opacity=".141" overflow="visible" visibility="visible" style="marker:none"/><g id="g4190" transform="matrix(-2,0,0,2,52.009047,-16)"><path id="path3501-0" fill="url(#radialGradient4195)" fill-opacity="1" fill-rule="evenodd" stroke="none" stroke-width="1" d="m 40.481863,36.421127 a 15.644737,8.3968955 0 1 1 -31.2894745,0 15.644737,8.3968955 0 1 1 31.2894745,0 z" display="inline" opacity=".141" overflow="visible" transform="matrix(0.52995454,0,0,-0.65783905,0.487385,48.935435)" visibility="visible" style="marker:none"/></g><path id="path3503-3-3-3" fill="url(#linearGradient869)" fill-opacity="1" fill-rule="nonzero" stroke="none" stroke-dasharray="none" stroke-dashoffset="0" stroke-linecap="butt" stroke-linejoin="round" stroke-miterlimit="7" stroke-opacity="1" stroke-width="1" d="M 19.284075,38.761094 C 6.056936,29.831922 13.765694,13.433233 28.509097,13.567834 V 5.2066861 L 46.50908,18.893359 28.509097,32.580013 v -8.343101 c -9.5089,-0.368785 -14.694959,8.29364 -7.897056,14.524182 z" display="block" overflow="visible" visibility="visible" style="marker:none"/><path stroke-opacity="1" style="marker:none" id="path3505-6-2" fill="none" stroke="url(#linearGradient3198-5-6)" stroke-dasharray="none" stroke-dashoffset="0" stroke-linecap="butt" stroke-linejoin="miter" stroke-miterlimit="7" stroke-width=".964" d="M 17.762803,36.573401 C 8.077355,28.054733 15.755579,13.641931 29.427295,14.572435 L 29.509095,7.1766205 44.957961,18.870328 29.509095,30.604604 V 23.338406 C 15.324753,23.014457 15.506195,34.130852 17.762801,36.573401 Z" display="block" opacity=".53" overflow="visible" visibility="visible"/><path clip-rule="nonzero" style="isolation:auto;mix-blend-mode:normal;solid-color:#000;solid-opacity:1;marker:none" id="path3503-3-3-0" fill="none" fill-opacity="1" fill-rule="nonzero" stroke="#7239b3" stroke-dasharray="none" stroke-dashoffset="0" stroke-linecap="butt" stroke-linejoin="round" stroke-miterlimit="4" stroke-opacity="1" stroke-width="1" d="M 19.284075,38.761094 C 6.056936,29.831922 13.765694,13.433233 28.509097,13.567834 V 5.2066862 L 46.50908,18.893359 28.509097,32.580013 v -8.343101 c -9.5089,-0.368785 -14.694959,8.29364 -7.897056,14.524182 z" color="#000" color-interpolation="sRGB" color-interpolation-filters="linearRGB" color-rendering="auto" display="inline" enable-background="accumulate" image-rendering="auto" opacity=".5" overflow="visible" shape-rendering="auto" text-rendering="auto" visibility="visible"/><path id="path3503-3" fill="url(#linearGradient3201)" fill-opacity="1" fill-rule="nonzero" stroke="none" stroke-dasharray="none" stroke-dashoffset="0" stroke-linecap="butt" stroke-linejoin="round" stroke-miterlimit="7" stroke-opacity="1" stroke-width="1" d="M 7.284025,38.761094 C -5.943114,29.831922 1.765644,13.433233 16.509047,13.567834 V 5.206686 L 34.50903,18.893359 16.509047,32.580013 v -8.343101 c -9.5089,-0.368785 -14.694959,8.29364 -7.897056,14.524182 z" display="block" overflow="visible" visibility="visible" style="marker:none"/><path stroke-opacity="1" style="marker:none" id="path3505-6" fill="none" stroke="url(#linearGradient3198)" stroke-dasharray="none" stroke-dashoffset="0" stroke-linecap="butt" stroke-linejoin="miter" stroke-miterlimit="7" stroke-width=".964" d="M 5.762753,36.573401 C -3.922695,28.054733 3.755529,13.641931 17.427245,14.572435 L 17.509045,7.1766204 32.957911,18.870328 17.509045,30.604604 V 23.338406 C 3.324703,23.014457 3.506145,34.130852 5.762751,36.573401 Z" display="block" opacity=".53" overflow="visible" visibility="visible"/><path clip-rule="nonzero" style="isolation:auto;mix-blend-mode:normal;solid-color:#000;solid-opacity:1;marker:none" id="path3503-3-4" fill="#000" fill-opacity="0" fill-rule="nonzero" stroke="#00537d" stroke-dasharray="none" stroke-dashoffset="0" stroke-linecap="round" stroke-linejoin="round" stroke-miterlimit="4" stroke-opacity="1" stroke-width="1" d="M 7.284025,38.761094 C -5.943114,29.831922 1.765644,13.433233 16.509047,13.567834 V 5.2066862 L 34.50903,18.893359 16.509047,32.580013 v -8.343101 c -9.5089,-0.368785 -14.694959,8.29364 -7.897056,14.524182 z" color="#000" color-interpolation="sRGB" color-interpolation-filters="linearRGB" color-rendering="auto" display="inline" enable-background="accumulate" image-rendering="auto" opacity=".5" overflow="visible" shape-rendering="auto" text-rendering="auto" visibility="visible"/></svg>