<svg xmlns="http://www.w3.org/2000/svg" xmlns:svg="http://www.w3.org/2000/svg" xmlns:xlink="http://www.w3.org/1999/xlink" id="svg5400" width="48" height="48" version="1.1"><defs id="defs5402"><linearGradient id="linearGradient5053"><stop id="stop5049" offset="0" stop-color="#d4d4d4" stop-opacity="1"/><stop id="stop5051" offset="1" stop-color="#abacae" stop-opacity="1"/></linearGradient><linearGradient id="linearGradient5047"><stop id="stop5039" offset="0" stop-color="#fff" stop-opacity="1"/><stop id="stop5041" offset=".222" stop-color="#fff" stop-opacity=".235"/><stop id="stop5043" offset=".833" stop-color="#fff" stop-opacity=".157"/><stop id="stop5045" offset="1" stop-color="#fff" stop-opacity=".392"/></linearGradient><linearGradient id="linearGradient3703"><stop id="stop3705" offset="0" stop-color="#000" stop-opacity="0"/><stop id="stop3711" offset=".5" stop-color="#000" stop-opacity="1"/><stop id="stop3707" offset="1" stop-color="#000" stop-opacity="0"/></linearGradient><linearGradient id="linearGradient3205-2-2-1"><stop id="stop3207-1-6-3" offset="0" stop-color="#000" stop-opacity="1"/><stop id="stop3209-1-4-9" offset="1" stop-color="#000" stop-opacity="0"/></linearGradient><linearGradient id="linearGradient1609-7" x1="12" x2="12" y1="20" y2="23" gradientTransform="matrix(0.80901986,0,0,0.79649034,6.3237157,11.68072)" gradientUnits="userSpaceOnUse" xlink:href="#linearGradient3703"/><radialGradient id="radialGradient1663-5" cx="15.25" cy="22" r="1.5" fx="15.25" fy="22" gradientTransform="matrix(4.8542069e-7,0.79649025,-1.6180396,1.8360368e-6,56.48293,16.658745)" gradientUnits="userSpaceOnUse" xlink:href="#linearGradient3205-2-2-1"/><radialGradient id="radialGradient1665-3" cx="-8" cy="-21.25" r="1.5" fx="-8" fy="-21.25" gradientTransform="matrix(1.618039,5.1423805e-7,-1.7663079e-7,0.79649047,1.7664729,-11.879838)" gradientUnits="userSpaceOnUse" xlink:href="#linearGradient3205-2-2-1"/><linearGradient id="linearGradient5008" x1="11.27" x2="10.73" y1="-14.403" y2="24.403" gradientUnits="userSpaceOnUse" xlink:href="#linearGradient5053"/><linearGradient id="linearGradient5037" x1="10.235" x2="9.723" y1="-13.421" y2="23.366" gradientUnits="userSpaceOnUse" xlink:href="#linearGradient5047"/></defs><metadata id="metadata5405"/><g id="g1181" stroke-width=".667" transform="matrix(1.5,0,0,1.5,0.25009523,1.0000029)"><rect id="rect1601-4" width="9.708" height="2.389" x="11.178" y="27.611" fill="url(#linearGradient1609-7)" fill-opacity="1" fill-rule="nonzero" stroke="none" stroke-dasharray="none" stroke-linecap="butt" stroke-linejoin="round" stroke-miterlimit="4" stroke-opacity="1" stroke-width=".533" opacity=".2" paint-order="normal" vector-effect="none"/><rect id="rect1601-7-3" width="2.427" height="2.389" x="-11.178" y="-30" fill="url(#radialGradient1665-3)" fill-opacity="1" fill-rule="nonzero" stroke="none" stroke-dasharray="none" stroke-linecap="butt" stroke-linejoin="round" stroke-miterlimit="4" stroke-opacity="1" stroke-width=".533" opacity=".2" paint-order="normal" transform="scale(-1)" vector-effect="none"/><rect id="rect1601-7-9-3" width="2.427" height="2.389" x="20.886" y="27.611" fill="url(#radialGradient1663-5)" fill-opacity="1" fill-rule="nonzero" stroke="none" stroke-dasharray="none" stroke-linecap="butt" stroke-linejoin="round" stroke-miterlimit="4" stroke-opacity="1" stroke-width=".533" opacity=".22" paint-order="normal" vector-effect="none"/></g><path id="path1282-3" fill="url(#linearGradient5008)" fill-opacity="1" fill-rule="nonzero" stroke="none" stroke-dasharray="none" stroke-linecap="square" stroke-linejoin="miter" stroke-miterlimit="4" stroke-opacity="1" stroke-width="1.021" d="M 19.000001,24.999999 2.5147197,24.79899 -8.9999993,13.000001 -8.79899,-3.4852803 2.9999991,-14.999999 19.48528,-14.79899 30.999999,-3.0000009 30.79899,13.48528 Z" opacity="1" paint-order="normal" transform="matrix(0.97906034,-0.01362293,0.01362291,0.97906033,13.162221,19.254551)" vector-effect="none"/><path id="path1282" fill="none" fill-opacity="1" fill-rule="nonzero" stroke="#555761" stroke-dasharray="none" stroke-dashoffset="0" stroke-linecap="butt" stroke-linejoin="miter" stroke-miterlimit="4" stroke-opacity="1" stroke-width="1.022" d="M 19.000001,24.999999 2.5147197,24.79899 -8.9999993,13.000001 -8.79899,-3.4852803 2.9999991,-14.999999 19.48528,-14.79899 30.999999,-3.0000009 30.79899,13.48528 Z" opacity=".5" paint-order="normal" transform="matrix(0.97904688,-0.01361376,0.01362273,0.97840191,13.162623,19.270665)" vector-effect="none" style="font-variant-east_asian:normal;marker:none"/><path stroke-miterlimit="4" style="marker:none;font-variant-east_asian:normal" id="path4159-7" fill="#f7f7f7" fill-opacity="1" stroke="none" stroke-dasharray="none" stroke-dashoffset="0" stroke-linecap="butt" stroke-linejoin="miter" stroke-opacity="1" stroke-width="1" d="m 23.980162,11.638869 c -1.648637,0 -2.985122,1.336485 -2.985122,2.985121 0,2.985121 0.995041,6.965283 1.990081,14.925606 h 1.990081 c 0.99504,-7.960323 1.990081,-11.940485 1.990081,-14.925605 0,-1.648637 -1.336485,-2.985121 -2.985121,-2.985122 z m 0,20.895848 c -1.648637,0 -2.985122,1.336485 -2.985122,2.985121 0,1.648637 1.336485,2.985122 2.985122,2.985122 1.648636,0 2.985121,-1.336485 2.985121,-2.985122 0,-1.648636 -1.336485,-2.985121 -2.985121,-2.985121 z" opacity=".15" paint-order="normal" vector-effect="none"/><path id="path1282-7" fill="none" fill-opacity="1" fill-rule="nonzero" stroke="url(#linearGradient5037)" stroke-dasharray="none" stroke-linecap="square" stroke-linejoin="miter" stroke-miterlimit="4" stroke-opacity="1" stroke-width="1.077" d="M 19.000001,24.999999 2.5147197,24.79899 -8.9999993,13.000001 -8.79899,-3.4852803 2.9999991,-14.999999 19.48528,-14.79899 30.999999,-3.0000009 30.79899,13.48528 Z" opacity=".507" paint-order="normal" transform="matrix(0.92887147,-0.01292169,0.01292457,0.92866165,13.71836,19.502096)" vector-effect="none"/><path stroke-miterlimit="4" style="font-variant-east_asian:normal;marker:none" id="path4159" fill="#7e8087" fill-opacity="1" stroke="none" stroke-dasharray="none" stroke-dashoffset="0" stroke-linecap="butt" stroke-linejoin="miter" stroke-opacity="1" stroke-width="1" d="m 23.980162,10.643828 c -1.648637,0 -2.985122,1.336486 -2.985122,2.985121 0,2.985122 0.995041,6.965283 1.990081,14.925606 h 1.990081 c 0.99504,-7.960323 1.990081,-11.940484 1.990081,-14.925605 0,-1.648636 -1.336485,-2.985122 -2.985121,-2.985122 z m 0,20.895849 c -1.648637,0 -2.985122,1.336484 -2.985122,2.985121 0,1.648637 1.336485,2.985121 2.985122,2.985121 1.648636,0 2.985121,-1.336484 2.985121,-2.985121 0,-1.648637 -1.336485,-2.985121 -2.985121,-2.985121 z" opacity="1" paint-order="normal" vector-effect="none"/></svg>