<svg xmlns="http://www.w3.org/2000/svg" xmlns:svg="http://www.w3.org/2000/svg" xmlns:xlink="http://www.w3.org/1999/xlink" id="svg4143" width="48" height="48" version="1.1"><defs id="defs4145"><linearGradient id="linearGradient841"><stop id="stop837" offset="0" stop-color="#cd9ef7" stop-opacity="1"/><stop id="stop839" offset="1" stop-color="#a56de2" stop-opacity="1"/></linearGradient><linearGradient id="linearGradient3198-5" x1="38.941" x2="20.576" y1="15.991" y2="15.991" gradientTransform="matrix(0,-1.1363095,-1.2208188,0,47.815188,53.703806)" gradientUnits="userSpaceOnUse" xlink:href="#linearGradient4087-4-6"/><linearGradient id="linearGradient4087-4-6"><stop id="stop4089-0-9" offset="0" stop-color="#fff" stop-opacity="1"/><stop id="stop4091-5-8" offset=".512" stop-color="#fff" stop-opacity=".235"/><stop id="stop4093-9-7" offset=".585" stop-color="#fff" stop-opacity=".157"/><stop id="stop4095-4-2" offset="1" stop-color="#fff" stop-opacity=".392"/></linearGradient><linearGradient id="linearGradient8662-7"><stop id="stop8664-0" offset="0" stop-color="#000" stop-opacity="1"/><stop id="stop8666-1" offset="1" stop-color="#000" stop-opacity="0"/></linearGradient><radialGradient id="radialGradient3030" cx="24.837" cy="36.421" r="15.645" fx="24.837" fy="36.421" gradientTransform="matrix(1,0,0,0.536723,0,16.87306)" gradientUnits="userSpaceOnUse" xlink:href="#linearGradient8662-7"/><linearGradient id="linearGradient843" x1="34.717" x2="34.717" y1="5.355" y2="38.75" gradientUnits="userSpaceOnUse" xlink:href="#linearGradient841"/></defs><metadata id="metadata4148"/><g id="layer1-1" transform="matrix(2,0,0,2,0,-16)"><g id="g4190" transform="translate(0.4999915,0)"><path id="path3501-0" fill="url(#radialGradient3030)" fill-opacity="1" fill-rule="evenodd" stroke="none" stroke-width="1" d="m 40.481863,36.421127 a 15.644737,8.3968953 0 1 1 -31.2894745,0 15.644737,8.3968953 0 1 1 31.2894745,0 z" display="inline" opacity=".141" overflow="visible" transform="matrix(0.52995454,0,0,-0.65783905,0.487385,48.935435)" visibility="visible" style="marker:none"/></g></g><path id="path3503-3-3" fill="url(#linearGradient843)" fill-opacity="1" fill-rule="nonzero" stroke="none" stroke-dasharray="none" stroke-dashoffset="0" stroke-linecap="butt" stroke-linejoin="round" stroke-miterlimit="7" stroke-opacity="1" stroke-width="1" d="m 33.725005,38.761094 c 13.227139,-8.929172 5.518381,-25.327861 -9.225022,-25.19326 l 0,-8.3611479 L 6.5,18.893359 l 17.999983,13.686654 0,-8.343101 c 9.5089,-0.368785 14.694959,8.29364 7.897056,14.524182 z" display="block" overflow="visible" visibility="visible" style="marker:none"/><path stroke-opacity="1" style="marker:none" id="path3505-6-2" fill="none" stroke="url(#linearGradient3198-5)" stroke-dasharray="none" stroke-dashoffset="0" stroke-linecap="butt" stroke-linejoin="miter" stroke-miterlimit="7" stroke-width=".964" d="m 35.246277,36.573401 c 9.685448,-8.518668 2.007224,-22.93147 -11.664492,-22.000966 l -0.0818,-7.3958145 -15.448866,11.6937075 15.448866,11.734276 0,-7.266198 c 14.184342,-0.323949 14.0029,10.792446 11.746294,13.234995 z" display="block" opacity=".53" overflow="visible" visibility="visible"/><path id="path3503-3-3-0" fill="none" fill-opacity="1" fill-rule="nonzero" stroke="#7239b3" stroke-dasharray="none" stroke-dashoffset="0" stroke-linecap="butt" stroke-linejoin="round" stroke-miterlimit="4" stroke-opacity="1" stroke-width="1" d="m 33.725005,38.761094 c 13.227139,-8.929172 5.518381,-25.327861 -9.225022,-25.19326 l 0,-8.3611478 L 6.5,18.893359 l 17.999983,13.686654 0,-8.343101 c 9.5089,-0.368785 14.694959,8.29364 7.897056,14.524182 z" clip-rule="nonzero" color="#000" color-interpolation="sRGB" color-interpolation-filters="linearRGB" color-rendering="auto" display="inline" enable-background="accumulate" image-rendering="auto" opacity=".5" overflow="visible" shape-rendering="auto" text-rendering="auto" visibility="visible" style="marker:none;isolation:auto;mix-blend-mode:normal;solid-color:#000;solid-opacity:1;filter-blend-mode:normal;filter-gaussianBlur-deviation:0"/></svg>