<svg xmlns="http://www.w3.org/2000/svg" xmlns:svg="http://www.w3.org/2000/svg" xmlns:xlink="http://www.w3.org/1999/xlink" id="svg3047" width="48" height="48" version="1.1"><defs id="defs3049"><linearGradient id="linearGradient1004"><stop id="stop1000" offset="0" stop-color="#ed5353" stop-opacity="1"/><stop id="stop1002" offset="1" stop-color="#c6262e" stop-opacity="1"/></linearGradient><linearGradient id="linearGradient3086" x1="7.078" x2="7.078" y1="3.082" y2="45.369" gradientTransform="matrix(0.36857196,0,0,0.36857202,15.153867,16.154407)" gradientUnits="userSpaceOnUse"><stop id="stop2492-0" offset="0" stop-color="#7a0000" stop-opacity="1"/><stop id="stop2494-6" offset="1" stop-color="#c6262e" stop-opacity="1"/></linearGradient><linearGradient id="linearGradient3089" x1="71.204" x2="71.204" y1="6.238" y2="44.341" gradientTransform="matrix(0.35135131,0,0,0.35135131,-1.204072,16.091108)" gradientUnits="userSpaceOnUse"><stop id="stop4013-3" offset="0" stop-color="#fff" stop-opacity="1"/><stop id="stop4015-6" offset=".508" stop-color="#fff" stop-opacity=".235"/><stop id="stop4017-1" offset=".835" stop-color="#fff" stop-opacity=".157"/><stop id="stop4019-2" offset="1" stop-color="#fff" stop-opacity=".392"/></linearGradient><linearGradient id="linearGradient3990"><stop id="stop3992" offset="0" stop-color="#fff" stop-opacity="1"/><stop id="stop3994" offset="1" stop-color="#fff" stop-opacity="0"/></linearGradient><linearGradient id="linearGradient3101" x1="68.313" x2="68.313" y1="52.925" y2="65.922" gradientTransform="matrix(0.35012755,0,0,0.35012755,0.5714278,-0.53164511)" gradientUnits="userSpaceOnUse" xlink:href="#linearGradient3990"/><linearGradient id="linearGradient3031" x1="71.204" x2="71.204" y1="6.238" y2="44.341" gradientTransform="matrix(0.35135131,0,0,0.35135131,-1.2040722,15.090074)" gradientUnits="userSpaceOnUse" xlink:href="#linearGradient3089"/><linearGradient id="linearGradient3039" x1="7.078" x2="7.078" y1="3.082" y2="45.369" gradientTransform="matrix(0.36857196,0,0,0.36857202,15.153867,15.153373)" gradientUnits="userSpaceOnUse" xlink:href="#linearGradient3086"/><linearGradient id="linearGradient3820-7-2"><stop id="stop3822-2-6" offset="0" stop-color="#000" stop-opacity="1"/><stop id="stop3824-1-2" offset="1" stop-color="#000" stop-opacity="0"/></linearGradient><radialGradient id="radialGradient3300-8-3" cx="99.189" cy="185.297" r="62.769" fx="99.189" fy="185.297" gradientTransform="matrix(0.3823536,7.5555777e-8,-1.8372241e-8,0.1115198,-5.9254271,36.335849)" gradientUnits="userSpaceOnUse" xlink:href="#linearGradient3820-7-2"/><radialGradient id="radialGradient4192-6-5" cx="99.189" cy="185.297" r="62.769" fx="99.189" fy="185.297" gradientTransform="matrix(0.2549024,5.3967361e-8,-1.2248161e-8,0.07965545,6.7163816,44.240666)" gradientUnits="userSpaceOnUse" xlink:href="#linearGradient3820-7-2"/><linearGradient id="linearGradient3932-9" x1="6.657" x2="39.442" y1="23" y2="23" gradientTransform="matrix(0,1.4285713,-1.4285713,0,56.857142,-8.857474)" gradientUnits="userSpaceOnUse" xlink:href="#linearGradient3907"/><linearGradient id="linearGradient3907"><stop id="stop3909" offset="0" stop-color="#fafafa" stop-opacity="1"/><stop id="stop3911" offset="1" stop-color="#abacae" stop-opacity="1"/></linearGradient><linearGradient id="linearGradient3111-7" x1="71.204" x2="71.204" y1="7.618" y2="43.283" gradientTransform="matrix(1.054054,0,0,1.054054,-51.611001,-2.728234)" gradientUnits="userSpaceOnUse" xlink:href="#linearGradient4011"/><linearGradient id="linearGradient4011"><stop id="stop4013-35" offset="0" stop-color="#fff" stop-opacity="1"/><stop id="stop4015-62" offset=".508" stop-color="#fff" stop-opacity=".235"/><stop id="stop4017-91" offset=".835" stop-color="#fff" stop-opacity=".157"/><stop id="stop4019-27" offset="1" stop-color="#fff" stop-opacity=".392"/></linearGradient><linearGradient id="linearGradient3993-0-6-0-8-5" x1="71.204" x2="71.204" y1="6.238" y2="44.341" gradientTransform="matrix(0.45945943,0,0,-0.45945945,-8.958641,35.64979)" gradientUnits="userSpaceOnUse" xlink:href="#linearGradient4011"/><linearGradient id="linearGradient1006" x1="24" x2="24" y1="16.501" y2="31.576" gradientUnits="userSpaceOnUse" xlink:href="#linearGradient1004"/></defs><metadata id="metadata3052"/><g id="g4198-4-0" stroke-width="1.406" transform="matrix(0.70833333,0,0,0.71428273,1.33333,0.784605)"><path id="path3818-0-6-9" fill="url(#radialGradient3300-8-3)" fill-opacity="1" stroke="none" stroke-width="1.406" d="m 55.999998,57.0017 a 24,6.9985714 0 1 1 -47.9999991,0 24,6.9985714 0 1 1 47.9999991,0 z" opacity=".2"/><path id="path4190-2-3" fill="url(#radialGradient4192-6-5)" fill-opacity="1" stroke="none" stroke-width="1.406" d="m 47.999998,59.0017 a 16,4.9988822 0 1 1 -31.999999,0 16,4.9988822 0 1 1 31.999999,0 z" opacity=".4"/></g><path id="path3902-8" fill="url(#linearGradient3932-9)" fill-opacity="1" fill-rule="nonzero" stroke="none" stroke-width="1" d="M 24.000705,3.999669 C 12.954663,3.999669 4,12.954634 4,23.999416 4,35.04521 12.954758,43.999667 24.000705,43.999667 35.046251,43.999667 44,35.04521 44,23.999416 44,12.954634 35.046251,3.999669 24.000705,3.999669 Z"/><path id="path8655-9" fill="none" stroke="url(#linearGradient3111-7)" stroke-dasharray="none" stroke-dashoffset="0" stroke-linecap="round" stroke-linejoin="round" stroke-miterlimit="4" stroke-opacity="1" stroke-width="1" d="m 43.5,23.998975 c 0,10.7699 -8.73109,19.50069 -19.499753,19.50069 -10.769649,0 -19.5002474,-8.730889 -19.5002474,-19.50069 0,-10.769402 8.7305984,-19.499308 19.5002474,-19.499308 C 34.76891,4.499667 43.5,13.229573 43.5,23.998975 Z" color="#000" display="inline" enable-background="accumulate" opacity="1" overflow="visible" visibility="visible" style="marker:none"/><path id="path8655-1-6-9-4-8-2" fill="none" stroke="url(#linearGradient3993-0-6-0-8-5)" stroke-dasharray="none" stroke-dashoffset="0" stroke-linecap="round" stroke-linejoin="round" stroke-miterlimit="4" stroke-opacity="1" stroke-width="1" d="m 32.5,23.999468 c 0,-4.694571 -3.805859,-8.500302 -8.499892,-8.500302 -4.694462,0 -8.500108,3.805773 -8.500108,8.500302 0,4.694354 3.805646,8.499698 8.500108,8.499698 4.694033,0 8.499892,-3.805344 8.499892,-8.499698 z" color="#000" display="inline" enable-background="accumulate" opacity=".5" overflow="visible" visibility="visible" style="marker:none"/><path id="path2555-6-6" fill="none" stroke="#555761" stroke-dasharray="none" stroke-dashoffset="0" stroke-linecap="round" stroke-linejoin="round" stroke-miterlimit="4" stroke-opacity="1" stroke-width="1" d="m 24.000003,3.499665 c -11.311193,0 -20.5000034,9.188806 -20.5000034,20.5 0,11.311194 9.1888104,20.500005 20.5000034,20.500002 11.311188,0 20.500008,-9.188808 20.499997,-20.500002 0,-11.311194 -9.188809,-20.5 -20.499997,-20.5 z" color="#000" display="inline" enable-background="accumulate" opacity=".6" overflow="visible" visibility="visible" style="marker:none"/><path id="path2555-3" fill="url(#linearGradient1006)" fill-opacity="1" stroke="url(#linearGradient3039)" stroke-dasharray="none" stroke-dashoffset="0" stroke-linecap="round" stroke-linejoin="round" stroke-miterlimit="4" stroke-width="1.004" d="m 24,16.500966 c -4.1372,0 -7.4982,3.361 -7.4982,7.4982 0,4.1372 3.361,7.4982 7.4982,7.4982 4.1372,0 7.4982,-3.361 7.4982,-7.4982 0,-4.1372 -3.361,-7.4982 -7.4982,-7.4982 z"/><path id="path8655-6" fill="none" stroke="url(#linearGradient3031)" stroke-dasharray="none" stroke-dashoffset="0" stroke-linecap="round" stroke-linejoin="round" stroke-miterlimit="4" stroke-width="1" d="m 30.5,23.998966 c 0,3.5896 -2.9104,6.5 -6.5,6.5 -3.5898,0 -6.5,-2.9104 -6.5,-6.5 0,-3.59 2.9102,-6.5 6.5,-6.5 3.5896,0 6.5,2.91 6.5,6.5 z" color="#000" enable-background="accumulate" opacity=".5"/><path id="path3220" fill="url(#linearGradient3101)" fill-opacity="1" stroke="none" stroke-width=".35" d="m 28,21.998966 a 4,4 0 1 1 -8,0 4,4 0 1 1 8,0 z" color="#000" display="inline" enable-background="accumulate" opacity=".4" overflow="visible" visibility="visible" style="marker:none"/></svg>