<svg xmlns="http://www.w3.org/2000/svg" xmlns:svg="http://www.w3.org/2000/svg" id="svg2" width="128" height="128" version="1.1" viewBox="0 0 160 160" xml:space="preserve"><metadata id="metadata8"/><defs id="defs6"><clipPath id="clipPath16" clipPathUnits="userSpaceOnUse"><path id="path18" d="m 10.229,72.41 c 0,-2.637 0.195,-5.23 0.563,-7.765 l 0,0 C 11.111,60.501 11.051,56 11.115,52.306 l 0,0 c 0.069,-3.98 0.156,-9.084 0.156,-9.084 l 0,0 0.002,0 c 0.05,-3.194 1.184,-8.423 3.199,-14.111 l 0,0 c 1.62,-4.572 3.49,-8.541 5.18,-11.215 l 0,0 0,0 c 0,0 0.01,-0.016 0.025,-0.037 l 0,0 c 0.277,-0.438 0.55,-0.839 0.815,-1.204 l 0,0 c 1.146,-1.684 3.174,-4.639 4.23,-6.024 l 0,0 c 0.128,-0.174 0.251,-0.331 0.371,-0.47 l 0,0 c 1.11,-1.329 1.87,-2.005 2.902,-2.566 l 0,0 c 1.03,-0.561 1.816,-0.113 1.816,-0.113 l 0,0 c 0.649,0.191 0.773,2.041 0.452,5.031 l 0,0 8.925,-6.065 c 0.246,-0.151 0.55,-0.205 0.848,-0.116 l 0,0 3.826,1.128 C 43.87,7.45 43.879,7.439 43.887,7.429 l 0,0 c 10e-4,0 10e-4,-0.001 10e-4,-0.001 l 0,0 C 43.998,7.289 44.1,7.185 44.192,7.115 l 0,0 C 44.905,6.477 45.917,6.21 46.902,6.5 l 0,0 4.013,1.183 c 2.029,0.599 3.372,2.406 3.477,4.405 l 0,0 c 0.324,2.657 -2.217,14.124 -6.201,27.634 l 0,0 C 44.062,53.727 39.823,65.047 38.23,66.491 l 0,0 c -1.203,1.448 -3.193,2.123 -5.114,1.557 l 0,0 -4.013,-1.183 c -0.814,-0.241 -1.44,-0.813 -1.774,-1.526 l 0,0 -4.315,-1.273 C 22.729,63.983 22.509,63.788 22.38,63.545 l 0,0 -4.087,-9.695 c -0.042,0.082 -0.084,0.166 -0.126,0.246 l 0,0 0,0.002 -0.358,0.991 c -1.085,4 -1.667,8.206 -1.667,12.55 l 0,0 c 0,26.43 21.428,47.857 47.858,47.857 l 0,0 c 26.431,0 47.857,-21.427 47.857,-47.857 l 0,0 c 0,-4.584 -0.647,-9.016 -1.851,-13.213 l 0,0 -0.12,-0.328 0,-0.002 c -0.041,-0.08 -0.083,-0.164 -0.126,-0.246 l 0,0 -4.086,9.695 c -0.129,0.243 -0.349,0.438 -0.635,0.521 l 0,0 -4.315,1.273 c -0.333,0.713 -0.958,1.285 -1.773,1.526 l 0,0 -4.014,1.183 c -1.919,0.566 -3.911,-0.109 -5.112,-1.557 l 0,0 C 88.231,65.047 83.992,53.727 79.862,39.722 l 0,0 C 75.879,26.212 73.337,14.745 73.661,12.088 l 0,0 c 0.106,-1.999 1.448,-3.806 3.479,-4.405 l 0,0 4.012,-1.183 c 0.985,-0.29 1.997,-0.023 2.709,0.615 l 0,0 c 0.093,0.07 0.194,0.174 0.305,0.313 l 0,0 c 0.001,0 0.001,0.001 0.001,0.001 l 0,0 c 0.008,0.01 0.016,0.021 0.024,0.031 l 0,0 3.825,-1.128 c 0.299,-0.089 0.604,-0.035 0.85,0.116 l 0,0 8.925,6.065 c -0.32,-2.99 -0.198,-4.84 0.452,-5.031 l 0,0 c 0,0 0.787,-0.448 1.816,0.113 l 0,0 c 1.032,0.561 1.792,1.237 2.902,2.566 l 0,0 c 0.119,0.139 0.243,0.296 0.371,0.47 l 0,0 c 1.055,1.385 3.084,4.34 4.23,6.024 l 0,0 c 0.265,0.365 0.538,0.766 0.815,1.204 l 0,0 c 0.015,0.021 0.025,0.037 0.025,0.037 l 0,0 -0.001,0 c 1.691,2.674 3.561,6.643 5.181,11.215 l 0,0 c 2.015,5.688 3.149,10.917 3.199,14.111 l 0,0 0.002,0 c 0,0 0.087,5.104 0.156,9.084 l 0,0 c 0.069,3.982 -0.008,8.901 0.405,13.3 l 0,0 c 0,0.002 -10e-4,0.002 -10e-4,0.003 l 0,0 c 0.281,2.228 0.427,4.497 0.427,6.801 l 0,0 c 0,29.697 -24.074,53.771 -53.77,53.771 l 0,0 c -29.697,0 -53.771,-24.074 -53.771,-53.771"/></clipPath><linearGradient id="linearGradient24" x1="0" x2="1" y1="0" y2="0" gradientTransform="matrix(0,-118.81322,-118.81322,0,64,124.12467)" gradientUnits="userSpaceOnUse" spreadMethod="pad"><stop id="stop26" offset="0" stop-color="#3d3d3e" stop-opacity="1"/><stop id="stop28" offset=".406" stop-color="#3d3d3e" stop-opacity="1"/><stop id="stop30" offset=".572" stop-color="#343334" stop-opacity="1"/><stop id="stop32" offset=".748" stop-color="#656263" stop-opacity="1"/><stop id="stop34" offset=".971" stop-color="#1f1d1d" stop-opacity="1"/><stop id="stop36" offset="1" stop-color="#1f1d1d" stop-opacity="1"/></linearGradient><clipPath id="clipPath44" clipPathUnits="userSpaceOnUse"><path id="path46" d="M 0,128 128,128 128,0 0,0 0,128 Z"/></clipPath><clipPath id="clipPath52" clipPathUnits="userSpaceOnUse"><path id="path54" d="m 10.2296,126.181 107.5404,0 0,-61.536 -107.5404,0 0,61.536 z"/></clipPath><clipPath id="clipPath56" clipPathUnits="userSpaceOnUse"><path id="path58" d="m 16.143,67.639 c 0,26.43 21.426,47.857 47.857,47.857 26.431,0 47.857,-21.427 47.857,-47.857 l 5.487,-2.033 c 0,0.002 -10e-4,0.002 -10e-4,0.003 0.281,2.228 0.428,4.497 0.428,6.802 0,29.696 -24.075,53.77 -53.771,53.77 -29.697,0 -53.771,-24.074 -53.771,-53.77 0,-2.638 0.195,-5.23 0.563,-7.766"/></clipPath><linearGradient id="linearGradient60" x1="0" x2="1" y1="0" y2="0" gradientTransform="matrix(10.339162,-32.144348,-32.144348,-10.339162,45.378731,131.53537)" gradientUnits="userSpaceOnUse" spreadMethod="pad"><stop id="stop62" offset="0" stop-color="#797b79" stop-opacity="1"/><stop id="stop64" offset=".074" stop-color="#797b79" stop-opacity="1"/><stop id="stop66" offset=".928" stop-color="#1f1d1d" stop-opacity="1"/><stop id="stop68" offset="1" stop-color="#1f1d1d" stop-opacity="1"/></linearGradient><clipPath id="clipPath96" clipPathUnits="userSpaceOnUse"><path id="path98" d="m 13.2023,117.39 101.5957,0 0,-65.4339 -101.5957,0 0,65.4339 z"/></clipPath><clipPath id="clipPath112" clipPathUnits="userSpaceOnUse"><path id="path114" d="m 18.473,89.631 c -0.296,-0.615 0.096,-1.38 0.697,-1.38 l 0,0 1.393,0 c 1.362,0 2.647,0.762 3.435,2.064 l 0,0 c 8.877,14.687 23.48,23.28 40.002,23.28 l 0,0 c 16.522,0 31.125,-8.593 40.002,-23.28 l 0,0 c 0.788,-1.302 2.073,-2.064 3.435,-2.064 l 0,0 1.393,0 c 0.602,0 0.993,0.765 0.698,1.38 l 0,0 C 100.255,109.024 83.342,120.012 64,120.012 l 0,0 c -19.341,0 -36.255,-10.988 -45.527,-30.381"/></clipPath><radialGradient id="radialGradient120" cx="0" cy="0" r="1" fx="0" fy="0" gradientTransform="matrix(48.500038,0.0354134,0.0354134,-48.500038,63.666672,72.131546)" gradientUnits="userSpaceOnUse" spreadMethod="pad"><stop id="stop122" offset="0" stop-color="#1f1d1d" stop-opacity="1"/><stop id="stop124" offset=".928" stop-color="#1f1d1d" stop-opacity="1"/><stop id="stop126" offset="1" stop-color="#343334" stop-opacity="1"/></radialGradient><clipPath id="clipPath134" clipPathUnits="userSpaceOnUse"><path id="path136" d="m 112.003,31.137 c -2.747,-8.555 -5.75,-15.822 -7.929,-19.499 l 0,0 c 1.097,1.519 2.573,3.673 3.488,5.017 l 0,0 c 0.265,0.365 0.538,0.766 0.815,1.204 l 0,0 c 0.015,0.021 0.025,0.037 0.025,0.037 l 0,0 -0.001,0 c 1.691,2.674 3.561,6.643 5.181,11.215 l 0,0 c 2.015,5.688 3.149,10.917 3.199,14.111 l 0,0 0.002,0 c 0,0 0.08,4.748 0.148,8.658 l 0,0 c -0.325,-4.223 -2.129,-12.021 -4.928,-20.743"/></clipPath><linearGradient id="linearGradient142" x1="0" x2="1" y1="0" y2="0" gradientTransform="matrix(12.856617,0,0,-12.856617,104.07446,31.758736)" gradientUnits="userSpaceOnUse" spreadMethod="pad"><stop id="stop144" offset="0" stop-color="#2b2829" stop-opacity="1"/><stop id="stop146" offset=".37" stop-color="#2b2829" stop-opacity="1"/><stop id="stop148" offset="1" stop-color="#3b3839" stop-opacity="1"/></linearGradient><clipPath id="clipPath156" clipPathUnits="userSpaceOnUse"><path id="path158" d="M 102.319,33.226 C 98.393,19.502 96.567,7.976 98.243,7.482 l 0,0 c 1.675,-0.494 6.217,10.231 10.144,23.956 l 0,0 c 3.928,13.724 5.753,25.249 4.077,25.744 l 0,0 c -0.037,0.01 -0.076,0.016 -0.116,0.016 l 0,0 c -1.761,0 -6.189,-10.552 -10.029,-23.972"/></clipPath><linearGradient id="linearGradient164" x1="0" x2="1" y1="0" y2="0" gradientTransform="matrix(15.465174,0,0,-15.465174,97.620636,32.331909)" gradientUnits="userSpaceOnUse" spreadMethod="pad"><stop id="stop166" offset="0" stop-color="#1a1817" stop-opacity="1"/><stop id="stop168" offset="1" stop-color="#2c2a2a" stop-opacity="1"/></linearGradient><clipPath id="clipPath176" clipPathUnits="userSpaceOnUse"><path id="path178" d="m 105.67,63.532 c 0.016,-0.032 0.04,-0.06 0.054,-0.094 l 0,0 -0.048,0.114 -0.006,-0.02 z"/></clipPath><linearGradient id="linearGradient184" x1="0" x2="1" y1="0" y2="0" gradientTransform="matrix(0.0532227,0,0,-0.0532227,105.67002,63.494678)" gradientUnits="userSpaceOnUse" spreadMethod="pad"><stop id="stop186" offset="0" stop-color="#6d6e70" stop-opacity="1"/><stop id="stop188" offset=".506" stop-color="#545557" stop-opacity="1"/><stop id="stop190" offset="1" stop-color="#2c2a2a" stop-opacity="1"/></linearGradient><clipPath id="clipPath198" clipPathUnits="userSpaceOnUse"><path id="path200" d="M 105.798,63.113 C 106.32,60.889 103.639,48.73 99.39,34.314 l 0,0 C 95.083,19.706 90.678,7.921 89.085,6.589 l 0,0 10.068,6.851 c 1.335,0.895 4.265,8.847 7.403,19.494 l 0,0 c 3.141,10.646 4.608,17.625 3.967,19.105 l 0,0 -4.792,11.38 c 0.037,-0.098 0.06,-0.2 0.067,-0.306"/></clipPath><linearGradient id="linearGradient206" x1="0" x2="1" y1="0" y2="0" gradientTransform="matrix(11.559747,33.986103,33.986103,-11.559747,95.139351,15.464629)" gradientUnits="userSpaceOnUse" spreadMethod="pad"><stop id="stop208" offset="0" stop-color="#2c2a2a" stop-opacity="1"/><stop id="stop210" offset=".5" stop-color="#2c2a2a" stop-opacity="1"/><stop id="stop212" offset=".803" stop-color="#545557" stop-opacity="1"/><stop id="stop214" offset="1" stop-color="#7b7979" stop-opacity="1"/></linearGradient><clipPath id="clipPath222" clipPathUnits="userSpaceOnUse"><path id="path224" d="m 88.952,6.499 c 0.02,0.012 0.04,0.027 0.059,0.04 l 0,0 -0.059,-0.04 z M 88.932,6.488 C 88.912,6.474 88.889,6.466 88.868,6.453 l 0,0 -0.004,-0.014 0.088,0.06 C 88.945,6.495 88.938,6.491 88.932,6.488"/></clipPath><linearGradient id="linearGradient230" x1="0" x2="1" y1="0" y2="0" gradientTransform="matrix(0.1467285,0,0,-0.1467285,88.864113,6.4887571)" gradientUnits="userSpaceOnUse" spreadMethod="pad"><stop id="stop232" offset="0" stop-color="#6d6e70" stop-opacity="1"/><stop id="stop234" offset=".506" stop-color="#545557" stop-opacity="1"/><stop id="stop236" offset="1" stop-color="#2c2a2a" stop-opacity="1"/></linearGradient><clipPath id="clipPath244" clipPathUnits="userSpaceOnUse"><path id="path246" d="M 89.825,66.491 C 88.231,65.047 83.992,53.727 79.862,39.722 l 0,0 C 75.879,26.212 73.337,14.745 73.661,12.088 l 0,0 c 0.106,-1.999 1.448,-3.806 3.479,-4.405 l 0,0 4.012,-1.183 c 0.985,-0.29 1.997,-0.023 2.709,0.615 l 0,0 c 0.093,0.07 0.194,0.174 0.305,0.313 l 0,0 c 0.001,0 0.001,0.001 0.001,0.001 l 0,0 c 1.84,2.303 6.117,13.841 10.284,27.974 l 0,0 c 4.521,15.334 7.276,28.173 6.398,29.626 l 0,0 c -0.286,0.856 -0.969,1.562 -1.898,1.836 l 0,0 -4.014,1.183 c -0.458,0.135 -0.921,0.2 -1.376,0.2 l 0,0 c -1.45,0 -2.822,-0.655 -3.736,-1.757"/></clipPath><linearGradient id="linearGradient252" x1="0" x2="1" y1="0" y2="0" gradientTransform="matrix(13.6474,-4.0261068,-4.0261068,-13.6474,80.458695,39.512272)" gradientUnits="userSpaceOnUse" spreadMethod="pad"><stop id="stop254" offset="0" stop-color="#363233" stop-opacity="1"/><stop id="stop256" offset=".334" stop-color="#343131" stop-opacity="1"/><stop id="stop258" offset="1" stop-color="#2b2829" stop-opacity="1"/></linearGradient><clipPath id="clipPath266" clipPathUnits="userSpaceOnUse"><path id="path268" d="M 89.825,66.491 C 88.231,65.047 83.992,53.727 79.862,39.722 l 0,0 C 75.879,26.212 73.337,14.745 73.661,12.088 l 0,0 c 0.106,-1.999 1.448,-3.806 3.479,-4.405 l 0,0 4.012,-1.183 c 0.985,-0.29 1.997,-0.023 2.709,0.615 l 0,0 c 0.093,0.07 0.194,0.174 0.305,0.313 l 0,0 c 0.001,0 0.001,0.001 0.001,0.001 l 0,0 c 1.84,2.303 6.117,13.841 10.284,27.974 l 0,0 c 4.521,15.334 7.276,28.173 6.398,29.626 l 0,0 c -0.286,0.856 -0.969,1.562 -1.898,1.836 l 0,0 -4.014,1.183 c -0.458,0.135 -0.921,0.2 -1.376,0.2 l 0,0 c -1.45,0 -2.822,-0.655 -3.736,-1.757"/></clipPath><linearGradient id="linearGradient274" x1="0" x2="1" y1="0" y2="0" gradientTransform="matrix(-17.185045,-57.523743,-57.523743,17.185045,95.731216,66.264237)" gradientUnits="userSpaceOnUse" spreadMethod="pad"><stop id="stop276" offset="0" stop-color="#3b3839" stop-opacity="1"/><stop id="stop278" offset=".279" stop-color="#363233" stop-opacity="1"/><stop id="stop280" offset=".5" stop-color="#322e2f" stop-opacity="1"/><stop id="stop282" offset="1" stop-color="#2b2829" stop-opacity="1"/></linearGradient><clipPath id="clipPath290" clipPathUnits="userSpaceOnUse"><path id="path292" d="m 100.849,65.029 c 0.878,-1.453 -1.877,-14.292 -6.398,-29.626 l 0,0 C 90.3,21.321 86.039,9.822 84.19,7.46 l 0,0 3.826,-1.128 c 0.327,-0.097 0.659,-0.026 0.916,0.156 l 0,0 c 1.444,0.63 6.004,12.719 10.458,27.826 l 0,0 c 4.249,14.416 6.93,26.575 6.408,28.799 l 0,0 c -0.028,0.433 -0.317,0.824 -0.759,0.953 l 0,0 -4.339,1.28 c 0.05,-0.105 0.112,-0.206 0.149,-0.317"/></clipPath><linearGradient id="linearGradient298" x1="0" x2="1" y1="0" y2="0" gradientTransform="matrix(-12.55569,-55.003719,-55.003719,12.55569,101.63921,62.57811)" gradientUnits="userSpaceOnUse" spreadMethod="pad"><stop id="stop300" offset="0" stop-color="#d3d2d2" stop-opacity="1"/><stop id="stop302" offset=".139" stop-color="#a7a5a6" stop-opacity="1"/><stop id="stop304" offset=".274" stop-color="#6d6e70" stop-opacity="1"/><stop id="stop306" offset="1" stop-color="#373737" stop-opacity="1"/></linearGradient><clipPath id="clipPath314" clipPathUnits="userSpaceOnUse"><path id="path316" d="M 0,128 128,128 128,0 0,0 0,128 Z"/></clipPath><clipPath id="clipPath322" clipPathUnits="userSpaceOnUse"><path id="path324" d="m 97.4968,53.4416 13.6742,0 0,-41.3146 -13.6742,0 0,41.3146 z"/></clipPath><clipPath id="clipPath338" clipPathUnits="userSpaceOnUse"><path id="path340" d="m 83.7757,65.1934 17.7363,0 0,-58.1725 -17.7363,0 0,58.1725 z"/></clipPath><clipPath id="clipPath354" clipPathUnits="userSpaceOnUse"><path id="path356" d="m 88.1455,63.4305 17.6305,0 0,-57.19741 -17.6305,0 0,57.19741 z"/></clipPath><clipPath id="clipPath370" clipPathUnits="userSpaceOnUse"><path id="path372" d="m 11.271,43.222 0.002,0 c 0.05,-3.194 1.184,-8.423 3.199,-14.111 l 0,0 c 1.62,-4.572 3.49,-8.541 5.18,-11.215 l 0,0 0,0 c 0,0 0.01,-0.016 0.025,-0.037 l 0,0 c 0.277,-0.438 0.55,-0.839 0.815,-1.204 l 0,0 c 0.914,-1.344 2.391,-3.498 3.488,-5.017 l 0,0 c -2.178,3.677 -5.183,10.944 -7.929,19.499 l 0,0 c -2.798,8.722 -4.603,16.52 -4.928,20.743 l 0,0 c 0.068,-3.91 0.148,-8.658 0.148,-8.658"/></clipPath><linearGradient id="linearGradient378" x1="0" x2="1" y1="0" y2="0" gradientTransform="matrix(-12.856617,0,0,-12.856617,23.979431,31.758736)" gradientUnits="userSpaceOnUse" spreadMethod="pad"><stop id="stop380" offset="0" stop-color="#2b2829" stop-opacity="1"/><stop id="stop382" offset=".37" stop-color="#2b2829" stop-opacity="1"/><stop id="stop384" offset="1" stop-color="#3b3839" stop-opacity="1"/></linearGradient><clipPath id="clipPath392" clipPathUnits="userSpaceOnUse"><path id="path394" d="m 15.591,57.182 c -1.676,-0.495 0.149,-12.02 4.076,-25.744 l 0,0 C 23.594,17.713 28.135,6.988 29.811,7.482 l 0,0 c 1.675,0.494 -0.15,12.02 -4.076,25.744 l 0,0 c -3.84,13.42 -8.268,23.972 -10.029,23.972 l 0,0 c -0.04,0 -0.078,-0.006 -0.115,-0.016"/></clipPath><linearGradient id="linearGradient400" x1="0" x2="1" y1="0" y2="0" gradientTransform="matrix(-15.465174,0,0,-15.465174,30.43325,32.331909)" gradientUnits="userSpaceOnUse" spreadMethod="pad"><stop id="stop402" offset="0" stop-color="#1a1817" stop-opacity="1"/><stop id="stop404" offset="1" stop-color="#2c2a2a" stop-opacity="1"/></linearGradient><clipPath id="clipPath412" clipPathUnits="userSpaceOnUse"><path id="path414" d="m 22.336,63.45 c 0.013,0.028 0.033,0.054 0.048,0.082 l 0,0 -0.006,0.02 -0.042,-0.102 z m -0.005,-0.012 0.005,0.012 c -0.002,-0.004 -0.004,-0.008 -0.005,-0.012"/></clipPath><linearGradient id="linearGradient420" x1="0" x2="1" y1="0" y2="0" gradientTransform="matrix(-0.0532227,0,0,-0.0532227,22.383865,63.494678)" gradientUnits="userSpaceOnUse" spreadMethod="pad"><stop id="stop422" offset="0" stop-color="#6d6e70" stop-opacity="1"/><stop id="stop424" offset=".506" stop-color="#545557" stop-opacity="1"/><stop id="stop426" offset="1" stop-color="#2c2a2a" stop-opacity="1"/></linearGradient><clipPath id="clipPath434" clipPathUnits="userSpaceOnUse"><path id="path436" d="m 17.531,52.039 c -0.641,-1.48 0.827,-8.459 3.966,-19.105 l 0,0 C 24.636,22.287 27.566,14.335 28.901,13.44 l 0,0 10.068,-6.851 C 37.376,7.921 32.971,19.706 28.664,34.314 l 0,0 C 24.413,48.73 21.735,60.889 22.256,63.113 l 0,0 c 0.006,0.106 0.03,0.208 0.067,0.306 l 0,0 -4.792,-11.38 z"/></clipPath><linearGradient id="linearGradient442" x1="0" x2="1" y1="0" y2="0" gradientTransform="matrix(-11.559747,33.986103,-33.986103,-11.559747,32.914539,15.464629)" gradientUnits="userSpaceOnUse" spreadMethod="pad"><stop id="stop444" offset="0" stop-color="#2c2a2a" stop-opacity="1"/><stop id="stop446" offset=".5" stop-color="#2c2a2a" stop-opacity="1"/><stop id="stop448" offset=".803" stop-color="#545557" stop-opacity="1"/><stop id="stop450" offset="1" stop-color="#7b7979" stop-opacity="1"/></linearGradient><clipPath id="clipPath458" clipPathUnits="userSpaceOnUse"><path id="path460" d="m 39.057,6.53 c -0.005,0.003 -0.009,0.006 -0.014,0.009 l 0,0 0.014,-0.009 z M 39.1,6.5 39.057,6.53 C 39.072,6.52 39.086,6.509 39.1,6.5 m 0.09,-0.061 -0.005,0.014 c -0.02,0.013 -0.043,0.021 -0.063,0.035 l 0,0 C 39.115,6.491 39.108,6.495 39.1,6.5 l 0,0 0.09,-0.061 z"/></clipPath><linearGradient id="linearGradient466" x1="0" x2="1" y1="0" y2="0" gradientTransform="matrix(-0.1467285,0,0,-0.1467285,39.189774,6.4887571)" gradientUnits="userSpaceOnUse" spreadMethod="pad"><stop id="stop468" offset="0" stop-color="#6d6e70" stop-opacity="1"/><stop id="stop470" offset=".506" stop-color="#545557" stop-opacity="1"/><stop id="stop472" offset="1" stop-color="#2c2a2a" stop-opacity="1"/></linearGradient><clipPath id="clipPath480" clipPathUnits="userSpaceOnUse"><path id="path482" d="m 33.116,68.048 -4.013,-1.183 c -0.929,-0.274 -1.613,-0.98 -1.898,-1.836 l 0,0 c -0.878,-1.453 1.877,-14.292 6.397,-29.626 l 0,0 C 37.77,21.27 42.047,9.732 43.887,7.429 l 0,0 c 10e-4,0 10e-4,-0.001 10e-4,-0.001 l 0,0 C 43.998,7.289 44.1,7.185 44.192,7.115 l 0,0 C 44.905,6.477 45.917,6.21 46.902,6.5 l 0,0 4.013,1.183 c 2.029,0.599 3.372,2.406 3.477,4.405 l 0,0 c 0.324,2.657 -2.217,14.124 -6.201,27.634 l 0,0 C 44.062,53.727 39.823,65.047 38.23,66.491 l 0,0 c -0.916,1.102 -2.287,1.757 -3.737,1.757 l 0,0 c -0.455,0 -0.918,-0.065 -1.377,-0.2"/></clipPath><linearGradient id="linearGradient488" x1="0" x2="1" y1="0" y2="0" gradientTransform="matrix(-13.6474,-4.0261068,4.0261068,-13.6474,47.595196,39.512268)" gradientUnits="userSpaceOnUse" spreadMethod="pad"><stop id="stop490" offset="0" stop-color="#363233" stop-opacity="1"/><stop id="stop492" offset=".334" stop-color="#343131" stop-opacity="1"/><stop id="stop494" offset="1" stop-color="#2b2829" stop-opacity="1"/></linearGradient><clipPath id="clipPath502" clipPathUnits="userSpaceOnUse"><path id="path504" d="m 33.116,68.048 -4.013,-1.183 c -0.929,-0.274 -1.613,-0.98 -1.898,-1.836 l 0,0 c -0.878,-1.453 1.877,-14.292 6.397,-29.626 l 0,0 C 37.77,21.27 42.047,9.732 43.887,7.429 l 0,0 c 10e-4,0 10e-4,-0.001 10e-4,-0.001 l 0,0 C 43.998,7.289 44.1,7.185 44.192,7.115 l 0,0 C 44.905,6.477 45.917,6.21 46.902,6.5 l 0,0 4.013,1.183 c 2.029,0.599 3.372,2.406 3.477,4.405 l 0,0 c 0.324,2.657 -2.217,14.124 -6.201,27.634 l 0,0 C 44.062,53.727 39.823,65.047 38.23,66.491 l 0,0 c -0.916,1.102 -2.287,1.757 -3.737,1.757 l 0,0 c -0.455,0 -0.918,-0.065 -1.377,-0.2"/></clipPath><linearGradient id="linearGradient510" x1="0" x2="1" y1="0" y2="0" gradientTransform="matrix(17.185045,-57.523743,57.523743,17.185045,32.32267,66.264237)" gradientUnits="userSpaceOnUse" spreadMethod="pad"><stop id="stop512" offset="0" stop-color="#3b3839" stop-opacity="1"/><stop id="stop514" offset=".279" stop-color="#363233" stop-opacity="1"/><stop id="stop516" offset=".5" stop-color="#322e2f" stop-opacity="1"/><stop id="stop518" offset="1" stop-color="#2b2829" stop-opacity="1"/></linearGradient><clipPath id="clipPath526" clipPathUnits="userSpaceOnUse"><path id="path528" d="m 23.015,64.066 c -0.441,-0.129 -0.731,-0.52 -0.759,-0.953 l 0,0 C 21.735,60.889 24.413,48.73 28.664,34.314 l 0,0 C 33.118,19.207 37.678,7.118 39.122,6.488 l 0,0 c 0.258,-0.182 0.59,-0.253 0.914,-0.156 l 0,0 3.829,1.128 c -1.85,2.362 -6.111,13.861 -10.263,27.943 l 0,0 c -4.52,15.334 -7.275,28.173 -6.397,29.626 l 0,0 c 0.037,0.111 0.098,0.212 0.149,0.317 l 0,0 -4.339,-1.28 z"/></clipPath><linearGradient id="linearGradient534" x1="0" x2="1" y1="0" y2="0" gradientTransform="matrix(12.55569,-55.003719,55.003719,12.55569,26.414682,62.57811)" gradientUnits="userSpaceOnUse" spreadMethod="pad"><stop id="stop536" offset="0" stop-color="#d3d2d2" stop-opacity="1"/><stop id="stop538" offset=".139" stop-color="#a7a5a6" stop-opacity="1"/><stop id="stop540" offset=".274" stop-color="#6d6e70" stop-opacity="1"/><stop id="stop542" offset="1" stop-color="#373737" stop-opacity="1"/></linearGradient><clipPath id="clipPath550" clipPathUnits="userSpaceOnUse"><path id="path552" d="M 0,128 128,128 128,0 0,0 0,128 Z"/></clipPath><clipPath id="clipPath558" clipPathUnits="userSpaceOnUse"><path id="path560" d="m 16.8833,53.4416 13.6738,0 0,-41.3146 -13.6738,0 0,41.3146 z"/></clipPath><clipPath id="clipPath574" clipPathUnits="userSpaceOnUse"><path id="path576" d="m 26.5423,65.1934 17.7359,0 0,-58.1725 -17.7359,0 0,58.1725 z"/></clipPath><clipPath id="clipPath590" clipPathUnits="userSpaceOnUse"><path id="path592" d="m 22.2777,63.4305 17.6307,0 0,-57.19741 -17.6307,0 0,57.19741 z"/></clipPath><clipPath id="clipPath606" clipPathUnits="userSpaceOnUse"><path id="path608" d="m 9.72966,126.681 108.54034,0 0,-120.89185 -108.54034,0 0,120.89185 z"/></clipPath><clipPath id="clipPath610" clipPathUnits="userSpaceOnUse"><path id="path612" d="m 9.72966,126.681 108.54034,0 0,-120.89185 -108.54034,0 0,120.89185 z"/></clipPath><clipPath id="clipPath634" clipPathUnits="userSpaceOnUse"><path id="path636" d="m 22.6945,10.1572 39.434,0 0,-8.89565 -39.434,0 0,8.89565 z"/></clipPath><clipPath id="clipPath638" clipPathUnits="userSpaceOnUse"><path id="path640" d="m 62.128,5.709 c 0,-2.456 -8.827,-4.447 -19.716,-4.447 -10.89,0 -19.718,1.991 -19.718,4.447 0,2.457 8.828,4.448 19.718,4.448 10.889,0 19.716,-1.991 19.716,-4.448"/></clipPath><clipPath id="clipPath642" clipPathUnits="userSpaceOnUse"><path id="path644" d="m -32768,32767 65535,0 0,-65535 -65535,0 0,65535 z"/></clipPath><radialGradient id="radialGradient646" cx="0" cy="0" r="1" fx="0" fy="0" gradientTransform="matrix(19.803101,0,0,-4.1666665,42.411499,5.7093582)" gradientUnits="userSpaceOnUse" spreadMethod="pad"><stop id="stop648" offset="0" stop-color="#fff" stop-opacity="1"/><stop id="stop650" offset=".531" stop-color="#fff" stop-opacity="0"/><stop id="stop652" offset="1" stop-color="#fff" stop-opacity="0"/></radialGradient><mask id="mask654" width="1" height="1" x="0" y="0" maskUnits="userSpaceOnUse"><g id="g656"><g id="g658" clip-path="url(#clipPath642)"><g id="g660"><g id="g662"><path id="path664" fill="url(#radialGradient646)" stroke="none" d="m -32768,32767 65535,0 0,-65535 -65535,0 0,65535 z"/></g></g></g></g></mask><radialGradient id="radialGradient666" cx="0" cy="0" r="1" fx="0" fy="0" gradientTransform="matrix(19.803101,0,0,-4.1666665,42.411499,5.7093582)" gradientUnits="userSpaceOnUse" spreadMethod="pad"><stop id="stop668" offset="0" stop-color="#100f0d" stop-opacity="1"/><stop id="stop670" offset=".531" stop-color="#100f0d" stop-opacity="1"/><stop id="stop672" offset="1" stop-color="#100f0d" stop-opacity="1"/></radialGradient><clipPath id="clipPath696" clipPathUnits="userSpaceOnUse"><path id="path698" d="m 66.5088,10.1572 39.4342,0 0,-8.89565 -39.4342,0 0,8.89565 z"/></clipPath><clipPath id="clipPath700" clipPathUnits="userSpaceOnUse"><path id="path702" d="m 105.942,5.709 c 0,-2.456 -8.827,-4.447 -19.716,-4.447 -10.89,0 -19.717,1.991 -19.717,4.447 0,2.457 8.827,4.448 19.717,4.448 10.889,0 19.716,-1.991 19.716,-4.448"/></clipPath><clipPath id="clipPath704" clipPathUnits="userSpaceOnUse"><path id="path706" d="m -32768,32767 65535,0 0,-65535 -65535,0 0,65535 z"/></clipPath><radialGradient id="radialGradient708" cx="0" cy="0" r="1" fx="0" fy="0" gradientTransform="matrix(19.803101,0,0,-4.1666665,86.225723,5.7093582)" gradientUnits="userSpaceOnUse" spreadMethod="pad"><stop id="stop710" offset="0" stop-color="#fff" stop-opacity="1"/><stop id="stop712" offset=".531" stop-color="#fff" stop-opacity="0"/><stop id="stop714" offset="1" stop-color="#fff" stop-opacity="0"/></radialGradient><mask id="mask716" width="1" height="1" x="0" y="0" maskUnits="userSpaceOnUse"><g id="g718"><g id="g720" clip-path="url(#clipPath704)"><g id="g722"><g id="g724"><path id="path726" fill="url(#radialGradient708)" stroke="none" d="m -32768,32767 65535,0 0,-65535 -65535,0 0,65535 z"/></g></g></g></g></mask><radialGradient id="radialGradient728" cx="0" cy="0" r="1" fx="0" fy="0" gradientTransform="matrix(19.803101,0,0,-4.1666665,86.225723,5.7093582)" gradientUnits="userSpaceOnUse" spreadMethod="pad"><stop id="stop730" offset="0" stop-color="#100f0d" stop-opacity="1"/><stop id="stop732" offset=".531" stop-color="#100f0d" stop-opacity="1"/><stop id="stop734" offset="1" stop-color="#100f0d" stop-opacity="1"/></radialGradient></defs><g id="g10" transform="matrix(1.25,0,0,-1.25,0,160)"><g id="g12"><g id="g14" clip-path="url(#clipPath16)"><g id="g20"><g id="g22"><path id="path38" fill="url(#linearGradient24)" stroke="none" d="m 10.229,72.41 c 0,-2.637 0.195,-5.23 0.563,-7.765 l 0,0 C 11.111,60.501 11.051,56 11.115,52.306 l 0,0 c 0.069,-3.98 0.156,-9.084 0.156,-9.084 l 0,0 0.002,0 c 0.05,-3.194 1.184,-8.423 3.199,-14.111 l 0,0 c 1.62,-4.572 3.49,-8.541 5.18,-11.215 l 0,0 0,0 c 0,0 0.01,-0.016 0.025,-0.037 l 0,0 c 0.277,-0.438 0.55,-0.839 0.815,-1.204 l 0,0 c 1.146,-1.684 3.174,-4.639 4.23,-6.024 l 0,0 c 0.128,-0.174 0.251,-0.331 0.371,-0.47 l 0,0 c 1.11,-1.329 1.87,-2.005 2.902,-2.566 l 0,0 c 1.03,-0.561 1.816,-0.113 1.816,-0.113 l 0,0 c 0.649,0.191 0.773,2.041 0.452,5.031 l 0,0 8.925,-6.065 c 0.246,-0.151 0.55,-0.205 0.848,-0.116 l 0,0 3.826,1.128 C 43.87,7.45 43.879,7.439 43.887,7.429 l 0,0 c 10e-4,0 10e-4,-0.001 10e-4,-0.001 l 0,0 C 43.998,7.289 44.1,7.185 44.192,7.115 l 0,0 C 44.905,6.477 45.917,6.21 46.902,6.5 l 0,0 4.013,1.183 c 2.029,0.599 3.372,2.406 3.477,4.405 l 0,0 c 0.324,2.657 -2.217,14.124 -6.201,27.634 l 0,0 C 44.062,53.727 39.823,65.047 38.23,66.491 l 0,0 c -1.203,1.448 -3.193,2.123 -5.114,1.557 l 0,0 -4.013,-1.183 c -0.814,-0.241 -1.44,-0.813 -1.774,-1.526 l 0,0 -4.315,-1.273 C 22.729,63.983 22.509,63.788 22.38,63.545 l 0,0 -4.087,-9.695 c -0.042,0.082 -0.084,0.166 -0.126,0.246 l 0,0 0,0.002 -0.358,0.991 c -1.085,4 -1.667,8.206 -1.667,12.55 l 0,0 c 0,26.43 21.428,47.857 47.858,47.857 l 0,0 c 26.431,0 47.857,-21.427 47.857,-47.857 l 0,0 c 0,-4.584 -0.647,-9.016 -1.851,-13.213 l 0,0 -0.12,-0.328 0,-0.002 c -0.041,-0.08 -0.083,-0.164 -0.126,-0.246 l 0,0 -4.086,9.695 c -0.129,0.243 -0.349,0.438 -0.635,0.521 l 0,0 -4.315,1.273 c -0.333,0.713 -0.958,1.285 -1.773,1.526 l 0,0 -4.014,1.183 c -1.919,0.566 -3.911,-0.109 -5.112,-1.557 l 0,0 C 88.231,65.047 83.992,53.727 79.862,39.722 l 0,0 C 75.879,26.212 73.337,14.745 73.661,12.088 l 0,0 c 0.106,-1.999 1.448,-3.806 3.479,-4.405 l 0,0 4.012,-1.183 c 0.985,-0.29 1.997,-0.023 2.709,0.615 l 0,0 c 0.093,0.07 0.194,0.174 0.305,0.313 l 0,0 c 0.001,0 0.001,0.001 0.001,0.001 l 0,0 c 0.008,0.01 0.016,0.021 0.024,0.031 l 0,0 3.825,-1.128 c 0.299,-0.089 0.604,-0.035 0.85,0.116 l 0,0 8.925,6.065 c -0.32,-2.99 -0.198,-4.84 0.452,-5.031 l 0,0 c 0,0 0.787,-0.448 1.816,0.113 l 0,0 c 1.032,0.561 1.792,1.237 2.902,2.566 l 0,0 c 0.119,0.139 0.243,0.296 0.371,0.47 l 0,0 c 1.055,1.385 3.084,4.34 4.23,6.024 l 0,0 c 0.265,0.365 0.538,0.766 0.815,1.204 l 0,0 c 0.015,0.021 0.025,0.037 0.025,0.037 l 0,0 -0.001,0 c 1.691,2.674 3.561,6.643 5.181,11.215 l 0,0 c 2.015,5.688 3.149,10.917 3.199,14.111 l 0,0 0.002,0 c 0,0 0.087,5.104 0.156,9.084 l 0,0 c 0.069,3.982 -0.008,8.901 0.405,13.3 l 0,0 c 0,0.002 -10e-4,0.002 -10e-4,0.003 l 0,0 c 0.281,2.228 0.427,4.497 0.427,6.801 l 0,0 c 0,29.697 -24.074,53.771 -53.77,53.771 l 0,0 c -29.697,0 -53.771,-24.074 -53.771,-53.771"/></g></g></g></g><g id="g40"><g id="g42" clip-path="url(#clipPath44)"><g id="g48"><g id="g70"><g id="g72" clip-path="url(#clipPath52)" opacity=".3"><g id="g74"><g id="g76" clip-path="url(#clipPath56)"><g id="g78"><g id="g80"><path id="path82" fill="url(#linearGradient60)" stroke="none" d="m 16.143,67.639 c 0,26.43 21.426,47.857 47.857,47.857 26.431,0 47.857,-21.427 47.857,-47.857 l 5.487,-2.033 c 0,0.002 -10e-4,0.002 -10e-4,0.003 0.281,2.228 0.428,4.497 0.428,6.802 0,29.696 -24.075,53.77 -53.771,53.77 -29.697,0 -53.771,-24.074 -53.771,-53.77 0,-2.638 0.195,-5.23 0.563,-7.766"/></g></g></g></g></g></g></g><g id="g84" transform="translate(10.646,79.001)"><path id="path86" fill="#d3d2d2" fill-opacity="1" fill-rule="nonzero" stroke="none" d="m 0,0 c -0.264,-2.162 -0.417,-4.357 -0.417,-6.59 0,-2.638 0.195,-5.23 0.563,-7.766 l 2.41,0.349 2.941,2.645 c 0,3.916 0.481,7.719 1.368,11.362 L 4.021,-0.417 0,0 Z"/></g><g id="g88" transform="translate(117.3535,79.001)"><path id="path90" fill="#d3d2d2" fill-opacity="1" fill-rule="nonzero" stroke="none" d="m 0,0 c 0.265,-2.162 0.417,-4.357 0.417,-6.59 0,-2.638 -0.194,-5.23 -0.562,-7.766 l -2.411,0.349 -2.94,2.645 c 0,3.916 -0.482,7.719 -1.369,11.362 L -4.021,-0.417 0,0 Z"/></g><g id="g92"><g id="g100"><g id="g102" clip-path="url(#clipPath96)" opacity=".8"><g id="g104" transform="translate(112.5723,51.9561)"><path id="path106" fill="#231f20" fill-opacity="1" fill-rule="nonzero" stroke="none" d="M 0,0 C 0.044,0.088 0.09,0.178 0.134,0.263 L 0.26,0.611 c 1.278,4.455 1.966,9.16 1.966,14.025 0,28.055 -22.744,50.798 -50.798,50.798 -28.055,0 -50.798,-22.743 -50.798,-50.798 0,-4.611 0.617,-9.075 1.769,-13.321 l 0.38,-1.052 C -97.177,0.178 -97.132,0.088 -97.087,0 l 2.808,1.894 c -0.042,0.083 -0.084,0.167 -0.126,0.247 l 0,10e-4 -0.358,0.991 c -1.085,4 -1.667,8.206 -1.667,12.55 0,26.43 21.427,47.857 47.858,47.857 26.43,0 47.857,-21.427 47.857,-47.857 0,-4.584 -0.647,-9.016 -1.851,-13.213 l -0.12,-0.328 0,-10e-4 C -2.728,2.061 -2.77,1.977 -2.812,1.894 L 0,0 Z"/></g></g></g></g></g></g><g id="g108"><g id="g110" clip-path="url(#clipPath112)"><g id="g116"><g id="g118"><path id="path128" fill="url(#radialGradient120)" stroke="none" d="m 18.473,89.631 c -0.296,-0.615 0.096,-1.38 0.697,-1.38 l 0,0 1.393,0 c 1.362,0 2.647,0.762 3.435,2.064 l 0,0 c 8.877,14.687 23.48,23.28 40.002,23.28 l 0,0 c 16.522,0 31.125,-8.593 40.002,-23.28 l 0,0 c 0.788,-1.302 2.073,-2.064 3.435,-2.064 l 0,0 1.393,0 c 0.602,0 0.993,0.765 0.698,1.38 l 0,0 C 100.255,109.024 83.342,120.012 64,120.012 l 0,0 c -19.341,0 -36.255,-10.988 -45.527,-30.381"/></g></g></g></g><g id="g130"><g id="g132" clip-path="url(#clipPath134)"><g id="g138"><g id="g140"><path id="path150" fill="url(#linearGradient142)" stroke="none" d="m 112.003,31.137 c -2.747,-8.555 -5.75,-15.822 -7.929,-19.499 l 0,0 c 1.097,1.519 2.573,3.673 3.488,5.017 l 0,0 c 0.265,0.365 0.538,0.766 0.815,1.204 l 0,0 c 0.015,0.021 0.025,0.037 0.025,0.037 l 0,0 -0.001,0 c 1.691,2.674 3.561,6.643 5.181,11.215 l 0,0 c 2.015,5.688 3.149,10.917 3.199,14.111 l 0,0 0.002,0 c 0,0 0.08,4.748 0.148,8.658 l 0,0 c -0.325,-4.223 -2.129,-12.021 -4.928,-20.743"/></g></g></g></g><g id="g152"><g id="g154" clip-path="url(#clipPath156)"><g id="g160"><g id="g162"><path id="path170" fill="url(#linearGradient164)" stroke="none" d="M 102.319,33.226 C 98.393,19.502 96.567,7.976 98.243,7.482 l 0,0 c 1.675,-0.494 6.217,10.231 10.144,23.956 l 0,0 c 3.928,13.724 5.753,25.249 4.077,25.744 l 0,0 c -0.037,0.01 -0.076,0.016 -0.116,0.016 l 0,0 c -1.761,0 -6.189,-10.552 -10.029,-23.972"/></g></g></g></g><g id="g172"><g id="g174" clip-path="url(#clipPath176)"><g id="g180"><g id="g182"><path id="path192" fill="url(#linearGradient184)" stroke="none" d="m 105.67,63.532 c 0.016,-0.032 0.04,-0.06 0.054,-0.094 l 0,0 -0.048,0.114 -0.006,-0.02 z"/></g></g></g></g><g id="g194"><g id="g196" clip-path="url(#clipPath198)"><g id="g202"><g id="g204"><path id="path216" fill="url(#linearGradient206)" stroke="none" d="M 105.798,63.113 C 106.32,60.889 103.639,48.73 99.39,34.314 l 0,0 C 95.083,19.706 90.678,7.921 89.085,6.589 l 0,0 10.068,6.851 c 1.335,0.895 4.265,8.847 7.403,19.494 l 0,0 c 3.141,10.646 4.608,17.625 3.967,19.105 l 0,0 -4.792,11.38 c 0.037,-0.098 0.06,-0.2 0.067,-0.306"/></g></g></g></g><g id="g218"><g id="g220" clip-path="url(#clipPath222)"><g id="g226"><g id="g228"><path id="path238" fill="url(#linearGradient230)" stroke="none" d="m 88.952,6.499 c 0.02,0.012 0.04,0.027 0.059,0.04 l 0,0 -0.059,-0.04 z M 88.932,6.488 C 88.912,6.474 88.889,6.466 88.868,6.453 l 0,0 -0.004,-0.014 0.088,0.06 C 88.945,6.495 88.938,6.491 88.932,6.488"/></g></g></g></g><g id="g240"><g id="g242" clip-path="url(#clipPath244)"><g id="g248"><g id="g250"><path id="path260" fill="url(#linearGradient252)" stroke="none" d="M 89.825,66.491 C 88.231,65.047 83.992,53.727 79.862,39.722 l 0,0 C 75.879,26.212 73.337,14.745 73.661,12.088 l 0,0 c 0.106,-1.999 1.448,-3.806 3.479,-4.405 l 0,0 4.012,-1.183 c 0.985,-0.29 1.997,-0.023 2.709,0.615 l 0,0 c 0.093,0.07 0.194,0.174 0.305,0.313 l 0,0 c 0.001,0 0.001,0.001 0.001,0.001 l 0,0 c 1.84,2.303 6.117,13.841 10.284,27.974 l 0,0 c 4.521,15.334 7.276,28.173 6.398,29.626 l 0,0 c -0.286,0.856 -0.969,1.562 -1.898,1.836 l 0,0 -4.014,1.183 c -0.458,0.135 -0.921,0.2 -1.376,0.2 l 0,0 c -1.45,0 -2.822,-0.655 -3.736,-1.757"/></g></g></g></g><g id="g262"><g id="g264" clip-path="url(#clipPath266)"><g id="g270"><g id="g272"><path id="path284" fill="url(#linearGradient274)" stroke="none" d="M 89.825,66.491 C 88.231,65.047 83.992,53.727 79.862,39.722 l 0,0 C 75.879,26.212 73.337,14.745 73.661,12.088 l 0,0 c 0.106,-1.999 1.448,-3.806 3.479,-4.405 l 0,0 4.012,-1.183 c 0.985,-0.29 1.997,-0.023 2.709,0.615 l 0,0 c 0.093,0.07 0.194,0.174 0.305,0.313 l 0,0 c 0.001,0 0.001,0.001 0.001,0.001 l 0,0 c 1.84,2.303 6.117,13.841 10.284,27.974 l 0,0 c 4.521,15.334 7.276,28.173 6.398,29.626 l 0,0 c -0.286,0.856 -0.969,1.562 -1.898,1.836 l 0,0 -4.014,1.183 c -0.458,0.135 -0.921,0.2 -1.376,0.2 l 0,0 c -1.45,0 -2.822,-0.655 -3.736,-1.757"/></g></g></g></g><g id="g286"><g id="g288" clip-path="url(#clipPath290)"><g id="g294"><g id="g296"><path id="path308" fill="url(#linearGradient298)" stroke="none" d="m 100.849,65.029 c 0.878,-1.453 -1.877,-14.292 -6.398,-29.626 l 0,0 C 90.3,21.321 86.039,9.822 84.19,7.46 l 0,0 3.826,-1.128 c 0.327,-0.097 0.659,-0.026 0.916,0.156 l 0,0 c 1.444,0.63 6.004,12.719 10.458,27.826 l 0,0 c 4.249,14.416 6.93,26.575 6.408,28.799 l 0,0 c -0.028,0.433 -0.317,0.824 -0.759,0.953 l 0,0 -4.339,1.28 c 0.05,-0.105 0.112,-0.206 0.149,-0.317"/></g></g></g></g><g id="g310"><g id="g312" clip-path="url(#clipPath314)"><g id="g318"><g id="g326"><g id="g328" clip-path="url(#clipPath322)" opacity=".5"><g id="g330" transform="translate(97.8506,12.6904)"><path id="path332" fill="none" stroke="#100f0d" stroke-dasharray="none" stroke-linecap="butt" stroke-linejoin="miter" stroke-miterlimit="10" stroke-opacity="1" stroke-width="1" d="m 0,0 c 0,0 0.333,-0.334 1.303,0.531 0.969,0.865 4.264,8.847 7.403,19.494 3.14,10.647 4.607,17.626 3.966,19.105 l -0.52,1.453"/></g></g></g></g><g id="g334"><g id="g342"><g id="g344" clip-path="url(#clipPath338)" opacity=".5"><g id="g346" transform="translate(84.166,7.333)"><path id="path348" fill="none" stroke="#231f20" stroke-dasharray="none" stroke-linecap="butt" stroke-linejoin="miter" stroke-miterlimit="10" stroke-opacity="1" stroke-width="1" d="m 0,0 c 0.001,0 0.001,0.001 0.001,0.001 1.84,2.303 6.117,13.841 10.284,27.975 4.521,15.333 7.276,28.172 6.398,29.626"/></g></g></g></g><g id="g350"><g id="g358"><g id="g360" clip-path="url(#clipPath354)" opacity=".2"><g id="g362" transform="translate(88.3457,6.6914)"><path id="path364" fill="none" stroke="#fff" stroke-dasharray="none" stroke-linecap="butt" stroke-linejoin="miter" stroke-miterlimit="10" stroke-opacity="1" stroke-width="1" d="m 0,0 c 1.443,0.63 6.004,12.72 10.458,27.826 4.25,14.416 6.929,26.575 6.408,28.799"/></g></g></g></g></g></g><g id="g366"><g id="g368" clip-path="url(#clipPath370)"><g id="g374"><g id="g376"><path id="path386" fill="url(#linearGradient378)" stroke="none" d="m 11.271,43.222 0.002,0 c 0.05,-3.194 1.184,-8.423 3.199,-14.111 l 0,0 c 1.62,-4.572 3.49,-8.541 5.18,-11.215 l 0,0 0,0 c 0,0 0.01,-0.016 0.025,-0.037 l 0,0 c 0.277,-0.438 0.55,-0.839 0.815,-1.204 l 0,0 c 0.914,-1.344 2.391,-3.498 3.488,-5.017 l 0,0 c -2.178,3.677 -5.183,10.944 -7.929,19.499 l 0,0 c -2.798,8.722 -4.603,16.52 -4.928,20.743 l 0,0 c 0.068,-3.91 0.148,-8.658 0.148,-8.658"/></g></g></g></g><g id="g388"><g id="g390" clip-path="url(#clipPath392)"><g id="g396"><g id="g398"><path id="path406" fill="url(#linearGradient400)" stroke="none" d="m 15.591,57.182 c -1.676,-0.495 0.149,-12.02 4.076,-25.744 l 0,0 C 23.594,17.713 28.135,6.988 29.811,7.482 l 0,0 c 1.675,0.494 -0.15,12.02 -4.076,25.744 l 0,0 c -3.84,13.42 -8.268,23.972 -10.029,23.972 l 0,0 c -0.04,0 -0.078,-0.006 -0.115,-0.016"/></g></g></g></g><g id="g408"><g id="g410" clip-path="url(#clipPath412)"><g id="g416"><g id="g418"><path id="path428" fill="url(#linearGradient420)" stroke="none" d="m 22.336,63.45 c 0.013,0.028 0.033,0.054 0.048,0.082 l 0,0 -0.006,0.02 -0.042,-0.102 z m -0.005,-0.012 0.005,0.012 c -0.002,-0.004 -0.004,-0.008 -0.005,-0.012"/></g></g></g></g><g id="g430"><g id="g432" clip-path="url(#clipPath434)"><g id="g438"><g id="g440"><path id="path452" fill="url(#linearGradient442)" stroke="none" d="m 17.531,52.039 c -0.641,-1.48 0.827,-8.459 3.966,-19.105 l 0,0 C 24.636,22.287 27.566,14.335 28.901,13.44 l 0,0 10.068,-6.851 C 37.376,7.921 32.971,19.706 28.664,34.314 l 0,0 C 24.413,48.73 21.735,60.889 22.256,63.113 l 0,0 c 0.006,0.106 0.03,0.208 0.067,0.306 l 0,0 -4.792,-11.38 z"/></g></g></g></g><g id="g454"><g id="g456" clip-path="url(#clipPath458)"><g id="g462"><g id="g464"><path id="path474" fill="url(#linearGradient466)" stroke="none" d="m 39.057,6.53 c -0.005,0.003 -0.009,0.006 -0.014,0.009 l 0,0 0.014,-0.009 z M 39.1,6.5 39.057,6.53 C 39.072,6.52 39.086,6.509 39.1,6.5 m 0.09,-0.061 -0.005,0.014 c -0.02,0.013 -0.043,0.021 -0.063,0.035 l 0,0 C 39.115,6.491 39.108,6.495 39.1,6.5 l 0,0 0.09,-0.061 z"/></g></g></g></g><g id="g476"><g id="g478" clip-path="url(#clipPath480)"><g id="g484"><g id="g486"><path id="path496" fill="url(#linearGradient488)" stroke="none" d="m 33.116,68.048 -4.013,-1.183 c -0.929,-0.274 -1.613,-0.98 -1.898,-1.836 l 0,0 c -0.878,-1.453 1.877,-14.292 6.397,-29.626 l 0,0 C 37.77,21.27 42.047,9.732 43.887,7.429 l 0,0 c 10e-4,0 10e-4,-0.001 10e-4,-0.001 l 0,0 C 43.998,7.289 44.1,7.185 44.192,7.115 l 0,0 C 44.905,6.477 45.917,6.21 46.902,6.5 l 0,0 4.013,1.183 c 2.029,0.599 3.372,2.406 3.477,4.405 l 0,0 c 0.324,2.657 -2.217,14.124 -6.201,27.634 l 0,0 C 44.062,53.727 39.823,65.047 38.23,66.491 l 0,0 c -0.916,1.102 -2.287,1.757 -3.737,1.757 l 0,0 c -0.455,0 -0.918,-0.065 -1.377,-0.2"/></g></g></g></g><g id="g498"><g id="g500" clip-path="url(#clipPath502)"><g id="g506"><g id="g508"><path id="path520" fill="url(#linearGradient510)" stroke="none" d="m 33.116,68.048 -4.013,-1.183 c -0.929,-0.274 -1.613,-0.98 -1.898,-1.836 l 0,0 c -0.878,-1.453 1.877,-14.292 6.397,-29.626 l 0,0 C 37.77,21.27 42.047,9.732 43.887,7.429 l 0,0 c 10e-4,0 10e-4,-0.001 10e-4,-0.001 l 0,0 C 43.998,7.289 44.1,7.185 44.192,7.115 l 0,0 C 44.905,6.477 45.917,6.21 46.902,6.5 l 0,0 4.013,1.183 c 2.029,0.599 3.372,2.406 3.477,4.405 l 0,0 c 0.324,2.657 -2.217,14.124 -6.201,27.634 l 0,0 C 44.062,53.727 39.823,65.047 38.23,66.491 l 0,0 c -0.916,1.102 -2.287,1.757 -3.737,1.757 l 0,0 c -0.455,0 -0.918,-0.065 -1.377,-0.2"/></g></g></g></g><g id="g522"><g id="g524" clip-path="url(#clipPath526)"><g id="g530"><g id="g532"><path id="path544" fill="url(#linearGradient534)" stroke="none" d="m 23.015,64.066 c -0.441,-0.129 -0.731,-0.52 -0.759,-0.953 l 0,0 C 21.735,60.889 24.413,48.73 28.664,34.314 l 0,0 C 33.118,19.207 37.678,7.118 39.122,6.488 l 0,0 c 0.258,-0.182 0.59,-0.253 0.914,-0.156 l 0,0 3.829,1.128 c -1.85,2.362 -6.111,13.861 -10.263,27.943 l 0,0 c -4.52,15.334 -7.275,28.173 -6.397,29.626 l 0,0 c 0.037,0.111 0.098,0.212 0.149,0.317 l 0,0 -4.339,-1.28 z"/></g></g></g></g><g id="g546"><g id="g548" clip-path="url(#clipPath550)"><g id="g554"><g id="g562"><g id="g564" clip-path="url(#clipPath558)" opacity=".5"><g id="g566" transform="translate(30.2036,12.6904)"><path id="path568" fill="none" stroke="#100f0d" stroke-dasharray="none" stroke-linecap="butt" stroke-linejoin="miter" stroke-miterlimit="10" stroke-opacity="1" stroke-width="1" d="m 0,0 c 0,0 -0.333,-0.334 -1.303,0.531 -0.969,0.865 -4.265,8.847 -7.404,19.494 -3.139,10.647 -4.606,17.626 -3.965,19.105 l 0.519,1.453"/></g></g></g></g><g id="g570"><g id="g578"><g id="g580" clip-path="url(#clipPath574)" opacity=".5"><g id="g582" transform="translate(43.8877,7.333)"><path id="path584" fill="none" stroke="#231f20" stroke-dasharray="none" stroke-linecap="butt" stroke-linejoin="miter" stroke-miterlimit="10" stroke-opacity="1" stroke-width="1" d="m 0,0 c 0,0 0,0.001 -0.001,0.001 -1.839,2.303 -6.117,13.841 -10.284,27.975 -4.521,15.333 -7.276,28.172 -6.398,29.626"/></g></g></g></g><g id="g586"><g id="g594"><g id="g596" clip-path="url(#clipPath590)" opacity=".2"><g id="g598" transform="translate(39.7085,6.6914)"><path id="path600" fill="none" stroke="#fff" stroke-dasharray="none" stroke-linecap="butt" stroke-linejoin="miter" stroke-miterlimit="10" stroke-opacity="1" stroke-width="1" d="m 0,0 c -1.444,0.63 -6.004,12.72 -10.458,27.826 -4.25,14.416 -6.929,26.575 -6.408,28.799"/></g></g></g></g><g id="g602"><g id="g614"><g id="g616" clip-path="url(#clipPath606)"><g id="g618"><g id="g622"><g id="g624" clip-path="url(#clipPath610)" opacity=".5"><g id="g626" transform="translate(117.7705,72.4106)"><path id="path628" fill="none" stroke="#231f20" stroke-dasharray="none" stroke-linecap="butt" stroke-linejoin="miter" stroke-miterlimit="10" stroke-opacity="1" stroke-width="1" d="m 0,0 c 0,29.696 -24.074,53.77 -53.771,53.77 -29.696,0 -53.77,-24.074 -53.77,-53.77 0,-2.638 0.194,-5.23 0.562,-7.766 0.32,-4.144 0.26,-8.645 0.324,-12.338 0.069,-3.981 0.155,-9.085 0.155,-9.085 l 0.002,0 c 0.05,-3.193 1.184,-8.422 3.2,-14.11 1.619,-4.573 3.49,-8.541 5.18,-11.215 l -0.001,-10e-4 c 0,0 0.011,-0.016 0.025,-0.037 0.278,-0.438 0.55,-0.839 0.816,-1.203 1.145,-1.684 3.174,-4.64 4.23,-6.025 0.128,-0.174 0.251,-0.331 0.37,-0.47 1.11,-1.329 1.871,-2.004 2.902,-2.566 1.03,-0.56 1.817,-0.113 1.817,-0.113 0.649,0.191 0.772,2.041 0.452,5.031 l 8.924,-6.065 c 0.247,-0.151 0.55,-0.204 0.849,-0.116 l 3.826,1.128 c 0.008,-0.009 0.016,-0.021 0.024,-0.031 0,0 0.001,-0.001 0.001,-0.001 0.111,-0.139 0.212,-0.243 0.304,-0.313 0.713,-0.637 1.726,-0.905 2.71,-0.615 l 4.013,1.184 c 2.03,0.599 3.373,2.405 3.478,4.404 0.324,2.657 -2.218,14.124 -6.201,27.635 -4.129,14.005 -8.368,25.324 -9.962,26.768 -1.202,1.448 -3.193,2.124 -5.113,1.558 l -4.013,-1.184 c -0.815,-0.24 -1.44,-0.812 -1.775,-1.526 l -4.314,-1.272 c -0.286,-0.084 -0.506,-0.278 -0.635,-0.521 l -4.086,-9.696 c -0.042,0.083 -0.085,0.167 -0.127,0.247 l 0,0.001 -0.357,0.991 c -1.085,4 -1.667,8.207 -1.667,12.55 0,7.387 1.677,14.382 4.666,20.629 1.269,0.086 2.449,0.824 3.189,2.048 8.877,14.686 23.48,23.28 40.002,23.28 16.523,0 31.125,-8.594 40.002,-23.28 0.741,-1.224 1.921,-1.962 3.19,-2.048 2.989,-6.247 4.666,-13.242 4.666,-20.629 0,-4.584 -0.648,-9.016 -1.853,-13.213 l -0.118,-0.328 0,-0.001 c -0.042,-0.08 -0.084,-0.164 -0.126,-0.247 l -4.087,9.696 c -0.129,0.243 -0.348,0.437 -0.634,0.521 l -4.315,1.272 c -0.334,0.714 -0.959,1.286 -1.774,1.526 l -4.013,1.184 c -1.92,0.566 -3.911,-0.11 -5.113,-1.558 -1.594,-1.444 -5.833,-12.763 -9.962,-26.768 -3.984,-13.511 -6.526,-24.978 -6.201,-27.635 0.105,-1.999 1.448,-3.805 3.478,-4.404 l 4.013,-1.184 c 0.984,-0.29 1.997,-0.022 2.709,0.615 0.093,0.07 0.194,0.174 0.305,0.313 0,0 0,0.001 0,0.001 0.008,0.01 0.017,0.022 0.025,0.031 l 3.825,-1.128 c 0.299,-0.088 0.604,-0.035 0.85,0.116 l 8.925,6.065 c -0.321,-2.99 -0.198,-4.84 0.452,-5.031 0,0 0.786,-0.447 1.816,0.113 1.031,0.562 1.792,1.237 2.901,2.566 0.12,0.139 0.244,0.296 0.372,0.47 1.055,1.385 3.084,4.341 4.229,6.025 0.266,0.364 0.538,0.765 0.815,1.203 0.015,0.021 0.026,0.037 0.026,0.037 l -10e-4,10e-4 c 1.69,2.674 3.56,6.642 5.181,11.215 2.014,5.688 3.148,10.917 3.199,14.11 l 0.001,0 c 0,0 0.087,5.104 0.156,9.085 0.069,3.981 -0.008,8.9 0.405,13.3 0,0.001 -0.001,0.002 -0.001,0.003 C -0.146,-4.574 0,-2.304 0,0 Z"/></g></g></g></g></g></g></g><g id="g630"><g id="g674"><g id="g676" clip-path="url(#clipPath634)" opacity=".2"><g id="g678"><g id="g680" clip-path="url(#clipPath638)"><g id="g682"><g id="g686" mask="url(#mask654)"><g id="g688"><path id="path690" fill="url(#radialGradient666)" stroke="none" d="m 62.128,5.709 c 0,-2.456 -8.827,-4.447 -19.716,-4.447 -10.89,0 -19.718,1.991 -19.718,4.447 0,2.457 8.828,4.448 19.718,4.448 10.889,0 19.716,-1.991 19.716,-4.448"/></g></g></g></g></g></g></g></g><g id="g692"><g id="g736"><g id="g738" clip-path="url(#clipPath696)" opacity=".2"><g id="g740"><g id="g742" clip-path="url(#clipPath700)"><g id="g744"><g id="g748" mask="url(#mask716)"><g id="g750"><path id="path752" fill="url(#radialGradient728)" stroke="none" d="m 105.942,5.709 c 0,-2.456 -8.827,-4.447 -19.716,-4.447 -10.89,0 -19.717,1.991 -19.717,4.447 0,2.457 8.827,4.448 19.717,4.448 10.889,0 19.716,-1.991 19.716,-4.448"/></g></g></g></g></g></g></g></g></g></g></g></svg>