<svg xmlns="http://www.w3.org/2000/svg" xmlns:svg="http://www.w3.org/2000/svg" xmlns:xlink="http://www.w3.org/1999/xlink" id="svg4379" width="128" height="128" version="1.1"><defs id="defs4381"><linearGradient id="linearGradient3688-166-749-5"><stop id="stop2883-0" offset="0" stop-color="#181818" stop-opacity="1"/><stop id="stop2885-5" offset="1" stop-color="#181818" stop-opacity="0"/></linearGradient><linearGradient id="linearGradient4781"><stop id="stop4777" offset="0" stop-color="#fff" stop-opacity="1"/><stop id="stop4779" offset="1" stop-color="#fff" stop-opacity="0"/></linearGradient><linearGradient id="linearGradient4718"><stop id="stop4720" offset="0" stop-color="#fdecc4" stop-opacity="1"/><stop id="stop1140" offset=".603" stop-color="#e89843" stop-opacity="1"/><stop id="stop4722" offset="1" stop-color="#b45c15" stop-opacity="1"/></linearGradient><linearGradient id="linearGradient5428-8"><stop id="stop5426-7" offset="0" stop-color="#2f2f2f" stop-opacity="1"/><stop id="stop5424-9" offset="1" stop-color="#3f3f3f" stop-opacity="1"/></linearGradient><linearGradient id="linearGradient3820-7-2-8-6"><stop id="stop3822-2-6-5-0" offset="0" stop-color="#3d3d3d" stop-opacity="1"/><stop id="stop3864-8-7-4-1" offset=".5" stop-color="#686868" stop-opacity=".498"/><stop id="stop3824-1-2-6-7" offset="1" stop-color="#686868" stop-opacity="0"/></linearGradient><radialGradient id="radialGradient3163-3" cx="99.157" cy="186.171" r="62.769" fx="99.157" fy="186.171" gradientTransform="matrix(0.6869404,0,0,0.21461693,267.88504,160.56753)" gradientUnits="userSpaceOnUse" xlink:href="#linearGradient3820-7-2-8-6"/><linearGradient id="linearGradient5451" x1="288" x2="384" y1="111" y2="208" gradientTransform="translate(0,-3)" gradientUnits="userSpaceOnUse" xlink:href="#linearGradient4365-7"/><linearGradient id="linearGradient4365-7"><stop id="stop4367-5" offset="0" stop-color="#fff" stop-opacity="1"/><stop id="stop904" offset=".129" stop-color="#e4e4e4" stop-opacity="1"/><stop id="stop4373-3" offset=".532" stop-color="#e7e7e7" stop-opacity="1"/><stop id="stop4369-5" offset="1" stop-color="#acacac" stop-opacity="1"/></linearGradient><linearGradient id="linearGradient5443" x1="284" x2="388" y1="160" y2="160" gradientTransform="rotate(90,337.5,158.5)" gradientUnits="userSpaceOnUse" xlink:href="#linearGradient4011"/><linearGradient id="linearGradient4011"><stop id="stop4013" offset="0" stop-color="#fff" stop-opacity="1"/><stop id="stop4015" offset=".508" stop-color="#fff" stop-opacity=".235"/><stop id="stop4017" offset=".835" stop-color="#fff" stop-opacity=".157"/><stop id="stop4019" offset="1" stop-color="#fff" stop-opacity=".392"/></linearGradient><linearGradient id="linearGradient1144-2-6" x1="8" x2="40" y1="25" y2="25" gradientTransform="matrix(0,-0.93548402,-0.93548378,0,359.38709,179.45162)" gradientUnits="userSpaceOnUse" xlink:href="#linearGradient4781"/><linearGradient id="linearGradient5430-1-7" x1="7" x2="25" y1="16" y2="16" gradientTransform="matrix(0,4.8235297,-4.8235297,0,413.17647,79.823515)" gradientUnits="userSpaceOnUse" xlink:href="#linearGradient5428-8"/><linearGradient id="linearGradient4608-3-5" x1="8" x2="40" y1="25" y2="25" gradientTransform="matrix(0,-2.8709679,-2.870967,0,407.77417,225.90323)" gradientUnits="userSpaceOnUse" xlink:href="#linearGradient4781"/><linearGradient id="linearGradient4582-7" x1="8" x2="40" y1="25" y2="25" gradientTransform="matrix(0,-2.806452,-2.8064511,0,406.16127,224.35484)" gradientUnits="userSpaceOnUse" xlink:href="#linearGradient3688-166-749-5"/><linearGradient id="linearGradient4604-2" x1="8" x2="40" y1="25" y2="25" gradientTransform="matrix(0,2.1612907,-2.16129,0,390.03224,105.12901)" gradientUnits="userSpaceOnUse" xlink:href="#linearGradient3688-166-749-5"/><radialGradient id="radialGradient4652-3-3" cx="16" cy="21.54" r="12" fx="16" fy="21.54" gradientTransform="matrix(3.8957939,-2.2012013e-7,2.2011898e-7,3.8958134,273.66769,90.083234)" gradientUnits="userSpaceOnUse" xlink:href="#linearGradient4718"/><radialGradient id="radialGradient1134-6-2" cx="19.931" cy="-66.915" r="3.261" fx="19.931" fy="-66.915" gradientTransform="matrix(4.6030427,0,0,4.5997629,63.256268,-28.205702)" gradientUnits="userSpaceOnUse" xlink:href="#linearGradient4417"/><linearGradient id="linearGradient4417"><stop id="stop4419" offset="0" stop-color="#6e3003" stop-opacity="1"/><stop id="stop4425" offset=".607" stop-color="#a54805" stop-opacity="1"/><stop id="stop4421" offset="1" stop-color="#6e3003" stop-opacity="0"/></linearGradient><radialGradient id="radialGradient5502" cx="48.906" cy="10.333" r="3" fx="48.906" fy="10.333" gradientTransform="matrix(-5.3718087e-7,6.3333345,-6.5354415,-5.5584379e-7,403.53087,-157.73512)" gradientUnits="userSpaceOnUse" xlink:href="#linearGradient4283-3"/><linearGradient id="linearGradient4283-3"><stop id="stop4285-6" offset="0" stop-color="#6d6d6d" stop-opacity="1"/><stop id="stop5511" offset=".852" stop-color="#272727" stop-opacity="1"/><stop id="stop4287-0" offset="1" stop-color="#000" stop-opacity="1"/></linearGradient><linearGradient id="linearGradient5504" x1="71.204" x2="71.204" y1="22.129" y2="28.509" gradientTransform="matrix(3.5414727,0,0,3.5414728,81.957755,67.197993)" gradientUnits="userSpaceOnUse" xlink:href="#linearGradient4011"/><radialGradient id="radialGradient1000-0" cx="32" cy="31" r="3" fx="32" fy="31" gradientTransform="matrix(2.3333334,0,0,2.3333334,261.33333,79.666675)" gradientUnits="userSpaceOnUse" xlink:href="#linearGradient4781"/></defs><metadata id="metadata4384"/><g id="g6214" display="inline" transform="translate(-272,-91.999995)"><path id="path3818-0-5-0" fill="url(#radialGradient3163-3)" fill-opacity="1" stroke="none" d="m 379.11864,200.52288 a 43.118644,13.471312 0 1 1 -86.23728,0 43.118644,13.471312 0 1 1 86.23728,0 z"/><path id="path5416" fill="url(#linearGradient5451)" fill-opacity="1" stroke="#000" stroke-dasharray="none" stroke-dashoffset="0" stroke-linecap="butt" stroke-linejoin="round" stroke-miterlimit="4" stroke-opacity=".498" stroke-width="1" d="M 336,104.5 A 52.5,52.5 0 0 0 303.76562,115.58789 6.5,6.5 0 0 0 299,113.5 a 6.5,6.5 0 0 0 -6.5,6.5 6.5,6.5 0 0 0 2.11914,4.79102 A 52.5,52.5 0 0 0 283.5,157 52.5,52.5 0 0 0 294.58984,189.23633 6.5,6.5 0 0 0 292.5,194 a 6.5,6.5 0 0 0 6.5,6.5 6.5,6.5 0 0 0 4.79297,-2.11914 A 52.5,52.5 0 0 0 336,209.5 52.5,52.5 0 0 0 368.23438,198.41211 6.5,6.5 0 0 0 373,200.5 6.5,6.5 0 0 0 379.5,194 6.5,6.5 0 0 0 377.38086,189.20898 52.5,52.5 0 0 0 388.5,157 52.5,52.5 0 0 0 377.41016,124.76367 6.5,6.5 0 0 0 379.5,120 6.5,6.5 0 0 0 373,113.5 6.5,6.5 0 0 0 368.20703,115.61914 52.5,52.5 0 0 0 336,104.5 Z" opacity="1"/><path id="circle5425" fill="none" fill-opacity="1" stroke="url(#linearGradient5443)" stroke-dasharray="none" stroke-dashoffset="0" stroke-linecap="butt" stroke-linejoin="round" stroke-miterlimit="4" stroke-opacity=".498" stroke-width="1" d="M 387.5,157 A 51.5,51.5 0 0 0 376.00586,124.60352 5.5,5.5 0 0 0 378.5,120 5.5,5.5 0 0 0 373,114.5 5.5,5.5 0 0 0 368.38867,117.01172 51.5,51.5 0 0 0 336,105.5 51.5,51.5 0 0 0 303.60352,116.99414 5.5,5.5 0 0 0 299,114.5 a 5.5,5.5 0 0 0 -5.5,5.5 5.5,5.5 0 0 0 2.51172,4.61133 A 51.5,51.5 0 0 0 284.5,157 51.5,51.5 0 0 0 295.99414,189.39648 5.5,5.5 0 0 0 293.5,194 a 5.5,5.5 0 0 0 5.5,5.5 5.5,5.5 0 0 0 4.61133,-2.51172 A 51.5,51.5 0 0 0 336,208.5 51.5,51.5 0 0 0 368.39648,197.00586 5.5,5.5 0 0 0 373,199.5 5.5,5.5 0 0 0 378.5,194 5.5,5.5 0 0 0 375.98828,189.38867 51.5,51.5 0 0 0 387.5,157 Z" opacity="1"/><path id="path1142-2" fill="none" stroke="url(#linearGradient1144-2-6)" stroke-dasharray="none" stroke-miterlimit="4" stroke-opacity="1" stroke-width="1" d="m 336,142.5 c -8.00098,0 -14.5,6.49969 -14.5,14.49998 0,8.00095 6.49972,14.50002 14.5,14.50002 8.00095,0 14.5,-6.49971 14.5,-14.50002 C 350.5,148.99901 344.00028,142.5 336,142.5 Z" color="#000" display="inline" enable-background="accumulate" opacity=".2" overflow="visible" visibility="visible" style="marker:none"/><path id="path2555-36-4-2-1-9" fill="url(#linearGradient5430-1-7)" fill-opacity="1" fill-rule="nonzero" stroke="none" stroke-dasharray="none" stroke-dashoffset="0" stroke-linecap="butt" stroke-linejoin="miter" stroke-miterlimit="4" stroke-opacity="1" stroke-width="6" d="m 336,201 c -24.24629,0 -44,-19.75191 -44,-44 0,-24.2462 19.75189,-44 44,-44 24.2462,0 44,19.75182 44,44 0,24.24621 -19.75186,44 -44,44 z" baseline-shift="baseline" clip-rule="nonzero" color="#000" color-interpolation="sRGB" color-interpolation-filters="linearRGB" color-rendering="auto" direction="ltr" display="inline" dominant-baseline="auto" enable-background="accumulate" font-family="sans-serif" font-size="medium" font-stretch="normal" font-style="normal" font-variant="normal" font-weight="normal" image-rendering="auto" letter-spacing="normal" opacity="1" overflow="visible" shape-rendering="auto" text-anchor="start" text-decoration="none" text-rendering="auto" vector-effect="none" visibility="visible" word-spacing="normal" writing-mode="lr-tb" style="line-height:normal;font-variant-ligatures:normal;font-variant-position:normal;font-variant-caps:normal;font-variant-numeric:normal;font-variant-alternates:normal;font-feature-settings:normal;text-indent:0;text-align:start;text-decoration-line:none;text-decoration-style:solid;text-decoration-color:#000;text-transform:none;text-orientation:mixed;white-space:normal;shape-padding:0;isolation:auto;mix-blend-mode:normal;solid-color:#000;solid-opacity:1;marker:none"/><path id="path4606-1-6" fill="none" stroke="url(#linearGradient4608-3-5)" stroke-dasharray="none" stroke-miterlimit="4" stroke-opacity="1" stroke-width="1" d="m 336,112.5 c -24.55472,0 -44.5,19.94733 -44.5,44.49995 0,24.55462 19.94742,44.50005 44.5,44.50005 24.55464,0 44.5,-19.94735 44.5,-44.50005 C 380.5,132.44526 360.55259,112.5 336,112.5 Z" color="#000" display="inline" enable-background="accumulate" opacity=".5" overflow="visible" visibility="visible" style="marker:none"/><path id="path4580-1" fill="none" stroke="url(#linearGradient4582-7)" stroke-dasharray="none" stroke-miterlimit="4" stroke-opacity="1" stroke-width="1" d="m 336,113.5 c -24.00293,0 -43.5,19.49908 -43.5,43.49996 0,24.00283 19.49916,43.50004 43.5,43.50004 24.00286,0 43.5,-19.4991 43.5,-43.50004 C 379.5,132.99705 360.00085,113.5 336,113.5 Z" color="#000" display="inline" enable-background="accumulate" opacity=".2" overflow="visible" visibility="visible" style="marker:none"/><path id="path4602-0" fill="none" stroke="url(#linearGradient4604-2)" stroke-dasharray="none" stroke-miterlimit="4" stroke-opacity="1" stroke-width="1" d="m 336,190.5 c -18.48501,0 -33.5,-15.01654 -33.5,-33.49997 0,-18.48494 15.0166,-33.50003 33.5,-33.50003 18.48496,0 33.5,15.01654 33.5,33.50003 C 369.5,175.48502 354.48342,190.5 336,190.5 Z" color="#000" display="inline" enable-background="accumulate" opacity=".2" overflow="visible" visibility="visible" style="marker:none"/><path id="path2555-36-4-4-2" fill="url(#radialGradient4652-3-3)" fill-opacity="1" fill-rule="nonzero" stroke="none" stroke-width="1" d="M 336.00004,124 C 317.79089,124 303,138.79249 303,157 c 0,18.20907 14.79251,33 33.00004,33 C 354.20906,190 369,175.20749 369,157 c 0,-18.20911 -14.79251,-33 -32.99996,-33 z" color="#000" display="inline" enable-background="accumulate" overflow="visible" visibility="visible" style="marker:none"/><ellipse id="ellipse1124-8" cx="155" cy="-336" fill="url(#radialGradient1134-6-2)" fill-opacity="1" stroke="none" stroke-dasharray="none" stroke-dashoffset="0" stroke-linecap="round" stroke-linejoin="round" stroke-miterlimit="4" stroke-width="1" opacity=".5" rx="15.011" ry="15" transform="rotate(90)"/><g id="g5469" transform="translate(0,-3)"><ellipse id="ellipse4747" cx="-373" cy="123.018" fill="#000" fill-opacity=".117" stroke="none" stroke-dasharray="none" stroke-dashoffset="0" stroke-linecap="butt" stroke-linejoin="round" stroke-miterlimit="4" stroke-opacity="1" stroke-width="2" opacity="1" rx="2" ry="1.982" transform="scale(-1,1)"/><path id="path4749" fill="none" fill-rule="evenodd" stroke="#000" stroke-dasharray="none" stroke-linecap="square" stroke-linejoin="miter" stroke-miterlimit="4" stroke-opacity="1" stroke-width=".5" d="m 374.25,121.77997 -2.5,2.47695" opacity=".2"/></g><g id="g5475" transform="matrix(-1,0,0,1,672,-3)"><ellipse id="ellipse5471" cx="-373" cy="123.018" fill="#000" fill-opacity=".117" stroke="none" stroke-dasharray="none" stroke-dashoffset="0" stroke-linecap="butt" stroke-linejoin="round" stroke-miterlimit="4" stroke-opacity="1" stroke-width="2" opacity="1" rx="2" ry="1.982" transform="scale(-1,1)"/><path id="path5473" fill="none" fill-rule="evenodd" stroke="#000" stroke-dasharray="none" stroke-linecap="square" stroke-linejoin="miter" stroke-miterlimit="4" stroke-opacity="1" stroke-width=".5" d="m 374.25,121.77997 -2.5,2.47695" opacity=".2"/></g><g id="g5481" transform="rotate(-180,336,158.51845)"><ellipse id="ellipse5477" cx="-373" cy="123.018" fill="#000" fill-opacity=".117" stroke="none" stroke-dasharray="none" stroke-dashoffset="0" stroke-linecap="butt" stroke-linejoin="round" stroke-miterlimit="4" stroke-opacity="1" stroke-width="2" opacity="1" rx="2" ry="1.982" transform="scale(-1,1)"/><path id="path5479" fill="none" fill-rule="evenodd" stroke="#000" stroke-dasharray="none" stroke-linecap="square" stroke-linejoin="miter" stroke-miterlimit="4" stroke-opacity="1" stroke-width=".5" d="m 374.25,121.77997 -2.5,2.47695" opacity=".2"/></g><g id="g5487" transform="matrix(1,0,0,-1,0,317.0369)"><ellipse id="ellipse5483" cx="-373" cy="123.018" fill="#000" fill-opacity=".117" stroke="none" stroke-dasharray="none" stroke-dashoffset="0" stroke-linecap="butt" stroke-linejoin="round" stroke-miterlimit="4" stroke-opacity="1" stroke-width="2" opacity="1" rx="2" ry="1.982" transform="scale(-1,1)"/><path id="path5485" fill="none" fill-rule="evenodd" stroke="#000" stroke-dasharray="none" stroke-linecap="square" stroke-linejoin="miter" stroke-miterlimit="4" stroke-opacity="1" stroke-width=".5" d="m 374.25,121.77997 -2.5,2.47695" opacity=".2"/></g><circle id="circle5494" cx="336" cy="157" r="13.5" fill="url(#radialGradient5502)" fill-opacity="1" stroke="#2b2522" stroke-dasharray="none" stroke-dashoffset="0" stroke-linecap="round" stroke-linejoin="round" stroke-miterlimit="4" stroke-opacity=".546" stroke-width="1" opacity="1"/><circle id="circle5496" cx="336" cy="157" r="12.5" fill="none" fill-opacity="1" fill-rule="nonzero" stroke="url(#linearGradient5504)" stroke-dasharray="none" stroke-dashoffset="0" stroke-linecap="round" stroke-linejoin="round" stroke-miterlimit="4" stroke-opacity="1" stroke-width="1" clip-rule="nonzero" color="#000" color-interpolation="sRGB" color-interpolation-filters="linearRGB" color-rendering="auto" display="inline" enable-background="accumulate" image-rendering="auto" opacity=".1" overflow="visible" shape-rendering="auto" text-rendering="auto" visibility="visible" style="isolation:auto;mix-blend-mode:normal;solid-color:#000;solid-opacity:1;marker:none"/><circle id="circle5536" cx="336" cy="152" r="7" fill="url(#radialGradient1000-0)" fill-opacity="1" stroke="none" stroke-dasharray="none" stroke-dashoffset="0" stroke-linecap="round" stroke-linejoin="round" stroke-miterlimit="4" stroke-opacity=".498" stroke-width="2" display="inline" enable-background="new" opacity=".4"/></g></svg>