<svg xmlns="http://www.w3.org/2000/svg" xmlns:svg="http://www.w3.org/2000/svg" xmlns:xlink="http://www.w3.org/1999/xlink" id="svg3486" width="128" height="128" version="1.0"><metadata id="metadata83"/><defs id="defs3488"><linearGradient id="linearGradient5048"><stop id="stop5050" offset="0" stop-color="#000" stop-opacity="0"/><stop id="stop5056" offset=".5" stop-color="#000" stop-opacity="1"/><stop id="stop5052" offset="1" stop-color="#000" stop-opacity="0"/></linearGradient><linearGradient id="linearGradient2624" x1="302.857" x2="302.857" y1="366.648" y2="609.505" gradientTransform="matrix(0.2086243,0,0,0.05625201,-11.402788,87.091152)" gradientUnits="userSpaceOnUse" xlink:href="#linearGradient5048"/><radialGradient id="radialGradient2621" cx="605.714" cy="486.648" r="117.143" fx="605.714" fy="486.648" gradientTransform="matrix(0.122534,0,0,0.05625201,40.472356,87.091152)" gradientUnits="userSpaceOnUse" xlink:href="#linearGradient5060"/><radialGradient id="radialGradient2618" cx="605.714" cy="486.648" r="117.143" fx="605.714" fy="486.648" gradientTransform="matrix(-0.122534,0,0,0.05625201,87.527672,87.091152)" gradientUnits="userSpaceOnUse" xlink:href="#linearGradient5060"/><linearGradient id="linearGradient2215"><stop id="stop2223" offset="0" stop-color="#7a7a7a" stop-opacity="1"/><stop id="stop2219" offset="1" stop-color="#474747" stop-opacity="1"/></linearGradient><linearGradient id="linearGradient2714" x1="29.938" x2="30" y1="41" y2="50" gradientTransform="matrix(2.7797939,0,0,2.0106954,-16.614014,15.013338)" gradientUnits="userSpaceOnUse" xlink:href="#linearGradient2215"/><linearGradient id="linearGradient3484"><stop id="stop3486" offset="0" stop-color="#969696" stop-opacity="1"/><stop id="stop3488" offset="1" stop-color="#b4b4b4" stop-opacity="1"/></linearGradient><linearGradient id="linearGradient2710" x1="17.814" x2="18.073" y1="29.797" y2="10" gradientTransform="matrix(2.7717117,0,0,2.8041475,-2.5210903,-6.9397837)" gradientUnits="userSpaceOnUse" xlink:href="#linearGradient3484"/><linearGradient id="linearGradient7056"><stop id="stop7064" offset="0" stop-color="#e6e6e6" stop-opacity="1"/><stop id="stop7060" offset="1" stop-color="#c8c8c8" stop-opacity="1"/></linearGradient><radialGradient id="radialGradient2708" cx="11.734" cy="8.49" r="23.048" fx="11.734" fy="8.49" gradientTransform="matrix(3.8158369,1.9550356,-1.297462,2.5920017,-2.657338,-12.37557)" gradientUnits="userSpaceOnUse" xlink:href="#linearGradient7056"/><radialGradient id="radialGradient2704" cx="141.747" cy="206.426" r="78.728" fx="141.747" fy="206.426" gradientTransform="matrix(0.9720948,-0.0142358,0.00719451,0.8190959,-77.067288,-77.616391)" gradientUnits="userSpaceOnUse" xlink:href="#linearGradient4035"/><linearGradient id="linearGradient7609"><stop id="stop7611" offset="0" stop-color="#fff" stop-opacity="1"/><stop id="stop7677" offset=".47" stop-color="#e7e7e7" stop-opacity="1"/><stop id="stop7613" offset=".672" stop-color="#8c8c8c" stop-opacity="1"/><stop id="stop7617" offset=".835" stop-color="#ddd" stop-opacity="1"/><stop id="stop7615" offset="1" stop-color="#a8a8a8" stop-opacity="1"/></linearGradient><radialGradient id="radialGradient2701" cx="142.622" cy="191.854" r="78.728" fx="142.622" fy="191.854" gradientTransform="matrix(0.4932064,0,0,-0.3486482,-8.2964585,119.46245)" gradientUnits="userSpaceOnUse" xlink:href="#linearGradient7609"/><radialGradient id="radialGradient2697" cx="113.065" cy="97.588" r="2.563" fx="113.667" fy="98" gradientTransform="matrix(-1.0068548,0,0,0.9756095,124.84131,-3.2068583)" gradientUnits="userSpaceOnUse" xlink:href="#radialGradient4241"/><radialGradient id="radialGradient2693" cx="113.065" cy="97.588" r="2.563" fx="113.667" fy="98" gradientTransform="matrix(0.7477745,-0.1585924,0.084228,0.6299819,-68.769481,-18.546726)" gradientUnits="userSpaceOnUse" xlink:href="#radialGradient4241"/><radialGradient id="radialGradient2689" cx="113.065" cy="97.588" r="2.563" fx="113.667" fy="98" gradientTransform="matrix(0.7564903,0.1411284,-0.07792703,0.6130007,24.07117,-50.778011)" gradientUnits="userSpaceOnUse" xlink:href="#radialGradient4241"/><linearGradient id="linearGradient5060"><stop id="stop5062" offset="0" stop-color="#000" stop-opacity="1"/><stop id="stop5064" offset="1" stop-color="#000" stop-opacity="0"/></linearGradient><linearGradient id="linearGradient2686" x1="7.063" x2="24.688" y1="35.281" y2="35.281" gradientTransform="matrix(2.8154099,0,0,2.6966282,0.4945617,11.359533)" gradientUnits="userSpaceOnUse" xlink:href="#linearGradient5060"/><linearGradient id="linearGradient4236"><stop id="stop4238" offset="0" stop-color="#eee" stop-opacity="1"/><stop id="stop4240" offset="1" stop-color="#eee" stop-opacity="0"/></linearGradient><linearGradient id="linearGradient2683" x1="12.277" x2="12.222" y1="37.206" y2="33.759" gradientTransform="matrix(2.7758664,0,0,2.9914128,-1.725507,4.105388)" gradientUnits="userSpaceOnUse" xlink:href="#linearGradient4236"/><linearGradient id="linearGradient4035"><stop id="stop4037" offset="0" stop-color="#f5f5f5" stop-opacity="1"/><stop id="stop4039" offset=".47" stop-color="#e7e7e7" stop-opacity="1"/><stop id="stop4041" offset=".693" stop-color="#8c8c8c" stop-opacity="1"/><stop id="stop4043" offset=".835" stop-color="#ddd" stop-opacity="1"/><stop id="stop4045" offset="1" stop-color="#a8a8a8" stop-opacity="1"/></linearGradient><radialGradient id="radialGradient2680" cx="127.317" cy="143.828" r="78.728" fx="127.317" fy="143.828" gradientTransform="matrix(0.5208152,-0.07516752,0.01692892,0.3022039,-21.928264,5.2860233)" gradientUnits="userSpaceOnUse" xlink:href="#linearGradient4035"/><radialGradient id="radialGradient4241" cx="113.065" cy="97.588" r="2.563" fx="113.667" fy="98" gradientUnits="userSpaceOnUse"><stop id="stop4243" offset="0" stop-color="#eee" stop-opacity="1"/><stop id="stop4245" offset=".16" stop-color="#cecece" stop-opacity="1"/><stop id="stop4247" offset=".468" stop-color="#888" stop-opacity="1"/><stop id="stop4249" offset="1" stop-color="#555" stop-opacity="1"/></radialGradient><radialGradient id="radialGradient2676" cx="113.065" cy="97.588" r="2.563" fx="113.667" fy="98" gradientTransform="matrix(1.0068545,0,0,0.9756095,3.158733,-3.2068583)" gradientUnits="userSpaceOnUse" xlink:href="#radialGradient4241"/><linearGradient id="linearGradient6310-8"><stop id="stop6312-6" offset="0" stop-color="#fff" stop-opacity="1"/><stop id="stop6314-6" offset="1" stop-color="#fff" stop-opacity="0"/></linearGradient><radialGradient id="radialGradient2673" cx="24" cy="42" r="21" fx="24" fy="42" gradientTransform="matrix(2.8095237,-3.195635e-8,7.8140219e-8,1.0714284,-3.428568,61.499973)" gradientUnits="userSpaceOnUse" xlink:href="#linearGradient6310-8"/><linearGradient id="linearGradient2714-3" x1="29.938" x2="30" y1="41" y2="50" gradientTransform="matrix(2.7797939,0,0,2.0106954,-16.614014,15.013338)" gradientUnits="userSpaceOnUse" xlink:href="#linearGradient4236"/><radialGradient id="radialGradient937" cx="64" cy="106.5" r="62.536" fx="64" fy="106.5" gradientTransform="matrix(1,0,0,0.12850201,0,92.814502)" gradientUnits="userSpaceOnUse" xlink:href="#linearGradient4236"/><linearGradient id="linearGradient1139"><stop id="stop1135" offset="0" stop-color="#d1ff82" stop-opacity="1"/><stop id="stop1137" offset="1" stop-color="#9bdb4d" stop-opacity="1"/></linearGradient><linearGradient id="linearGradient1131"><stop id="stop1127" offset="0" stop-color="#ffe16b" stop-opacity="1"/><stop id="stop1133" offset=".513" stop-color="#d39220" stop-opacity="1"/><stop id="stop1129" offset="1" stop-color="#f9c440" stop-opacity="1"/></linearGradient><linearGradient id="linearGradient1101"><stop id="stop1091" offset="0" stop-color="#fff" stop-opacity="1"/><stop id="stop1093" offset=".25" stop-color="#e7e7e7" stop-opacity="1"/><stop id="stop1095" offset=".672" stop-color="#8c8c8c" stop-opacity="1"/><stop id="stop1097" offset=".835" stop-color="#ddd" stop-opacity="1"/><stop id="stop1099" offset="1" stop-color="#a8a8a8" stop-opacity="1"/></linearGradient><linearGradient id="linearGradient1045"><stop id="stop1041" offset="0" stop-color="#333" stop-opacity="1"/><stop id="stop1043" offset="1" stop-color="#555761" stop-opacity="1"/></linearGradient><linearGradient id="linearGradient2566" x1="302.857" x2="302.857" y1="366.648" y2="609.505" gradientTransform="matrix(0.1018087,0,0,0.02745099,-82.243162,61.941754)" gradientUnits="userSpaceOnUse" xlink:href="#linearGradient5048"/><radialGradient id="radialGradient2563" cx="605.714" cy="486.648" r="117.143" fx="605.714" fy="486.648" gradientTransform="matrix(0.05979662,0,0,0.02745099,-56.928085,61.941754)" gradientUnits="userSpaceOnUse" xlink:href="#linearGradient5060"/><radialGradient id="radialGradient2560" cx="605.714" cy="486.648" r="117.143" fx="605.714" fy="486.648" gradientTransform="matrix(-0.05979662,0,0,0.02745099,-33.965085,61.941754)" gradientUnits="userSpaceOnUse" xlink:href="#linearGradient5060"/><linearGradient id="linearGradient2557" x1="29.938" x2="30" y1="41" y2="50" gradientTransform="matrix(1.3573591,0,0,1.0098512,-84.809999,25.225035)" gradientUnits="userSpaceOnUse" xlink:href="#linearGradient2215"/><linearGradient id="linearGradient2553" x1="17.814" x2="18.073" y1="29.797" y2="10" gradientTransform="matrix(1.3526366,0,0,1.3652569,-77.909869,15.838829)" gradientUnits="userSpaceOnUse" xlink:href="#linearGradient3484"/><radialGradient id="radialGradient2551" cx="11.734" cy="8.49" r="23.048" fx="11.734" fy="8.49" gradientTransform="matrix(1.8621852,0.9518493,-0.6331808,1.2619694,-77.97636,13.192304)" gradientUnits="userSpaceOnUse" xlink:href="#linearGradient7056"/><radialGradient id="radialGradient2547" cx="141.747" cy="206.426" r="78.728" fx="141.747" fy="206.426" gradientTransform="matrix(0.475706,-0.00690855,0.00352072,0.3975024,-37.03293,-36.799112)" gradientUnits="userSpaceOnUse" xlink:href="#linearGradient4035"/><radialGradient id="radialGradient2544" cx="142.622" cy="191.854" r="78.728" fx="142.622" fy="191.854" gradientTransform="matrix(0.2466032,0,0,-0.1743241,-4.1482291,59.731248)" gradientUnits="userSpaceOnUse" xlink:href="#linearGradient7609"/><radialGradient id="radialGradient2540" cx="113.065" cy="97.588" r="2.563" fx="113.667" fy="98" gradientTransform="matrix(-0.5034274,0,0,0.4878048,-14.525935,16.569844)" gradientUnits="userSpaceOnUse" xlink:href="#radialGradient4241-5"/><radialGradient id="radialGradient2536" cx="113.065" cy="97.588" r="2.563" fx="113.667" fy="98" gradientTransform="matrix(0.374113,-0.07929617,0.04213943,0.3149909,-111.35844,9.8999183)" gradientUnits="userSpaceOnUse" xlink:href="#radialGradient4241-5"/><radialGradient id="radialGradient2532" cx="113.065" cy="97.588" r="2.563" fx="113.667" fy="98" gradientTransform="matrix(0.3782453,0.07056425,-0.03896353,0.3065004,-65.911021,-6.22984)" gradientUnits="userSpaceOnUse" xlink:href="#radialGradient4241-5"/><linearGradient id="linearGradient2529" x1="7.063" x2="24.688" y1="35.281" y2="35.281" gradientTransform="matrix(1.3801029,0,0,1.2584266,-8.0712936,29.10113)" gradientUnits="userSpaceOnUse" xlink:href="#linearGradient5060"/><linearGradient id="linearGradient2526" x1="12.277" x2="12.222" y1="37.206" y2="33.759" gradientTransform="matrix(1.3504215,0,0,1.2464221,-0.08267968,10.210591)" gradientUnits="userSpaceOnUse" xlink:href="#linearGradient4236"/><radialGradient id="radialGradient2523" cx="127.317" cy="143.828" r="78.728" fx="127.317" fy="143.828" gradientTransform="matrix(0.2540562,-0.03579406,0.00825801,0.1439066,-9.916226,3.6124102)" gradientUnits="userSpaceOnUse" xlink:href="#linearGradient4035"/><radialGradient id="radialGradient4241-5" cx="113.065" cy="97.588" r="2.563" fx="113.667" fy="98" gradientUnits="userSpaceOnUse"><stop id="stop4243-9" offset="0" stop-color="#eee" stop-opacity="1"/><stop id="stop4245-2" offset=".16" stop-color="#cecece" stop-opacity="1"/><stop id="stop4247-2" offset=".468" stop-color="#888" stop-opacity="1"/><stop id="stop4249-8" offset="1" stop-color="#555" stop-opacity="1"/></radialGradient><radialGradient id="radialGradient2519" cx="113.065" cy="97.588" r="2.563" fx="113.667" fy="98" gradientTransform="matrix(0.5034273,0,0,0.4878048,-76.367233,16.569844)" gradientUnits="userSpaceOnUse" xlink:href="#radialGradient4241-5"/><radialGradient id="radialGradient2516" cx="24" cy="42" r="21" fx="24" fy="42" gradientTransform="matrix(1.3809524,-1.4521173e-8,3.8407907e-8,0.486864,-78.589446,50.816919)" gradientUnits="userSpaceOnUse" xlink:href="#linearGradient6310-8"/><radialGradient id="radialGradient925" cx="25.96" cy="75.091" r="18.5" fx="25.96" fy="75.091" gradientTransform="matrix(3.5489286,-0.00675717,-9.4880732e-4,-0.49834382,-43.10113,140.02951)" gradientUnits="userSpaceOnUse" xlink:href="#linearGradient1045"/><linearGradient id="linearGradient1011" x1="7" x2="7" y1="53" y2="52" gradientTransform="matrix(1.4999999,0,0,4.609689,3.0000007,-136.31351)" gradientUnits="userSpaceOnUse" xlink:href="#linearGradient1131"/><linearGradient id="linearGradient1013" x1="10" x2="10" y1="53" y2="52" gradientTransform="matrix(1.5000003,0,0,4.609689,4.4999971,-136.31351)" gradientUnits="userSpaceOnUse" xlink:href="#linearGradient1131"/><linearGradient id="linearGradient1015" x1="13" x2="13" y1="53" y2="52" gradientTransform="matrix(1.4999999,0,0,4.609689,6.0000014,-136.31351)" gradientUnits="userSpaceOnUse" xlink:href="#linearGradient1131"/><linearGradient id="linearGradient1017" x1="16" x2="16" y1="53" y2="52" gradientTransform="matrix(1.4999999,0,0,4.609689,7.5000003,-136.31351)" gradientUnits="userSpaceOnUse" xlink:href="#linearGradient1131"/><linearGradient id="linearGradient1019" x1="19" x2="19" y1="53" y2="52" gradientTransform="matrix(1.4999999,0,0,4.609689,9.000001,-136.31351)" gradientUnits="userSpaceOnUse" xlink:href="#linearGradient1131"/><linearGradient id="linearGradient1021" x1="22" x2="22" y1="53" y2="52" gradientTransform="matrix(1.4999999,0,0,4.609689,10.500001,-136.31351)" gradientUnits="userSpaceOnUse" xlink:href="#linearGradient1131"/><linearGradient id="linearGradient1023" x1="25" x2="25" y1="53" y2="52" gradientTransform="matrix(1.5000003,0,0,4.609689,11.999993,-136.31351)" gradientUnits="userSpaceOnUse" xlink:href="#linearGradient1131"/><linearGradient id="linearGradient1025" x1="28" x2="28" y1="53" y2="52" gradientTransform="matrix(1.4999999,0,0,4.609689,13.500001,-136.31351)" gradientUnits="userSpaceOnUse" xlink:href="#linearGradient1131"/><linearGradient id="linearGradient1027" x1="31" x2="31" y1="53" y2="52" gradientTransform="matrix(1.4999999,0,0,4.609689,15.000002,-136.31351)" gradientUnits="userSpaceOnUse" xlink:href="#linearGradient1131"/><linearGradient id="linearGradient1029" x1="34" x2="34" y1="53" y2="52" gradientTransform="matrix(1.4999999,0,0,4.609689,16.500002,-136.31351)" gradientUnits="userSpaceOnUse" xlink:href="#linearGradient1131"/><linearGradient id="linearGradient1031" x1="41" x2="41" y1="53" y2="52" gradientTransform="matrix(1.5000003,0,0,4.609689,17.999989,-136.31351)" gradientUnits="userSpaceOnUse" xlink:href="#linearGradient1131"/><linearGradient id="linearGradient1033" x1="37" x2="37" y1="53" y2="52" gradientTransform="matrix(1.4999999,0,0,4.609689,18.000002,-136.31351)" gradientUnits="userSpaceOnUse" xlink:href="#linearGradient1131"/><radialGradient id="radialGradient1141-6" cx="58.064" cy="53" r="1.689" fx="58.064" fy="53" gradientTransform="matrix(2.0994935,0,0,1.7761342,-3.3755811,13.364888)" gradientUnits="userSpaceOnUse" xlink:href="#linearGradient1139"/><linearGradient id="linearGradient1031-3" x1="41" x2="41" y1="53" y2="52" gradientTransform="matrix(1.5000003,0,0,4.609689,23.999989,-136.31351)" gradientUnits="userSpaceOnUse" xlink:href="#linearGradient1131"/></defs><rect id="rect2723" width="100.736" height="13.661" x="13.632" y="107.716" fill="url(#linearGradient2624)" fill-opacity="1" fill-rule="nonzero" stroke="none" stroke-width=".5" display="inline" opacity=".3" overflow="visible" visibility="visible" style="marker:none"/><path id="path2725" fill="url(#radialGradient2621)" fill-opacity="1" fill-rule="nonzero" stroke="none" stroke-width=".5" d="m 114.31876,107.71629 c 0,0 0,13.66044 0,13.66044 6.31019,0.0257 15.25499,-3.06061 15.25499,-6.8311 0,-3.77048 -7.04169,-6.82934 -15.25499,-6.82934 z" display="inline" opacity=".3" overflow="visible" visibility="visible" style="marker:none"/><path id="path2727" fill="url(#radialGradient2618)" fill-opacity="1" fill-rule="nonzero" stroke="none" stroke-width="1" d="m 13.681244,107.71629 c 0,0 0,13.66044 0,13.66044 -6.310217,0.0257 -15.2549956,-3.06061 -15.2549956,-6.8311 0,-3.77048 7.0417191,-6.82934 15.2549956,-6.82934 z" display="inline" opacity=".3" overflow="visible" visibility="visible" style="marker:none"/><path id="rect6431" fill="url(#linearGradient2714)" fill-opacity="1" fill-rule="evenodd" stroke="#353537" stroke-dasharray="none" stroke-dashoffset="0" stroke-linecap="round" stroke-linejoin="round" stroke-miterlimit="4" stroke-opacity="1" stroke-width=".928" d="M 1.4640118,98.46396 H 126.53599 l -2.50078,16.072 H 4.2427776 Z" display="inline" enable-background="new"/><rect id="rect6381" width="124.656" height="2.793" x="1.672" y="96.278" fill="#d2d2d3" fill-opacity="1" fill-rule="evenodd" stroke="none" display="inline" enable-background="new"/><path id="path6345" fill="url(#radialGradient2708)" fill-opacity="1" fill-rule="nonzero" stroke="url(#linearGradient2710)" stroke-dasharray="none" stroke-dashoffset="0" stroke-linecap="round" stroke-linejoin="round" stroke-miterlimit="4" stroke-opacity="1" stroke-width=".996" d="m 126.5021,98.502072 -18.87434,-72.27504 c -0.5337,-2.058171 -3.32939,-3.729178 -5.6797,-3.729178 H 25.401087 c -3.61082,0 -5.67995,0.55683 -6.441344,3.729178 L 1.4978917,98.431698" display="inline" enable-background="accumulate" overflow="visible" visibility="visible" style="marker:none"/><path id="path7046" fill="none" stroke="#fff" stroke-dasharray="none" stroke-dashoffset="0" stroke-linecap="round" stroke-linejoin="miter" stroke-miterlimit="4" stroke-opacity="1" stroke-width="1" d="M 125.49993,98.499962 H 2.5000713" display="inline" enable-background="accumulate" opacity=".4" overflow="visible" visibility="visible" style="marker:none"/><path id="path9007" fill="#e1e1e1" fill-opacity="1" d="m 14.993455,91.98533 c -0.126866,1.660488 -2.026799,3.014632 -4.241883,3.014632 -2.2140731,0 -3.8904862,-1.354144 -3.7424788,-3.014632 0.1470028,-1.65171 2.0459308,-2.985368 4.2388598,-2.985368 2.19394,7.83e-4 3.870352,1.333658 3.745502,2.985368 z"/><path id="path9009" fill="url(#radialGradient2697)" fill-opacity="1" d="m 13.560699,90.817522 c 0.202379,0.210719 0.433956,0.548297 0.433956,0.997072 0,0.03222 -0.002,0.06438 -0.004,0.09855 -0.0876,1.144388 -1.570694,2.111218 -3.238047,2.111218 -0.9494637,0 -1.8173717,-0.317072 -2.3208007,-0.849754 -0.2164704,-0.227316 -0.4631534,-0.603904 -0.418851,-1.105366 0.1016909,-1.134636 1.5827736,-2.093658 3.2360327,-2.093658 0.942416,7.8e-4 1.807303,0.315122 2.311736,0.841948 h 9e-6 l -10e-7,-1.4e-5 z"/><path id="path9019" fill="#f0f0f0" fill-opacity="1" d="m 21.030997,25.61943 c 0.237579,1.052246 1.765539,1.627395 3.410643,1.278494 1.644356,-0.348742 2.77249,-1.487218 2.519216,-2.536133 -0.251792,-1.043405 -1.777218,-1.605485 -3.40587,-1.260071 -1.629338,0.346076 -2.759308,1.470812 -2.523989,2.51771 z"/><path id="path9021" fill="url(#radialGradient2693)" fill-opacity="1" d="m 21.994264,24.639666 c -0.132112,0.167962 -0.274955,0.422405 -0.236214,0.712195 0.0028,0.02071 0.007,0.04142 0.01151,0.06298 0.163859,0.725166 1.348799,1.11587 2.587114,0.853242 0.705149,-0.149536 1.322356,-0.491002 1.650254,-0.914267 0.141147,-0.180901 0.291825,-0.462913 0.215648,-0.779745 -0.173495,-0.716654 -1.356251,-1.102634 -2.5841,-0.842225 -0.699848,0.148949 -1.315048,0.488159 -1.644201,0.907803 l -4e-6,5e-6 -10e-6,1.7e-5 z"/><path id="path9025" fill="#e1e1e1" fill-opacity="1" d="m 99.000772,24.430821 c -0.0373,1.06111 1.282028,2.178262 2.946298,2.488746 1.66353,0.31034 3.03124,-0.305538 3.05267,-1.369597 0.0213,-1.058417 -1.29873,-2.162557 -2.94637,-2.469933 -1.64846,-0.307015 -3.014472,0.295486 -3.052598,1.350784 z"/><path id="path9027" fill="url(#radialGradient2689)" fill-opacity="1" d="m 100.17053,23.897881 c -0.16888,0.104022 -0.369832,0.28367 -0.405681,0.565664 -0.0026,0.02011 -0.0037,0.04062 -0.0047,0.06249 -0.02574,0.731329 1.011481,1.546696 2.264241,1.780402 0.71337,0.133075 1.39078,0.05552 1.81158,-0.208618 0.18082,-0.112475 0.39622,-0.314526 0.40299,-0.635822 0.0142,-0.727174 -1.02197,-1.537352 -2.26413,-1.769086 -0.70814,-0.131596 -1.38308,-0.05531 -1.80415,0.20501 l -1e-5,-8e-6 -1e-4,-3.6e-5 z"/><path id="path9091" fill="#e1e1e1" fill-opacity="1" d="m 113.00654,91.98533 c 0.12687,1.660488 2.0268,3.014632 4.24188,3.014632 2.21407,0 3.8905,-1.354144 3.74249,-3.014632 -0.14702,-1.65171 -2.04594,-2.985368 -4.23886,-2.985368 -2.19394,7.83e-4 -3.87035,1.333658 -3.74551,2.985368 z"/><path id="path9093" fill="url(#radialGradient2676)" fill-opacity="1" d="m 114.4393,90.817522 c -0.20238,0.210719 -0.43396,0.548297 -0.43396,0.997072 0,0.03222 0.002,0.06438 0.004,0.09855 0.0876,1.144388 1.57069,2.111218 3.23803,2.111218 0.94947,0 1.81738,-0.317072 2.32081,-0.849754 0.21646,-0.227316 0.46315,-0.603904 0.41885,-1.105366 -0.1017,-1.134636 -1.58277,-2.093658 -3.23603,-2.093658 -0.94243,7.8e-4 -1.8073,0.315122 -2.31174,0.841948 v 0 l 6e-5,-1.4e-5 z"/><path id="rect6431-5" fill="url(#radialGradient937)" fill-opacity="1" fill-rule="evenodd" stroke="none" stroke-dasharray="none" stroke-dashoffset="0" stroke-linecap="round" stroke-linejoin="round" stroke-miterlimit="4" stroke-opacity="1" stroke-width=".928" d="M 1.4640118,98.46396 H 126.53599 l -2.50078,16.072 H 4.2427776 Z" display="inline" enable-background="new" opacity=".323"/><path id="rect917" fill="url(#radialGradient925)" fill-opacity="1" fill-rule="nonzero" stroke="#474747" stroke-dasharray="none" stroke-linecap="butt" stroke-linejoin="miter" stroke-miterlimit="4" stroke-opacity=".599" stroke-width="1" d="m 10.424972,110.5 h 79.458714 l 0.644259,-6.91454 H 9.56596 Z" opacity="1" paint-order="normal" vector-effect="none"/><path id="path928" fill="url(#linearGradient1011)" fill-opacity="1" stroke="none" stroke-linecap="butt" stroke-linejoin="miter" stroke-opacity="1" stroke-width="1" d="M 12,103.39031 V 108 h 3 v -4.60969 z"/><path id="path928-3" fill="url(#linearGradient1013)" fill-opacity="1" stroke="none" stroke-linecap="butt" stroke-linejoin="miter" stroke-opacity="1" stroke-width="1" d="M 18,103.39031 V 108 h 3 v -4.60969 z"/><path id="path928-6" fill="url(#linearGradient1015)" fill-opacity="1" stroke="none" stroke-linecap="butt" stroke-linejoin="miter" stroke-opacity="1" stroke-width="1" d="M 24,103.39031 V 108 h 3 v -4.60969 z"/><path id="path928-7" fill="url(#linearGradient1017)" fill-opacity="1" stroke="none" stroke-linecap="butt" stroke-linejoin="miter" stroke-opacity="1" stroke-width="1" d="M 30,103.39031 V 108 h 3 v -4.60969 z"/><path id="path928-5" fill="url(#linearGradient1019)" fill-opacity="1" stroke="none" stroke-linecap="butt" stroke-linejoin="miter" stroke-opacity="1" stroke-width="1" d="M 36,103.39031 V 108 h 3 v -4.60969 z"/><path id="path928-35" fill="url(#linearGradient1021)" fill-opacity="1" stroke="none" stroke-linecap="butt" stroke-linejoin="miter" stroke-opacity="1" stroke-width="1" d="M 42,103.39031 V 108 h 3 v -4.60969 z"/><path id="path928-62" fill="url(#linearGradient1023)" fill-opacity="1" stroke="none" stroke-linecap="butt" stroke-linejoin="miter" stroke-opacity="1" stroke-width="1" d="M 48,103.39031 V 108 h 3 v -4.60969 z"/><path id="path928-9" fill="url(#linearGradient1025)" fill-opacity="1" stroke="none" stroke-linecap="butt" stroke-linejoin="miter" stroke-opacity="1" stroke-width="1" d="M 54,103.39031 V 108 h 3 v -4.60969 z"/><path id="path928-1" fill="url(#linearGradient1027)" fill-opacity="1" stroke="none" stroke-linecap="butt" stroke-linejoin="miter" stroke-opacity="1" stroke-width="1" d="M 60,103.39031 V 108 h 3 v -4.60969 z"/><path id="path928-2" fill="url(#linearGradient1029)" fill-opacity="1" stroke="none" stroke-linecap="butt" stroke-linejoin="miter" stroke-opacity="1" stroke-width="1" d="M 66,103.39031 V 108 h 3 v -4.60969 z"/><path id="path928-70" fill="url(#linearGradient1033)" fill-opacity="1" stroke="none" stroke-linecap="butt" stroke-linejoin="miter" stroke-opacity="1" stroke-width="1" d="M 72,103.39031 V 108 h 3 v -4.60969 z"/><path id="path928-93" fill="url(#linearGradient1031)" fill-opacity="1" stroke="none" stroke-linecap="butt" stroke-linejoin="miter" stroke-opacity="1" stroke-width="1" d="M 78,103.39031 V 108 h 3 v -4.60969 z"/><path id="path915-6" fill="url(#radialGradient1141-6)" fill-opacity="1" stroke="#9bdb4d" stroke-linecap="butt" stroke-linejoin="miter" stroke-opacity=".544" stroke-width="1" d="m 120.91442,105.5 -0.62985,4 h -4.19898 l 0.62985,-4 z"/><path id="path928-93-1" fill="url(#linearGradient1031-3)" fill-opacity="1" stroke="none" stroke-linecap="butt" stroke-linejoin="miter" stroke-opacity="1" stroke-width="1" d="M 84,103.39031 V 108 h 3 v -4.60969 z"/></svg>