<svg xmlns="http://www.w3.org/2000/svg" xmlns:svg="http://www.w3.org/2000/svg" xmlns:xlink="http://www.w3.org/1999/xlink" id="svg11300" width="128" height="128" version="1.0" viewBox="0 0 128 128"><metadata id="metadata49"/><defs id="defs3"><linearGradient id="linearGradient4614"><stop id="stop4606" offset="0" stop-color="#fff" stop-opacity="1"/><stop id="stop4608" offset=".032" stop-color="#fff" stop-opacity=".235"/><stop id="stop4610" offset=".981" stop-color="#fff" stop-opacity=".157"/><stop id="stop4612" offset="1" stop-color="#fff" stop-opacity=".392"/></linearGradient><linearGradient id="linearGradient3742"><stop id="stop3734" offset="0" stop-color="#fff" stop-opacity="1"/><stop id="stop3736" offset=".019" stop-color="#fff" stop-opacity=".235"/><stop id="stop3738" offset=".981" stop-color="#fff" stop-opacity=".157"/><stop id="stop3740" offset="1" stop-color="#fff" stop-opacity=".392"/></linearGradient><radialGradient id="radialGradient7374" cx="23.335" cy="41.636" r="22.627" gradientTransform="matrix(1.2482815,0,0,0.28244155,34.872276,104.84673)" gradientUnits="userSpaceOnUse"><stop id="stop23421" offset="0"/><stop id="stop23423" offset="1" stop-opacity="0"/></radialGradient><linearGradient id="linearGradient3600-8"><stop id="stop3602-2" offset="0" stop-color="#f4f4f4" stop-opacity="1"/><stop id="stop3604-5" offset="1" stop-color="#dbdbdb" stop-opacity="1"/></linearGradient><linearGradient id="linearGradient5466-8-3" x1="11.098" x2="11.098" y1="5.97" y2="45.689" gradientTransform="matrix(2.4795045,0,0,2.1356709,46.78552,-3.8194946)" gradientUnits="userSpaceOnUse" xlink:href="#linearGradient3600-8"/><linearGradient id="linearGradient3730" x1="118.574" x2="118.795" y1="3.704" y2="32.293" gradientTransform="matrix(1.7339903,0,0,3.0819181,-118.98873,-4.5238907)" gradientUnits="userSpaceOnUse" xlink:href="#linearGradient3742"/><linearGradient id="linearGradient4604" x1="116.835" x2="116.791" y1="-38.101" y2="-26.979" gradientTransform="matrix(1.769231,0,0,3.1538457,-122.7077,3.1651316)" gradientUnits="userSpaceOnUse" xlink:href="#linearGradient4614"/><linearGradient id="linearGradient7056"><stop id="stop7064" offset="0" stop-color="#e6e6e6" stop-opacity="1"/><stop id="stop7060" offset="1" stop-color="#c8c8c8" stop-opacity="1"/></linearGradient><linearGradient id="linearGradient4763" x1="25" x2="25" y1="-35" y2="-44.396" gradientTransform="matrix(2.5999998,0,0,2.6000002,1.6000049,-2.7999916)" gradientUnits="userSpaceOnUse" xlink:href="#linearGradient7056"/></defs><path id="path23417" fill="url(#radialGradient7374)" fill-rule="evenodd" stroke-width="1" d="m 92.245596,116.60691 a 28.245597,6.3908297 0 1 1 -56.491192,0 28.245597,6.3908297 0 1 1 56.491192,0 z" opacity=".3"/><rect id="rect3448" width="39" height="39" x="44.5" y="-118.5" fill="url(#linearGradient4763)" fill-opacity="1" stroke="#000" stroke-opacity=".293" stroke-width="1" rx="1" ry="1" transform="scale(1,-1)"/><path id="path4538" fill="none" fill-rule="evenodd" stroke="#000" stroke-dasharray="none" stroke-linecap="butt" stroke-linejoin="miter" stroke-miterlimit="4" stroke-opacity="1" stroke-width="3" d="M 45,95 H 83" opacity=".1"/><path id="rect3450" fill="#000" fill-opacity=".336" stroke="#000" stroke-dasharray="none" stroke-dashoffset="0" stroke-linecap="butt" stroke-linejoin="round" stroke-miterlimit="4" stroke-opacity=".674" stroke-width="1" d="m 50.5,103.5 v 7 h 9 v -7 z" opacity=".35"/><rect id="rect3458" width="37" height="37" x="45.5" y="-117.5" fill="none" fill-opacity="1" stroke="url(#linearGradient4604)" stroke-dasharray="none" stroke-dashoffset="0" stroke-linecap="round" stroke-linejoin="round" stroke-miterlimit="4" stroke-opacity="1" stroke-width="1" opacity=".4" transform="scale(1,-1)" style="marker:none"/><rect id="rect5391" width="54" height="90" x="37" y="5" fill="url(#linearGradient5466-8-3)" fill-opacity="1" stroke="none" stroke-dasharray="none" stroke-dashoffset="0" stroke-linecap="butt" stroke-linejoin="round" stroke-miterlimit="4" stroke-opacity="1" stroke-width="1" opacity="1" rx="2.5" ry="2.5" style="marker:none"/><rect id="rect5391-2" width="55" height="91" x="36.5" y="4.5" fill="none" fill-opacity="1" stroke="#000" stroke-dasharray="none" stroke-dashoffset="0" stroke-linecap="butt" stroke-linejoin="round" stroke-miterlimit="4" stroke-opacity="1" stroke-width="1" opacity=".3" rx="3" ry="3" style="marker:none"/><rect id="rect5391-2-0" width="53" height="89" x="37.5" y="5.5" fill="none" fill-opacity="1" stroke="url(#linearGradient3730)" stroke-dasharray="none" stroke-dashoffset="0" stroke-linecap="round" stroke-linejoin="round" stroke-miterlimit="4" stroke-opacity="1" stroke-width="1" opacity="1" rx="2" ry="2" style="marker:none"/><path id="path4696" fill="#fff" fill-opacity="1" stroke-width="1" d="M 63.751369,16.001953 59.132228,24 h 3.294922 v 40.880859 l -8.410156,-7.958984 c -0.543003,-0.677435 -0.924212,-1.56479 -0.945312,-2.476563 0,-3.688487 5.5e-5,-5.879274 -0.002,-6.685546 C 54.626806,47.213247 55.74937,45.745219 55.74937,44 c 0,-2.207818 -1.791383,-3.998047 -4,-3.998047 -2.209577,0 -4,1.790069 -4,3.998047 0,1.745219 1.123888,3.213247 2.679688,3.759766 l -0.002,6.607422 c 0,1.790615 0.983061,3.667104 2.134766,4.861328 v 0.002 c 0.02845,0.02526 8.921875,8.445312 8.921875,8.445312 0.542204,0.675996 0.92162,1.561522 0.943359,2.472657 v 7.029296 A 5,5 0 0 0 58.749416,82 a 5,5 0 0 0 5,5 5,5 0 0 0 5,-5 5,5 0 0 0 -3.681641,-4.818359 v -6.953125 c 0,-0.01164 6.39e-4,-0.02334 0,-0.03516 V 60.144531 c 0.02317,-0.909374 0.40247,-1.795346 0.945313,-2.470703 0,0 8.893103,-8.417303 8.921875,-8.443359 1.151544,-1.194222 2.134766,-3.072347 2.134765,-4.863281 L 77.067775,38 h 2.681641 v -8 h -8 v 8 h 2.677734 c 0,0 -0.002,1.677211 -0.002,6.445312 -0.02093,0.911933 -0.402309,1.799448 -0.945312,2.476563 l -8.41211,7.960937 V 24 h 3.300782 z"/><path id="path1334" fill="#aaa" fill-opacity="1" stroke-width="1" d="M 63.751369,15.001953 59.132228,23 h 3.294922 v 40.880859 l -8.410156,-7.958984 c -0.543003,-0.677435 -0.924212,-1.56479 -0.945312,-2.476563 0,-3.688487 5.5e-5,-5.879274 -0.002,-6.685546 C 54.626806,46.213247 55.74937,44.745219 55.74937,43 c 0,-2.207818 -1.791383,-3.998047 -4,-3.998047 -2.209577,0 -4,1.790069 -4,3.998047 0,1.745219 1.123888,3.213247 2.679688,3.759766 l -0.002,6.607422 c 0,1.790615 0.983061,3.667104 2.134766,4.861328 v 0.002 c 0.02845,0.02526 8.921875,8.445312 8.921875,8.445312 0.542204,0.675996 0.92162,1.561522 0.943359,2.472657 v 7.029296 A 5,5 0 0 0 58.749416,81 a 5,5 0 0 0 5,5 5,5 0 0 0 5,-5 5,5 0 0 0 -3.681641,-4.818359 v -6.953125 c 0,-0.01164 6.39e-4,-0.02334 0,-0.03516 V 59.144531 c 0.02317,-0.909374 0.40247,-1.795346 0.945313,-2.470703 0,0 8.893103,-8.417303 8.921875,-8.443359 1.151544,-1.194222 2.134766,-3.072347 2.134765,-4.863281 L 77.067775,37 h 2.681641 v -8 h -8 v 8 h 2.677734 c 0,0 -0.002,1.677211 -0.002,6.445312 -0.02093,0.911933 -0.402309,1.799448 -0.945312,2.476563 l -8.41211,7.960937 V 23 h 3.300782 z"/><path id="path4655" fill="#000" fill-opacity=".336" stroke="#000" stroke-dasharray="none" stroke-dashoffset="0" stroke-linecap="butt" stroke-linejoin="round" stroke-miterlimit="4" stroke-opacity=".674" stroke-width="1" d="m 68.5,103.5 v 7 h 9 v -7 z" opacity=".35"/><path id="path4661" fill="none" fill-rule="evenodd" stroke="#fff" stroke-linecap="butt" stroke-linejoin="miter" stroke-opacity="1" stroke-width="1" d="M 50,111.5 H 60" opacity=".2"/><path id="path4663" fill="none" fill-rule="evenodd" stroke="#fff" stroke-linecap="butt" stroke-linejoin="miter" stroke-opacity="1" stroke-width="1" d="M 68,111.5 H 78" opacity=".2"/><rect id="rect4665" width="2" height="1" x="54" y="99" fill="#000" fill-opacity="1" stroke="none" stroke-dasharray="none" stroke-dashoffset="0" stroke-linecap="round" stroke-linejoin="round" stroke-miterlimit="4" stroke-opacity="1" stroke-width="3" opacity=".2" rx=".5" ry=".5"/><rect id="rect4667" width="2" height="1" x="72" y="99" fill="#000" fill-opacity="1" stroke="none" stroke-dasharray="none" stroke-dashoffset="0" stroke-linecap="round" stroke-linejoin="round" stroke-miterlimit="4" stroke-opacity="1" stroke-width="3" opacity=".2" rx=".5" ry=".5"/><rect id="rect4669" width="2" height="1" x="54" y="100" fill="#fff" fill-opacity="1" stroke="none" stroke-dasharray="none" stroke-dashoffset="0" stroke-linecap="round" stroke-linejoin="round" stroke-miterlimit="4" stroke-opacity="1" stroke-width="3" opacity=".4" rx=".5" ry=".5"/><rect id="rect4671" width="2" height="1" x="72" y="100" fill="#fff" fill-opacity="1" stroke="none" stroke-dasharray="none" stroke-dashoffset="0" stroke-linecap="round" stroke-linejoin="round" stroke-miterlimit="4" stroke-opacity="1" stroke-width="3" opacity=".4" rx=".5" ry=".5"/></svg>