<svg xmlns="http://www.w3.org/2000/svg" xmlns:svg="http://www.w3.org/2000/svg" xmlns:xlink="http://www.w3.org/1999/xlink" id="svg4117" width="128" height="128" version="1.1"><defs id="defs4119"><linearGradient id="linearGradient4859"><stop id="stop4861" offset="0" stop-color="#fff" stop-opacity="1"/><stop id="stop4863" offset="1" stop-color="#fff" stop-opacity="0"/></linearGradient><linearGradient id="linearGradient4845"><stop id="stop4847" offset="0" stop-color="#4d4d4d" stop-opacity="1"/><stop id="stop4849" offset="1" stop-color="#252525" stop-opacity="1"/></linearGradient><linearGradient id="linearGradient4829"><stop id="stop4831" offset="0" stop-color="#fff" stop-opacity="1"/><stop id="stop4833" offset="1" stop-color="#fff" stop-opacity="0"/></linearGradient><linearGradient id="linearGradient4674"><stop id="stop4676" offset="0" stop-color="#a00" stop-opacity="1"/><stop id="stop4678" offset="1" stop-color="#b50000" stop-opacity="1"/></linearGradient><linearGradient id="linearGradient4410"><stop id="stop4412" offset="0" stop-color="#000" stop-opacity="1"/><stop id="stop4414" offset="1" stop-color="#000" stop-opacity="0"/></linearGradient><linearGradient id="linearGradient4295"><stop id="stop4297" offset="0" stop-color="#f44336" stop-opacity="1"/><stop id="stop4299" offset="1" stop-color="#c6180b" stop-opacity="1"/></linearGradient><linearGradient id="linearGradient3924"><stop id="stop3926" offset="0" stop-color="#fff" stop-opacity="1"/><stop id="stop3928" offset=".044" stop-color="#fff" stop-opacity=".235"/><stop id="stop3930" offset=".978" stop-color="#fff" stop-opacity=".157"/><stop id="stop3932" offset="1" stop-color="#fff" stop-opacity=".392"/></linearGradient><filter id="filter3831" color-interpolation-filters="sRGB"><feGaussianBlur id="feGaussianBlur3833" stdDeviation=".637"/></filter><clipPath id="clipPath3823"><path id="path3825" fill="#fff" fill-opacity="1" stroke="none" d="M 108.8125,58 C 107.25437,58 106,59.254375 106,60.8125 l 0,24.375 C 106,86.745625 107.25437,88 108.8125,88 l 24.375,0 C 134.74562,88 136,86.745625 136,85.1875 l 0,-24.375 C 136,59.254375 134.74562,58 133.1875,58 l -24.375,0 z m 7.1875,4.5 10,0 0,8.75 5,0 -10,13.75 -10,-13.75 5,0 0,-8.75 z"/></clipPath><linearGradient id="linearGradient3812" x1="65.263" x2="65.263" y1="64.205" y2="50.069" gradientTransform="matrix(0.625,0,0,0.625,78.5,32.25)" gradientUnits="userSpaceOnUse" xlink:href="#linearGradient5010"/><filter id="filter3806" color-interpolation-filters="sRGB"><feGaussianBlur id="feGaussianBlur3808" stdDeviation="1.2"/></filter><linearGradient id="linearGradient3788" x1="70" x2="70" y1="54" y2="75.095" gradientTransform="translate(0,4)" gradientUnits="userSpaceOnUse" xlink:href="#linearGradient3737"/><linearGradient id="linearGradient3773" x1="56" x2="88" y1="72" y2="72" gradientTransform="matrix(0.9375,0,0,0.9375,-140.5,3.5)" gradientUnits="userSpaceOnUse" xlink:href="#linearGradient3778"/><linearGradient id="linearGradient3832" x1="65.263" x2="65.263" y1="64.205" y2="50.069" gradientTransform="matrix(0.625,0,0,0.625,28.5,31.25)" gradientUnits="userSpaceOnUse" xlink:href="#linearGradient3737"/><filter id="filter3174" color-interpolation-filters="sRGB"><feGaussianBlur id="feGaussianBlur3176" stdDeviation="1.71"/></filter><linearGradient id="linearGradient3737"><stop id="stop3739" offset="0" stop-color="#fff" stop-opacity="1"/><stop id="stop3741" offset="1" stop-color="#fff" stop-opacity="0"/></linearGradient><linearGradient id="ButtonShadow" x1="45.448" x2="45.448" y1="92.54" y2="7.017" gradientTransform="scale(1.0058652,0.994169)" gradientUnits="userSpaceOnUse"><stop id="stop3750" offset="0" stop-color="#000" stop-opacity="1"/><stop id="stop3752" offset="1" stop-color="#000" stop-opacity=".588"/></linearGradient><linearGradient id="linearGradient5010"><stop id="stop5012" offset="0" stop-color="#000" stop-opacity="1"/><stop id="stop5014" offset="1" stop-color="#000" stop-opacity="0"/></linearGradient><linearGradient id="linearGradient3778"><stop id="stop3780" offset="0" stop-color="#499119" stop-opacity="1"/><stop id="stop3782" offset="1" stop-color="#8fd625" stop-opacity="1"/></linearGradient><linearGradient id="linearGradient3084" x1="24" x2="24" y1="5" y2="43" gradientTransform="matrix(2.9459459,0,0,1.5945946,-6.702696,48.780527)" gradientUnits="userSpaceOnUse" xlink:href="#linearGradient3924"/><linearGradient id="linearGradient2867-449-88-871-390-598-476-591-434-148-57-177-641-289-620-227-114-444-680-744-4-8-69-5-4-8-426-2-9-1-4-965"><stop id="stop4036" offset="0" stop-color="#f4f4f4" stop-opacity="1"/><stop id="stop4040" offset="1" stop-color="#d0d0d0" stop-opacity="1"/></linearGradient><radialGradient id="radialGradient3309" cx="20.931" cy="8.45" r="20" fx="20.931" fy="8.45" gradientTransform="matrix(5.3428283e-8,3.5953695,-6.7987058,-6.6240422e-8,121.44778,-143.021)" gradientUnits="userSpaceOnUse" xlink:href="#linearGradient2867-449-88-871-390-598-476-591-434-148-57-177-641-289-620-227-114-444-680-744-4-8-69-5-4-8-426-2-9-1-4-965"/><linearGradient id="linearGradient4416" x1="23.535" x2="24" y1="6" y2="3" gradientTransform="matrix(-2,0,0,2,88.48948,14)" gradientUnits="userSpaceOnUse" xlink:href="#linearGradient4410"/><linearGradient id="linearGradient4749" x1="31" x2="35" y1="32" y2="32" gradientTransform="matrix(1.25,0,0,1.235955,-90.75,-84.022471)" gradientUnits="userSpaceOnUse" xlink:href="#linearGradient4295"/><linearGradient id="linearGradient4751" x1="-52" x2="-47" y1="-44.461" y2="-44.461" gradientTransform="matrix(0.94711438,0,0,0.94705444,96.383506,-2.3539937)" gradientUnits="userSpaceOnUse" xlink:href="#linearGradient4674"/><radialGradient id="radialGradient3947" cx="4.996" cy="43.5" r="2.5" fx="4.996" fy="43.5" gradientTransform="matrix(5.6105948,6.8507554e-7,-1.4382541e-7,2.6000201,80.966766,3.39915)" gradientUnits="userSpaceOnUse" xlink:href="#linearGradient3688-166-749-654"/><linearGradient id="linearGradient3688-166-749-654"><stop id="stop3088" offset="0" stop-color="#181818" stop-opacity="1"/><stop id="stop3090" offset="1" stop-color="#181818" stop-opacity="0"/></linearGradient><radialGradient id="radialGradient3944" cx="4.993" cy="43.5" r="2.5" fx="4.993" fy="43.5" gradientTransform="matrix(5.5367812,0,0,2.5999998,-46.48024,-229.60022)" gradientUnits="userSpaceOnUse" xlink:href="#linearGradient3688-166-749-654"/><linearGradient id="linearGradient3941" x1="25.058" x2="25.058" y1="47.028" y2="39.999" gradientTransform="matrix(2.7857144,0,0,1.8571426,-9.0428326,35.71432)" gradientUnits="userSpaceOnUse" xlink:href="#linearGradient3702-501-757-795"/><linearGradient id="linearGradient3702-501-757-795"><stop id="stop3100" offset="0" stop-color="#181818" stop-opacity="0"/><stop id="stop3102" offset=".5" stop-color="#181818" stop-opacity="1"/><stop id="stop3104" offset="1" stop-color="#181818" stop-opacity="0"/></linearGradient><linearGradient id="linearGradient4835" x1="-93.704" x2="-90.704" y1="28.903" y2="28.903" gradientTransform="matrix(1.6666667,0,0,1.6856061,61.673919,-19.617487)" gradientUnits="userSpaceOnUse" xlink:href="#linearGradient4829"/><linearGradient id="linearGradient4851" x1="20" x2="38.205" y1="92" y2="92" gradientTransform="matrix(0,-1,-1,0,121.10227,121.10227)" gradientUnits="userSpaceOnUse" xlink:href="#linearGradient4845"/><linearGradient id="linearGradient4865" x1="57" x2="57" y1="96" y2="104" gradientTransform="translate(0,-199.99998)" gradientUnits="userSpaceOnUse" xlink:href="#linearGradient4859"/><clipPath id="clipPath4873" clipPathUnits="userSpaceOnUse"><path id="path4875" fill="url(#linearGradient4877)" fill-opacity="1" stroke="none" stroke-dasharray="none" stroke-linecap="round" stroke-linejoin="miter" stroke-miterlimit="4" stroke-opacity="1" stroke-width="1" d="m 40.102273,96.034088 -7,0 0,7.068182 -8,0 0,-7.068182 -7,0 0,-8.068182 7,0 0,-7.068179 8,0 0,7.068179 7,0 z" opacity="1"/></clipPath><linearGradient id="linearGradient4877" x1="20" x2="38.205" y1="92" y2="92" gradientTransform="matrix(0,-1,-1,0,121.10227,121.10227)" gradientUnits="userSpaceOnUse" xlink:href="#linearGradient4845"/></defs><metadata id="metadata4122"/><g id="g4824"><rect id="rect2801" width="14" height="13" x="109" y="110" fill="url(#radialGradient3947)" fill-opacity="1" stroke="none" opacity=".4"/><rect id="rect3696" width="14" height="13" x="-19" y="-123" fill="url(#radialGradient3944)" fill-opacity="1" stroke="none" opacity=".4" transform="scale(-1,-1)"/><path id="rect3700" fill="url(#linearGradient3941)" fill-opacity="1" stroke="none" d="m 19,110 90,0 0,13 -90,0 z" opacity=".4"/></g><g id="layer2" display="none" transform="translate(-135.85714,48.94959)"><path id="rect3745" fill="url(#ButtonShadow)" fill-opacity="1" fill-rule="nonzero" stroke="none" d="M 11,7 48,5 85,7 c 3.324,0 6,2.676 6,6 l 0,73 c 0,3.324 -2.676,6 -6,6 L 11,92 C 7.676,92 5,89.324 5,86 L 5,13 C 5,9.676 7.676,7 11,7 Z" filter="url(#filter3174)" opacity=".9"/></g><g id="layer4" display="none" transform="translate(-135.85714,48.94959)"><rect id="rect3790" width="30" height="30" x="-86" y="56" fill="#000" fill-opacity="1" stroke="none" filter="url(#filter3806)" opacity=".6" rx="2.813" ry="2.813" transform="matrix(0,-1,1,0,0,4)"/><rect id="rect2993" width="30" height="30" x="-88" y="56" fill="url(#linearGradient3773)" fill-opacity="1" stroke="none" rx="2.813" ry="2.813" transform="matrix(0,-1,1,0,0,0)"/><path id="rect3775" fill="url(#linearGradient3788)" fill-opacity="1" stroke="none" d="M 58.8125,58 C 57.254375,58 56,59.254375 56,60.8125 l 0,24.375 c 0,0.873066 0.410816,1.641163 1.03125,2.15625 C 57.02841,87.289908 57,87.242129 57,87.1875 l 0,-24.375 C 57,61.254375 58.17075,60 59.625,60 l 22.75,0 C 83.82925,60 85,61.254375 85,62.8125 l 0,24.375 c 0,0.05463 -0.02841,0.102408 -0.03125,0.15625 C 85.589184,86.828663 86,86.060566 86,85.1875 l 0,-24.375 C 86,59.254375 84.745625,58 83.1875,58 l -24.375,0 z" opacity=".5"/><path id="path3810" fill="url(#linearGradient3812)" fill-opacity="1" fill-rule="nonzero" stroke="none" d="m 116,63.5 0,8.75 -5,0 10,13.75 10,-13.75 -5,0 0,-8.75 -10,0 z" clip-path="url(#clipPath3823)" display="inline" filter="url(#filter3831)" opacity=".6" transform="translate(-50,0)"/><path id="path4278" fill="url(#linearGradient3832)" fill-opacity="1" fill-rule="nonzero" stroke="none" d="m 66,62.5 0,8.75 -5,0 10,13.75 10,-13.75 -5,0 0,-8.75 -10,0 z" display="inline"/></g><path id="path4408" fill="none" fill-rule="evenodd" stroke="url(#linearGradient4416)" stroke-linecap="butt" stroke-linejoin="miter" stroke-opacity="1" stroke-width="2" d="m 41.420138,64 c 0,-2.298638 0.301158,-8.723994 0.271784,-10.984402 C 41.518282,39.65396 23.236644,40.82957 24.341472,34.453976 25.813524,25.959248 47.583774,31.537942 47.48948,24.625 c -0.806608,-10.403762 -28,-14 -28,-14"/><rect id="rect5505" width="110" height="60" x="9" y="-116.967" fill="url(#radialGradient3309)" fill-opacity="1" fill-rule="nonzero" stroke="none" stroke-width="1" color="#000" display="inline" enable-background="accumulate" overflow="visible" rx="1.5" ry="1.5" transform="scale(1,-1)" visibility="visible" style="marker:none"/><rect stroke-linejoin="round" style="marker:none" id="rect5505-21" width="111" height="61" x="8.5" y="56.467" fill="none" fill-opacity="1" fill-rule="nonzero" stroke="#000" stroke-dasharray="none" stroke-dashoffset="0" stroke-linecap="round" stroke-miterlimit="4" stroke-opacity="1" stroke-width="1" color="#000" display="inline" enable-background="accumulate" opacity=".4" overflow="visible" rx="2" ry="2" visibility="visible"/><rect id="rect4439" width="100" height="46" x="14" y="68" fill="#fff" fill-opacity="1" stroke="none" stroke-dasharray="none" stroke-linecap="round" stroke-linejoin="miter" stroke-miterlimit="4" stroke-opacity="1" stroke-width="2" opacity=".3" rx="1" ry="1"/><rect id="rect6741-2" width="109" height="59" x="9.5" y="57.551" fill="none" stroke="url(#linearGradient3084)" stroke-dasharray="none" stroke-dashoffset="0" stroke-linecap="round" stroke-linejoin="round" stroke-miterlimit="4" stroke-opacity="1" stroke-width="1" rx="1" ry="1"/><rect id="rect4263" width="100" height="46" x="14" y="67" fill="#575757" fill-opacity="1" stroke="none" stroke-dasharray="none" stroke-linecap="round" stroke-linejoin="miter" stroke-miterlimit="4" stroke-opacity="1" stroke-width="2" opacity="1" rx="1" ry="1"/><path id="rect4267" fill="#83847c" fill-opacity="1" stroke="none" stroke-dasharray="none" stroke-linecap="round" stroke-linejoin="miter" stroke-miterlimit="4" stroke-opacity="1" stroke-width="1" d="m 45,67 0,2 0,2 c 0,1.108 0.902137,2 2.022728,2 l 24.954545,0 C 73.097864,73 74,72.108 74,71 l 0,-2 0,-2 -2.022727,0 -24.954545,0 z" opacity="1"/><rect id="rect4232" width="29" height="10" x="45" y="95" fill="#e7e7e7" fill-opacity="1" stroke="none" stroke-dasharray="none" stroke-linecap="round" stroke-linejoin="miter" stroke-miterlimit="4" stroke-opacity="1" stroke-width="2" opacity="1" rx="1" ry="1"/><path id="path4320" fill="none" fill-opacity="1" stroke="#e7e7e7" stroke-dasharray="none" stroke-linecap="round" stroke-linejoin="round" stroke-miterlimit="4" stroke-opacity="1" stroke-width="2" d="m 25.068182,81 0,7 L 18,88 l 0,8 7.068182,0 0,7 8.068182,0 0,-7 7.068182,0 0,-8 -7.068182,0 0,-7 z" opacity="1"/><path id="rect4280" fill="url(#linearGradient4851)" fill-opacity="1" stroke="none" stroke-dasharray="none" stroke-linecap="round" stroke-linejoin="miter" stroke-miterlimit="4" stroke-opacity="1" stroke-width="1" d="m 40.102273,96.034088 -7,0 0,7.068182 -8,0 0,-7.068182 -7,0 0,-8.068182 7,0 0,-7.068179 8,0 0,7.068179 7,0 z" opacity="1"/><g id="g4246" transform="matrix(2.0227273,0,0,2,-3.9318193,1)"><path id="path4315" fill="#e7e7e7" fill-opacity="1" stroke="none" stroke-dasharray="none" stroke-linecap="round" stroke-linejoin="miter" stroke-miterlimit="4" stroke-opacity="1" stroke-width="1" d="m 42,46 4.933254,0 c 0.554,0 1,0.446 1,1 l 0,5 c 0,0.554 -0.446,1 -1,1 L 42,53 c -0.554,0 -1,-0.446 -1,-1 l 0,-5 c 0,-0.554 0.446,-1 1,-1 z" opacity="1"/><circle id="circle4690" cx="-50" cy="-44.5" r="2.5" fill="#000" fill-opacity="1" stroke="#000" stroke-dasharray="none" stroke-linecap="round" stroke-linejoin="miter" stroke-miterlimit="4" stroke-opacity="1" stroke-width=".497" opacity=".05" transform="matrix(0,-1,-1,0,0,0)"/><circle id="circle4684" cx="-50" cy="-44.5" r="2.5" fill="#000" fill-opacity="1" stroke="none" stroke-dasharray="none" stroke-linecap="round" stroke-linejoin="miter" stroke-miterlimit="4" stroke-opacity="1" stroke-width="1" opacity=".1" transform="matrix(0,-1,-1,0,0,0)"/><ellipse id="path4291" cx="-49.5" cy="-44.472" fill="url(#linearGradient4749)" fill-opacity="1" stroke="none" stroke-dasharray="none" stroke-linecap="round" stroke-linejoin="miter" stroke-miterlimit="4" stroke-opacity="1" stroke-width="1" opacity="1" rx="2.5" ry="2.472" transform="matrix(0,-1,-1,0,0,0)"/><ellipse id="circle4694" cx="49.501" cy="-44.461" fill="none" fill-opacity="1" stroke="url(#linearGradient4751)" stroke-dasharray="none" stroke-linecap="round" stroke-linejoin="miter" stroke-miterlimit="4" stroke-opacity="1" stroke-width=".497" opacity=".4" rx="2.25" ry="2.223" transform="matrix(0,1,-1,0,0,0)"/></g><rect id="rect4228" width="29" height="8" x="45" y="75" fill="#83847c" fill-opacity="1" stroke="none" stroke-dasharray="none" stroke-linecap="round" stroke-linejoin="miter" stroke-miterlimit="4" stroke-opacity="1" stroke-width="2" opacity="1" rx="2" ry="2"/><rect id="rect4324" width="7.955" height="2" x="49.045" y="99" fill="#4d4d4d" fill-opacity="1" stroke="none" stroke-dasharray="none" stroke-linecap="round" stroke-linejoin="round" stroke-miterlimit="4" stroke-opacity="1" stroke-width="2" opacity="1" ry=".978"/><rect id="rect4326" width="8.273" height="2" x="61.727" y="99" fill="#4d4d4d" fill-opacity="1" stroke="none" stroke-dasharray="none" stroke-linecap="round" stroke-linejoin="round" stroke-miterlimit="4" stroke-opacity="1" stroke-width="2" opacity="1" rx="1" ry="1"/><rect id="rect4350" width="22.25" height="4" x="80.705" y="78" fill="#ff1200" fill-opacity="1" stroke="none" stroke-dasharray="none" stroke-linecap="round" stroke-linejoin="round" stroke-miterlimit="4" stroke-opacity="1" stroke-width=".5" opacity=".5" rx="1" ry=".969"/><rect id="rect4230" width="29" height="8" x="45" y="85" fill="#83847c" fill-opacity="1" stroke="none" stroke-dasharray="none" stroke-linecap="round" stroke-linejoin="miter" stroke-miterlimit="4" stroke-opacity="1" stroke-width="2" opacity="1" rx="2" ry="2"/><path id="path4236" fill="#83847c" fill-opacity="1" stroke="none" stroke-dasharray="none" stroke-linecap="round" stroke-linejoin="miter" stroke-miterlimit="4" stroke-opacity="1" stroke-width="1" d="m 45,113 0,-2 0,-2 c 0,-1.108 0.902137,-2 2.022728,-2 l 24.954545,0 c 1.120591,0 2.019478,0.892 2.022727,2 l 0,2 0,2 -2.022727,0 -24.954545,0 z" opacity="1"/><rect id="rect4238" width="9.977" height="2" x="47.023" y="89" fill="#ff1200" fill-opacity="1" stroke="none" stroke-dasharray="none" stroke-linecap="round" stroke-linejoin="round" stroke-miterlimit="4" stroke-opacity="1" stroke-width=".5" opacity=".5"/><rect id="rect4240" width="10" height="2" x="62" y="89" fill="#ff1200" fill-opacity="1" stroke="none" stroke-dasharray="none" stroke-linecap="round" stroke-linejoin="round" stroke-miterlimit="4" stroke-opacity="1" stroke-width=".5" opacity=".5"/><use id="use4250" width="100%" height="100%" x="0" y="0" transform="translate(16,0)" xlink:href="#g4246"/><rect id="rect4252" width="2.023" height="2" x="89" y="109" fill="red" fill-opacity="1" stroke="none" stroke-dasharray="none" stroke-linecap="round" stroke-linejoin="miter" stroke-miterlimit="4" stroke-opacity="1" stroke-width="2" opacity=".6"/><rect id="rect4254" width="2.023" height="2" x="105" y="109" fill="red" fill-opacity="1" stroke="none" stroke-dasharray="none" stroke-linecap="round" stroke-linejoin="miter" stroke-miterlimit="4" stroke-opacity="1" stroke-width="2" opacity=".6"/><path id="path4296" fill="#fff" fill-opacity="1" stroke="none" stroke-dasharray="none" stroke-linecap="round" stroke-linejoin="miter" stroke-miterlimit="4" stroke-opacity="1" stroke-width="1" d="m 25.068359,81 0,1 8,0 0,1 0.06836,0 0,-2 z M 18,88 l 0,1 7,0 0,0 0,0 0.06836,-1 z m 15.136719,0 0,1 7,0 0,1 0.06836,0 0,-2 z" opacity=".1"/><circle id="path4301" cx="-92" cy="29.102" r="2.5" fill="url(#linearGradient4835)" fill-opacity="1" stroke="none" stroke-dasharray="none" stroke-linecap="round" stroke-linejoin="miter" stroke-miterlimit="4" stroke-opacity="1" stroke-width="2" opacity=".1" transform="matrix(0,-1,1,0,0,0)"/><rect id="rect4265" width="99" height="45" x="14.5" y="67.5" fill="none" fill-opacity="1" stroke="#000" stroke-dasharray="none" stroke-linecap="round" stroke-linejoin="miter" stroke-miterlimit="4" stroke-opacity="1" stroke-width="1" opacity=".1" rx=".5" ry=".5"/><path id="path4441" fill="none" fill-rule="evenodd" stroke="#000" stroke-linecap="butt" stroke-linejoin="miter" stroke-opacity="1" stroke-width="1" d="m 15,67.5 98,0" opacity=".2"/><path id="path4682" fill="#000" fill-opacity="1" stroke="none" stroke-dasharray="none" stroke-linecap="round" stroke-linejoin="miter" stroke-miterlimit="4" stroke-opacity="1" stroke-width="1" d="m 25.068359,104 0,-1 8,0 0,-1 0.06836,0 0,2 z M 18,97 l 0,-1 7,0 0,0 0,0 0.06836,1 z m 15.136719,0 0,-1 7,0 0,-1 0.06836,0 0,2 z" opacity=".2"/><rect id="rect4853" width="28" height="9" x="45.5" y="95.5" fill="none" fill-opacity="1" stroke="#d1d1d1" stroke-dasharray="none" stroke-linecap="round" stroke-linejoin="miter" stroke-miterlimit="4" stroke-opacity="1" stroke-width="1" opacity="1" rx=".5" ry=".5"/><rect id="rect4857" width="26" height="7" x="46.5" y="-103.5" fill="none" fill-opacity="1" stroke="url(#linearGradient4865)" stroke-dasharray="none" stroke-linecap="round" stroke-linejoin="miter" stroke-miterlimit="4" stroke-opacity="1" stroke-width="1" opacity=".4" transform="scale(1,-1)"/><path id="path4867" fill="none" fill-opacity="1" stroke="#000" stroke-dasharray="none" stroke-linecap="round" stroke-linejoin="miter" stroke-miterlimit="4" stroke-opacity="1" stroke-width="2" d="m 40.102273,96.034088 -7,0 0,7.068182 -8,0 0,-7.068182 -7,0 0,-8.068182 7,0 0,-7.068179 8,0 0,7.068179 7,0 z" clip-path="url(#clipPath4873)" opacity=".2"/></svg>