<svg xmlns="http://www.w3.org/2000/svg" xmlns:svg="http://www.w3.org/2000/svg" xmlns:xlink="http://www.w3.org/1999/xlink" id="svg4014" width="128" height="128" version="1.1"><defs id="defs4016"><linearGradient id="linearGradient841"><stop id="stop837" offset="0" stop-color="#cd9ef7" stop-opacity="1"/><stop id="stop839" offset="1" stop-color="#a56de2" stop-opacity="1"/></linearGradient><linearGradient id="linearGradient3269" x1="38.941" x2="20.576" y1="15.991" y2="15.991" gradientTransform="matrix(0,-3.0804774,-3.3181932,0,127.21217,144.48761)" gradientUnits="userSpaceOnUse" xlink:href="#linearGradient4087-8-0"/><linearGradient id="linearGradient4087-8-0"><stop id="stop4089-85-9" offset="0" stop-color="#fff" stop-opacity="1"/><stop id="stop4091-0-2" offset=".512" stop-color="#fff" stop-opacity=".235"/><stop id="stop4093-9-5" offset=".585" stop-color="#fff" stop-opacity=".157"/><stop id="stop4095-6-4" offset="1" stop-color="#fff" stop-opacity=".392"/></linearGradient><radialGradient id="radialGradient4195" cx="24.837" cy="36.421" r="15.645" fx="24.837" fy="36.421" gradientTransform="matrix(1,0,0,0.536723,0,16.87306)" gradientUnits="userSpaceOnUse" xlink:href="#linearGradient8662-7"/><linearGradient id="linearGradient8662-7"><stop id="stop8664-0" offset="0" stop-color="#000" stop-opacity="1"/><stop id="stop8666-1" offset="1" stop-color="#000" stop-opacity="0"/></linearGradient><linearGradient id="linearGradient843" x1="91.093" x2="91.093" y1="14.657" y2="103.617" gradientUnits="userSpaceOnUse" xlink:href="#linearGradient841"/></defs><metadata id="metadata4019"/><g id="layer1-6" transform="matrix(5.3333333,0,0,5.3333333,0,-42.66667)"><g id="g4190" transform="translate(0.43749952,0)"><path id="path3501-0" fill="url(#radialGradient4195)" fill-opacity="1" fill-rule="evenodd" stroke="none" stroke-width="1" d="m 40.481863,36.421127 a 15.644737,8.3968973 0 1 1 -31.2894745,0 15.644737,8.3968973 0 1 1 31.2894745,0 z" display="inline" opacity=".141" overflow="visible" transform="matrix(0.52995454,0,0,-0.65783905,0.487385,48.935435)" visibility="visible" style="marker:none"/></g></g><path id="path3503-0-5" fill="url(#linearGradient843)" fill-opacity="1" fill-rule="nonzero" stroke="none" stroke-dasharray="none" stroke-dashoffset="0" stroke-linecap="butt" stroke-linejoin="round" stroke-miterlimit="7" stroke-opacity="1" stroke-width=".964" d="M 87.903212,103.51805 C 123.85466,79.311512 103.57265,34.763309 63.499993,35.128003 l 0,-20.646051 -48.018031,35.573889 48.018031,35.396912 0,-20.646052 c 25.845255,-0.999749 41.586727,21.820858 23.109982,38.711349 z" display="block" overflow="visible" visibility="visible" style="marker:none"/><path stroke-opacity="1" style="marker:none" id="path3505-4-9" fill="none" stroke="url(#linearGradient3269)" stroke-dasharray="none" stroke-dashoffset="0" stroke-linecap="butt" stroke-linejoin="miter" stroke-miterlimit="7" stroke-width=".964" d="M 91.791574,99.698872 C 119.192,74.840899 102.94241,35.985332 62.499997,35.985332 l 0,-19.462637 -45.234338,33.533146 45.234338,33.450678 0,-19.794246 c 31.84665,-0.727875 38.277093,23.305505 29.291577,35.986599 z" display="block" opacity=".53" overflow="visible" visibility="visible"/><path id="path3503-0-5-6" fill="none" fill-opacity="1" fill-rule="nonzero" stroke="#7239b3" stroke-dasharray="none" stroke-dashoffset="0" stroke-linecap="butt" stroke-linejoin="round" stroke-miterlimit="4" stroke-opacity="1" stroke-width="1" d="M 87.903212,103.51805 C 123.85466,79.311515 103.57265,34.763312 63.499993,35.128006 l 0,-20.646051 -48.018031,35.573889 48.018031,35.396912 0,-20.646052 c 25.845255,-0.999749 41.586727,21.820858 23.109982,38.711346 z" clip-rule="nonzero" color="#000" color-interpolation="sRGB" color-interpolation-filters="linearRGB" color-rendering="auto" display="inline" enable-background="accumulate" image-rendering="auto" opacity=".5" overflow="visible" shape-rendering="auto" text-rendering="auto" visibility="visible" style="marker:none;isolation:auto;mix-blend-mode:normal;solid-color:#000;solid-opacity:1;filter-blend-mode:normal;filter-gaussianBlur-deviation:0"/></svg>