<svg xmlns="http://www.w3.org/2000/svg" xmlns:svg="http://www.w3.org/2000/svg" xmlns:xlink="http://www.w3.org/1999/xlink" id="svg3992" width="48" height="48" version="1.1"><defs id="defs3994"><linearGradient id="linearGradient3036" x1="24" x2="24" y1="5" y2="43" gradientTransform="translate(3.7e-6,1.00001)" gradientUnits="userSpaceOnUse" xlink:href="#linearGradient3924-9"/><linearGradient id="linearGradient3924-9"><stop id="stop3926-2" offset="0" stop-color="#fff" stop-opacity="1"/><stop id="stop3928-2" offset=".063" stop-color="#fff" stop-opacity=".235"/><stop id="stop3930-6" offset=".951" stop-color="#fff" stop-opacity=".157"/><stop id="stop3932-1" offset="1" stop-color="#fff" stop-opacity=".392"/></linearGradient><linearGradient id="linearGradient3049" x1="12.455" x2="14.841" y1="5.911" y2="21.719" gradientTransform="matrix(0.82498024,0,0,1.3012336,4.1618797,-1.4329212)" gradientUnits="userSpaceOnUse" xlink:href="#linearGradient8265-821-176-38-919-66-249-7-7-6"/><linearGradient id="linearGradient8265-821-176-38-919-66-249-7-7-6"><stop id="stop2687-1-9-9" offset="0" stop-color="#999" stop-opacity=".911"/><stop id="stop2689-5-4-2" offset="1" stop-color="#515151" stop-opacity=".645"/></linearGradient><radialGradient id="radialGradient3052" cx="23.918" cy="10.764" r="20" fx="23.918" fy="10.764" gradientTransform="matrix(3.9416817,-6.5239132e-8,-3.8156188e-8,1.7523153,-70.276667,29.216477)" gradientUnits="userSpaceOnUse" xlink:href="#linearGradient2867-449-88-871-390-598-476-591-434-148-57-177-1"/><linearGradient id="linearGradient2867-449-88-871-390-598-476-591-434-148-57-177-1"><stop id="stop3752-9" offset="0" stop-color="#6a6a6a" stop-opacity="1"/><stop id="stop3754-4" offset=".705" stop-color="#303030" stop-opacity="1"/><stop id="stop3756-7" offset="1" stop-color="#212121" stop-opacity="1"/></linearGradient><linearGradient id="linearGradient3054" x1="7.797" x2="7.797" y1="44.293" y2="4.241" gradientTransform="translate(1.2e-6,1)" gradientUnits="userSpaceOnUse" xlink:href="#linearGradient3707-319-631-407-324-84-4-00"/><linearGradient id="linearGradient3707-319-631-407-324-84-4-00"><stop id="stop3760-5-17-2" offset="0" stop-color="#252525" stop-opacity="1"/><stop id="stop3762-0-1-9" offset="1" stop-color="#464646" stop-opacity="1"/></linearGradient><radialGradient id="radialGradient3013" cx="4.993" cy="43.5" r="2.5" fx="4.993" fy="43.5" gradientTransform="matrix(2.003784,0,0,1.4,27.98813,-17.4)" gradientUnits="userSpaceOnUse" xlink:href="#linearGradient3688-166-749"/><linearGradient id="linearGradient3688-166-749"><stop id="stop2883" offset="0" stop-color="#181818" stop-opacity="1"/><stop id="stop2885" offset="1" stop-color="#181818" stop-opacity="0"/></linearGradient><radialGradient id="radialGradient3015" cx="4.993" cy="43.5" r="2.5" fx="4.993" fy="43.5" gradientTransform="matrix(2.003784,0,0,1.4,-20.01187,-104.4)" gradientUnits="userSpaceOnUse" xlink:href="#linearGradient3688-464-309"/><linearGradient id="linearGradient3688-464-309"><stop id="stop2889" offset="0" stop-color="#181818" stop-opacity="1"/><stop id="stop2891" offset="1" stop-color="#181818" stop-opacity="0"/></linearGradient><linearGradient id="linearGradient3702-501-757"><stop id="stop2895" offset="0" stop-color="#181818" stop-opacity="0"/><stop id="stop2897" offset=".5" stop-color="#181818" stop-opacity="1"/><stop id="stop2899" offset="1" stop-color="#181818" stop-opacity="0"/></linearGradient><linearGradient id="linearGradient3990" x1="25.058" x2="25.058" y1="47.028" y2="39.999" gradientUnits="userSpaceOnUse" xlink:href="#linearGradient3702-501-757"/></defs><metadata id="metadata3997"/><g id="layer1"><g id="g3712" opacity=".4" transform="matrix(1.1578952,0,0,0.57142859,-3.789484,19.142856)"><rect id="rect2801" width="5" height="7" x="38" y="40" fill="url(#radialGradient3013)" fill-opacity="1" stroke="none"/><rect id="rect3696" width="5" height="7" x="-10" y="-47" fill="url(#radialGradient3015)" fill-opacity="1" stroke="none" transform="scale(-1,-1)"/><rect id="rect3700" width="28" height="7" x="10" y="40" fill="url(#linearGradient3990)" fill-opacity="1" stroke="none"/></g><rect id="rect5505-21" width="39" height="39" x="4.5" y="5.5" fill="url(#radialGradient3052)" fill-opacity="1" fill-rule="nonzero" stroke="url(#linearGradient3054)" stroke-dasharray="none" stroke-dashoffset="0" stroke-linecap="round" stroke-linejoin="round" stroke-miterlimit="4" stroke-opacity="1" stroke-width="1" color="#000" display="inline" enable-background="accumulate" overflow="visible" rx="2" ry="2" visibility="visible" style="marker:none"/><path id="path3333-5" fill="url(#linearGradient3049)" fill-opacity="1" fill-rule="evenodd" stroke="none" d="M 6.2169167,6 C 5.5377266,6 5,6.9124652 5,7.8 L 5.0126445,30 C 6.1058123,29.975834 42.170261,21.153092 43,20.728709 L 43,7.8 C 43,7.1215957 42.468817,6 41.88071,6 L 6.2169214,6 z"/><rect id="rect6741-1" width="37" height="37" x="5.5" y="6.5" fill="none" stroke="url(#linearGradient3036)" stroke-dasharray="none" stroke-dashoffset="0" stroke-linecap="round" stroke-linejoin="round" stroke-miterlimit="4" stroke-opacity="1" stroke-width="1" opacity=".5" rx="1" ry="1"/><path id="rect3828-3" fill="#333" fill-opacity="1" stroke="none" stroke-width="1" d="m 24,10 0,4 1,0 0,-4 -1,0 z m -12,1 0,1 2,0 0,-1 -2,0 z m 2,1 0,4 1,0 0,-4 -1,0 z m 0,4 -2,0 0,1 2,0 0,-1 z m -2,0 0,-4 -1,0 0,4 1,0 z m 22,-5 0,1 1,0 0,4 -1,0 0,1 3,0 0,-1 -1,0 0,-4 0,-1 -2,0 z m -10,6 0,4 1,0 0,-4 -1,0 z m -16,6 0,8 2,0 0,-8 -2,0 z m 16,1 0,4 1,0 0,-4 -1,0 z m -8,6 0,2 2,0 0,-2 -2,0 z m 8,1 0,4 1,0 0,-4 -1,0 z m 14,0 0,8 2,0 0,-8 -2,0 z m -14,7 0,4 1,0 0,-4 -1,0 z" color="#000" display="inline" enable-background="accumulate" overflow="visible" visibility="visible" style="marker:none"/><path id="rect3828" fill="#fff" fill-opacity="1" stroke="none" stroke-width="1" d="m 24,9 0,4 1,0 0,-4 -1,0 z m -12,1 0,1 2,0 0,-1 -2,0 z m 2,1 0,4 1,0 0,-4 -1,0 z m 0,4 -2,0 0,1 2,0 0,-1 z m -2,0 0,-4 -1,0 0,4 1,0 z m 22,-5 0,1 1,0 0,4 -1,0 0,1 3,0 0,-1 -1,0 0,-4 0,-1 -2,0 z m -10,6 0,4 1,0 0,-4 -1,0 z m -16,6 0,8 2,0 0,-8 -2,0 z m 16,1 0,4 1,0 0,-4 -1,0 z m -8,6 0,2 2,0 0,-2 -2,0 z m 8,1 0,4 1,0 0,-4 -1,0 z m 14,0 0,8 2,0 0,-8 -2,0 z m -14,7 0,4 1,0 0,-4 -1,0 z" color="#000" display="inline" enable-background="accumulate" overflow="visible" visibility="visible" style="marker:none"/></g></svg>