<svg xmlns="http://www.w3.org/2000/svg" xmlns:svg="http://www.w3.org/2000/svg" xmlns:xlink="http://www.w3.org/1999/xlink" id="svg11300" width="48" height="48" version="1.0"><metadata id="metadata72"/><defs id="defs3"><linearGradient id="linearGradient6975"><stop id="stop6977" offset="0" stop-color="#000" stop-opacity="1"/><stop id="stop6979" offset="1" stop-color="#000" stop-opacity="0"/></linearGradient><linearGradient id="linearGradient6651"><stop id="stop6653" offset="0" stop-color="#f2f2f2" stop-opacity="1"/><stop id="stop6655" offset="1" stop-color="#c3c3c3" stop-opacity="1"/></linearGradient><linearGradient id="linearGradient4103"><stop id="stop4105" offset="0" stop-color="#edd563" stop-opacity="1"/><stop id="stop4107" offset="1" stop-color="#e08223" stop-opacity="1"/></linearGradient><radialGradient id="radialGradient8402" cx="26.782" cy="42.343" r="14.407" gradientTransform="matrix(1,0,0,0.28221,0,30.394)" gradientUnits="userSpaceOnUse" xlink:href="#linearGradient6975"/><linearGradient id="linearGradient8408" x1="52.718" x2="67.466" y1="2.316" y2="2.316" gradientTransform="matrix(0.86248,0,0,0.58072,-16.257,11.013)" gradientUnits="userSpaceOnUse" xlink:href="#linearGradient4103"/><linearGradient id="linearGradient8410" x1="53.169" x2="69.691" y1="24.245" y2="24.245" gradientTransform="matrix(0.71944,0,0,0.71891,-7.6963,9.4717)" gradientUnits="userSpaceOnUse" xlink:href="#linearGradient6651"/><linearGradient id="linearGradient8412" x1="61.872" x2="61.872" y1="29.615" y2="41.459" gradientTransform="matrix(0.88862,0,0,0.71891,-18.298,9.4717)" gradientUnits="userSpaceOnUse"><stop id="stop6631" offset="0" stop-color="#aeaeae" stop-opacity="1"/><stop id="stop6633" offset="1" stop-color="#c4c4c4" stop-opacity="0"/></linearGradient><linearGradient id="linearGradient8414" x1="42.816" x2="54.065" y1="64.564" y2="64.52" gradientTransform="matrix(0.70375,0,0,0.71891,-1.0447,-22.425)" gradientUnits="userSpaceOnUse" xlink:href="#linearGradient4103"/><linearGradient id="linearGradient8418" x1="60.169" x2="60.441" y1="40.12" y2="43.87" gradientTransform="matrix(0.73731,0,0,0.77085,-8.532,7.1216)" gradientUnits="userSpaceOnUse" xlink:href="#linearGradient6651"/><linearGradient id="linearGradient8420" x1="48.25" x2="48.25" y1="52" y2="74.5" gradientTransform="matrix(0.71891,0,0,0.71891,-1.8971,-20.686)" gradientUnits="userSpaceOnUse"><stop id="stop6837" offset="0" stop-color="#fff" stop-opacity="1"/><stop id="stop6839" offset="1" stop-color="#fff" stop-opacity="0"/></linearGradient><linearGradient id="linearGradient6474" x1="29.143" x2="42" y1="11.359" y2="11.359" gradientUnits="userSpaceOnUse"><stop id="stop6470" offset="0" stop-color="#cd8033" stop-opacity="1"/><stop id="stop6472" offset="1" stop-color="#bb5e12" stop-opacity="1"/></linearGradient><linearGradient id="linearGradient5652" x1="13.236" x2="7.752" y1="37.752" y2="42.282" gradientTransform="matrix(0.8523,0,0,0.85278,-0.43282,5.3593)" gradientUnits="userSpaceOnUse"><stop id="stop2448" offset="0" stop-color="#fff" stop-opacity="1"/><stop id="stop2450" offset="1" stop-color="#fff" stop-opacity="0"/></linearGradient><radialGradient id="radialGradient5658" cx="15.415" cy="35.357" r="7.579" gradientTransform="matrix(0.99466,0,0,0.96987,-3.3407,1.7693)" gradientUnits="userSpaceOnUse"><stop id="stop6965" offset="0" stop-color="#696969" stop-opacity="1"/><stop id="stop6967" offset="1" stop-color="#000" stop-opacity="1"/></radialGradient><linearGradient id="linearGradient5662" x1="19.395" x2="23.109" y1="30.001" y2="33.439" gradientTransform="matrix(1,0,0,1.0006,-2.6647,-0.20063)" gradientUnits="userSpaceOnUse"><stop id="stop6941" offset="0" stop-color="#bdbdbd" stop-opacity="1"/><stop id="stop6947" offset=".333" stop-color="#e2e2e2" stop-opacity="1"/><stop id="stop6949" offset=".667" stop-color="#a3a3a3" stop-opacity="1"/><stop id="stop6943" offset="1" stop-color="#ddd" stop-opacity="1"/></linearGradient><linearGradient id="linearGradient5665" x1="28.059" x2="33.437" y1="18.868" y2="23.743" gradientTransform="matrix(1,0,0,1.0006,-2.6647,-0.20063)" gradientUnits="userSpaceOnUse"><stop id="stop6953" offset="0" stop-color="#6e3d09" stop-opacity="1"/><stop id="stop6959" offset=".242" stop-color="#ea8113" stop-opacity="1"/><stop id="stop6961" offset=".621" stop-color="#5c3307" stop-opacity="1"/><stop id="stop6955" offset="1" stop-color="#e07c12" stop-opacity="1"/></linearGradient><radialGradient id="radialGradient6440" cx="31.411" cy="20.34" r="7.989" gradientTransform="matrix(1,0,0,1.5787,0,-15.431)" gradientUnits="userSpaceOnUse"><stop id="stop5115" offset="0" stop-color="#fff" stop-opacity="1"/><stop id="stop5117" offset="1" stop-color="#fff" stop-opacity="0"/></radialGradient></defs><path id="path6901" fill="url(#radialGradient8402)" d="m 41.189,42.343 c 0,2.2455 -6.4504,4.0659 -14.407,4.0659 -7.9569,0 -14.407,-1.8203 -14.407,-4.0659 0,-2.2455 6.4504,-4.0659 14.407,-4.0659 7.9569,0 14.407,1.8203 14.407,4.0659 z" opacity=".3" transform="matrix(0.93702,0,0,0.98435,9.4049,0.31707)"/><path id="path6937" fill="url(#linearGradient5665)" stroke="#673907" stroke-linecap="round" stroke-width="1" d="m 20.894,24.203 4.0659,3.8028 c 7.1875,-7.0665 17.783,-23.991 17.783,-23.991 0.42949,-1.2251 -1.0872,-1.997 -1.8464,-1.1712 0,0 -13.69,14.105 -20.003,21.359 z"/><path id="path6935" fill="url(#linearGradient5662)" stroke="#787a75" stroke-linecap="round" stroke-width="1" d="m 13.293,34.436 2.2463,1.9349 8.4928,-7.3712 0.27506,-0.70623 1.0944,-0.01782 c -0.4375,-1.5634 -2.9415,-4.3859 -4.8165,-4.3859 l 0.08202,1.0907 -0.66999,0.38024 -6.7041,9.0753 z"/><path id="path6973" fill="url(#radialGradient8402)" d="m 41.189,42.343 c 0,2.2455 -6.4504,4.0659 -14.407,4.0659 -7.9569,0 -14.407,-1.8203 -14.407,-4.0659 0,-2.2455 6.4504,-4.0659 14.407,-4.0659 7.9569,0 14.407,1.8203 14.407,4.0659 z" opacity=".2" transform="matrix(1.2282,0,0,0.98436,-15.198,-0.68351)"/><path id="path6933" fill="url(#radialGradient5658)" d="m 3,42.35 c 6.6053,0 11.618,0.78704 12.567,-4.0213 C 16.33179,34.4538 11.0067,32.5971 8.3679,36.0564 5.8261,39.3894 3,42.3504 3,42.3504 z"/><path id="path6971" fill="#fff" d="m 8.875,37.75 c 1.953e-4,0.69049 -0.55951,1.2504 -1.25,1.2504 -0.69049,0 -1.2502,-0.55986 -1.25,-1.2504 -1.953e-4,-0.69049 0.55951,-1.2504 1.25,-1.2504 0.69049,0 1.2502,0.55986 1.25,1.2504 z" opacity=".528" transform="matrix(0.8523,0,0,0.85278,4.9758,4.1803)"/><path id="path6983" fill="#fff" d="m 8.875,37.75 c 1.953e-4,0.69049 -0.55951,1.2504 -1.25,1.2504 -0.69049,0 -1.2502,-0.55986 -1.25,-1.2504 -1.953e-4,-0.69049 0.55951,-1.2504 1.25,-1.2504 0.69049,0 1.2502,0.55986 1.25,1.2504 z" opacity=".6" transform="matrix(0.78787,0,0,0.78831,15.508,-3.1228)"/><path id="path6985" fill="none" stroke="#fff" stroke-linecap="round" stroke-linejoin="round" stroke-width="1" d="m 20.184,28.016 -5.3033,6.1465" opacity=".6"/><path id="path1571" fill="url(#linearGradient5652)" d="m 4.3132,41.695 c 0,0 3.3411,-1.6427 4.7648,-4.0891 0.50371,-0.86552 1.6444,-0.12691 0.94167,0.73491 -1.5178,1.8615 -5.7065,3.3542 -5.7065,3.3542 z" opacity=".428"/><path id="path2454" fill="#fff" d="m 8.875,37.75 c 1.953e-4,0.69049 -0.55951,1.2504 -1.25,1.2504 -0.69049,0 -1.2502,-0.55986 -1.25,-1.2504 -1.953e-4,-0.69049 0.55951,-1.2504 1.25,-1.2504 0.69049,0 1.2502,0.55986 1.25,1.2504 z" opacity=".533" transform="matrix(0.23787,0,0,0.238,39.676,-5.5018)"/><g id="g7038" transform="matrix(1,0,0,1.0006,-1.9872,2.0113)"><path id="path6659" fill="url(#linearGradient8408)" stroke="url(#linearGradient6474)" stroke-linecap="round" d="m 35.127,7.3501 c -3.0579,0.087289 -5.4844,1.0561 -5.4844,2.2243 v 3.5701 c 0,1.2257 2.6709,2.2243 5.9414,2.2243 3.2705,0 5.916,-0.99863 5.916,-2.2243 V 9.5744 c 0,-1.2257 -2.6455,-2.2243 -5.916,-2.2243 -0.1533,0 -0.30665,-0.00429 -0.45703,0 z"/><path id="path6729" fill="#cd8033" d="m 57.375,49.75 c 0,0.82843 -2.4065,1.5 -5.375,1.5 -2.9685,0 -5.375,-0.67157 -5.375,-1.5 0,-0.82843 2.4065,-1.5 5.375,-1.5 2.9685,0 5.375,0.67157 5.375,1.5 z" transform="matrix(0.88628,0,0,0.46891,-10.444,-9.7189)"/><path id="path6617" fill="url(#linearGradient8410)" stroke="#787878" stroke-linecap="round" d="m 27.926,39.155 1.047,-21.349 2.4866,-3.6635 c 1.9713,-0.63544 6.7264,-0.63544 8.5069,0 l 2.4866,3.0319 2.6175,22.486 -17.145,-0.50531 z"/><path id="path6619" fill="url(#linearGradient8412)" d="m 28.828,38.896 c 0,0 2.5907,-9.5315 7.5402,-9.5315 5.1066,0 8.1685,9.9128 8.1685,9.9128 l -15.709,-0.381 z"/><path id="path6641" fill="url(#linearGradient8414)" d="m 29.377,20.499 -0.28967,6.4747 c 1.6274,-1.0784 11.739,-1.2645 14.041,0.38765 l -0.687,-6.598 c -1.368,-0.953 -10.359,-1.478 -13.064,-0.265 z"/><path id="path6670" fill="none" stroke="url(#radialGradient6440)" stroke-linecap="round" d="m 29.049,38.222 0.8775,-20.194 1.84,-3.0328 c 1.8186,-0.59218 6.2053,-0.59218 7.8478,0 l 1.961,2.533 2.452,21.248 -14.978,-0.554 z" opacity=".6"/><rect id="rect5742" width="19.974" height="3.928" x="26.513" y="37.536" fill="url(#linearGradient8418)" stroke="#787878" stroke-linecap="round" rx=".884" ry=".884"/><path id="path6668" fill="#f0f0f0" d="m 29.395,17.996 c 1.8745,-1.3662 9.0979,-1.6552 12.72,-0.6067 l -2.3374,-2.8856 c -2.4782,-0.66721 -5.9243,-0.37577 -8.2755,0.06904 l -2.1071,3.4233 z"/><path id="path6833" fill="url(#linearGradient8420)" d="m 31.173,17.416 v 15.457 l 3.2351,-3.5946 -0.35946,-12.581 -2.8757,0.71891 z" opacity=".6"/><g id="g7033" opacity=".578"><path id="path6666" fill="#e6e7e6" d="m 31.009,9.381 v 3.24 c 0,0 0.61119,-0.34769 0.99061,-0.36132 v -3.26 C 31.51804,9.069143 31.009,9.38065 31.009,9.38065 z" opacity=".411"/><path id="path7029" fill="#e6e7e6" d="M 33.009,8.76 V 12 c 0,0 0.61119,-0.08252 0.99061,-0.09616 V 8.58894 C 33.48801,8.614745 33.009,8.75999 33.009,8.75999 z"/><path id="path7031" fill="#e6e7e6" d="m 35.009,8.5611 v 3.2953 c 0,0 0.55595,-0.0052 0.99061,0.01433 v -3.337 C 35.49906,8.482195 35.009,8.56115 35.009,8.56115 z" opacity=".444"/></g></g></svg>