<svg xmlns="http://www.w3.org/2000/svg" xmlns:svg="http://www.w3.org/2000/svg" xmlns:xlink="http://www.w3.org/1999/xlink" id="svg5954" width="48" height="48" version="1.0"><metadata id="metadata187"/><defs id="defs5956"><radialGradient id="radialGradient5928" cx="605.71" cy="486.65" r="117.14" gradientTransform="matrix(0.062854,0,0,0.020588,1.295,34.451)" gradientUnits="userSpaceOnUse" xlink:href="#linearGradient5060"/><linearGradient id="linearGradient5048"><stop id="stop5050" offset="0" stop-color="#000" stop-opacity="0"/><stop id="stop5056" offset=".5" stop-color="#000" stop-opacity="1"/><stop id="stop5052" offset="1" stop-color="#000" stop-opacity="0"/></linearGradient><linearGradient id="linearGradient5931" x1="302.86" x2="302.86" y1="366.65" y2="609.51" gradientTransform="matrix(0.062854,0,0,0.020588,1.2826,34.451)" gradientUnits="userSpaceOnUse" xlink:href="#linearGradient5048"/><linearGradient id="linearGradient5060"><stop id="stop5062" offset="0" stop-color="#000" stop-opacity="1"/><stop id="stop5064" offset="1" stop-color="#000" stop-opacity="0"/></linearGradient><radialGradient id="radialGradient5934" cx="605.71" cy="486.65" r="117.14" gradientTransform="matrix(-0.062854,0,0,0.020588,46.705,34.451)" gradientUnits="userSpaceOnUse" xlink:href="#linearGradient5060"/><linearGradient id="linearGradient5809" x1="8.563" x2="8.563" y1="4.647" y2="45.818" gradientTransform="translate(-52,7)" gradientUnits="userSpaceOnUse"><stop id="stop18346" offset="0" stop-color="#2f3537" stop-opacity="1"/><stop id="stop18354" offset=".3" stop-color="#8a8e8e" stop-opacity="1"/><stop id="stop18348" offset="1" stop-color="#2f3537" stop-opacity="1"/></linearGradient><radialGradient id="radialGradient5807" cx="76.166" cy="14.782" r="21" gradientTransform="matrix(4.2066,1.9379e-8,0,0.1402,-296.24,17.116)" gradientUnits="userSpaceOnUse"><stop id="stop5430" offset="0" stop-color="#7a7c7c" stop-opacity="1"/><stop id="stop5432" offset="1" stop-color="#33393a" stop-opacity="1"/></radialGradient><linearGradient id="linearGradient5925" x1="697.91" x2="700.41" y1="327.78" y2="496.34" gradientTransform="matrix(0.15392,0,0,0.1533,-86.754,-31.25)" gradientUnits="userSpaceOnUse"><stop id="stop25795" offset="0" stop-color="#f0f0f4" stop-opacity="1"/><stop id="stop25819" offset=".037" stop-color="#eeeeec" stop-opacity="1"/><stop id="stop25817" offset=".393" stop-color="#eeeeec" stop-opacity=".696"/><stop id="stop25803" offset=".908" stop-color="#a1a29f" stop-opacity="1"/><stop id="stop25799" offset="1" stop-color="#555753" stop-opacity="1"/></linearGradient><radialGradient id="radialGradient5813" cx="400.3" cy="127.65" r="2.022" gradientTransform="matrix(1.0867,3.1905e-5,-1.4474e-5,0.51097,-405.47,-42.409)" gradientUnits="userSpaceOnUse"><stop id="stop26818" offset="0" stop-color="#fff" stop-opacity="1"/><stop id="stop26820" offset="1" stop-color="#eeeeec" stop-opacity="0"/></radialGradient><radialGradient id="radialGradient5815" cx="399.88" cy="127.25" r="2.022" gradientTransform="matrix(0.942,-0.093118,0.12194,0.43761,-362.49,4.8425)" gradientUnits="userSpaceOnUse"><stop id="stop26832" offset="0" stop-color="#fff" stop-opacity="1"/><stop id="stop26834" offset="1" stop-color="#fff" stop-opacity="0"/></radialGradient><radialGradient id="radialGradient5821" cx="427.8" cy="33.605" r="74.908" gradientTransform="matrix(-0.44827,0.10225,-0.081708,-0.35819,231.54,-7.9557)" gradientUnits="userSpaceOnUse"><stop id="stop18405" offset="0" stop-color="#eeeeec" stop-opacity="1"/><stop id="stop18407" offset="1" stop-color="#eeeeec" stop-opacity="0"/></radialGradient><radialGradient id="radialGradient5823" cx="502.53" cy="217.46" r="74.908" gradientTransform="matrix(0.10492,-0.072831,0.035871,0.057009,-24.172,61.542)" gradientUnits="userSpaceOnUse"><stop id="stop26170" offset="0" stop-color="#eeeeec" stop-opacity="1"/><stop id="stop26172" offset="1" stop-color="#eeeeec" stop-opacity="0"/></radialGradient><radialGradient id="radialGradient5825" cx="459.45" cy="170.41" r="74.908" gradientTransform="matrix(0.15094,-2.3254e-8,1.3013e-8,0.12469,-39.412,10.189)" gradientUnits="userSpaceOnUse"><stop id="stop26130" offset="0" stop-color="#eeeeec" stop-opacity=".953"/><stop id="stop26146" offset=".48" stop-color="#eeeeec" stop-opacity="0"/><stop id="stop26148" offset=".523" stop-color="#eeeeec" stop-opacity=".993"/><stop id="stop26132" offset=".632" stop-color="#eeeeec" stop-opacity="0"/><stop id="stop26134" offset=".738" stop-color="#eeeeec" stop-opacity=".235"/><stop id="stop26136" offset=".834" stop-color="#fff" stop-opacity=".716"/><stop id="stop26142" offset=".905" stop-color="#f6f6f5" stop-opacity=".27"/><stop id="stop26144" offset=".905" stop-color="#f2f2f0" stop-opacity=".277"/><stop id="stop26138" offset="1" stop-color="#eeeeec" stop-opacity="0"/></radialGradient><radialGradient id="radialGradient5827" cx="449.88" cy="165.52" r="74.908" gradientTransform="matrix(0,-0.096503,0.10561,0,12.521,73.487)" gradientUnits="userSpaceOnUse"><stop id="stop26023" offset="0" stop-color="#eeeeec" stop-opacity="0"/><stop id="stop26029" offset=".867" stop-color="#eeeeec" stop-opacity=".498"/><stop id="stop26025" offset="1" stop-color="#eeeeec" stop-opacity="0"/></radialGradient><radialGradient id="radialGradient5829" cx="529.4" cy="95.382" r="74.908" gradientTransform="matrix(0,0.10037,-0.10096,0,39.63,-21.627)" gradientUnits="userSpaceOnUse"><stop id="stop26122" offset="0" stop-color="#2e3436" stop-opacity="0"/><stop id="stop26124" offset=".473" stop-color="#2e3436" stop-opacity="0"/><stop id="stop26126" offset="1" stop-color="#0f1112" stop-opacity="1"/></radialGradient><linearGradient id="linearGradient5831" x1="469.36" x2="280.02" y1="126.84" y2="225.83" gradientTransform="matrix(0.093448,0,0,0.13038,-12.724,8.5567)" gradientUnits="userSpaceOnUse" xlink:href="#linearGradient26075"/><linearGradient id="linearGradient26075"><stop id="stop26077" offset="0" stop-color="#555753" stop-opacity="0"/><stop id="stop26079" offset="1" stop-color="#eeeeec" stop-opacity="1"/></linearGradient><radialGradient id="radialGradient5833" cx="344.26" cy="218.66" r="74.908" gradientTransform="matrix(-0.013724,-0.24747,0.093642,-0.0055498,14.249,119.4)" gradientUnits="userSpaceOnUse" xlink:href="#linearGradient26075"/><radialGradient id="radialGradient5835" cx="469.91" cy="131.83" r="74.908" gradientTransform="matrix(-0.14051,-0.13746,0.12306,-0.13043,83.417,105.47)" gradientUnits="userSpaceOnUse" xlink:href="#linearGradient8660"/><radialGradient id="radialGradient5839" cx="441.36" cy="130.89" r="75.756" gradientTransform="matrix(-0.012867,-0.088952,0.29168,-0.044437,-2.4991,72.075)" gradientUnits="userSpaceOnUse"><stop id="stop8692" offset="0" stop-color="#3a3a3a" stop-opacity="1"/><stop id="stop8694" offset="1" stop-color="#3a3a3a" stop-opacity="0"/></radialGradient><linearGradient id="linearGradient8660"><stop id="stop8662" offset="0" stop-color="#2e3436" stop-opacity="1"/><stop id="stop8664" offset="1" stop-color="#555753" stop-opacity="0"/></linearGradient><radialGradient id="radialGradient5837" cx="434.13" cy="98.975" r="74.908" gradientTransform="matrix(-0.15022,0.15417,-0.1987,-0.20393,114.88,-19.249)" gradientUnits="userSpaceOnUse" xlink:href="#linearGradient8660"/><linearGradient id="linearGradient5904" x1="457.2" x2="457.2" y1="289.78" y2="114.23" gradientTransform="matrix(0.072459,0,0,0.10109,-3.1277,16.598)" gradientUnits="userSpaceOnUse"><stop id="stop26093" offset="0" stop-color="#2e3436" stop-opacity="1"/><stop id="stop26095" offset="1" stop-color="#fff" stop-opacity="1"/></linearGradient><radialGradient id="radialGradient5902" cx="439.05" cy="111.3" r="75.752" gradientTransform="matrix(0.071034,-0.056703,0.11549,0.15363,-16.57,39.166)" gradientUnits="userSpaceOnUse"><stop id="stop26101" offset="0" stop-color="#eeeeec" stop-opacity="1"/><stop id="stop26103" offset="1" stop-color="#babdb6" stop-opacity="1"/></radialGradient><linearGradient id="linearGradient5898" x1="236.75" x2="222.73" y1="171.62" y2="179.04" gradientTransform="matrix(0.13883,0,0,0.13367,-3.4886,10.255)" gradientUnits="userSpaceOnUse" xlink:href="#linearGradient9688"/><radialGradient id="radialGradient5895" cx="251.69" cy="171.79" r="21.531" gradientTransform="matrix(0.040643,-0.16438,0.25253,0.063961,-20.112,66.502)" gradientUnits="userSpaceOnUse"><stop id="stop9787" offset="0" stop-color="#eeeeec" stop-opacity="1"/><stop id="stop9789" offset="1" stop-color="#090908" stop-opacity=".966"/></radialGradient><linearGradient id="linearGradient9688"><stop id="stop9690" offset="0" stop-color="#eeeeec" stop-opacity="1"/><stop id="stop9692" offset="1" stop-color="#fff" stop-opacity="0"/></linearGradient><radialGradient id="radialGradient5891" cx="258.76" cy="183.64" r="18.578" gradientTransform="matrix(0.17369,-0.0023476,0.0017845,0.13208,-12.713,11.071)" gradientUnits="userSpaceOnUse" xlink:href="#linearGradient9688"/><radialGradient id="radialGradient5851" cx="442.29" cy="62.526" r="77.923" gradientTransform="matrix(-1.3017e-5,-1.3896,0.25862,0,13.835,645.6)" gradientUnits="userSpaceOnUse"><stop id="stop26373" offset="0" stop-color="#777" stop-opacity="0"/><stop id="stop26375" offset="1" stop-color="#2b2b2b" stop-opacity="1"/></radialGradient><linearGradient id="linearGradient5853" x1="21.568" x2="24.082" y1="21.016" y2="26.868" gradientTransform="matrix(1.0732,0,0,1.0757,4.153,-3.3148)" gradientUnits="userSpaceOnUse" xlink:href="#linearGradient5895"/><filter id="filter9094" width="1.682" height="1.682" x="-.341" y="-.341" color-interpolation-filters="sRGB"><feGaussianBlur id="feGaussianBlur9096" stdDeviation=".286"/></filter><linearGradient id="linearGradient5895"><stop id="stop5897" offset="0" stop-color="#888a85" stop-opacity="1"/><stop id="stop5899" offset="1" stop-color="#fff" stop-opacity="1"/></linearGradient><linearGradient id="linearGradient5855" x1="22.062" x2="24" y1="22.125" y2="24.938" gradientTransform="matrix(0.67368,0,0,0.67368,8.1325,7.0465)" gradientUnits="userSpaceOnUse" xlink:href="#linearGradient5895"/><linearGradient id="linearGradient5882" x1="5.335" x2="8.56" y1="29.18" y2="22.713" gradientTransform="matrix(1.1646,0,0,0.37791,29.282,11.163)" gradientUnits="userSpaceOnUse"><stop id="stop2232" offset="0" stop-color="#eee" stop-opacity="1"/><stop id="stop2234" offset="1" stop-color="#a2a2a2" stop-opacity="1"/></linearGradient><linearGradient id="linearGradient5880" x1="6.56" x2="6.56" y1="28.781" y2="30.191" gradientTransform="matrix(1.3054,0,0,0.96884,29.158,-7.1109)" gradientUnits="userSpaceOnUse"><stop id="stop3303" offset="0" stop-color="#fff" stop-opacity="1"/><stop id="stop3305" offset="1" stop-color="#d7dbc7" stop-opacity="1"/></linearGradient><radialGradient id="radialGradient5861" cx="9.119" cy="20.823" r="3.177" gradientTransform="matrix(0,-0.60512,2.7541,0,-42.501,25.185)" gradientUnits="userSpaceOnUse" xlink:href="#linearGradient17963"/><radialGradient id="radialGradient5863" cx="9.237" cy="17.109" r="2.961" gradientTransform="matrix(1.2675,-4.6716e-7,1.8899e-7,0.44533,3.2924,9.6308)" gradientUnits="userSpaceOnUse"><stop id="stop17943" offset="0" stop-color="#e9e9e9" stop-opacity="1"/><stop id="stop17945" offset="0" stop-color="#a7a7a7" stop-opacity="1"/><stop id="stop17947" offset=".529" stop-color="#bebebe" stop-opacity="1"/><stop id="stop17949" offset="1" stop-color="#e7e7e7" stop-opacity="1"/></radialGradient><linearGradient id="linearGradient17963"><stop id="stop17965" offset="0" stop-color="#dee3e0" stop-opacity="1"/><stop id="stop17967" offset="1" stop-color="#dee3e0" stop-opacity="0"/></linearGradient><radialGradient id="radialGradient5874" cx="14.739" cy="12.007" r=".547" gradientTransform="matrix(-3.3976e-6,-2.2552,3.3832,-5.402e-6,-25.82,51.247)" gradientUnits="userSpaceOnUse" xlink:href="#linearGradient17963"/><linearGradient id="linearGradient5870" x1="10.666" x2="11.692" y1="20.521" y2="53.914" gradientTransform="matrix(0.97498,0,0,0.9583,0.6005,0.33444)" gradientUnits="userSpaceOnUse"><stop id="stop5406" offset="0" stop-color="#fff" stop-opacity="1"/><stop id="stop5408" offset="1" stop-color="#fff" stop-opacity="0"/></linearGradient><radialGradient id="radialGradient5947" cx="171.25" cy="188.5" r="19" gradientTransform="matrix(0.23274,0,0,0.23274,-11.652,-11.876)" gradientUnits="userSpaceOnUse"><stop id="stop10697" offset="0" stop-color="#b100cb" stop-opacity="1"/><stop id="stop10699" offset="1" stop-color="#204a87" stop-opacity="0"/></radialGradient><linearGradient id="linearGradient2749" x1=".633" x2="79.104" y1="3.09" y2="170.29" gradientTransform="matrix(0.23554,0,5.2453e-8,0.20448,25.094,19.933)" gradientUnits="userSpaceOnUse" xlink:href="#linearGradient3997"/><linearGradient id="linearGradient3997"><stop id="stop3999" offset="0" stop-color="#f3f7fa" stop-opacity="1"/><stop id="stop4001" offset="1" stop-color="#fdfeff" stop-opacity="1"/></linearGradient><linearGradient id="linearGradient2751" x1="20.253" x2="5.525" y1="40.523" y2="11.735" gradientTransform="matrix(0.33339,0,0,0.33591,2.9802,-1.4923)" gradientUnits="userSpaceOnUse" xlink:href="#linearGradient4157-401"/><linearGradient id="linearGradient4157-401"><stop id="stop3688" offset="0" stop-color="#262626" stop-opacity="1"/><stop id="stop3690" offset="1" stop-color="#828282" stop-opacity="1"/></linearGradient><radialGradient id="radialGradient2753" cx="34.828" cy="65.617" r="42.271" gradientTransform="matrix(0.14818,0.010257,-0.0089468,0.13265,2.708,-1.8757)" gradientUnits="userSpaceOnUse" xlink:href="#linearGradient4342"/><linearGradient id="linearGradient4342"><stop id="stop4344" offset="0" stop-color="#6e8d5d" stop-opacity="1"/><stop id="stop4350" offset=".5" stop-color="#a2ac34" stop-opacity=".498"/><stop id="stop4352" offset=".75" stop-color="#cbbd40" stop-opacity=".247"/><stop id="stop4354" offset=".875" stop-color="#dbc146" stop-opacity=".122"/><stop id="stop4346" offset="1" stop-color="#ff480f" stop-opacity=".133"/></linearGradient><linearGradient id="linearGradient2755" x1=".633" x2="79.104" y1="3.09" y2="170.29" gradientTransform="matrix(0.23554,0,5.2453e-8,0.20448,-28.67,14.795)" gradientUnits="userSpaceOnUse" xlink:href="#linearGradient3997"/></defs><g id="g2738" transform="translate(56.753,-11.955)"><g id="g2637" transform="matrix(0.86603,-0.5,0.5,0.86603,-71.468,12.955)"><rect id="rect2629" width="20.904" height="20.912" x="23.64" y="25.625" fill="url(#linearGradient2749)" stroke="#909090" stroke-linecap="round" stroke-linejoin="round" stroke-opacity=".969" stroke-width="1.007" transform="matrix(1,-0.0017355,-0.0021096,1,0,0)"/><g id="g2631" transform="matrix(1.5596,0,0,1.5535,21.529,23.56)"><rect id="rect2633" width="10.867" height="9.622" x="2.578" y="2.567" fill="url(#linearGradient2751)" stroke="#333" stroke-linecap="round" stroke-linejoin="round" stroke-opacity=".969" stroke-width=".656" rx="0" ry="0" transform="matrix(1,-0.0017885,-0.002047,1,0,0)"/><rect id="rect2635" width="10.866" height="9.622" x="2.578" y="2.567" fill="url(#radialGradient2753)" opacity=".35" rx="0" ry="0" transform="matrix(1,-0.0017885,-0.002047,1,0,0)"/></g></g><rect id="rect2722" width="20.904" height="20.912" x="-30.124" y="20.487" fill="url(#linearGradient2755)" stroke="#909090" stroke-linecap="round" stroke-linejoin="round" stroke-opacity=".969" stroke-width="1.007" transform="matrix(1,-0.0017355,-0.0021096,1,0,0)"/><g id="g2724" transform="matrix(1.5596,0,0,1.5535,-32.224,18.515)"><rect id="rect2726" width="10.867" height="9.622" x="2.578" y="2.567" fill="url(#linearGradient2751)" stroke="#333" stroke-linecap="round" stroke-linejoin="round" stroke-opacity=".969" stroke-width=".656" rx="0" ry="0" transform="matrix(1,-0.0017885,-0.002047,1,0,0)"/><rect id="rect2728" width="10.866" height="9.622" x="2.578" y="2.567" fill="url(#radialGradient2753)" opacity=".35" rx="0" ry="0" transform="matrix(1,-0.0017885,-0.002047,1,0,0)"/></g></g><g id="layer1" transform="translate(-2,0)"><g id="g3072" opacity=".3" transform="matrix(0.66924,0,0,1,19.546,-15)"><path id="path3074" fill="url(#radialGradient5934)" d="m 8.8251,42 v 4.9997 C 5.5883,47.0087 1,45.8797 1,44.4997 c 0,-1.38 3.6121,-2.4995 7.8251,-2.4995 z"/><rect id="rect3076" width="30.35" height="5" x="8.825" y="42" fill="url(#linearGradient5931)"/><path id="path3078" fill="url(#radialGradient5928)" d="m 39.175,42 v 4.9997 c 3.2369,0.0094 7.8251,-1.1202 7.8251,-2.5002 C 47.0001,43.1195 43.388,42 39.175,42 z"/></g><g id="g5936" opacity=".3" transform="translate(0,-1)"><path id="path5387" fill="url(#radialGradient5934)" d="m 8.8251,42 v 4.9997 C 5.5883,47.0087 1,45.8797 1,44.4997 c 0,-1.38 3.6121,-2.4995 7.8251,-2.4995 z"/><rect id="rect5373" width="30.35" height="5" x="8.825" y="42" fill="url(#linearGradient5931)"/><path id="path5375" fill="url(#radialGradient5928)" d="m 39.175,42 v 4.9997 c 3.2369,0.0094 7.8251,-1.1202 7.8251,-2.5002 C 47.0001,43.1195 43.388,42 39.175,42 z"/></g><rect id="rect5438" width="40.99" height="26.99" x="3.505" y="16.505" fill="url(#radialGradient5807)" stroke="url(#linearGradient5809)" stroke-linecap="round" stroke-linejoin="round" stroke-width="1.01" rx="2.475" ry="2.1"/><rect id="rect5445" width="40" height="24" x="4" y="19" fill="url(#linearGradient5925)" rx="1.657" ry="1.657"/><path id="path5451" fill="url(#radialGradient5813)" d="m 32.24,21.383 a 2.7165,2.6372 0 0 1 -5.433,0 2.7165,2.6372 0 1 1 5.433,0 z" opacity=".272"/><path id="path5453" fill="url(#radialGradient5815)" d="m 32.227,22.661 a 2.70415,1.8094335 0 1 1 -5.4083,0 2.70415,1.8094335 0 1 1 5.4083,0 z"/><path id="path5463" fill="url(#radialGradient5821)" d="m 40,31 a 10,10 0 0 1 -20,0 10,10 0 1 1 20,0 z"/><path id="path5465" fill="#888a85" d="m 39,31 a 9,9 0 0 1 -18,0 9,9 0 1 1 18,0 z"/><path id="path5467" fill="url(#radialGradient5823)" d="m 41,31 a 11,11 0 0 1 -22,0 11,11 0 1 1 22,0 z"/><path id="path5469" fill="url(#radialGradient5825)" d="m 39.937,31.438 a 10,10 0 0 1 -20,0 10,10 0 1 1 20,0 z"/><path id="path5471" fill="url(#radialGradient5827)" d="m 38.069,30.663 a 8.0691,7.8189 0 0 1 -16.138,0 8.0691,7.8189 0 1 1 16.138,0 z"/><path id="path5473" fill="url(#radialGradient5829)" d="m 37,31 a 7,7 0 0 1 -14,0 7,7 0 1 1 14,0 z" opacity=".851"/><path id="path5475" fill="url(#linearGradient5831)" d="m 37,31 a 7,7 0 0 1 -14,0 7,7 0 1 1 14,0 z"/><path id="path5477" fill="url(#radialGradient5833)" d="m 37,32 a 7,7 0 0 1 -14,0 7,7 0 1 1 14,0 z"/><path id="path5479" fill="url(#radialGradient5835)" d="m 35.734,31.948 a 5.7665,6.0002081 0 0 1 -11.533,0 5.7665,6.0002081 0 1 1 11.533,0 z" opacity=".54"/><path id="path5481" fill="url(#radialGradient5837)" stroke="url(#radialGradient5839)" stroke-linecap="round" stroke-linejoin="round" stroke-width=".148" d="m 35.676,32.5 a 5.676,5.4259912 0 0 1 -11.352,0 5.676,5.4259912 0 1 1 11.352,0 z"/><path id="path5483" fill="url(#radialGradient5902)" stroke="url(#linearGradient5904)" stroke-linecap="round" stroke-linejoin="round" stroke-width=".145" d="m 35.428,34 c 0,2.9961 -2.4316,5.4277 -5.4277,5.4277 -2.9961,0 -5.4277,-2.4316 -5.4277,-5.4277 0,-2.9961 2.4316,-5.4277 5.4277,-5.4277 2.9961,0 5.4277,2.4316 5.4277,5.4277 z"/><path id="path5485" fill="#2e3436" d="m 34.5,34 a 4.5,4.5 0 0 1 -9,0 4.5,4.5 0 1 1 9,0 z"/><path id="path5487" fill="url(#linearGradient5898)" d="m 29.224,31.466 c -0.08496,0.02653 -0.16639,0.05752 -0.24728,0.0919 0.08079,-0.03461 0.1624,-0.06518 0.24728,-0.0919 z m 1.77,0.05013 c 0.035,0.01321 0.06988,0.02718 0.10412,0.04177 -0.03437,-0.01461 -0.06898,-0.02856 -0.10412,-0.04177 z m -2.308,0.18798 c -0.05662,0.03268 -0.11114,0.06787 -0.16486,0.10443 0.05331,-0.03657 0.10869,-0.07167 0.16486,-0.10443 z m -0.16486,0.10443 c -0.06461,0.04398 -0.12648,0.08859 -0.18655,0.13785 0.05929,-0.04879 0.12287,-0.09417 0.18655,-0.13785 z m 3.2754,0.18798 c 0.03712,0.0324 0.07334,0.06589 0.10846,0.10026 -0.03511,-0.03423 -0.07136,-0.06799 -0.10846,-0.10026 z m -3.5271,0.0084 c -0.04762,0.0418 -0.09456,0.08446 -0.13883,0.12949 0.04437,-0.04514 0.09114,-0.08753 0.13883,-0.12949 z m -0.13883,0.12949 c -0.33737,0.34318 -0.57623,0.77514 -0.6681,1.2574 -2.56e-4,0.0014 2.57e-4,0.0028 0,0.0042 v 0.88976 c 0.13918,0.7375 0.61747,1.3607 1.2755,1.721 h 2.5987 c 0.63044,-0.34525 1.0935,-0.93177 1.2538,-1.6291 v -0.0084 -1.0568 C 32.51917,32.99723 32.38755,32.70231 32.2044,32.4436 32.06193,32.26009 31.8971,32.12706 31.71851,32.05512 h -3.488 c -0.03512,0.02614 -0.06746,0.05237 -0.09978,0.07937 z m -0.6681,2.1513 c -0.01352,-0.07159 -0.02313,-0.14322 -0.03037,-0.21722 0.007,0.07375 0.01683,0.14545 0.03037,0.21722 z m 0,-0.88976 c -0.01357,0.07192 -0.0234,0.14331 -0.03037,0.21722 0.0072,-0.07297 0.01685,-0.14567 0.03037,-0.21722 z m 4.5596,-1.1822 c 0.02542,0.02829 0.04966,0.05836 0.07375,0.08772 -0.02444,-0.02974 -0.04796,-0.05908 -0.07375,-0.08772 z m -2.828,3.991 c 0.05283,0.01722 0.10623,0.03193 0.16052,0.04595 -0.05432,-0.01407 -0.10765,-0.02866 -0.16052,-0.04595 z m 1.6876,0 c -0.05312,0.01729 -0.10592,0.03188 -0.16052,0.04595 0.05429,-0.01402 0.10769,-0.02874 0.16052,-0.04595 z" opacity=".233"/><path id="path5489" fill="url(#radialGradient5895)" d="m 27.734,31 c -0.535,0.385 -0.965,0.904 -1.234,1.501 v 2.946 c 0.28195,0.62634 0.73926,1.1627 1.3106,1.5527 h 4.4296 c 0.538,-0.369 0.975,-0.868 1.259,-1.45 v -3.1465 c -0.271,-0.557 -0.682,-1.041 -1.189,-1.404 h -4.5769 z" opacity=".376"/><path id="path5491" fill="#2e3436" d="m 29.234,31.403 c -0.08393,0.02688 -0.16438,0.05827 -0.24429,0.0931 0.07981,-0.03506 0.16044,-0.06603 0.24429,-0.0931 z m 1.7486,0.05078 c 0.03457,0.01338 0.06903,0.02754 0.10286,0.04232 -0.03396,-0.0148 -0.06815,-0.02893 -0.10286,-0.04232 z m -2.28,0.19043 c -0.05593,0.03311 -0.1098,0.06876 -0.16286,0.1058 0.05266,-0.03705 0.10737,-0.07261 0.16286,-0.1058 z m -0.16286,0.1058 c -0.06383,0.04455 -0.12495,0.08974 -0.18429,0.13965 0.05858,-0.04943 0.12138,-0.0954 0.18429,-0.13965 z m 3.2357,0.19043 c 0.03667,0.03282 0.07245,0.06675 0.10715,0.10157 -0.03468,-0.03468 -0.07049,-0.06888 -0.10715,-0.10157 z m -3.4843,0.0085 c -0.04705,0.04235 -0.09341,0.08557 -0.13714,0.13119 0.04384,-0.04573 0.09004,-0.08867 0.13714,-0.13119 z M 28.154,32.08013 c -0.33328,0.34766 -0.56925,0.78528 -0.66001,1.2738 -2.53e-4,0.0014 2.54e-4,0.0029 0,0.0042 v 0.90138 c 0.13749,0.74714 0.60999,1.3785 1.26,1.7435 h 2.5672 c 0.6228,-0.34977 1.0802,-0.94395 1.2386,-1.6504 v -0.0085 -1.0707 c -0.07047,-0.31936 -0.2005,-0.61814 -0.38143,-0.88022 -0.14074,-0.1859 -0.30357,-0.32067 -0.48,-0.39356 h -3.4458 c -0.03469,0.02648 -0.06665,0.05306 -0.09857,0.0804 z m -0.66001,2.1794 c -0.01335,-0.07252 -0.02285,-0.14509 -0.03,-0.22006 0.0069,0.07472 0.01662,0.14735 0.03,0.22006 z m 0,-0.90138 c -0.01341,0.07286 -0.02312,0.14518 -0.03,0.22006 0.0071,-0.07392 0.01665,-0.14757 0.03,-0.22006 z m 4.5043,-1.1976 c 0.02511,0.02866 0.04905,0.05912 0.07286,0.08887 -0.02414,-0.03013 -0.04738,-0.05985 -0.07286,-0.08887 z m -2.7943,4.0414 c 0.05219,0.01744 0.10494,0.03235 0.15857,0.04655 -0.05367,-0.01425 -0.10635,-0.02904 -0.15857,-0.04655 z m 1.6672,0 c -0.05248,0.01752 -0.10464,0.0323 -0.15857,0.04655 0.05363,-0.0142 0.10638,-0.02911 0.15857,-0.04655 z"/><path id="path5493" fill="url(#radialGradient5891)" d="m 29.234,31.341 c -0.08393,0.02723 -0.16438,0.05903 -0.24429,0.0943 0.07981,-0.03551 0.16044,-0.06688 0.24429,-0.0943 z m 1.7486,0.05144 c 0.03457,0.01355 0.06903,0.02789 0.10286,0.04286 C 31.0515,31.42031 31.01731,31.406 30.9826,31.39244 z m -2.281,0.193 c -0.05593,0.03353 -0.1098,0.06965 -0.16286,0.10716 0.05266,-0.03753 0.10737,-0.07354 0.16286,-0.10716 z m -0.16286,0.10716 c -0.06383,0.04513 -0.12495,0.0909 -0.18429,0.14145 0.05858,-0.05006 0.12138,-0.09663 0.18429,-0.14145 z m 3.2357,0.19289 c 0.03667,0.03325 0.07245,0.06761 0.10715,0.10288 -0.03468,-0.03512 -0.07049,-0.06977 -0.10715,-0.10288 z m -3.4843,0.0086 c -0.04705,0.0429 -0.09341,0.08667 -0.13714,0.13288 0.04384,-0.04632 0.09004,-0.08982 0.13714,-0.13288 z M 28.153,32.02697 c -0.33328,0.35214 -0.56925,0.7954 -0.66001,1.2902 -2.53e-4,0.0014 2.54e-4,0.0029 0,0.0043 v 0.91301 c 0.13749,0.75678 0.60999,1.3962 1.26,1.766 h 2.5672 c 0.6228,-0.35428 1.0802,-0.95612 1.2386,-1.6717 v -0.0086 -1.0845 c -0.071,-0.324 -0.201,-0.627 -0.382,-0.892 -0.141,-0.188 -0.303,-0.325 -0.48,-0.399 h -3.4458 c -0.03469,0.02682 -0.06665,0.05374 -0.09857,0.08144 z m -0.66,2.207 c -0.01335,-0.07346 -0.02285,-0.14697 -0.03,-0.22289 0.0069,0.07568 0.01662,0.14925 0.03,0.22289 z m 0,-0.91301 c -0.01341,0.0738 -0.02312,0.14705 -0.03,0.2229 0.0071,-0.07488 0.01665,-0.14948 0.03,-0.2229 z m 4.5043,-1.2131 c 0.02511,0.02903 0.04905,0.05988 0.07286,0.09002 -0.02414,-0.03052 -0.04738,-0.06063 -0.07286,-0.09002 z m -2.7943,4.0935 c 0.05219,0.01767 0.10494,0.03277 0.15857,0.04715 C 29.3079,36.23407 29.25522,36.2191 29.203,36.20136 z m 1.6672,0 c -0.05248,0.01774 -0.10464,0.03271 -0.15857,0.04715 0.05363,-0.01438 0.10638,-0.02949 0.15857,-0.04715 z" opacity=".233"/><path id="path5495" fill-opacity=".505" d="m 30.012,31.994 c -1.0298,-2e-6 -1.8752,0.77295 -1.9851,1.7632 -0.0046,0.04174 -0.008,0.08347 -0.0099,0.12595 -0.0014,0.0304 -0.005,0.05994 -0.005,0.09068 0,0.0067 -6.7e-5,0.01348 0,0.02015 -6.7e-5,0.0067 0,0.01346 0,0.02015 6.05e-4,0.03001 0.003,0.06102 0.005,0.09068 0.002,0.04247 0.0053,0.08421 0.0099,0.12595 0.10987,0.99028 0.95525,1.7632 1.9851,1.7632 1.02985,0 1.8752,-0.77295 1.9851,-1.7632 0.0046,-0.04174 0.008,-0.08347 0.0099,-0.12595 0.0024,-0.03624 0.0046,-0.07407 0.005,-0.11083 -3.7e-4,-0.03675 -0.0026,-0.0746 -0.005,-0.11083 C 32.005,33.84068 32.0017,33.79894 31.9971,33.7572 31.88723,32.76692 31.04185,31.994 30.012,31.994 z"/><path id="path5497" fill="none" stroke="url(#radialGradient5851)" stroke-linecap="round" stroke-linejoin="round" d="m 40.516,31 a 10.5165,10.5165 0 0 1 -21.033,0 10.5165,10.5165 0 1 1 21.033,0 z"/><path id="path5499" fill="#2e3436" fill-rule="evenodd" stroke="url(#linearGradient5853)" stroke-miterlimit="10" stroke-width=".977" d="m 30.513,21.495 a 2.0122,2.017 0 0 1 -4.0244,0 2.0122,2.017 0 1 1 4.0244,0 z"/><path id="path5501" fill-rule="evenodd" d="m 29.334,21.502 a 0.81921,0.82118 0 0 1 -1.6384,0 0.81921,0.82118 0 1 1 1.6384,0 z" opacity=".347"/><path id="path5503" fill="#fff" fill-rule="evenodd" d="m 28.417,16.445 a 0.8397,0.8397 0 1 1 -1.6794,0 0.8397,0.8397 0 1 1 1.6794,0 z" filter="url(#filter9094)" opacity=".306" transform="matrix(0.6932,0,0,0.69486,9.765,10.773)"/><path id="path5505" fill="#2e3436" fill-rule="evenodd" stroke="url(#linearGradient5855)" stroke-miterlimit="10" stroke-width=".474" d="m 24.68,22.583 a 1.2632,1.2632 0 0 1 -2.5263,0 1.2632,1.2632 0 1 1 2.5263,0 z"/><rect id="rect5507" width="8.24" height="2.24" x="34.38" y="20.38" fill="url(#linearGradient5880)" stroke="url(#linearGradient5882)" stroke-width=".76" rx=".93" ry=".795"/><path id="path5511" fill="#2e3436" fill-rule="evenodd" stroke="url(#radialGradient5861)" stroke-miterlimit="10" stroke-opacity=".996" stroke-width=".496" d="m 18.728,17.871 a 3.7307,1.6168 0 1 1 -7.4614,0 3.7307,1.6168 0 1 1 7.4614,0 z"/><path id="path5513" fill="url(#radialGradient5863)" fill-rule="evenodd" d="m 18,17.25 a 3,1.25 0 0 1 -6,0 3,1.25 0 1 1 6,0 z"/><rect id="rect5515" width="1.443" height="1.461" x="14.162" y="17.96" fill="#2e3436" stroke="url(#radialGradient5874)" stroke-linejoin="round" stroke-miterlimit="0" stroke-width=".302" rx=".512" ry=".557"/><rect id="rect5519" width="38.999" height="22.999" x="4.5" y="19.5" fill="none" stroke="url(#linearGradient5870)" stroke-linecap="round" stroke-linejoin="round" stroke-width="1.001" opacity=".4" rx="1.316" ry="1.316"/><path id="path10013" fill="url(#radialGradient5947)" fill-rule="evenodd" d="m 33.5,34.298 c 0,1.933 -1.567,3.5 -3.5,3.5 -1.933,0 -3.5,-1.567 -3.5,-3.5 0,-1.933 1.567,-3.5 3.5,-3.5 1.933,0 3.5,1.567 3.5,3.5 z" opacity=".8"/><rect id="rect5950" width="2" height="10" x="11" y="27" fill="#eeeeec" opacity=".5" rx="1" ry="1"/><rect id="rect5952" width="2" height="8" x="15" y="28" fill="#555753" opacity=".2" rx="1" ry="1"/></g></svg>