<svg xmlns="http://www.w3.org/2000/svg" xmlns:svg="http://www.w3.org/2000/svg" xmlns:xlink="http://www.w3.org/1999/xlink" id="svg4117" width="48" height="48" version="1.1"><defs id="defs4119"><linearGradient id="linearGradient3924"><stop id="stop3926" offset="0" stop-color="#fff" stop-opacity="1"/><stop id="stop3928" offset=".027" stop-color="#fff" stop-opacity=".235"/><stop id="stop3930" offset=".972" stop-color="#fff" stop-opacity=".157"/><stop id="stop3932" offset="1" stop-color="#fff" stop-opacity=".392"/></linearGradient><radialGradient id="radialGradient2873-966-168" cx="4.993" cy="43.5" r="2.5" fx="4.993" fy="43.5" gradientTransform="matrix(2.003784,0,0,1.4,27.98813,-17.4)" gradientUnits="userSpaceOnUse" xlink:href="#linearGradient3688-166-749"/><linearGradient id="linearGradient3688-166-749"><stop id="stop2883" offset="0" stop-color="#181818" stop-opacity="1"/><stop id="stop2885" offset="1" stop-color="#181818" stop-opacity="0"/></linearGradient><radialGradient id="radialGradient2875-742-326" cx="4.993" cy="43.5" r="2.5" fx="4.993" fy="43.5" gradientTransform="matrix(2.003784,0,0,1.4,-20.01187,-104.4)" gradientUnits="userSpaceOnUse" xlink:href="#linearGradient3688-464-309"/><linearGradient id="linearGradient3688-464-309"><stop id="stop2889" offset="0" stop-color="#181818" stop-opacity="1"/><stop id="stop2891" offset="1" stop-color="#181818" stop-opacity="0"/></linearGradient><linearGradient id="linearGradient2877-634-617" x1="25.058" x2="25.058" y1="47.028" y2="39.999" gradientUnits="userSpaceOnUse" xlink:href="#linearGradient3702-501-757"/><linearGradient id="linearGradient3702-501-757"><stop id="stop2895" offset="0" stop-color="#181818" stop-opacity="0"/><stop id="stop2897" offset=".5" stop-color="#181818" stop-opacity="1"/><stop id="stop2899" offset="1" stop-color="#181818" stop-opacity="0"/></linearGradient><filter id="filter3831" color-interpolation-filters="sRGB"><feGaussianBlur id="feGaussianBlur3833" stdDeviation=".637"/></filter><clipPath id="clipPath3823"><path id="path3825" fill="#fff" fill-opacity="1" stroke="none" d="M 108.8125,58 C 107.25437,58 106,59.254375 106,60.8125 l 0,24.375 C 106,86.745625 107.25437,88 108.8125,88 l 24.375,0 C 134.74562,88 136,86.745625 136,85.1875 l 0,-24.375 C 136,59.254375 134.74562,58 133.1875,58 l -24.375,0 z m 7.1875,4.5 10,0 0,8.75 5,0 -10,13.75 -10,-13.75 5,0 0,-8.75 z"/></clipPath><linearGradient id="linearGradient3812" x1="65.263" x2="65.263" y1="64.205" y2="50.069" gradientTransform="matrix(0.625,0,0,0.625,78.5,32.25)" gradientUnits="userSpaceOnUse" xlink:href="#linearGradient5010"/><filter id="filter3806" color-interpolation-filters="sRGB"><feGaussianBlur id="feGaussianBlur3808" stdDeviation="1.2"/></filter><linearGradient id="linearGradient3788" x1="70" x2="70" y1="54" y2="75.095" gradientTransform="translate(0,4)" gradientUnits="userSpaceOnUse" xlink:href="#linearGradient3737"/><linearGradient id="linearGradient3773" x1="56" x2="88" y1="72" y2="72" gradientTransform="matrix(0.9375,0,0,0.9375,-140.5,3.5)" gradientUnits="userSpaceOnUse" xlink:href="#linearGradient3778"/><linearGradient id="linearGradient3832" x1="65.263" x2="65.263" y1="64.205" y2="50.069" gradientTransform="matrix(0.625,0,0,0.625,28.5,31.25)" gradientUnits="userSpaceOnUse" xlink:href="#linearGradient3737"/><filter id="filter3174" color-interpolation-filters="sRGB"><feGaussianBlur id="feGaussianBlur3176" stdDeviation="1.71"/></filter><linearGradient id="linearGradient3737"><stop id="stop3739" offset="0" stop-color="#fff" stop-opacity="1"/><stop id="stop3741" offset="1" stop-color="#fff" stop-opacity="0"/></linearGradient><linearGradient id="ButtonShadow" x1="45.448" x2="45.448" y1="92.54" y2="7.017" gradientTransform="scale(1.0058652,0.994169)" gradientUnits="userSpaceOnUse"><stop id="stop3750" offset="0" stop-color="#000" stop-opacity="1"/><stop id="stop3752" offset="1" stop-color="#000" stop-opacity=".588"/></linearGradient><linearGradient id="linearGradient5010"><stop id="stop5012" offset="0" stop-color="#000" stop-opacity="1"/><stop id="stop5014" offset="1" stop-color="#000" stop-opacity="0"/></linearGradient><linearGradient id="linearGradient3778"><stop id="stop3780" offset="0" stop-color="#499119" stop-opacity="1"/><stop id="stop3782" offset="1" stop-color="#8fd625" stop-opacity="1"/></linearGradient><linearGradient id="linearGradient3084" x1="24" x2="24" y1="6.033" y2="42.033" gradientTransform="translate(2.4e-6,0.9674489)" gradientUnits="userSpaceOnUse" xlink:href="#linearGradient3924"/><linearGradient id="linearGradient909"><stop id="stop905" offset="0" stop-color="#fafafa" stop-opacity="1"/><stop id="stop907" offset="1" stop-color="#d4d4d4" stop-opacity="1"/></linearGradient><linearGradient id="linearGradient903" x1="14.33" x2="14.33" y1="32.022" y2="-.07" gradientTransform="matrix(1.4615385,0,0,1.4615385,0.61538514,-48.352052)" gradientUnits="userSpaceOnUse" xlink:href="#linearGradient909"/><linearGradient id="linearGradient3143" x1="30.213" x2="30.213" y1="21.417" y2="25.361" gradientTransform="matrix(1.0521608,0,0,-1.0532519,-1.252161,51.339874)" gradientUnits="userSpaceOnUse" xlink:href="#linearGradient5010"/></defs><metadata id="metadata4122"/><g id="g2036" display="inline" transform="matrix(1.1,0,0,0.4444449,-2.4000022,25.11107)"><g id="g3712" opacity=".4" transform="matrix(1.052632,0,0,1.285713,-1.263158,-13.42854)"><rect id="rect2801" width="5" height="7" x="38" y="40" fill="url(#radialGradient2873-966-168)" fill-opacity="1" stroke="none"/><rect id="rect3696" width="5" height="7" x="-10" y="-47" fill="url(#radialGradient2875-742-326)" fill-opacity="1" stroke="none" transform="scale(-1,-1)"/><rect id="rect3700" width="28" height="7" x="10" y="40" fill="url(#linearGradient2877-634-617)" fill-opacity="1" stroke="none"/></g></g><rect id="rect5505-6" width="38" height="38" x="5" y="-43.967" fill="url(#linearGradient903)" fill-opacity="1" fill-rule="nonzero" stroke="none" stroke-width="1" color="#000" display="inline" enable-background="accumulate" overflow="visible" rx="1.5" ry="1.5" transform="scale(1,-1)" visibility="visible" style="marker:none"/><rect stroke-miterlimit="4" style="marker:none;font-variant-east_asian:normal" id="rect5505-21" width="39" height="39" x="4.5" y="5.467" fill="none" fill-opacity="1" fill-rule="nonzero" stroke="#555761" stroke-dasharray="none" stroke-dashoffset="0" stroke-linecap="round" stroke-linejoin="round" stroke-opacity="1" stroke-width="1" color="#000" display="inline" enable-background="accumulate" opacity=".5" overflow="visible" rx="2" ry="2" vector-effect="none" visibility="visible"/><rect id="rect6741-2" width="37" height="37" x="5.5" y="6.467" fill="none" stroke="url(#linearGradient3084)" stroke-dasharray="none" stroke-dashoffset="0" stroke-linecap="round" stroke-linejoin="round" stroke-miterlimit="4" stroke-opacity="1" stroke-width="1" rx="1" ry="1"/><g id="layer2" display="none" transform="translate(-135.85714,-31.05041)"><path id="rect3745" fill="url(#ButtonShadow)" fill-opacity="1" fill-rule="nonzero" stroke="none" d="M 11,7 48,5 85,7 c 3.324,0 6,2.676 6,6 l 0,73 c 0,3.324 -2.676,6 -6,6 L 11,92 C 7.676,92 5,89.324 5,86 L 5,13 C 5,9.676 7.676,7 11,7 z" filter="url(#filter3174)" opacity=".9"/></g><g id="layer4" display="none" transform="translate(-135.85714,-31.05041)"><rect id="rect3790" width="30" height="30" x="-86" y="56" fill="#000" fill-opacity="1" stroke="none" filter="url(#filter3806)" opacity=".6" rx="2.813" ry="2.813" transform="matrix(0,-1,1,0,0,4)"/><rect id="rect2993" width="30" height="30" x="-88" y="56" fill="url(#linearGradient3773)" fill-opacity="1" stroke="none" rx="2.813" ry="2.813" transform="matrix(0,-1,1,0,0,0)"/><path id="rect3775" fill="url(#linearGradient3788)" fill-opacity="1" stroke="none" d="M 58.8125,58 C 57.254375,58 56,59.254375 56,60.8125 l 0,24.375 c 0,0.873066 0.410816,1.641163 1.03125,2.15625 C 57.02841,87.289908 57,87.242129 57,87.1875 l 0,-24.375 C 57,61.254375 58.17075,60 59.625,60 l 22.75,0 C 83.82925,60 85,61.254375 85,62.8125 l 0,24.375 c 0,0.05463 -0.02841,0.102408 -0.03125,0.15625 C 85.589184,86.828663 86,86.060566 86,85.1875 l 0,-24.375 C 86,59.254375 84.745625,58 83.1875,58 l -24.375,0 z" opacity=".5"/><path id="path3810" fill="url(#linearGradient3812)" fill-opacity="1" fill-rule="nonzero" stroke="none" d="m 116,63.5 0,8.75 -5,0 10,13.75 10,-13.75 -5,0 0,-8.75 -10,0 z" clip-path="url(#clipPath3823)" display="inline" filter="url(#filter3831)" opacity=".6" transform="translate(-50,0)"/><path id="path4278" fill="url(#linearGradient3832)" fill-opacity="1" fill-rule="nonzero" stroke="none" d="m 66,62.5 0,8.75 -5,0 10,13.75 10,-13.75 -5,0 0,-8.75 -10,0 z" display="inline"/></g><path id="path4690-5" fill="#fff" fill-opacity="1" fill-rule="nonzero" stroke="none" stroke-dasharray="none" stroke-dashoffset="0" stroke-linecap="butt" stroke-linejoin="miter" stroke-miterlimit="4" stroke-opacity="1" stroke-width="1" d="m 22.285721,14 c -0.308512,0 -0.565606,1.191586 -0.716518,2.894531 a 9.4285714,9.4285714 0 0 0 -2.27846,0.95759 C 17.97456,16.749024 16.946429,16.083154 16.727686,16.301897 l -2.425782,2.425782 c -0.218743,0.218743 0.447127,1.246874 1.550224,2.563057 a 9.4285714,9.4285714 0 0 0 -0.949219,2.27846 c -1.707716,0.150767 -2.902902,0.407489 -2.902902,0.716518 v 3.428572 c 0,0.308512 1.191586,0.565606 2.894531,0.716518 a 9.4285714,9.4285714 0 0 0 0.954241,2.283482 c -1.100589,1.313826 -1.765355,2.339555 -1.546875,2.558035 l 2.425782,2.425782 c 0.218274,0.218274 1.242712,-0.444905 2.554687,-1.543527 a 9.4285714,9.4285714 0 0 0 2.28683,0.942522 C 21.71997,36.804814 21.976692,38 22.285721,38 h 3.428572 c 0.308512,0 0.565606,-1.191586 0.716518,-2.894531 a 9.4285714,9.4285714 0 0 0 2.27846,-0.95759 c 1.316183,1.103097 2.344314,1.768967 2.563057,1.550224 l 2.425782,-2.425782 c 0.218743,-0.218743 -0.447127,-1.246874 -1.550224,-2.563057 a 9.4285714,9.4285714 0 0 0 0.949219,-2.27846 c 1.707716,-0.150767 2.902902,-0.407489 2.902902,-0.716518 v -3.428572 c 0,-0.308512 -1.191586,-0.565606 -2.894531,-0.716518 a 9.4285714,9.4285714 0 0 0 -0.954241,-2.283482 c 1.100589,-1.313826 1.765355,-2.339555 1.546875,-2.558035 l -2.425782,-2.425782 c -0.218274,-0.218274 -1.242712,0.444905 -2.554687,1.543527 a 9.4285714,9.4285714 0 0 0 -2.28683,-0.942522 C 26.280044,15.195186 26.023322,14 25.714293,14 Z m 1.714286,7.714286 A 4.2857143,4.2857143 0 0 1 28.285721,26 4.2857143,4.2857143 0 0 1 24.000007,30.285714 4.2857143,4.2857143 0 0 1 19.714293,26 4.2857143,4.2857143 0 0 1 24.000007,21.714286 Z" clip-rule="nonzero" color="#000" color-interpolation="sRGB" color-interpolation-filters="linearRGB" color-rendering="auto" display="inline" enable-background="accumulate" image-rendering="auto" opacity=".4" overflow="visible" shape-rendering="auto" text-rendering="auto" vector-effect="none" visibility="visible" style="isolation:auto;mix-blend-mode:normal;solid-color:#000;solid-opacity:1;marker:none;font-variant-east_asian:normal"/><path id="path4690" fill="#bcbcbc" fill-opacity="1" fill-rule="nonzero" stroke="none" stroke-dasharray="none" stroke-dashoffset="0" stroke-linecap="butt" stroke-linejoin="miter" stroke-miterlimit="4" stroke-opacity="1" stroke-width="1" d="m 22.285721,13 c -0.308512,0 -0.565606,1.191586 -0.716518,2.894531 a 9.4285714,9.4285714 0 0 0 -2.27846,0.95759 C 17.97456,15.749024 16.946429,15.083154 16.727686,15.301897 l -2.425782,2.425782 c -0.218743,0.218743 0.447127,1.246874 1.550224,2.563057 a 9.4285714,9.4285714 0 0 0 -0.949219,2.27846 c -1.707716,0.150767 -2.902902,0.407489 -2.902902,0.716518 v 3.428572 c 0,0.308512 1.191586,0.565606 2.894531,0.716518 a 9.4285714,9.4285714 0 0 0 0.954241,2.283482 c -1.100589,1.313826 -1.765355,2.339555 -1.546875,2.558035 l 2.425782,2.425782 c 0.218274,0.218274 1.242712,-0.444905 2.554687,-1.543527 a 9.4285714,9.4285714 0 0 0 2.28683,0.942522 C 21.71997,35.804814 21.976692,37 22.285721,37 h 3.428572 c 0.308512,0 0.565606,-1.191586 0.716518,-2.894531 a 9.4285714,9.4285714 0 0 0 2.27846,-0.95759 c 1.316183,1.103097 2.344314,1.768967 2.563057,1.550224 l 2.425782,-2.425782 c 0.218743,-0.218743 -0.447127,-1.246874 -1.550224,-2.563057 a 9.4285714,9.4285714 0 0 0 0.949219,-2.27846 c 1.707716,-0.150767 2.902902,-0.407489 2.902902,-0.716518 v -3.428572 c 0,-0.308512 -1.191586,-0.565606 -2.894531,-0.716518 a 9.4285714,9.4285714 0 0 0 -0.954241,-2.283482 c 1.100589,-1.313826 1.765355,-2.339555 1.546875,-2.558035 l -2.425782,-2.425782 c -0.218274,-0.218274 -1.242712,0.444905 -2.554687,1.543527 a 9.4285714,9.4285714 0 0 0 -2.28683,-0.942522 C 26.280044,14.195186 26.023322,13 25.714293,13 Z m 1.714286,7.714286 A 4.2857143,4.2857143 0 0 1 28.285721,25 4.2857143,4.2857143 0 0 1 24.000007,29.285714 4.2857143,4.2857143 0 0 1 19.714293,25 4.2857143,4.2857143 0 0 1 24.000007,20.714286 Z" clip-rule="nonzero" color="#000" color-interpolation="sRGB" color-interpolation-filters="linearRGB" color-rendering="auto" display="inline" enable-background="accumulate" image-rendering="auto" opacity="1" overflow="visible" shape-rendering="auto" text-rendering="auto" vector-effect="none" visibility="visible" style="isolation:auto;mix-blend-mode:normal;solid-color:#000;solid-opacity:1;marker:none;font-variant-east_asian:normal"/><path id="path4309" fill="none" stroke="url(#linearGradient3143)" stroke-dasharray="none" stroke-miterlimit="4" stroke-opacity="1" stroke-width="1" d="m 23.999698,29.74821 c 2.790904,0.0815 5.19011,-2.705855 4.679818,-5.458046 -0.3473,-2.764813 -3.442054,-4.724999 -6.082341,-3.80688 -2.591524,0.735481 -4.090797,3.902664 -2.958063,6.363986 0.714724,1.72129 2.492564,2.921281 4.360586,2.90094 z" display="inline" enable-background="accumulate" opacity=".05" overflow="visible" visibility="visible" style="marker:none"/><path id="path4338" fill="none" fill-opacity="1" fill-rule="nonzero" stroke="#000" stroke-dasharray="none" stroke-dashoffset="0" stroke-linecap="butt" stroke-linejoin="miter" stroke-miterlimit="4" stroke-opacity="1" stroke-width="1" d="m 22.488281,13.5 c -0.03882,0.08795 -0.09122,0.222472 -0.140625,0.429688 -0.111763,0.468786 -0.212984,1.17722 -0.287109,2.013671 -0.01809,0.205383 -0.162332,0.377697 -0.361328,0.431641 -0.754552,0.205951 -1.48109,0.513332 -2.15625,0.908203 -0.179578,0.104581 -0.405502,0.08504 -0.564453,-0.04883 C 18.331905,16.692448 17.755851,16.259923 17.34375,16.005859 17.161449,15.89347 17.027586,15.833852 16.9375,15.798828 L 14.798828,17.9375 c 0.03502,0.09009 0.09464,0.223949 0.207031,0.40625 0.254064,0.412101 0.686589,0.988155 1.228516,1.634766 0.133866,0.158951 0.153409,0.384875 0.04883,0.564453 -0.392306,0.675543 -0.696771,1.402061 -0.900391,2.15625 -0.05394,0.198996 -0.226257,0.34324 -0.43164,0.361328 -0.838897,0.07406 -1.54934,0.175351 -2.019531,0.287109 -0.207936,0.04942 -0.343368,0.101734 -0.431643,0.140625 v 3.023438 c 0.08795,0.03882 0.222472,0.09122 0.429688,0.140625 0.468786,0.111763 1.17722,0.212984 2.013671,0.287109 0.205383,0.01809 0.377697,0.162332 0.431641,0.361328 0.20491,0.756369 0.511577,1.485121 0.90625,2.16211 0.104581,0.179578 0.08504,0.405502 -0.04883,0.564453 -0.540817,0.645599 -0.972677,1.219782 -1.226563,1.630859 -0.112261,0.181769 -0.172025,0.314558 -0.207031,0.404297 l 2.138672,2.138672 c 0.08968,-0.03486 0.222677,-0.09511 0.404297,-0.207031 0.410741,-0.253114 0.984359,-0.682926 1.628906,-1.222657 0.158566,-0.132968 0.383394,-0.152485 0.5625,-0.04883 0.678141,0.390975 1.407602,0.69132 2.164063,0.892578 0.200392,0.0535 0.345702,0.226931 0.363281,0.433594 0.07406,0.838897 0.175351,1.54934 0.287109,2.019531 0.04942,0.207934 0.101734,0.343366 0.140625,0.431641 h 3.023438 c 0.03882,-0.08795 0.09122,-0.222472 0.140625,-0.429688 0.111763,-0.468786 0.212984,-1.17722 0.287109,-2.013671 0.01809,-0.205383 0.162332,-0.377697 0.361328,-0.431641 0.754552,-0.205951 1.48109,-0.513332 2.15625,-0.908203 0.179578,-0.104581 0.405502,-0.08504 0.564453,0.04883 0.646611,0.541927 1.222665,0.974452 1.634766,1.228516 0.182301,0.112389 0.316164,0.172007 0.40625,0.207031 L 33.201172,32.0625 c -0.03502,-0.09009 -0.09464,-0.223949 -0.207031,-0.40625 -0.254064,-0.412101 -0.686589,-0.988155 -1.228516,-1.634766 -0.133866,-0.158951 -0.153409,-0.384875 -0.04883,-0.564453 0.392306,-0.675543 0.696771,-1.402061 0.900391,-2.15625 0.05394,-0.198996 0.226257,-0.34324 0.43164,-0.361328 0.838897,-0.07406 1.54934,-0.175351 2.019531,-0.287109 C 35.276293,26.60292 35.411725,26.55061 35.5,26.511719 v -3.023438 c -0.08795,-0.03882 -0.222472,-0.09122 -0.429688,-0.140625 -0.468786,-0.111763 -1.17722,-0.212984 -2.013671,-0.287109 -0.205383,-0.01809 -0.377697,-0.162332 -0.431641,-0.361328 -0.20491,-0.756369 -0.511577,-1.485121 -0.90625,-2.16211 -0.104581,-0.179578 -0.08504,-0.405502 0.04883,-0.564453 0.540817,-0.645599 0.972677,-1.219782 1.226563,-1.630859 0.112261,-0.181769 0.172025,-0.314558 0.207031,-0.404297 L 31.0625,15.798828 c -0.08968,0.03486 -0.222677,0.09511 -0.404297,0.207031 -0.410741,0.253114 -0.984359,0.682926 -1.628906,1.222657 -0.158566,0.132968 -0.383394,0.152485 -0.5625,0.04883 -0.678141,-0.390975 -1.407602,-0.69132 -2.164063,-0.892578 -0.200392,-0.0535 -0.345702,-0.226931 -0.363281,-0.433594 -0.07406,-0.838897 -0.175351,-1.54934 -0.287109,-2.019531 C 25.60292,13.723707 25.55061,13.588275 25.511719,13.5 Z" clip-rule="nonzero" color="#000" color-interpolation="sRGB" color-interpolation-filters="linearRGB" color-rendering="auto" display="inline" enable-background="accumulate" image-rendering="auto" opacity=".05" overflow="visible" shape-rendering="auto" text-rendering="auto" visibility="visible" style="isolation:auto;mix-blend-mode:normal;solid-color:#000;solid-opacity:1;marker:none"/></svg>