<svg xmlns="http://www.w3.org/2000/svg" xmlns:svg="http://www.w3.org/2000/svg" xmlns:xlink="http://www.w3.org/1999/xlink" id="svg3082" width="48" height="48" version="1.1"><metadata id="metadata59"/><defs id="defs3084"><linearGradient id="linearGradient4197" x1="83.24" x2="83.24" y1="42.457" y2="57.61" gradientTransform="matrix(0.40394,0,0,0.42567,4.5497,-4.793)" gradientUnits="userSpaceOnUse"><stop id="stop4199" offset="0" stop-color="#e5e5e5" stop-opacity="1"/><stop id="stop4201" offset="1" stop-color="#d4d4d4" stop-opacity="1"/></linearGradient><linearGradient id="linearGradient5060"><stop id="stop5062" offset="0" stop-color="#000" stop-opacity="1"/><stop id="stop5064" offset="1" stop-color="#000" stop-opacity="0"/></linearGradient><linearGradient id="linearGradient5557" x1="302.86" x2="302.86" y1="366.65" y2="609.51" gradientTransform="matrix(0.06285403,0,0,0.02470595,1.282209,31.441341)" gradientUnits="userSpaceOnUse"><stop id="stop5050" offset="0" stop-color="#000" stop-opacity="0"/><stop id="stop5056" offset=".5" stop-color="#000" stop-opacity="1"/><stop id="stop5052" offset="1" stop-color="#000" stop-opacity="0"/></linearGradient><radialGradient id="radialGradient5559" cx="605.71" cy="486.65" r="117.14" gradientTransform="matrix(0.06285403,0,0,0.02470595,1.295802,31.441341)" gradientUnits="userSpaceOnUse" xlink:href="#linearGradient5060"/><radialGradient id="radialGradient5561" cx="605.71" cy="486.65" r="117.14" gradientTransform="matrix(-0.06285403,0,0,0.02470595,46.704578,31.441341)" gradientUnits="userSpaceOnUse" xlink:href="#linearGradient5060"/><linearGradient id="linearGradient2884" x1="24" x2="24" y1="13" y2="40" gradientTransform="matrix(1.0526,0,0,1.0741,-1.2632,-0.96296)" gradientUnits="userSpaceOnUse"><stop id="stop6459" offset="0" stop-color="#fff" stop-opacity=".941"/><stop id="stop6461" offset="1" stop-color="#fff" stop-opacity=".706"/></linearGradient><linearGradient id="linearGradient2887" x1="15.927" x2="15.927" y1="9.903" y2="38.097" gradientTransform="matrix(1.3226,0,0,1.2414,-9.0645,-5.2931)" gradientUnits="userSpaceOnUse"><stop id="stop3317" offset="0" stop-color="#fff" stop-opacity="1"/><stop id="stop4238" offset=".022" stop-color="#fff" stop-opacity="0"/><stop id="stop4240" offset="1" stop-color="#fff" stop-opacity="0"/><stop id="stop3319" offset="1" stop-color="#fff" stop-opacity=".715"/></linearGradient><linearGradient id="linearGradient2890" x1="21.866" x2="21.78" y1="8.576" y2="39.924" gradientTransform="matrix(1.303,0,0,1.2459,-8.5757,-5.7131)" gradientUnits="userSpaceOnUse" xlink:href="#linearGradient3805"><stop id="stop2783" offset="0" stop-color="#505050" stop-opacity="1"/><stop id="stop6301" offset=".132" stop-color="#6e6e6e" stop-opacity="1"/><stop id="stop2785" offset="1" stop-color="#8c8c8c" stop-opacity="1"/></linearGradient><linearGradient id="linearGradient3805" x1="83.24" x2="83.24" y1="42.457" y2="57.61" gradientTransform="matrix(0.40394,0,0,0.42567,4.5497,-4.793)" gradientUnits="userSpaceOnUse"><stop id="stop3127" offset="0" stop-color="#fff" stop-opacity="1"/><stop id="stop3129" offset="1" stop-color="#e1e1e1" stop-opacity="1"/></linearGradient><linearGradient id="linearGradient3843" x1="25.498" x2="25.498" y1="44.638" y2=".276" gradientTransform="translate(5.993,2.0000005)" gradientUnits="userSpaceOnUse" xlink:href="#linearGradient3104"/><linearGradient id="linearGradient3104"><stop id="stop3106" offset="0" stop-color="#aaa" stop-opacity="1"/><stop id="stop3108" offset="1" stop-color="#c8c8c8" stop-opacity="1"/></linearGradient><linearGradient id="linearGradient2923" x1="18.386" x2="18.386" y1="44.961" y2=".259" gradientTransform="translate(-4,-8)" gradientUnits="userSpaceOnUse" xlink:href="#linearGradient3104"/><linearGradient id="linearGradient2925" x1="18.386" x2="18.386" y1="44.961" y2=".259" gradientTransform="matrix(0.75385,0,0,0.75385,5,1.4923)" gradientUnits="userSpaceOnUse" xlink:href="#linearGradient3104"/><linearGradient id="linearGradient2927" x1="18.386" x2="18.386" y1="44.961" y2=".259" gradientTransform="translate(5.993,2.0000005)" gradientUnits="userSpaceOnUse" xlink:href="#linearGradient3104"/><linearGradient id="linearGradient2960" x1="18.386" x2="18.386" y1="44.961" y2=".259" gradientTransform="translate(-4,1)" gradientUnits="userSpaceOnUse" xlink:href="#linearGradient3104"/><linearGradient id="linearGradient3736" x1="18.386" x2="18.386" y1="44.961" y2=".259" gradientTransform="matrix(0.75385,0,0,0.75385,5,10.492)" gradientUnits="userSpaceOnUse" xlink:href="#linearGradient3104"/><linearGradient id="linearGradient4195" x1="24.669" x2="24.712" y1="6.219" y2="12.637" gradientUnits="userSpaceOnUse" xlink:href="#linearGradient4197"/><linearGradient id="linearGradient4243" x1="83.24" x2="83.24" y1="42.457" y2="57.61" gradientTransform="matrix(0.40394,0,0,0.42567,4.5497,-2.793)" gradientUnits="userSpaceOnUse" xlink:href="#linearGradient3805"/></defs><rect id="rect4173" width="30.349" height="6" x="8.824" y="40.5" fill="url(#linearGradient5557)" stroke-linecap="round" stroke-linejoin="round" opacity=".236"/><path id="path5058" fill="url(#radialGradient5559)" stroke-linecap="round" stroke-linejoin="round" d="m 39.174509,40.500021 0,5.999693 c 3.23672,0.01129 7.825037,-1.344233 7.825037,-3.000286 0,-1.656052 -3.612113,-2.999407 -7.825037,-2.999407 z" opacity=".236"/><path id="path5018" fill="url(#radialGradient5561)" stroke-linecap="round" stroke-linejoin="round" d="m 8.8240585,40.500021 0,5.999693 c -3.2367199,0.01129 -7.825037,-1.344233 -7.825037,-3.000286 0,-1.656052 3.6121132,-2.999407 7.825037,-2.999407 z" opacity=".236"/><rect id="rect1887" width="43" height="38" x="2.5" y="5.5" fill="url(#linearGradient4195)" fill-opacity="1" stroke="#000" stroke-linecap="round" stroke-linejoin="round" stroke-opacity=".291" rx="2" ry="2"/><path id="rect6287" fill="url(#linearGradient2884)" stroke-linecap="round" stroke-linejoin="round" d="m 3,14 0,27 c 0,2 2,2 2,2 l 38,0 c 2,0 2,-2 2,-2 l 0,-27 z"/><path id="path3835" fill="#4aadea" fill-opacity="1" fill-rule="evenodd" stroke="#4e80a9" stroke-linecap="round" stroke-linejoin="round" stroke-opacity=".696" d="m 8.537496,25.499985 3.955685,0.04323 c 0,0 1.093277,0 1.050048,0.907809 l 10e-7,4.054695 c 0.04323,1.037496 -0.920361,0.994267 -0.920361,0.994267 l -4.2796709,0 c 0,0 -0.9296551,0.08646 -0.8431971,-0.951038 l -9e-7,-4.249905 c 0,0 0.043229,-0.842286 1.0374959,-0.799057 z"/><path id="path3833" fill="#4aadea" fill-opacity="1" fill-rule="evenodd" stroke="#276ba4" stroke-linecap="round" stroke-linejoin="round" stroke-opacity=".696" stroke-width=".969" d="m 32.515,28.499985 c 0,1.6645 -1.3509,3.0154 -3.0154,3.0154 -1.6645,0 -3.0154,-1.3509 -3.0154,-3.0154 0,-1.6645 1.3509,-3.0154 3.0154,-3.0154 1.6645,0 3.0154,1.3509 3.0154,3.0154 z"/><path id="path3831" fill="#fff" fill-rule="evenodd" stroke="url(#linearGradient2927)" stroke-linecap="round" stroke-linejoin="round" d="m 18.862,16.502 22.276,0 c 0.75449,0 1.3619,0.66284 1.3619,1.4862 l 0,3.0261 c 0,0.82335 -0.6074,1.4862 -1.3619,1.4862 l -22.276,0 c -0.755,0 -1.362,-0.663 -1.362,-1.486 l 0,-3.0261 c 0,-0.82335 0.6074,-1.4862 1.3619,-1.4862 z"/><path id="rect3618" fill="url(#linearGradient4243)" fill-rule="evenodd" stroke="url(#linearGradient3843)" stroke-linecap="round" stroke-linejoin="round" d="m 34.5,16.5 0,5.9946 6.2399,0 c 0.97615,0 1.7546,-0.82033 1.7546,-1.849 l 0,-2.2833 c 0,-1.0287 -0.77845,-1.8623 -1.7546,-1.8623 z"/><path id="path4262" fill="#fff" fill-opacity="1" fill-rule="evenodd" stroke="#b5b5b5" stroke-linecap="round" stroke-linejoin="round" stroke-opacity="1" d="m 8.5402462,33.470799 3.9529348,0.02919 c 0,0 1.079784,0.0016 1.036005,0.978024 l 0.01404,4.027709 c 0.04323,1.037496 -0.920361,0.994267 -0.920361,0.994267 l -4.2796709,0 c 0,0 -0.9010191,-0.04378 -0.8577901,-1.041346 l 0.014592,-4.159597 c 0,0 -0.026986,-0.871472 1.0402461,-0.828243 z"/><path id="path3734" fill="#fff" fill-rule="evenodd" stroke="#b5b5b5" stroke-linecap="round" stroke-linejoin="round" stroke-opacity="1" stroke-width=".969" d="m 32.515,36.5 c 0,1.6645 -1.3509,3.0154 -3.0154,3.0154 -1.6645,0 -3.0154,-1.3509 -3.0154,-3.0154 0,-1.6645 1.3509,-3.0154 3.0154,-3.0154 1.6645,0 3.0154,1.3509 3.0154,3.0154 z"/><path id="path4230" fill="#777" fill-opacity="1" fill-rule="evenodd" stroke="none" stroke-linecap="round" stroke-linejoin="round" stroke-opacity="1" stroke-width="1" d="m 37,19 1,2 1,0 1,-2 z"/><path id="path4232" fill="none" fill-rule="evenodd" stroke="#fff" stroke-linecap="round" stroke-linejoin="round" stroke-opacity="1" stroke-width="1" d="m 8.278122,28.221863 1.56771,2 3.048962,-3.789588"/><path id="rect4236" fill="#000" fill-opacity="1" stroke="none" stroke-linecap="round" stroke-linejoin="round" stroke-opacity="1" d="m 3,13 42,0 0,1 -42,0 z" opacity=".15"/><rect id="rect2779" width="41" height="36" x="3.5" y="6.5" fill="none" stroke="url(#linearGradient2887)" stroke-linecap="round" stroke-linejoin="round" opacity=".7" rx="1" ry="1"/><path id="path4245" fill="none" fill-rule="evenodd" stroke="#fff" stroke-linecap="round" stroke-linejoin="round" stroke-opacity="1" stroke-width="1" d="m 27.518748,28.259359 1.56771,2 3.048962,-3.789588"/><path id="path4264" fill="none" fill-rule="evenodd" stroke="#8a8a8a" stroke-linecap="butt" stroke-linejoin="miter" stroke-opacity="1" stroke-width="1" d="M 5.0000048,8 8,11"/><path id="path4266" fill="none" fill-rule="evenodd" stroke="#8a8a8a" stroke-linecap="butt" stroke-linejoin="miter" stroke-opacity="1" stroke-width="1" d="M 8,8 5.0000048,11"/><path id="path4268" fill="none" fill-rule="evenodd" stroke="#8a8a8a" stroke-linecap="butt" stroke-linejoin="miter" stroke-opacity="1" stroke-width="1" d="m 43,8 -2.999995,3"/><path id="rect4270" fill="#858585" fill-opacity="1" stroke="none" stroke-linecap="round" stroke-linejoin="round" stroke-opacity="1" d="m 15,9 3,0 0,1 -3,0 z" opacity=".7"/><path id="rect4272" fill="#fff" fill-opacity="1" stroke="none" stroke-linecap="round" stroke-linejoin="round" stroke-opacity="1" d="m 15,10 3,0 0,1 -3,0 z" opacity=".25"/><path id="path4276" fill="#858585" fill-opacity="1" stroke="none" stroke-linecap="round" stroke-linejoin="round" stroke-opacity="1" d="m 19,9 9,0 0,1 -9,0 z" opacity=".7"/><path id="path4278" fill="#fff" fill-opacity="1" stroke="none" stroke-linecap="round" stroke-linejoin="round" stroke-opacity="1" d="m 19,10 9,0 0,1 -9,0 z" opacity=".25"/><path id="path4280" fill="#858585" fill-opacity="1" stroke="none" stroke-linecap="round" stroke-linejoin="round" stroke-opacity="1" d="m 29,9 5,0 0,1 -5,0 z" opacity=".7"/><path id="path4282" fill="#fff" fill-opacity="1" stroke="none" stroke-linecap="round" stroke-linejoin="round" stroke-opacity="1" d="m 29,10 5,0 0,1 -5,0 z" opacity=".25"/></svg>