<svg xmlns="http://www.w3.org/2000/svg" xmlns:svg="http://www.w3.org/2000/svg" xmlns:xlink="http://www.w3.org/1999/xlink" id="svg4296" width="48" height="48" version="1.1"><defs id="defs4298"><linearGradient id="linearGradient3680-6-6-6-3-7"><stop id="stop3682-4-6-1-3-7" offset="0" stop-color="#dcdcdc" stop-opacity="1"/><stop id="stop3684-8-5-8-0-2" offset="1" stop-color="#fff" stop-opacity="1"/></linearGradient><linearGradient id="linearGradient3462"><stop id="stop3464" offset="0" stop-color="#fff" stop-opacity="1"/><stop id="stop3466" offset=".035" stop-color="#fff" stop-opacity=".235"/><stop id="stop3468" offset=".964" stop-color="#fff" stop-opacity=".157"/><stop id="stop3470" offset="1" stop-color="#fff" stop-opacity=".392"/></linearGradient><linearGradient id="linearGradient2867-449-88-871-390-598-476-591-434-148-57-177-8-3-3-6-4-8-8-8-5-7"><stop id="stop3750-1-0-7-6-6-1-3-9-3-9" offset="0" stop-color="#505050" stop-opacity="1"/><stop id="stop3752-3-7-4-0-32-8-923-0-7-0" offset=".262" stop-color="#2b2b2b" stop-opacity="1"/><stop id="stop3754-1-8-5-2-7-6-7-1-9-1" offset=".705" stop-color="#0a0a0a" stop-opacity="1"/><stop id="stop3756-1-6-2-6-6-1-96-6-0-1" offset="1" stop-color="#000" stop-opacity="1"/></linearGradient><linearGradient id="linearGradient19619" x1="302.857" x2="302.857" y1="366.648" y2="609.505" gradientTransform="matrix(0.08076924,0,0,0.01235294,-5.1923084,38.470822)" gradientUnits="userSpaceOnUse" xlink:href="#linearGradient5048"/><linearGradient id="linearGradient5048"><stop id="stop5050" offset="0" stop-color="#000" stop-opacity="0"/><stop id="stop5056" offset=".5" stop-color="#000" stop-opacity="1"/><stop id="stop5052" offset="1" stop-color="#000" stop-opacity="0"/></linearGradient><radialGradient id="radialGradient19616" cx="605.714" cy="486.648" r="117.143" fx="605.714" fy="486.648" gradientTransform="matrix(-0.02811336,0,0,0.01235294,21.442814,38.470848)" gradientUnits="userSpaceOnUse" xlink:href="#linearGradient5060"/><linearGradient id="linearGradient5060"><stop id="stop5062" offset="0" stop-color="#000" stop-opacity="1"/><stop id="stop5064" offset="1" stop-color="#000" stop-opacity="0"/></linearGradient><radialGradient id="radialGradient19613" cx="605.714" cy="486.648" r="117.143" fx="605.714" fy="486.648" gradientTransform="matrix(0.02811337,0,0,0.01235294,26.557182,38.470848)" gradientUnits="userSpaceOnUse" xlink:href="#linearGradient5060"/><linearGradient id="linearGradient4088" x1="40.29" x2="40.29" y1="5.414" y2="42.438" gradientTransform="matrix(1.108108,0,0,0.9729729,-2.5945967,2.148652)" gradientUnits="userSpaceOnUse" xlink:href="#linearGradient3462"/><radialGradient id="radialGradient4091" cx="7.118" cy="9.957" r="12.672" fx="7.118" fy="9.957" gradientTransform="matrix(0,8.9058797,-12.372205,0,148.10767,-74.74939)" gradientUnits="userSpaceOnUse" xlink:href="#linearGradient2867-449-88-871-390-598-476-591-434-148-57-177-8-3-3-6-4-8-8-8-5-7"/><linearGradient id="linearGradient3024-0" x1="54.596" x2="54.596" y1="42.035" y2="9.693" gradientTransform="matrix(0.96981828,0,0,0.96981828,-36.3445,4.3636588)" gradientUnits="userSpaceOnUse" xlink:href="#linearGradient3680-6-6-6-3-7"/></defs><metadata id="metadata4301"/><rect id="rect2879" width="39" height="3" x="4.5" y="43" fill="url(#linearGradient19619)" fill-opacity="1" fill-rule="nonzero" stroke="none" stroke-width="1" display="inline" opacity=".4" overflow="visible" visibility="visible" style="marker:none"/><path d="m 4.5,43.00013 c 0,0 0,2.999835 0,2.999835 C 3.052231,46.005612 1,45.327854 1,44.499854 1,43.671856 2.6156008,43.000131 4.5,43.00013 Z" style="marker:none" id="path2881" fill="url(#radialGradient19616)" fill-opacity="1" fill-rule="nonzero" stroke="none" stroke-width="1" display="inline" opacity=".4" overflow="visible" visibility="visible"/><path d="m 43.5,43.00013 c 0,0 0,2.999835 0,2.999835 1.447768,0.0056 3.5,-0.672111 3.5,-1.500111 0,-0.827998 -1.615601,-1.499723 -3.5,-1.499724 z" style="marker:none" id="path2883" fill="url(#radialGradient19613)" fill-opacity="1" fill-rule="nonzero" stroke="none" stroke-width="1" display="inline" opacity=".4" overflow="visible" visibility="visible"/><rect id="rect5505-21-3-8-5-2" width="43" height="38" x="2.5" y="6.5" fill="url(#radialGradient4091)" fill-opacity="1" fill-rule="nonzero" stroke="none" stroke-width="1" color="#000" display="inline" enable-background="accumulate" opacity=".9" overflow="visible" rx="1.5" ry="1.5" visibility="visible" style="marker:none"/><rect id="rect6741-5-0-2-3" width="41" height="36" x="3.5" y="7.5" fill="none" stroke="url(#linearGradient4088)" stroke-dasharray="none" stroke-dashoffset="0" stroke-linecap="round" stroke-linejoin="round" stroke-miterlimit="4" stroke-opacity="1" stroke-width="1" opacity=".3" rx=".75" ry=".75"/><path clip-rule="nonzero" style="isolation:auto;mix-blend-mode:normal;solid-color:#000;solid-opacity:1;marker:none" id="path4986" fill="#000" fill-opacity="1" fill-rule="nonzero" stroke="none" stroke-dasharray="none" stroke-dashoffset="0" stroke-linecap="butt" stroke-linejoin="miter" stroke-miterlimit="4" stroke-opacity="1" stroke-width="1" d="m 14.53125,8.9414062 a 1.0592013,1.0592013 0 0 0 -0.939453,0.5136719 l -3,4.9999999 A 1.0592013,1.0592013 0 0 0 11.5,16.058594 l 1.441406,0 0,14.882812 -1.882812,0 0,-1.441406 A 1.0592013,1.0592013 0 0 0 9.4550781,28.591797 l -5,3 a 1.0592013,1.0592013 0 0 0 0,1.816406 l 5,3 A 1.0592013,1.0592013 0 0 0 11.058594,35.5 l 0,-1.441406 1.882812,0 0,2.882812 -1.441406,0 a 1.0592013,1.0592013 0 0 0 -0.908203,1.603516 l 3,5 a 1.0592013,1.0592013 0 0 0 1.816406,0 l 3,-5 A 1.0592013,1.0592013 0 0 0 17.5,36.941406 l -1.441406,0 0,-2.882812 20.882812,0 0,1.441406 a 1.0592013,1.0592013 0 0 0 1.603516,0.908203 l 5,-3 a 1.0592013,1.0592013 0 0 0 0,-1.816406 l -5,-3 A 1.0592013,1.0592013 0 0 0 36.941406,29.5 l 0,1.441406 -20.882812,0 0,-14.882812 1.441406,0 a 1.0592013,1.0592013 0 0 0 0.908203,-1.603516 l -3,-4.9999999 A 1.0592013,1.0592013 0 0 0 14.53125,8.9414062 Z" color="#000" color-interpolation="sRGB" color-interpolation-filters="linearRGB" color-rendering="auto" display="inline" enable-background="accumulate" image-rendering="auto" opacity=".15" overflow="visible" shape-rendering="auto" text-rendering="auto" visibility="visible"/><path id="path4340-8" fill="#000" fill-opacity="1" fill-rule="nonzero" stroke="none" stroke-dasharray="none" stroke-dashoffset="0" stroke-linecap="butt" stroke-linejoin="miter" stroke-miterlimit="4" stroke-opacity="1" stroke-width="1" d="m 14.5,10 -3,5 2.5,0 0,17 -4,0 0,-2.5 -5,3 5,3 0,-2.5 4,0 0,5 -2.5,0 3,5 3,-5 -2.5,0 0,-5 23,0 0,2.5 5,-3 -5,-3 0,2.5 -23,0 0,-17 2.5,0 z" clip-rule="nonzero" color="#000" color-interpolation="sRGB" color-interpolation-filters="linearRGB" color-rendering="auto" display="inline" enable-background="accumulate" image-rendering="auto" opacity=".3" overflow="visible" shape-rendering="auto" text-rendering="auto" visibility="visible" style="isolation:auto;mix-blend-mode:normal;solid-color:#000;solid-opacity:1;marker:none;filter-blend-mode:normal;filter-gaussianBlur-deviation:0"/><rect clip-rule="nonzero" style="isolation:auto;mix-blend-mode:normal;solid-color:#000;solid-opacity:1;marker:none" id="rect5505-21-3-8-9-1-1" width="43" height="38" x="2.5" y="6.5" fill="none" fill-opacity="1" fill-rule="nonzero" stroke="#000" stroke-dasharray="none" stroke-dashoffset="0" stroke-linecap="round" stroke-linejoin="round" stroke-miterlimit="4" stroke-opacity="1" stroke-width="1" color="#000" color-interpolation="sRGB" color-interpolation-filters="linearRGB" color-rendering="auto" display="inline" enable-background="accumulate" image-rendering="auto" opacity=".7" overflow="visible" rx="1.5" ry="1.5" shape-rendering="auto" text-rendering="auto" visibility="visible"/><path id="path4340" fill="url(#linearGradient3024-0)" fill-opacity="1" fill-rule="nonzero" stroke="none" stroke-dasharray="none" stroke-dashoffset="0" stroke-linecap="butt" stroke-linejoin="miter" stroke-miterlimit="4" stroke-opacity="1" stroke-width="1" d="m 14.5,9 -3,5 2.5,0 0,17 -4,0 0,-2.5 -5,3 5,3 0,-2.5 4,0 0,5 -2.5,0 3,5 3,-5 -2.5,0 0,-5 23,0 0,2.5 5,-3 -5,-3 0,2.5 -23,0 0,-17 2.5,0 z" clip-rule="nonzero" color="#000" color-interpolation="sRGB" color-interpolation-filters="linearRGB" color-rendering="auto" display="inline" enable-background="accumulate" image-rendering="auto" opacity="1" overflow="visible" shape-rendering="auto" text-rendering="auto" visibility="visible" style="isolation:auto;mix-blend-mode:normal;solid-color:#000;solid-opacity:1;marker:none"/></svg>