<svg xmlns="http://www.w3.org/2000/svg" xmlns:svg="http://www.w3.org/2000/svg" xmlns:xlink="http://www.w3.org/1999/xlink" id="svg3670" width="32" height="32" version="1.1"><defs id="defs3672"><linearGradient id="linearGradient3208"><stop id="stop3210" offset="0" stop-color="#fff" stop-opacity="1"/><stop id="stop3212" offset="1" stop-color="#fff" stop-opacity="0"/></linearGradient><linearGradient id="linearGradient3711-6"><stop id="stop3713-6" offset="0" stop-color="#fff" stop-opacity="1"/><stop id="stop3715-7" offset="1" stop-color="#d2d2d2" stop-opacity="1"/></linearGradient><linearGradient id="linearGradient2904"><stop id="stop2906" offset="0" stop-color="#b9b9b9" stop-opacity="1"/><stop id="stop2910" offset=".216" stop-color="#fff" stop-opacity="1"/><stop id="stop2912" offset=".702" stop-color="#c3c3c3" stop-opacity="1"/><stop id="stop2908" offset="1" stop-color="#878787" stop-opacity="1"/></linearGradient><linearGradient id="linearGradient4170"><stop id="stop4172" offset="0" stop-color="#fff" stop-opacity="1"/><stop id="stop4174" offset=".028" stop-color="#fff" stop-opacity=".235"/><stop id="stop4176" offset=".984" stop-color="#fff" stop-opacity=".157"/><stop id="stop4178" offset="1" stop-color="#fff" stop-opacity=".392"/></linearGradient><linearGradient id="linearGradient9423" x1="16.977" x2="28.029" y1="14.011" y2="13.983" gradientTransform="matrix(0.99514874,0,0,0.79639888,73.1074,178.36402)" gradientUnits="userSpaceOnUse" xlink:href="#linearGradient11193"/><linearGradient id="linearGradient11193"><stop id="stop11195" offset="0" stop-color="#fff" stop-opacity="1"/><stop id="stop9375" offset=".238" stop-color="#e5e5e5" stop-opacity="1"/><stop id="stop11205" offset=".549" stop-color="#e1e1e1" stop-opacity="1"/><stop id="stop11201" offset=".692" stop-color="#ababab" stop-opacity="1"/><stop id="stop11203" offset=".806" stop-color="#959595" stop-opacity="1"/><stop id="stop11197" offset="1" stop-color="#d3d3d3" stop-opacity="1"/></linearGradient><linearGradient id="linearGradient9425" x1="23.72" x2="23.72" y1="14.75" y2="33.25" gradientTransform="matrix(0.35675676,0,0,0.02702703,89.53784,189.35135)" gradientUnits="userSpaceOnUse" xlink:href="#linearGradient4413"/><linearGradient id="linearGradient4413"><stop id="stop4415" offset="0" stop-color="#fff" stop-opacity="1"/><stop id="stop4417" offset=".125" stop-color="#fff" stop-opacity=".235"/><stop id="stop4419" offset="1" stop-color="#fff" stop-opacity=".157"/><stop id="stop4421" offset="1" stop-color="#fff" stop-opacity=".392"/></linearGradient><radialGradient id="radialGradient9452" cx="18.754" cy="40.579" r="13.084" fx="18.754" fy="40.579" gradientTransform="matrix(0.70282884,0,0,0.27306454,79.157452,196.26613)" gradientUnits="userSpaceOnUse" xlink:href="#linearGradient3711-6"/><linearGradient id="linearGradient9408-0" x1="18.737" x2="30.231" y1="13.352" y2="13.352" gradientTransform="matrix(0.71428546,0,0,0.8333331,78.00001,177.24999)" gradientUnits="userSpaceOnUse" xlink:href="#linearGradient2904"/><radialGradient id="radialGradient9430" cx="23.898" cy="9.913" r="6.469" fx="23.898" fy="9.913" gradientTransform="matrix(1.0996681,0,0,0.66890226,69.568156,175.13018)" gradientUnits="userSpaceOnUse" xlink:href="#linearGradient3208"/><linearGradient id="linearGradient9412-9" x1="24.458" x2="24.458" y1="2.864" y2="20.136" gradientTransform="matrix(0.72727299,0,0,0.90000059,78.04545,178.14998)" gradientUnits="userSpaceOnUse" xlink:href="#linearGradient4170"/><linearGradient id="linearGradient9434-7" x1="21.962" x2="24.508" y1="6.361" y2="10.75" gradientTransform="matrix(0.59813084,0,0,0.64695805,79.78797,177.4202)" gradientUnits="userSpaceOnUse" xlink:href="#linearGradient3208"/><linearGradient id="linearGradient9503-8" x1="23.813" x2="26.243" y1="41.837" y2="32.429" gradientUnits="userSpaceOnUse" xlink:href="#linearGradient3208"/></defs><metadata id="metadata3675"/><g id="g5939" display="inline" transform="translate(-79,-178)"><ellipse id="ellipse9450" cx="95.5" cy="206.5" fill="url(#radialGradient9452)" fill-opacity="1" stroke="#000" stroke-dasharray="none" stroke-dashoffset="0" stroke-linecap="round" stroke-linejoin="round" stroke-miterlimit="4" stroke-opacity=".4" stroke-width="1" display="inline" rx="8" ry="3"/><path id="path9460" fill="#e1e1e1" fill-opacity="1" fill-rule="nonzero" stroke="#000" stroke-dasharray="none" stroke-dashoffset="0" stroke-linecap="butt" stroke-linejoin="round" stroke-miterlimit="4" stroke-opacity=".4" stroke-width="1" d="m 85.5,189.5 v 2 h 1 v 2.0957 c -4e-6,3.18365 1.721655,6.12788 4.503906,7.71485 1.091846,0.62277 2.283463,0.99102 3.496094,1.125 V 205.5 h 2 v -3.06445 c 1.212631,-0.13398 2.404248,-0.50223 3.496094,-1.125 C 102.77834,199.72358 104.5,196.77935 104.5,193.5957 V 191.5 h 1 v -2 z m 3,2 h 14 v 2.0957 c 0,2.46365 -1.32795,4.73988 -3.496094,5.97657 -2.168139,1.23668 -4.839673,1.23668 -7.007812,0 C 89.827953,198.33558 88.499997,196.05935 88.5,193.5957 Z" baseline-shift="baseline" clip-rule="nonzero" color="#000" color-interpolation="sRGB" color-interpolation-filters="linearRGB" color-rendering="auto" direction="ltr" display="inline" dominant-baseline="auto" enable-background="accumulate" font-family="sans-serif" font-size="medium" font-stretch="normal" font-style="normal" font-variant="normal" font-weight="normal" image-rendering="auto" letter-spacing="normal" opacity="1" overflow="visible" shape-rendering="auto" text-anchor="start" text-decoration="none" text-rendering="auto" vector-effect="none" visibility="visible" word-spacing="normal" writing-mode="lr-tb" style="line-height:normal;font-variant-ligatures:normal;font-variant-position:normal;font-variant-caps:normal;font-variant-numeric:normal;font-variant-alternates:normal;font-feature-settings:normal;text-indent:0;text-align:start;text-decoration-line:none;text-decoration-style:solid;text-decoration-color:#000;text-transform:none;text-orientation:mixed;white-space:normal;shape-padding:0;isolation:auto;mix-blend-mode:normal;solid-color:#000;solid-opacity:1"/><rect id="rect9406" width="10" height="20" x="90.5" y="178.5" fill="url(#linearGradient9408-0)" fill-opacity="1" stroke="#000" stroke-dasharray="none" stroke-dashoffset="0" stroke-linecap="square" stroke-linejoin="round" stroke-miterlimit="4" stroke-opacity=".4" stroke-width="1" rx="5" ry="5"/><path id="path9428" fill="url(#radialGradient9430)" fill-opacity="1" stroke="none" stroke-width="1" d="m 95.5,179 c -2.494764,0 -4.5,2.00113 -4.5,4.5 v 3.47826 h 9 V 183.5 c 0,-2.49887 -2.005236,-4.5 -4.5,-4.5 z" display="inline" opacity=".9"/><rect id="rect9410" width="8" height="18" x="91.5" y="179.5" fill="none" stroke="url(#linearGradient9412-9)" stroke-dasharray="none" stroke-dashoffset="0" stroke-linecap="square" stroke-linejoin="round" stroke-miterlimit="4" stroke-opacity="1" stroke-width="1" display="inline" rx="4" ry="4"/><ellipse id="ellipse9432" cx="93.938" cy="182.394" fill="url(#linearGradient9434-7)" fill-opacity="1" stroke="none" stroke-width="1.04" rx="2" ry="1.981"/><path id="path9414" fill="#000" fill-opacity="1" stroke="none" d="m 93.5,179 c -0.276,0 -0.5,0.224 -0.5,0.5 0,0.276 0.224,0.5 0.5,0.5 0.276,0 0.5,-0.224 0.5,-0.5 0,-0.276 -0.224,-0.5 -0.5,-0.5 z m 2,0 c -0.276,0 -0.5,0.224 -0.5,0.5 0,0.276 0.224,0.5 0.5,0.5 0.276,0 0.5,-0.224 0.5,-0.5 0,-0.276 -0.224,-0.5 -0.5,-0.5 z m 2,0 c -0.276,0 -0.5,0.224 -0.5,0.5 0,0.276 0.224,0.5 0.5,0.5 0.276,0 0.5,-0.224 0.5,-0.5 0,-0.276 -0.224,-0.5 -0.5,-0.5 z m -5,1 c -0.276,0 -0.5,0.224 -0.5,0.5 0,0.276 0.224,0.5 0.5,0.5 0.276,0 0.5,-0.224 0.5,-0.5 0,-0.276 -0.224,-0.5 -0.5,-0.5 z m 2,0 c -0.276,0 -0.5,0.224 -0.5,0.5 0,0.276 0.224,0.5 0.5,0.5 0.276,0 0.5,-0.224 0.5,-0.5 0,-0.276 -0.224,-0.5 -0.5,-0.5 z m 2,0 c -0.276,0 -0.5,0.224 -0.5,0.5 0,0.276 0.224,0.5 0.5,0.5 0.276,0 0.5,-0.224 0.5,-0.5 0,-0.276 -0.224,-0.5 -0.5,-0.5 z m 2,0 c -0.276,0 -0.5,0.224 -0.5,0.5 0,0.276 0.224,0.5 0.5,0.5 0.276,0 0.5,-0.224 0.5,-0.5 0,-0.276 -0.224,-0.5 -0.5,-0.5 z m -7,1 c -0.276,0 -0.5,0.224 -0.5,0.5 0,0.276 0.224,0.5 0.5,0.5 0.276,0 0.5,-0.224 0.5,-0.5 0,-0.276 -0.224,-0.5 -0.5,-0.5 z m 2,0 c -0.276,0 -0.5,0.224 -0.5,0.5 0,0.276 0.224,0.5 0.5,0.5 0.276,0 0.5,-0.224 0.5,-0.5 0,-0.276 -0.224,-0.5 -0.5,-0.5 z m 2,0 c -0.276,0 -0.5,0.224 -0.5,0.5 0,0.276 0.224,0.5 0.5,0.5 0.276,0 0.5,-0.224 0.5,-0.5 0,-0.276 -0.224,-0.5 -0.5,-0.5 z m 2,0 c -0.276,0 -0.5,0.224 -0.5,0.5 0,0.276 0.224,0.5 0.5,0.5 0.276,0 0.5,-0.224 0.5,-0.5 0,-0.276 -0.224,-0.5 -0.5,-0.5 z m 2,0 c -0.276,0 -0.5,0.224 -0.5,0.5 0,0.276 0.224,0.5 0.5,0.5 0.276,0 0.5,-0.224 0.5,-0.5 0,-0.276 -0.224,-0.5 -0.5,-0.5 z m -7,1 c -0.276,0 -0.5,0.224 -0.5,0.5 0,0.276 0.224,0.5 0.5,0.5 0.276,0 0.5,-0.224 0.5,-0.5 0,-0.276 -0.224,-0.5 -0.5,-0.5 z m 2,0 c -0.276,0 -0.5,0.224 -0.5,0.5 0,0.276 0.224,0.5 0.5,0.5 0.276,0 0.5,-0.224 0.5,-0.5 0,-0.276 -0.224,-0.5 -0.5,-0.5 z m 2,0 c -0.276,0 -0.5,0.224 -0.5,0.5 0,0.276 0.224,0.5 0.5,0.5 0.276,0 0.5,-0.224 0.5,-0.5 0,-0.276 -0.224,-0.5 -0.5,-0.5 z m 2,0 c -0.276,0 -0.5,0.224 -0.5,0.5 0,0.276 0.224,0.5 0.5,0.5 0.276,0 0.5,-0.224 0.5,-0.5 0,-0.276 -0.224,-0.5 -0.5,-0.5 z m -7,1 c -0.276,0 -0.5,0.224 -0.5,0.5 0,0.276 0.224,0.5 0.5,0.5 0.276,0 0.5,-0.224 0.5,-0.5 0,-0.276 -0.224,-0.5 -0.5,-0.5 z m 2,0 c -0.276,0 -0.5,0.224 -0.5,0.5 0,0.276 0.224,0.5 0.5,0.5 0.276,0 0.5,-0.224 0.5,-0.5 0,-0.276 -0.224,-0.5 -0.5,-0.5 z m 2,0 c -0.276,0 -0.5,0.224 -0.5,0.5 0,0.276 0.224,0.5 0.5,0.5 0.276,0 0.5,-0.224 0.5,-0.5 0,-0.276 -0.224,-0.5 -0.5,-0.5 z m 2,0 c -0.276,0 -0.5,0.224 -0.5,0.5 0,0.276 0.224,0.5 0.5,0.5 0.276,0 0.5,-0.224 0.5,-0.5 0,-0.276 -0.224,-0.5 -0.5,-0.5 z m 2,0 c -0.276,0 -0.5,0.224 -0.5,0.5 0,0.276 0.224,0.5 0.5,0.5 0.276,0 0.5,-0.224 0.5,-0.5 0,-0.276 -0.224,-0.5 -0.5,-0.5 z m -7,1 c -0.276,0 -0.5,0.224 -0.5,0.5 0,0.276 0.224,0.5 0.5,0.5 0.276,0 0.5,-0.224 0.5,-0.5 0,-0.276 -0.224,-0.5 -0.5,-0.5 z m 2,0 c -0.276,0 -0.5,0.224 -0.5,0.5 0,0.276 0.224,0.5 0.5,0.5 0.276,0 0.5,-0.224 0.5,-0.5 0,-0.276 -0.224,-0.5 -0.5,-0.5 z m 2,0 c -0.276,0 -0.5,0.224 -0.5,0.5 0,0.276 0.224,0.5 0.5,0.5 0.276,0 0.5,-0.224 0.5,-0.5 0,-0.276 -0.224,-0.5 -0.5,-0.5 z m 2,0 c -0.276,0 -0.5,0.224 -0.5,0.5 0,0.276 0.224,0.5 0.5,0.5 0.276,0 0.5,-0.224 0.5,-0.5 0,-0.276 -0.224,-0.5 -0.5,-0.5 z m -7,1 c -0.276,0 -0.5,0.224 -0.5,0.5 0,0.276 0.224,0.5 0.5,0.5 0.276,0 0.5,-0.224 0.5,-0.5 0,-0.276 -0.224,-0.5 -0.5,-0.5 z m 2,0 c -0.276,0 -0.5,0.224 -0.5,0.5 0,0.276 0.224,0.5 0.5,0.5 0.276,0 0.5,-0.224 0.5,-0.5 0,-0.276 -0.224,-0.5 -0.5,-0.5 z m 2,0 c -0.276,0 -0.5,0.224 -0.5,0.5 0,0.276 0.224,0.5 0.5,0.5 0.276,0 0.5,-0.224 0.5,-0.5 0,-0.276 -0.224,-0.5 -0.5,-0.5 z m 2,0 c -0.276,0 -0.5,0.224 -0.5,0.5 0,0.276 0.224,0.5 0.5,0.5 0.276,0 0.5,-0.224 0.5,-0.5 0,-0.276 -0.224,-0.5 -0.5,-0.5 z m 2,0 c -0.276,0 -0.5,0.224 -0.5,0.5 0,0.276 0.224,0.5 0.5,0.5 0.276,0 0.5,-0.224 0.5,-0.5 0,-0.276 -0.224,-0.5 -0.5,-0.5 z m -7,1 c -0.276,0 -0.5,0.224 -0.5,0.5 0,0.276 0.224,0.5 0.5,0.5 0.276,0 0.5,-0.224 0.5,-0.5 0,-0.276 -0.224,-0.5 -0.5,-0.5 z m 2,0 c -0.276,0 -0.5,0.224 -0.5,0.5 0,0.276 0.224,0.5 0.5,0.5 0.276,0 0.5,-0.224 0.5,-0.5 0,-0.276 -0.224,-0.5 -0.5,-0.5 z m 2,0 c -0.276,0 -0.5,0.224 -0.5,0.5 0,0.276 0.224,0.5 0.5,0.5 0.276,0 0.5,-0.224 0.5,-0.5 0,-0.276 -0.224,-0.5 -0.5,-0.5 z m 2,0 c -0.276,0 -0.5,0.224 -0.5,0.5 0,0.276 0.224,0.5 0.5,0.5 0.276,0 0.5,-0.224 0.5,-0.5 0,-0.276 -0.224,-0.5 -0.5,-0.5 z m -7,1 c -0.276,0 -0.5,0.224 -0.5,0.5 0,0.276 0.224,0.5 0.5,0.5 0.276,0 0.5,-0.224 0.5,-0.5 0,-0.276 -0.224,-0.5 -0.5,-0.5 z m 2,0 c -0.276,0 -0.5,0.224 -0.5,0.5 0,0.276 0.224,0.5 0.5,0.5 0.276,0 0.5,-0.224 0.5,-0.5 0,-0.276 -0.224,-0.5 -0.5,-0.5 z m 2,0 c -0.276,0 -0.5,0.224 -0.5,0.5 0,0.276 0.224,0.5 0.5,0.5 0.276,0 0.5,-0.224 0.5,-0.5 0,-0.276 -0.224,-0.5 -0.5,-0.5 z m 2,0 c -0.276,0 -0.5,0.224 -0.5,0.5 0,0.276 0.224,0.5 0.5,0.5 0.276,0 0.5,-0.224 0.5,-0.5 0,-0.276 -0.224,-0.5 -0.5,-0.5 z m 2,0 c -0.276,0 -0.5,0.224 -0.5,0.5 0,0.276 0.224,0.5 0.5,0.5 0.276,0 0.5,-0.224 0.5,-0.5 0,-0.276 -0.224,-0.5 -0.5,-0.5 z m -7,1 c -0.276,0 -0.5,0.224 -0.5,0.5 0,0.276 0.224,0.5 0.5,0.5 0.276,0 0.5,-0.224 0.5,-0.5 0,-0.276 -0.224,-0.5 -0.5,-0.5 z m 2,0 c -0.276,0 -0.5,0.224 -0.5,0.5 0,0.276 0.224,0.5 0.5,0.5 0.276,0 0.5,-0.224 0.5,-0.5 0,-0.276 -0.224,-0.5 -0.5,-0.5 z m 2,0 c -0.276,0 -0.5,0.224 -0.5,0.5 0,0.276 0.224,0.5 0.5,0.5 0.276,0 0.5,-0.224 0.5,-0.5 0,-0.276 -0.224,-0.5 -0.5,-0.5 z m 2,0 c -0.276,0 -0.5,0.224 -0.5,0.5 0,0.276 0.224,0.5 0.5,0.5 0.276,0 0.5,-0.224 0.5,-0.5 0,-0.276 -0.224,-0.5 -0.5,-0.5 z" display="inline" opacity=".3"/><path id="rect9419" fill="url(#linearGradient9423)" fill-opacity="1" fill-rule="nonzero" stroke="#000" stroke-dasharray="none" stroke-miterlimit="4" stroke-opacity=".251" stroke-width="1" d="m 90.5,188.52261 h 10 v 3 h -10 z" color="#000" display="inline" enable-background="accumulate" overflow="visible" visibility="visible" style="marker:none"/><path id="path9421" fill="none" stroke="url(#linearGradient9425)" stroke-dasharray="none" stroke-dashoffset="0" stroke-linecap="round" stroke-linejoin="miter" stroke-miterlimit="4" stroke-opacity="1" stroke-width="1" d="m 91.5,189.5 h 8 v 1 h -8 z" display="inline" enable-background="new" opacity=".4"/><rect id="rect9388" width="1" height="2" x="87" y="190" fill="#000" fill-opacity="1" stroke="none" stroke-dasharray="none" stroke-dashoffset="0" stroke-linecap="round" stroke-linejoin="round" stroke-miterlimit="4" stroke-opacity="1" stroke-width="1" display="inline" enable-background="new" opacity=".4"/><rect id="rect9390" width="1" height="2" x="103" y="190" fill="#000" fill-opacity="1" stroke="none" stroke-dasharray="none" stroke-dashoffset="0" stroke-linecap="round" stroke-linejoin="round" stroke-miterlimit="4" stroke-opacity="1" stroke-width="1" display="inline" enable-background="new" opacity=".4"/><path id="path9499" fill="none" fill-opacity="1" stroke="#fff" stroke-dasharray="none" stroke-dashoffset="0" stroke-linecap="round" stroke-linejoin="round" stroke-miterlimit="4" stroke-opacity=".498" stroke-width="1" d="m 103.49995,193.59656 c 0,2.82362 -1.52478,5.43276 -3.99998,6.84457 -2.475192,1.41181 -5.524753,1.41181 -7.999945,0 -2.475195,-1.41181 -3.999977,-4.02095 -3.999975,-6.84457" opacity="1"/><path id="path9501" fill="none" stroke="url(#linearGradient9503-8)" stroke-dasharray="none" stroke-dashoffset="0" stroke-linecap="round" stroke-linejoin="round" stroke-miterlimit="4" stroke-opacity="1" stroke-width="2.08" d="m 23.8125,31.494141 c -3.339495,0 -6.355926,0.702787 -8.453125,1.769531 -2.097199,1.066744 -3.146484,2.402694 -3.146484,3.642578 0,1.239884 1.049285,2.575834 3.146484,3.642578 2.097199,1.066744 5.11363,1.769532 8.453125,1.769531 3.339495,0 6.355926,-0.702787 8.453125,-1.769531 2.097199,-1.066744 3.146484,-2.402694 3.146484,-3.642578 0,-1.239884 -1.049285,-2.575834 -3.146484,-3.642578 -2.097199,-1.066744 -5.11363,-1.769531 -8.453125,-1.769531 z" display="inline" opacity=".6" transform="matrix(0.58995952,0,0,0.39180583,81.422146,192.02086)"/></g></svg>