<svg xmlns="http://www.w3.org/2000/svg" xmlns:svg="http://www.w3.org/2000/svg" xmlns:xlink="http://www.w3.org/1999/xlink" id="svg2485" width="32" height="32" version="1.0" viewBox="0 0 32 32"><metadata id="metadata71"/><defs id="defs2487"><linearGradient id="linearGradient5126"><stop id="stop5128" offset="0" stop-color="#fff" stop-opacity="1"/><stop id="stop5130" offset="1" stop-color="#fff" stop-opacity="0"/></linearGradient><linearGradient id="linearGradient5118"><stop id="stop5120" offset="0" stop-color="#9d9d9d" stop-opacity="1"/><stop id="stop5122" offset="1" stop-color="#fff" stop-opacity="1"/></linearGradient><linearGradient id="linearGradient4762"><stop id="stop4764" offset="0" stop-color="#fff" stop-opacity="1"/><stop id="stop4766" offset=".05" stop-color="#fff" stop-opacity=".235"/><stop id="stop4768" offset=".95" stop-color="#fff" stop-opacity=".157"/><stop id="stop4770" offset="1" stop-color="#fff" stop-opacity=".392"/></linearGradient><linearGradient id="linearGradient2867-449-88-871-390-598-476-591-434-148-57-177-3-8-1"><stop id="stop3750-8-9-7" offset="0" stop-color="#90dbec" stop-opacity="1"/><stop id="stop3752-3-2-4" offset=".262" stop-color="#42baea" stop-opacity="1"/><stop id="stop3754-7-2-4" offset=".705" stop-color="#3689e6" stop-opacity="1"/><stop id="stop3756-9-3-7" offset="1" stop-color="#2b63a0" stop-opacity="1"/></linearGradient><linearGradient id="linearGradient4393" x1="-5.001" x2="46.68" y1="35" y2="35" gradientTransform="matrix(0.55555556,0,0,0.92105266,2.666667,-11.486842)" gradientUnits="userSpaceOnUse" xlink:href="#linearGradient2867-449-88-871-390-598-476-591-434-148-57-177-3-8-1"/><linearGradient id="linearGradient3254-3-182-8-5"><stop id="stop4663-8-7" offset="0" stop-color="#fff" stop-opacity="1"/><stop id="stop4665-7-6" offset="1" stop-color="#fff" stop-opacity="0"/></linearGradient><linearGradient id="linearGradient4760" x1="30" x2="30" y1="7" y2="43" gradientTransform="matrix(0.51999998,0,0,0.64864864,3.5200001,0.28378406)" gradientUnits="userSpaceOnUse" xlink:href="#linearGradient4762"/><linearGradient id="linearGradient3457-7-6" x1="-20.447" x2="-48.479" y1="-93.092" y2="-93.092" gradientTransform="matrix(0.12740271,0,0,0.15113872,19.319255,17.024284)" gradientUnits="userSpaceOnUse" spreadMethod="reflect" xlink:href="#linearGradient2793-2-0-669-94-2"/><linearGradient id="linearGradient2793-2-0-669-94-2"><stop id="stop4681-3-1" offset="0" stop-color="#b4b4b4" stop-opacity="1"/><stop id="stop4683-67-4" offset="1" stop-color="#fff" stop-opacity="1"/></linearGradient><linearGradient id="linearGradient5066-8" x1="-17.121" x2="-45.762" y1="-93.092" y2="-93.092" gradientTransform="matrix(0.36855189,0,0,0.13359585,25.643284,15.699275)" gradientUnits="userSpaceOnUse" spreadMethod="reflect" xlink:href="#linearGradient5118"/><radialGradient id="radialGradient5132" cx="16.5" cy="7.5" r="3.5" fx="16.5" fy="7.5" gradientTransform="matrix(0.53450479,0,0,0.5901873,2.7689069,0.07629)" gradientUnits="userSpaceOnUse" xlink:href="#linearGradient5126"/><linearGradient id="linearGradient3820-7-2-1-2-6"><stop id="stop3822-2-6-3-3-7" offset="0" stop-color="#3d3d3d" stop-opacity="1"/><stop id="stop3864-8-7-7-9-1" offset=".5" stop-color="#686868" stop-opacity=".498"/><stop id="stop3824-1-2-5-0-3" offset="1" stop-color="#686868" stop-opacity="0"/></linearGradient><radialGradient id="radialGradient5362" cx="99.157" cy="186.171" r="62.769" fx="99.157" fy="186.171" gradientTransform="matrix(0.15931399,0,0,0.03982852,0.20289978,21.085354)" gradientUnits="userSpaceOnUse" xlink:href="#linearGradient3820-7-2-1-2-6"/><linearGradient id="linearGradient5508" x1="13.682" x2="17.773" y1="17.458" y2="35.717" gradientTransform="matrix(0.9777772,0,0,1.3941434,-2.3777703,-20.567459)" gradientUnits="userSpaceOnUse" xlink:href="#linearGradient3254-3-182-8-5"/><linearGradient id="linearGradient5510" x1="25.273" x2="27.318" y1="17.458" y2="35.717" gradientTransform="matrix(0.9777772,0,0,1.4146455,-5.7111039,-21.112568)" gradientUnits="userSpaceOnUse" xlink:href="#linearGradient3254-3-182-8-5"/><linearGradient id="linearGradient5066-8-6" x1="-17.121" x2="-45.762" y1="-93.092" y2="-93.092" gradientTransform="matrix(0.36855188,0,0,0.13553199,25.643284,15.736027)" gradientUnits="userSpaceOnUse" spreadMethod="reflect" xlink:href="#linearGradient5118"/></defs><path stroke-opacity="1" style="marker:none;font-variant-east_asian:normal" id="rect3268-6-4-7" fill="url(#linearGradient5066-8-6)" fill-opacity="1" fill-rule="nonzero" stroke="none" stroke-dasharray="none" stroke-dashoffset="0" stroke-linecap="butt" stroke-linejoin="miter" stroke-miterlimit="4" stroke-width="1" d="m 16,3.4199335 c -4.155,0 -7.4999999,0.5747605 -7.4999999,1.2887006 V 13.29997 c 0,-0.71394 3.3449999,-1.2887 7.4999999,-1.2887 4.155,0 7.5,0.57476 7.5,1.2887 V 4.7086341 C 23.5,3.994694 20.155,3.4199335 16,3.4199335 Z" color="#000" display="inline" enable-background="accumulate" opacity="1" overflow="visible" vector-effect="none" visibility="visible"/><path id="path3818-0-5" fill="url(#radialGradient5362)" fill-opacity="1" stroke="none" stroke-width="1" d="m 26,28.50025 a 10,2.5 0 0 1 -19.9999999,0 10,2.5 0 1 1 19.9999999,0 z"/><rect id="rect3268-0-1" width="15" height="17.5" x="8.5" y="12" fill="url(#linearGradient4393)" fill-opacity="1" fill-rule="nonzero" stroke="none" stroke-width="1" color="#000" display="inline" enable-background="accumulate" overflow="visible" rx="9.18" ry="1.01" visibility="visible" style="marker:none"/><path id="rect3268-0" fill="#000" fill-opacity="0" fill-rule="nonzero" stroke="#00537d" stroke-dasharray="none" stroke-dashoffset="0" stroke-linecap="butt" stroke-linejoin="round" stroke-miterlimit="4" stroke-opacity="1" stroke-width="1" d="m 23,13.028685 c 0,-0.569723 -3.122,-1.028379 -7,-1.028379 -3.878001,0 -7,0.458656 -7,1.028379" color="#000" display="inline" enable-background="accumulate" opacity=".5" overflow="visible" visibility="visible" style="marker:none"/><path id="rect3268-6-4" fill="url(#linearGradient5066-8)" fill-opacity="1" fill-rule="nonzero" stroke="none" stroke-width="1" d="M 15.999999,3.5 C 11.844999,3.5 8.5,4.0734287 8.5,4.7857145 V 6.5 c 0,-0.7122858 3.344999,-1.2857145 7.499999,-1.2857145 4.155001,0 7.5,0.5734287 7.5,1.2857145 V 4.7857145 C 23.499999,4.0734287 20.155,3.5 15.999999,3.5 Z" color="#000" display="inline" enable-background="accumulate" overflow="visible" visibility="visible" style="marker:none"/><path id="rect3268-3-9" fill="url(#linearGradient3457-7-6)" fill-opacity="1" fill-rule="nonzero" stroke="none" stroke-width="1" d="M 18.5,3.5 V 2.3181818 c 0,-0.4546401 -1.115,-0.8181819 -2.5,-0.8181819 -1.385,0 -2.5,0.3635418 -2.5,0.8181819 V 3.5" color="#000" display="inline" enable-background="accumulate" overflow="visible" visibility="visible" style="marker:none"/><path id="rect3268-3" fill="none" stroke="#000" stroke-dasharray="none" stroke-dashoffset="0" stroke-linecap="butt" stroke-linejoin="miter" stroke-miterlimit="7" stroke-opacity="1" stroke-width="1" d="M 18.499999,2.9999999 V 2.1136363 c 0,-0.34098 -1.114999,-0.6136364 -2.5,-0.6136364 -1.385,0 -2.499999,0.2726564 -2.499999,0.6136364 v 0.8863636" color="#000" display="block" enable-background="accumulate" opacity=".3" overflow="visible" visibility="visible" style="marker:none"/><path id="path4752" fill="none" stroke="url(#linearGradient4760)" stroke-dasharray="none" stroke-dashoffset="0" stroke-linecap="butt" stroke-linejoin="miter" stroke-miterlimit="7" stroke-opacity="1" stroke-width="1" d="m 16,4.4999999 c -1.929142,0 -3.667413,0.1119074 -4.907499,0.2837841 -0.620045,0.085943 -1.1206868,0.182088 -1.4300011,0.2837841 -0.085062,0.027963 -0.1108557,0.036885 -0.1625,0.060811 V 27.871622 c 0.051646,0.02393 0.077438,0.03284 0.1625,0.06081 0.3093143,0.101695 0.8099561,0.197845 1.4300011,0.283783 C 12.332587,28.388092 14.070858,28.5 16,28.5 c 1.929142,0 3.667413,-0.111908 4.907499,-0.283784 0.620045,-0.08594 1.120687,-0.182088 1.430001,-0.283783 0.08506,-0.02797 0.110855,-0.03689 0.1625,-0.06081 V 5.1283789 C 22.448355,5.1044535 22.422562,5.0955342 22.3375,5.0675681 22.028186,4.965872 21.527544,4.8697218 20.907499,4.783784 19.667413,4.6119073 17.929142,4.4999999 16,4.4999999 Z" color="#000" display="block" enable-background="accumulate" opacity=".8" overflow="visible" visibility="visible" style="marker:none"/><rect id="rect3268" width="15" height="26" x="8.5" y="3.5" fill="none" stroke="#000" stroke-dasharray="none" stroke-dashoffset="0" stroke-linecap="butt" stroke-linejoin="miter" stroke-miterlimit="7" stroke-opacity="1" stroke-width="1" color="#000" display="block" enable-background="accumulate" opacity=".3" overflow="visible" rx="9.18" ry="1" visibility="visible" style="marker:none"/><path d="m 15,3.4999999 c -2.141789,0.08116 -3.004844,0.2414338 -4,0.4814808 V 29.018518 c 0.995156,0.240047 1.858211,0.40032 4,0.481481 z" style="marker:none" id="path5194" fill="url(#linearGradient5508)" fill-opacity="1" fill-rule="nonzero" stroke="none" stroke-width="1" display="inline" opacity=".3" overflow="visible" visibility="visible"/><path d="M 19,3.4999998 V 29.499999 c 0.757782,-0.08406 1.536192,-0.183863 2,-0.297386 V 3.7973848 C 20.536192,3.6838626 19.757782,3.5840522 19,3.4999998 Z" style="marker:none" id="rect3244" fill="url(#linearGradient5510)" fill-opacity="1" fill-rule="nonzero" stroke="none" stroke-width="1" display="inline" opacity=".1" overflow="visible" visibility="visible"/><path id="path5124" fill="url(#radialGradient5132)" fill-opacity="1" fill-rule="nonzero" stroke="none" stroke-width="1.37" d="m 13.459003,4.502695 a 1.8707668,2.0656556 0 1 1 -3.7415337,0 1.8707669,2.0656556 0 1 1 3.7415337,0 z" color="#000" display="inline" enable-background="accumulate" opacity=".2" overflow="visible" visibility="visible" style="marker:none"/><path id="rect3268-0-7" fill="none" stroke="#fff" stroke-dasharray="none" stroke-dashoffset="0" stroke-linecap="butt" stroke-linejoin="miter" stroke-miterlimit="7" stroke-opacity="1" stroke-width="1" d="M 22.981918,13.795166 C 22.078868,13.334046 19.302622,13 16,13 12.708443,13 9.9397386,13.331812 9.0272201,13.790536" color="#000" display="block" enable-background="accumulate" opacity=".2" overflow="visible" visibility="visible" style="marker:none"/></svg>