<svg xmlns="http://www.w3.org/2000/svg" xmlns:svg="http://www.w3.org/2000/svg" xmlns:xlink="http://www.w3.org/1999/xlink" id="svg2" width="32" height="32" version="1.0"><metadata id="metadata88"/><defs id="defs4"><linearGradient id="linearGradient4075"><stop id="stop4077" offset="0" stop-color="#fff" stop-opacity="1"/><stop id="stop4079" offset=".034" stop-color="#fff" stop-opacity=".235"/><stop id="stop4081" offset=".992" stop-color="#fff" stop-opacity=".157"/><stop id="stop4083" offset="1" stop-color="#fff" stop-opacity=".392"/></linearGradient><linearGradient id="linearGradient4161-4" x1="11.117" x2="11.117" y1="-7.496" y2="41.946" gradientTransform="matrix(0.26232885,0,0,0.42474288,18.083588,5.1837037)" gradientUnits="userSpaceOnUse" xlink:href="#linearGradient4075"/><linearGradient id="linearGradient4604" x1="116.791" x2="116.791" y1="-37.808" y2="-26.979" gradientTransform="matrix(0.43035349,0,0,0.7671517,-29.42096,-0.1211738)" gradientUnits="userSpaceOnUse" xlink:href="#linearGradient4614"/><linearGradient id="linearGradient4614"><stop id="stop4606" offset="0" stop-color="#fff" stop-opacity="1"/><stop id="stop4608" offset=".031" stop-color="#fff" stop-opacity=".235"/><stop id="stop4610" offset=".981" stop-color="#fff" stop-opacity=".157"/><stop id="stop4612" offset="1" stop-color="#fff" stop-opacity=".392"/></linearGradient><linearGradient id="linearGradient3600-8"><stop id="stop3602-2" offset="0" stop-color="#f4f4f4" stop-opacity="1"/><stop id="stop3604-5" offset="1" stop-color="#dbdbdb" stop-opacity="1"/></linearGradient><linearGradient id="linearGradient4616" x1="17" x2="16.875" y1="0" y2="23.996" gradientTransform="translate(1)" gradientUnits="userSpaceOnUse" xlink:href="#linearGradient3600-8"/><radialGradient id="radialGradient7374-3" cx="23.335" cy="41.636" r="22.627" gradientTransform="matrix(0.39774462,0,0,0.0903985,6.718924,26.190573)" gradientUnits="userSpaceOnUse"><stop id="stop23421-6" offset="0"/><stop id="stop23423-7" offset="1" stop-opacity="0"/></radialGradient></defs><path id="path23417" fill="url(#radialGradient7374-3)" fill-rule="evenodd" stroke-width="1" d="m 25,29.954546 c 0,2.727271 -18,2.727271 -18,0 0,-2.727271 18,-2.727271 18,0 z" opacity=".3"/><rect id="rect3448" width="11" height="11" x="10.5" y="-30.5" fill="#e6e6e6" fill-opacity="1" stroke="#000" stroke-opacity=".302" stroke-width="1" rx="1" ry="1" transform="scale(1,-1)"/><path id="rect4570" fill="#000" fill-opacity="1" stroke="none" stroke-dasharray="none" stroke-dashoffset="0" stroke-linecap="round" stroke-linejoin="round" stroke-miterlimit="4" stroke-opacity=".4" stroke-width="2" d="m 13,27 v 2 h 2 v -2 z m 4,0 v 2 h 2 v -2 z m -3.5,0.5 h 1 v 1 h -1 z m 4,0 h 1 v 1 h -1 z" opacity=".4"/><rect id="rect3458" width="9" height="9" x="11.494" y="-29.472" fill="none" fill-opacity="1" stroke="url(#linearGradient4604)" stroke-dasharray="none" stroke-dashoffset="0" stroke-linecap="round" stroke-linejoin="round" stroke-miterlimit="4" stroke-opacity="1" stroke-width="1" opacity=".6" transform="scale(1,-1)" style="marker:none"/><path id="rect2990" fill="url(#linearGradient4616)" fill-opacity="1" fill-rule="nonzero" stroke="#000" stroke-opacity=".265" stroke-width="1" d="m 8.5,2 0.011308,21.5 c -0.033435,1.036496 0.9417175,0.991663 0.9417175,0.991663 H 22.352955 C 23.422887,24.525098 23.488695,23.5 23.488695,23.5 L 23.5,2 C 23.5,2 23.48039,0.5 22,0.5 H 10 C 9.1666667,0.5 8.4995617,1.1666668 8.5,2 Z" display="inline" enable-background="accumulate" overflow="visible" visibility="visible" style="marker:none"/><path id="path4034" fill="none" stroke="url(#linearGradient4161-4)" stroke-dasharray="none" stroke-dashoffset="0" stroke-linecap="round" stroke-linejoin="round" stroke-miterlimit="4" stroke-opacity="1" stroke-width="1" d="M 10,1.46875 C 10,1.46875 9.4741176,1.508235 9.5,2 v 21.5 h 13 V 2 C 22.473926,1.4516678 22,1.46875 22,1.46875 Z" color="#000" display="inline" enable-background="accumulate" opacity=".8" overflow="visible" visibility="visible" style="marker:none"/><path id="path4625" fill="#fff" fill-opacity="1" stroke-width="1" d="m 14.482844,21.17785 c 0,-1.045085 0.347347,-1.316215 0.772817,-1.681103 0.341572,-0.164886 0.396149,-0.277454 0.391658,-0.807744 -0.0049,-0.586012 -0.06105,-0.519073 -1.147188,-1.461924 -1.658358,-1.439506 -1.881382,-1.786641 -2.076097,-3.231138 -0.143632,-1.065375 -0.04289,-0.83098 -0.455194,-1.240783 -0.758893,-0.754263 -0.628875,-1.860432 0.274541,-2.335847 0.813864,-0.428277 1.77797,0.02723 2.075279,0.980526 0.146537,0.46983 -0.20477,1.281198 -0.676498,1.562391 -0.431681,0.257344 -0.610771,-0.171702 -0.512054,0.776908 0.05464,0.52503 0.187778,1.128862 0.295869,1.341822 0.185643,0.365739 2.00353,2.087469 2.201273,2.087469 V 6.6722424 H 14.619554 C 15.085891,5.8639259 15.539955,5.0421919 15.991565,4.2284756 L 17.4296,6.6725697 H 16.45013 V 13.8864 c 0.136226,0 1.471823,-1.355485 1.921223,-1.965731 0.194177,-0.263668 0.312012,-0.638055 0.312012,-0.991329 0,-0.532798 0.175703,-0.644833 -0.230681,-0.644833 H 18.019728 V 7.7878882 h 2.45342 v 2.4966188 h -0.396876 c -0.354121,0.04146 -0.607227,0.221959 -0.674078,0.812735 -0.0997,0.881048 -0.477046,1.459305 -1.865755,2.859133 l -1.086318,1.171487 v 4.177721 l 0.32102,0.19159 c 0.218286,0.105375 0.518909,0.445875 0.668055,0.756668 0.53097,1.108572 -0.207806,2.299775 -1.426007,2.299775 -0.882767,-0.03272 -1.530729,-0.485972 -1.530729,-1.374466 z" opacity=".4"/><path id="path3690" fill="#aaa" stroke-width="1" d="m 14.482844,20.17785 c 0,-1.045085 0.347347,-1.316215 0.772817,-1.681103 0.341572,-0.164886 0.396149,-0.277454 0.391658,-0.807744 -0.0049,-0.586012 -0.06105,-0.519073 -1.147188,-1.461924 -1.658358,-1.439506 -1.881382,-1.786641 -2.076097,-3.231138 -0.143632,-1.065375 -0.04289,-0.83098 -0.455194,-1.240783 -0.758893,-0.754263 -0.628875,-1.860432 0.274541,-2.335847 0.813864,-0.4282774 1.77797,0.02723 2.075279,0.980526 0.146537,0.46983 -0.20477,1.281198 -0.676498,1.562391 -0.431681,0.257344 -0.610771,-0.171702 -0.512054,0.776908 0.05464,0.52503 0.187778,1.128862 0.295869,1.341822 0.185643,0.365739 2.00353,2.087469 2.201273,2.087469 V 5.6722424 H 14.619554 C 15.085891,4.8639259 15.539955,4.0421919 15.991565,3.2284756 L 17.4296,5.6725697 H 16.45013 V 12.8864 c 0.136226,0 1.471823,-1.355485 1.921223,-1.965731 0.194177,-0.263668 0.312012,-0.638055 0.312012,-0.991329 0,-0.532798 0.175703,-0.644833 -0.230681,-0.644833 H 18.019728 V 6.7878882 h 2.45342 V 9.284507 h -0.396876 c -0.354121,0.04146 -0.607227,0.221959 -0.674078,0.812735 -0.0997,0.881048 -0.477046,1.459305 -1.865755,2.859133 l -1.086318,1.171487 v 4.177721 l 0.32102,0.19159 c 0.218286,0.105375 0.518909,0.445875 0.668055,0.756668 0.53097,1.108572 -0.207806,2.299775 -1.426007,2.299775 -0.882767,-0.03272 -1.530729,-0.485972 -1.530729,-1.374466 z" opacity="1"/><g id="g4622" opacity=".2" transform="translate(4,7)"><path id="rect4618" fill="#000" fill-opacity="1" stroke="none" stroke-dasharray="none" stroke-dashoffset="0" stroke-linecap="round" stroke-linejoin="round" stroke-miterlimit="4" stroke-opacity=".4" stroke-width="2" d="m 9.5,20.5 v 1 h 1 v -1 z m 4,0 v 1 h 1 v -1 z" opacity="1"/></g><path id="path4666" fill="none" fill-rule="evenodd" stroke="#000" stroke-linecap="butt" stroke-linejoin="miter" stroke-opacity="1" stroke-width="1" d="M 11,25 H 21" opacity=".1"/></svg>