<svg xmlns="http://www.w3.org/2000/svg" xmlns:svg="http://www.w3.org/2000/svg" xmlns:xlink="http://www.w3.org/1999/xlink" id="svg3786" width="32" height="32" version="1.0"><metadata id="metadata90"/><defs id="defs3788"><linearGradient id="linearGradient5060"><stop id="stop5062" offset="0" stop-color="#000" stop-opacity="1"/><stop id="stop5064" offset="1" stop-color="#000" stop-opacity="0"/></linearGradient><linearGradient id="linearGradient5048"><stop id="stop5050" offset="0" stop-color="#000" stop-opacity="0"/><stop id="stop5056" offset=".5" stop-color="#000" stop-opacity="1"/><stop id="stop5052" offset="1" stop-color="#000" stop-opacity="0"/></linearGradient><linearGradient id="linearGradient2465" x1="29.938" x2="30" y1="41" y2="50" gradientTransform="matrix(0.6886478,0,0,0.5067185,-3.9708843,4.4552574)" gradientUnits="userSpaceOnUse" xlink:href="#linearGradient2215-9"/><linearGradient id="linearGradient2471" x1="302.857" x2="302.857" y1="366.648" y2="609.505" gradientTransform="matrix(0.07635654,0,0,0.02184879,1.4025717,30.138555)" gradientUnits="userSpaceOnUse" xlink:href="#linearGradient5048"/><radialGradient id="radialGradient2473" cx="605.714" cy="486.648" r="117.143" fx="605.714" fy="486.648" gradientTransform="matrix(0.04484747,0,0,0.02184879,20.38888,30.138555)" gradientUnits="userSpaceOnUse" xlink:href="#linearGradient5060"/><radialGradient id="radialGradient2475" cx="605.714" cy="486.648" r="117.143" fx="605.714" fy="486.648" gradientTransform="matrix(-0.04484747,0,0,0.02184879,37.61113,30.138555)" gradientUnits="userSpaceOnUse" xlink:href="#linearGradient5060"/><linearGradient id="linearGradient2215-9"><stop id="stop2223-6" offset="0" stop-color="#7a7a7a" stop-opacity="1"/><stop id="stop2219-1" offset="1" stop-color="#474747" stop-opacity="1"/></linearGradient><linearGradient id="linearGradient7056-0"><stop id="stop7064-4" offset="0" stop-color="#e6e6e6" stop-opacity="1"/><stop id="stop7060-2" offset="1" stop-color="#c8c8c8" stop-opacity="1"/></linearGradient><radialGradient id="radialGradient5024" cx="10" cy="7.237" r="16" fx="10" fy="7.237" gradientTransform="matrix(1.4045128,0,0,0.9375,-4.0451283,4.2154656)" gradientUnits="userSpaceOnUse" xlink:href="#linearGradient7056-0"/><linearGradient id="linearGradient4472"><stop id="stop4474" offset="0" stop-color="#fff" stop-opacity="1"/><stop id="stop4476" offset=".021" stop-color="#fff" stop-opacity=".235"/><stop id="stop4478" offset=".992" stop-color="#fff" stop-opacity=".157"/><stop id="stop4480" offset="1" stop-color="#fff" stop-opacity=".392"/></linearGradient><linearGradient id="linearGradient3171" x1="24" x2="24" y1="51.346" y2="53.354" gradientTransform="matrix(0.58810697,0,0,0.51394954,8.8319415,0.58279532)" gradientUnits="userSpaceOnUse" xlink:href="#linearGradient4472"/><linearGradient id="linearGradient3168-6" x1="24" x2="24" y1="6.539" y2="42.102" gradientTransform="matrix(0.26232885,0,0,0.42474288,5.0669059,6.097143)" gradientUnits="userSpaceOnUse" xlink:href="#linearGradient4075-8"/><linearGradient id="linearGradient4075-8"><stop id="stop4077-4" offset="0" stop-color="#fff" stop-opacity="1"/><stop id="stop4079-5" offset=".034" stop-color="#fff" stop-opacity=".235"/><stop id="stop4081-2" offset=".992" stop-color="#fff" stop-opacity=".157"/><stop id="stop4083-4" offset="1" stop-color="#fff" stop-opacity=".392"/></linearGradient><radialGradient id="radialGradient3789" cx="113.065" cy="97.588" r="2.563" fx="113.667" fy="98" gradientTransform="matrix(2.4956521,0,0,2.4956521,-223.97574,-53.226089)" gradientUnits="userSpaceOnUse" xlink:href="#radialGradient3437"/><radialGradient id="radialGradient3437" cx="113.065" cy="97.588" r="2.563" fx="113.667" fy="98" gradientUnits="userSpaceOnUse"><stop id="stop3439" offset="0" stop-color="#eee" stop-opacity="1"/><stop id="stop3441" offset=".16" stop-color="#cecece" stop-opacity="1"/><stop id="stop3443" offset=".468" stop-color="#888" stop-opacity="1"/><stop id="stop3445" offset="1" stop-color="#555" stop-opacity="1"/></radialGradient><radialGradient id="radialGradient3793" cx="113.065" cy="97.588" r="2.563" fx="113.667" fy="98" gradientTransform="matrix(2.4956521,0,0,2.4956521,-223.97574,-53.226089)" gradientUnits="userSpaceOnUse" xlink:href="#radialGradient3437"/><radialGradient id="radialGradient3831" cx="141.747" cy="206.426" r="78.728" fx="141.747" fy="206.426" gradientTransform="matrix(0.24573995,-0.00308859,0.00181873,0.17771138,-19.666102,-13.139935)" gradientUnits="userSpaceOnUse" xlink:href="#linearGradient4035"/><linearGradient id="linearGradient4035"><stop id="stop4037" offset="0" stop-color="#f5f5f5" stop-opacity="1"/><stop id="stop4039" offset=".47" stop-color="#e7e7e7" stop-opacity="1"/><stop id="stop4041" offset=".693" stop-color="#8c8c8c" stop-opacity="1"/><stop id="stop4043" offset=".835" stop-color="#ddd" stop-opacity="1"/><stop id="stop4045" offset="1" stop-color="#a8a8a8" stop-opacity="1"/></linearGradient><radialGradient id="radialGradient3820" cx="142.622" cy="191.854" r="78.728" fx="142.622" fy="191.854" gradientTransform="matrix(0.12330157,0,0,-0.08625852,-2.074113,31.247748)" gradientUnits="userSpaceOnUse" xlink:href="#linearGradient4035"/><radialGradient id="radialGradient3827" cx="127.317" cy="143.828" r="78.728" fx="127.317" fy="143.828" gradientTransform="matrix(0.12092245,-0.01546848,0.00546562,0.04607914,-4.4169742,6.9719925)" gradientUnits="userSpaceOnUse" xlink:href="#linearGradient5026"/><linearGradient id="linearGradient5026"><stop id="stop5028" offset="0" stop-color="#f5f5f5" stop-opacity="1"/><stop id="stop5030" offset=".278" stop-color="#e7e7e7" stop-opacity="1"/><stop id="stop5032" offset=".524" stop-color="#8c8c8c" stop-opacity="1"/><stop id="stop5034" offset="1" stop-color="#ddd" stop-opacity="1"/><stop id="stop5036" offset="1" stop-color="#a8a8a8" stop-opacity="1"/></linearGradient><radialGradient id="radialGradient3797" cx="113.065" cy="97.588" r="2.563" fx="113.667" fy="98" gradientTransform="matrix(2.4956521,0,0,2.4956521,-223.97574,-53.226089)" gradientUnits="userSpaceOnUse" xlink:href="#radialGradient3437"/><radialGradient id="radialGradient3801" cx="113.065" cy="97.588" r="2.563" fx="113.667" fy="98" gradientTransform="matrix(2.4956521,0,0,2.4956521,-223.97574,-53.226089)" gradientUnits="userSpaceOnUse" xlink:href="#radialGradient3437"/><linearGradient id="linearGradient4238" x1="7.063" x2="24.688" y1="35.281" y2="35.281" gradientTransform="matrix(0.79304646,0,0,0.53932582,-0.57833673,8.4719087)" gradientUnits="userSpaceOnUse" xlink:href="#linearGradient6309"/><linearGradient id="linearGradient6309"><stop id="stop6311" offset="0" stop-color="#000" stop-opacity="1"/><stop id="stop6313" offset="1" stop-color="#bbb" stop-opacity="0"/></linearGradient><linearGradient id="linearGradient4235" x1="12.277" x2="12.222" y1="37.206" y2="33.759" gradientTransform="matrix(0.79304646,0,0,0.53932582,-1.209199,9.1869582)" gradientUnits="userSpaceOnUse" xlink:href="#linearGradient4236-0"/><linearGradient id="linearGradient4236-0"><stop id="stop4238-4" offset="0" stop-color="#eee" stop-opacity="1"/><stop id="stop4240-3" offset="1" stop-color="#eee" stop-opacity="0"/></linearGradient></defs><path id="path6345" fill="url(#radialGradient5024)" fill-opacity="1" fill-rule="nonzero" stroke="none" stroke-width=".996" d="M 31.502339,25.502101 26.821023,8.3812814 C 26.688651,7.8937324 25.995252,7.4978971 25.412312,7.4978971 l -18.9855897,0 c -0.8955749,0 -1.4087718,0.1319037 -1.597617,0.8833843 L 0.49812296,25.485432" display="inline" enable-background="accumulate" overflow="visible" visibility="visible" style="marker:none"/><path id="path6345-9" fill="none" stroke="#000" stroke-dasharray="none" stroke-dashoffset="0" stroke-linecap="round" stroke-linejoin="round" stroke-miterlimit="4" stroke-opacity="1" stroke-width="1" d="M 31.502339,25.502101 26.821023,8.381281 C 26.688651,7.893732 25.995252,7.4978967 25.412312,7.4978967 l -18.9855897,0 c -0.8955749,0 -1.4087718,0.1319037 -1.597617,0.8833843 L 0.49812296,25.485432 z" color="#000" display="inline" enable-background="accumulate" opacity=".35" overflow="visible" visibility="visible" style="marker:none"/><g id="g6029" display="inline" transform="matrix(0.6666596,0,0,0.6259973,-3.3331284,3.7969778)"><rect id="rect2723" width="36.869" height="5.306" x="10.565" y="38.149" fill="url(#linearGradient2471)" fill-opacity="1" fill-rule="nonzero" stroke="none" stroke-width=".5" display="inline" opacity=".402" overflow="visible" visibility="visible" style="marker:none"/><path id="path2725" fill="url(#radialGradient2473)" fill-opacity="1" fill-rule="nonzero" stroke="none" stroke-width=".5" d="m 47.41667,38.149545 c 0,0 0,5.30584 0,5.30584 2.30953,0.01 5.58333,-1.18877 5.58333,-2.65326 0,-1.46449 -2.57726,-2.65258 -5.58333,-2.65258 z" display="inline" opacity=".402" overflow="visible" visibility="visible" style="marker:none"/><path id="path2727" fill="url(#radialGradient2475)" fill-opacity="1" fill-rule="nonzero" stroke="none" stroke-width="1" d="m 10.58333,38.149545 c 0,0 0,5.30584 0,5.30584 C 8.2737899,43.465375 5,42.266615 5,40.802125 c 0,-1.46449 2.5772699,-2.65258 5.58333,-2.65258 z" display="inline" opacity=".402" overflow="visible" visibility="visible" style="marker:none"/></g><rect id="rect6381" width="31" height="1" x=".5" y="25" fill="#d2d2d3" fill-opacity="1" fill-rule="evenodd" stroke="none" display="inline" enable-background="new"/><path id="rect6431" fill="url(#linearGradient2465)" fill-opacity="1" fill-rule="evenodd" stroke="none" d="m 0.50764664,25.485779 30.98450536,0 -0.619526,4.050331 -29.6765863,0 -0.68839306,-4.050331 z" display="inline" enable-background="new"/><path id="rect6431-1" fill="none" stroke="#000" stroke-dasharray="none" stroke-dashoffset="0" stroke-linecap="butt" stroke-linejoin="round" stroke-miterlimit="4" stroke-opacity="1" stroke-width="1" d="m 0.50764664,25.5 30.98450536,0 -0.619526,4 -29.6765863,0 -0.68839306,-4 z" color="#000" display="inline" enable-background="accumulate" opacity=".5" overflow="visible" visibility="visible" style="marker:none"/><path id="path4094" fill="none" stroke="url(#linearGradient3168-6)" stroke-dasharray="none" stroke-dashoffset="0" stroke-linecap="round" stroke-linejoin="round" stroke-miterlimit="4" stroke-opacity="1" stroke-width="1" d="m 6.4375,8.5 c -0.4014515,0 -0.6181328,0.05924 -0.625,0.0625 -0.00687,0.00326 0.045405,-0.1181812 0,0.0625 L 1.78125,24.5 30.1875,24.5 25.84375,8.65625 a 1.0079748,1.0079748 0 0 1 0,-0.03125 c 0.03231,0.119003 0.01552,0.065777 -0.09375,0 C 25.640731,8.559223 25.474426,8.5 25.40625,8.5 L 6.4375,8.5 z" color="#000" display="inline" enable-background="accumulate" opacity=".8" overflow="visible" visibility="visible" style="marker:none"/><path id="path4497" fill="none" stroke="url(#linearGradient3171)" stroke-dasharray="none" stroke-dashoffset="0" stroke-linecap="round" stroke-linejoin="miter" stroke-miterlimit="4" stroke-opacity="1" stroke-width="1" d="m 2.0163276,28.5 27.9776234,2e-6 c 0.07589,-0.199983 0.332492,-2 0.332492,-2 l -28.6075888,0 c 0,0 0.1861288,1.491284 0.2974734,1.999998 z" color="#000" display="inline" enable-background="accumulate" opacity=".2" overflow="visible" visibility="visible" style="marker:none"/><g id="g9164" display="inline" transform="matrix(0.06707933,0,0,0.04653275,2.4611632,-0.2130773)"><path id="path9166" fill="#f0f0f0" fill-opacity="1" d="m 48.2999,190.27968 c 0.31446,4.2476 5.02375,7.71156 10.51419,7.71156 5.48794,0 9.6432,-3.46396 9.27634,-7.71156 -0.36437,-4.22514 -5.07117,-7.6367 -10.5067,-7.6367 -5.43803,0.002 -9.59329,3.41156 -9.28383,7.6367 z"/><path id="path9168" fill="url(#radialGradient3789)" fill-opacity="1" d="m 51.85122,187.29238 c -0.50163,0.53906 -1.07563,1.40256 -1.07563,2.55056 0,0.0824 0.005,0.16471 0.01,0.25206 0.21713,2.9274 3.89322,5.40059 8.02602,5.40059 2.3534,0 4.50465,-0.81109 5.75248,-2.17371 0.53656,-0.58149 1.148,-1.54481 1.03819,-2.82758 -0.25206,-2.90244 -3.92316,-5.35567 -8.02103,-5.35567 -2.33593,0.002 -4.47969,0.8061 -5.73001,2.15375 z"/></g><g id="g9170" display="inline" transform="matrix(0.06707933,0,0,0.04653275,21.361163,-0.2130773)"><path id="path9172" fill="#e6e6e6" fill-opacity="1" d="m 48.2999,190.27968 c 0.31446,4.2476 5.02375,7.71156 10.51419,7.71156 5.48794,0 9.6432,-3.46396 9.27634,-7.71156 -0.36437,-4.22514 -5.07117,-7.6367 -10.5067,-7.6367 -5.43803,0.002 -9.59329,3.41156 -9.28383,7.6367 z"/><path id="path9174" fill="url(#radialGradient3793)" fill-opacity="1" d="m 51.85122,187.29238 c -0.50163,0.53906 -1.07563,1.40256 -1.07563,2.55056 0,0.0824 0.005,0.16471 0.01,0.25206 0.21713,2.9274 3.89322,5.40059 8.02602,5.40059 2.3534,0 4.50465,-0.81109 5.75248,-2.17371 0.53656,-0.58149 1.148,-1.54481 1.03819,-2.82758 -0.25206,-2.90244 -3.92316,-5.35567 -8.02103,-5.35567 -2.33593,0.002 -4.47969,0.8061 -5.73001,2.15375 z"/></g><path id="path3829" fill="url(#radialGradient3831)" fill-opacity="1" stroke-width=".987" d="m 19.336526,8.8770488 c -0.355386,0 -0.676107,0.079816 -0.928229,0.2151639 -0.252122,0.1353481 -0.450996,0.3589057 -0.464114,0.6454918 -0.03156,0.6872365 -0.534108,1.2055085 -1.485167,1.6905735 -0.944959,0.481955 -2.310627,0.884093 -3.960445,1.260246 -0.01065,0.0025 -0.02027,-0.0025 -0.03094,0 -0.61424,0.09563 -1.639162,0.338694 -2.6299828,0.614754 -0.9900715,0.275852 -1.9002106,0.582901 -2.3205731,0.799181 -0.00501,0.0026 -0.02607,-0.0026 -0.030941,0 -2.0908692,0.985983 -3.4038905,2.31632 -3.5891532,3.811475 -0.1695113,1.367877 0.6407934,2.726175 2.1968093,3.780738 2.2753563,1.542136 5.9584838,2.428278 9.9011118,2.428278 3.942638,0 7.655543,-0.885554 9.932053,-2.428278 1.421291,-0.963065 2.19681,-2.165837 2.19681,-3.411886 0,-0.136319 -0.01919,-0.267014 -0.03094,-0.368852 -0.16195,-1.307361 -1.185188,-2.506093 -2.846572,-3.442623 C 25.194468,13.928809 24.782138,9.7069668 24.782138,9.7069668 24.754947,9.4212149 24.543055,9.2263215 24.287083,9.0922127 24.03111,8.9581039 23.712821,8.8770488 23.358853,8.8770488 Z m 0,0.6454918 h 4.022327 c 0.08203,0 0.141479,0.019416 0.185646,0.030738 l 0.464115,5.0102464 a 0.24961549,0.24797561 0 0 0 0,0.03074 0.24961549,0.24797561 0 0 0 0.03094,0.06147 0.24961549,0.24797561 0 0 0 0.09282,0.09221 c 1.629421,0.830491 2.592536,2.08238 2.722806,3.135245 0.0812,0.65489 -0.137335,1.256634 -0.61882,1.813525 -0.481485,0.55689 -1.246727,1.052546 -2.22775,1.47541 -1.962046,0.845726 -4.788487,1.352459 -8.013713,1.352459 -3.225221,0 -6.0516983,-0.506733 -8.0137123,-1.352459 C 7.0001817,20.749267 6.2349391,20.253614 5.7534385,19.696721 5.2719379,19.139827 5.0534827,18.538089 5.134619,17.883196 5.274485,16.754785 6.3308293,15.45138 8.1668346,14.594262 a 0.24961549,0.24797561 0 0 0 0.030941,0 c 0.00415,-0.0028 0.09987,-0.0465 0.2165869,-0.09221 0.1167171,-0.04571 0.284163,-0.124099 0.4641145,-0.184426 0.3599031,-0.120656 0.8120989,-0.259866 1.299521,-0.399591 0.974843,-0.279447 2.060317,-0.539415 2.599042,-0.614754 a 0.24961549,0.24797561 0 0 0 0.03094,0 c 1.594815,-0.361773 3.12557,-0.794486 4.300795,-1.383196 1.129834,-0.565973 1.934524,-1.327265 2.042105,-2.3668037 0.02919,-0.010844 0.09419,-0.030738 0.185645,-0.030738 z" display="inline" enable-background="new"/><path id="path9156" fill="url(#radialGradient3820)" fill-opacity="1" fill-rule="nonzero" stroke-dasharray="none" stroke-dashoffset="0" stroke-linecap="butt" stroke-linejoin="miter" stroke-miterlimit="4" stroke-opacity="1" stroke-width="1" d="m 15.999844,19.999941 c -2.243306,0 -3.963027,-0.835988 -3.999283,-1.944843 C 12.00028,18.042688 12,18.031268 12,18.019598 c 0,-0.401251 0.225403,-0.782854 0.653714,-1.105962 0.724529,-0.546168 1.975473,-0.872168 3.34641,-0.872168 1.370667,0 2.6216,0.326 3.34613,0.872168 0.440961,0.332193 0.666925,0.72704 0.653152,1.14131 C 19.962576,19.163813 18.242868,20 15.999844,20 v -6.2e-5 z m 0.06699,-2.717582 c -2.107848,0 -3.248681,0.207967 -3.22338,0.964372 0.02444,0.744615 1.437543,1.33956 3.156421,1.33956 1.718879,0 3.131975,-0.595156 3.156422,-1.33956 0.02502,-0.756604 -0.981616,-0.964372 -3.089463,-0.964372 z" display="inline" enable-background="accumulate" overflow="visible" visibility="visible" style="marker:none"/><path d="m 7.4063052,9.1144548 a 0.08585433,0.08081659 0 0 0 -0.029877,0.028124 0.08585433,0.08081659 0 0 0 -0.029877,0.028124 L 7.2569197,9.3675706 6.3008525,12.292464 6.1215899,12.770572 a 0.08585433,0.08081659 0 0 0 0,0.02812 0.08585433,0.08081659 0 0 0 0,0.02812 0.08585433,0.08081659 0 0 0 0.029877,0.02812 0.08585433,0.08081659 0 0 0 0.029877,0.02812 0.08585433,0.08081659 0 0 0 0.029877,0 0.08585433,0.08081659 0 0 0 0.029877,0 l 0.478034,-0.112496 8.2759561,-1.828059 h 0.02988 a 0.08585433,0.08081659 0 0 0 0.02988,0 c 0.467745,-0.1943 0.746882,-0.618674 0.806676,-0.9843388 0.02952,-0.1808192 0.01927,-0.3384977 -0.05975,-0.5062317 -0.0843,-0.1790222 -0.305118,-0.3426502 -0.537788,-0.3374877 H 15.234105 7.6154449 7.4361823 a 0.08585433,0.08081659 0 0 0 -0.029877,0 z m 0.3585252,0.3374877 h 7.4991516 c -0.01142,0.069979 -0.03087,0.209343 -0.08963,0.3656118 -0.05876,0.1562688 -0.151426,0.2987827 -0.239017,0.3374877 L 7.04778,11.898729 Z" style="marker:none" id="path3825" fill="url(#radialGradient3827)" fill-opacity="1" fill-rule="nonzero" stroke="none" stroke-width=".928" display="inline" enable-background="accumulate" overflow="visible" visibility="visible"/><g id="g9158" display="inline" transform="matrix(-0.09781119,0,0,0.1076727,9.1622105,3.1817482)"><path id="path9160" fill="#e6e6e6" fill-opacity="1" d="m 48.2999,190.27968 c 0.31446,4.2476 5.02375,7.71156 10.51419,7.71156 5.48794,0 9.6432,-3.46396 9.27634,-7.71156 -0.36437,-4.22514 -5.07117,-7.6367 -10.5067,-7.6367 -5.43803,0.002 -9.59329,3.41156 -9.28383,7.6367 z"/><path id="path9162" fill="url(#radialGradient3797)" fill-opacity="1" d="m 51.85122,187.29238 c -0.50163,0.53906 -1.07563,1.40256 -1.07563,2.55056 0,0.0824 0.005,0.16471 0.01,0.25206 0.21713,2.9274 3.89322,5.40059 8.02602,5.40059 2.3534,0 4.50465,-0.81109 5.75248,-2.17371 0.53656,-0.58149 1.148,-1.54481 1.03819,-2.82758 -0.25206,-2.90244 -3.92316,-5.35567 -8.02103,-5.35567 -2.33593,0.002 -4.47969,0.8061 -5.73001,2.15375 z"/></g><g id="g9190" display="inline" transform="matrix(0.09781119,0,0,0.1076727,22.777316,3.1817482)"><path id="path9192" fill="#e6e6e6" fill-opacity="1" d="m 48.2999,190.27968 c 0.31446,4.2476 5.02375,7.71156 10.51419,7.71156 5.48794,0 9.6432,-3.46396 9.27634,-7.71156 -0.36437,-4.22514 -5.07117,-7.6367 -10.5067,-7.6367 -5.43803,0.002 -9.59329,3.41156 -9.28383,7.6367 z"/><path id="path9194" fill="url(#radialGradient3801)" fill-opacity="1" d="m 51.85122,187.29238 c -0.50163,0.53906 -1.07563,1.40256 -1.07563,2.55056 0,0.0824 0.005,0.16471 0.01,0.25206 0.21713,2.9274 3.89322,5.40059 8.02602,5.40059 2.3534,0 4.50465,-0.81109 5.75248,-2.17371 0.53656,-0.58149 1.148,-1.54481 1.03819,-2.82758 -0.25206,-2.90244 -3.92316,-5.35567 -8.02103,-5.35567 -2.33593,0.002 -4.47969,0.8061 -5.73001,2.15375 z"/></g><path id="rect9146" fill="url(#linearGradient4238)" fill-opacity="1" fill-rule="evenodd" stroke="none" stroke-width="2.409" d="M 4.699999,26 H 19 v 3 H 5.0225565 Z" display="inline" overflow="visible" visibility="visible" style="marker:none"/><path id="path9148" fill="url(#linearGradient4235)" fill-opacity="1" fill-rule="evenodd" stroke="none" d="m 5.0225554,28.999998 c 0,0 -0.2150376,-2.163497 -0.2150376,-2.163497 1.4556584,1.714639 6.7945402,2.163497 10.4750742,2.163497 0,0 -10.2600366,0 -10.2600366,0 z" opacity=".811"/></svg>