<svg xmlns="http://www.w3.org/2000/svg" xmlns:svg="http://www.w3.org/2000/svg" xmlns:xlink="http://www.w3.org/1999/xlink" id="svg3658" width="32" height="32" version="1.1"><defs id="defs3660"><linearGradient id="linearGradient4011"><stop id="stop4013" offset="0" stop-color="#fff" stop-opacity="1"/><stop id="stop4015" offset=".508" stop-color="#fff" stop-opacity=".235"/><stop id="stop4017" offset=".835" stop-color="#fff" stop-opacity=".157"/><stop id="stop4019" offset="1" stop-color="#fff" stop-opacity=".392"/></linearGradient><linearGradient id="linearGradient3820-7-2-2"><stop id="stop3822-2-6-36" offset="0" stop-color="#3d3d3d" stop-opacity="1"/><stop id="stop3864-8-7-6" offset=".5" stop-color="#686868" stop-opacity=".498"/><stop id="stop3824-1-2-4" offset="1" stop-color="#686868" stop-opacity="0"/></linearGradient><radialGradient id="radialGradient4048" cx="99.157" cy="186.171" r="62.769" fx="99.157" fy="186.171" gradientTransform="matrix(0.17524541,0,0,0.05575992,-1.3768101,18.11895)" gradientUnits="userSpaceOnUse" xlink:href="#linearGradient3820-7-2-2"/><linearGradient id="linearGradient12398-3" x1="71.204" x2="71.204" y1="6.238" y2="44.341" gradientTransform="matrix(0.72973007,0,0,0.72973007,-36.346113,-2.5039328)" gradientUnits="userSpaceOnUse" xlink:href="#linearGradient4011"/><linearGradient id="linearGradient11527-6-5" x1="2035.165" x2="2035.165" y1="3208.074" y2="3241.997" gradientTransform="matrix(1.1113759,0,0,0.83086027,-2249.8942,-2663.1587)" gradientUnits="userSpaceOnUse" xlink:href="#linearGradient1360"/><linearGradient id="linearGradient1360"><stop id="stop1356" offset="0" stop-color="#ff8c82" stop-opacity="1"/><stop id="stop1358" offset="1" stop-color="#ed5353" stop-opacity="1"/></linearGradient></defs><metadata id="metadata3663"/><path id="path3818-0-2" fill="url(#radialGradient4048)" fill-opacity="1" stroke="none" d="m 27.000001,28.499804 a 11,3.4999999 0 1 1 -21.9999997,0 11,3.4999999 0 1 1 21.9999997,0 z"/><path id="path2555-7-8-5-0-9" fill="url(#linearGradient11527-6-5)" fill-opacity="1" fill-rule="nonzero" stroke="none" stroke-width="1" d="m 15.999999,1.4999997 c -8.000603,0 -14.5,6.4993973 -14.5,14.5000003 0,8.000603 6.499397,14.5 14.5,14.5 C 24.000603,30.5 30.500014,24.000603 30.5,16 30.5,7.999397 24.000603,1.4999997 15.999999,1.4999997 Z" color="#000" display="inline" enable-background="accumulate" opacity=".99" overflow="visible" visibility="visible" style="marker:none"/><path id="path8655-6-0-9-5-0" fill="none" stroke="url(#linearGradient12398-3)" stroke-dasharray="none" stroke-dashoffset="0" stroke-linecap="round" stroke-linejoin="round" stroke-miterlimit="4" stroke-opacity="1" stroke-width="1" d="m 29.5,15.999517 c 0,7.456096 -6.044607,13.500489 -13.499837,13.500489 -7.455912,0 -13.5001626,-6.044464 -13.5001626,-13.500489 0,-7.4557408 6.0442506,-13.4995231 13.5001626,-13.4995231 7.45523,0 13.499837,6.0437824 13.499837,13.4995231 z" color="#000" display="inline" enable-background="accumulate" opacity=".5" overflow="visible" visibility="visible" style="marker:none"/><path id="path2555-4" fill="none" fill-opacity="1" fill-rule="nonzero" stroke="#c6262e" stroke-dasharray="none" stroke-dashoffset="0" stroke-linecap="round" stroke-linejoin="round" stroke-miterlimit="4" stroke-opacity="1" stroke-width="1" d="m 16.000001,1.5017981 c -7.9996071,0 -14.4982031,6.4985937 -14.4982031,14.4982009 0,7.999609 6.498596,14.498206 14.4982031,14.498203 7.999605,0 14.498209,-6.498594 14.498201,-14.498203 0,-7.9996072 -6.498596,-14.4982009 -14.498201,-14.4982009 z" clip-rule="nonzero" color="#000" color-interpolation="sRGB" color-interpolation-filters="linearRGB" color-rendering="auto" display="inline" enable-background="accumulate" image-rendering="auto" opacity=".5" overflow="visible" shape-rendering="auto" text-rendering="auto" vector-effect="none" visibility="visible" style="marker:none;font-variant-east_asian:normal;isolation:auto;mix-blend-mode:normal;solid-color:#000;solid-opacity:1;filter-blend-mode:normal;filter-gaussianBlur-deviation:0"/><path id="path45-6-25-2-3-6" fill="#7a0000" fill-opacity="1" stroke="none" stroke-dasharray="none" stroke-dashoffset="0" stroke-linecap="butt" stroke-linejoin="miter" stroke-miterlimit="4" stroke-opacity="1" stroke-width="1" d="M 16.226562,7.5117188 C 13.706189,7.4556839 11.252524,8.3264834 9.3320312,9.9589844 9.0038677,10.238013 8.790195,10.678828 8.78125,11.089844 c -0.00895,0.411015 0.143459,0.768764 0.375,1.041015 0.1890852,0.222331 0.4809227,0.349827 0.7890625,0.439453 -1.2265755,1.415844 -2.0473544,3.200854 -2.0566406,5.212891 a 0.9914449,0.9914449 0 0 0 0,0.0039 c 0,1.807332 0.3735337,3.250459 0.8261719,4.525391 a 0.9914449,0.9914449 0 0 0 0.00781,0.02539 c 0.1548813,0.401399 0.499929,0.748185 0.8847657,0.892578 0.3848367,0.144393 0.7719711,0.117089 1.1054691,-0.01172 0.248349,-0.09592 0.43513,-0.321559 0.615234,-0.546875 0.782455,1.435937 1.855559,2.615663 3.013672,3.505859 a 0.9914449,0.9914449 0 0 0 0.01367,0.01172 c 0.291271,0.21543 0.654637,0.321499 1.011719,0.298828 a 0.9914449,0.9914449 0 0 0 0.0078,-0.002 c 0.02464,-0.0017 0.07511,-0.0047 0.150391,-0.01758 0.636278,-0.107581 1.120174,-0.623092 1.246093,-1.177734 0.02494,-0.109838 -0.02385,-0.227759 -0.02539,-0.34375 1.067947,0.549558 2.232897,0.93964 3.527344,0.990234 a 0.9914449,0.9914449 0 0 0 0.0293,0.002 c 0.430828,0.0043 0.880211,-0.18972 1.15625,-0.494141 0.27604,-0.30442 0.394624,-0.673965 0.398438,-1.03125 0.0038,-0.357284 -0.105154,-0.728772 -0.375,-1.039062 -0.03165,-0.03639 -0.09856,-0.02728 -0.134766,-0.06055 0.03897,-0.03391 0.108524,-0.02305 0.142578,-0.06055 0.276662,-0.304609 0.395249,-0.675551 0.398438,-1.033203 0.0028,-0.311893 -0.129312,-0.6236 -0.330078,-0.90625 1.478938,-0.497425 2.572265,-1.8575 2.572265,-3.496094 0,-1.903834 -0.76132,-3.58191 -1.865234,-4.96875 0.326339,-0.07257 0.632818,-0.19484 0.837891,-0.416015 0.244899,-0.26413 0.413786,-0.616981 0.419922,-1.033203 0.0061,-0.414212 -0.197835,-0.863635 -0.519532,-1.154297 -1.848089,-1.7085452 -4.258748,-2.6829727 -6.77539,-2.7343752 z m 5.707032,10.2089842 0.002,0.03711 c -3.6e-5,-0.0035 -0.0019,-0.0063 -0.002,-0.0098 -2.62e-4,-0.009 4.21e-4,-0.01826 0,-0.02734 z m 0.002,0.09766 -0.002,0.04687 c 6.62e-4,-0.01428 -2.69e-4,-0.02886 0,-0.04297 5e-6,-0.0015 0.002,-0.0024 0.002,-0.0039 z" opacity=".05" vector-effect="none" style="marker:none;font-variant-east_asian:normal"/><path id="path45-6-25-2-3" fill="#7a0000" fill-opacity="1" stroke="none" stroke-dasharray="none" stroke-dashoffset="0" stroke-linecap="butt" stroke-linejoin="miter" stroke-miterlimit="4" stroke-opacity="1" stroke-width="1" d="m 16.20659,8.502339 c -2.278193,-0.051085 -4.495861,0.7360044 -6.2321042,2.211886 -0.557157,0.473736 0.1534542,1.309364 0.7106122,0.835628 3.170465,-2.6966128 7.856492,-2.5967496 10.909197,0.232484 0.536493,0.515585 1.300029,-0.307463 0.745703,-0.803826 C 20.668356,9.4296017 18.486146,8.5484461 16.207687,8.502339 Z m -0.197392,2.188858 c -3.923897,-4.2e-5 -7.109934,3.17129 -7.128044,7.095146 0,1.675018 0.3343044,2.977025 0.7665382,4.194485 0.2631904,0.682099 1.2863388,0.287315 1.0231488,-0.394784 -0.462237,-1.198497 -0.6976231,-2.472487 -0.6941621,-3.757028 0,-3.574842 3.2258921,-5.956017 6.0314231,-6.04129 3.331062,0 6.031421,2.700361 6.031421,6.031423 0,0.908472 -0.736462,1.644933 -1.644933,1.644933 -0.908472,0 -1.644933,-0.736461 -1.644933,-1.644933 0,-1.514119 -1.227436,-2.741555 -2.741555,-2.741555 -1.500937,4.93e-4 -2.722447,1.207828 -2.740459,2.708657 0,3.89037 3.027931,7.00395 7.0447,7.160946 0.731082,0.0073 0.742047,-1.089312 0.01097,-1.096622 -3.305355,-0.02353 -5.969019,-2.716135 -5.956851,-6.021553 3e-5,-0.0033 3e-5,-0.0066 0,-0.0099 0,-0.908472 0.736462,-1.644934 1.644932,-1.644934 0.908472,0 1.644934,0.736462 1.644934,1.644934 0,1.514119 1.227436,2.741555 2.741555,2.741555 1.514119,0 2.741556,-1.227436 2.741556,-2.741555 0,-3.93671 -3.191334,-7.128044 -7.128045,-7.128044 z m 0,2.193245 c -2.712193,-6.4e-5 -4.916115,2.188674 -4.9348,4.900804 0,3.440675 1.776203,5.997875 3.869979,7.60728 0.103959,0.07689 0.231746,0.114565 0.36079,0.106372 0.01838,-0.0013 0.03667,-0.0035 0.05483,-0.0066 0.48439,-0.08095 0.626259,-0.708932 0.223711,-0.99025 -2.148794,-1.542366 -3.41996,-4.027921 -3.412688,-6.672946 3.7e-5,-0.0037 3.7e-5,-0.0073 0,-0.01097 0,-2.119768 1.718411,-3.838178 3.838178,-3.838178 2.119767,0 3.838178,1.71841 3.838178,3.838178 0,0.302823 0.245487,0.54831 0.548311,0.54831 0.302823,0 0.54831,-0.245487 0.54831,-0.54831 7.8e-4,-0.01681 7.8e-4,-0.03364 0,-0.05045 -0.02825,-2.70441 -2.228048,-4.882204 -4.932607,-4.883258 z m -0.01097,4.365653 c -0.384749,0.01867 -0.531843,0.328939 -0.542828,0.627276 0.03498,2.682956 2.204617,4.847728 4.887645,4.876677 0.731774,0.008 0.742739,-1.088603 0.01096,-1.096621 -2.108491,-0.01388 -3.809059,-1.729645 -3.804183,-3.838178 3.7e-5,-0.0037 3.7e-5,-0.0073 0,-0.01096 0.005,-0.308406 -0.245364,-0.560208 -0.553794,-0.557084 z" opacity=".15" vector-effect="none" style="marker:none;font-variant-east_asian:normal"/><path id="path45-6-25-2" fill="#fafafa" fill-opacity="1" stroke="none" stroke-dasharray="none" stroke-dashoffset="0" stroke-linecap="butt" stroke-linejoin="miter" stroke-miterlimit="4" stroke-opacity="1" stroke-width="1" d="M 16.20659,7.5023397 C 13.928397,7.4512545 11.710729,8.2383441 9.9744858,9.7142254 9.4173288,10.187961 10.12794,11.023589 10.685098,10.549853 13.855563,7.8532409 18.54159,7.9531041 21.594295,10.782337 22.130788,11.297922 22.894324,10.474874 22.339998,9.9785114 20.668356,8.4296024 18.486146,7.5484468 16.207687,7.5023397 Z m -0.197392,2.1888577 c -3.923897,-4.2e-5 -7.109934,3.1712896 -7.128044,7.0951456 0,1.675018 0.3343044,2.977025 0.7665382,4.194485 0.2631904,0.682099 1.2863388,0.287315 1.0231488,-0.394784 -0.462237,-1.198497 -0.6976231,-2.472487 -0.6941621,-3.757028 0,-3.574842 3.2258921,-5.956017 6.0314231,-6.04129 3.331062,0 6.031421,2.700361 6.031421,6.031423 0,0.908472 -0.736462,1.644933 -1.644933,1.644933 -0.908472,0 -1.644933,-0.736461 -1.644933,-1.644933 0,-1.514119 -1.227436,-2.741555 -2.741555,-2.741555 -1.500937,4.93e-4 -2.722447,1.207828 -2.740459,2.708657 0,3.89037 3.027931,7.00395 7.0447,7.160946 0.731082,0.0073 0.742047,-1.089312 0.01097,-1.096622 -3.305355,-0.02353 -5.969019,-2.716135 -5.956851,-6.021553 3e-5,-0.0033 3e-5,-0.0066 0,-0.0099 0,-0.908472 0.736462,-1.644934 1.644932,-1.644934 0.908472,0 1.644934,0.736462 1.644934,1.644934 0,1.514119 1.227436,2.741555 2.741555,2.741555 1.514119,0 2.741556,-1.227436 2.741556,-2.741555 0,-3.93671 -3.191334,-7.1280438 -7.128045,-7.1280438 z m 0,2.1932446 c -2.712193,-6.4e-5 -4.916115,2.188674 -4.9348,4.900804 0,3.440675 1.776203,5.997875 3.869979,7.60728 0.103959,0.07689 0.231746,0.114565 0.36079,0.106372 0.01838,-0.0013 0.03667,-0.0035 0.05483,-0.0066 0.48439,-0.08095 0.626259,-0.708932 0.223711,-0.99025 -2.148794,-1.542366 -3.41996,-4.027921 -3.412688,-6.672946 3.7e-5,-0.0037 3.7e-5,-0.0073 0,-0.01097 0,-2.119768 1.718411,-3.838178 3.838178,-3.838178 2.119767,0 3.838178,1.71841 3.838178,3.838178 0,0.302823 0.245487,0.54831 0.548311,0.54831 0.302823,0 0.54831,-0.245487 0.54831,-0.54831 7.8e-4,-0.01681 7.8e-4,-0.03364 0,-0.05045 -0.02825,-2.70441 -2.228048,-4.882204 -4.932607,-4.883258 z m -0.01097,4.365653 c -0.384749,0.01867 -0.531843,0.328939 -0.542828,0.627276 0.03498,2.682956 2.204617,4.847728 4.887645,4.876677 0.731774,0.008 0.742739,-1.088603 0.01096,-1.096621 -2.108491,-0.01388 -3.809059,-1.729645 -3.804183,-3.838178 3.7e-5,-0.0037 3.7e-5,-0.0073 0,-0.01096 0.005,-0.308406 -0.245364,-0.560208 -0.553794,-0.557084 z" opacity="1" vector-effect="none" style="marker:none"/></svg>