<svg xmlns="http://www.w3.org/2000/svg" xmlns:svg="http://www.w3.org/2000/svg" xmlns:xlink="http://www.w3.org/1999/xlink" id="svg3670" width="32" height="32" version="1.1"><defs id="defs3672"><linearGradient id="linearGradient4334"><stop id="stop4336" offset="0" stop-color="#fff" stop-opacity="1"/><stop id="stop4338" offset=".136" stop-color="#fff" stop-opacity=".235"/><stop id="stop4340" offset=".931" stop-color="#fff" stop-opacity=".157"/><stop id="stop4342" offset="1" stop-color="#fff" stop-opacity=".392"/></linearGradient><linearGradient id="linearGradient3617" x1="14" x2="32" y1="2" y2="40" gradientTransform="matrix(1.4307233,0,0,0.67711807,-15.489987,-2.3730576)" gradientUnits="userSpaceOnUse" xlink:href="#linearGradient3208"/><linearGradient id="linearGradient3208"><stop id="stop3210" offset="0" stop-color="#fff" stop-opacity="1"/><stop id="stop3212" offset="1" stop-color="#fff" stop-opacity="0"/></linearGradient><linearGradient id="linearGradient3621" x1="22.228" x2="-29.923" y1="33.658" y2="33.658" gradientTransform="matrix(1.0155223e-7,-0.45626207,0.47872179,2.258382e-7,-0.1127109,14.199153)" gradientUnits="userSpaceOnUse" xlink:href="#linearGradient4334"/><linearGradient id="linearGradient3624" x1="18.601" x2="18.601" y1=".854" y2="49.956" gradientTransform="matrix(0.65617335,0,0,0.56391362,11.640049,1.6742837)" gradientUnits="userSpaceOnUse" xlink:href="#linearGradient3600-8"/><linearGradient id="linearGradient3600-8"><stop id="stop3602-2" offset="0" stop-color="#f4f4f4" stop-opacity="1"/><stop id="stop3604-5" offset="1" stop-color="#dbdbdb" stop-opacity="1"/></linearGradient><linearGradient id="linearGradient23419-5"><stop id="stop23421-7" offset="0" stop-color="#000" stop-opacity="1"/><stop id="stop23423-0" offset="1" stop-color="#000" stop-opacity="0"/></linearGradient><radialGradient id="radialGradient3668" cx="23.335" cy="41.636" r="22.627" fx="23.335" fy="41.636" gradientTransform="matrix(0.41984462,0,0,0.13257013,6.203125,22.480299)" gradientUnits="userSpaceOnUse" xlink:href="#linearGradient23419-5"/></defs><metadata id="metadata3675"/><path id="path23417-6" fill="url(#radialGradient3668)" fill-opacity="1" fill-rule="evenodd" stroke="none" stroke-width="2" d="M 25.5,27.999999 C 25.500427,29.65681 21.247054,31 16,31 10.752946,31 6.4995114,29.65681 6.5,27.999999 6.4995725,26.343197 10.752946,25 16,25 c 5.247054,0 9.500482,1.343197 9.5,2.999999 l 0,0 z" display="inline" opacity=".3" overflow="visible" visibility="visible" style="marker:none"/><path id="path4155" fill="url(#linearGradient3624)" fill-opacity="1" fill-rule="nonzero" stroke="none" stroke-dasharray="none" stroke-dashoffset="0" stroke-linecap="butt" stroke-linejoin="round" stroke-miterlimit="4" stroke-opacity="1" stroke-width="1" d="m 15.982422,3 c -1.764163,0.040192 -3.643732,0.1563325 -5.177734,1.1757812 -0.0058,0.00403 -0.01164,0.00793 -0.01758,0.011719 -0.0046,0.00279 -0.0079,0.00662 -0.01172,0.00977 -1.5635381,1.7620885 -1.2805561,4.1571025 -1.5703129,6.2558594 -0.00404,0.02915 -0.010575,0.0579 -0.019531,0.08594 -0.3084963,5.047119 -0.289962,10.149805 0.5078125,15.16211 l 0,0.0059 c 0.2358169,1.197353 0.9837426,2.412025 2.3339846,2.734375 0.03101,0.0024 0.06173,0.0077 0.0918,0.01563 2.345802,0.690645 4.898828,0.693117 7.267578,0.167969 1.146178,-0.254485 2.268439,-0.917161 2.652343,-2.050781 0.0027,-0.01075 0.0077,-0.03299 0.0078,-0.0332 l 0.002,-0.0098 c 0.555585,-1.525107 0.550358,-3.153555 0.730469,-4.726562 0.0038,-0.03383 0.01104,-0.0672 0.02148,-0.09961 l 0,-0.002 c 0.316887,-4.841219 0.294086,-9.719588 -0.347656,-14.5410156 l 0,-0.00195 c -0.08732,-0.6720641 -0.227195,-1.3769253 -0.542969,-2 C 21.601849,4.5518156 21.115114,4.0220786 20.392578,3.7304688 l 0.03711,0.013672 c -4.2e-5,-1.32e-5 -0.02961,-0.019628 -0.04102,-0.027344 -0.0038,-0.00117 -0.01942,-0.00581 -0.01953,-0.00586 l -0.0078,-0.00391 C 18.990851,3.1162506 17.436402,3.0550025 15.996094,3 c -0.0029,-9.09e-5 -0.0069,-9.09e-5 -0.0098,0 z" color="#000" display="inline" enable-background="accumulate" overflow="visible" visibility="visible" style="marker:none"/><path id="rect1320-6-9-3" fill="none" stroke="url(#linearGradient3621)" stroke-dasharray="none" stroke-dashoffset="0" stroke-linecap="round" stroke-linejoin="round" stroke-miterlimit="4" stroke-opacity="1" stroke-width="1" d="m 16.000712,3.4999986 c -1.659717,0.038782 -3.434657,0.1548333 -4.844409,1.115782 -1.4451411,1.6617308 -1.1987601,3.9825707 -1.4717787,6.0109044 -0.2961401,4.909243 -0.2973348,9.868723 0.4583867,14.738825 0.221371,1.161186 0.956633,2.340763 2.199104,2.615411 2.195881,0.670968 4.589261,0.658615 6.819362,0.151506 1.064032,-0.24232 2.094387,-0.873366 2.437538,-1.950506 0.523677,-1.46275 0.532208,-3.043481 0.702687,-4.570621 C 22.60748,16.894325 22.600156,12.135703 21.991118,7.4424154 21.829876,6.1695883 21.397724,4.7038191 20.075172,4.1708768 18.810203,3.6067485 17.366293,3.5534857 16.000712,3.4999986 Z" display="inline" overflow="visible" visibility="visible" style="marker:none"/><path id="rect3238" fill="url(#linearGradient3617)" fill-opacity="1" fill-rule="nonzero" stroke="none" stroke-width="1" d="m 16,3.0000024 c -1.787387,0.040333 -3.69014,0.16728 -5.208333,1.1666667 -1.556307,1.7282 -1.2893136,4.1405336 -1.5833336,6.2499999 -0.228228,3.653718 -0.3002707,7.32515 -0.020833,10.979167 L 22.520833,7.6041694 c -0.02089,-0.1667647 -0.04011,-0.3333894 -0.0625,-0.5 C 22.284687,5.7804291 21.82012,4.2417624 20.395833,3.6875024 19.03356,3.1008091 17.470627,3.0556291 16,3.0000024 Z" display="inline" enable-background="accumulate" opacity=".4" overflow="visible" visibility="visible" style="marker:none"/><path id="path4487-1" fill="none" fill-opacity="1" fill-rule="nonzero" stroke="#000" stroke-dasharray="none" stroke-dashoffset="0" stroke-linecap="butt" stroke-linejoin="round" stroke-miterlimit="4" stroke-opacity="1" stroke-width="1" d="m 15.971632,2.5002222 c -1.771342,0.04041 -3.766409,0.1444505 -5.441066,1.2588829 a 0.62739771,0.60331751 0 0 0 -0.12273,0.098351 C 8.6681272,5.8104235 8.9840069,8.4009655 8.7100586,10.38791 a 0.62739771,0.60331751 0 0 0 -0.020422,0.03934 c -0.3146364,5.092071 -0.297238,10.255322 0.511378,15.342632 a 0.62739771,0.60331751 0 0 0 0,0.01964 c 0.2630171,1.346897 1.1350874,2.776517 2.7409894,3.147208 0.01564,0.0038 0.02513,0.01624 0.04091,0.01964 l 0,-0.01964 c 2.436602,0.71835 5.067768,0.718544 7.507034,0.177029 1.263382,-0.280888 2.572386,-1.033461 3.027361,-2.399745 0.002,-0.0056 -0.002,-0.01379 0,-0.01964 0.593834,-1.632312 0.582334,-3.312695 0.75684,-4.838832 a 0.62739771,0.60331751 0 0 0 0.02043,-0.01964 C 23.61974,16.940422 23.597491,11.998079 22.946834,7.1030446 22.856754,6.4088398 22.710641,5.6447294 22.353635,4.9393394 22.000498,4.2415973 21.42293,3.6104563 20.574039,3.2673855 c -0.0039,-0.00125 0.0039,-0.018128 0,-0.019639 -0.0059,-0.00252 -0.01427,0.00252 -0.02043,0 -1.48414,-0.6406455 -3.105456,-0.6925682 -4.54104,-0.7474618 a 0.62739771,0.60331751 0 0 0 -0.04091,0 z" clip-rule="nonzero" color="#000" color-interpolation="sRGB" color-interpolation-filters="linearRGB" color-rendering="auto" display="inline" enable-background="accumulate" image-rendering="auto" opacity=".2" overflow="visible" shape-rendering="auto" text-rendering="auto" visibility="visible" style="marker:none;isolation:auto;mix-blend-mode:normal;solid-color:#000;solid-opacity:1;filter-blend-mode:normal;filter-gaussianBlur-deviation:0"/></svg>