<svg xmlns="http://www.w3.org/2000/svg" xmlns:osb="http://www.openswatchbook.org/uri/2009/osb" xmlns:svg="http://www.w3.org/2000/svg" xmlns:xlink="http://www.w3.org/1999/xlink" id="svg4715" width="32" height="32" version="1.1"><defs id="defs4717"><linearGradient id="linearGradient967"><stop id="stop959" offset="0" stop-color="#fff3cb" stop-opacity="1"/><stop id="stop961" offset=".262" stop-color="#fff7dd" stop-opacity="1"/><stop id="stop963" offset=".661" stop-color="#fdedc5" stop-opacity="1"/><stop id="stop965" offset="1" stop-color="#eeb878" stop-opacity="1"/></linearGradient><linearGradient id="linearGradient953"><stop id="stop949" offset="0" stop-color="#fff" stop-opacity="1"/><stop id="stop951" offset="1" stop-color="#fff" stop-opacity="0"/></linearGradient><linearGradient id="linearGradient3846-7"><stop id="stop892" offset="0" stop-color="#fff3cb" stop-opacity="1"/><stop id="stop894" offset=".262" stop-color="#fdde76" stop-opacity="1"/><stop id="stop896" offset=".661" stop-color="#f9c440" stop-opacity="1"/><stop id="stop898" offset="1" stop-color="#e48b20" stop-opacity="1"/></linearGradient><linearGradient id="linearGradient3924"><stop id="stop3926" offset="0" stop-color="#fff" stop-opacity="1"/><stop id="stop3928" offset=".063" stop-color="#fff" stop-opacity=".235"/><stop id="stop3930" offset=".951" stop-color="#fff" stop-opacity=".157"/><stop id="stop3932" offset="1" stop-color="#fff" stop-opacity=".392"/></linearGradient><linearGradient id="linearGradient2867-449-88-871-390-598-476-591-434-148-57-177-641-289-620-227-114-444-680-744-4-8-69-5-4-8-426-2-9-1-4-965"><stop id="stop4036" offset="0" stop-color="#ce4f47" stop-opacity="1"/><stop id="stop4040" offset="1" stop-color="#b93b36" stop-opacity="1"/></linearGradient><radialGradient id="radialGradient3163" cx="4.993" cy="43.5" r="2.5" fx="4.993" fy="43.5" gradientTransform="matrix(2.003784,0,0,1.4,27.98813,-17.4)" gradientUnits="userSpaceOnUse" xlink:href="#linearGradient3688-166-749"/><linearGradient id="linearGradient3688-166-749"><stop id="stop2883" offset="0" stop-color="#181818" stop-opacity="1"/><stop id="stop2885" offset="1" stop-color="#181818" stop-opacity="0"/></linearGradient><radialGradient id="radialGradient3165" cx="4.993" cy="43.5" r="2.5" fx="4.993" fy="43.5" gradientTransform="matrix(2.003784,0,0,1.4,-20.01187,-104.4)" gradientUnits="userSpaceOnUse" xlink:href="#linearGradient3688-464-309"/><linearGradient id="linearGradient3688-464-309"><stop id="stop2889" offset="0" stop-color="#181818" stop-opacity="1"/><stop id="stop2891" offset="1" stop-color="#181818" stop-opacity="0"/></linearGradient><linearGradient id="linearGradient3167" x1="25.058" x2="25.058" y1="47.028" y2="39.999" gradientUnits="userSpaceOnUse" xlink:href="#linearGradient3702-501-757"/><linearGradient id="linearGradient3702-501-757"><stop id="stop2895" offset="0" stop-color="#181818" stop-opacity="0"/><stop id="stop2897" offset=".5" stop-color="#181818" stop-opacity="1"/><stop id="stop2899" offset="1" stop-color="#181818" stop-opacity="0"/></linearGradient><linearGradient id="linearGradient3027-9" x1="24" x2="24" y1="5" y2="43" gradientTransform="matrix(0.67567568,0,0,0.67567565,-0.216213,-0.2162086)" gradientUnits="userSpaceOnUse" xlink:href="#linearGradient3924"/><radialGradient id="radialGradient3035-2-7-2-0-6-6" cx="5.759" cy="8.45" r="20" fx="5.759" fy="8.45" gradientTransform="matrix(-0.70464575,0,0,-0.2978453,20.73142,11.102583)" gradientUnits="userSpaceOnUse" xlink:href="#linearGradient2867-449-88-871-390-598-476-591-434-148-57-177-641-289-620-227-114-444-680-744-4-8-69-5-4-8-426-2-9-1-4-965"/><radialGradient id="radialGradient3035-2-7-2-0-6-6-9" cx="5.759" cy="8.45" r="20" fx="5.759" fy="8.45" gradientTransform="matrix(-0.70464575,0,0,-0.2978453,20.73142,23.102583)" gradientUnits="userSpaceOnUse" xlink:href="#linearGradient2867-449-88-871-390-598-476-591-434-148-57-177-641-289-620-227-114-444-680-744-4-8-69-5-4-8-426-2-9-1-4-965"/><radialGradient id="radialGradient3035-2-7-2-0-6-6-5" cx="5.759" cy="8.45" r="20" fx="5.759" fy="8.45" gradientTransform="matrix(-0.70464575,0,0,-0.2978453,20.73142,17.102583)" gradientUnits="userSpaceOnUse" xlink:href="#linearGradient2867-449-88-871-390-598-476-591-434-148-57-177-641-289-620-227-114-444-680-744-4-8-69-5-4-8-426-2-9-1-4-965"/><radialGradient id="radialGradient3035-2-7-2-0-6-6-5-4" cx="5.759" cy="8.45" r="20" fx="5.759" fy="8.45" gradientTransform="matrix(-0.70464575,0,0,-0.2978453,20.73142,5.102583)" gradientUnits="userSpaceOnUse" xlink:href="#linearGradient2867-449-88-871-390-598-476-591-434-148-57-177-641-289-620-227-114-444-680-744-4-8-69-5-4-8-426-2-9-1-4-965"/><radialGradient id="radialGradient3035-2-7-2-0-6-6-5-3" cx="5.759" cy="8.45" r="20" fx="5.759" fy="8.45" gradientTransform="matrix(-0.70464575,0,0,-0.2978453,20.73142,26.102583)" gradientUnits="userSpaceOnUse" xlink:href="#linearGradient2867-449-88-871-390-598-476-591-434-148-57-177-641-289-620-227-114-444-680-744-4-8-69-5-4-8-426-2-9-1-4-965"/><linearGradient id="linearGradient4526" osb:paint="solid"><stop id="stop4528" offset="0" stop-color="#fff" stop-opacity="1"/></linearGradient><linearGradient id="linearGradient5126"><stop id="stop5128" offset="0" stop-color="#fff" stop-opacity="1"/><stop id="stop5130" offset="1" stop-color="#fff" stop-opacity="0"/></linearGradient><linearGradient id="linearGradient3846-7-6"><stop id="stop3848-7" offset="0" stop-color="#fff3cb" stop-opacity="1"/><stop id="stop3850-5" offset=".262" stop-color="#fff7dd" stop-opacity="1"/><stop id="stop3852-9" offset=".661" stop-color="#fdedc5" stop-opacity="1"/><stop id="stop3854-2" offset="1" stop-color="#f7dec0" stop-opacity="1"/></linearGradient><linearGradient id="linearGradient3133-5" x1="-34.629" x2="-34.629" y1="-.342" y2="53.756" gradientTransform="matrix(0.50704097,0,0,0.50651113,74.619896,2.261947)" gradientUnits="userSpaceOnUse" xlink:href="#linearGradient967"/><linearGradient id="linearGradient4483" x1="59.969" x2="59.969" y1="13.992" y2="28.782" gradientTransform="translate(-4.218704,-5.2006101)" gradientUnits="userSpaceOnUse" xlink:href="#linearGradient5126"/><linearGradient id="linearGradient901" x1="-34.629" x2="-34.629" y1="-.342" y2="53.756" gradientTransform="matrix(0.50704097,0,0,0.50651113,74.619896,2.261947)" gradientUnits="userSpaceOnUse" xlink:href="#linearGradient3846-7"/><clipPath id="clipPath919" clipPathUnits="userSpaceOnUse"><path id="path921" fill="url(#linearGradient923)" fill-opacity="1" fill-rule="nonzero" stroke="none" stroke-dasharray="none" stroke-dashoffset="0" stroke-linecap="butt" stroke-linejoin="miter" stroke-miterlimit="4" stroke-opacity="1" stroke-width="1" d="m 14.673828,8 c -0.06972,2.904862 -0.987748,5.45031 -2.753906,7.634766 -0.06972,-0.85984 -0.336002,-1.720239 -0.800781,-2.580078 -0.04648,0.650689 -0.308756,1.517041 -0.785157,2.597656 C 9.8575795,16.732959 9.5615059,17.515891 9.4453125,18.003906 9.1896854,19.23557 9.3347392,20.316539 9.8808594,21.246094 10.42698,22.175649 11.501987,23.093682 13.105469,24 c 2.144436,1.288777 3.362158,0.989922 5.36914,0 1.138718,-0.650688 2.044836,-1.366021 2.71875,-2.144531 0.673917,-0.77851 1.10314,-1.533605 1.289063,-2.265625 0.185922,-0.732018 0.23759,-1.487116 0.15625,-2.265625 -0.08134,-0.77851 -0.266159,-1.481925 -0.556641,-2.109375 -0.290479,-0.627451 -0.622317,-1.219612 -0.99414,-1.777344 -0.371823,-0.557735 -0.707661,-0.998874 -1.009766,-1.324219 -0.302105,-0.325343 -0.54651,-0.557832 -0.732422,-0.697265 0.162671,0.441538 0.220298,0.91843 0.173828,1.429687 -0.04648,0.511255 -0.161747,0.97623 -0.347656,1.394531 -0.06972,-0.697169 -0.27436,-1.394631 -0.611328,-2.091796 C 18.223576,11.45127 17.863904,10.87504 17.480469,10.421875 17.097031,9.9687106 16.655892,9.5335217 16.15625,9.1152344 15.656607,8.6969472 15.312865,8.4246969 15.126953,8.296875 14.941045,8.1690559 14.790024,8.069715 14.673828,8 Z" clip-rule="nonzero" color="#000" color-interpolation="sRGB" color-interpolation-filters="linearRGB" color-rendering="auto" display="inline" enable-background="accumulate" image-rendering="auto" opacity="1" overflow="visible" shape-rendering="auto" text-rendering="auto" visibility="visible" style="isolation:auto;mix-blend-mode:normal;solid-color:#000;solid-opacity:1;marker:none"/></clipPath><linearGradient id="linearGradient923" x1="-34.629" x2="-34.629" y1="-.342" y2="53.756" gradientTransform="matrix(0.50704097,0,0,0.50651113,34.619896,2.261947)" gradientUnits="userSpaceOnUse" xlink:href="#linearGradient3846-7"/><clipPath id="clipPath943" clipPathUnits="userSpaceOnUse"><path id="path945" fill="url(#linearGradient947)" fill-opacity="1" fill-rule="nonzero" stroke="none" stroke-dasharray="none" stroke-dashoffset="0" stroke-linecap="butt" stroke-linejoin="miter" stroke-miterlimit="4" stroke-opacity="1" stroke-width="1" d="m 18.473944,23.999999 c 0.766883,-1.533769 0.917936,-3.189543 0.453157,-4.967323 -0.464779,-1.777783 -1.382716,-3.143072 -2.75381,-4.095867 0.116194,0.511257 0.05229,1.35367 -0.191728,2.527241 -0.244016,1.17357 -0.633265,2.062461 -1.167748,2.666674 0.09296,-0.743647 0.116197,-1.34786 0.06972,-1.812639 -0.04648,-0.464776 -0.116197,-0.813358 -0.20915,-1.045747 l -0.17429,-0.313724 c -0.139434,0.836599 -0.499637,1.673199 -1.08061,2.509798 -0.302105,0.441541 -0.528687,0.848222 -0.679747,1.220043 -0.151059,0.371823 -0.209157,0.848221 -0.174294,1.429194 0.03487,0.580972 0.214965,1.208422 0.540296,1.882351 0,0 0.918831,0.75 1.942922,0.75 2.482588,0 2.59525,-0.275689 3.425282,-0.750001 z" clip-rule="nonzero" color="#000" color-interpolation="sRGB" color-interpolation-filters="linearRGB" color-rendering="auto" display="inline" enable-background="accumulate" image-rendering="auto" opacity="1" overflow="visible" shape-rendering="auto" text-rendering="auto" visibility="visible" style="isolation:auto;mix-blend-mode:normal;solid-color:#000;solid-opacity:1;marker:none"/></clipPath><linearGradient id="linearGradient947" x1="-34.629" x2="-34.629" y1="-.342" y2="53.756" gradientTransform="matrix(0.50704097,0,0,0.50651113,34.619896,2.261947)" gradientUnits="userSpaceOnUse" xlink:href="#linearGradient3846-7-6"/><linearGradient id="linearGradient955" x1="17" x2="17" y1="20" y2="22" gradientUnits="userSpaceOnUse" xlink:href="#linearGradient953"/></defs><metadata id="metadata4720"/><path id="rect5505-9-1-1-6-5-4-0" fill="url(#radialGradient3035-2-7-2-0-6-6-5-4)" fill-opacity="1" fill-rule="nonzero" stroke="none" stroke-dasharray="none" stroke-dashoffset="0" stroke-linecap="butt" stroke-linejoin="miter" stroke-miterlimit="4" stroke-opacity="1" stroke-width="1" d="m 3.5,2.5 c -0.554,0 -1,0.446 -1,1 l 0,4 c 0,0.554 0.446,1 1,1 l 4,0 c 0.554,0 1,-0.446 1,-1 0,0.554 0.446,1 1,1 l 10,0 c 0.554,0 1,-0.446 1,-1 0,0.554 0.446,1 1,1 l 7,0 c 0.554,0 1,-0.446 1,-1 l 0,-4 c 0,-0.554 -0.446,-1 -1,-1 l -7,0 c -0.554,0 -1,0.446 -1,1 0,-0.554 -0.446,-1 -1,-1 l -10,0 c -0.554,0 -1,0.446 -1,1 0,-0.554 -0.446,-1 -1,-1 l -4,0 z" clip-rule="nonzero" color="#000" color-interpolation="sRGB" color-interpolation-filters="linearRGB" color-rendering="auto" display="inline" enable-background="accumulate" image-rendering="auto" opacity="1" overflow="visible" shape-rendering="auto" text-rendering="auto" visibility="visible" style="isolation:auto;mix-blend-mode:normal;solid-color:#000;solid-opacity:1;marker:none"/><path id="rect5505-9-1-1-6-5-4" fill="url(#radialGradient3035-2-7-2-0-6-6-5)" fill-opacity="1" fill-rule="nonzero" stroke="none" stroke-dasharray="none" stroke-dashoffset="0" stroke-linecap="butt" stroke-linejoin="miter" stroke-miterlimit="4" stroke-opacity="1" stroke-width="1" d="M 3.5 14.5 C 2.946 14.5 2.5 14.946 2.5 15.5 L 2.5 19.5 C 2.5 20.054 2.946 20.5 3.5 20.5 L 7.5 20.5 C 8.054 20.5 8.5 20.054 8.5 19.5 C 8.5 20.054 8.946 20.5 9.5 20.5 L 19.5 20.5 C 20.054 20.5 20.5 20.054 20.5 19.5 C 20.5 20.054 20.946 20.5 21.5 20.5 L 28.5 20.5 C 29.054 20.5 29.5 20.054 29.5 19.5 L 29.5 15.5 C 29.5 14.946 29.054 14.5 28.5 14.5 L 21.5 14.5 C 20.946 14.5 20.5 14.946 20.5 15.5 C 20.5 14.946 20.054 14.5 19.5 14.5 L 9.5 14.5 C 8.946 14.5 8.5 14.946 8.5 15.5 C 8.5 14.946 8.054 14.5 7.5 14.5 L 3.5 14.5 z" clip-rule="nonzero" color="#000" color-interpolation="sRGB" color-interpolation-filters="linearRGB" color-rendering="auto" display="inline" enable-background="accumulate" image-rendering="auto" opacity="1" overflow="visible" shape-rendering="auto" text-rendering="auto" visibility="visible" style="marker:none;isolation:auto;mix-blend-mode:normal;solid-color:#000;solid-opacity:1;filter-blend-mode:normal;filter-gaussianBlur-deviation:0"/><path id="rect5505-9-1-1-6-5-49-8" fill="url(#radialGradient3035-2-7-2-0-6-6-9)" fill-opacity="1" fill-rule="nonzero" stroke="none" stroke-width="1" d="m 3.5,20.5 c -0.554,0 -1,0.446 -1,1 l 0,4 c 0,0.554 0.446,1 1,1 l 7,0 c 0.554,0 1,-0.446 1,-1 0,0.554 0.446,1 1,1 l 10,0 c 0.554,0 1,-0.446 1,-1 0,0.554 0.446,1 1,1 l 4,0 c 0.554,0 1,-0.446 1,-1 l 0,-4 c 0,-0.554 -0.446,-1 -1,-1 l -4,0 c -0.554,0 -1,0.446 -1,1 0,-0.554 -0.446,-1 -1,-1 l -10,0 c -0.554,0 -1,0.446 -1,1 0,-0.554 -0.446,-1 -1,-1 l -7,0 z" color="#000" display="inline" enable-background="accumulate" overflow="visible" visibility="visible" style="marker:none"/><path id="rect5505-9-1-1-6-5-49" fill="url(#radialGradient3035-2-7-2-0-6-6)" fill-opacity="1" fill-rule="nonzero" stroke="none" stroke-width="1" d="M 3.5 8.5 C 2.946 8.5 2.5 8.946 2.5 9.5 L 2.5 13.5 C 2.5 14.054 2.946 14.5 3.5 14.5 L 10.5 14.5 C 11.054 14.5 11.5 14.054 11.5 13.5 C 11.5 14.054 11.946 14.5 12.5 14.5 L 22.5 14.5 C 23.054 14.5 23.5 14.054 23.5 13.5 C 23.5 14.054 23.946 14.5 24.5 14.5 L 28.5 14.5 C 29.054 14.5 29.5 14.054 29.5 13.5 L 29.5 9.5 C 29.5 8.946 29.054 8.5 28.5 8.5 L 24.5 8.5 C 23.946 8.5 23.5 8.946 23.5 9.5 C 23.5 8.946 23.054 8.5 22.5 8.5 L 12.5 8.5 C 11.946 8.5 11.5 8.946 11.5 9.5 C 11.5 8.946 11.054 8.5 10.5 8.5 L 3.5 8.5 z" color="#000" display="inline" enable-background="accumulate" overflow="visible" visibility="visible" style="marker:none"/><rect id="rect5505-6-6-3-0-3-4-0" width="6" height="6" x="-29.5" y="20.5" fill="none" stroke="#681d22" stroke-dasharray="none" stroke-dashoffset="0" stroke-linecap="round" stroke-linejoin="round" stroke-miterlimit="4" stroke-opacity="1" stroke-width="1" color="#000" display="inline" enable-background="accumulate" opacity=".5" overflow="visible" rx="1" ry="1" transform="scale(-1,1)" visibility="visible" style="marker:none"/><rect id="rect5505-6-6-3-7-6-7-8-6" width="12" height="6" x="-23.5" y="20.5" fill="none" stroke="#681d22" stroke-dasharray="none" stroke-dashoffset="0" stroke-linecap="round" stroke-linejoin="round" stroke-miterlimit="4" stroke-opacity="1" stroke-width="1" color="#000" display="inline" enable-background="accumulate" opacity=".5" overflow="visible" rx="1" ry="1" transform="scale(-1,1)" visibility="visible" style="marker:none"/><rect id="rect5505-6-6-3-7-5-9-1-4-7-1" width="9" height="6" x="-11.5" y="20.5" fill="none" stroke="#681d22" stroke-dasharray="none" stroke-dashoffset="0" stroke-linecap="round" stroke-linejoin="round" stroke-miterlimit="4" stroke-opacity="1" stroke-width="1" color="#000" display="inline" enable-background="accumulate" opacity=".5" overflow="visible" rx="1" ry="1" transform="scale(-1,1)" visibility="visible" style="marker:none"/><rect id="rect5505-6-6-3-0-3-4" width="6" height="6" x="-29.5" y="8.5" fill="none" stroke="#681d22" stroke-dasharray="none" stroke-dashoffset="0" stroke-linecap="round" stroke-linejoin="round" stroke-miterlimit="4" stroke-opacity="1" stroke-width="1" color="#000" display="inline" enable-background="accumulate" opacity=".5" overflow="visible" rx="1" ry="1" transform="scale(-1,1)" visibility="visible" style="marker:none"/><rect id="rect5505-6-6-3-7-6-7-8" width="12" height="6" x="-23.5" y="8.5" fill="none" stroke="#681d22" stroke-dasharray="none" stroke-dashoffset="0" stroke-linecap="round" stroke-linejoin="round" stroke-miterlimit="4" stroke-opacity="1" stroke-width="1" color="#000" display="inline" enable-background="accumulate" opacity=".5" overflow="visible" rx="1" ry="1" transform="scale(-1,1)" visibility="visible" style="marker:none"/><rect id="rect5505-6-6-3-7-5-9-1-4-7" width="9" height="6" x="-11.5" y="8.5" fill="none" stroke="#681d22" stroke-dasharray="none" stroke-dashoffset="0" stroke-linecap="round" stroke-linejoin="round" stroke-miterlimit="4" stroke-opacity="1" stroke-width="1" color="#000" display="inline" enable-background="accumulate" opacity=".5" overflow="visible" rx="1" ry="1" transform="scale(-1,1)" visibility="visible" style="marker:none"/><rect id="rect5505-6-6-3-0-3-0" width="6" height="6" x="2.5" y="14.5" fill="none" stroke="#681d22" stroke-dasharray="none" stroke-dashoffset="0" stroke-linecap="round" stroke-linejoin="round" stroke-miterlimit="4" stroke-opacity="1" stroke-width="1" color="#000" display="inline" enable-background="accumulate" opacity=".5" overflow="visible" rx="1" ry="1" visibility="visible" style="marker:none"/><rect id="rect5505-6-6-3-7-6-7-7" width="12" height="6" x="8.5" y="14.5" fill="none" stroke="#681d22" stroke-dasharray="none" stroke-dashoffset="0" stroke-linecap="round" stroke-linejoin="round" stroke-miterlimit="4" stroke-opacity="1" stroke-width="1" color="#000" display="inline" enable-background="accumulate" opacity=".5" overflow="visible" rx="1" ry="1" visibility="visible" style="marker:none"/><rect id="rect5505-6-6-3-7-5-9-1-4-8" width="9" height="6" x="20.5" y="14.5" fill="none" stroke="#681d22" stroke-dasharray="none" stroke-dashoffset="0" stroke-linecap="round" stroke-linejoin="round" stroke-miterlimit="4" stroke-opacity="1" stroke-width="1" color="#000" display="inline" enable-background="accumulate" opacity=".5" overflow="visible" rx="1" ry="1" visibility="visible" style="marker:none"/><rect id="rect5505-6-6-3-0-3" width="6" height="6" x="2.5" y="2.5" fill="none" stroke="#681d22" stroke-dasharray="none" stroke-dashoffset="0" stroke-linecap="round" stroke-linejoin="round" stroke-miterlimit="4" stroke-opacity="1" stroke-width="1" color="#000" display="inline" enable-background="accumulate" opacity=".5" overflow="visible" rx="1" ry="1" visibility="visible" style="marker:none"/><rect id="rect5505-6-6-3-7-6-7" width="12" height="6" x="8.5" y="2.5" fill="none" stroke="#681d22" stroke-dasharray="none" stroke-dashoffset="0" stroke-linecap="round" stroke-linejoin="round" stroke-miterlimit="4" stroke-opacity="1" stroke-width="1" color="#000" display="inline" enable-background="accumulate" opacity=".5" overflow="visible" rx="1" ry="1" visibility="visible" style="marker:none"/><rect id="rect5505-6-6-3-7-5-9-1-4" width="9" height="6" x="20.5" y="2.5" fill="none" stroke="#681d22" stroke-dasharray="none" stroke-dashoffset="0" stroke-linecap="round" stroke-linejoin="round" stroke-miterlimit="4" stroke-opacity="1" stroke-width="1" color="#000" display="inline" enable-background="accumulate" opacity=".5" overflow="visible" rx="1" ry="1" visibility="visible" style="marker:none"/><g id="g2036" display="inline" transform="matrix(0.6999997,0,0,0.44444486,-0.8000003,10.111104)"><g id="g3712" opacity=".4" transform="matrix(1.052632,0,0,1.285713,-1.263158,-13.42854)"><rect id="rect2801" width="5" height="7" x="38" y="40" fill="url(#radialGradient3163)" fill-opacity="1" stroke="none"/><rect id="rect3696" width="5" height="7" x="-10" y="-47" fill="url(#radialGradient3165)" fill-opacity="1" stroke="none" transform="scale(-1,-1)"/><rect id="rect3700" width="28" height="7" x="10" y="40" fill="url(#linearGradient3167)" fill-opacity="1" stroke="none"/></g></g><path id="rect5505-9-1-1-6-5-4-1" fill="url(#radialGradient3035-2-7-2-0-6-6-5-3)" fill-opacity="1" fill-rule="nonzero" stroke="none" stroke-dasharray="none" stroke-dashoffset="0" stroke-linecap="butt" stroke-linejoin="miter" stroke-miterlimit="4" stroke-opacity="1" stroke-width="1" d="M 3.5 26.5 C 2.946 26.5 2.5 26.946 2.5 27.5 L 2.5 28.5 C 2.5 29.054 2.946 29.5 3.5 29.5 L 7.5 29.5 C 8.054 29.5 8.5 29.054 8.5 28.5 C 8.5 29.054 8.946 29.5 9.5 29.5 L 19.5 29.5 C 20.054 29.5 20.5 29.054 20.5 28.5 C 20.5 29.054 20.946 29.5 21.5 29.5 L 28.5 29.5 C 29.054 29.5 29.5 29.054 29.5 28.5 L 29.5 27.5 C 29.5 26.946 29.054 26.5 28.5 26.5 L 21.5 26.5 C 20.946 26.5 20.5 26.946 20.5 27.5 C 20.5 26.946 20.054 26.5 19.5 26.5 L 9.5 26.5 C 8.946 26.5 8.5 26.946 8.5 27.5 C 8.5 26.946 8.054 26.5 7.5 26.5 L 3.5 26.5 z" clip-rule="nonzero" color="#000" color-interpolation="sRGB" color-interpolation-filters="linearRGB" color-rendering="auto" display="inline" enable-background="accumulate" image-rendering="auto" opacity="1" overflow="visible" shape-rendering="auto" text-rendering="auto" visibility="visible" style="marker:none;isolation:auto;mix-blend-mode:normal;solid-color:#000;solid-opacity:1;filter-blend-mode:normal;filter-gaussianBlur-deviation:0"/><rect id="rect5505-6-6-3-0-3-0-2" width="6" height="3" x="2.5" y="26.5" fill="none" stroke="#681d22" stroke-dasharray="none" stroke-dashoffset="0" stroke-linecap="round" stroke-linejoin="round" stroke-miterlimit="4" stroke-opacity="1" stroke-width="1" color="#000" display="inline" enable-background="accumulate" opacity=".5" overflow="visible" rx="1" ry="1" visibility="visible" style="marker:none"/><rect id="rect5505-6-6-3-7-6-7-7-0" width="12" height="3" x="8.5" y="26.5" fill="none" stroke="#681d22" stroke-dasharray="none" stroke-dashoffset="0" stroke-linecap="round" stroke-linejoin="round" stroke-miterlimit="4" stroke-opacity="1" stroke-width="1" color="#000" display="inline" enable-background="accumulate" opacity=".5" overflow="visible" rx="1" ry="1" visibility="visible" style="marker:none"/><rect id="rect5505-6-6-3-7-5-9-1-4-8-6" width="9" height="3" x="20.5" y="26.5" fill="none" stroke="#681d22" stroke-dasharray="none" stroke-dashoffset="0" stroke-linecap="round" stroke-linejoin="round" stroke-miterlimit="4" stroke-opacity="1" stroke-width="1" color="#000" display="inline" enable-background="accumulate" opacity=".5" overflow="visible" rx="1" ry="1" visibility="visible" style="marker:none"/><path id="rect6741-7-5" fill="none" stroke="url(#linearGradient3027-9)" stroke-dasharray="none" stroke-dashoffset="0" stroke-linecap="round" stroke-linejoin="round" stroke-miterlimit="4" stroke-opacity="1" stroke-width="1" d="m 3.5,3.5 25,0 0,25 -25,0 z m 4,12 -3.5,0 m 15.5,0 -10,0 m 18.5,0 -6.5,0 m 3,6 3.5,0 m -15.5,0 10,0 m -18.5,0 6.5,0 m 14,-12 3.5,0 m -15.5,0 10,0 m -18.5,0 6.5,0" opacity=".3"/><g id="g935" transform="translate(-40)"><path id="path911" fill="none" fill-opacity="1" fill-rule="nonzero" stroke="#662c05" stroke-dasharray="none" stroke-dashoffset="0" stroke-linecap="butt" stroke-linejoin="round" stroke-miterlimit="4" stroke-opacity="1" stroke-width="2" d="m 54.673828,8 c -0.06972,2.904862 -0.987748,5.45031 -2.753906,7.634766 -0.06972,-0.85984 -0.336002,-1.720239 -0.800781,-2.580078 -0.04648,0.650689 -0.308756,1.517041 -0.785157,2.597656 -0.476405,1.080615 -0.772478,1.863547 -0.888672,2.351562 -0.255627,1.231664 -0.110573,2.312633 0.435547,3.242188 0.546121,0.929555 1.621128,1.847588 3.22461,2.753906 2.269436,0.757527 3.362158,0.989922 5.36914,0 1.138718,-0.650688 2.044836,-1.366021 2.71875,-2.144531 0.673917,-0.77851 1.10314,-1.533605 1.289063,-2.265625 0.185922,-0.732018 0.23759,-1.487116 0.15625,-2.265625 -0.08134,-0.77851 -0.266159,-1.481925 -0.556641,-2.109375 -0.290479,-0.627451 -0.622317,-1.219612 -0.99414,-1.777344 -0.371823,-0.557735 -0.707661,-0.998874 -1.009766,-1.324219 -0.302105,-0.325343 -0.54651,-0.557832 -0.732422,-0.697265 0.162671,0.441538 0.220298,0.91843 0.173828,1.429687 -0.04648,0.511255 -0.161747,0.97623 -0.347656,1.394531 -0.06972,-0.697169 -0.27436,-1.394631 -0.611328,-2.091796 C 58.223576,11.45127 57.863904,10.87504 57.480469,10.421875 57.097031,9.9687106 56.655892,9.5335217 56.15625,9.1152344 55.656607,8.6969472 55.312865,8.4246969 55.126953,8.296875 54.941045,8.1690559 54.790024,8.069715 54.673828,8 Z" clip-rule="nonzero" color="#000" color-interpolation="sRGB" color-interpolation-filters="linearRGB" color-rendering="auto" display="inline" enable-background="accumulate" image-rendering="auto" opacity=".3" overflow="visible" shape-rendering="auto" text-rendering="auto" visibility="visible" style="isolation:auto;mix-blend-mode:normal;solid-color:#000;solid-opacity:1;marker:none"/><path id="path925" fill="#662c05" fill-opacity="1" fill-rule="nonzero" stroke="none" stroke-dasharray="none" stroke-dashoffset="0" stroke-linecap="butt" stroke-linejoin="miter" stroke-miterlimit="4" stroke-opacity="1" stroke-width="1" d="m 54.673828,9 c -0.06972,2.904862 -0.987748,5.45031 -2.753906,7.634766 -0.06972,-0.85984 -0.336002,-1.720239 -0.800781,-2.580078 -0.04648,0.650689 -0.308756,1.517041 -0.785157,2.597656 -0.476405,1.080615 -0.772478,1.863547 -0.888672,2.351562 -0.255627,1.231664 -0.110573,2.312633 0.435547,3.242188 0.546121,0.929555 1.621128,1.847588 3.22461,2.753906 2.113186,0.788777 3.362158,0.989922 5.36914,0 1.138718,-0.650688 2.044836,-1.366021 2.71875,-2.144531 0.673917,-0.77851 1.10314,-1.533605 1.289063,-2.265625 0.185922,-0.732018 0.23759,-1.487116 0.15625,-2.265625 -0.08134,-0.77851 -0.266159,-1.481925 -0.556641,-2.109375 -0.290479,-0.627451 -0.622317,-1.219612 -0.99414,-1.777344 -0.371823,-0.557735 -0.707661,-0.998874 -1.009766,-1.324219 -0.302105,-0.325343 -0.54651,-0.557832 -0.732422,-0.697265 0.162671,0.441538 0.220298,0.91843 0.173828,1.429687 -0.04648,0.511255 -0.161747,0.97623 -0.347656,1.394531 -0.06972,-0.697169 -0.27436,-1.394631 -0.611328,-2.091796 C 58.223576,12.45127 57.863904,11.87504 57.480469,11.421875 57.097031,10.968711 56.655892,10.533522 56.15625,10.115234 55.656607,9.696947 55.312865,9.424697 55.126953,9.296875 54.941045,9.169056 54.790024,9.069715 54.673828,9 Z" clip-rule="nonzero" color="#000" color-interpolation="sRGB" color-interpolation-filters="linearRGB" color-rendering="auto" display="inline" enable-background="accumulate" image-rendering="auto" opacity=".15" overflow="visible" shape-rendering="auto" text-rendering="auto" visibility="visible" style="isolation:auto;mix-blend-mode:normal;solid-color:#000;solid-opacity:1;marker:none"/><path id="path4190-3" fill="url(#linearGradient901)" fill-opacity="1" fill-rule="nonzero" stroke="none" stroke-dasharray="none" stroke-dashoffset="0" stroke-linecap="butt" stroke-linejoin="miter" stroke-miterlimit="4" stroke-opacity="1" stroke-width="1" d="m 54.673828,8 c -0.06972,2.904862 -0.987748,5.45031 -2.753906,7.634766 -0.06972,-0.85984 -0.336002,-1.720239 -0.800781,-2.580078 -0.04648,0.650689 -0.308756,1.517041 -0.785157,2.597656 -0.476405,1.080615 -0.772478,1.863547 -0.888672,2.351562 -0.255627,1.231664 -0.110573,2.312633 0.435547,3.242188 0.546121,0.929555 1.621128,1.847588 3.22461,2.753906 2.425686,0.945027 3.362158,0.989922 5.36914,0 1.138718,-0.650688 2.044836,-1.366021 2.71875,-2.144531 0.673917,-0.77851 1.10314,-1.533605 1.289063,-2.265625 0.185922,-0.732018 0.23759,-1.487116 0.15625,-2.265625 -0.08134,-0.77851 -0.266159,-1.481925 -0.556641,-2.109375 -0.290479,-0.627451 -0.622317,-1.219612 -0.99414,-1.777344 -0.371823,-0.557735 -0.707661,-0.998874 -1.009766,-1.324219 -0.302105,-0.325343 -0.54651,-0.557832 -0.732422,-0.697265 0.162671,0.441538 0.220298,0.91843 0.173828,1.429687 -0.04648,0.511255 -0.161747,0.97623 -0.347656,1.394531 -0.06972,-0.697169 -0.27436,-1.394631 -0.611328,-2.091796 C 58.223576,11.45127 57.863904,10.87504 57.480469,10.421875 57.097031,9.9687106 56.655892,9.5335217 56.15625,9.1152344 55.656607,8.6969472 55.312865,8.4246969 55.126953,8.296875 54.941045,8.1690559 54.790024,8.069715 54.673828,8 Z" clip-rule="nonzero" color="#000" color-interpolation="sRGB" color-interpolation-filters="linearRGB" color-rendering="auto" display="inline" enable-background="accumulate" image-rendering="auto" opacity="1" overflow="visible" shape-rendering="auto" text-rendering="auto" visibility="visible" style="isolation:auto;mix-blend-mode:normal;solid-color:#000;solid-opacity:1;marker:none"/><path clip-rule="nonzero" style="isolation:auto;mix-blend-mode:normal;solid-color:#000;solid-opacity:1;marker:none" id="path913" fill="none" fill-opacity="1" fill-rule="nonzero" stroke="#ba8234" stroke-dasharray="none" stroke-dashoffset="0" stroke-linecap="butt" stroke-linejoin="round" stroke-miterlimit="4" stroke-opacity=".273" stroke-width="2" d="m 18.473944,23.999999 c 0.766883,-1.533769 0.917936,-3.189543 0.453157,-4.967323 -0.464779,-1.777783 -1.382716,-3.143072 -2.75381,-4.095867 0.116194,0.511257 0.05229,1.35367 -0.191728,2.527241 -0.244016,1.17357 -0.633265,2.062461 -1.167748,2.666674 0.09296,-0.743647 0.116197,-1.34786 0.06972,-1.812639 -0.04648,-0.464776 -0.116197,-0.813358 -0.20915,-1.045747 l -0.17429,-0.313724 c -0.139434,0.836599 -0.499637,1.673199 -1.08061,2.509798 -0.302105,0.441541 -0.528687,0.848222 -0.679747,1.220043 -0.151059,0.371823 -0.209157,0.848221 -0.174294,1.429194 0.03487,0.580972 0.214965,1.208422 0.540296,1.882351 0,0 0.918831,0.75 1.942922,0.75 2.482588,0 2.59525,-0.275689 3.425282,-0.750001 z" clip-path="url(#clipPath919)" color="#000" color-interpolation="sRGB" color-interpolation-filters="linearRGB" color-rendering="auto" display="inline" enable-background="accumulate" image-rendering="auto" opacity="1" overflow="visible" shape-rendering="auto" text-rendering="auto" transform="translate(40)" visibility="visible"/><path id="path4485" fill="none" fill-opacity="1" fill-rule="nonzero" stroke="url(#linearGradient4483)" stroke-dasharray="none" stroke-dashoffset="0" stroke-linecap="butt" stroke-linejoin="miter" stroke-miterlimit="4" stroke-opacity="1" stroke-width="1" d="m 59.554688,22.388672 c 0.384845,-0.311913 0.896509,-0.600302 1.18164,-0.929688 0.630395,-0.728232 1.004502,-1.404732 1.160156,-2.017578 0.168061,-0.661691 0.21501,-1.342762 0.140625,-2.054687 C 61.9617,16.66498 61.79235,16.028514 61.533203,15.46875 61.255562,14.869029 60.93832,14.304939 60.583984,13.773438 c -0.194023,-0.291036 -0.342557,-0.452695 -0.511718,-0.671876 -0.06254,0.487885 -0.159231,0.960805 -0.347657,1.384766 -0.253548,0.564285 -1.090364,0.429772 -1.154297,-0.185547 -0.06203,-0.620246 -0.244768,-1.247469 -0.554687,-1.888672 C 57.695225,11.749225 57.358143,11.215 57.017578,10.8125 56.65858,10.38822 56.243234,9.9782846 55.767578,9.5800781 55.467689,9.329019 55.348668,9.2430318 55.169922,9.1035156 54.912328,11.68112 54.008741,14.014273 52.390625,16.015625 c -0.343704,0.425244 -1.030415,0.212988 -1.074219,-0.332031 -0.0159,-0.196052 -0.146584,-0.400385 -0.185547,-0.597656 -0.107542,0.290212 -0.09982,0.487611 -0.242187,0.810546 -0.468157,1.061906 -0.754005,1.832278 -0.851563,2.238282 -0.229609,1.1141 -0.09959,2.013505 0.365235,2.804687 0.30008,0.510768 0.915863,1.066721 1.679687,1.632813" clip-rule="nonzero" color="#000" color-interpolation="sRGB" color-interpolation-filters="linearRGB" color-rendering="auto" display="inline" enable-background="new" image-rendering="auto" opacity=".6" overflow="visible" shape-rendering="auto" text-rendering="auto" visibility="visible" style="isolation:auto;mix-blend-mode:normal;solid-color:#000;solid-opacity:1;marker:none"/><path id="path881" fill="url(#linearGradient3133-5)" fill-opacity="1" fill-rule="nonzero" stroke="none" stroke-dasharray="none" stroke-dashoffset="0" stroke-linecap="butt" stroke-linejoin="miter" stroke-miterlimit="4" stroke-opacity="1" stroke-width="1" d="m 58.473944,23.999999 c 0.766883,-1.533769 0.917936,-3.189543 0.453157,-4.967323 -0.464779,-1.777783 -1.382716,-3.143072 -2.75381,-4.095867 0.116194,0.511257 0.05229,1.35367 -0.191728,2.527241 -0.244016,1.17357 -0.633265,2.062461 -1.167748,2.666674 0.09296,-0.743647 0.116197,-1.34786 0.06972,-1.812639 -0.04648,-0.464776 -0.116197,-0.813358 -0.20915,-1.045747 l -0.17429,-0.313724 c -0.139434,0.836599 -0.499637,1.673199 -1.08061,2.509798 -0.302105,0.441541 -0.528687,0.848222 -0.679747,1.220043 -0.151059,0.371823 -0.209157,0.848221 -0.174294,1.429194 0.03487,0.580972 0.214965,1.208422 0.540296,1.882351 0,0 0.918831,0.75 1.942922,0.75 2.482588,0 2.59525,-0.275689 3.425282,-0.750001 z" clip-rule="nonzero" color="#000" color-interpolation="sRGB" color-interpolation-filters="linearRGB" color-rendering="auto" display="inline" enable-background="accumulate" image-rendering="auto" opacity="1" overflow="visible" shape-rendering="auto" text-rendering="auto" visibility="visible" style="isolation:auto;mix-blend-mode:normal;solid-color:#000;solid-opacity:1;marker:none"/><path id="path937" fill="none" fill-opacity="1" fill-rule="nonzero" stroke="url(#linearGradient955)" stroke-dasharray="none" stroke-dashoffset="0" stroke-linecap="butt" stroke-linejoin="round" stroke-miterlimit="4" stroke-opacity=".273" stroke-width="2" d="m 18.473944,23.999999 c 0.766883,-1.533769 0.917936,-3.189543 0.453157,-4.967323 -0.464779,-1.777783 -1.382716,-3.143072 -2.75381,-4.095867 0.116194,0.511257 0.05229,1.35367 -0.191728,2.527241 -0.244016,1.17357 -0.633265,2.062461 -1.167748,2.666674 0.09296,-0.743647 0.116197,-1.34786 0.06972,-1.812639 -0.04648,-0.464776 -0.116197,-0.813358 -0.20915,-1.045747 l -0.17429,-0.313724 c -0.139434,0.836599 -0.499637,1.673199 -1.08061,2.509798 -0.302105,0.441541 -0.528687,0.848222 -0.679747,1.220043 -0.151059,0.371823 -0.209157,0.848221 -0.174294,1.429194 0.03487,0.580972 0.214965,1.208422 0.540296,1.882351 0,0 0.918831,0.75 1.942922,0.75 2.482588,0 2.59525,-0.275689 3.425282,-0.750001 z" clip-path="url(#clipPath943)" clip-rule="nonzero" color="#000" color-interpolation="sRGB" color-interpolation-filters="linearRGB" color-rendering="auto" display="inline" enable-background="accumulate" image-rendering="auto" opacity="1" overflow="visible" shape-rendering="auto" text-rendering="auto" transform="translate(40)" visibility="visible" style="isolation:auto;mix-blend-mode:normal;solid-color:#000;solid-opacity:1;marker:none"/></g></svg>