<svg xmlns="http://www.w3.org/2000/svg" xmlns:svg="http://www.w3.org/2000/svg" xmlns:xlink="http://www.w3.org/1999/xlink" id="svg2" width="32" height="32" version="1.1"><defs id="defs4"><linearGradient id="linearGradient6307"><stop id="stop6309" offset="0" stop-color="#c00" stop-opacity="1"/><stop id="stop6311" offset="1" stop-color="#c00" stop-opacity="0"/></linearGradient><linearGradient id="linearGradient4610" x1="16.806" x2="16.806" y1="20.62" y2="42.728" gradientTransform="matrix(1.063476,0,0,1.2484285,-1.362135,-24.54288)" gradientUnits="userSpaceOnUse" xlink:href="#linearGradient4035"/><linearGradient id="linearGradient4035"><stop id="stop4037" offset="0" stop-color="#fff" stop-opacity="1"/><stop id="stop4039" offset=".056" stop-color="#fff" stop-opacity=".235"/><stop id="stop4041" offset=".944" stop-color="#fff" stop-opacity=".157"/><stop id="stop4043" offset="1" stop-color="#fff" stop-opacity=".392"/></linearGradient><linearGradient id="linearGradient3688-166-749-654"><stop id="stop3088" offset="0" stop-color="#181818" stop-opacity="1"/><stop id="stop3090" offset="1" stop-color="#181818" stop-opacity="0"/></linearGradient><linearGradient id="linearGradient3688-464-309-604"><stop id="stop3094" offset="0" stop-color="#181818" stop-opacity="1"/><stop id="stop3096" offset="1" stop-color="#181818" stop-opacity="0"/></linearGradient><linearGradient id="linearGradient3702-501-757-795"><stop id="stop3100" offset="0" stop-color="#181818" stop-opacity="0"/><stop id="stop3102" offset=".5" stop-color="#181818" stop-opacity="1"/><stop id="stop3104" offset="1" stop-color="#181818" stop-opacity="0"/></linearGradient><linearGradient id="linearGradient4899" x1="33" x2="33" y1="988.362" y2="1048.362" gradientTransform="matrix(0.49019607,0,0,0.49152542,-0.17647063,-485.55087)" gradientUnits="userSpaceOnUse" xlink:href="#linearGradient3994-617-9-9"/><linearGradient id="linearGradient2867-449-88-871-390-598-476-591-434-148-57-177-8-3-3-6-4-8-8-8-5-7"><stop id="stop3750-1-0-7-6-6-1-3-9-3-9" offset="0" stop-color="#505050" stop-opacity="1"/><stop id="stop3752-3-7-4-0-32-8-923-0-7-0" offset=".262" stop-color="#2b2b2b" stop-opacity="1"/><stop id="stop3754-1-8-5-2-7-6-7-1-9-1" offset=".705" stop-color="#0a0a0a" stop-opacity="1"/><stop id="stop3756-1-6-2-6-6-1-96-6-0-1" offset="1" stop-color="#000" stop-opacity="1"/></linearGradient><radialGradient id="radialGradient5299" cx="7.118" cy="9.957" r="12.672" fx="7.118" fy="9.957" gradientTransform="matrix(0,5.3904009,-5.4667878,0,70.838273,-45.67712)" gradientUnits="userSpaceOnUse" xlink:href="#linearGradient2867-449-88-871-390-598-476-591-434-148-57-177-8-3-3-6-4-8-8-8-5-7"/><linearGradient id="linearGradient6426" x1="33" x2="33" y1="1045.362" y2="991.362" gradientTransform="matrix(0.46666667,0,0,0.47169811,0.60000006,-465.35945)" gradientUnits="userSpaceOnUse" xlink:href="#linearGradient4035"/><linearGradient id="linearGradient3994-617-9-9"><stop id="stop4324-9-7" offset="0" stop-color="#f0f0f0" stop-opacity="1"/><stop id="stop2860-4-4" offset=".086" stop-color="#d7d7d8" stop-opacity="1"/><stop id="stop2862-5-9" offset=".922" stop-color="#b2b2b3" stop-opacity="1"/><stop id="stop4326-1-1" offset="1" stop-color="#979798" stop-opacity="1"/></linearGradient><linearGradient id="linearGradient3559" x1="25.058" x2="25.058" y1="47.028" y2="39.999" gradientTransform="matrix(0.71428574,0,0,0.42857137,-1.1904699,1031.2194)" gradientUnits="userSpaceOnUse" xlink:href="#linearGradient3702-501-757-795"/><radialGradient id="radialGradient3562" cx="4.993" cy="43.5" r="2.5" fx="4.993" fy="43.5" gradientTransform="matrix(1.5819375,0,0,0.59999997,-13.851497,-1075.9623)" gradientUnits="userSpaceOnUse" xlink:href="#linearGradient3688-464-309-604"/><radialGradient id="radialGradient3565" cx="4.996" cy="43.5" r="2.5" fx="4.996" fy="43.5" gradientTransform="matrix(1.6030271,1.5809435e-7,-4.1092973e-8,0.60000462,17.990504,1023.6787)" gradientUnits="userSpaceOnUse" xlink:href="#linearGradient3688-166-749-654"/><linearGradient id="linearGradient3600-4"><stop id="stop3602-7" offset="0" stop-color="#f4f4f4" stop-opacity="1"/><stop id="stop3604-6" offset="1" stop-color="#dbdbdb" stop-opacity="1"/></linearGradient><linearGradient id="linearGradient3977"><stop id="stop3979" offset="0" stop-color="#fff" stop-opacity="1"/><stop id="stop3981" offset=".036" stop-color="#fff" stop-opacity=".235"/><stop id="stop3983" offset=".951" stop-color="#fff" stop-opacity=".157"/><stop id="stop3985" offset="1" stop-color="#fff" stop-opacity=".392"/></linearGradient><linearGradient id="linearGradient4772" x1="24" x2="24" y1="5.564" y2="43" gradientTransform="matrix(0.3513511,0,0,0.45945944,7.5670631,3.9743)" gradientUnits="userSpaceOnUse" xlink:href="#linearGradient3977"/><linearGradient id="linearGradient4775" x1="25.132" x2="25.132" y1=".985" y2="47.013" gradientTransform="matrix(0.39999906,0,0,0.39111142,6.4000223,5.0145)" gradientUnits="userSpaceOnUse" xlink:href="#linearGradient3600-4"/><linearGradient id="linearGradient4781" x1="32" x2="32" y1="1017.87" y2="1015.362" gradientTransform="matrix(0.45454545,0,0,1,1,21.999931)" gradientUnits="userSpaceOnUse" spreadMethod="reflect" xlink:href="#linearGradient6307"/><linearGradient id="linearGradient3031" x1="22.004" x2="22.004" y1="47.813" y2="3.364" gradientTransform="matrix(0.48571482,0,0,0.477213,2.694404,2.6384316)" gradientUnits="userSpaceOnUse" xlink:href="#linearGradient3104-5"/><linearGradient id="linearGradient3104-5"><stop id="stop3106-2" offset="0" stop-color="#aaa" stop-opacity="1"/><stop id="stop3108-5" offset="1" stop-color="#c8c8c8" stop-opacity="1"/></linearGradient></defs><metadata id="metadata7"/><g id="g3567" transform="translate(0,-1020.3622)"><rect id="rect2801" width="4" height="3" x="26" y="1048.279" fill="url(#radialGradient3565)" fill-opacity="1" stroke="none" opacity=".4"/><rect id="rect3696" width="4" height="3" x="-6" y="-1051.362" fill="url(#radialGradient3562)" fill-opacity="1" stroke="none" opacity=".4" transform="scale(-1)"/><rect id="rect3700" width="20" height="3" x="6" y="1048.362" fill="url(#linearGradient3559)" fill-opacity="1" stroke="none" opacity=".4"/></g><rect id="rect4897" width="25" height="29" x="3.5" y=".5" fill="url(#linearGradient4899)" stroke="none" rx="2" ry="2"/><rect id="rect6410" width="21" height="25" x="5.5" y="2.5" fill="none" stroke="url(#linearGradient6426)" stroke-opacity="1" stroke-width="1" opacity=".35" rx="1" ry="1"/><rect id="rect3993" width="25" height="29" x="3.5" y=".5" fill="none" stroke="#000" stroke-opacity="1" stroke-width="1" opacity=".4" rx="2" ry="2"/><rect id="rect6741-5-0-2-3" width="23" height="27" x="4.5" y="1.5" fill="none" stroke="url(#linearGradient4610)" stroke-dasharray="none" stroke-dashoffset="0" stroke-linecap="round" stroke-linejoin="round" stroke-miterlimit="4" stroke-opacity="1" stroke-width="1" rx="1" ry="1"/><rect id="rect5505-21-3-8-5-2" width="19" height="23" x="6.5" y="3.5" fill="url(#radialGradient5299)" fill-opacity="1" fill-rule="nonzero" stroke="none" stroke-width="1" color="#000" display="inline" enable-background="accumulate" opacity=".9" overflow="visible" visibility="visible" style="marker:none"/><path id="path4160-3" fill="url(#linearGradient4775)" fill-opacity="1" stroke="none" d="m 9,6.0011 c 3.208111,0 13.999983,0 13.999983,0 L 23,24 C 23,24 13.666668,24 9,24 9,17.9999 9,12.0001 9,6 Z" display="inline"/><path id="rect6741-1" fill="none" stroke="url(#linearGradient4772)" stroke-dasharray="none" stroke-dashoffset="0" stroke-linecap="round" stroke-linejoin="miter" stroke-miterlimit="4" stroke-opacity="1" stroke-width="1" d="M 22.500001,23.5013 H 9.5000011 v -17 H 22.500001 Z"/><path id="path3475" fill="none" stroke="url(#linearGradient3031)" stroke-linecap="butt" stroke-linejoin="miter" stroke-opacity="1" stroke-width="1" d="m 10,8.4652296 h 2.475897 z m 2.627683,0 h 0.409822 z m 0.576786,0 h 0.910715 z m 1.092859,0 h 2.398216 z m 2.550002,0 h 1.83661 z m 1.988395,0 h 0.561608 z M 10,10.457778 h 3.113398 z m 3.265184,0 h 1.199108 z m 1.350894,0 h 1.123215 z m 1.275001,0 h 0.956251 z m 1.108037,0 1.50268,0.01491 z m 1.639288,0.01491 h 2.443752 z M 10,12.465234 h 2.885719 z m 0,1.992545 h 3.113398 z m 3.265184,0 h 1.199108 z m 1.350894,0 h 1.123215 z m 1.275001,0 h 0.956251 z m 1.108037,0 1.50268,0.01491 z m 1.639288,0.01491 h 2.443752 z M 10,16.465234 h 3.492862 z m 3.644648,0 h 0.895537 z m 1.047323,0 h 2.109824 z m 2.246431,0 h 1.441966 z m 1.60893,0 h 0.576787 z m 0.728572,0 h 0.318751 z m 0.485715,0 h 0.895537 z M 10,19.457779 h 3.113398 z m 3.265184,0 h 1.199108 z m 1.350894,0 h 1.123215 z m 1.275001,0 h 0.956251 z m 1.108037,0 1.50268,0.01491 z m 1.639288,0.01491 h 2.443752 z M 10,21.465234 h 1.641075 z m 1.792861,0 h 1.350894 z m 1.50268,0 h 1.988395 z m 2.155359,0 h 1.350895 z m 1.487502,0 h 0.288393 z m 0.440179,0 h 1.71518 z m 1.897323,0 h 0.895537 z"/><path id="path4160-3-1" fill="none" stroke="#000" stroke-dasharray="none" stroke-dashoffset="0" stroke-linecap="butt" stroke-linejoin="round" stroke-miterlimit="4" stroke-opacity="1" stroke-width="1" d="m 8.4999606,5.5012 c 3.4372794,0 15.0000594,0 15.0000594,0 l 1.8e-5,18.9988 c 0,0 -10.000051,0 -15.0000774,0 0,-6.3333 0,-12.6667 0,-19.0001 z" display="inline" opacity=".3"/><g id="g4777" transform="translate(0,-1022.3621)"><rect id="rect5537" width="20" height="5" x="6" y="1037.362" fill="url(#linearGradient4781)" fill-opacity="1" stroke="none" opacity=".8"/><rect id="rect3099" width="20" height="1" x="6" y="1039.362" fill="#fff" fill-opacity="1" stroke="none" opacity=".8"/></g><rect id="rect4935" width="19" height="23" x="6.5" y="3.5" fill="none" stroke="#000" stroke-linejoin="round" stroke-opacity="1" stroke-width="1" opacity=".7"/></svg>