<svg xmlns="http://www.w3.org/2000/svg" xmlns:svg="http://www.w3.org/2000/svg" xmlns:xlink="http://www.w3.org/1999/xlink" id="svg3767" width="128" height="128" version="1.1"><defs id="defs3769"><linearGradient id="linearGradient4011"><stop id="stop4013" offset="0" stop-color="#fff" stop-opacity="1"/><stop id="stop4015" offset=".508" stop-color="#fff" stop-opacity=".235"/><stop id="stop4017" offset=".835" stop-color="#fff" stop-opacity=".157"/><stop id="stop4019" offset="1" stop-color="#fff" stop-opacity=".392"/></linearGradient><radialGradient id="radialGradient3163" cx="99.157" cy="186.171" r="62.769" fx="99.157" fy="186.171" gradientTransform="matrix(0.6869404,0,0,0.21461693,-4.02174,68.573331)" gradientUnits="userSpaceOnUse" xlink:href="#linearGradient3820-7-2-8-6"/><linearGradient id="linearGradient3820-7-2-8-6"><stop id="stop3822-2-6-5-0" offset="0" stop-color="#3d3d3d" stop-opacity="1"/><stop id="stop3864-8-7-4-1" offset=".5" stop-color="#686868" stop-opacity=".498"/><stop id="stop3824-1-2-6-7" offset="1" stop-color="#686868" stop-opacity="0"/></linearGradient><linearGradient id="linearGradient12398-3" x1="71.204" x2="71.204" y1="6.238" y2="44.341" gradientTransform="matrix(2.756758,0,0,2.7567581,-133.25196,-3.4037532)" gradientUnits="userSpaceOnUse" xlink:href="#linearGradient4011"/><linearGradient id="linearGradient11527-6-5-3" x1="2035.165" x2="2035.165" y1="3208.074" y2="3241.997" gradientTransform="matrix(3.9856238,0,0,2.9796368,-8061.465,-9541.5171)" gradientUnits="userSpaceOnUse" xlink:href="#linearGradient840"/><linearGradient id="linearGradient840"><stop id="stop836" offset="0" stop-color="#ffe16b" stop-opacity="1"/><stop id="stop838" offset="1" stop-color="#f9c440" stop-opacity="1"/></linearGradient></defs><metadata id="metadata3772"/><path id="path3818-0-5-0" fill="url(#radialGradient3163)" fill-opacity="1" stroke="none" d="m 107.21186,108.52868 a 43.118644,13.471312 0 1 1 -86.237286,0 43.118644,13.471312 0 1 1 86.237286,0 z"/><path id="path2555-7-8-5-0-9-5" fill="url(#linearGradient11527-6-5-3)" fill-opacity="1" fill-rule="nonzero" stroke="none" stroke-width="1.952" d="M 64.499995,14.499998 C 35.808172,14.499998 12.5,37.808182 12.5,66.499999 12.5,95.191816 35.808172,118.5 64.499995,118.5 93.191814,118.5 116.50005,95.191816 116.5,66.499999 116.5,37.808182 93.191814,14.499998 64.499995,14.499998 Z" color="#000" display="inline" enable-background="accumulate" opacity=".99" overflow="visible" visibility="visible" style="marker:none"/><path id="path8655-6-0-9-5-0" fill="none" stroke="url(#linearGradient12398-3)" stroke-dasharray="none" stroke-dashoffset="0" stroke-linecap="round" stroke-linejoin="round" stroke-miterlimit="4" stroke-opacity="1" stroke-width="1" d="m 115.5,66.498172 c 0,28.167477 -22.835193,51.001848 -50.99938,51.001848 -28.166783,0 -51.000617,-22.834639 -51.000617,-51.001848 0,-28.166134 22.833834,-50.998201 51.000617,-50.998201 28.164187,0 50.99938,22.832067 50.99938,50.998201 z" color="#000" display="inline" enable-background="accumulate" opacity=".5" overflow="visible" visibility="visible" style="marker:none"/><path id="path2555-4" fill="none" fill-opacity="1" fill-rule="nonzero" stroke="#ad5f00" stroke-dasharray="none" stroke-dashoffset="0" stroke-linecap="round" stroke-linejoin="round" stroke-miterlimit="4" stroke-opacity="1" stroke-width="1" d="M 64.50001,14.499989 C 35.808202,14.499989 12.5,37.808184 12.5,66.499992 12.5,95.191799 35.808202,118.5 64.50001,118.5 93.191814,118.5 116.50003,95.191799 116.5,66.499992 116.5,37.808184 93.191814,14.499988 64.50001,14.499989 Z" clip-rule="nonzero" color="#000" color-interpolation="sRGB" color-interpolation-filters="linearRGB" color-rendering="auto" display="inline" enable-background="accumulate" image-rendering="auto" opacity=".4" overflow="visible" shape-rendering="auto" text-rendering="auto" vector-effect="none" visibility="visible" style="marker:none;isolation:auto;mix-blend-mode:normal;solid-color:#000;solid-opacity:1;filter-blend-mode:normal;filter-gaussianBlur-deviation:0;font-variation-settings:normal;font-variant-east_asian:normal"/><path id="path3172-3" fill="#fff" fill-opacity="1" fill-rule="nonzero" stroke="none" stroke-dasharray="none" stroke-dashoffset="0" stroke-linecap="butt" stroke-linejoin="miter" stroke-miterlimit="4" stroke-opacity="1" stroke-width="1" d="M 75.076272,37.534376 49,75.000474 H 64 L 53.92373,100.992 80,64.000474 H 68 Z" display="inline" enable-background="accumulate" opacity=".4" overflow="visible" vector-effect="none" visibility="visible" style="marker:none"/><path id="path3172" fill="#333" fill-opacity="1" fill-rule="nonzero" stroke="none" stroke-width="1" d="M 75.076272,36.533902 49,74 H 64 L 53.92373,99.991526 80,63 H 68 Z" display="inline" enable-background="accumulate" overflow="visible" visibility="visible" style="marker:none"/></svg>