<svg xmlns="http://www.w3.org/2000/svg" xmlns:svg="http://www.w3.org/2000/svg" xmlns:xlink="http://www.w3.org/1999/xlink" id="svg22774" width="64" height="64" version="1.1"><defs id="defs22776"><linearGradient id="linearGradient1096"><stop id="stop1088" offset="0" stop-color="#fff" stop-opacity="1"/><stop id="stop1090" offset="0" stop-color="#fff" stop-opacity=".235"/><stop id="stop1092" offset="1" stop-color="#fff" stop-opacity=".157"/><stop id="stop1094" offset="1" stop-color="#fff" stop-opacity=".392"/></linearGradient><linearGradient id="linearGradient960"><stop id="stop956" offset="0" stop-color="#fafafa" stop-opacity="1"/><stop id="stop958" offset="1" stop-color="#d4d4d4" stop-opacity="1"/></linearGradient><linearGradient id="linearGradient5954" x1="44.656" x2="44.656" y1="44" y2="119.974" gradientTransform="matrix(0.50413225,0,0,0.40000048,6.163637,9.882892)" gradientUnits="userSpaceOnUse" xlink:href="#linearGradient4632-0-6-4-4-4"/><linearGradient id="linearGradient4632-0-6-4-4-4"><stop id="stop4634-4-4-7-4" offset="0" stop-color="#efdfc4" stop-opacity="1"/><stop id="stop4636-3-1-5-9" offset="1" stop-color="#e7c591" stop-opacity="1"/></linearGradient><radialGradient id="radialGradient5950" cx="605.714" cy="486.648" r="117.143" fx="605.714" fy="486.648" gradientTransform="matrix(-0.04016195,0,0,0.0329426,30.204677,40.92132)" gradientUnits="userSpaceOnUse" xlink:href="#linearGradient5060-820-8"/><linearGradient id="linearGradient5060-820-8"><stop id="stop2681-37" offset="0" stop-color="#000" stop-opacity="1"/><stop id="stop2683-05" offset="1" stop-color="#000" stop-opacity="0"/></linearGradient><linearGradient id="linearGradient5946" x1="302.857" x2="302.857" y1="366.648" y2="609.505" gradientTransform="matrix(0.1076923,0,0,0.03294117,-6.9224153,40.92219)" gradientUnits="userSpaceOnUse" xlink:href="#linearGradient5048-585-1"/><linearGradient id="linearGradient5048-585-1"><stop id="stop2667-0" offset="0" stop-color="#000" stop-opacity="0"/><stop id="stop2669-91" offset=".5" stop-color="#000" stop-opacity="1"/><stop id="stop2671-6" offset="1" stop-color="#000" stop-opacity="0"/></linearGradient><radialGradient id="radialGradient5942" cx="605.714" cy="486.648" r="117.143" fx="605.714" fy="486.648" gradientTransform="matrix(0.04016195,0,0,0.0329426,33.796647,40.92132)" gradientUnits="userSpaceOnUse" xlink:href="#linearGradient5060-820-8"/><linearGradient id="linearGradient22772" x1="62.989" x2="62.989" y1="20.326" y2="22.652" gradientTransform="matrix(1.3135526,0,0,1.2900554,-55.484955,-1.2218597)" gradientUnits="userSpaceOnUse" xlink:href="#linearGradient960"/><linearGradient id="linearGradient1086" x1="97.447" x2="97.539" y1="11.693" y2="44.028" gradientTransform="matrix(1.3210282,0,0,1.2679796,-70.729885,0.17381034)" gradientUnits="userSpaceOnUse" xlink:href="#linearGradient1096"/><linearGradient id="linearGradient4191" x1="27.335" x2="27.335" y1="-9.88" y2="21.229" gradientTransform="matrix(0.89186139,0,0,0.86792712,4.093162,37.575122)" gradientUnits="userSpaceOnUse" xlink:href="#34542"/><linearGradient id="34542"><stop id="stop3456-4-9-38-1-8" offset="0" stop-color="#fff" stop-opacity="1"/><stop id="stop3458-39-80-3-5-5" offset=".003" stop-color="#fff" stop-opacity=".235"/><stop id="stop3460-7-0-2-4-2" offset=".99" stop-color="#fff" stop-opacity=".157"/><stop id="stop3462-0-9-8-7-2" offset="1" stop-color="#fff" stop-opacity=".392"/></linearGradient></defs><metadata id="metadata22779"/><path id="rect878" fill="url(#linearGradient22772)" fill-opacity="1" stroke="none" stroke-dasharray="none" stroke-dashoffset="0" stroke-linecap="butt" stroke-linejoin="miter" stroke-miterlimit="4" stroke-opacity="1" stroke-width="1" d="M 7.75,10 C 7.3345,10 7,10.3345 7,10.75 V 14 H 4.75 C 4.3345,14 4,14.3345 4,14.75 v 14.5 C 4,29.6655 4.3345,30 4.75,30 h 54.5 C 59.6655,30 60,29.6655 60,29.25 V 14.75 C 60,14.3345 59.6655,14 59.25,14 H 28 V 10.75 C 28,10.3345 27.6655,10 27.25,10 Z" opacity="1" vector-effect="none" style="marker:none"/><path id="rect878-6" fill="none" fill-opacity="1" stroke="#7e8087" stroke-dasharray="none" stroke-dashoffset="0" stroke-linecap="square" stroke-linejoin="miter" stroke-miterlimit="4" stroke-opacity="1" stroke-width=".992" d="m 7.9960938,9.5039061 c -0.8310001,0 -1.5,0.6689999 -1.5,1.4999999 v 2.492188 h -1.5 c -0.831,0 -1.5,0.669 -1.5,1.5 V 29.003906 H 60.503906 V 14.996094 c 0,-0.831 -0.669,-1.5 -1.5,-1.5 h -30.5 v -2.492188 c 0,-0.831 -0.669,-1.4999999 -1.5,-1.4999999 z" opacity=".5" vector-effect="none"/><path id="rect962" fill="none" fill-opacity="1" stroke="url(#linearGradient1086)" stroke-dasharray="none" stroke-dashoffset="0" stroke-linecap="round" stroke-linejoin="round" stroke-miterlimit="4" stroke-opacity="1" stroke-width="1" d="m 8,10.5 c -0.277,0 -0.5,0.223 -0.5,0.5 v 3.5 H 5 c -0.277,0 -0.5,0.223 -0.5,0.5 v 13 h 55 V 15 c 0,-0.277 -0.223,-0.5 -0.5,-0.5 H 27.5 V 11 c 0,-0.277 -0.223,-0.5 -0.5,-0.5 z" opacity="1" vector-effect="none" style="marker:none;font-variant-east_asian:normal"/><path id="path3411" fill="url(#radialGradient5942)" fill-opacity="1" fill-rule="nonzero" stroke="none" stroke-width="1" d="m 58.000667,52.99993 c 0,0 0,7.99991 0,7.99991 2.06824,0.0151 5,-1.79238 5,-4.00047 0,-2.2081 -2.308,-3.99944 -5,-3.99944 z" display="inline" opacity=".3" overflow="visible" visibility="visible" style="marker:none"/><rect id="rect4173-14" width="52" height="8" x="6.001" y="53" fill="url(#linearGradient5946)" fill-opacity="1" fill-rule="nonzero" stroke="none" stroke-width="1" display="inline" opacity=".3" overflow="visible" visibility="visible" style="marker:none"/><path id="path5018-7" fill="url(#radialGradient5950)" fill-opacity="1" fill-rule="nonzero" stroke="none" stroke-width="1" d="m 6.0006657,52.99993 c 0,0 0,7.99991 0,7.99991 -2.06825,0.0151 -5,-1.79238 -5,-4.00047 0,-2.2081 2.308,-3.99944 5,-3.99944 z" display="inline" opacity=".3" overflow="visible" visibility="visible" style="marker:none"/><path stroke-opacity=".498" style="marker:none;font-variant-east_asian:normal" id="path4181" fill="url(#linearGradient5954)" fill-opacity="1" fill-rule="nonzero" stroke="#987124" stroke-dasharray="none" stroke-dashoffset="0" stroke-linecap="butt" stroke-linejoin="miter" stroke-miterlimit="4" stroke-width="1" d="m 0.472422,28.000092 3,29 c 0,0 0,0.5 0.5,0.5 h 56 c 0.5,0 0.5,-0.5 0.5,-0.5 l 3.05304,-29.00049 c 0.04852,-0.49951 -0.55304,-0.49951 -0.55304,-0.49951 h -62 c -0.5,0 -0.5,0.5 -0.5,0.5 z" color="#000" display="inline" enable-background="accumulate" opacity="1" overflow="visible" vector-effect="none" visibility="visible"/><path id="path4183" fill="none" stroke="url(#linearGradient4191)" stroke-dasharray="none" stroke-dashoffset="0" stroke-linecap="round" stroke-linejoin="miter" stroke-miterlimit="4" stroke-opacity="1" stroke-width="1" d="m 1.472422,28.500092 2.9315,27.9845 55.13702,0.031 2.93148,-28.0155 z" color="#000" display="inline" enable-background="accumulate" opacity=".5" overflow="visible" visibility="visible" style="marker:none"/><g id="g9648" fill="#fff" fill-opacity="1" fill-rule="nonzero" stroke="none" stroke-width="2.082" color="#000" display="inline" opacity=".3" transform="matrix(1.4992304,0,0,0.99948694,18.1238,37.16665)" visibility="visible" style="marker:none"><path id="path9646" fill="#fff" fill-opacity="1" fill-rule="nonzero" stroke="none" stroke-width="2.082" d="M 14.709126,0 6.5252041,1.90625 C 5.9420462,2.0546939 5.4471092,2.6464802 5.4725726,3.21875 l 0.404631,9.09375 C 5.2858656,12.018344 4.5264079,11.899398 3.7390459,12.09375 2.3182421,12.444461 1.4279045,13.577902 1.7324671,14.625 2.0370297,15.672098 3.436663,16.256961 4.8574668,15.90625 5.9909757,15.626455 6.4629807,14.842009 6.5875947,14.007207 L 6.1829637,5.3360911 14.614327,3.3350644 14.298255,10.3125 c -0.591338,-0.294156 -1.350795,-0.4131024 -2.138157,-0.21875 -1.420804,0.350711 -2.3111415,1.484152 -2.006579,2.53125 0.304563,1.047098 1.704195,1.631961 3.125,1.28125 1.133509,-0.279795 1.407521,-1.065268 1.532135,-1.90007 L 15.367021,0.8125 C 15.388342,0.38353331 15.087185,0.06051165 14.709126,0 Z" color="#000" display="inline" enable-background="accumulate" overflow="visible" visibility="visible" style="marker:none"/></g><g id="layer1-9-4-1" fill="#7e5514" fill-opacity=".971" fill-rule="nonzero" stroke="none" stroke-dasharray="none" stroke-dashoffset="0" stroke-linecap="butt" stroke-linejoin="miter" stroke-miterlimit="4" stroke-opacity=".498" stroke-width=".817" color="#000" display="inline" opacity=".6" transform="matrix(1.4992304,0,0,0.99948694,18.1238,36.16665)" visibility="visible" style="marker:none;font-variant-east_asian:normal"><path stroke-opacity=".498" style="marker:none;font-variant-east_asian:normal" id="rect2996-4-03" fill="#7e5514" fill-opacity=".971" fill-rule="nonzero" stroke="none" stroke-dasharray="none" stroke-dashoffset="0" stroke-linecap="butt" stroke-linejoin="miter" stroke-miterlimit="4" stroke-width=".817" d="M 14.709126,0 6.5252041,1.90625 C 5.9420462,2.0546939 5.4471092,2.6464802 5.4725726,3.21875 l 0.404631,9.09375 C 5.2858656,12.018344 4.5264079,11.899398 3.7390459,12.09375 2.3182421,12.444461 1.4279045,13.577902 1.7324671,14.625 2.0370297,15.672098 3.436663,16.256961 4.8574668,15.90625 5.9909757,15.626455 6.4629807,14.842009 6.5875947,14.007207 L 6.1829637,5.3360911 14.614327,3.3350644 14.298255,10.3125 c -0.591338,-0.294156 -1.350795,-0.4131024 -2.138157,-0.21875 -1.420804,0.350711 -2.3111415,1.484152 -2.006579,2.53125 0.304563,1.047098 1.704195,1.631961 3.125,1.28125 1.133509,-0.279795 1.407521,-1.065268 1.532135,-1.90007 L 15.367021,0.8125 C 15.388342,0.38353331 15.087185,0.06051165 14.709126,0 Z" color="#000" display="inline" enable-background="accumulate" overflow="visible" vector-effect="none" visibility="visible"/></g></svg>