<svg xmlns="http://www.w3.org/2000/svg" xmlns:svg="http://www.w3.org/2000/svg" xmlns:xlink="http://www.w3.org/1999/xlink" id="svg22774" width="64" height="64" version="1.1"><defs id="defs22776"><linearGradient id="linearGradient1096"><stop id="stop1088" offset="0" stop-color="#fff" stop-opacity="1"/><stop id="stop1090" offset="0" stop-color="#fff" stop-opacity=".235"/><stop id="stop1092" offset="1" stop-color="#fff" stop-opacity=".157"/><stop id="stop1094" offset="1" stop-color="#fff" stop-opacity=".392"/></linearGradient><linearGradient id="linearGradient960"><stop id="stop956" offset="0" stop-color="#fafafa" stop-opacity="1"/><stop id="stop958" offset="1" stop-color="#d4d4d4" stop-opacity="1"/></linearGradient><linearGradient id="linearGradient5962" x1="97.539" x2="97.539" y1="17.213" y2="44.028" gradientTransform="matrix(1.3210282,0,0,1.2679796,-70.729885,0.17381034)" gradientUnits="userSpaceOnUse" xlink:href="#linearGradient8272-8-8"/><linearGradient id="linearGradient8272-8-8"><stop id="stop8274-4" offset="0" stop-color="#fff" stop-opacity="1"/><stop id="stop8276-5" offset="0" stop-color="#fff" stop-opacity=".235"/><stop id="stop8278-0" offset="1" stop-color="#fff" stop-opacity=".157"/><stop id="stop8280-5-9" offset="1" stop-color="#fff" stop-opacity=".392"/></linearGradient><linearGradient id="linearGradient5954" x1="-91" x2="-91" y1="44" y2="119.06" gradientTransform="matrix(0.50413225,0,0,0.49333391,73.843637,-1.4532897)" gradientUnits="userSpaceOnUse" xlink:href="#linearGradient4632-0-6-4-4-4"/><linearGradient id="linearGradient4632-0-6-4-4-4"><stop id="stop4634-4-4-7-4" offset="0" stop-color="#efdfc4" stop-opacity="1"/><stop id="stop4636-3-1-5-9" offset="1" stop-color="#e7c591" stop-opacity="1"/></linearGradient><radialGradient id="radialGradient5950" cx="605.714" cy="486.648" r="117.143" fx="605.714" fy="486.648" gradientTransform="matrix(-0.04016195,0,0,0.0329426,30.204677,40.92132)" gradientUnits="userSpaceOnUse" xlink:href="#linearGradient5060-820-8"/><linearGradient id="linearGradient5060-820-8"><stop id="stop2681-37" offset="0" stop-color="#000" stop-opacity="1"/><stop id="stop2683-05" offset="1" stop-color="#000" stop-opacity="0"/></linearGradient><linearGradient id="linearGradient5946" x1="302.857" x2="302.857" y1="366.648" y2="609.505" gradientTransform="matrix(0.1076923,0,0,0.03294117,-6.9224153,40.92219)" gradientUnits="userSpaceOnUse" xlink:href="#linearGradient5048-585-1"/><linearGradient id="linearGradient5048-585-1"><stop id="stop2667-0" offset="0" stop-color="#000" stop-opacity="0"/><stop id="stop2669-91" offset=".5" stop-color="#000" stop-opacity="1"/><stop id="stop2671-6" offset="1" stop-color="#000" stop-opacity="0"/></linearGradient><radialGradient id="radialGradient5942" cx="605.714" cy="486.648" r="117.143" fx="605.714" fy="486.648" gradientTransform="matrix(0.04016195,0,0,0.0329426,33.796647,40.92132)" gradientUnits="userSpaceOnUse" xlink:href="#linearGradient5060-820-8"/><linearGradient id="linearGradient22772" x1="62.989" x2="62.989" y1="14.9" y2="16.998" gradientTransform="matrix(1.3135526,0,0,1.2900554,-55.484955,-1.2218597)" gradientUnits="userSpaceOnUse" xlink:href="#linearGradient960"/><linearGradient id="linearGradient1086" x1="97.447" x2="97.539" y1="11.693" y2="44.028" gradientTransform="matrix(1.3210282,0,0,1.2679796,-70.729885,0.17381034)" gradientUnits="userSpaceOnUse" xlink:href="#linearGradient1096"/></defs><metadata id="metadata22779"/><path id="rect878" fill="url(#linearGradient22772)" fill-opacity="1" stroke="none" stroke-dasharray="none" stroke-dashoffset="0" stroke-linecap="butt" stroke-linejoin="miter" stroke-miterlimit="4" stroke-opacity="1" stroke-width="1" d="M 7.75 10 C 7.3345 10 7 10.3345 7 10.75 L 7 14 L 4.75 14 C 4.3345 14 4 14.3345 4 14.75 L 4 23.25 C 4 23.6655 4.3345 24 4.75 24 L 59.25 24 C 59.6655 24 60 23.6655 60 23.25 L 60 14.75 C 60 14.3345 59.6655 14 59.25 14 L 28 14 L 28 10.75 C 28 10.3345 27.6655 10 27.25 10 L 7.75 10 z" opacity="1" vector-effect="none" style="font-variant-east_asian:normal;marker:none"/><path id="rect878-6" fill="none" fill-opacity="1" stroke="#7e8087" stroke-dasharray="none" stroke-dashoffset="0" stroke-linecap="square" stroke-linejoin="miter" stroke-miterlimit="4" stroke-opacity="1" stroke-width=".992" d="m 7.9960938,9.5039061 c -0.8310001,0 -1.5,0.6689999 -1.5,1.4999999 v 2.492188 h -1.5 c -0.831,0 -1.5,0.669 -1.5,1.5 v 8.007812 H 60.503906 v -8.007812 c 0,-0.831 -0.669,-1.5 -1.5,-1.5 h -30.5 v -2.492188 c 0,-0.831 -0.669,-1.4999999 -1.5,-1.4999999 z" opacity=".5" vector-effect="none"/><path id="rect962" fill="none" fill-opacity="1" stroke="url(#linearGradient1086)" stroke-dasharray="none" stroke-dashoffset="0" stroke-linecap="round" stroke-linejoin="round" stroke-miterlimit="4" stroke-opacity="1" stroke-width="1" d="m 8,10.5 c -0.277,0 -0.5,0.223 -0.5,0.5 v 3.5 H 5 c -0.277,0 -0.5,0.223 -0.5,0.5 v 13 h 55 V 15 c 0,-0.277 -0.223,-0.5 -0.5,-0.5 H 27.5 V 11 c 0,-0.277 -0.223,-0.5 -0.5,-0.5 z" opacity="1" vector-effect="none" style="marker:none;font-variant-east_asian:normal"/><path d="m 58.000667,52.99993 c 0,0 0,7.99991 0,7.99991 2.06824,0.0151 5,-1.79238 5,-4.00047 0,-2.2081 -2.308,-3.99944 -5,-3.99944 z" style="marker:none" id="path3411" fill="url(#radialGradient5942)" fill-opacity="1" fill-rule="nonzero" stroke="none" stroke-width="1" display="inline" opacity=".3" overflow="visible" visibility="visible"/><rect id="rect4173-14" width="52" height="8" x="6.001" y="53" fill="url(#linearGradient5946)" fill-opacity="1" fill-rule="nonzero" stroke="none" stroke-width="1" display="inline" opacity=".3" overflow="visible" visibility="visible" style="marker:none"/><path d="m 6.0006657,52.99993 c 0,0 0,7.99991 0,7.99991 -2.06825,0.0151 -5,-1.79238 -5,-4.00047 0,-2.2081 2.308,-3.99944 5,-3.99944 z" style="marker:none" id="path5018-7" fill="url(#radialGradient5950)" fill-opacity="1" fill-rule="nonzero" stroke="none" stroke-width="1" display="inline" opacity=".3" overflow="visible" visibility="visible"/><path id="rect980" fill="url(#linearGradient5954)" fill-opacity="1" stroke="#987124" stroke-dasharray="none" stroke-dashoffset="0" stroke-linecap="butt" stroke-linejoin="miter" stroke-miterlimit="4" stroke-opacity=".498" stroke-width="1" d="m 3,20.5 c -0.8310001,0 -1.5404694,0.564096 -1.5,1.261719 l 2,34.476562 C 3.5404694,56.935904 4.1689999,57.5 5,57.5 h 54 c 0.831,0 1.459531,-0.564096 1.5,-1.261719 l 2,-34.476562 C 62.540469,21.064096 61.831,20.5 61,20.5 Z" opacity="1" vector-effect="none" style="marker:none;font-variant-east_asian:normal"/><path id="rect1023" fill="none" fill-opacity="1" stroke="url(#linearGradient5962)" stroke-dasharray="none" stroke-dashoffset="0" stroke-linecap="round" stroke-linejoin="round" stroke-miterlimit="4" stroke-opacity="1" stroke-width="1" d="m 3,21.5 c -0.277,0 -0.5134886,0.185576 -0.5,0.416016 l 2,34.167968 C 4.5134886,56.314424 4.723,56.5 5,56.5 h 54 c 0.277,0 0.486511,-0.185576 0.5,-0.416016 l 2,-34.167968 C 61.513489,21.685576 61.277,21.5 61,21.5 Z" opacity=".5" vector-effect="none" style="marker:none;font-variant-east_asian:normal"/><path id="path2998-4-3-7" fill="#fff" fill-opacity="1" fill-rule="nonzero" stroke="none" stroke-width="1.7" d="m 31.999997,30.000001 -12.1875,12.187499 2.375,2.34375 1.8125,-1.78125 V 52 h 6 v -5 c 0,-1.10457 0.89543,-2 2,-2 1.10457,0 2,0.89543 2,2 v 5 h 6 v -9.25 l 1.8125,1.78125 2.375,-2.34375 -3.40625,-3.375 v -0.0312 l -6.34375,-6.343799 z m 5,1 v 1.21875 l 3,2.96875 v -4.1875 z" color="#000" display="inline" enable-background="accumulate" opacity=".3" overflow="visible" visibility="visible" style="marker:none"/><path stroke-opacity=".498" style="marker:none;font-variant-east_asian:normal" id="path2998-4-3" fill="#7e5514" fill-opacity=".971" fill-rule="nonzero" stroke="none" stroke-dasharray="none" stroke-dashoffset="0" stroke-linecap="butt" stroke-linejoin="miter" stroke-miterlimit="4" stroke-width="1" d="m 31.999997,29.000001 -12.1875,12.187499 2.375,2.34375 1.8125,-1.78125 V 51 h 6 v -5 c 0,-1.10457 0.89543,-2 2,-2 1.10457,0 2,0.89543 2,2 v 5 h 6 v -9.25 l 1.8125,1.78125 2.375,-2.34375 -3.40625,-3.375 v -0.0312 l -6.34375,-6.343799 z m 5,1 v 1.21875 l 3,2.96875 v -4.1875 z" color="#000" display="inline" enable-background="accumulate" opacity=".6" overflow="visible" vector-effect="none" visibility="visible"/></svg>