<svg xmlns="http://www.w3.org/2000/svg" xmlns:svg="http://www.w3.org/2000/svg" xmlns:xlink="http://www.w3.org/1999/xlink" id="svg2" width="24" height="24" version="1.0"><metadata id="metadata48"/><defs id="defs4"><linearGradient id="linearGradient3324"><stop id="stop3326" offset="0" stop-color="#fff" stop-opacity="1"/><stop id="stop3328" offset="1" stop-color="#fff" stop-opacity="0"/></linearGradient><linearGradient id="linearGradient3711-6"><stop id="stop3713-6" offset="0" stop-color="#fff" stop-opacity="1"/><stop id="stop3715-7" offset="1" stop-color="#d2d2d2" stop-opacity="1"/></linearGradient><linearGradient id="linearGradient9507" x1="23.813" x2="26.243" y1="41.837" y2="32.429" gradientUnits="userSpaceOnUse" xlink:href="#linearGradient3324"/><linearGradient id="linearGradient2904"><stop id="stop2906" offset="0" stop-color="#b9b9b9" stop-opacity="1"/><stop id="stop2910" offset=".216" stop-color="#fff" stop-opacity="1"/><stop id="stop2912" offset=".702" stop-color="#c3c3c3" stop-opacity="1"/><stop id="stop2908" offset="1" stop-color="#878787" stop-opacity="1"/></linearGradient><linearGradient id="linearGradient4170"><stop id="stop4172" offset="0" stop-color="#fff" stop-opacity="1"/><stop id="stop4174" offset=".028" stop-color="#fff" stop-opacity=".235"/><stop id="stop4176" offset=".984" stop-color="#fff" stop-opacity=".157"/><stop id="stop4178" offset="1" stop-color="#fff" stop-opacity=".392"/></linearGradient><linearGradient id="linearGradient9448" x1="16.977" x2="32.046" y1="14.011" y2="14.011" gradientTransform="matrix(0.99514874,0,0,0.79639888,30.1074,183.34141)" gradientUnits="userSpaceOnUse" xlink:href="#linearGradient11193"/><linearGradient id="linearGradient11193"><stop id="stop11195" offset="0" stop-color="#fff" stop-opacity="1"/><stop id="stop9375" offset=".238" stop-color="#e5e5e5" stop-opacity="1"/><stop id="stop11205" offset=".549" stop-color="#e1e1e1" stop-opacity="1"/><stop id="stop11201" offset=".692" stop-color="#ababab" stop-opacity="1"/><stop id="stop11203" offset=".806" stop-color="#959595" stop-opacity="1"/><stop id="stop11197" offset="1" stop-color="#d3d3d3" stop-opacity="1"/></linearGradient><radialGradient id="radialGradient9456-3" cx="18.754" cy="40.579" r="13.084" fx="18.754" fy="40.579" gradientTransform="matrix(0.52712163,0,0,0.18204302,39.243095,200.67741)" gradientUnits="userSpaceOnUse" xlink:href="#linearGradient3711-6"/><linearGradient id="linearGradient9438-5" x1="18.737" x2="30.231" y1="13.352" y2="13.352" gradientTransform="matrix(0.57142833,0,0,0.62499979,37.500008,185.5625)" gradientUnits="userSpaceOnUse" xlink:href="#linearGradient2904"/><linearGradient id="linearGradient9442-9" x1="24.458" x2="24.458" y1="2.864" y2="20.136" gradientTransform="matrix(0.54545472,0,0,0.65000039,38.409087,186.52501)" gradientUnits="userSpaceOnUse" xlink:href="#linearGradient4170"/></defs><g id="g6155" display="inline" transform="translate(-39,-186)"><g id="g5645"><ellipse id="ellipse9454" cx="51.5" cy="207.5" fill="url(#radialGradient9456-3)" fill-opacity="1" stroke="#000" stroke-dasharray="none" stroke-dashoffset="0" stroke-linecap="round" stroke-linejoin="round" stroke-miterlimit="4" stroke-opacity=".4" stroke-width="1" display="inline" rx="6" ry="2"/><path id="path9505" fill="none" stroke="url(#linearGradient9507)" stroke-dasharray="none" stroke-dashoffset="0" stroke-linecap="round" stroke-linejoin="round" stroke-miterlimit="4" stroke-opacity="1" stroke-width="3.493" d="m 23.8125,31.494141 c -3.339495,0 -6.355926,0.702787 -8.453125,1.769531 -2.097199,1.066744 -3.146484,2.402694 -3.146484,3.642578 0,1.239884 1.049285,2.575834 3.146484,3.642578 2.097199,1.066744 5.11363,1.769532 8.453125,1.769531 3.339495,0 6.355926,-0.702787 8.453125,-1.769531 2.097199,-1.066744 3.146484,-2.402694 3.146484,-3.642578 0,-1.239884 -1.049285,-2.575834 -3.146484,-3.642578 -2.097199,-1.066744 -5.11363,-1.769531 -8.453125,-1.769531 z" display="inline" opacity=".6" transform="matrix(0.3962309,0,0,0.20681565,41.788132,199.84934)"/><path id="rect9509" fill="#e1e1e1" fill-opacity="1" stroke="#000" stroke-dasharray="none" stroke-dashoffset="0" stroke-linecap="butt" stroke-linejoin="round" stroke-miterlimit="4" stroke-opacity=".4" stroke-width="1" d="m 44.5,194.5 v 1 1 1.19336 c -3e-6,2.44206 1.350004,4.6925 3.511719,5.90039 0.780391,0.43606 1.62604,0.70886 2.488281,0.83008 V 206.5 h 2 v -2.07617 c 0.862241,-0.12122 1.70789,-0.39402 2.488281,-0.83008 C 57.149998,202.38586 58.5,200.13542 58.5,197.69336 V 196.5 v -1 -1 z m 2,2 h 10 v 1.19336 c 0,1.70708 -0.937209,3.28761 -2.488281,4.1543 -1.551069,0.86668 -3.472369,0.86668 -5.023438,0 -1.551071,-0.86669 -2.488283,-2.44722 -2.488281,-4.1543 z" opacity="1"/><rect id="rect9436" width="8" height="15" x="47.5" y="186.5" fill="url(#linearGradient9438-5)" fill-opacity="1" stroke="#000" stroke-dasharray="none" stroke-dashoffset="0" stroke-linecap="square" stroke-linejoin="round" stroke-miterlimit="4" stroke-opacity=".4" stroke-width="1" rx="4" ry="4"/><rect id="rect9440" width="6" height="13" x="48.5" y="187.5" fill="none" stroke="url(#linearGradient9442-9)" stroke-dasharray="none" stroke-dashoffset="0" stroke-linecap="square" stroke-linejoin="round" stroke-miterlimit="4" stroke-opacity="1" stroke-width="1" display="inline" rx="3" ry="3"/><path id="path9444" fill="#000" fill-opacity="1" stroke="none" d="m 50.5,187 c -0.276,0 -0.5,0.224 -0.5,0.5 0,0.276 0.224,0.5 0.5,0.5 0.276,0 0.5,-0.224 0.5,-0.5 0,-0.276 -0.224,-0.5 -0.5,-0.5 z m 2,0 c -0.276,0 -0.5,0.224 -0.5,0.5 0,0.276 0.224,0.5 0.5,0.5 0.276,0 0.5,-0.224 0.5,-0.5 0,-0.276 -0.224,-0.5 -0.5,-0.5 z m -3,1 c -0.276,0 -0.5,0.224 -0.5,0.5 0,0.276 0.224,0.5 0.5,0.5 0.276,0 0.5,-0.224 0.5,-0.5 0,-0.276 -0.224,-0.5 -0.5,-0.5 z m 2,0 c -0.276,0 -0.5,0.224 -0.5,0.5 0,0.276 0.224,0.5 0.5,0.5 0.276,0 0.5,-0.224 0.5,-0.5 0,-0.276 -0.224,-0.5 -0.5,-0.5 z m 2,0 c -0.276,0 -0.5,0.224 -0.5,0.5 0,0.276 0.224,0.5 0.5,0.5 0.276,0 0.5,-0.224 0.5,-0.5 0,-0.276 -0.224,-0.5 -0.5,-0.5 z m -5,1 c -0.276,0 -0.5,0.224 -0.5,0.5 0,0.276 0.224,0.5 0.5,0.5 0.276,0 0.5,-0.224 0.5,-0.5 0,-0.276 -0.224,-0.5 -0.5,-0.5 z m 2,0 c -0.276,0 -0.5,0.224 -0.5,0.5 0,0.276 0.224,0.5 0.5,0.5 0.276,0 0.5,-0.224 0.5,-0.5 0,-0.276 -0.224,-0.5 -0.5,-0.5 z m 2,0 c -0.276,0 -0.5,0.224 -0.5,0.5 0,0.276 0.224,0.5 0.5,0.5 0.276,0 0.5,-0.224 0.5,-0.5 0,-0.276 -0.224,-0.5 -0.5,-0.5 z m 2,0 c -0.276,0 -0.5,0.224 -0.5,0.5 0,0.276 0.224,0.5 0.5,0.5 0.276,0 0.5,-0.224 0.5,-0.5 0,-0.276 -0.224,-0.5 -0.5,-0.5 z m -5,1 c -0.276,0 -0.5,0.224 -0.5,0.5 0,0.276 0.224,0.5 0.5,0.5 0.276,0 0.5,-0.224 0.5,-0.5 0,-0.276 -0.224,-0.5 -0.5,-0.5 z m 2,0 c -0.276,0 -0.5,0.224 -0.5,0.5 0,0.276 0.224,0.5 0.5,0.5 0.276,0 0.5,-0.224 0.5,-0.5 0,-0.276 -0.224,-0.5 -0.5,-0.5 z m 2,0 c -0.276,0 -0.5,0.224 -0.5,0.5 0,0.276 0.224,0.5 0.5,0.5 0.276,0 0.5,-0.224 0.5,-0.5 0,-0.276 -0.224,-0.5 -0.5,-0.5 z m -5,1 c -0.276,0 -0.5,0.224 -0.5,0.5 0,0.276 0.224,0.5 0.5,0.5 0.276,0 0.5,-0.224 0.5,-0.5 0,-0.276 -0.224,-0.5 -0.5,-0.5 z m 2,0 c -0.276,0 -0.5,0.224 -0.5,0.5 0,0.276 0.224,0.5 0.5,0.5 0.276,0 0.5,-0.224 0.5,-0.5 0,-0.276 -0.224,-0.5 -0.5,-0.5 z m 2,0 c -0.276,0 -0.5,0.224 -0.5,0.5 0,0.276 0.224,0.5 0.5,0.5 0.276,0 0.5,-0.224 0.5,-0.5 0,-0.276 -0.224,-0.5 -0.5,-0.5 z m 2,0 c -0.276,0 -0.5,0.224 -0.5,0.5 0,0.276 0.224,0.5 0.5,0.5 0.276,0 0.5,-0.224 0.5,-0.5 0,-0.276 -0.224,-0.5 -0.5,-0.5 z m -5,1 c -0.276,0 -0.5,0.224 -0.5,0.5 0,0.276 0.224,0.5 0.5,0.5 0.276,0 0.5,-0.224 0.5,-0.5 0,-0.276 -0.224,-0.5 -0.5,-0.5 z m 2,0 c -0.276,0 -0.5,0.224 -0.5,0.5 0,0.276 0.224,0.5 0.5,0.5 0.276,0 0.5,-0.224 0.5,-0.5 0,-0.276 -0.224,-0.5 -0.5,-0.5 z m 2,0 c -0.276,0 -0.5,0.224 -0.5,0.5 0,0.276 0.224,0.5 0.5,0.5 0.276,0 0.5,-0.224 0.5,-0.5 0,-0.276 -0.224,-0.5 -0.5,-0.5 z m -5,1 c -0.276,0 -0.5,0.224 -0.5,0.5 0,0.276 0.224,0.5 0.5,0.5 0.276,0 0.5,-0.224 0.5,-0.5 0,-0.276 -0.224,-0.5 -0.5,-0.5 z m 2,0 c -0.276,0 -0.5,0.224 -0.5,0.5 0,0.276 0.224,0.5 0.5,0.5 0.276,0 0.5,-0.224 0.5,-0.5 0,-0.276 -0.224,-0.5 -0.5,-0.5 z m 2,0 c -0.276,0 -0.5,0.224 -0.5,0.5 0,0.276 0.224,0.5 0.5,0.5 0.276,0 0.5,-0.224 0.5,-0.5 0,-0.276 -0.224,-0.5 -0.5,-0.5 z m 2,0 c -0.276,0 -0.5,0.224 -0.5,0.5 0,0.276 0.224,0.5 0.5,0.5 0.276,0 0.5,-0.224 0.5,-0.5 0,-0.276 -0.224,-0.5 -0.5,-0.5 z m -5,1 c -0.276,0 -0.5,0.224 -0.5,0.5 0,0.276 0.224,0.5 0.5,0.5 0.276,0 0.5,-0.224 0.5,-0.5 0,-0.276 -0.224,-0.5 -0.5,-0.5 z m 2,0 c -0.276,0 -0.5,0.224 -0.5,0.5 0,0.276 0.224,0.5 0.5,0.5 0.276,0 0.5,-0.224 0.5,-0.5 0,-0.276 -0.224,-0.5 -0.5,-0.5 z m 2,0 c -0.276,0 -0.5,0.224 -0.5,0.5 0,0.276 0.224,0.5 0.5,0.5 0.276,0 0.5,-0.224 0.5,-0.5 0,-0.276 -0.224,-0.5 -0.5,-0.5 z m -5,1 c -0.276,0 -0.5,0.224 -0.5,0.5 0,0.276 0.224,0.5 0.5,0.5 0.276,0 0.5,-0.224 0.5,-0.5 0,-0.276 -0.224,-0.5 -0.5,-0.5 z m 2,0 c -0.276,0 -0.5,0.224 -0.5,0.5 0,0.276 0.224,0.5 0.5,0.5 0.276,0 0.5,-0.224 0.5,-0.5 0,-0.276 -0.224,-0.5 -0.5,-0.5 z m 2,0 c -0.276,0 -0.5,0.224 -0.5,0.5 0,0.276 0.224,0.5 0.5,0.5 0.276,0 0.5,-0.224 0.5,-0.5 0,-0.276 -0.224,-0.5 -0.5,-0.5 z m 2,0 c -0.276,0 -0.5,0.224 -0.5,0.5 0,0.276 0.224,0.5 0.5,0.5 0.276,0 0.5,-0.224 0.5,-0.5 0,-0.276 -0.224,-0.5 -0.5,-0.5 z" display="inline" opacity=".3"/><path id="path9446" fill="url(#linearGradient9448)" fill-opacity="1" fill-rule="nonzero" stroke="#000" stroke-dasharray="none" stroke-miterlimit="4" stroke-opacity=".251" stroke-width="1" d="m 47.5,194.5 h 8 v 2 h -8 z" color="#000" display="inline" enable-background="accumulate" overflow="visible" visibility="visible" style="marker:none"/><rect id="rect10955" width="1" height="1" x="45" y="196" fill="#000" fill-opacity="1" stroke="none" stroke-dasharray="none" stroke-dashoffset="0" stroke-linecap="round" stroke-linejoin="round" stroke-miterlimit="4" stroke-opacity="1" stroke-width="1" display="inline" enable-background="new" opacity=".4"/><rect id="rect10957" width="1" height="1" x="57" y="196" fill="#000" fill-opacity="1" stroke="none" stroke-dasharray="none" stroke-dashoffset="0" stroke-linecap="round" stroke-linejoin="round" stroke-miterlimit="4" stroke-opacity="1" stroke-width="1" display="inline" enable-background="new" opacity=".4"/><path id="path10959" fill="none" fill-opacity="1" stroke="#fff" stroke-dasharray="none" stroke-dashoffset="0" stroke-linecap="butt" stroke-linejoin="round" stroke-miterlimit="4" stroke-opacity=".498" stroke-width="1" d="m 57.49995,197.69316 c 0,2.07458 -1.143586,3.99157 -2.999979,5.02886 -1.85639,1.03729 -4.143556,1.03729 -5.999946,0 -1.856392,-1.03729 -2.999976,-2.95428 -2.999975,-5.02886" opacity="1"/></g></g></svg>