<svg xmlns="http://www.w3.org/2000/svg" xmlns:svg="http://www.w3.org/2000/svg" xmlns:xlink="http://www.w3.org/1999/xlink" id="svg4157" width="24" height="24" version="1.1"><defs id="defs4159"><linearGradient id="linearGradient5428"><stop id="stop5424" offset="0" stop-color="#5c5c5c" stop-opacity="1"/><stop id="stop5426" offset="1" stop-color="#2f2f2f" stop-opacity="1"/></linearGradient><linearGradient id="linearGradient4718"><stop id="stop4720" offset="0" stop-color="#fdecc4" stop-opacity="1"/><stop id="stop1140-5" offset=".603" stop-color="#e89843" stop-opacity="1"/><stop id="stop4722" offset="1" stop-color="#b45c15" stop-opacity="1"/></linearGradient><linearGradient id="linearGradient3688-464-309-604"><stop id="stop3094" offset="0" stop-color="#181818" stop-opacity="1"/><stop id="stop3096" offset="1" stop-color="#181818" stop-opacity="0"/></linearGradient><linearGradient id="linearGradient4781"><stop id="stop4777" offset="0" stop-color="#fff" stop-opacity="1"/><stop id="stop4779" offset="1" stop-color="#fff" stop-opacity=".171"/></linearGradient><radialGradient id="radialGradient3090" cx="62.625" cy="4.625" r="10.625" fx="62.625" fy="4.625" gradientTransform="matrix(1.1294118,0,0,0.2823525,-18.729414,205.69412)" gradientUnits="userSpaceOnUse" xlink:href="#linearGradient4712"/><linearGradient id="linearGradient4712"><stop id="stop4708" offset="0" stop-color="#000" stop-opacity="1"/><stop id="stop4710" offset="1" stop-color="#000" stop-opacity="0"/></linearGradient><linearGradient id="linearGradient5151" x1="45" x2="60" y1="191" y2="206" gradientUnits="userSpaceOnUse" xlink:href="#linearGradient4365-7"/><linearGradient id="linearGradient4365-7"><stop id="stop4367-5" offset="0" stop-color="#fff" stop-opacity="1"/><stop id="stop904" offset=".129" stop-color="#e4e4e4" stop-opacity="1"/><stop id="stop4373-3" offset=".532" stop-color="#e7e7e7" stop-opacity="1"/><stop id="stop4369-5" offset="1" stop-color="#acacac" stop-opacity="1"/></linearGradient><linearGradient id="linearGradient5430-3" x1="7" x2="25" y1="16" y2="16" gradientTransform="matrix(0,-0.76470597,-0.76470597,0,64.235288,210.2353)" gradientUnits="userSpaceOnUse" xlink:href="#linearGradient5428"/><radialGradient id="radialGradient4652-6" cx="16" cy="20.382" r="12" fx="16" fy="20.382" gradientTransform="matrix(0.70832617,-4.002184e-8,4.0021633e-8,0.7083297,40.666847,185.8333)" gradientUnits="userSpaceOnUse" xlink:href="#linearGradient4718"/><linearGradient id="linearGradient5497-3" x1="8" x2="40" y1="25" y2="25" gradientTransform="matrix(0,0.48387118,-0.48387102,0,64.096776,186.38709)" gradientUnits="userSpaceOnUse" xlink:href="#linearGradient3688-464-309-604"/><linearGradient id="linearGradient5509-2" x1="8" x2="40" y1="25" y2="25" gradientTransform="matrix(0,-0.5483874,-0.54838739,0,65.709691,211.16131)" gradientUnits="userSpaceOnUse" xlink:href="#linearGradient4781"/><radialGradient id="radialGradient5193" cx="32" cy="33" r="8" fx="32" fy="33" gradientTransform="matrix(0.375,0,0,0.375,40,184.625)" gradientUnits="userSpaceOnUse" xlink:href="#linearGradient4417"/><linearGradient id="linearGradient4417"><stop id="stop4419" offset="0" stop-color="#6e3003" stop-opacity="1"/><stop id="stop4425" offset=".607" stop-color="#a54805" stop-opacity="1"/><stop id="stop4421" offset="1" stop-color="#6e3003" stop-opacity="0"/></linearGradient><radialGradient id="radialGradient5195" cx="48.01" cy="10.317" r="3" fx="48.01" fy="10.317" gradientTransform="matrix(0,1.655771,-1.2102669,0,64.51381,116.24117)" gradientUnits="userSpaceOnUse" xlink:href="#linearGradient4283-3"/><linearGradient id="linearGradient4283-3"><stop id="stop4285-6" offset="0" stop-color="#6d6d6d" stop-opacity="1"/><stop id="stop5511" offset=".852" stop-color="#272727" stop-opacity="1"/><stop id="stop4287-0" offset="1" stop-color="#000" stop-opacity="1"/></linearGradient><linearGradient id="linearGradient5197" x1="71.204" x2="71.204" y1="22.129" y2="28.509" gradientTransform="matrix(0.4249767,0,0,0.4249767,21.514931,187.22376)" gradientUnits="userSpaceOnUse" xlink:href="#linearGradient4011"/><linearGradient id="linearGradient4011"><stop id="stop4013" offset="0" stop-color="#fff" stop-opacity="1"/><stop id="stop4015" offset=".508" stop-color="#fff" stop-opacity=".235"/><stop id="stop4017" offset=".835" stop-color="#fff" stop-opacity=".157"/><stop id="stop4019" offset="1" stop-color="#fff" stop-opacity=".392"/></linearGradient><radialGradient id="radialGradient5199" cx="32" cy="31" r="3" fx="32" fy="31" gradientTransform="matrix(0.5,0,0,0.5,35.999998,182.0625)" gradientUnits="userSpaceOnUse" xlink:href="#linearGradient5032"/><linearGradient id="linearGradient5032"><stop id="stop5028" offset="0" stop-color="#fff" stop-opacity="1"/><stop id="stop5030" offset="1" stop-color="#fff" stop-opacity="0"/></linearGradient><linearGradient id="linearGradient5218" x1="42" x2="62" y1="198" y2="198" gradientTransform="rotate(90,52,198)" gradientUnits="userSpaceOnUse" xlink:href="#linearGradient4011"/><linearGradient id="linearGradient4671" x1="8" x2="40" y1="25" y2="25" gradientTransform="matrix(0,0.48387118,-0.48387102,0,64.096776,186.38709)" gradientUnits="userSpaceOnUse" xlink:href="#linearGradient3688-464-309-604"/></defs><metadata id="metadata4162"/><g id="g5649" display="inline" transform="translate(-40,-186)"><path id="path8836" fill="url(#radialGradient3090)" fill-opacity="1" fill-rule="evenodd" stroke="none" stroke-width="1" d="m 64,207 c 0,1.65685 -5.37259,3 -12,3 -6.627417,0 -12,-1.34315 -12,-3 0,-1.65686 5.372583,-3 12,-3 6.62741,0 12,1.34314 12,3 z" display="inline" opacity=".3" overflow="visible" visibility="visible" style="marker:none"/><path id="path5125" fill="url(#linearGradient5151)" fill-opacity="1" stroke="#000" stroke-dasharray="none" stroke-dashoffset="0" stroke-linecap="butt" stroke-linejoin="round" stroke-miterlimit="4" stroke-opacity=".498" stroke-width="1" d="M 52,187.5 A 10.5,10.5 0 0 0 46.111328,189.31836 2,2 0 0 0 44.5,188.5 a 2,2 0 0 0 -2,2 2,2 0 0 0 0.8125,1.60547 A 10.5,10.5 0 0 0 41.5,198 10.5,10.5 0 0 0 43.318359,203.88867 2,2 0 0 0 42.5,205.5 a 2,2 0 0 0 2,2 2,2 0 0 0 1.605469,-0.8125 A 10.5,10.5 0 0 0 52,208.5 10.5,10.5 0 0 0 57.888672,206.68164 2,2 0 0 0 59.5,207.5 a 2,2 0 0 0 2,-2 2,2 0 0 0 -0.8125,-1.60547 A 10.5,10.5 0 0 0 62.5,198 10.5,10.5 0 0 0 60.681641,192.11133 2,2 0 0 0 61.5,190.5 a 2,2 0 0 0 -2,-2 2,2 0 0 0 -1.605469,0.8125 A 10.5,10.5 0 0 0 52,187.5 Z" opacity="1"/><path id="path2555-36-4-2-1-2" fill="url(#linearGradient5430-3)" fill-opacity="1" fill-rule="nonzero" stroke="none" stroke-dasharray="none" stroke-dashoffset="0" stroke-linecap="butt" stroke-linejoin="miter" stroke-miterlimit="4" stroke-opacity="1" stroke-width="3" d="m 52,190 c -4.398699,0 -8,3.601 -8,8 0,4.39869 3.601003,8 8,8 4.398688,0 8,-3.601 8,-8 0,-4.39869 -3.600994,-8 -8,-8 z" baseline-shift="baseline" clip-rule="nonzero" color="#000" color-interpolation="sRGB" color-interpolation-filters="linearRGB" color-rendering="auto" direction="ltr" display="inline" dominant-baseline="auto" enable-background="accumulate" font-family="sans-serif" font-size="medium" font-stretch="normal" font-style="normal" font-variant="normal" font-weight="normal" image-rendering="auto" letter-spacing="normal" opacity="1" overflow="visible" shape-rendering="auto" text-anchor="start" text-decoration="none" text-rendering="auto" vector-effect="none" visibility="visible" word-spacing="normal" writing-mode="lr-tb" style="line-height:normal;font-variant-ligatures:normal;font-variant-position:normal;font-variant-caps:normal;font-variant-numeric:normal;font-variant-alternates:normal;font-feature-settings:normal;text-indent:0;text-align:start;text-decoration-line:none;text-decoration-style:solid;text-decoration-color:#000;text-transform:none;text-orientation:mixed;white-space:normal;shape-padding:0;isolation:auto;mix-blend-mode:normal;solid-color:#000;solid-opacity:1;marker:none"/><path id="path2555-36-4-4-7" fill="url(#radialGradient4652-6)" fill-opacity="1" fill-rule="nonzero" stroke="none" stroke-width="1" d="m 51.999999,191.99999 c -3.310753,0 -6.000006,2.68954 -6.000006,6 0,3.31074 2.689546,6 6.000006,6 3.310732,0 5.999994,-2.68954 5.999994,-6 0,-3.31074 -2.689546,-6 -5.999994,-6 z" color="#000" display="inline" enable-background="accumulate" overflow="visible" visibility="visible" style="marker:none"/><ellipse id="ellipse5469" cx="44.448" cy="190.446" fill="#000" fill-opacity=".117" stroke="none" stroke-dasharray="none" stroke-dashoffset="0" stroke-linecap="butt" stroke-linejoin="round" stroke-miterlimit="4" stroke-opacity="1" stroke-width="2" opacity="1" rx=".646" ry=".641"/><path id="path5471" fill="none" fill-rule="evenodd" stroke="#000" stroke-dasharray="none" stroke-linecap="square" stroke-linejoin="miter" stroke-miterlimit="4" stroke-opacity="1" stroke-width=".5" d="m 44.125,190.125 0.64645,0.64128" opacity=".2"/><ellipse id="ellipse5475" cx="-59.552" cy="190.446" fill="#000" fill-opacity=".117" stroke="none" stroke-dasharray="none" stroke-dashoffset="0" stroke-linecap="butt" stroke-linejoin="round" stroke-miterlimit="4" stroke-opacity="1" stroke-width="2" opacity="1" rx=".646" ry=".641" transform="scale(-1,1)"/><path id="path5477" fill="none" fill-rule="evenodd" stroke="#000" stroke-dasharray="none" stroke-linecap="square" stroke-linejoin="miter" stroke-miterlimit="4" stroke-opacity="1" stroke-width=".5" d="m 59.875004,190.125 -0.64645,0.64128" opacity=".2"/><ellipse id="ellipse5481" cx="-59.552" cy="-205.549" fill="#000" fill-opacity=".117" stroke="none" stroke-dasharray="none" stroke-dashoffset="0" stroke-linecap="butt" stroke-linejoin="round" stroke-miterlimit="4" stroke-opacity="1" stroke-width="2" opacity="1" rx=".646" ry=".641" transform="scale(-1)"/><path id="path5483" fill="none" fill-rule="evenodd" stroke="#000" stroke-dasharray="none" stroke-linecap="square" stroke-linejoin="miter" stroke-miterlimit="4" stroke-opacity="1" stroke-width=".5" d="m 59.874784,205.87005 -0.64645,-0.64128" opacity=".2"/><ellipse id="ellipse5487" cx="44.448" cy="-205.554" fill="#000" fill-opacity=".117" stroke="none" stroke-dasharray="none" stroke-dashoffset="0" stroke-linecap="butt" stroke-linejoin="round" stroke-miterlimit="4" stroke-opacity="1" stroke-width="2" opacity="1" rx=".646" ry=".641" transform="scale(1,-1)"/><path id="path5489" fill="none" fill-rule="evenodd" stroke="#000" stroke-dasharray="none" stroke-linecap="square" stroke-linejoin="miter" stroke-miterlimit="4" stroke-opacity="1" stroke-width=".5" d="m 44.125,205.875 0.64645,-0.64128" opacity=".2"/><path id="path5495" fill="none" stroke="url(#linearGradient4671)" stroke-dasharray="none" stroke-miterlimit="4" stroke-opacity="1" stroke-width="1" d="M 52.000003,205.5 C 47.861566,205.5 44.5,202.13809 44.5,198.00001 c 0,-4.13843 3.361926,-7.50001 7.500003,-7.50001 4.138425,0 7.499993,3.36191 7.499993,7.50001 0,4.13843 -3.361911,7.49999 -7.499993,7.49999 z" color="#000" display="inline" enable-background="accumulate" opacity=".2" overflow="visible" visibility="visible" style="marker:none"/><path id="path5507" fill="none" stroke="url(#linearGradient5509-2)" stroke-dasharray="none" stroke-miterlimit="4" stroke-opacity="1" stroke-width="1" d="m 52.00001,189.5 c -4.690228,0 -8.500006,3.81017 -8.500006,8.49999 0,4.69022 3.810184,8.50001 8.500006,8.50001 4.690208,0 8.499994,-3.81016 8.499994,-8.50001 0,-4.69022 -3.81016,-8.49999 -8.499994,-8.49999 z" color="#000" display="inline" enable-background="accumulate" opacity=".2" overflow="visible" visibility="visible" style="marker:none"/><path id="path5181" fill="none" stroke="url(#linearGradient5497-3)" stroke-dasharray="none" stroke-miterlimit="4" stroke-opacity="1" stroke-width="1" d="m 52.000007,205.5 c -4.138437,0 -7.500003,-3.36191 -7.500003,-7.49999 0,-4.13843 3.361926,-7.50001 7.500003,-7.50001 4.138425,0 7.499997,3.36191 7.499997,7.50001 0,4.13843 -3.361915,7.49999 -7.499997,7.49999 z" color="#000" display="inline" enable-background="accumulate" opacity=".2" overflow="visible" visibility="visible" style="marker:none"/><circle id="circle5185" cx="52" cy="197" r="3" fill="url(#radialGradient5193)" fill-opacity="1" stroke="none" stroke-dasharray="none" stroke-dashoffset="0" stroke-linecap="round" stroke-linejoin="round" stroke-miterlimit="4" stroke-opacity="1" stroke-width="1.125" opacity=".5"/><circle id="circle5187" cx="52" cy="198" r="2.5" fill="url(#radialGradient5195)" fill-opacity="1" stroke="#000" stroke-dasharray="none" stroke-dashoffset="0" stroke-linecap="round" stroke-linejoin="round" stroke-miterlimit="4" stroke-opacity=".498" stroke-width="1" opacity="1"/><circle id="circle5189" cx="52" cy="198" r="1.5" fill="none" fill-opacity="1" fill-rule="nonzero" stroke="url(#linearGradient5197)" stroke-dasharray="none" stroke-dashoffset="0" stroke-linecap="round" stroke-linejoin="round" stroke-miterlimit="4" stroke-opacity="1" stroke-width="1" clip-rule="nonzero" color="#000" color-interpolation="sRGB" color-interpolation-filters="linearRGB" color-rendering="auto" display="inline" enable-background="accumulate" image-rendering="auto" opacity=".1" overflow="visible" shape-rendering="auto" text-rendering="auto" visibility="visible" style="isolation:auto;mix-blend-mode:normal;solid-color:#000;solid-opacity:1;marker:none"/><circle id="circle5191" cx="52" cy="197.563" r="1.5" fill="url(#radialGradient5199)" fill-opacity="1" stroke="none" stroke-dasharray="none" stroke-dashoffset="0" stroke-linecap="round" stroke-linejoin="round" stroke-miterlimit="4" stroke-opacity=".498" stroke-width="2" opacity=".4"/><path id="path5201" fill="none" fill-opacity="1" stroke="url(#linearGradient5218)" stroke-dasharray="none" stroke-dashoffset="0" stroke-linecap="butt" stroke-linejoin="round" stroke-miterlimit="4" stroke-opacity=".498" stroke-width="1" d="m 61.5,198 a 9.5,9.5 0 0 0 -9.5,-9.5 9.5,9.5 0 0 0 -9.5,9.5 9.5,9.5 0 0 0 9.5,9.5 9.5,9.5 0 0 0 9.5,-9.5 z m -1,-7.5 a 1,1 0 0 0 -1,-1 1,1 0 0 0 -1,1 1,1 0 0 0 1,1 1,1 0 0 0 1,-1 z m 0,15 a 1,1 0 0 0 -1,-1 1,1 0 0 0 -1,1 1,1 0 0 0 1,1 1,1 0 0 0 1,-1 z m -15,-15 a 1,1 0 0 0 -1,-1 1,1 0 0 0 -1,1 1,1 0 0 0 1,1 1,1 0 0 0 1,-1 z m 0,15 a 1,1 0 0 0 -1,-1 1,1 0 0 0 -1,1 1,1 0 0 0 1,1 1,1 0 0 0 1,-1 z" opacity="1"/></g></svg>