<svg xmlns="http://www.w3.org/2000/svg" xmlns:svg="http://www.w3.org/2000/svg" id="svg2" width="24" height="24" version="1.1" viewBox="0 0 30 30" xml:space="preserve"><metadata id="metadata8"/><defs id="defs6"><clipPath id="clipPath16" clipPathUnits="userSpaceOnUse"><path id="path18" d="m 2.071,13.329 c 0,-0.487 0.037,-0.966 0.104,-1.434 l 0,0 c 0.06,-0.765 0.048,-1.596 0.06,-2.278 l 0,0 C 2.248,8.882 2.264,7.94 2.264,7.94 l 0,0 0,0 C 2.273,7.349 2.483,6.385 2.855,5.334 l 0,0 C 3.154,4.49 3.499,3.757 3.811,3.263 l 0,0 0,-10e-4 c 0,0 0.002,-0.002 0.005,-0.006 l 0,0 C 3.867,3.176 3.918,3.101 3.966,3.034 l 0,0 C 4.178,2.723 4.553,2.178 4.747,1.921 l 0,0 C 4.771,1.89 4.794,1.86 4.816,1.835 l 0,0 C 5.021,1.589 5.161,1.465 5.351,1.362 l 0,0 C 5.542,1.258 5.687,1.34 5.687,1.34 l 0,0 c 0.12,0.036 0.142,0.377 0.084,0.93 l 0,0 1.648,-1.121 C 7.464,1.121 7.52,1.111 7.575,1.128 l 0,0 L 8.282,1.336 8.286,1.33 C 8.307,1.305 8.326,1.285 8.343,1.273 l 0,0 C 8.474,1.155 8.661,1.105 8.842,1.159 l 0,0 0.742,0.219 c 0.374,0.111 0.623,0.444 0.642,0.813 l 0,0 c 0.059,0.491 -0.41,2.608 -1.145,5.102 l 0,0 c -0.762,2.586 -1.545,4.676 -1.84,4.943 l 0,0 c -0.222,0.268 -0.589,0.392 -0.944,0.287 l 0,0 -0.74,-0.218 C 5.405,12.261 5.29,12.154 5.229,12.023 l 0,0 -0.797,-0.235 C 4.379,11.773 4.339,11.737 4.315,11.693 l 0,0 L 3.56,9.903 C 3.552,9.917 3.545,9.932 3.537,9.948 l 0,0 -0.066,0.183 c -0.2,0.738 -0.308,1.515 -0.308,2.317 l 0,0 c 0,4.88 3.957,8.837 8.837,8.837 l 0,0 c 4.88,0 8.837,-3.957 8.837,-8.837 l 0,0 c 0,-0.846 -0.12,-1.665 -0.342,-2.44 l 0,0 -0.023,-0.06 C 20.465,9.932 20.457,9.917 20.449,9.903 l 0,0 -0.753,1.79 c -0.025,0.044 -0.065,0.08 -0.118,0.095 l 0,0 -0.797,0.235 c -0.061,0.131 -0.177,0.238 -0.328,0.282 l 0,0 -0.74,0.218 c -0.356,0.105 -0.723,-0.019 -0.944,-0.287 l 0,0 C 16.474,11.969 15.691,9.879 14.928,7.293 l 0,0 C 14.193,4.799 13.723,2.682 13.784,2.191 l 0,0 c 0.019,-0.369 0.268,-0.702 0.642,-0.813 l 0,0 0.741,-0.219 c 0.182,-0.054 0.369,-0.004 0.5,0.114 l 0,0 c 0.017,0.012 0.036,0.032 0.057,0.057 l 0,0 c 0.002,0.002 0.003,0.004 0.004,0.006 l 0,0 0.707,-0.208 c 0.055,-0.017 0.111,-0.007 0.157,0.021 l 0,0 1.647,1.121 C 18.18,1.717 18.203,1.376 18.323,1.34 l 0,0 c 0,0 0.145,-0.082 0.335,0.022 l 0,0 c 0.191,0.103 0.331,0.227 0.536,0.473 l 0,0 c 0.022,0.025 0.045,0.055 0.069,0.086 l 0,0 c 0.194,0.257 0.569,0.802 0.781,1.113 l 0,0 c 0.048,0.067 0.099,0.142 0.15,0.222 l 0,0 c 0.002,0.004 0.004,0.006 0.004,0.006 l 0,0 0,10e-4 c 0.313,0.494 0.659,1.227 0.957,2.071 l 0,0 c 0.372,1.051 0.581,2.015 0.591,2.606 l 0,0 c 0,0 0.016,0.942 0.029,1.677 l 0,0 c 0.013,0.736 -10e-4,1.643 0.074,2.456 l 0,0 0,10e-4 c 0.053,0.411 0.079,0.83 0.079,1.255 l 0,0 c 0,5.484 -4.445,9.928 -9.928,9.928 l 0,0 c -5.483,0 -9.929,-4.444 -9.929,-9.928"/></clipPath><linearGradient id="linearGradient24" x1="0" x2="1" y1="0" y2="0" gradientTransform="matrix(0,-21.938389,-21.938389,0,12,22.877853)" gradientUnits="userSpaceOnUse" spreadMethod="pad"><stop id="stop26" offset="0" stop-color="#3d3d3e" stop-opacity="1"/><stop id="stop28" offset=".406" stop-color="#3d3d3e" stop-opacity="1"/><stop id="stop30" offset=".572" stop-color="#343334" stop-opacity="1"/><stop id="stop32" offset=".748" stop-color="#656263" stop-opacity="1"/><stop id="stop34" offset=".971" stop-color="#1f1d1d" stop-opacity="1"/><stop id="stop36" offset="1" stop-color="#1f1d1d" stop-opacity="1"/></linearGradient><clipPath id="clipPath44" clipPathUnits="userSpaceOnUse"><path id="path46" d="M 0,24 24,24 24,0 0,0 0,24 Z"/></clipPath><clipPath id="clipPath52" clipPathUnits="userSpaceOnUse"><path id="path54" d="m 2.07152,23.2575 19.85698,0 0,-11.3623 -19.85698,0 0,11.3623 z"/></clipPath><clipPath id="clipPath56" clipPathUnits="userSpaceOnUse"><path id="path58" d="m 3.163,12.448 c 0.001,4.88 3.957,8.837 8.837,8.837 4.88,0 8.837,-3.957 8.837,-8.837 l 1.013,-0.375 0,0 c 0.051,0.411 0.079,0.831 0.079,1.256 0,5.483 -4.446,9.928 -9.929,9.928 -5.483,0 -9.929,-4.445 -9.929,-9.928 0,-0.487 0.036,-0.966 0.104,-1.434"/></clipPath><linearGradient id="linearGradient60" x1="0" x2="1" y1="0" y2="0" gradientTransform="matrix(1.9090853,-5.9353266,-5.9353266,-1.9090853,8.5616579,24.24621)" gradientUnits="userSpaceOnUse" spreadMethod="pad"><stop id="stop62" offset="0" stop-color="#797b79" stop-opacity="1"/><stop id="stop64" offset=".074" stop-color="#797b79" stop-opacity="1"/><stop id="stop66" offset=".928" stop-color="#1f1d1d" stop-opacity="1"/><stop id="stop68" offset="1" stop-color="#1f1d1d" stop-opacity="1"/></linearGradient><clipPath id="clipPath88" clipPathUnits="userSpaceOnUse"><path id="path90" d="m 2.62041,21.6343 18.75919,0 0,-12.08208 -18.75919,0 0,12.08208 z"/></clipPath><clipPath id="clipPath104" clipPathUnits="userSpaceOnUse"><path id="path106" d="M 3.594,16.509 C 3.539,16.395 3.612,16.254 3.722,16.254 l 0,0 0.258,0 c 0.251,0 0.489,0.14 0.633,0.382 l 0,0 c 1.64,2.711 4.337,4.298 7.387,4.298 l 0,0 c 3.051,0 5.747,-1.587 7.387,-4.298 l 0,0 c 0.144,-0.242 0.381,-0.382 0.634,-0.382 l 0,0 0.256,0 c 0.112,0 0.184,0.141 0.13,0.255 l 0,0 C 18.694,20.09 15.571,22.118 12,22.118 l 0,0 c -3.572,0 -6.695,-2.028 -8.406,-5.609"/></clipPath><radialGradient id="radialGradient112" cx="0" cy="0" r="1" fx="0" fy="0" gradientTransform="matrix(8.9553404,0.006539,0.006539,-8.9553452,11.938456,13.277527)" gradientUnits="userSpaceOnUse" spreadMethod="pad"><stop id="stop114" offset="0" stop-color="#1f1d1d" stop-opacity="1"/><stop id="stop116" offset=".928" stop-color="#1f1d1d" stop-opacity="1"/><stop id="stop118" offset="1" stop-color="#343334" stop-opacity="1"/></radialGradient><clipPath id="clipPath126" clipPathUnits="userSpaceOnUse"><path id="path128" d="M 20.863,5.708 C 20.356,4.128 19.802,2.787 19.4,2.108 l 0,0 c 0.202,0.28 0.475,0.678 0.644,0.926 l 0,0 c 0.048,0.067 0.099,0.142 0.15,0.222 l 0,0 c 0.002,0.004 0.004,0.006 0.004,0.006 l 0,0 0,10e-4 c 0.313,0.494 0.659,1.227 0.957,2.071 l 0,0 c 0.372,1.051 0.581,2.015 0.591,2.606 l 0,0 c 0,0 0.015,0.876 0.028,1.598 l 0,0 C 21.714,8.759 21.38,7.319 20.863,5.708"/></clipPath><linearGradient id="linearGradient134" x1="0" x2="1" y1="0" y2="0" gradientTransform="matrix(2.3739312,0,0,-2.3739312,19.399578,5.8228493)" gradientUnits="userSpaceOnUse" spreadMethod="pad"><stop id="stop136" offset="0" stop-color="#2b2829" stop-opacity="1"/><stop id="stop138" offset=".37" stop-color="#2b2829" stop-opacity="1"/><stop id="stop140" offset="1" stop-color="#3b3839" stop-opacity="1"/></linearGradient><clipPath id="clipPath148" clipPathUnits="userSpaceOnUse"><path id="path150" d="M 19.076,6.094 C 18.351,3.559 18.014,1.432 18.323,1.34 l 0,0 c 0.309,-0.091 1.148,1.889 1.873,4.424 l 0,0 c 0.725,2.534 1.062,4.662 0.752,4.753 l 0,0 c -0.006,0.002 -0.014,0.003 -0.021,0.003 l 0,0 c -0.324,0 -1.142,-1.948 -1.851,-4.426"/></clipPath><linearGradient id="linearGradient156" x1="0" x2="1" y1="0" y2="0" gradientTransform="matrix(2.8555918,0,0,-2.8555918,18.207907,5.9286838)" gradientUnits="userSpaceOnUse" spreadMethod="pad"><stop id="stop158" offset="0" stop-color="#1a1817" stop-opacity="1"/><stop id="stop160" offset="1" stop-color="#2c2a2a" stop-opacity="1"/></linearGradient><clipPath id="clipPath168" clipPathUnits="userSpaceOnUse"><path id="path170" d="m 19.695,11.69 c 0.002,-0.006 0.006,-0.012 0.009,-0.018 l 0,0 -0.008,0.022 -0.001,-0.004 z"/></clipPath><linearGradient id="linearGradient176" x1="0" x2="1" y1="0" y2="0" gradientTransform="matrix(0.0098273,0,0,-0.0098273,19.694204,11.682765)" gradientUnits="userSpaceOnUse" spreadMethod="pad"><stop id="stop178" offset="0" stop-color="#6d6e70" stop-opacity="1"/><stop id="stop180" offset=".506" stop-color="#545557" stop-opacity="1"/><stop id="stop182" offset="1" stop-color="#2c2a2a" stop-opacity="1"/></linearGradient><clipPath id="clipPath190" clipPathUnits="userSpaceOnUse"><path id="path192" d="M 19.718,11.613 C 19.814,11.201 19.319,8.956 18.535,6.295 l 0,0 C 17.739,3.597 16.925,1.421 16.632,1.175 l 0,0 1.859,1.266 c 0.246,0.164 0.787,1.633 1.368,3.599 l 0,0 c 0.578,1.965 0.85,3.254 0.731,3.527 l 0,0 -0.884,2.102 c 0.006,-0.019 0.011,-0.037 0.012,-0.056"/></clipPath><linearGradient id="linearGradient198" x1="0" x2="1" y1="0" y2="0" gradientTransform="matrix(2.1344619,6.2754006,6.2754006,-2.1344619,17.749752,2.8142064)" gradientUnits="userSpaceOnUse" spreadMethod="pad"><stop id="stop200" offset="0" stop-color="#2c2a2a" stop-opacity="1"/><stop id="stop202" offset=".5" stop-color="#2c2a2a" stop-opacity="1"/><stop id="stop204" offset=".803" stop-color="#545557" stop-opacity="1"/><stop id="stop206" offset="1" stop-color="#7b7979" stop-opacity="1"/></linearGradient><clipPath id="clipPath214" clipPathUnits="userSpaceOnUse"><path id="path216" d="m 16.607,1.159 c 0.004,0.002 0.007,0.005 0.011,0.007 l 0,0 -0.011,-0.007 z M 16.603,1.156 16.592,1.15 16.591,1.148 16.607,1.159 C 16.606,1.158 16.605,1.157 16.603,1.156"/></clipPath><linearGradient id="linearGradient222" x1="0" x2="1" y1="0" y2="0" gradientTransform="matrix(0.0270929,0,0,-0.0270929,16.591049,1.1568491)" gradientUnits="userSpaceOnUse" spreadMethod="pad"><stop id="stop224" offset="0" stop-color="#6d6e70" stop-opacity="1"/><stop id="stop226" offset=".506" stop-color="#545557" stop-opacity="1"/><stop id="stop228" offset="1" stop-color="#2c2a2a" stop-opacity="1"/></linearGradient><clipPath id="clipPath236" clipPathUnits="userSpaceOnUse"><path id="path238" d="M 16.769,12.236 C 16.474,11.969 15.691,9.879 14.928,7.293 l 0,0 C 14.193,4.799 13.723,2.682 13.784,2.191 l 0,0 c 0.019,-0.369 0.268,-0.702 0.642,-0.813 l 0,0 0.741,-0.219 c 0.182,-0.054 0.369,-0.004 0.5,0.114 l 0,0 c 0.017,0.012 0.036,0.032 0.057,0.057 l 0,0 c 0.339,0.426 1.129,2.555 1.899,5.166 l 0,0 c 0.834,2.831 1.343,5.202 1.181,5.47 l 0,0 c -0.053,0.158 -0.179,0.288 -0.351,0.339 l 0,0 -0.74,0.218 c -0.085,0.025 -0.171,0.037 -0.255,0.037 l 0,0 c -0.268,0 -0.521,-0.12 -0.689,-0.324"/></clipPath><linearGradient id="linearGradient244" x1="0" x2="1" y1="0" y2="0" gradientTransform="matrix(2.519938,-0.7434046,-0.7434046,-2.519938,15.039026,7.2545094)" gradientUnits="userSpaceOnUse" spreadMethod="pad"><stop id="stop246" offset="0" stop-color="#363233" stop-opacity="1"/><stop id="stop248" offset=".334" stop-color="#343131" stop-opacity="1"/><stop id="stop250" offset="1" stop-color="#2b2829" stop-opacity="1"/></linearGradient><clipPath id="clipPath258" clipPathUnits="userSpaceOnUse"><path id="path260" d="M 16.769,12.236 C 16.474,11.969 15.691,9.879 14.928,7.293 l 0,0 C 14.193,4.799 13.723,2.682 13.784,2.191 l 0,0 c 0.019,-0.369 0.268,-0.702 0.642,-0.813 l 0,0 0.741,-0.219 c 0.182,-0.054 0.369,-0.004 0.5,0.114 l 0,0 c 0.017,0.012 0.036,0.032 0.057,0.057 l 0,0 c 0.339,0.426 1.129,2.555 1.899,5.166 l 0,0 c 0.834,2.831 1.343,5.202 1.181,5.47 l 0,0 c -0.053,0.158 -0.179,0.288 -0.351,0.339 l 0,0 -0.74,0.218 c -0.085,0.025 -0.171,0.037 -0.255,0.037 l 0,0 c -0.268,0 -0.521,-0.12 -0.689,-0.324"/></clipPath><linearGradient id="linearGradient266" x1="0" x2="1" y1="0" y2="0" gradientTransform="matrix(-3.173151,-10.621532,-10.621532,3.173151,17.859037,12.194155)" gradientUnits="userSpaceOnUse" spreadMethod="pad"><stop id="stop268" offset="0" stop-color="#3b3839" stop-opacity="1"/><stop id="stop270" offset=".279" stop-color="#363233" stop-opacity="1"/><stop id="stop272" offset=".5" stop-color="#322e2f" stop-opacity="1"/><stop id="stop274" offset="1" stop-color="#2b2829" stop-opacity="1"/></linearGradient><clipPath id="clipPath282" clipPathUnits="userSpaceOnUse"><path id="path284" d="m 18.804,11.966 c 0.162,-0.268 -0.347,-2.639 -1.181,-5.47 l 0,0 C 16.856,3.895 16.07,1.772 15.727,1.336 l 0,0 0.708,-0.208 c 0.06,-0.017 0.12,-0.005 0.168,0.028 l 0,0 c 0.267,0.117 1.109,2.349 1.932,5.139 l 0,0 c 0.784,2.661 1.279,4.906 1.183,5.318 l 0,0 c -0.005,0.08 -0.058,0.152 -0.14,0.175 l 0,0 -0.801,0.237 c 0.009,-0.02 0.019,-0.038 0.027,-0.059"/></clipPath><linearGradient id="linearGradient290" x1="0" x2="1" y1="0" y2="0" gradientTransform="matrix(-2.3183587,-10.15622,-10.15622,2.3183587,18.949923,11.513526)" gradientUnits="userSpaceOnUse" spreadMethod="pad"><stop id="stop292" offset="0" stop-color="#d3d2d2" stop-opacity="1"/><stop id="stop294" offset=".139" stop-color="#a7a5a6" stop-opacity="1"/><stop id="stop296" offset=".274" stop-color="#6d6e70" stop-opacity="1"/><stop id="stop298" offset="1" stop-color="#373737" stop-opacity="1"/></linearGradient><clipPath id="clipPath306" clipPathUnits="userSpaceOnUse"><path id="path308" d="m 2.264,7.94 0,0 C 2.273,7.349 2.483,6.385 2.855,5.334 l 0,0 C 3.154,4.49 3.499,3.757 3.811,3.263 l 0,0 0,-10e-4 c 0,0 0.002,-0.002 0.005,-0.006 l 0,0 C 3.867,3.176 3.918,3.101 3.966,3.034 l 0,0 C 4.135,2.786 4.408,2.388 4.611,2.108 l 0,0 c -0.403,0.679 -0.958,2.02 -1.465,3.6 l 0,0 C 2.63,7.319 2.297,8.759 2.236,9.538 l 0,0 C 2.249,8.816 2.264,7.94 2.264,7.94"/></clipPath><linearGradient id="linearGradient314" x1="0" x2="1" y1="0" y2="0" gradientTransform="matrix(-2.3739161,0,0,-2.3739161,4.6103482,5.8228536)" gradientUnits="userSpaceOnUse" spreadMethod="pad"><stop id="stop316" offset="0" stop-color="#2b2829" stop-opacity="1"/><stop id="stop318" offset=".37" stop-color="#2b2829" stop-opacity="1"/><stop id="stop320" offset="1" stop-color="#3b3839" stop-opacity="1"/></linearGradient><clipPath id="clipPath328" clipPathUnits="userSpaceOnUse"><path id="path330" d="M 3.062,10.517 C 2.752,10.426 3.089,8.298 3.814,5.764 l 0,0 C 4.539,3.229 5.378,1.249 5.687,1.34 l 0,0 C 5.997,1.432 5.66,3.559 4.935,6.094 l 0,0 C 4.225,8.572 3.408,10.52 3.083,10.52 l 0,0 c -0.007,0 -0.014,-10e-4 -0.021,-0.003"/></clipPath><linearGradient id="linearGradient336" x1="0" x2="1" y1="0" y2="0" gradientTransform="matrix(-2.8555751,0,0,-2.8555751,5.8020201,5.9286876)" gradientUnits="userSpaceOnUse" spreadMethod="pad"><stop id="stop338" offset="0" stop-color="#1a1817" stop-opacity="1"/><stop id="stop340" offset="1" stop-color="#2c2a2a" stop-opacity="1"/></linearGradient><clipPath id="clipPath348" clipPathUnits="userSpaceOnUse"><path id="path350" d="m 4.308,11.676 c 0.002,0.005 0.005,0.009 0.008,0.014 l 0,0 -10e-4,0.004 -0.007,-0.018 z M 4.307,11.672 4.308,11.676 C 4.307,11.674 4.307,11.673 4.307,11.672"/></clipPath><linearGradient id="linearGradient356" x1="0" x2="1" y1="0" y2="0" gradientTransform="matrix(-0.0098274,0,0,-0.0098274,4.315743,11.682769)" gradientUnits="userSpaceOnUse" spreadMethod="pad"><stop id="stop358" offset="0" stop-color="#6d6e70" stop-opacity="1"/><stop id="stop360" offset=".506" stop-color="#545557" stop-opacity="1"/><stop id="stop362" offset="1" stop-color="#2c2a2a" stop-opacity="1"/></linearGradient><clipPath id="clipPath370" clipPathUnits="userSpaceOnUse"><path id="path372" d="M 3.42,9.567 C 3.301,9.294 3.572,8.005 4.152,6.04 l 0,0 C 4.731,4.074 5.272,2.605 5.519,2.441 l 0,0 1.859,-1.266 C 7.084,1.421 6.27,3.597 5.475,6.295 l 0,0 C 4.691,8.956 4.196,11.201 4.292,11.613 l 0,0 c 0.002,0.019 0.006,0.037 0.012,0.056 l 0,0 L 3.42,9.567 Z"/></clipPath><linearGradient id="linearGradient378" x1="0" x2="1" y1="0" y2="0" gradientTransform="matrix(-2.1344609,6.2753978,-6.2753978,-2.1344609,6.2601862,2.8142118)" gradientUnits="userSpaceOnUse" spreadMethod="pad"><stop id="stop380" offset="0" stop-color="#2c2a2a" stop-opacity="1"/><stop id="stop382" offset=".5" stop-color="#2c2a2a" stop-opacity="1"/><stop id="stop384" offset=".803" stop-color="#545557" stop-opacity="1"/><stop id="stop386" offset="1" stop-color="#7b7979" stop-opacity="1"/></linearGradient><clipPath id="clipPath394" clipPathUnits="userSpaceOnUse"><path id="path396" d="M 7.404,1.158 7.392,1.166 C 7.395,1.163 7.4,1.16 7.404,1.158 M 7.419,1.148 7.418,1.15 7.406,1.156 C 7.405,1.157 7.405,1.157 7.404,1.158 l 0,0 0.015,-0.01 z"/></clipPath><linearGradient id="linearGradient402" x1="0" x2="1" y1="0" y2="0" gradientTransform="matrix(-0.0270928,0,0,-0.0270928,7.4188771,1.1568515)" gradientUnits="userSpaceOnUse" spreadMethod="pad"><stop id="stop404" offset="0" stop-color="#6d6e70" stop-opacity="1"/><stop id="stop406" offset=".506" stop-color="#545557" stop-opacity="1"/><stop id="stop408" offset="1" stop-color="#2c2a2a" stop-opacity="1"/></linearGradient><clipPath id="clipPath416" clipPathUnits="userSpaceOnUse"><path id="path418" d="M 6.297,12.523 5.557,12.305 C 5.385,12.254 5.259,12.124 5.206,11.966 l 0,0 C 5.044,11.698 5.553,9.327 6.387,6.496 l 0,0 C 7.157,3.885 7.947,1.756 8.286,1.33 l 0,0 C 8.307,1.305 8.326,1.285 8.343,1.273 l 0,0 C 8.474,1.155 8.661,1.105 8.842,1.159 l 0,0 0.742,0.219 c 0.374,0.111 0.623,0.444 0.642,0.813 l 0,0 c 0.059,0.491 -0.41,2.608 -1.145,5.102 l 0,0 c -0.762,2.586 -1.545,4.676 -1.84,4.943 l 0,0 C 7.072,12.44 6.819,12.56 6.551,12.56 l 0,0 c -0.084,0 -0.169,-0.012 -0.254,-0.037"/></clipPath><linearGradient id="linearGradient424" x1="0" x2="1" y1="0" y2="0" gradientTransform="matrix(-2.5199392,-0.743405,0.743405,-2.5199392,8.970911,7.2545118)" gradientUnits="userSpaceOnUse" spreadMethod="pad"><stop id="stop426" offset="0" stop-color="#363233" stop-opacity="1"/><stop id="stop428" offset=".334" stop-color="#343131" stop-opacity="1"/><stop id="stop430" offset="1" stop-color="#2b2829" stop-opacity="1"/></linearGradient><clipPath id="clipPath438" clipPathUnits="userSpaceOnUse"><path id="path440" d="M 6.297,12.523 5.557,12.305 C 5.385,12.254 5.259,12.124 5.206,11.966 l 0,0 C 5.044,11.698 5.553,9.327 6.387,6.496 l 0,0 C 7.157,3.885 7.947,1.756 8.286,1.33 l 0,0 C 8.307,1.305 8.326,1.285 8.343,1.273 l 0,0 C 8.474,1.155 8.661,1.105 8.842,1.159 l 0,0 0.742,0.219 c 0.374,0.111 0.623,0.444 0.642,0.813 l 0,0 c 0.059,0.491 -0.41,2.608 -1.145,5.102 l 0,0 c -0.762,2.586 -1.545,4.676 -1.84,4.943 l 0,0 C 7.072,12.44 6.819,12.56 6.551,12.56 l 0,0 c -0.084,0 -0.169,-0.012 -0.254,-0.037"/></clipPath><linearGradient id="linearGradient446" x1="0" x2="1" y1="0" y2="0" gradientTransform="matrix(3.1731498,-10.621529,10.621529,3.1731498,6.1508994,12.194155)" gradientUnits="userSpaceOnUse" spreadMethod="pad"><stop id="stop448" offset="0" stop-color="#3b3839" stop-opacity="1"/><stop id="stop450" offset=".279" stop-color="#363233" stop-opacity="1"/><stop id="stop452" offset=".5" stop-color="#322e2f" stop-opacity="1"/><stop id="stop454" offset="1" stop-color="#2b2829" stop-opacity="1"/></linearGradient><clipPath id="clipPath462" clipPathUnits="userSpaceOnUse"><path id="path464" d="M 4.432,11.788 C 4.351,11.765 4.298,11.693 4.292,11.613 l 0,0 C 4.196,11.201 4.691,8.956 5.475,6.295 l 0,0 C 6.298,3.505 7.14,1.273 7.406,1.156 l 0,0 C 7.454,1.123 7.515,1.111 7.575,1.128 l 0,0 0.707,0.208 C 7.941,1.772 7.154,3.895 6.387,6.496 l 0,0 c -0.834,2.831 -1.343,5.202 -1.181,5.47 l 0,0 c 0.007,0.021 0.019,0.039 0.028,0.059 l 0,0 -0.802,-0.237 z"/></clipPath><linearGradient id="linearGradient470" x1="0" x2="1" y1="0" y2="0" gradientTransform="matrix(2.3183577,-10.156216,10.156216,2.3183577,5.0600119,11.513526)" gradientUnits="userSpaceOnUse" spreadMethod="pad"><stop id="stop472" offset="0" stop-color="#d3d2d2" stop-opacity="1"/><stop id="stop474" offset=".139" stop-color="#a7a5a6" stop-opacity="1"/><stop id="stop476" offset=".274" stop-color="#6d6e70" stop-opacity="1"/><stop id="stop478" offset="1" stop-color="#373737" stop-opacity="1"/></linearGradient><clipPath id="clipPath486" clipPathUnits="userSpaceOnUse"><path id="path488" d="M 0,24 24,24 24,0 0,0 0,24 Z"/></clipPath><clipPath id="clipPath494" clipPathUnits="userSpaceOnUse"><path id="path496" d="m 1.57152,23.7575 20.85698,0 0,-23.137505 -20.85698,0 0,23.137505 z"/></clipPath><clipPath id="clipPath498" clipPathUnits="userSpaceOnUse"><path id="path500" d="m 1.57152,23.7575 20.85698,0 0,-23.137505 -20.85698,0 0,23.137505 z"/></clipPath><clipPath id="clipPath522" clipPathUnits="userSpaceOnUse"><path id="path524" d="m 4.37309,1.83421 7.28131,0 0,-1.642544 -7.28131,0 0,1.642544 z"/></clipPath><clipPath id="clipPath526" clipPathUnits="userSpaceOnUse"><path id="path528" d="m 11.654,1.013 c 0,-0.453 -1.63,-0.822 -3.64,-0.822 -2.011,0 -3.641,0.369 -3.641,0.822 0,0.454 1.63,0.821 3.641,0.821 2.01,0 3.64,-0.367 3.64,-0.821"/></clipPath><clipPath id="clipPath530" clipPathUnits="userSpaceOnUse"><path id="path532" d="m -32768,32767 65535,0 0,-65535 -65535,0 0,65535 z"/></clipPath><radialGradient id="radialGradient534" cx="0" cy="0" r="1" fx="0" fy="0" gradientTransform="matrix(3.6565645,0,0,-0.769359,8.0137558,1.0129384)" gradientUnits="userSpaceOnUse" spreadMethod="pad"><stop id="stop536" offset="0" stop-color="#fff" stop-opacity="1"/><stop id="stop538" offset=".531" stop-color="#fff" stop-opacity="0"/><stop id="stop540" offset="1" stop-color="#fff" stop-opacity="0"/></radialGradient><mask id="mask542" width="1" height="1" x="0" y="0" maskUnits="userSpaceOnUse"><g id="g544"><g id="g546" clip-path="url(#clipPath530)"><g id="g548"><g id="g550"><path id="path552" fill="url(#radialGradient534)" stroke="none" d="m -32768,32767 65535,0 0,-65535 -65535,0 0,65535 z"/></g></g></g></g></mask><radialGradient id="radialGradient554" cx="0" cy="0" r="1" fx="0" fy="0" gradientTransform="matrix(3.6565645,0,0,-0.769359,8.0137558,1.0129384)" gradientUnits="userSpaceOnUse" spreadMethod="pad"><stop id="stop556" offset="0" stop-color="#100f0d" stop-opacity="1"/><stop id="stop558" offset=".531" stop-color="#100f0d" stop-opacity="1"/><stop id="stop560" offset="1" stop-color="#100f0d" stop-opacity="1"/></radialGradient><clipPath id="clipPath584" clipPathUnits="userSpaceOnUse"><path id="path586" d="m 12.4632,1.83421 7.2813,0 0,-1.642544 -7.2813,0 0,1.642544 z"/></clipPath><clipPath id="clipPath588" clipPathUnits="userSpaceOnUse"><path id="path590" d="m 19.744,1.013 c 0,-0.453 -1.63,-0.822 -3.64,-0.822 -2.011,0 -3.641,0.369 -3.641,0.822 0,0.454 1.63,0.821 3.641,0.821 2.01,0 3.64,-0.367 3.64,-0.821"/></clipPath><clipPath id="clipPath592" clipPathUnits="userSpaceOnUse"><path id="path594" d="m -32768,32767 65535,0 0,-65535 -65535,0 0,65535 z"/></clipPath><radialGradient id="radialGradient596" cx="0" cy="0" r="1" fx="0" fy="0" gradientTransform="matrix(3.6565645,0,0,-0.769359,16.10388,1.0129364)" gradientUnits="userSpaceOnUse" spreadMethod="pad"><stop id="stop598" offset="0" stop-color="#fff" stop-opacity="1"/><stop id="stop600" offset=".531" stop-color="#fff" stop-opacity="0"/><stop id="stop602" offset="1" stop-color="#fff" stop-opacity="0"/></radialGradient><mask id="mask604" width="1" height="1" x="0" y="0" maskUnits="userSpaceOnUse"><g id="g606"><g id="g608" clip-path="url(#clipPath592)"><g id="g610"><g id="g612"><path id="path614" fill="url(#radialGradient596)" stroke="none" d="m -32768,32767 65535,0 0,-65535 -65535,0 0,65535 z"/></g></g></g></g></mask><radialGradient id="radialGradient616" cx="0" cy="0" r="1" fx="0" fy="0" gradientTransform="matrix(3.6565645,0,0,-0.769359,16.10388,1.0129364)" gradientUnits="userSpaceOnUse" spreadMethod="pad"><stop id="stop618" offset="0" stop-color="#100f0d" stop-opacity="1"/><stop id="stop620" offset=".531" stop-color="#100f0d" stop-opacity="1"/><stop id="stop622" offset="1" stop-color="#100f0d" stop-opacity="1"/></radialGradient></defs><g id="g10" transform="matrix(1.25,0,0,-1.25,0,30)"><g id="g12"><g id="g14" clip-path="url(#clipPath16)"><g id="g20"><g id="g22"><path id="path38" fill="url(#linearGradient24)" stroke="none" d="m 2.071,13.329 c 0,-0.487 0.037,-0.966 0.104,-1.434 l 0,0 c 0.06,-0.765 0.048,-1.596 0.06,-2.278 l 0,0 C 2.248,8.882 2.264,7.94 2.264,7.94 l 0,0 0,0 C 2.273,7.349 2.483,6.385 2.855,5.334 l 0,0 C 3.154,4.49 3.499,3.757 3.811,3.263 l 0,0 0,-10e-4 c 0,0 0.002,-0.002 0.005,-0.006 l 0,0 C 3.867,3.176 3.918,3.101 3.966,3.034 l 0,0 C 4.178,2.723 4.553,2.178 4.747,1.921 l 0,0 C 4.771,1.89 4.794,1.86 4.816,1.835 l 0,0 C 5.021,1.589 5.161,1.465 5.351,1.362 l 0,0 C 5.542,1.258 5.687,1.34 5.687,1.34 l 0,0 c 0.12,0.036 0.142,0.377 0.084,0.93 l 0,0 1.648,-1.121 C 7.464,1.121 7.52,1.111 7.575,1.128 l 0,0 L 8.282,1.336 8.286,1.33 C 8.307,1.305 8.326,1.285 8.343,1.273 l 0,0 C 8.474,1.155 8.661,1.105 8.842,1.159 l 0,0 0.742,0.219 c 0.374,0.111 0.623,0.444 0.642,0.813 l 0,0 c 0.059,0.491 -0.41,2.608 -1.145,5.102 l 0,0 c -0.762,2.586 -1.545,4.676 -1.84,4.943 l 0,0 c -0.222,0.268 -0.589,0.392 -0.944,0.287 l 0,0 -0.74,-0.218 C 5.405,12.261 5.29,12.154 5.229,12.023 l 0,0 -0.797,-0.235 C 4.379,11.773 4.339,11.737 4.315,11.693 l 0,0 L 3.56,9.903 C 3.552,9.917 3.545,9.932 3.537,9.948 l 0,0 -0.066,0.183 c -0.2,0.738 -0.308,1.515 -0.308,2.317 l 0,0 c 0,4.88 3.957,8.837 8.837,8.837 l 0,0 c 4.88,0 8.837,-3.957 8.837,-8.837 l 0,0 c 0,-0.846 -0.12,-1.665 -0.342,-2.44 l 0,0 -0.023,-0.06 C 20.465,9.932 20.457,9.917 20.449,9.903 l 0,0 -0.753,1.79 c -0.025,0.044 -0.065,0.08 -0.118,0.095 l 0,0 -0.797,0.235 c -0.061,0.131 -0.177,0.238 -0.328,0.282 l 0,0 -0.74,0.218 c -0.356,0.105 -0.723,-0.019 -0.944,-0.287 l 0,0 C 16.474,11.969 15.691,9.879 14.928,7.293 l 0,0 C 14.193,4.799 13.723,2.682 13.784,2.191 l 0,0 c 0.019,-0.369 0.268,-0.702 0.642,-0.813 l 0,0 0.741,-0.219 c 0.182,-0.054 0.369,-0.004 0.5,0.114 l 0,0 c 0.017,0.012 0.036,0.032 0.057,0.057 l 0,0 c 0.002,0.002 0.003,0.004 0.004,0.006 l 0,0 0.707,-0.208 c 0.055,-0.017 0.111,-0.007 0.157,0.021 l 0,0 1.647,1.121 C 18.18,1.717 18.203,1.376 18.323,1.34 l 0,0 c 0,0 0.145,-0.082 0.335,0.022 l 0,0 c 0.191,0.103 0.331,0.227 0.536,0.473 l 0,0 c 0.022,0.025 0.045,0.055 0.069,0.086 l 0,0 c 0.194,0.257 0.569,0.802 0.781,1.113 l 0,0 c 0.048,0.067 0.099,0.142 0.15,0.222 l 0,0 c 0.002,0.004 0.004,0.006 0.004,0.006 l 0,0 0,10e-4 c 0.313,0.494 0.659,1.227 0.957,2.071 l 0,0 c 0.372,1.051 0.581,2.015 0.591,2.606 l 0,0 c 0,0 0.016,0.942 0.029,1.677 l 0,0 c 0.013,0.736 -10e-4,1.643 0.074,2.456 l 0,0 0,10e-4 c 0.053,0.411 0.079,0.83 0.079,1.255 l 0,0 c 0,5.484 -4.445,9.928 -9.928,9.928 l 0,0 c -5.483,0 -9.929,-4.444 -9.929,-9.928"/></g></g></g></g><g id="g40"><g id="g42" clip-path="url(#clipPath44)"><g id="g48"><g id="g70"><g id="g72" clip-path="url(#clipPath52)" opacity=".3"><g id="g74"><g id="g76" clip-path="url(#clipPath56)"><g id="g78"><g id="g80"><path id="path82" fill="url(#linearGradient60)" stroke="none" d="m 3.163,12.448 c 0.001,4.88 3.957,8.837 8.837,8.837 4.88,0 8.837,-3.957 8.837,-8.837 l 1.013,-0.375 0,0 c 0.051,0.411 0.079,0.831 0.079,1.256 0,5.483 -4.446,9.928 -9.929,9.928 -5.483,0 -9.929,-4.445 -9.929,-9.928 0,-0.487 0.036,-0.966 0.104,-1.434"/></g></g></g></g></g></g></g><g id="g84"><g id="g92"><g id="g94" clip-path="url(#clipPath88)" opacity=".8"><g id="g96" transform="translate(20.9688,9.5518)"><path id="path98" fill="#231f20" fill-opacity="1" fill-rule="nonzero" stroke="none" d="m 0,0 c 0.008,0.017 0.017,0.033 0.024,0.049 l 0.024,0.064 c 0.236,0.823 0.363,1.692 0.363,2.59 0,5.18 -4.199,9.38 -9.38,9.38 -5.18,0 -9.379,-4.2 -9.379,-9.38 0,-0.851 0.114,-1.676 0.327,-2.46 l 0.069,-0.194 C -17.943,0.033 -17.935,0.017 -17.927,0 l 0.519,0.351 c -0.008,0.014 -0.016,0.03 -0.024,0.045 l -0.066,0.183 c -0.2,0.738 -0.308,1.515 -0.308,2.317 0.001,4.88 3.957,8.837 8.837,8.837 4.88,0 8.837,-3.957 8.837,-8.837 0,-0.846 -0.12,-1.665 -0.342,-2.44 L -0.496,0.396 C -0.504,0.381 -0.512,0.365 -0.52,0.351 L 0,0 Z"/></g></g></g></g></g></g><g id="g100"><g id="g102" clip-path="url(#clipPath104)"><g id="g108"><g id="g110"><path id="path120" fill="url(#radialGradient112)" stroke="none" d="M 3.594,16.509 C 3.539,16.395 3.612,16.254 3.722,16.254 l 0,0 0.258,0 c 0.251,0 0.489,0.14 0.633,0.382 l 0,0 c 1.64,2.711 4.337,4.298 7.387,4.298 l 0,0 c 3.051,0 5.747,-1.587 7.387,-4.298 l 0,0 c 0.144,-0.242 0.381,-0.382 0.634,-0.382 l 0,0 0.256,0 c 0.112,0 0.184,0.141 0.13,0.255 l 0,0 C 18.694,20.09 15.571,22.118 12,22.118 l 0,0 c -3.572,0 -6.695,-2.028 -8.406,-5.609"/></g></g></g></g><g id="g122"><g id="g124" clip-path="url(#clipPath126)"><g id="g130"><g id="g132"><path id="path142" fill="url(#linearGradient134)" stroke="none" d="M 20.863,5.708 C 20.356,4.128 19.802,2.787 19.4,2.108 l 0,0 c 0.202,0.28 0.475,0.678 0.644,0.926 l 0,0 c 0.048,0.067 0.099,0.142 0.15,0.222 l 0,0 c 0.002,0.004 0.004,0.006 0.004,0.006 l 0,0 0,10e-4 c 0.313,0.494 0.659,1.227 0.957,2.071 l 0,0 c 0.372,1.051 0.581,2.015 0.591,2.606 l 0,0 c 0,0 0.015,0.876 0.028,1.598 l 0,0 C 21.714,8.759 21.38,7.319 20.863,5.708"/></g></g></g></g><g id="g144"><g id="g146" clip-path="url(#clipPath148)"><g id="g152"><g id="g154"><path id="path162" fill="url(#linearGradient156)" stroke="none" d="M 19.076,6.094 C 18.351,3.559 18.014,1.432 18.323,1.34 l 0,0 c 0.309,-0.091 1.148,1.889 1.873,4.424 l 0,0 c 0.725,2.534 1.062,4.662 0.752,4.753 l 0,0 c -0.006,0.002 -0.014,0.003 -0.021,0.003 l 0,0 c -0.324,0 -1.142,-1.948 -1.851,-4.426"/></g></g></g></g><g id="g164"><g id="g166" clip-path="url(#clipPath168)"><g id="g172"><g id="g174"><path id="path184" fill="url(#linearGradient176)" stroke="none" d="m 19.695,11.69 c 0.002,-0.006 0.006,-0.012 0.009,-0.018 l 0,0 -0.008,0.022 -0.001,-0.004 z"/></g></g></g></g><g id="g186"><g id="g188" clip-path="url(#clipPath190)"><g id="g194"><g id="g196"><path id="path208" fill="url(#linearGradient198)" stroke="none" d="M 19.718,11.613 C 19.814,11.201 19.319,8.956 18.535,6.295 l 0,0 C 17.739,3.597 16.925,1.421 16.632,1.175 l 0,0 1.859,1.266 c 0.246,0.164 0.787,1.633 1.368,3.599 l 0,0 c 0.578,1.965 0.85,3.254 0.731,3.527 l 0,0 -0.884,2.102 c 0.006,-0.019 0.011,-0.037 0.012,-0.056"/></g></g></g></g><g id="g210"><g id="g212" clip-path="url(#clipPath214)"><g id="g218"><g id="g220"><path id="path230" fill="url(#linearGradient222)" stroke="none" d="m 16.607,1.159 c 0.004,0.002 0.007,0.005 0.011,0.007 l 0,0 -0.011,-0.007 z M 16.603,1.156 16.592,1.15 16.591,1.148 16.607,1.159 C 16.606,1.158 16.605,1.157 16.603,1.156"/></g></g></g></g><g id="g232"><g id="g234" clip-path="url(#clipPath236)"><g id="g240"><g id="g242"><path id="path252" fill="url(#linearGradient244)" stroke="none" d="M 16.769,12.236 C 16.474,11.969 15.691,9.879 14.928,7.293 l 0,0 C 14.193,4.799 13.723,2.682 13.784,2.191 l 0,0 c 0.019,-0.369 0.268,-0.702 0.642,-0.813 l 0,0 0.741,-0.219 c 0.182,-0.054 0.369,-0.004 0.5,0.114 l 0,0 c 0.017,0.012 0.036,0.032 0.057,0.057 l 0,0 c 0.339,0.426 1.129,2.555 1.899,5.166 l 0,0 c 0.834,2.831 1.343,5.202 1.181,5.47 l 0,0 c -0.053,0.158 -0.179,0.288 -0.351,0.339 l 0,0 -0.74,0.218 c -0.085,0.025 -0.171,0.037 -0.255,0.037 l 0,0 c -0.268,0 -0.521,-0.12 -0.689,-0.324"/></g></g></g></g><g id="g254"><g id="g256" clip-path="url(#clipPath258)"><g id="g262"><g id="g264"><path id="path276" fill="url(#linearGradient266)" stroke="none" d="M 16.769,12.236 C 16.474,11.969 15.691,9.879 14.928,7.293 l 0,0 C 14.193,4.799 13.723,2.682 13.784,2.191 l 0,0 c 0.019,-0.369 0.268,-0.702 0.642,-0.813 l 0,0 0.741,-0.219 c 0.182,-0.054 0.369,-0.004 0.5,0.114 l 0,0 c 0.017,0.012 0.036,0.032 0.057,0.057 l 0,0 c 0.339,0.426 1.129,2.555 1.899,5.166 l 0,0 c 0.834,2.831 1.343,5.202 1.181,5.47 l 0,0 c -0.053,0.158 -0.179,0.288 -0.351,0.339 l 0,0 -0.74,0.218 c -0.085,0.025 -0.171,0.037 -0.255,0.037 l 0,0 c -0.268,0 -0.521,-0.12 -0.689,-0.324"/></g></g></g></g><g id="g278"><g id="g280" clip-path="url(#clipPath282)"><g id="g286"><g id="g288"><path id="path300" fill="url(#linearGradient290)" stroke="none" d="m 18.804,11.966 c 0.162,-0.268 -0.347,-2.639 -1.181,-5.47 l 0,0 C 16.856,3.895 16.07,1.772 15.727,1.336 l 0,0 0.708,-0.208 c 0.06,-0.017 0.12,-0.005 0.168,0.028 l 0,0 c 0.267,0.117 1.109,2.349 1.932,5.139 l 0,0 c 0.784,2.661 1.279,4.906 1.183,5.318 l 0,0 c -0.005,0.08 -0.058,0.152 -0.14,0.175 l 0,0 -0.801,0.237 c 0.009,-0.02 0.019,-0.038 0.027,-0.059"/></g></g></g></g><g id="g302"><g id="g304" clip-path="url(#clipPath306)"><g id="g310"><g id="g312"><path id="path322" fill="url(#linearGradient314)" stroke="none" d="m 2.264,7.94 0,0 C 2.273,7.349 2.483,6.385 2.855,5.334 l 0,0 C 3.154,4.49 3.499,3.757 3.811,3.263 l 0,0 0,-10e-4 c 0,0 0.002,-0.002 0.005,-0.006 l 0,0 C 3.867,3.176 3.918,3.101 3.966,3.034 l 0,0 C 4.135,2.786 4.408,2.388 4.611,2.108 l 0,0 c -0.403,0.679 -0.958,2.02 -1.465,3.6 l 0,0 C 2.63,7.319 2.297,8.759 2.236,9.538 l 0,0 C 2.249,8.816 2.264,7.94 2.264,7.94"/></g></g></g></g><g id="g324"><g id="g326" clip-path="url(#clipPath328)"><g id="g332"><g id="g334"><path id="path342" fill="url(#linearGradient336)" stroke="none" d="M 3.062,10.517 C 2.752,10.426 3.089,8.298 3.814,5.764 l 0,0 C 4.539,3.229 5.378,1.249 5.687,1.34 l 0,0 C 5.997,1.432 5.66,3.559 4.935,6.094 l 0,0 C 4.225,8.572 3.408,10.52 3.083,10.52 l 0,0 c -0.007,0 -0.014,-10e-4 -0.021,-0.003"/></g></g></g></g><g id="g344"><g id="g346" clip-path="url(#clipPath348)"><g id="g352"><g id="g354"><path id="path364" fill="url(#linearGradient356)" stroke="none" d="m 4.308,11.676 c 0.002,0.005 0.005,0.009 0.008,0.014 l 0,0 -10e-4,0.004 -0.007,-0.018 z M 4.307,11.672 4.308,11.676 C 4.307,11.674 4.307,11.673 4.307,11.672"/></g></g></g></g><g id="g366"><g id="g368" clip-path="url(#clipPath370)"><g id="g374"><g id="g376"><path id="path388" fill="url(#linearGradient378)" stroke="none" d="M 3.42,9.567 C 3.301,9.294 3.572,8.005 4.152,6.04 l 0,0 C 4.731,4.074 5.272,2.605 5.519,2.441 l 0,0 1.859,-1.266 C 7.084,1.421 6.27,3.597 5.475,6.295 l 0,0 C 4.691,8.956 4.196,11.201 4.292,11.613 l 0,0 c 0.002,0.019 0.006,0.037 0.012,0.056 l 0,0 L 3.42,9.567 Z"/></g></g></g></g><g id="g390"><g id="g392" clip-path="url(#clipPath394)"><g id="g398"><g id="g400"><path id="path410" fill="url(#linearGradient402)" stroke="none" d="M 7.404,1.158 7.392,1.166 C 7.395,1.163 7.4,1.16 7.404,1.158 M 7.419,1.148 7.418,1.15 7.406,1.156 C 7.405,1.157 7.405,1.157 7.404,1.158 l 0,0 0.015,-0.01 z"/></g></g></g></g><g id="g412"><g id="g414" clip-path="url(#clipPath416)"><g id="g420"><g id="g422"><path id="path432" fill="url(#linearGradient424)" stroke="none" d="M 6.297,12.523 5.557,12.305 C 5.385,12.254 5.259,12.124 5.206,11.966 l 0,0 C 5.044,11.698 5.553,9.327 6.387,6.496 l 0,0 C 7.157,3.885 7.947,1.756 8.286,1.33 l 0,0 C 8.307,1.305 8.326,1.285 8.343,1.273 l 0,0 C 8.474,1.155 8.661,1.105 8.842,1.159 l 0,0 0.742,0.219 c 0.374,0.111 0.623,0.444 0.642,0.813 l 0,0 c 0.059,0.491 -0.41,2.608 -1.145,5.102 l 0,0 c -0.762,2.586 -1.545,4.676 -1.84,4.943 l 0,0 C 7.072,12.44 6.819,12.56 6.551,12.56 l 0,0 c -0.084,0 -0.169,-0.012 -0.254,-0.037"/></g></g></g></g><g id="g434"><g id="g436" clip-path="url(#clipPath438)"><g id="g442"><g id="g444"><path id="path456" fill="url(#linearGradient446)" stroke="none" d="M 6.297,12.523 5.557,12.305 C 5.385,12.254 5.259,12.124 5.206,11.966 l 0,0 C 5.044,11.698 5.553,9.327 6.387,6.496 l 0,0 C 7.157,3.885 7.947,1.756 8.286,1.33 l 0,0 C 8.307,1.305 8.326,1.285 8.343,1.273 l 0,0 C 8.474,1.155 8.661,1.105 8.842,1.159 l 0,0 0.742,0.219 c 0.374,0.111 0.623,0.444 0.642,0.813 l 0,0 c 0.059,0.491 -0.41,2.608 -1.145,5.102 l 0,0 c -0.762,2.586 -1.545,4.676 -1.84,4.943 l 0,0 C 7.072,12.44 6.819,12.56 6.551,12.56 l 0,0 c -0.084,0 -0.169,-0.012 -0.254,-0.037"/></g></g></g></g><g id="g458"><g id="g460" clip-path="url(#clipPath462)"><g id="g466"><g id="g468"><path id="path480" fill="url(#linearGradient470)" stroke="none" d="M 4.432,11.788 C 4.351,11.765 4.298,11.693 4.292,11.613 l 0,0 C 4.196,11.201 4.691,8.956 5.475,6.295 l 0,0 C 6.298,3.505 7.14,1.273 7.406,1.156 l 0,0 C 7.454,1.123 7.515,1.111 7.575,1.128 l 0,0 0.707,0.208 C 7.941,1.772 7.154,3.895 6.387,6.496 l 0,0 c -0.834,2.831 -1.343,5.202 -1.181,5.47 l 0,0 c 0.007,0.021 0.019,0.039 0.028,0.059 l 0,0 -0.802,-0.237 z"/></g></g></g></g><g id="g482"><g id="g484" clip-path="url(#clipPath486)"><g id="g490"><g id="g502"><g id="g504" clip-path="url(#clipPath494)"><g id="g506"><g id="g510"><g id="g512" clip-path="url(#clipPath498)" opacity=".5"><g id="g514" transform="translate(21.9287,13.3291)"><path id="path516" fill="none" stroke="#231f20" stroke-dasharray="none" stroke-linecap="butt" stroke-linejoin="round" stroke-miterlimit="10" stroke-opacity="1" stroke-width="1" d="m 0,0 c 0,5.483 -4.445,9.928 -9.929,9.928 -5.483,0 -9.928,-4.445 -9.928,-9.928 0,-0.487 0.036,-0.966 0.104,-1.434 0.059,-0.765 0.047,-1.596 0.059,-2.278 0.013,-0.735 0.029,-1.678 0.029,-1.678 l 0,0 c 0.01,-0.589 0.219,-1.554 0.591,-2.605 0.299,-0.844 0.645,-1.577 0.957,-2.07 l -10e-4,-0.001 c 0,0 0.002,-0.003 0.005,-0.007 0.051,-0.08 0.102,-0.155 0.151,-0.222 0.211,-0.31 0.586,-0.856 0.781,-1.112 0.023,-0.032 0.046,-0.062 0.068,-0.087 0.205,-0.245 0.345,-0.37 0.536,-0.474 0.19,-0.103 0.335,-0.021 0.335,-0.021 0.12,0.036 0.143,0.377 0.084,0.929 l 1.648,-1.12 c 0.045,-0.028 0.101,-0.038 0.156,-0.021 l 0.707,0.208 0.004,-0.006 c 0.021,-0.025 0.04,-0.045 0.057,-0.058 0.131,-0.118 0.318,-0.167 0.5,-0.113 l 0.741,0.219 c 0.375,0.11 0.623,0.443 0.642,0.812 0.06,0.492 -0.409,2.609 -1.145,5.103 -0.762,2.586 -1.545,4.676 -1.839,4.943 -0.222,0.267 -0.59,0.392 -0.944,0.287 l -0.741,-0.218 c -0.151,-0.044 -0.266,-0.15 -0.328,-0.282 l -0.797,-0.235 c -0.052,-0.015 -0.093,-0.051 -0.117,-0.096 l -0.754,-1.79 c -0.008,0.015 -0.016,0.031 -0.024,0.045 l -0.066,0.184 c -0.2,0.738 -0.307,1.515 -0.307,2.317 0,1.364 0.309,2.655 0.861,3.809 0.235,0.016 0.452,0.152 0.589,0.378 1.639,2.712 4.336,4.298 7.386,4.298 3.051,0 5.747,-1.586 7.387,-4.298 0.136,-0.226 0.354,-0.362 0.589,-0.378 0.552,-1.154 0.861,-2.445 0.861,-3.809 0,-0.847 -0.12,-1.665 -0.342,-2.44 l -0.022,-0.061 c -0.008,-0.014 -0.016,-0.03 -0.023,-0.045 l -0.754,1.79 c -0.025,0.045 -0.065,0.081 -0.118,0.096 l -0.796,0.235 c -0.062,0.132 -0.178,0.238 -0.329,0.282 l -0.74,0.218 C -4.571,-0.701 -4.938,-0.826 -5.16,-1.093 -5.455,-1.36 -6.237,-3.45 -7,-6.036 c -0.735,-2.494 -1.205,-4.611 -1.145,-5.103 0.02,-0.369 0.268,-0.702 0.642,-0.812 l 0.741,-0.219 c 0.182,-0.054 0.369,-0.005 0.5,0.113 0.018,0.013 0.036,0.033 0.057,0.058 0.002,0.002 0.003,0.004 0.005,0.006 l 0.706,-0.208 c 0.056,-0.017 0.111,-0.007 0.157,0.021 l 1.648,1.12 c -0.06,-0.552 -0.037,-0.893 0.084,-0.929 0,0 0.144,-0.082 0.334,0.021 0.191,0.104 0.332,0.229 0.537,0.474 0.021,0.025 0.045,0.055 0.068,0.087 0.194,0.256 0.569,0.802 0.781,1.112 0.049,0.067 0.099,0.142 0.151,0.222 0.002,0.004 0.004,0.007 0.004,0.007 l 0,0.001 c 0.312,0.493 0.658,1.226 0.957,2.07 0.372,1.051 0.581,2.016 0.59,2.605 0,0 0.016,0.943 0.029,1.678 0.013,0.735 -0.001,1.643 0.075,2.456 l 0,0 C -0.027,-0.845 0,-0.425 0,0 Z"/></g></g></g></g></g></g></g><g id="g518"><g id="g562"><g id="g564" clip-path="url(#clipPath522)" opacity=".2"><g id="g566"><g id="g568" clip-path="url(#clipPath526)"><g id="g570"><g id="g574" mask="url(#mask542)"><g id="g576"><path id="path578" fill="url(#radialGradient554)" stroke="none" d="m 11.654,1.013 c 0,-0.453 -1.63,-0.822 -3.64,-0.822 -2.011,0 -3.641,0.369 -3.641,0.822 0,0.454 1.63,0.821 3.641,0.821 2.01,0 3.64,-0.367 3.64,-0.821"/></g></g></g></g></g></g></g></g><g id="g580"><g id="g624"><g id="g626" clip-path="url(#clipPath584)" opacity=".2"><g id="g628"><g id="g630" clip-path="url(#clipPath588)"><g id="g632"><g id="g636" mask="url(#mask604)"><g id="g638"><path id="path640" fill="url(#radialGradient616)" stroke="none" d="m 19.744,1.013 c 0,-0.453 -1.63,-0.822 -3.64,-0.822 -2.011,0 -3.641,0.369 -3.641,0.822 0,0.454 1.63,0.821 3.641,0.821 2.01,0 3.64,-0.367 3.64,-0.821"/></g></g></g></g></g></g></g></g></g></g></g></svg>