<svg xmlns="http://www.w3.org/2000/svg" xmlns:svg="http://www.w3.org/2000/svg" xmlns:xlink="http://www.w3.org/1999/xlink" id="svg2485" width="24" height="24" version="1.0" viewBox="0 0 24 24"><metadata id="metadata71"/><defs id="defs2487"><linearGradient id="linearGradient5126"><stop id="stop5128" offset="0" stop-color="#fff" stop-opacity="1"/><stop id="stop5130" offset="1" stop-color="#fff" stop-opacity="0"/></linearGradient><linearGradient id="linearGradient5118"><stop id="stop5120" offset="0" stop-color="#9d9d9d" stop-opacity="1"/><stop id="stop5122" offset="1" stop-color="#fff" stop-opacity="1"/></linearGradient><linearGradient id="linearGradient2793-2-0-669-94-2"><stop id="stop4681-3-1" offset="0" stop-color="#b4b4b4" stop-opacity="1"/><stop id="stop4683-67-4" offset="1" stop-color="#fff" stop-opacity="1"/></linearGradient><linearGradient id="linearGradient3820-7-2-1-2-6"><stop id="stop3822-2-6-3-3-7" offset="0" stop-color="#3d3d3d" stop-opacity="1"/><stop id="stop3864-8-7-7-9-1" offset=".5" stop-color="#686868" stop-opacity=".498"/><stop id="stop3824-1-2-5-0-3" offset="1" stop-color="#686868" stop-opacity="0"/></linearGradient><linearGradient id="linearGradient2867-449-88-871-390-598-476-591-434-148-57-177-3-8-1"><stop id="stop3750-8-9-7" offset="0" stop-color="#90dbec" stop-opacity="1"/><stop id="stop3752-3-2-4" offset=".262" stop-color="#42baea" stop-opacity="1"/><stop id="stop3754-7-2-4" offset=".705" stop-color="#3689e6" stop-opacity="1"/><stop id="stop3756-9-3-7" offset="1" stop-color="#2b63a0" stop-opacity="1"/></linearGradient><radialGradient id="radialGradient5362-3" cx="99.157" cy="186.171" r="62.769" fx="99.157" fy="186.171" gradientTransform="matrix(0.12745119,0,0,0.03186282,-0.63768092,15.068307)" gradientUnits="userSpaceOnUse" xlink:href="#linearGradient3820-7-2-1-2-6"/><linearGradient id="linearGradient4393-3" x1="-5.001" x2="46.68" y1="35" y2="35" gradientTransform="matrix(0.41666667,0,0,0.69078949,2.0000002,-8.6151315)" gradientUnits="userSpaceOnUse" xlink:href="#linearGradient2867-449-88-871-390-598-476-591-434-148-57-177-3-8-1"/><linearGradient id="linearGradient3457-7-6-0" x1="-20.447" x2="-48.479" y1="-93.092" y2="-93.092" gradientTransform="matrix(0.1274027,0,0,0.11335404,15.319254,13.143213)" gradientUnits="userSpaceOnUse" spreadMethod="reflect" xlink:href="#linearGradient2793-2-0-669-94-2"/><linearGradient id="linearGradient4760-6" x1="30" x2="30" y1="7" y2="43" gradientTransform="matrix(0.38999999,0,0,0.48648648,2.6400001,0.21283805)" gradientUnits="userSpaceOnUse" xlink:href="#linearGradient4762-0"/><linearGradient id="linearGradient4762-0"><stop id="stop4764-6" offset="0" stop-color="#fff" stop-opacity="1"/><stop id="stop4766-2" offset=".05" stop-color="#fff" stop-opacity=".235"/><stop id="stop4768-6" offset=".95" stop-color="#fff" stop-opacity=".157"/><stop id="stop4770-1" offset="1" stop-color="#fff" stop-opacity=".392"/></linearGradient><linearGradient id="linearGradient5508-8" x1="13.682" x2="17.773" y1="17.458" y2="35.717" gradientTransform="matrix(0.7333329,0,0,1.0456075,-1.7833277,-15.425594)" gradientUnits="userSpaceOnUse" xlink:href="#linearGradient5126"/><linearGradient id="linearGradient5510-2" x1="25.273" x2="27.318" y1="17.458" y2="35.717" gradientTransform="matrix(0.7333329,0,0,1.0609841,-4.2833279,-15.834426)" gradientUnits="userSpaceOnUse" xlink:href="#linearGradient5126"/><radialGradient id="radialGradient5132-0" cx="16.5" cy="7.5" r="3.5" fx="16.5" fy="7.5" gradientTransform="matrix(0.40087859,0,0,0.44264048,2.0766802,2.6801962)" gradientUnits="userSpaceOnUse" xlink:href="#linearGradient5126"/><linearGradient id="linearGradient5066-8" x1="-17.121" x2="-45.762" y1="-93.092" y2="-93.092" gradientTransform="matrix(0.27027139,0,0,0.07847503,19.071742,11.125783)" gradientUnits="userSpaceOnUse" spreadMethod="reflect" xlink:href="#linearGradient5118"/><linearGradient id="linearGradient925" x1="-123.758" x2="-94.738" y1="-96.233" y2="-96.233" gradientTransform="matrix(0.27027138,0,0,0.24691973,19.071742,29.201922)" gradientUnits="userSpaceOnUse" spreadMethod="reflect" xlink:href="#linearGradient5118"/></defs><path id="rect3268-6-4-0" fill="url(#linearGradient5066-8)" fill-opacity="1" fill-rule="nonzero" stroke="none" stroke-width="1" d="m 12,3.9598523 c -3.047,0 -5.5000002,0.3368356 -5.5000002,0.7552367 V 9.7500007 C 6.4999998,9.3315996 8.953,8.994764 12,8.994764 c 3.047,0 5.5,0.3368356 5.5,0.7552367 V 4.715089 C 17.5,4.2966879 15.047,3.9598523 12,3.9598523 Z" color="#000" display="inline" enable-background="accumulate" overflow="visible" visibility="visible" style="marker:none"/><rect id="rect3268-4" width="11" height="18" x="-17.5" y="4" fill="url(#linearGradient925)" fill-opacity="1" stroke="none" stroke-dasharray="none" stroke-dashoffset="0" stroke-linecap="butt" stroke-linejoin="miter" stroke-miterlimit="4" stroke-opacity="1" stroke-width="1" color="#000" display="block" enable-background="accumulate" opacity="1" overflow="visible" rx="5.48" ry=".75" transform="scale(-1,1)" vector-effect="none" visibility="visible" style="marker:none;font-variant-east_asian:normal"/><path id="path3818-0-5" fill="url(#radialGradient5362-3)" fill-opacity="1" stroke="none" stroke-width="1" d="m 20,21.000224 a 8.0000005,2.0000001 0 0 1 -16.0000005,0 8.0000005,2.0000001 0 1 1 16.0000005,0 z"/><rect id="rect3268-0-1" width="11.125" height="13" x="6.5" y="9" fill="url(#linearGradient4393-3)" fill-opacity="1" fill-rule="nonzero" stroke="none" stroke-width="1" color="#000" display="inline" enable-background="accumulate" overflow="visible" rx="5.563" ry=".757" visibility="visible" style="marker:none"/><path id="rect3268-0" fill="#000" fill-opacity="0" fill-rule="nonzero" stroke="#00537d" stroke-dasharray="none" stroke-dashoffset="0" stroke-linecap="butt" stroke-linejoin="round" stroke-miterlimit="4" stroke-opacity="1" stroke-width="1" d="m 17,9.7715138 c 0,-0.4272923 -2.23,-0.7712843 -5,-0.7712843 -2.7700007,0 -5,0.343992 -5,0.7712843" color="#000" display="inline" enable-background="accumulate" opacity=".5" overflow="visible" visibility="visible" style="marker:none"/><path id="rect3268-3-9" fill="url(#linearGradient3457-7-6-0)" fill-opacity="1" fill-rule="nonzero" stroke="none" stroke-width="1" d="M 14.5,3.5 V 2.1136364 c 0,-0.3409801 -1.115001,-0.6136365 -2.5,-0.6136365 -1.385,0 -2.5,0.2726564 -2.5,0.6136365 V 3.5" color="#000" display="inline" enable-background="accumulate" overflow="visible" visibility="visible" style="marker:none"/><path id="rect3268-3" fill="none" stroke="#000" stroke-dasharray="none" stroke-dashoffset="0" stroke-linecap="butt" stroke-linejoin="miter" stroke-miterlimit="7" stroke-opacity="1" stroke-width="1" d="M 14.499999,3.5 V 1.9602272 c 0,-0.255735 -1.115,-0.4602273 -2.5,-0.4602273 C 10.614998,1.4999999 9.5,1.7044922 9.5,1.9602272 V 3.5" color="#000" display="block" enable-background="accumulate" opacity=".3" overflow="visible" visibility="visible" style="marker:none"/><path id="path4752" fill="none" stroke="url(#linearGradient4760-6)" stroke-dasharray="none" stroke-dashoffset="0" stroke-linecap="butt" stroke-linejoin="miter" stroke-miterlimit="7" stroke-opacity="1" stroke-width="1" d="m 12,4.496427 c -1.446857,0 -2.3755598,0.083931 -3.3056242,0.2128381 -0.4650338,0.064457 -0.8405151,0.136566 -1.0725009,0.2128381 -0.063796,0.020972 -0.083142,0.027664 -0.121875,0.045608 l 0.00391,15.6674408 c 0.038735,0.01795 0.058079,0.02463 0.121875,0.04561 0.2319859,0.07627 0.6035608,0.0976 1.0685946,0.162056 0.9300644,0.128906 1.8587675,0.162056 3.3056245,0.162056 1.446856,0 2.37556,-0.02869 3.305624,-0.157595 0.465034,-0.06445 0.840515,-0.08132 1.072501,-0.157595 0.06379,-0.02098 0.08314,-0.02767 0.121875,-0.04561 V 4.9677113 C 16.461266,4.9497672 16.441921,4.9430778 16.378125,4.9221032 16.146139,4.8458311 15.770658,4.7737184 15.305624,4.7092651 14.37556,4.5803576 13.446856,4.496427 12,4.496427 Z" color="#000" display="block" enable-background="accumulate" opacity=".8" overflow="visible" visibility="visible" style="marker:none"/><rect id="rect3268" width="11" height="18.5" x="6.5" y="3.5" fill="none" stroke="#000" stroke-dasharray="none" stroke-dashoffset="0" stroke-linecap="butt" stroke-linejoin="miter" stroke-miterlimit="7" stroke-opacity="1" stroke-width="1" color="#000" display="block" enable-background="accumulate" opacity=".3" overflow="visible" rx="5.465" ry=".75" visibility="visible" style="marker:none"/><path id="path5194" fill="url(#linearGradient5508-8)" fill-opacity="1" fill-rule="nonzero" stroke="none" stroke-width="1" d="m 11.25,4 c -1.6063417,0.06087 -2.253633,0.037444 -3,0.2174795 V 21.802952 c 0.746367,0.180036 1.3936583,0.300241 3,0.361111 z" display="inline" opacity=".3" overflow="visible" visibility="visible" style="marker:none"/><path id="rect3244" fill="url(#linearGradient5510-2)" fill-opacity="1" fill-rule="nonzero" stroke="none" stroke-width="1" d="M 14.25,4.0089807 V 21.936389 c 0.584306,0 1.152144,-0.05977 1.5,-0.144914 V 4.2320194 C 15.402144,4.1468778 14.818336,4.0720199 14.25,4.0089807 Z" display="inline" opacity=".1" overflow="visible" visibility="visible" style="marker:none"/><path id="path5124" fill="url(#radialGradient5132-0)" fill-opacity="1" fill-rule="nonzero" stroke="none" stroke-width="1.37" d="m 10.094252,6 a 1.4030751,1.5492429 0 1 1 -2.80615,0 1.4030752,1.5492417 0 1 1 2.80615,0 z" color="#000" display="inline" enable-background="accumulate" opacity=".2" overflow="visible" visibility="visible" style="marker:none"/><path id="rect3268-0-7" fill="none" stroke="#fff" stroke-dasharray="none" stroke-dashoffset="0" stroke-linecap="butt" stroke-linejoin="miter" stroke-miterlimit="7" stroke-opacity="1" stroke-width="1" d="M 17.236438,10.5 C 16.559151,10.15416 14.476967,9.903625 12,9.903625 c -2.4686677,0 -4.545196,0.248859 -5.2295849,0.592902" color="#000" display="block" enable-background="accumulate" opacity=".2" overflow="visible" visibility="visible" style="marker:none"/></svg>