<svg xmlns="http://www.w3.org/2000/svg" xmlns:svg="http://www.w3.org/2000/svg" xmlns:xlink="http://www.w3.org/1999/xlink" id="svg4100" width="24" height="24" version="1.1"><defs id="defs4102"><linearGradient id="linearGradient3820-7-2-1"><stop id="stop3822-2-6-3" offset="0" stop-color="#3d3d3d" stop-opacity="1"/><stop id="stop3864-8-7-7" offset=".5" stop-color="#686868" stop-opacity=".498"/><stop id="stop3824-1-2-5" offset="1" stop-color="#686868" stop-opacity="0"/></linearGradient><linearGradient id="linearGradient947"><stop id="stop943" offset="0" stop-color="#64baff" stop-opacity="1"/><stop id="stop945" offset="1" stop-color="#3689e6" stop-opacity="1"/></linearGradient><radialGradient id="radialGradient3108" cx="99.157" cy="186.171" r="62.769" fx="99.157" fy="186.171" gradientTransform="matrix(0.11151981,0,0,0.03548359,0.942029,15.166729)" gradientUnits="userSpaceOnUse" xlink:href="#linearGradient3820-7-2-1"/><linearGradient id="linearGradient1295" x1="27.583" x2="27.583" y1="7.458" y2="43.432" gradientTransform="matrix(1.0922637,0,0,1.1672451,-54.136517,-5.7019744)" gradientUnits="userSpaceOnUse" xlink:href="#linearGradient954"/><linearGradient id="linearGradient954"><stop id="stop946" offset="0" stop-color="#fff" stop-opacity="1"/><stop id="stop948" offset=".333" stop-color="#fff" stop-opacity=".235"/><stop id="stop950" offset=".738" stop-color="#fff" stop-opacity=".157"/><stop id="stop952" offset="1" stop-color="#fff" stop-opacity=".392"/></linearGradient><linearGradient id="linearGradient880-3" x1="-24" x2="-24" y1="2" y2="46.525" gradientTransform="matrix(0.45454547,0,0,0.46665642,22.909092,0.80024211)" gradientUnits="userSpaceOnUse" xlink:href="#linearGradient947"/></defs><metadata id="metadata4105"/><path id="path3818-0-2-5" fill="url(#radialGradient3108)" fill-opacity="1" stroke="none" d="m 19,21.772727 a 7,2.2272727 0 0 1 -14,0 7,2.2272727 0 1 1 14,0 z"/><path id="path855-0" fill="url(#linearGradient880-3)" fill-opacity="1" stroke-width="1" d="M 9.5174248,22.291595 C 7.1099826,21.601751 5.6493817,19.884698 4.9181154,16.884731 4.5208231,15.254883 4.3659466,10.887426 4.6334426,8.8570041 c 0.6033627,-4.579869 2.443968,-6.793519 6.0356994,-7.258976 1.003636,-0.130062 1.671876,-0.130351 2.66881,-9.33e-4 3.619576,0.469069 5.443035,2.708656 6.05684,7.439054 0.212282,1.6360129 0.08431,6.0814009 -0.213977,7.4330249 -0.666387,3.01958 -1.926204,4.770068 -4.039968,5.613443 -1.112819,0.444009 -4.379842,0.56555 -5.6234222,0.209206 z"/><path id="path855-3-63" fill="none" stroke="#002e99" stroke-width="1" d="m 9.5197707,22.289843 c -2.403962,-0.689844 -3.862454,-2.406897 -4.592672,-5.406864 -0.396717,-1.629848 -0.551367,-5.997305 -0.284262,-8.027727 0.602493,-4.579869 2.440446,-6.793519 6.0269953,-7.258971 1.002189,-0.130067 1.66946,-0.130356 2.664958,-9.33e-4 3.614354,0.469064 5.435181,2.708651 6.048095,7.439049 0.211975,1.636013 0.08419,6.081401 -0.213664,7.433025 -0.665429,3.01958 -1.923424,4.770068 -4.034137,5.613443 -1.111218,0.444009 -4.373526,0.56555 -5.6153133,0.209206 z" opacity=".5"/><path id="path855-3-6-0" fill="none" fill-opacity="1" stroke="url(#linearGradient1295)" stroke-dasharray="none" stroke-dashoffset="0" stroke-linecap="round" stroke-linejoin="round" stroke-miterlimit="4" stroke-opacity="1" stroke-width="2.324" d="m -21.181641,2.703125 c -2.137894,-0.269845 -3.468045,-0.2698216 -5.621093,0.00195 -3.775644,0.476591 -6.473421,1.7959245 -8.464844,4.1289063 -1.991423,2.3329818 -3.294969,5.7724956 -3.94336,10.5664066 -0.555918,4.110205 -0.180914,13.679927 0.605469,16.822265 1.554212,6.210525 4.432345,9.472832 9.414063,10.863282 1.119891,0.312574 3.602504,0.469492 5.988281,0.382812 2.385777,-0.08668 4.806393,-0.434059 5.75,-0.800781 4.338268,-1.686018 6.845264,-5.028217 8.2695312,-11.314453 C -8.6185904,30.859782 -8.29993,20.998524 -8.7285156,17.78125 -9.3892421,12.821355 -10.692382,9.2832044 -12.685547,6.8984375 -14.678712,4.5136706 -17.376459,3.1834447 -21.181641,2.703125 Z" opacity=".5" transform="matrix(0.42009876,0,0,0.44067793,22.08869,1.4437231)" vector-effect="none" style="marker:none"/><path id="path3205-6-6" fill="#002e99" fill-opacity="1" stroke="none" stroke-dasharray="none" stroke-dashoffset="0" stroke-linecap="butt" stroke-linejoin="miter" stroke-miterlimit="4" stroke-opacity="1" stroke-width="1" d="M 10.996094,5.25 A 1.0001001,1.0001001 0 0 0 10,6.25 V 9.703125 L 9.0644531,9.0097656 A 1.0001001,1.0001001 0 0 0 7.7304688,9.1386719 l -0.65625,0.71875 a 1.0001001,1.0001001 0 0 0 0.1367187,1.4726561 l 2.6113281,1.972656 -2.6445312,2.357422 a 1.0001001,1.0001001 0 0 0 -0.083984,1.40625 l 0.6875,0.78125 a 1.0001001,1.0001001 0 0 0 1.4140625,0.08789 L 10,17.222656 v 2.496094 a 1.0001001,1.0001001 0 0 0 1.712891,0.703125 l 4.53125,-4.59375 a 1.0001001,1.0001001 0 0 0 -0.107422,-1.5 l -1.632813,-1.238281 1.666016,-1.503906 a 1.0001001,1.0001001 0 0 0 0.04492,-1.441407 l -4.5,-4.5937498 A 1.0001001,1.0001001 0 0 0 10.996094,5.25 Z" opacity=".05" vector-effect="none" style="font-variation-settings:normal;marker:none"/><path id="path3205-6" fill="#002e99" fill-opacity="1" stroke="none" stroke-dasharray="none" stroke-dashoffset="0" stroke-linecap="butt" stroke-linejoin="miter" stroke-miterlimit="4" stroke-opacity="1" stroke-width="1" d="m 11,6.25025 v 5.4375 L 8.46875,9.81275 7.8125,10.5315 11,12.93775 V 13.594 L 7.84375,16.4065 8.53125,17.18775 11,15.00025 V 19.719 L 15.53125,15.12525 12.9375,13.1565 15.5,10.844 Z m 1,2.4375 2.0625,2.09375 L 12.125,12.56275 12,12.469 Z M 12.1875,13.844 14.03125,15.25025 12,17.31275 V 14.0315 Z" opacity=".15" vector-effect="none" style="font-variation-settings:normal;marker:none"/><path id="path3205" fill="#fff" fill-opacity="1" stroke="none" d="M 11,5.2499999 V 10.6875 L 8.46875,8.8124999 7.8125,9.5312499 11,11.9375 v 0.65625 L 7.84375,15.40625 8.53125,16.1875 11,14 v 4.71875 L 15.53125,14.125 12.9375,12.15625 15.5,9.8437499 Z m 1,2.4375 2.0625,2.09375 L 12.125,11.5625 12,11.46875 Z M 12.1875,12.84375 14.03125,14.25 12,16.3125 v -3.28125 z" style="font-variation-settings:normal"/></svg>