<svg xmlns="http://www.w3.org/2000/svg" xmlns:svg="http://www.w3.org/2000/svg" xmlns:xlink="http://www.w3.org/1999/xlink" id="svg3123" width="24" height="24" version="1.0"><metadata id="metadata157"/><defs id="defs3125"><radialGradient id="radialGradient3025" cx="605.714" cy="486.648" r="117.143" fx="605.714" fy="486.648" gradientTransform="matrix(0.0628545,0,0,0.02058823,1.294955,34.451367)" gradientUnits="userSpaceOnUse" xlink:href="#linearGradient5060"/><linearGradient id="linearGradient5048"><stop id="stop5050" offset="0" stop-color="#000" stop-opacity="0"/><stop id="stop5056" offset=".5" stop-color="#000" stop-opacity="1"/><stop id="stop5052" offset="1" stop-color="#000" stop-opacity="0"/></linearGradient><linearGradient id="linearGradient3023" x1="302.857" x2="302.857" y1="366.648" y2="609.505" gradientTransform="matrix(0.0628545,0,0,0.02058823,1.2825853,34.451367)" gradientUnits="userSpaceOnUse" xlink:href="#linearGradient5048"/><linearGradient id="linearGradient5060"><stop id="stop5062" offset="0" stop-color="#000" stop-opacity="1"/><stop id="stop5064" offset="1" stop-color="#000" stop-opacity="0"/></linearGradient><radialGradient id="radialGradient3021" cx="605.714" cy="486.648" r="117.143" fx="605.714" fy="486.648" gradientTransform="matrix(-0.0628545,0,0,0.02058823,46.705044,34.451367)" gradientUnits="userSpaceOnUse" xlink:href="#linearGradient5060"/><linearGradient id="linearGradient18344"><stop id="stop18346" offset="0" stop-color="#2f3537" stop-opacity="1"/><stop id="stop18354" offset=".3" stop-color="#8a8e8e" stop-opacity="1"/><stop id="stop18348" offset="1" stop-color="#2f3537" stop-opacity="1"/></linearGradient><linearGradient id="linearGradient3119" x1="8.563" x2="8.563" y1="4.647" y2="45.818" gradientTransform="matrix(0.5120698,0,0,0.5553992,-26.917304,-0.7741826)" gradientUnits="userSpaceOnUse" xlink:href="#linearGradient18344"/><linearGradient id="linearGradient5428"><stop id="stop5430" offset="0" stop-color="#7a7c7c" stop-opacity="1"/><stop id="stop5432" offset="1" stop-color="#33393a" stop-opacity="1"/></linearGradient><radialGradient id="radialGradient3117" cx="76.166" cy="14.782" r="21" fx="76.166" fy="14.782" gradientTransform="matrix(2.154094,0,0,0.07786419,-151.98292,4.8440247)" gradientUnits="userSpaceOnUse" xlink:href="#linearGradient5428"/><linearGradient id="linearGradient25793"><stop id="stop25795" offset="0" stop-color="#f0f0f4" stop-opacity="1"/><stop id="stop25819" offset=".037" stop-color="#eeeeec" stop-opacity="1"/><stop id="stop25817" offset=".393" stop-color="#eeeeec" stop-opacity=".696"/><stop id="stop25803" offset=".908" stop-color="#a1a29f" stop-opacity="1"/><stop id="stop25799" offset="1" stop-color="#555753" stop-opacity="1"/></linearGradient><linearGradient id="linearGradient3114" x1="697.914" x2="700.414" y1="327.784" y2="496.338" gradientTransform="matrix(0.0769585,0,0,0.08303838,-43.376795,-21.218605)" gradientUnits="userSpaceOnUse" xlink:href="#linearGradient25793"/><linearGradient id="linearGradient26816"><stop id="stop26818" offset="0" stop-color="#fff" stop-opacity="1"/><stop id="stop26820" offset="1" stop-color="#eeeeec" stop-opacity="0"/></linearGradient><radialGradient id="radialGradient3111" cx="400.296" cy="127.655" r="2.022" fx="400.296" fy="127.655" gradientTransform="matrix(0.5294073,1.6054926e-5,-7.0512917e-6,0.25712,-197.22792,-24.232658)" gradientUnits="userSpaceOnUse" xlink:href="#linearGradient26816"/><linearGradient id="linearGradient26830"><stop id="stop26832" offset="0" stop-color="#fff" stop-opacity="1"/><stop id="stop26834" offset="1" stop-color="#fff" stop-opacity="0"/></linearGradient><radialGradient id="radialGradient3108" cx="399.878" cy="127.247" r="2.022" fx="399.878" fy="127.247" gradientTransform="matrix(0.4708328,-0.04895889,0.06094931,0.2300824,-181.17516,-1.0708632)" gradientUnits="userSpaceOnUse" xlink:href="#linearGradient26830"/><linearGradient id="linearGradient18403"><stop id="stop18405" offset="0" stop-color="#eeeeec" stop-opacity="1"/><stop id="stop18407" offset="1" stop-color="#eeeeec" stop-opacity="0"/></linearGradient><radialGradient id="radialGradient3105" cx="427.797" cy="33.605" r="74.908" fx="427.797" fy="33.605" gradientTransform="matrix(-0.2240538,0.05376216,-0.04083939,-0.1883273,115.73153,-7.7998216)" gradientUnits="userSpaceOnUse" xlink:href="#linearGradient18403"/><linearGradient id="linearGradient26168"><stop id="stop26170" offset="0" stop-color="#eeeeec" stop-opacity="1"/><stop id="stop26172" offset="1" stop-color="#eeeeec" stop-opacity="0"/></linearGradient><radialGradient id="radialGradient3101" cx="502.531" cy="217.461" r="74.908" fx="502.531" fy="217.461" gradientTransform="matrix(0.05243909,-0.03829218,0.01792908,0.02997364,-12.077491,28.739844)" gradientUnits="userSpaceOnUse" xlink:href="#linearGradient26168"/><linearGradient id="linearGradient26128"><stop id="stop26130" offset="0" stop-color="#eeeeec" stop-opacity=".953"/><stop id="stop26146" offset=".48" stop-color="#eeeeec" stop-opacity="0"/><stop id="stop26148" offset=".523" stop-color="#eeeeec" stop-opacity=".993"/><stop id="stop26132" offset=".632" stop-color="#eeeeec" stop-opacity="0"/><stop id="stop26134" offset=".738" stop-color="#eeeeec" stop-opacity=".235"/><stop id="stop26136" offset=".834" stop-color="#fff" stop-opacity=".716"/><stop id="stop26142" offset=".905" stop-color="#f6f6f5" stop-opacity=".27"/><stop id="stop26144" offset=".905" stop-color="#f2f2f0" stop-opacity=".277"/><stop id="stop26138" offset="1" stop-color="#eeeeec" stop-opacity="0"/></linearGradient><radialGradient id="radialGradient3098" cx="459.453" cy="170.414" r="74.908" fx="459.453" fy="170.414" gradientTransform="matrix(0.07544327,-1.2226476e-8,0,0.06555618,-19.694917,1.7403194)" gradientUnits="userSpaceOnUse" xlink:href="#linearGradient26128"/><linearGradient id="linearGradient26021"><stop id="stop26023" offset="0" stop-color="#eeeeec" stop-opacity="0"/><stop id="stop26029" offset=".867" stop-color="#eeeeec" stop-opacity=".498"/><stop id="stop26025" offset="1" stop-color="#eeeeec" stop-opacity="0"/></linearGradient><radialGradient id="radialGradient3095" cx="449.882" cy="165.516" r="74.908" fx="449.882" fy="165.516" gradientTransform="matrix(0,-0.05073858,0.05278397,0,6.2623617,35.020661)" gradientUnits="userSpaceOnUse" xlink:href="#linearGradient26021"/><linearGradient id="linearGradient26120"><stop id="stop26122" offset="0" stop-color="#2e3436" stop-opacity="0"/><stop id="stop26124" offset=".473" stop-color="#2e3436" stop-opacity="0"/><stop id="stop26126" offset="1" stop-color="#0f1112" stop-opacity="1"/></linearGradient><radialGradient id="radialGradient3092" cx="529.399" cy="95.382" r="74.908" fx="529.399" fy="95.382" gradientTransform="matrix(0,0.05277248,-0.05046163,0,19.812043,-14.98788)" gradientUnits="userSpaceOnUse" xlink:href="#linearGradient26120"/><linearGradient id="linearGradient3089" x1="469.359" x2="280.018" y1="126.835" y2="225.83" gradientTransform="matrix(0.04670754,0,0,0.06854897,-6.3555464,0.8819419)" gradientUnits="userSpaceOnUse" xlink:href="#linearGradient26075"/><linearGradient id="linearGradient26075"><stop id="stop26077" offset="0" stop-color="#555753" stop-opacity="0"/><stop id="stop26079" offset="1" stop-color="#eeeeec" stop-opacity="1"/></linearGradient><radialGradient id="radialGradient3086" cx="344.261" cy="218.661" r="74.908" fx="344.261" fy="218.661" gradientTransform="matrix(-0.00685942,-0.1301125,0.04680436,-0.00291791,7.1260749,59.158019)" gradientUnits="userSpaceOnUse" xlink:href="#linearGradient26075"/><radialGradient id="radialGradient3083" cx="469.912" cy="131.835" r="74.908" fx="469.912" fy="131.835" gradientTransform="matrix(-0.07022907,-0.0722737,0.06150812,-0.0685738,41.698099,51.838202)" gradientUnits="userSpaceOnUse" xlink:href="#linearGradient8660"/><linearGradient id="linearGradient8690"><stop id="stop8692" offset="0" stop-color="#3a3a3a" stop-opacity="1"/><stop id="stop8694" offset="1" stop-color="#3a3a3a" stop-opacity="0"/></linearGradient><radialGradient id="radialGradient3080" cx="441.357" cy="130.89" r="75.756" fx="441.357" fy="130.89" gradientTransform="matrix(-0.00643105,-0.0467684,0.1457874,-0.02336381,-1.2448522,34.278058)" gradientUnits="userSpaceOnUse" xlink:href="#linearGradient8690"/><linearGradient id="linearGradient8660"><stop id="stop8662" offset="0" stop-color="#2e3436" stop-opacity="1"/><stop id="stop8664" offset="1" stop-color="#555753" stop-opacity="0"/></linearGradient><radialGradient id="radialGradient3078" cx="434.125" cy="98.975" r="74.908" fx="434.125" fy="98.975" gradientTransform="matrix(-0.07508467,0.08105827,-0.09931679,-0.1072186,57.424925,-13.737543)" gradientUnits="userSpaceOnUse" xlink:href="#linearGradient8660"/><linearGradient id="linearGradient26091"><stop id="stop26093" offset="0" stop-color="#2e3436" stop-opacity="1"/><stop id="stop26095" offset="1" stop-color="#fff" stop-opacity="1"/></linearGradient><linearGradient id="linearGradient3075" x1="457.196" x2="457.196" y1="289.778" y2="114.228" gradientTransform="matrix(0.0362164,0,0,0.05315197,-1.5590443,5.1097004)" gradientUnits="userSpaceOnUse" xlink:href="#linearGradient26091"/><linearGradient id="linearGradient26099"><stop id="stop26101" offset="0" stop-color="#eeeeec" stop-opacity="1"/><stop id="stop26103" offset="1" stop-color="#babdb6" stop-opacity="1"/></linearGradient><radialGradient id="radialGradient3073" cx="439.049" cy="111.3" r="75.752" fx="439.049" fy="111.3" gradientTransform="matrix(0.03550462,-0.02981257,0.05772509,0.08077235,-8.2777048,16.975376)" gradientUnits="userSpaceOnUse" xlink:href="#linearGradient26099"/><linearGradient id="linearGradient3069" x1="236.75" x2="222.732" y1="171.62" y2="179.039" gradientTransform="matrix(0.0693886,0,0,0.07028112,-1.7394133,1.7748324)" gradientUnits="userSpaceOnUse" xlink:href="#linearGradient9688"/><linearGradient id="linearGradient9785"><stop id="stop9787" offset="0" stop-color="#eeeeec" stop-opacity="1"/><stop id="stop9789" offset="1" stop-color="#090908" stop-opacity=".966"/></linearGradient><radialGradient id="radialGradient3066" cx="251.69" cy="171.789" r="21.531" fx="251.69" fy="171.789" gradientTransform="matrix(0.02031434,-0.08642755,0.1262225,0.03362891,-10.048302,31.348037)" gradientUnits="userSpaceOnUse" xlink:href="#linearGradient9785"/><linearGradient id="linearGradient9688"><stop id="stop9690" offset="0" stop-color="#eeeeec" stop-opacity="1"/><stop id="stop9692" offset="1" stop-color="#fff" stop-opacity="0"/></linearGradient><radialGradient id="radialGradient3062" cx="258.76" cy="183.644" r="18.578" fx="258.76" fy="183.644" gradientTransform="matrix(0.08681611,-0.00123428,8.9193262e-4,0.06944268,-6.3501255,2.2040319)" gradientUnits="userSpaceOnUse" xlink:href="#linearGradient9688"/><linearGradient id="linearGradient26371"><stop id="stop26373" offset="0" stop-color="#777" stop-opacity="0"/><stop id="stop26375" offset="1" stop-color="#2b2b2b" stop-opacity="1"/></linearGradient><radialGradient id="radialGradient3058" cx="442.295" cy="62.526" r="77.923" fx="442.295" fy="62.526" gradientTransform="matrix(-6.8078266e-6,-0.7928091,0.1352587,0,6.5457989,363.15509)" gradientUnits="userSpaceOnUse" xlink:href="#linearGradient26371"/><radialGradient id="radialGradient3042" cx="9.119" cy="20.823" r="3.177" fx="9.119" fy="20.823" gradientTransform="matrix(0,-0.4109864,1.6624229,0,-28.206988,10.328793)" gradientUnits="userSpaceOnUse" xlink:href="#linearGradient17963"/><linearGradient id="linearGradient17941"><stop id="stop17943" offset="0" stop-color="#e9e9e9" stop-opacity="1"/><stop id="stop17945" offset="0" stop-color="#a7a7a7" stop-opacity="1"/><stop id="stop17947" offset=".529" stop-color="#bebebe" stop-opacity="1"/><stop id="stop17949" offset="1" stop-color="#e7e7e7" stop-opacity="1"/></linearGradient><radialGradient id="radialGradient3039" cx="9.237" cy="17.109" r="2.961" fx="9.237" fy="17.109" gradientTransform="matrix(0.7650995,-3.1729114e-7,1.1408038e-7,0.3024635,-0.565594,-0.2352367)" gradientUnits="userSpaceOnUse" xlink:href="#linearGradient17941"/><linearGradient id="linearGradient17963"><stop id="stop17965" offset="0" stop-color="#dee3e0" stop-opacity="1"/><stop id="stop17967" offset="1" stop-color="#dee3e0" stop-opacity="0"/></linearGradient><radialGradient id="radialGradient3036" cx="14.739" cy="12.007" r=".547" fx="14.739" fy="12.007" gradientTransform="matrix(-2.0487495e-6,-1.4869501,2.0400821,-3.5617813e-6,-18.108074,27.848316)" gradientUnits="userSpaceOnUse" xlink:href="#linearGradient17963"/><linearGradient id="linearGradient5404"><stop id="stop5406" offset="0" stop-color="#fff" stop-opacity="1"/><stop id="stop5408" offset="1" stop-color="#fff" stop-opacity="0"/></linearGradient><linearGradient id="linearGradient3033" x1="15.579" x2="15.579" y1="19.011" y2="50.619" gradientTransform="matrix(0.4749893,0,0,0.4999652,0.6002573,-3.5048813)" gradientUnits="userSpaceOnUse" xlink:href="#linearGradient5404"/><linearGradient id="linearGradient10695"><stop id="stop10697" offset="0" stop-color="#b100cb" stop-opacity="1"/><stop id="stop10699" offset="1" stop-color="#204a87" stop-opacity="0"/></linearGradient><radialGradient id="radialGradient3030" cx="171.25" cy="188.5" r="19" fx="171.25" fy="188.5" gradientTransform="matrix(0.1163274,0,0,0.1223665,-5.8198402,-9.8608238)" gradientUnits="userSpaceOnUse" xlink:href="#linearGradient10695"/></defs><g id="layer1"><g id="g5936" opacity=".3" transform="matrix(0.5217392,0,0,0.6000001,-0.5217403,-7.2000044)"><path id="path5387" fill="url(#radialGradient3021)" fill-opacity="1" fill-rule="nonzero" stroke="none" stroke-width="1" d="m 8.8251297,42.000171 c 0,0 0,4.999724 0,4.999724 C 5.5882785,47.009307 0.99999808,45.879711 1,44.499712 c 0,-1.38 3.6120828,-2.49954 7.8251297,-2.499541 l 0,0 z" display="inline" overflow="visible" visibility="visible" style="marker:none"/><rect id="rect5373" width="30.35" height="5" x="8.825" y="42" fill="url(#linearGradient3023)" fill-opacity="1" fill-rule="nonzero" stroke="none" stroke-width="1" display="inline" overflow="visible" visibility="visible" style="marker:none"/><path id="path5375" fill="url(#radialGradient3025)" fill-opacity="1" fill-rule="nonzero" stroke="none" stroke-width="1" d="m 39.174869,42.000171 c 0,0 0,4.999724 0,4.999724 3.236851,0.0094 7.825131,-1.120184 7.825129,-2.500183 0,-1.38 -3.612082,-2.49954 -7.825129,-2.499541 l 0,0 z" display="inline" overflow="visible" visibility="visible" style="marker:none"/></g><rect id="rect5438" width="20.99" height="14.99" x="1.505" y="4.505" fill="url(#radialGradient3117)" fill-opacity="1" fill-rule="nonzero" stroke="url(#linearGradient3119)" stroke-dasharray="none" stroke-linecap="round" stroke-linejoin="round" stroke-miterlimit="4" stroke-opacity="1" stroke-width="1.01" rx="1.267" ry="1.167"/><rect id="rect5445" width="20" height="13" x="2" y="6" fill="url(#linearGradient3114)" fill-opacity="1" fill-rule="nonzero" stroke="none" rx=".829" ry=".898"/><path id="path5451" fill="url(#radialGradient3111)" fill-opacity="1" fill-rule="nonzero" stroke="none" d="m 16.014259,7.8677702 c 0,0.732909 -0.592521,1.3270536 -1.323426,1.3270536 -0.730906,0 -1.323426,-0.5941446 -1.323426,-1.3270536 0,-0.732909 0.59252,-1.3270536 1.323426,-1.3270536 0.730905,0 1.323426,0.5941446 1.323426,1.3270536 l 0,0 z" opacity=".272"/><path id="path5453" fill="url(#radialGradient3108)" fill-opacity="1" fill-rule="nonzero" stroke="none" d="m 16.112238,8.2973414 c 0,0.5254007 -0.605125,0.9513253 -1.351582,0.9513253 -0.746457,0 -1.351584,-0.4259246 -1.351584,-0.9513253 0,-0.5254006 0.605127,-0.9513251 1.351584,-0.9513251 0.746457,0 1.351582,0.4259245 1.351582,0.9513251 l 0,0 z"/><path id="path5463" fill="url(#radialGradient3105)" fill-opacity="1" fill-rule="nonzero" stroke="none" d="m 19.997158,12.681979 c 0,2.903754 -2.237782,5.25771 -4.998223,5.25771 -2.760442,0 -4.998222,-2.353956 -4.998222,-5.25771 0,-2.9037537 2.23778,-5.2577105 4.998222,-5.2577105 2.760441,0 4.998223,2.3539568 4.998223,5.2577105 z"/><path id="path5465" fill="#888a85" fill-opacity="1" fill-rule="nonzero" stroke="none" d="m 19.497337,12.681979 c 0,2.61338 -2.014002,4.73194 -4.498402,4.73194 -2.484398,0 -4.498401,-2.11856 -4.498401,-4.73194 0,-2.613379 2.014003,-4.7319402 4.498401,-4.7319402 2.4844,0 4.498402,2.1185612 4.498402,4.7319402 z"/><path id="path5467" fill="url(#radialGradient3101)" fill-opacity="1" fill-rule="nonzero" stroke="none" d="m 20.496983,12.681979 c 0,3.194128 -2.46156,5.783481 -5.498047,5.783481 -3.036487,0 -5.4980465,-2.589353 -5.4980465,-5.783481 0,-3.194128 2.4615595,-5.7834805 5.4980465,-5.7834805 3.036487,0 5.498047,2.5893525 5.498047,5.7834805 z"/><path id="path5469" fill="url(#radialGradient3098)" fill-opacity="1" fill-rule="nonzero" stroke="none" d="m 19.96592,12.912004 c 0,2.903752 -2.237782,5.257711 -4.998223,5.257711 -2.760443,0 -4.998223,-2.353959 -4.998223,-5.257711 0,-2.903754 2.23778,-5.2577107 4.998223,-5.2577107 2.760441,0 4.998223,2.3539567 4.998223,5.2577107 z"/><path id="path5471" fill="url(#radialGradient3095)" fill-opacity="1" fill-rule="nonzero" stroke="none" d="m 19.03207,12.504541 c 0,2.270413 -1.805695,4.110946 -4.033135,4.110946 -2.22744,0 -4.033136,-1.840533 -4.033136,-4.110946 0,-2.270416 1.805696,-4.1109506 4.033136,-4.1109506 2.22744,0 4.033135,1.8405346 4.033135,4.1109506 z"/><path id="path5473" fill="url(#radialGradient3092)" fill-opacity="1" fill-rule="nonzero" stroke="none" d="m 18.497692,12.681979 c 0,2.032626 -1.566448,3.680397 -3.498757,3.680397 -1.93231,0 -3.498757,-1.647771 -3.498757,-3.680397 0,-2.032626 1.566447,-3.6803975 3.498757,-3.6803975 1.932309,0 3.498757,1.6477715 3.498757,3.6803975 z" opacity=".851"/><path id="path5475" fill="url(#linearGradient3089)" fill-opacity="1" fill-rule="nonzero" stroke="none" d="m 18.497692,12.681978 c 0,2.032627 -1.566448,3.680398 -3.498757,3.680398 -1.93231,0 -3.498757,-1.647771 -3.498757,-3.680398 0,-2.032626 1.566447,-3.6803973 3.498757,-3.6803973 1.932309,0 3.498757,1.6477713 3.498757,3.6803973 z"/><path id="path5477" fill="url(#radialGradient3086)" fill-opacity="1" fill-rule="nonzero" stroke="none" d="m 18.497692,13.20775 c 0,2.032628 -1.566448,3.680397 -3.498757,3.680397 -1.93231,0 -3.498757,-1.647769 -3.498757,-3.680397 0,-2.032626 1.566447,-3.6803968 3.498757,-3.6803968 1.932309,0 3.498757,1.6477708 3.498757,3.6803968 z"/><path id="path5479" fill="url(#radialGradient3083)" fill-opacity="1" fill-rule="nonzero" stroke="none" d="m 17.864821,13.180206 c 0,1.742251 -1.290363,3.154629 -2.882105,3.154629 -1.591745,0 -2.882106,-1.412378 -2.882106,-3.154629 0,-1.742251 1.290361,-3.154626 2.882106,-3.154626 1.591742,0 2.882105,1.412375 2.882105,3.154626 z" opacity=".54"/><path id="path5481" fill="url(#radialGradient3078)" fill-opacity="1" fill-rule="nonzero" stroke="url(#radialGradient3080)" stroke-dasharray="none" stroke-linecap="round" stroke-linejoin="round" stroke-miterlimit="4" stroke-opacity="1" stroke-width=".148" d="m 17.835802,13.470636 c 0,1.575503 -1.270107,2.8527 -2.836868,2.8527 -1.566759,0 -2.836867,-1.277197 -2.836867,-2.8527 0,-1.575507 1.270108,-2.852707 2.836867,-2.852707 1.566761,0 2.836868,1.2772 2.836868,2.852707 z"/><path id="path5483" fill="url(#radialGradient3073)" fill-opacity="1" fill-rule="nonzero" stroke="url(#linearGradient3075)" stroke-linecap="round" stroke-linejoin="round" stroke-miterlimit="4" stroke-opacity="1" stroke-width=".145" d="m 17.711824,14.259291 c 0,1.575257 -1.215374,2.853729 -2.71289,2.853729 -1.497515,0 -2.712888,-1.278472 -2.712888,-2.853729 0,-1.575259 1.215373,-2.853731 2.712888,-2.853731 1.497516,0 2.71289,1.278472 2.71289,2.853731 z"/><path id="path5485" fill="#2e3436" fill-opacity="1" fill-rule="nonzero" stroke="none" d="m 17.248136,14.25929 c 0,1.306692 -1.007001,2.365971 -2.249201,2.365971 -1.242199,0 -2.2492,-1.059279 -2.2492,-2.365971 0,-1.306689 1.007001,-2.365967 2.2492,-2.365967 1.2422,0 2.249201,1.059278 2.249201,2.365967 z"/><path id="path5487" fill="url(#linearGradient3069)" fill-opacity="1" fill-rule="nonzero" stroke="none" d="m 14.611188,12.926866 c -0.04247,0.01395 -0.08317,0.03024 -0.123599,0.04832 0.04038,-0.0182 0.08117,-0.03427 0.123599,-0.04832 z m 0.884703,0.02635 c 0.01749,0.0069 0.03493,0.01429 0.05204,0.02196 -0.01718,-0.0077 -0.03448,-0.01501 -0.05204,-0.02196 z m -1.153585,0.09884 c -0.0283,0.01718 -0.05555,0.03568 -0.0824,0.05491 0.02665,-0.01923 0.05433,-0.03768 0.0824,-0.05491 z m -0.0824,0.05491 c -0.03229,0.02312 -0.06322,0.04658 -0.09324,0.07248 0.02964,-0.02565 0.06141,-0.04951 0.09324,-0.07248 z m 1.637137,0.09883 c 0.01856,0.01703 0.03666,0.03464 0.05421,0.05271 -0.01755,-0.01799 -0.03567,-0.03575 -0.05421,-0.05271 z m -1.762903,0.0044 c -0.0238,0.02198 -0.04726,0.04441 -0.06939,0.06808 0.02218,-0.02373 0.04556,-0.04602 0.06939,-0.06808 z m -0.06939,0.06808 c -0.168625,0.180434 -0.288014,0.407551 -0.333932,0.661082 -1.29e-4,7.1e-4 1.29e-4,0.0015 0,0.0022 l 0,0.467809 c 0.06956,0.387756 0.308624,0.715411 0.637507,0.904871 l 1.298866,0 c 0.315112,-0.181526 0.546535,-0.489901 0.626668,-0.856549 l 0,-0.0044 0,-0.555659 c -0.03566,-0.165746 -0.101445,-0.320807 -0.192987,-0.456826 -0.07121,-0.09648 -0.153595,-0.166426 -0.242861,-0.204256 l -1.743388,0 c -0.01755,0.01375 -0.03372,0.02754 -0.04987,0.04173 z m -0.333932,1.131086 c -0.0068,-0.03764 -0.01156,-0.0753 -0.01518,-0.114205 0.0035,0.03878 0.0084,0.07647 0.01518,0.114205 z m 0,-0.467809 c -0.0068,0.03782 -0.0117,0.07535 -0.01518,0.114209 0.0036,-0.03837 0.0084,-0.07659 0.01518,-0.114209 z m 2.27898,-0.621547 c 0.01271,0.01488 0.02482,0.03068 0.03686,0.04612 -0.01221,-0.01564 -0.02397,-0.03106 -0.03686,-0.04612 z m -1.41379,2.097448 c 0.02641,0.0091 0.0531,0.01679 0.08023,0.02416 -0.02715,-0.0074 -0.05381,-0.01507 -0.08023,-0.02416 z m 0.843502,0 c -0.02655,0.0091 -0.05294,0.01676 -0.08023,0.02416 0.02713,-0.0074 0.05382,-0.01511 0.08023,-0.02416 z" opacity=".233"/><path id="path5489" fill="url(#radialGradient3066)" fill-opacity="1" fill-rule="nonzero" stroke="none" d="m 13.866536,12.681979 c -0.267574,0.202277 -0.482391,0.475041 -0.61698,0.789333 l 0,1.548928 c 0.140925,0.329311 0.3695,0.611334 0.655066,0.816365 l 2.214018,0 c 0.26953,-0.193767 0.487705,-0.456293 0.629673,-0.762301 l 0,-1.654351 C 16.612657,13.127365 16.40745,12.873017 16.154186,12.681979 l -2.28765,0 z" opacity=".376"/><path id="path5491" fill="#2e3436" fill-opacity="1" fill-rule="nonzero" stroke="none" d="m 14.615956,12.894005 c -0.04195,0.01413 -0.08216,0.03064 -0.1221,0.04895 0.03989,-0.01843 0.08019,-0.03471 0.1221,-0.04895 z m 0.873985,0.0267 c 0.01728,0.007 0.0345,0.01448 0.05141,0.02225 -0.01697,-0.0078 -0.03406,-0.01521 -0.05141,-0.02225 z m -1.139608,0.100125 c -0.02795,0.01741 -0.05488,0.03615 -0.0814,0.05562 0.02632,-0.01948 0.05367,-0.03817 0.0814,-0.05562 z m -0.0814,0.05562 c -0.0319,0.02342 -0.06245,0.04718 -0.09211,0.07343 0.02928,-0.02599 0.06067,-0.05016 0.09211,-0.07343 z m 1.6173,0.100123 c 0.01833,0.01726 0.03622,0.0351 0.05356,0.0534 -0.01734,-0.01823 -0.03524,-0.03621 -0.05356,-0.0534 z m -1.741542,0.0045 c -0.02352,0.02227 -0.04669,0.04499 -0.06855,0.06897 0.02191,-0.02404 0.045,-0.04662 0.06855,-0.06897 z m -0.06855,0.06897 c -0.166583,0.182789 -0.284526,0.412875 -0.329886,0.66972 -1.28e-4,7.2e-4 1.26e-4,0.0015 0,0.0022 l 0,0.47392 c 0.06872,0.392826 0.304885,0.724762 0.629782,0.916694 l 1.283129,0 c 0.311292,-0.183897 0.539912,-0.496301 0.619073,-0.867742 l 0,-0.0045 0,-0.562921 c -0.03523,-0.16791 -0.100215,-0.324998 -0.190649,-0.462797 -0.07035,-0.09774 -0.151731,-0.168602 -0.239916,-0.206923 l -1.722265,0 c -0.01734,0.01393 -0.03331,0.0279 -0.04927,0.04228 z m -0.329886,1.145865 c -0.0067,-0.03813 -0.01142,-0.07629 -0.015,-0.115699 0.0034,0.03928 0.0083,0.07747 0.015,0.115699 z m 0,-0.47392 c -0.0067,0.03831 -0.01155,0.07633 -0.015,0.1157 0.0036,-0.03887 0.0083,-0.07759 0.015,-0.1157 z m 2.251365,-0.62967 c 0.01255,0.01507 0.02452,0.03108 0.03642,0.04673 -0.01207,-0.01585 -0.02368,-0.03147 -0.03642,-0.04673 z m -1.39666,2.124856 c 0.02608,0.0092 0.05245,0.01701 0.07926,0.02448 -0.02682,-0.0075 -0.05315,-0.01527 -0.07926,-0.02448 z m 0.833284,0 c -0.02623,0.0092 -0.0523,0.01698 -0.07926,0.02448 0.02681,-0.0075 0.05317,-0.01531 0.07926,-0.02448 z"/><path id="path5493" fill="url(#radialGradient3062)" fill-opacity="1" fill-rule="nonzero" stroke="none" d="m 14.615956,12.861143 c -0.04195,0.01432 -0.08216,0.03104 -0.1221,0.04958 0.03989,-0.01867 0.08019,-0.03517 0.1221,-0.04958 z m 0.873985,0.02705 c 0.01728,0.0071 0.0345,0.01466 0.05141,0.02254 -0.01697,-0.0079 -0.03406,-0.01541 -0.05141,-0.02254 z m -1.139608,0.101416 c -0.02795,0.01763 -0.05488,0.03662 -0.0814,0.05634 0.02632,-0.01973 0.05367,-0.03867 0.0814,-0.05634 z m -0.0814,0.05634 c -0.0319,0.02373 -0.06245,0.04779 -0.09211,0.07437 0.02928,-0.02632 0.06067,-0.0508 0.09211,-0.07437 z m 1.6173,0.101414 c 0.01833,0.01748 0.03622,0.03555 0.05356,0.05409 -0.01734,-0.01846 -0.03524,-0.03668 -0.05356,-0.05409 z m -1.741542,0.0045 c -0.02352,0.02255 -0.04669,0.04557 -0.06855,0.06986 0.02191,-0.02436 0.045,-0.04722 0.06855,-0.06986 z m -0.06855,0.06986 c -0.166583,0.185148 -0.284526,0.4182 -0.329886,0.678358 -1.28e-4,7.29e-4 1.26e-4,0.0015 0,0.0023 l 0,0.480032 c 0.06872,0.397891 0.304885,0.734108 0.629782,0.928516 l 1.283129,0 c 0.311292,-0.186265 0.539912,-0.5027 0.619073,-0.878934 l 0,-0.0045 0,-0.570182 c -0.03523,-0.170077 -0.100215,-0.329192 -0.190649,-0.468766 -0.07035,-0.099 -0.151731,-0.170775 -0.239916,-0.209593 l -1.722265,0 c -0.01734,0.01411 -0.03331,0.02826 -0.04927,0.04282 z m -0.329886,1.160645 c -0.0067,-0.03862 -0.01142,-0.07727 -0.015,-0.117191 0.0034,0.03979 0.0083,0.07847 0.015,0.117191 z m 0,-0.480032 c -0.0067,0.0388 -0.01155,0.07731 -0.015,0.117191 0.0036,-0.03937 0.0083,-0.07859 0.015,-0.117191 z m 2.251365,-0.637792 c 0.01255,0.01526 0.02452,0.03148 0.03642,0.04733 -0.01207,-0.01605 -0.02368,-0.03188 -0.03642,-0.04733 z m -1.39666,2.152264 c 0.02608,0.0093 0.05245,0.01723 0.07926,0.02479 -0.02682,-0.0076 -0.05315,-0.01546 -0.07926,-0.02479 z m 0.833284,0 c -0.02623,0.0093 -0.0523,0.0172 -0.07926,0.02479 0.02681,-0.0076 0.05317,-0.0155 0.07926,-0.02479 z" opacity=".233"/><path id="path5495" fill="#000" fill-opacity=".505" fill-rule="nonzero" stroke="none" d="m 15.004758,13.204398 c -0.514739,-10e-7 -0.93728,0.406392 -0.992195,0.927052 -0.0023,0.02194 -0.004,0.04389 -0.005,0.06622 -7.01e-4,0.01599 -0.0025,0.03151 -0.0025,0.04768 0,0.0035 -3.5e-5,0.0071 0,0.01059 -3.5e-5,0.0035 0,0.0071 0,0.01059 3.03e-4,0.01578 0.0015,0.03208 0.0025,0.04768 9.83e-4,0.02233 0.0026,0.04427 0.005,0.06622 0.05491,0.52066 0.477456,0.927053 0.992195,0.927053 0.514739,0 0.937279,-0.406393 0.992195,-0.927053 0.0023,-0.02194 0.004,-0.04389 0.005,-0.06622 0.0012,-0.01906 0.0023,-0.03895 0.0025,-0.05827 -1.84e-4,-0.01932 -0.0013,-0.03922 -0.0025,-0.05827 -9.81e-4,-0.02233 -0.0026,-0.04428 -0.005,-0.06622 -0.05491,-0.520663 -0.477456,-0.927052 -0.992195,-0.927052 z"/><path id="path5497" fill="none" stroke="url(#radialGradient3058)" stroke-dasharray="none" stroke-linecap="round" stroke-linejoin="round" stroke-miterlimit="4" stroke-opacity="1" stroke-width="1" d="m 20.5,12.500001 c 0,3.313709 -2.462435,6 -5.5,6 -3.037567,0 -5.5,-2.686291 -5.5,-6 0,-3.3137098 2.462433,-6.0000008 5.5,-6.0000008 3.037565,0 5.5,2.686291 5.5,6.0000008 z"/><path id="path5511" fill="#2e3436" fill-opacity="1" fill-rule="evenodd" stroke="url(#radialGradient3042)" stroke-dasharray="none" stroke-dashoffset="0" stroke-linecap="butt" stroke-linejoin="miter" stroke-miterlimit="10" stroke-opacity=".996" stroke-width=".496" d="m 8.7516746,5.3613523 c 4.573e-4,0.6066132 -1.0078915,1.0984885 -2.2519114,1.0984885 -1.2440196,0 -2.252369,-0.4918753 -2.2519117,-1.0984885 -4.573e-4,-0.606613 1.0078921,-1.0984885 2.2519117,-1.0984885 1.2440199,0 2.2523687,0.4918755 2.2519114,1.0984885 z" display="inline" enable-background="accumulate" overflow="visible" visibility="visible" style="marker:none"/><path id="path5513" fill="url(#radialGradient3039)" fill-opacity="1" fill-rule="evenodd" stroke="none" stroke-width=".377" d="M 8.312162,4.9395948 C 8.3125295,5.4085967 7.5016766,5.7888896 6.5013115,5.7888896 5.5009463,5.7888896 4.6900932,5.4085967 4.6904609,4.9395948 4.6900932,4.4705925 5.5009463,4.0903 6.5013115,4.0903 c 1.0003651,0 1.811218,0.3802925 1.8108505,0.8492948 z" display="inline" enable-background="accumulate" overflow="visible" visibility="visible" style="marker:none"/><rect id="rect5515" width=".87" height=".963" x="6.001" y="5.901" fill="#2e3436" fill-opacity="1" fill-rule="nonzero" stroke="url(#radialGradient3036)" stroke-dasharray="none" stroke-linecap="butt" stroke-linejoin="round" stroke-miterlimit="0" stroke-opacity="1" stroke-width=".302" rx=".309" ry=".367"/><rect id="rect5519" width="19" height="11.999" x="2.5" y="6.494" fill="none" stroke="url(#linearGradient3033)" stroke-dasharray="none" stroke-linecap="round" stroke-linejoin="round" stroke-miterlimit="4" stroke-opacity="1" stroke-width="1.001" opacity=".4" rx=".372" ry=".386"/><path id="path10013" fill="url(#radialGradient3030)" fill-opacity="1" fill-rule="evenodd" stroke="none" stroke-width=".945" d="m 16.748313,14.415939 c 0,1.016313 -0.783223,1.840199 -1.749378,1.840199 -0.966155,0 -1.749379,-0.823886 -1.749379,-1.840199 0,-1.016313 0.783224,-1.840197 1.749379,-1.840197 0.966155,0 1.749378,0.823884 1.749378,1.840197 z" display="inline" enable-background="accumulate" opacity=".8" overflow="visible" visibility="visible" style="marker:none"/><rect id="rect5950" width="1" height="6" x="5" y="10" fill="#eeeeec" fill-opacity="1" fill-rule="nonzero" stroke="none" stroke-width="1" display="inline" enable-background="accumulate" opacity=".5" overflow="visible" rx=".5" ry=".6" visibility="visible" style="marker:none"/><rect id="rect5952" width="1" height="4" x="7" y="11" fill="#555753" fill-opacity="1" fill-rule="nonzero" stroke="none" stroke-width="1" display="inline" enable-background="accumulate" opacity=".2" overflow="visible" rx=".5" ry=".5" visibility="visible" style="marker:none"/></g></svg>