<svg xmlns="http://www.w3.org/2000/svg" xmlns:svg="http://www.w3.org/2000/svg" xmlns:xlink="http://www.w3.org/1999/xlink" id="svg2" width="24" height="24" version="1.0"><metadata id="metadata88"/><defs id="defs4"><linearGradient id="linearGradient4075"><stop id="stop4077" offset="0" stop-color="#fff" stop-opacity="1"/><stop id="stop4079" offset="0" stop-color="#fff" stop-opacity=".235"/><stop id="stop4081" offset="1" stop-color="#fff" stop-opacity=".157"/><stop id="stop4083" offset="1" stop-color="#fff" stop-opacity=".392"/></linearGradient><linearGradient id="linearGradient4161-4" x1="22.553" x2="22.553" y1="6.631" y2="41.944" gradientTransform="matrix(0.21462027,0,0,0.42391297,11.25048,-0.78050762)" gradientUnits="userSpaceOnUse" xlink:href="#linearGradient4075"/><linearGradient id="linearGradient4604" x1="116.791" x2="116.791" y1="-37.808" y2="-26.979" gradientTransform="matrix(0.33471938,0,0,0.59667354,-23.328651,0.35638626)" gradientUnits="userSpaceOnUse" xlink:href="#linearGradient4614"/><linearGradient id="linearGradient4614"><stop id="stop4606" offset="0" stop-color="#fff" stop-opacity="1"/><stop id="stop4608" offset=".031" stop-color="#fff" stop-opacity=".235"/><stop id="stop4610" offset=".981" stop-color="#fff" stop-opacity=".157"/><stop id="stop4612" offset="1" stop-color="#fff" stop-opacity=".392"/></linearGradient><radialGradient id="radialGradient7374" cx="23.335" cy="41.636" r="22.627" gradientTransform="matrix(0.26516308,0,0,0.06026566,48.916692,28.466026)" gradientUnits="userSpaceOnUse"><stop id="stop23421" offset="0"/><stop id="stop23423" offset="1" stop-opacity="0"/></radialGradient><linearGradient id="linearGradient5466-8-3-0" x1="11.098" x2="11.098" y1="5.97" y2="45.689" gradientTransform="matrix(0.47793243,0,0,0.42768318,8.8306347,-1.55508)" gradientUnits="userSpaceOnUse" xlink:href="#linearGradient3600-8"/><linearGradient id="linearGradient3600-8"><stop id="stop3602-2" offset="0" stop-color="#f4f4f4" stop-opacity="1"/><stop id="stop3604-5" offset="1" stop-color="#dbdbdb" stop-opacity="1"/></linearGradient></defs><g id="g4579" transform="translate(-43.104077,-8.3392264)"><path id="path23417" fill="url(#radialGradient7374)" fill-rule="evenodd" stroke-width="1" d="m 61.104077,30.975341 a 6.0000001,1.3636364 0 1 1 -12,0 6.0000001,1.3636364 0 1 1 12,0 z" opacity=".3"/></g><rect id="rect3448" width="9" height="9" x="7.5" y="-23.5" fill="#e6e6e6" fill-opacity="1" stroke="#000" stroke-opacity=".302" stroke-width="1" rx="1" ry="1" transform="scale(1,-1)"/><g id="g4576" opacity=".2"><rect id="rect4570" width="2" height="2" x="9" y="20" fill="#000" fill-opacity="1" stroke="none" stroke-dasharray="none" stroke-dashoffset="0" stroke-linecap="round" stroke-linejoin="round" stroke-miterlimit="4" stroke-opacity=".4" stroke-width="2" opacity="1"/><rect id="rect4572" width="2" height="2" x="13" y="20" fill="#000" fill-opacity="1" stroke="none" stroke-dasharray="none" stroke-dashoffset="0" stroke-linecap="round" stroke-linejoin="round" stroke-miterlimit="4" stroke-opacity=".4" stroke-width="2" opacity="1"/></g><rect id="rect3458" width="7" height="7" x="8.494" y="-22.472" fill="none" fill-opacity="1" stroke="url(#linearGradient4604)" stroke-dasharray="none" stroke-dashoffset="0" stroke-linecap="round" stroke-linejoin="round" stroke-miterlimit="4" stroke-opacity="1" stroke-width="1" opacity=".6" transform="scale(1,-1)" style="marker:none"/><rect id="rect5391-5-7" width="10" height="17" x="7" y="1" fill="url(#linearGradient5466-8-3-0)" fill-opacity="1" stroke="none" stroke-dasharray="none" stroke-dashoffset="0" stroke-linecap="butt" stroke-linejoin="round" stroke-miterlimit="4" stroke-opacity="1" stroke-width="1" opacity="1" rx=".5" ry=".5" style="marker:none"/><rect id="rect901" width="11" height="18" x="6.5" y=".5" fill="none" fill-opacity="1" stroke="#000" stroke-dasharray="none" stroke-dashoffset="0" stroke-linecap="butt" stroke-linejoin="round" stroke-miterlimit="4" stroke-opacity="1" stroke-width="1" opacity=".3" rx="1" ry="1" vector-effect="none" style="marker:none"/><rect id="rect901-3" width="9" height="16" x="7.5" y="1.5" fill="none" fill-opacity="1" stroke="url(#linearGradient4161-4)" stroke-dasharray="none" stroke-dashoffset="0" stroke-linecap="round" stroke-linejoin="round" stroke-miterlimit="4" stroke-opacity="1" stroke-width="1" opacity="1" vector-effect="none" style="marker:none"/><path id="path3690-3" fill="#fff" fill-opacity="1" stroke-dasharray="none" stroke-dashoffset="0" stroke-linecap="butt" stroke-linejoin="miter" stroke-miterlimit="4" stroke-opacity="1" stroke-width="1" d="m 10.840723,15.42596 c 0,-0.812844 0.270159,-1.023722 0.601081,-1.307524 0.265666,-0.128245 0.308115,-0.215797 0.304622,-0.628246 -0.0038,-0.455788 -0.04748,-0.403723 -0.892257,-1.137052 C 9.5643341,11.233522 9.3908717,10.963528 9.239426,9.8400295 9.1277128,9.0114045 9.2060698,9.6984184 8.8853869,9.3796815 8.2951367,8.7930329 8.3962618,7.932675 9.098919,7.5629056 9.7319231,7.2298013 10.481784,7.5840826 10.713024,8.325543 10.826996,8.6909666 10.553758,9.3220307 10.186859,9.5407364 9.8511071,9.7408934 9.7118161,9.4071903 9.7885951,10.144998 c 0.04249,0.408357 0.14605,0.373299 0.2301219,0.538935 0.144387,0.284464 1.5583,1.623587 1.712099,1.623587 V 5.9999129 h -0.783763 l 1.06712,-2.5039139 1.11847,2.5041685 h -0.76181 v 4.7546645 c 0.105957,0 1.129458,-1.023679 1.478993,-1.4983148 0.151025,-0.2050753 0.242676,-0.4962648 0.242676,-0.7710368 0,-0.4144014 0.136657,-0.50154 -0.17942,-0.50154 H 13.576338 V 6.0421262 h 1.908216 v 1.9418142 h -0.308681 c -0.275428,0.03225 -0.472288,0.1726354 -0.524283,0.6321332 -0.07755,0.6852601 -0.355742,1.1044272 -1.435848,2.1931844 l -0.844915,0.911155 v 2.24934 l 0.249682,0.149014 c 0.169778,0.08196 0.403596,0.346791 0.519598,0.58852 0.412977,0.862221 -0.161626,1.788713 -1.109116,1.788713 -0.686597,-0.02546 -1.190568,-0.377978 -1.190568,-1.069028 z" opacity=".3" vector-effect="none" style="font-variant-east_asian:normal"/><path id="path3690" fill="#969696" fill-opacity="1" stroke-width=".636" d="m 10.840723,14.425792 c 0,-0.812844 0.270159,-1.023722 0.601081,-1.307524 0.265666,-0.128245 0.308115,-0.215797 0.304622,-0.628246 -0.0038,-0.455788 -0.04748,-0.403723 -0.892257,-1.137052 C 9.5643341,10.233354 9.3908717,9.96336 9.239426,8.839862 9.1277128,8.011237 9.2060698,8.6982509 8.8853869,8.379514 8.2951367,7.7928654 8.3962618,6.9325075 9.098919,6.5627381 c 0.6330041,-0.3331043 1.382865,0.021177 1.614105,0.7626374 0.113972,0.3654236 -0.159266,0.9964877 -0.526165,1.2151934 -0.3357519,0.200157 -0.4750429,-0.1335461 -0.3982639,0.604262 0.04249,0.408357 0.14605,0.3732981 0.2301219,0.5389341 0.144387,0.284464 1.5583,1.623587 1.712099,1.623587 V 4.9997454 H 10.947053 L 12.014173,2.4958315 13.132643,5 h -0.76181 v 4.754664 c 0.105957,0 1.129458,-1.0236785 1.478993,-1.4983143 0.151025,-0.2050753 0.242676,-0.4962648 0.242676,-0.7710368 0,-0.4144014 0.136657,-0.50154 -0.17942,-0.50154 H 13.576338 V 5.0419587 h 1.908216 V 6.9837729 H 15.175873 C 14.900445,7.0160229 14.703585,7.1564083 14.65159,7.6159061 14.57404,8.3011662 14.295848,8.7203333 13.215742,9.80909 l -0.844915,0.911155 v 2.24934 l 0.249682,0.149014 c 0.169778,0.08196 0.403596,0.346791 0.519598,0.58852 0.412977,0.862221 -0.161626,1.788713 -1.109116,1.788713 -0.686597,-0.02546 -1.190568,-0.377978 -1.190568,-1.069028 z" opacity=".95"/></svg>