<svg xmlns="http://www.w3.org/2000/svg" xmlns:svg="http://www.w3.org/2000/svg" xmlns:xlink="http://www.w3.org/1999/xlink" id="svg2" width="24" height="24" version="1.0"><metadata id="metadata88"/><defs id="defs4"><linearGradient id="linearGradient4075"><stop id="stop4077" offset="0" stop-color="#fff" stop-opacity="1"/><stop id="stop4079" offset=".034" stop-color="#fff" stop-opacity=".235"/><stop id="stop4081" offset=".992" stop-color="#fff" stop-opacity=".157"/><stop id="stop4083" offset="1" stop-color="#fff" stop-opacity=".392"/></linearGradient><linearGradient id="linearGradient5048"><stop id="stop5050" offset="0" stop-color="#000" stop-opacity="0"/><stop id="stop5056" offset=".5" stop-color="#000" stop-opacity="1"/><stop id="stop5052" offset="1" stop-color="#000" stop-opacity="0"/></linearGradient><linearGradient id="linearGradient5060"><stop id="stop5062" offset="0" stop-color="#000" stop-opacity="1"/><stop id="stop5064" offset="1" stop-color="#000" stop-opacity="0"/></linearGradient><linearGradient id="linearGradient2872" x1="53.991" x2="53.991" y1="87.896" y2="104.281" gradientTransform="matrix(0.1904597,0,0,0.2485308,0.090799,-3.484712)" gradientUnits="userSpaceOnUse" xlink:href="#linearGradient2215-9"/><radialGradient id="radialGradient2877" cx="605.714" cy="486.648" r="117.143" fx="605.714" fy="486.648" gradientTransform="matrix(-0.02218262,0,0,0.01085997,16.259269,17.380799)" gradientUnits="userSpaceOnUse" xlink:href="#linearGradient5060"/><radialGradient id="radialGradient2880" cx="605.714" cy="486.648" r="117.143" fx="605.714" fy="486.648" gradientTransform="matrix(0.02218262,0,0,0.01085997,7.7407365,17.380799)" gradientUnits="userSpaceOnUse" xlink:href="#linearGradient5060"/><linearGradient id="linearGradient2883" x1="302.857" x2="302.857" y1="366.648" y2="609.505" gradientTransform="matrix(0.03776775,0,0,0.01085997,-1.650341,17.380799)" gradientUnits="userSpaceOnUse" xlink:href="#linearGradient5048"/><linearGradient id="linearGradient7056-0"><stop id="stop7064-4" offset="0" stop-color="#e6e6e6" stop-opacity="1"/><stop id="stop7060-2" offset="1" stop-color="#c8c8c8" stop-opacity="1"/></linearGradient><linearGradient id="linearGradient2215-9"><stop id="stop2223-6" offset="0" stop-color="#7a7a7a" stop-opacity="1"/><stop id="stop2219-1" offset="1" stop-color="#474747" stop-opacity="1"/></linearGradient><radialGradient id="radialGradient4072" cx="7.22" cy="4.233" r="12" fx="7.22" fy="4.233" gradientTransform="matrix(1.5193809,0.00371571,-0.00302474,1.2368318,-3.737301,0.06783288)" gradientUnits="userSpaceOnUse" xlink:href="#linearGradient7056-0"/><linearGradient id="linearGradient4525" x1="24" x2="24" y1="51.346" y2="53.354" gradientTransform="matrix(0.42777307,0,0,0.51069006,6.7368356,-6.2528082)" gradientUnits="userSpaceOnUse" xlink:href="#linearGradient4472"/><linearGradient id="linearGradient4472"><stop id="stop4474" offset="0" stop-color="#fff" stop-opacity="1"/><stop id="stop4476" offset=".021" stop-color="#fff" stop-opacity=".235"/><stop id="stop4478" offset=".992" stop-color="#fff" stop-opacity=".157"/><stop id="stop4480" offset="1" stop-color="#fff" stop-opacity=".392"/></linearGradient><linearGradient id="linearGradient4161-4" x1="24" x2="24" y1="6.539" y2="42.102" gradientTransform="matrix(0.26232885,0,0,0.42474288,8.0835877,-0.81629626)" gradientUnits="userSpaceOnUse" xlink:href="#linearGradient4075"/><linearGradient id="linearGradient8490" x1="7.063" x2="24.688" y1="35.281" y2="35.281" gradientTransform="matrix(0.73758861,0,0,0.53932582,-2.2092209,1.4719088)" gradientUnits="userSpaceOnUse" xlink:href="#linearGradient6309"/><linearGradient id="linearGradient6309"><stop id="stop6311" offset="0" stop-color="#000" stop-opacity="1"/><stop id="stop6313" offset="1" stop-color="#bbb" stop-opacity="0"/></linearGradient><linearGradient id="linearGradient8487" x1="12.277" x2="12.222" y1="37.206" y2="33.759" gradientTransform="matrix(0.73758861,0,0,0.53932582,-2.7959675,2.1869583)" gradientUnits="userSpaceOnUse" xlink:href="#linearGradient4236-0"/><linearGradient id="linearGradient4236-0"><stop id="stop4238-4" offset="0" stop-color="#eee" stop-opacity="1"/><stop id="stop4240-3" offset="1" stop-color="#eee" stop-opacity="0"/></linearGradient><radialGradient id="radialGradient8447" cx="113.065" cy="97.588" r="2.563" fx="113.667" fy="98" gradientTransform="matrix(2.4956521,0,0,2.4956521,-223.97574,-53.226089)" gradientUnits="userSpaceOnUse" xlink:href="#radialGradient4241"/><radialGradient id="radialGradient4241" cx="113.065" cy="97.588" r="2.563" fx="113.667" fy="98" gradientUnits="userSpaceOnUse"><stop id="stop4243" offset="0" stop-color="#eee" stop-opacity="1"/><stop id="stop4245" offset=".16" stop-color="#cecece" stop-opacity="1"/><stop id="stop4247" offset=".468" stop-color="#888" stop-opacity="1"/><stop id="stop4249" offset="1" stop-color="#555" stop-opacity="1"/></radialGradient><radialGradient id="radialGradient8443" cx="113.065" cy="97.588" r="2.563" fx="113.667" fy="98" gradientTransform="matrix(2.4956521,0,0,2.4956521,-223.97574,-53.226089)" gradientUnits="userSpaceOnUse" xlink:href="#radialGradient4241"/><radialGradient id="radialGradient8471" cx="141.747" cy="206.426" r="78.728" fx="141.747" fy="206.426" gradientTransform="matrix(0.18614571,-0.00314024,0.00137767,0.18068297,-15.012876,-20.635958)" gradientUnits="userSpaceOnUse" xlink:href="#linearGradient4035"/><linearGradient id="linearGradient4035"><stop id="stop4037" offset="0" stop-color="#f5f5f5" stop-opacity="1"/><stop id="stop4039" offset=".47" stop-color="#e7e7e7" stop-opacity="1"/><stop id="stop4041" offset=".693" stop-color="#8c8c8c" stop-opacity="1"/><stop id="stop4043" offset=".835" stop-color="#ddd" stop-opacity="1"/><stop id="stop4045" offset="1" stop-color="#a8a8a8" stop-opacity="1"/></linearGradient><radialGradient id="radialGradient8464" cx="142.622" cy="191.854" r="78.728" fx="142.622" fy="191.854" gradientTransform="matrix(0.09247618,0,0,-0.08716215,-1.5555849,24.365579)" gradientUnits="userSpaceOnUse" xlink:href="#linearGradient7609-6"/><linearGradient id="linearGradient7609-6"><stop id="stop7611-3" offset="0" stop-color="#fff" stop-opacity="1"/><stop id="stop7677-2" offset=".47" stop-color="#e7e7e7" stop-opacity="1"/><stop id="stop7613-4" offset=".672" stop-color="#8c8c8c" stop-opacity="1"/><stop id="stop7617-3" offset=".835" stop-color="#ddd" stop-opacity="1"/><stop id="stop7615-6" offset="1" stop-color="#a8a8a8" stop-opacity="1"/></linearGradient><radialGradient id="radialGradient8475" cx="127.317" cy="143.828" r="78.728" fx="127.317" fy="143.828" gradientTransform="matrix(0.10005865,-0.02337636,0.00821684,0.05971738,-5.2741109,-0.9113469)" gradientUnits="userSpaceOnUse" xlink:href="#linearGradient4035"/><radialGradient id="radialGradient8498" cx="113.065" cy="97.588" r="2.563" fx="113.667" fy="98" gradientTransform="matrix(2.4956521,0,0,2.4956521,-223.97574,-53.226089)" gradientUnits="userSpaceOnUse" xlink:href="#radialGradient4241"/><radialGradient id="radialGradient8494" cx="113.065" cy="97.588" r="2.563" fx="113.667" fy="98" gradientTransform="matrix(2.4956521,0,0,2.4956521,-223.97574,-53.226089)" gradientUnits="userSpaceOnUse" xlink:href="#radialGradient4241"/></defs><rect id="rect2723" width="18.236" height="2.637" x="2.882" y="21.363" fill="url(#linearGradient2883)" fill-opacity="1" fill-rule="nonzero" stroke="none" stroke-width="1" display="inline" opacity=".402" overflow="visible" visibility="visible" style="marker:none"/><path id="path2725" fill="url(#radialGradient2880)" fill-opacity="1" fill-rule="nonzero" stroke="none" stroke-width="1" d="m 21.109321,21.362672 c 0,0 0,2.637274 0,2.637274 1.142348,0.005 2.761647,-0.59088 2.761647,-1.318806 0,-0.727927 -1.274774,-1.318468 -2.761647,-1.318468 z" display="inline" opacity=".402" overflow="visible" visibility="visible" style="marker:none"/><path id="path2727" fill="url(#radialGradient2877)" fill-opacity="1" fill-rule="nonzero" stroke="none" stroke-width="1" d="m 2.890679,21.362672 c 0,0 0,2.637274 0,2.637274 -1.142353,0.005 -2.761647,-0.59088 -2.761647,-1.318806 0,-0.727927 1.274779,-1.318468 2.761647,-1.318468 z" display="inline" opacity=".402" overflow="visible" visibility="visible" style="marker:none"/><path id="rect2990" fill="url(#radialGradient4072)" fill-opacity="1" fill-rule="nonzero" stroke="none" stroke-width="1" d="M 2.5,2 0.522616,18.483328 c -0.014949,0 -0.022616,0.0044 -0.022616,0.01667 l 23,0 c 0,-0.01232 -0.0077,-0.01667 -0.02261,-0.01667 L 21.5,2 C 21.40074,1.172599 20.333333,0.50000001 19.5,0.50000001 l -15,0 C 3.6666667,0.50000001 2.5992572,1.172599 2.5,2 z" display="inline" enable-background="accumulate" overflow="visible" visibility="visible" style="marker:none"/><path id="rect2990-5" fill="none" stroke="#000" stroke-dasharray="none" stroke-dashoffset="0" stroke-linecap="round" stroke-linejoin="round" stroke-miterlimit="4" stroke-opacity="1" stroke-width="1" d="M 2.5,2 0.522616,18.483328 c -0.014949,0 -0.022616,0.0044 -0.022616,0.01667 l 23,0 c 0,-0.01232 -0.0077,-0.01667 -0.02261,-0.01667 L 21.5,2 C 21.40074,1.172599 20.333333,0.49999997 19.5,0.49999997 l -15,0 C 3.6666667,0.49999997 2.5992572,1.172599 2.5,2 z" color="#000" display="inline" enable-background="accumulate" opacity=".35" overflow="visible" visibility="visible" style="marker:none"/><path id="rect2992" fill="url(#linearGradient2872)" fill-opacity="1" fill-rule="nonzero" stroke="none" stroke-width="1" d="m 23.5,18.5 c -0.466387,3.38005 -0.351379,3.981514 -1.195903,3.981514 -0.330786,0.04823 -13.33742,0 -20.654254,0 -0.917139,0 -0.685406,0.06576 -1.149843,-3.978565 l 23,-0.0029 0,-4.9e-5 z" display="inline" enable-background="accumulate" overflow="visible" visibility="visible" style="marker:none"/><path id="rect2992-0" fill="none" stroke="#000" stroke-dasharray="none" stroke-dashoffset="0" stroke-linecap="butt" stroke-linejoin="round" stroke-miterlimit="4" stroke-opacity="1" stroke-width="1" d="m 23.5,18.5 c -0.466387,3.38005 -0.351379,3.981514 -1.195903,3.981514 -0.330786,0.04823 -13.33742,0 -20.654254,0 -0.917139,0 -0.685406,0.06576 -1.149843,-3.978565 l 23,-0.0029 0,-4.9e-5 z" color="#000" display="inline" enable-background="accumulate" opacity=".5" overflow="visible" visibility="visible" style="marker:none"/><path id="path4497" fill="none" stroke="url(#linearGradient4525)" stroke-dasharray="none" stroke-dashoffset="0" stroke-linecap="round" stroke-linejoin="miter" stroke-miterlimit="4" stroke-opacity="1" stroke-width="1" d="m 1.8811692,21.468685 20.1351998,0.01866 c 0.0552,-0.198713 0.332357,-1.987316 0.332357,-1.987316 l -20.7291868,0 c 0,0 0.1806404,1.463168 0.26163,1.968656 z" color="#000" display="inline" enable-background="accumulate" opacity=".2" overflow="visible" visibility="visible" style="marker:none"/><path id="path4034" fill="none" stroke="url(#linearGradient4161-4)" stroke-dasharray="none" stroke-dashoffset="0" stroke-linecap="round" stroke-linejoin="round" stroke-miterlimit="4" stroke-opacity="1" stroke-width="1" d="M 4.5,1.46875 C 4.3477124,1.46875 4.0083027,1.5891821 3.78125,1.75 3.5541973,1.9108179 3.4725109,2.0936491 3.46875,2.125 L 1.625,17.53125 l 20.75,0 L 20.53125,2.125 C 20.527489,2.0936468 20.445803,1.910818 20.21875,1.75 19.991697,1.589182 19.652287,1.46875 19.5,1.46875 l -15,0 z" color="#000" display="inline" enable-background="accumulate" opacity=".8" overflow="visible" visibility="visible" style="marker:none"/><g id="g9164" transform="matrix(0.06610079,-0.01141585,0.00791914,0.04585394,-0.89214226,-6.4254019)"><path id="path9166" fill="#e6e6e6" fill-opacity="1" d="m 48.2999,190.27968 c 0.31446,4.2476 5.02375,7.71156 10.51419,7.71156 5.48794,0 9.6432,-3.46396 9.27634,-7.71156 -0.36437,-4.22514 -5.07117,-7.6367 -10.5067,-7.6367 -5.43803,0.002 -9.59329,3.41156 -9.28383,7.6367 z"/><path id="path9168" fill="url(#radialGradient8447)" fill-opacity="1" d="m 51.85122,187.29238 c -0.50163,0.53906 -1.07563,1.40256 -1.07563,2.55056 0,0.0824 0.005,0.16471 0.01,0.25206 0.21713,2.9274 3.89322,5.40059 8.02602,5.40059 2.3534,0 4.50465,-0.81109 5.75248,-2.17371 0.53656,-0.58149 1.148,-1.54481 1.03819,-2.82758 -0.25206,-2.90244 -3.92316,-5.35567 -8.02103,-5.35567 -2.33593,0.002 -4.47969,0.8061 -5.73001,2.15375 z"/></g><g id="g9170" transform="matrix(0.06707933,0,0,0.04653275,15.651438,-7.213077)"><path id="path9172" fill="#e6e6e6" fill-opacity="1" d="m 48.2999,190.27968 c 0.31446,4.2476 5.02375,7.71156 10.51419,7.71156 5.48794,0 9.6432,-3.46396 9.27634,-7.71156 -0.36437,-4.22514 -5.07117,-7.6367 -10.5067,-7.6367 -5.43803,0.002 -9.59329,3.41156 -9.28383,7.6367 z"/><path id="path9174" fill="url(#radialGradient8443)" fill-opacity="1" d="m 51.85122,187.29238 c -0.50163,0.53906 -1.07563,1.40256 -1.07563,2.55056 0,0.0824 0.005,0.16471 0.01,0.25206 0.21713,2.9274 3.89322,5.40059 8.02602,5.40059 2.3534,0 4.50465,-0.81109 5.75248,-2.17371 0.53656,-0.58149 1.148,-1.54481 1.03819,-2.82758 -0.25206,-2.90244 -3.92316,-5.35567 -8.02103,-5.35567 -2.33593,0.002 -4.47969,0.8061 -5.73001,2.15375 z"/></g><g id="g9158" transform="matrix(-0.09781119,0,0,0.1076727,8.1622105,-3.8182515)"><path id="path9160" fill="#e6e6e6" fill-opacity="1" d="m 48.2999,190.27968 c 0.31446,4.2476 5.02375,7.71156 10.51419,7.71156 5.48794,0 9.6432,-3.46396 9.27634,-7.71156 -0.36437,-4.22514 -5.07117,-7.6367 -10.5067,-7.6367 -5.43803,0.002 -9.59329,3.41156 -9.28383,7.6367 z"/><path id="path9162" fill="url(#radialGradient8498)" fill-opacity="1" d="m 51.85122,187.29238 c -0.50163,0.53906 -1.07563,1.40256 -1.07563,2.55056 0,0.0824 0.005,0.16471 0.01,0.25206 0.21713,2.9274 3.89322,5.40059 8.02602,5.40059 2.3534,0 4.50465,-0.81109 5.75248,-2.17371 0.53656,-0.58149 1.148,-1.54481 1.03819,-2.82758 -0.25206,-2.90244 -3.92316,-5.35567 -8.02103,-5.35567 -2.33593,0.002 -4.47969,0.8061 -5.73001,2.15375 z"/></g><g id="g9190" transform="matrix(0.09781119,0,0,0.1076727,15.777316,-3.8182515)"><path id="path9192" fill="#e6e6e6" fill-opacity="1" d="m 48.2999,190.27968 c 0.31446,4.2476 5.02375,7.71156 10.51419,7.71156 5.48794,0 9.6432,-3.46396 9.27634,-7.71156 -0.36437,-4.22514 -5.07117,-7.6367 -10.5067,-7.6367 -5.43803,0.002 -9.59329,3.41156 -9.28383,7.6367 z"/><path id="path9194" fill="url(#radialGradient8494)" fill-opacity="1" d="m 51.85122,187.29238 c -0.50163,0.53906 -1.07563,1.40256 -1.07563,2.55056 0,0.0824 0.005,0.16471 0.01,0.25206 0.21713,2.9274 3.89322,5.40059 8.02602,5.40059 2.3534,0 4.50465,-0.81109 5.75248,-2.17371 0.53656,-0.58149 1.148,-1.54481 1.03819,-2.82758 -0.25206,-2.90244 -3.92316,-5.35567 -8.02103,-5.35567 -2.33593,0.002 -4.47969,0.8061 -5.73001,2.15375 z"/></g><rect id="rect902" width="11" height="1" x="2" y="20" fill="#0e141f" fill-opacity=".9" fill-rule="nonzero" stroke="none" stroke-opacity=".6" stroke-width="1" opacity="1" paint-order="normal" vector-effect="none"/><rect id="rect904" width="1" height="1" x="20" y="20" fill="#d1ff82" fill-opacity=".9" fill-rule="nonzero" stroke="none" stroke-opacity=".6" opacity="1" paint-order="normal" vector-effect="none"/><rect id="rect906" width="1" height="1" x="3" y="20" fill="#f9c440" fill-opacity=".9" fill-rule="nonzero" stroke="none" stroke-opacity=".6" opacity="1" paint-order="normal" vector-effect="none"/><rect id="rect908" width="1" height="1" x="5" y="20" fill="#f9c440" fill-opacity=".9" fill-rule="nonzero" stroke="none" stroke-opacity=".6" opacity="1" paint-order="normal" vector-effect="none"/><rect id="rect910" width="1" height="1" x="7" y="20" fill="#f9c440" fill-opacity=".9" fill-rule="nonzero" stroke="none" stroke-opacity=".6" opacity="1" paint-order="normal" vector-effect="none"/><rect id="rect912" width="1" height="1" x="9" y="20" fill="#f9c440" fill-opacity=".9" fill-rule="nonzero" stroke="none" stroke-opacity=".6" opacity="1" paint-order="normal" vector-effect="none"/><rect id="rect914" width="1" height="1" x="11" y="20" fill="#f9c440" fill-opacity=".9" fill-rule="nonzero" stroke="none" stroke-opacity=".6" opacity="1" paint-order="normal" vector-effect="none"/></svg>