<svg xmlns="http://www.w3.org/2000/svg" xmlns:svg="http://www.w3.org/2000/svg" xmlns:xlink="http://www.w3.org/1999/xlink" id="svg3694" width="24" height="24" version="1.1"><metadata id="metadata32"/><defs id="defs3696"><linearGradient id="linearGradient5754" x1="14" x2="32" y1="2" y2="40" gradientTransform="matrix(1.1771359,0,0,0.56815074,-14.011844,-10.509915)" gradientUnits="userSpaceOnUse" xlink:href="#linearGradient3208"/><linearGradient id="linearGradient3208"><stop id="stop3210" offset="0" stop-color="#fff" stop-opacity="1"/><stop id="stop3212" offset="1" stop-color="#fff" stop-opacity="0"/></linearGradient><linearGradient id="linearGradient5758" x1="24.118" x2="-32.012" y1="33.658" y2="33.658" gradientTransform="matrix(8.5928811e-8,-0.36500966,0.40507228,1.8067056e-7,-1.6338326,2.059324)" gradientUnits="userSpaceOnUse" xlink:href="#linearGradient3775"/><linearGradient id="linearGradient3775"><stop id="stop3777" offset="0" stop-color="#fff" stop-opacity="1"/><stop id="stop3779" offset="1" stop-color="#fff" stop-opacity="0"/></linearGradient><linearGradient id="linearGradient5769" x1="18.601" x2="18.601" y1=".854" y2="49.956" gradientTransform="matrix(0.56723338,0,0,0.45887954,8.2326158,-8.1606101)" gradientUnits="userSpaceOnUse" xlink:href="#linearGradient3600-8"/><linearGradient id="linearGradient3600-8"><stop id="stop3602-2" offset="0" stop-color="#f4f4f4" stop-opacity="1"/><stop id="stop3604-5" offset="1" stop-color="#dbdbdb" stop-opacity="1"/></linearGradient><linearGradient id="linearGradient5771" x1="-74.785" x2="-74.785" y1="54.703" y2="2.104" gradientTransform="matrix(0.45803913,0,0,0.42944289,41.932115,-8.6720231)" gradientUnits="userSpaceOnUse" xlink:href="#linearGradient3104-5"/><linearGradient id="linearGradient3104-5"><stop id="stop3106-2" offset="0" stop-color="#aaa" stop-opacity="1"/><stop id="stop3108-2" offset="1" stop-color="#c8c8c8" stop-opacity="1"/></linearGradient><linearGradient id="linearGradient23419-5"><stop id="stop23421-7" offset="0" stop-color="#000" stop-opacity="1"/><stop id="stop23423-0" offset="1" stop-color="#000" stop-opacity="0"/></linearGradient><radialGradient id="radialGradient3682" cx="23.335" cy="41.636" r="22.627" fx="23.335" fy="41.636" gradientTransform="matrix(0.35355333,0,0,0.11047509,3.75,8.900251)" gradientUnits="userSpaceOnUse" xlink:href="#linearGradient23419-5"/></defs><g id="layer1" transform="translate(0,8)"><path id="path23417-6" fill="url(#radialGradient3682)" fill-opacity="1" fill-rule="evenodd" stroke="none" stroke-width="2" d="M 20,13.500001 C 20.000358,14.880675 16.418571,16 12,16 7.5814283,16 3.9995886,14.880675 4,13.500001 3.99964,12.119331 7.5814283,11 12,11 c 4.418571,0 8.000404,1.119331 8,2.500001 l 0,0 z" display="inline" opacity=".3" overflow="visible" visibility="visible" style="marker:none"/><path id="path4487" fill="url(#linearGradient5769)" fill-opacity="1" fill-rule="nonzero" stroke="url(#linearGradient5771)" stroke-dasharray="none" stroke-dashoffset="0" stroke-linecap="butt" stroke-linejoin="round" stroke-miterlimit="4" stroke-opacity="1" stroke-width="1" d="m 11.977415,-7.5000401 c -1.6608,0.02821 -3.4556992,0.160522 -4.8214992,1.105652 -1.4209,1.464793 -1.2538,3.511087 -1.4713,5.319946 -0.3102,4.2420771 -0.2782,8.5443121 0.4744,12.7530381 0.2575,1.074885 1.1516,2.153197 2.3618,2.357534 2.3685992,0.628478 4.9856992,0.640922 7.3217992,-0.101254 1.1009,-0.383786 1.8163,-1.326107 2.0125,-2.351027 0.3594,-1.464101 0.4025,-2.97169 0.5393,-4.454938 0.1994,-3.882402 0.1621,-7.8003241 -0.514,-11.6455251 -0.2151,-1.128707 -1.0715,-2.179424 -2.297,-2.509051 -1.151,-0.384938 -2.3923,-0.436328 -3.606,-0.474375 z" color="#000" display="inline" enable-background="accumulate" overflow="visible" visibility="visible" style="marker:none"/><path id="rect1320-6-9-3" fill="none" stroke="url(#linearGradient5758)" stroke-dasharray="none" stroke-dashoffset="0" stroke-linecap="round" stroke-linejoin="round" stroke-miterlimit="4" stroke-opacity="1" stroke-width="1" d="m 12.000601,-6.4999991 c -1.404375,0.03103 -2.9062468,0.123866 -4.0991131,0.892626 -1.2228127,1.329384 -1.0143364,3.186056 -1.2453523,4.808722 -0.25058,3.9273951 -0.251591,7.8949801 0.3878654,11.7910621 0.1873143,0.928948 0.8094588,1.87261 1.8607813,2.092328 1.8580517,0.536775 3.8832207,0.526893 5.7702287,0.121205 0.900335,-0.193855 1.772174,-0.698691 2.062531,-1.560404 0.443112,-1.1702 0.45033,-2.434785 0.594582,-3.656499 0.258819,-3.773579 0.252623,-7.5804771 -0.262717,-11.3351061 -0.136437,-1.018262 -0.502102,-2.190879 -1.621185,-2.617232 -1.070359,-0.451302 -2.292128,-0.493913 -3.447621,-0.536702 z" display="inline" overflow="visible" visibility="visible" style="marker:none"/><path id="rect3238" fill="url(#linearGradient5754)" fill-opacity="1" fill-rule="nonzero" stroke="none" stroke-width="1" d="m 11.896725,-6.0015321 c -1.470583,0.03385 -3.0360831,0.14036 -4.2851856,0.978917 -1.2804603,1.450084 -1.0607899,3.474206 -1.3026967,5.2442 C 6.121067,3.287318 6.0617934,6.367912 6.2917027,9.433895 L 17.261779,-2.1383041 c -0.01719,-0.139929 -0.033,-0.279739 -0.05142,-0.419537 -0.142867,-1.110714 -0.525092,-2.401765 -1.696932,-2.866829 -1.120819,-0.492278 -2.406731,-0.530187 -3.616698,-0.576862 z" display="inline" enable-background="accumulate" opacity=".4" overflow="visible" visibility="visible" style="marker:none"/></g></svg>