<svg xmlns="http://www.w3.org/2000/svg" xmlns:svg="http://www.w3.org/2000/svg" xmlns:xlink="http://www.w3.org/1999/xlink" id="svg4117" width="24" height="24" version="1.1"><defs id="defs4119"><linearGradient id="linearGradient4410"><stop id="stop4412" offset="0" stop-color="#000" stop-opacity="1"/><stop id="stop4414" offset="1" stop-color="#000" stop-opacity="0"/></linearGradient><linearGradient id="linearGradient3924"><stop id="stop3926" offset="0" stop-color="#fff" stop-opacity="1"/><stop id="stop3928" offset=".063" stop-color="#fff" stop-opacity=".235"/><stop id="stop3930" offset=".951" stop-color="#fff" stop-opacity=".157"/><stop id="stop3932" offset="1" stop-color="#fff" stop-opacity=".392"/></linearGradient><filter id="filter3831" color-interpolation-filters="sRGB"><feGaussianBlur id="feGaussianBlur3833" stdDeviation=".637"/></filter><clipPath id="clipPath3823"><path id="path3825" fill="#fff" fill-opacity="1" stroke="none" d="M 108.8125,58 C 107.25437,58 106,59.254375 106,60.8125 l 0,24.375 C 106,86.745625 107.25437,88 108.8125,88 l 24.375,0 C 134.74562,88 136,86.745625 136,85.1875 l 0,-24.375 C 136,59.254375 134.74562,58 133.1875,58 l -24.375,0 z m 7.1875,4.5 10,0 0,8.75 5,0 -10,13.75 -10,-13.75 5,0 0,-8.75 z"/></clipPath><linearGradient id="linearGradient3812" x1="65.263" x2="65.263" y1="64.205" y2="50.069" gradientTransform="matrix(0.625,0,0,0.625,78.5,32.25)" gradientUnits="userSpaceOnUse" xlink:href="#linearGradient5010"/><filter id="filter3806" color-interpolation-filters="sRGB"><feGaussianBlur id="feGaussianBlur3808" stdDeviation="1.2"/></filter><linearGradient id="linearGradient3788" x1="70" x2="70" y1="54" y2="75.095" gradientTransform="translate(0,4)" gradientUnits="userSpaceOnUse" xlink:href="#linearGradient3737"/><linearGradient id="linearGradient3773" x1="56" x2="88" y1="72" y2="72" gradientTransform="matrix(0.9375,0,0,0.9375,-140.5,3.5)" gradientUnits="userSpaceOnUse" xlink:href="#linearGradient3778"/><linearGradient id="linearGradient3832" x1="65.263" x2="65.263" y1="64.205" y2="50.069" gradientTransform="matrix(0.625,0,0,0.625,28.5,31.25)" gradientUnits="userSpaceOnUse" xlink:href="#linearGradient3737"/><filter id="filter3174" color-interpolation-filters="sRGB"><feGaussianBlur id="feGaussianBlur3176" stdDeviation="1.71"/></filter><linearGradient id="linearGradient3737"><stop id="stop3739" offset="0" stop-color="#fff" stop-opacity="1"/><stop id="stop3741" offset="1" stop-color="#fff" stop-opacity="0"/></linearGradient><linearGradient id="ButtonShadow" x1="45.448" x2="45.448" y1="92.54" y2="7.017" gradientTransform="scale(1.0058652,0.994169)" gradientUnits="userSpaceOnUse"><stop id="stop3750" offset="0" stop-color="#000" stop-opacity="1"/><stop id="stop3752" offset="1" stop-color="#000" stop-opacity=".588"/></linearGradient><linearGradient id="linearGradient5010"><stop id="stop5012" offset="0" stop-color="#000" stop-opacity="1"/><stop id="stop5014" offset="1" stop-color="#000" stop-opacity="0"/></linearGradient><linearGradient id="linearGradient3778"><stop id="stop3780" offset="0" stop-color="#499119" stop-opacity="1"/><stop id="stop3782" offset="1" stop-color="#8fd625" stop-opacity="1"/></linearGradient><linearGradient id="linearGradient3084" x1="24" x2="24" y1="5" y2="43" gradientTransform="matrix(0.51351352,0,0,0.35135135,-0.32432341,5.5350103)" gradientUnits="userSpaceOnUse" xlink:href="#linearGradient3924"/><linearGradient id="linearGradient2867-449-88-871-390-598-476-591-434-148-57-177-641-289-620-227-114-444-680-744-4-8-69-5-4-8-426-2-9-1-4-965"><stop id="stop4036" offset="0" stop-color="#f4f4f4" stop-opacity="1"/><stop id="stop4040" offset="1" stop-color="#d0d0d0" stop-opacity="1"/></linearGradient><radialGradient id="radialGradient3309" cx="20.931" cy="8.45" r="20" fx="20.931" fy="8.45" gradientTransform="matrix(0,0.83891953,-1.2361283,-1.5456099e-8,22.44505,-27.046605)" gradientUnits="userSpaceOnUse" xlink:href="#linearGradient2867-449-88-871-390-598-476-591-434-148-57-177-641-289-620-227-114-444-680-744-4-8-69-5-4-8-426-2-9-1-4-965"/><linearGradient id="linearGradient4416" x1="23.535" x2="24" y1="6" y2="3" gradientTransform="matrix(-0.35178898,0,0,0.39447408,20.622492,-0.2839556)" gradientUnits="userSpaceOnUse" xlink:href="#linearGradient4410"/><linearGradient id="linearGradient19619" x1="302.857" x2="302.857" y1="366.648" y2="609.505" gradientTransform="matrix(0.08449704,0,0,0.01235294,-6.5396456,38.470822)" gradientUnits="userSpaceOnUse" xlink:href="#linearGradient5048"/><linearGradient id="linearGradient5048"><stop id="stop5050" offset="0" stop-color="#000" stop-opacity="0"/><stop id="stop5056" offset=".5" stop-color="#000" stop-opacity="1"/><stop id="stop5052" offset="1" stop-color="#000" stop-opacity="0"/></linearGradient><radialGradient id="radialGradient19616" cx="605.714" cy="486.648" r="117.143" fx="605.714" fy="486.648" gradientTransform="matrix(-0.0289166,0,0,0.01235294,21.026894,38.470848)" gradientUnits="userSpaceOnUse" xlink:href="#linearGradient4410"/><radialGradient id="radialGradient19613" cx="605.714" cy="486.648" r="117.143" fx="605.714" fy="486.648" gradientTransform="matrix(0.02891661,0,0,0.01235294,26.973101,38.470848)" gradientUnits="userSpaceOnUse" xlink:href="#linearGradient4410"/></defs><metadata id="metadata4122"/><g id="g3257" opacity=".4" transform="matrix(0.5,0,0,0.66666666,0,-7.6666664)"><rect id="rect2879" width="40.8" height="3" x="3.6" y="43" fill="url(#linearGradient19619)" fill-opacity="1" fill-rule="nonzero" stroke="none" stroke-width="1" display="inline" overflow="visible" visibility="visible" style="marker:none"/><path id="path2881" fill="url(#radialGradient19616)" fill-opacity="1" fill-rule="nonzero" stroke="none" stroke-width="1" d="m 3.6,43.00013 c 0,0 0,2.999835 0,2.999835 C 2.1108662,46.005612 0,45.327854 0,44.499854 0,43.671856 1.6617608,43.000131 3.6,43.00013 Z" display="inline" overflow="visible" visibility="visible" style="marker:none"/><path id="path2883" fill="url(#radialGradient19613)" fill-opacity="1" fill-rule="nonzero" stroke="none" stroke-width="1" d="m 44.4,43.00013 c 0,0 0,2.999835 0,2.999835 1.489133,0.0056 3.6,-0.672111 3.6,-1.500111 0,-0.827998 -1.661761,-1.499723 -3.6,-1.499724 z" display="inline" overflow="visible" visibility="visible" style="marker:none"/></g><path id="path4408" fill="none" fill-rule="evenodd" stroke="url(#linearGradient4416)" stroke-linecap="butt" stroke-linejoin="miter" stroke-opacity="1" stroke-width="1" d="m 12.343255,8 c 0,-0.4533762 0.05979,-2.0926468 0.0478,-2.5383181 C 12.360518,4.3255493 10.263038,4.5142102 10.414943,3.4103546 10.566848,2.306499 13.427404,3.175176 13.410819,1.811688 13.268941,-0.2403192 11.617967,-0.9496305 11.617967,-0.9496305"/><rect id="rect5505" width="20" height="14" x="2" y="-20.967" fill="url(#radialGradient3309)" fill-opacity="1" fill-rule="nonzero" stroke="none" stroke-width="1" color="#000" display="inline" enable-background="accumulate" overflow="visible" rx=".5" ry=".5" transform="scale(1,-1)" visibility="visible" style="marker:none"/><rect stroke-linejoin="round" style="marker:none" id="rect5505-21" width="21" height="15" x="1.5" y="6.467" fill="none" fill-opacity="1" fill-rule="nonzero" stroke="#000" stroke-dasharray="none" stroke-dashoffset="0" stroke-linecap="round" stroke-miterlimit="4" stroke-opacity="1" stroke-width="1" color="#000" display="inline" enable-background="accumulate" opacity=".4" overflow="visible" rx="1" ry="1" visibility="visible"/><rect id="rect4439" width="18" height="11" x="3" y="10" fill="#fff" fill-opacity="1" stroke="none" stroke-dasharray="none" stroke-linecap="round" stroke-linejoin="miter" stroke-miterlimit="4" stroke-opacity="1" stroke-width="2" opacity=".3" rx="1" ry="1"/><rect id="rect6741-2" width="19" height="13" x="2.5" y="7.467" fill="none" stroke="url(#linearGradient3084)" stroke-dasharray="none" stroke-dashoffset="0" stroke-linecap="round" stroke-linejoin="round" stroke-miterlimit="4" stroke-opacity="1" stroke-width="1" rx=".5" ry=".5"/><g id="layer2" display="none" transform="translate(-135.85714,-55.05041)"><path id="rect3745" fill="url(#ButtonShadow)" fill-opacity="1" fill-rule="nonzero" stroke="none" d="M 11,7 48,5 85,7 c 3.324,0 6,2.676 6,6 l 0,73 c 0,3.324 -2.676,6 -6,6 L 11,92 C 7.676,92 5,89.324 5,86 L 5,13 C 5,9.676 7.676,7 11,7 Z" filter="url(#filter3174)" opacity=".9"/></g><g id="layer4" display="none" transform="translate(-135.85714,-55.05041)"><rect id="rect3790" width="30" height="30" x="-86" y="56" fill="#000" fill-opacity="1" stroke="none" filter="url(#filter3806)" opacity=".6" rx="2.813" ry="2.813" transform="matrix(0,-1,1,0,0,4)"/><rect id="rect2993" width="30" height="30" x="-88" y="56" fill="url(#linearGradient3773)" fill-opacity="1" stroke="none" rx="2.813" ry="2.813" transform="matrix(0,-1,1,0,0,0)"/><path id="rect3775" fill="url(#linearGradient3788)" fill-opacity="1" stroke="none" d="M 58.8125,58 C 57.254375,58 56,59.254375 56,60.8125 l 0,24.375 c 0,0.873066 0.410816,1.641163 1.03125,2.15625 C 57.02841,87.289908 57,87.242129 57,87.1875 l 0,-24.375 C 57,61.254375 58.17075,60 59.625,60 l 22.75,0 C 83.82925,60 85,61.254375 85,62.8125 l 0,24.375 c 0,0.05463 -0.02841,0.102408 -0.03125,0.15625 C 85.589184,86.828663 86,86.060566 86,85.1875 l 0,-24.375 C 86,59.254375 84.745625,58 83.1875,58 l -24.375,0 z" opacity=".5"/><path id="path3810" fill="url(#linearGradient3812)" fill-opacity="1" fill-rule="nonzero" stroke="none" d="m 116,63.5 0,8.75 -5,0 10,13.75 10,-13.75 -5,0 0,-8.75 -10,0 z" clip-path="url(#clipPath3823)" display="inline" filter="url(#filter3831)" opacity=".6" transform="translate(-50,0)"/><path id="path4278" fill="url(#linearGradient3832)" fill-opacity="1" fill-rule="nonzero" stroke="none" d="m 66,62.5 0,8.75 -5,0 10,13.75 10,-13.75 -5,0 0,-8.75 -10,0 z" display="inline"/></g><rect id="rect4263" width="18" height="11" x="3" y="9" fill="#575757" fill-opacity="1" stroke="none" stroke-dasharray="none" stroke-linecap="round" stroke-linejoin="miter" stroke-miterlimit="4" stroke-opacity="1" stroke-width="2" opacity="1" rx="1" ry="1"/><rect id="rect4265" width="17" height="10" x="3.5" y="9.5" fill="none" fill-opacity="1" stroke="#000" stroke-dasharray="none" stroke-linecap="round" stroke-linejoin="miter" stroke-miterlimit="4" stroke-opacity="1" stroke-width="1" opacity=".1" rx=".5" ry=".5"/><path id="path4441" fill="none" fill-rule="evenodd" stroke="#000" stroke-linecap="butt" stroke-linejoin="miter" stroke-opacity="1" stroke-width="1" d="m 3,9.5 18,0" opacity=".2"/><g id="g6799" transform="matrix(0.75,0,0,0.75,3.25,4.5)"><rect id="rect6623" width="4" height="4" x="13" y="14" fill="#c3c3c3" fill-opacity="1" stroke="none" stroke-dasharray="none" stroke-linecap="round" stroke-linejoin="round" stroke-miterlimit="4" stroke-opacity="1" stroke-width=".5" opacity="1" rx=".444" ry=".444"/><circle id="circle6625" cx="-16" cy="-15" r="1" fill="red" fill-opacity="1" stroke="none" stroke-dasharray="none" stroke-linecap="round" stroke-linejoin="miter" stroke-miterlimit="4" stroke-opacity="1" stroke-width="1" opacity="1" transform="matrix(0,-1,-1,0,0,0)"/></g><use id="use6803" width="100%" height="100%" x="0" y="0" transform="translate(4,0)" xlink:href="#g6799"/><rect id="rect6840" width="5" height="1" x="14" y="11" fill="red" fill-opacity="1" stroke="none" stroke-dasharray="none" stroke-linecap="round" stroke-linejoin="miter" stroke-miterlimit="4" stroke-opacity="1" stroke-width="1" opacity=".75"/><rect id="rect6842" width="2" height="1" x="14" y="13" fill="#1a1a1a" fill-opacity="1" stroke="none" stroke-dasharray="none" stroke-linecap="round" stroke-linejoin="miter" stroke-miterlimit="4" stroke-opacity="1" stroke-width="1" opacity="1"/><rect id="rect6844" width="2" height="1" x="17" y="13" fill="#1a1a1a" fill-opacity="1" stroke="none" stroke-dasharray="none" stroke-linecap="round" stroke-linejoin="miter" stroke-miterlimit="4" stroke-opacity="1" stroke-width="1" opacity="1"/><path id="rect6879" fill="#1a1a1a" fill-opacity="1" stroke="#a4a4a4" stroke-dasharray="none" stroke-linecap="round" stroke-linejoin="round" stroke-miterlimit="4" stroke-opacity="1" stroke-width="2" d="m 7,13 0,2 -2,0 0,1 2,0 0,2 1,0 0,-2 2,0 0,-1 -2,0 0,-2 -1,0 z" opacity="1"/><path id="path6884" fill="#1a1a1a" fill-opacity="1" stroke="none" stroke-dasharray="none" stroke-linecap="round" stroke-linejoin="miter" stroke-miterlimit="4" stroke-opacity="1" stroke-width="2" d="m 7,13 0,2 -2,0 0,1 2,0 0,2 1,0 0,-2 2,0 0,-1 -2,0 0,-2 -1,0 z" opacity="1"/></svg>