<svg xmlns="http://www.w3.org/2000/svg" xmlns:svg="http://www.w3.org/2000/svg" xmlns:xlink="http://www.w3.org/1999/xlink" id="svg2" width="24" height="24" version="1.0"><metadata id="metadata27"/><defs id="defs4"><linearGradient id="linearGradient3075" x1="12.938" x2="15.25" y1="8.438" y2="19.813" gradientTransform="matrix(0.23809525,0,0,0.3333331,6.2857141,2.0000011)" gradientUnits="userSpaceOnUse" xlink:href="#linearGradient6592-2-7"/><linearGradient id="linearGradient6592-2-7"><stop id="stop6594-0-2" offset="0" stop-color="#fff" stop-opacity=".275"/><stop id="stop6596-2-5" offset="1" stop-color="#fff" stop-opacity="0"/></linearGradient><radialGradient id="radialGradient3127" cx="19.063" cy="8.418" r="11" fx="19.063" fy="8.418" gradientTransform="matrix(0.60156812,0,0,0.58158848,-2.0594599,-0.17834529)" gradientUnits="userSpaceOnUse" xlink:href="#linearGradient9936"/><linearGradient id="linearGradient9936"><stop id="stop9938" offset="0" stop-color="#575757" stop-opacity="1"/><stop id="stop9940" offset="1" stop-color="#333" stop-opacity="1"/></linearGradient><linearGradient id="linearGradient3143"><stop id="stop3145" offset="0" stop-color="#f2f2f2" stop-opacity="1"/><stop id="stop3147" offset="1" stop-color="#b3b3b3" stop-opacity="1"/></linearGradient><linearGradient id="linearGradient3206"><stop id="stop3208" offset="0" stop-color="gray" stop-opacity="1"/><stop id="stop3210" offset="1" stop-color="#999" stop-opacity="1"/></linearGradient><linearGradient id="linearGradient4490" x1="-74.836" x2="-74.342" y1="5.486" y2="107.02" gradientTransform="matrix(0.2303069,0,0,0.2089136,29.30459,-0.33026963)" gradientUnits="userSpaceOnUse" xlink:href="#linearGradient3143"/><linearGradient id="linearGradient4492" x1="-497" x2="-497" y1="361.815" y2="340.791" gradientTransform="translate(504,-339.79075)" gradientUnits="userSpaceOnUse" xlink:href="#linearGradient3206"/></defs><g id="layer1"><rect stroke-linecap="round" style="marker:none" id="rect2170" width="14.956" height="21.956" x="4.522" y=".522" fill="url(#linearGradient4490)" fill-opacity="1" fill-rule="evenodd" stroke="url(#linearGradient4492)" stroke-dasharray="none" stroke-dashoffset="0" stroke-linejoin="round" stroke-miterlimit="3.429" stroke-opacity="1" stroke-width="1.044" display="inline" enable-background="accumulate" overflow="visible" rx=".739" ry=".745" visibility="visible"/><path id="path5133" fill="#fff" fill-opacity="1" fill-rule="evenodd" stroke="#ccc" stroke-dasharray="none" stroke-dashoffset="0" stroke-linecap="round" stroke-linejoin="round" stroke-miterlimit="3.429" stroke-opacity="1" stroke-width="1.019" d="m 11.99999,12.50948 c -2.20428,0 -3.99051,1.78474 -3.99051,3.98717 0,2.20243 1.78623,3.99387 3.99051,3.99387 2.2043,0 3.99053,-1.79144 3.99053,-3.99387 0,-2.20243 -1.78623,-3.98716 -3.99053,-3.98717 z m 0,2.16084 c 1.0085,0 1.82789,0.81868 1.82789,1.82633 0,1.00765 -0.81939,1.82633 -1.82789,1.82633 -1.00849,10e-6 -1.82788,-0.81868 -1.82788,-1.82633 10e-6,-1.00765 0.81939,-1.82633 1.82788,-1.82633 z" display="inline" enable-background="accumulate" overflow="visible" visibility="visible" style="marker:none"/><rect stroke-linecap="round" style="marker:none" id="rect4140-0" width="11.051" height="8.051" x="6.474" y="2.474" fill="url(#radialGradient3127)" fill-opacity="1" fill-rule="evenodd" stroke="#333" stroke-dasharray="none" stroke-dashoffset="0" stroke-linejoin="round" stroke-miterlimit="3.429" stroke-opacity="1" stroke-width=".949" display="inline" enable-background="accumulate" overflow="visible" rx="0" ry="0" visibility="visible"/><path id="rect6588" fill="url(#linearGradient3075)" fill-opacity="1" stroke="none" d="m 7,3.0000004 10,0 0,2.6666669 -10,2.3333331 0,-5 z"/></g></svg>