<svg xmlns="http://www.w3.org/2000/svg" xmlns:svg="http://www.w3.org/2000/svg" xmlns:xlink="http://www.w3.org/1999/xlink" id="svg12094" width="24" height="24" version="1.1"><defs id="defs12096"><linearGradient id="linearGradient6637" x1="24.449" x2="24.449" y1="37.155" y2="42.678" gradientTransform="matrix(0.6577143,0,0,0.64918698,-3.7726899,-15.99019)" gradientUnits="userSpaceOnUse" xlink:href="#linearGradient4181-6"/><linearGradient id="linearGradient4181-6"><stop id="stop4183-2" offset="0" stop-color="#fff" stop-opacity="1"/><stop id="stop4185-4" offset="1" stop-color="#fff" stop-opacity="0"/></linearGradient><linearGradient id="linearGradient2867-449-88-871-390-598-476-591-434-148-57-177-8-2-6"><stop id="stop3750-5-2-9" offset="0" stop-color="#90dbec" stop-opacity="1"/><stop id="stop3752-7-4-8" offset=".262" stop-color="#55c1ec" stop-opacity="1"/><stop id="stop3754-4-7-4" offset=".705" stop-color="#3689e6" stop-opacity="1"/><stop id="stop3756-1-7-8" offset="1" stop-color="#2b63a0" stop-opacity="1"/></linearGradient><linearGradient id="linearGradient3707-319-631-407-324-5-4-4"><stop id="stop3760-9-8-2" offset="0" stop-color="#185f9a" stop-opacity="1"/><stop id="stop3762-7-1-0" offset="1" stop-color="#599ec9" stop-opacity="1"/></linearGradient><radialGradient id="radialGradient12090" cx="12.146" cy="8.45" r="20" fx="12.146" fy="8.45" gradientTransform="matrix(0,0.97196175,-1.0490213,-2.5079458e-8,20.86404,-16.6808)" gradientUnits="userSpaceOnUse" xlink:href="#linearGradient2867-449-88-871-390-598-476-591-434-148-57-177-8-2-6"/><linearGradient id="linearGradient12092" x1="24" x2="24" y1="39.475" y2="13.955" gradientTransform="matrix(0.6577143,0,0,0.70182188,-3.7851599,-15.2532)" gradientUnits="userSpaceOnUse" xlink:href="#linearGradient3707-319-631-407-324-5-4-4"/></defs><metadata id="metadata12099"/><g id="layer1" transform="translate(0,8)"><path id="path4112-19-69-3-4" fill="url(#radialGradient12090)" fill-opacity="1" fill-rule="nonzero" stroke="url(#linearGradient12092)" stroke-dasharray="none" stroke-dashoffset="0" stroke-linecap="round" stroke-linejoin="miter" stroke-miterlimit="4" stroke-opacity="1" stroke-width="1" d="m 11.99998,7.6796199 c -1.35513,0 -2.6960299,0.7054901 -3.2483299,1.3112801 L 11.99998,12.5 15.27983,9.02222 C 14.72753,8.38511 13.3551,7.6796199 11.99998,7.6796199 z m 0,-6.0930899 c -2.8334299,0 -5.3729899,1.12186 -7.4595699,2.83505 l 2.03095,2.1534799 C 7.9611201,5.5861899 10.12381,4.63307 11.91798,4.63307 c 1.83757,0 4.10323,0.9746599 5.51272,2.0077799 L 19.52314,4.38999 C 17.43657,2.6768 14.8334,1.58653 11.99998,1.58653 z m 0,-6.0930898 c -4.3752399,0 -8.3847499,1.6700198 -11.49997994,4.4521898 l 1.98707004,2.223 c 2.77795,-2.41964 5.7004,-3.62864 9.5129099,-3.62864 3.8125,0 6.64604,1.13864 9.55703,3.67762 l 1.94295,-2.27198 C 20.38472,-2.83654 16.37521,-4.5065598 11.99998,-4.5065598 z" color="#000" display="inline" enable-background="accumulate" overflow="visible" visibility="visible" style="marker:none"/><path id="path4112-19-69-3-3-1" fill="none" stroke="url(#linearGradient6637)" stroke-dasharray="none" stroke-dashoffset=".06" stroke-linecap="butt" stroke-linejoin="miter" stroke-miterlimit="4" stroke-opacity="1" stroke-width="1" d="m 10.38947,9.19905 c 0.25236,-0.32736 0.81621,-0.41966 1.60666,-0.39632 0.79045,0.0233 1.50817,0.13755 1.69419,0.42274 l -1.64256,1.68404 z" display="inline" enable-background="accumulate" opacity=".5" overflow="visible" visibility="visible" style="marker:none"/><path id="path4112-19-69-3-3-8-8" fill="none" stroke="#fff" stroke-dasharray="none" stroke-dashoffset=".06" stroke-linecap="butt" stroke-linejoin="miter" stroke-miterlimit="4" stroke-opacity="1" stroke-width="1" d="M 5.5808801,4.90188 C 7.4297601,3.37841 10.56269,2.48875 12.00564,2.5 c 1.44295,0.0107 4.6401,0.74221 6.47682,2.31735" display="inline" enable-background="accumulate" opacity=".4" overflow="visible" visibility="visible" style="marker:none"/><path id="path4112-19-69-3-3-9-8" fill="none" stroke="#fff" stroke-dasharray="none" stroke-dashoffset=".06" stroke-linecap="butt" stroke-linejoin="miter" stroke-miterlimit="4" stroke-opacity="1" stroke-width="1" d="m 1.6168601,0.34062 c 2.87106,-2.39368 6.37694,-3.8604098 10.0445399,-3.9062198 3.62694,-0.0411 7.76235,1.3079398 10.81087,3.9437998" display="inline" enable-background="accumulate" opacity=".4" overflow="visible" visibility="visible" style="marker:none"/></g></svg>