<svg xmlns="http://www.w3.org/2000/svg" xmlns:svg="http://www.w3.org/2000/svg" xmlns:xlink="http://www.w3.org/1999/xlink" id="svg4505" width="24" height="24" version="1.1"><defs id="defs4507"><linearGradient id="linearGradient4342"><stop id="stop4344" offset="0" stop-color="#fff" stop-opacity="1"/><stop id="stop4346" offset=".006" stop-color="#fff" stop-opacity=".235"/><stop id="stop4348" offset=".796" stop-color="#fff" stop-opacity=".157"/><stop id="stop4350" offset="1" stop-color="#fff" stop-opacity="1"/></linearGradient><linearGradient id="linearGradient3820-7-2-2"><stop id="stop3822-2-6-36" offset="0" stop-color="#3d3d3d" stop-opacity="1"/><stop id="stop3864-8-7-6" offset=".5" stop-color="#686868" stop-opacity=".498"/><stop id="stop3824-1-2-4" offset="1" stop-color="#686868" stop-opacity="0"/></linearGradient><radialGradient id="radialGradient3108" cx="99.157" cy="186.171" r="62.769" fx="99.157" fy="186.171" gradientTransform="matrix(0.11151981,0,0,0.03548359,0.94202897,15.166729)" gradientUnits="userSpaceOnUse" xlink:href="#linearGradient3820-7-2-2"/><linearGradient id="linearGradient2793-2-0-669-94-2"><stop id="stop4681-3-1" offset="0" stop-color="#b4b4b4" stop-opacity="1"/><stop id="stop4683-67-4" offset="1" stop-color="#fff" stop-opacity="1"/></linearGradient><linearGradient id="linearGradient4282" x1="1179.224" x2="1055.881" y1="51.276" y2="51.276" gradientTransform="matrix(0.0891819,0,0,0.0779309,-90.165471,-1.745973)" gradientUnits="userSpaceOnUse" spreadMethod="reflect" xlink:href="#linearGradient2793-2-0-669-94-2"/><linearGradient id="linearGradient4309" x1="203.181" x2="203.181" y1="15.25" y2="47.25" gradientTransform="matrix(0.5,0,0,0.5,-87.590631,-3.624996)" gradientUnits="userSpaceOnUse" xlink:href="#linearGradient5239"/><linearGradient id="linearGradient4340" x1="130.969" x2="130.969" y1="21.958" y2="36.14" gradientTransform="matrix(1.1634373,0,0,1.1634373,-132.37419,-20.046387)" gradientUnits="userSpaceOnUse" xlink:href="#linearGradient4342"/><linearGradient id="linearGradient4377" x1="172.203" x2="172.203" y1="17.25" y2="47.25" gradientTransform="matrix(0.5,0,0,0.5,-71.101511,-3.624996)" gradientUnits="userSpaceOnUse" xlink:href="#linearGradient4804"/><linearGradient id="linearGradient5239"><stop id="stop5241" offset="0" stop-color="#64baff" stop-opacity="1"/><stop id="stop5243" offset="1" stop-color="#3689e6" stop-opacity="1"/></linearGradient><linearGradient id="linearGradient4804"><stop id="stop4806" offset="0" stop-color="#002e99" stop-opacity="1"/><stop id="stop4809" offset="1" stop-color="#002e99" stop-opacity="0"/></linearGradient></defs><metadata id="metadata4510"/><path id="path3818-0-2-5" fill="url(#radialGradient3108)" fill-opacity="1" stroke="none" d="m 19,21.772727 a 7,2.2272727 0 0 1 -14,0 7,2.2272727 0 1 1 14,0 z" opacity=".6"/><path id="path4257" fill="url(#linearGradient4282)" fill-opacity="1" fill-rule="nonzero" stroke="none" stroke-dasharray="none" stroke-dashoffset="0" stroke-linecap="butt" stroke-linejoin="miter" stroke-miterlimit="4" stroke-opacity="1" stroke-width="1" d="m 3,4.8515625 9,-2.8242188 9.003906,2.8281251 C 21.003906,16 19.840714,17.387597 12,21.914435 4.14384,17.378679 3,16 3,4.8515625 Z" clip-rule="nonzero" color="#000" color-interpolation="sRGB" color-interpolation-filters="linearRGB" color-rendering="auto" display="inline" enable-background="accumulate" image-rendering="auto" opacity="1" overflow="visible" shape-rendering="auto" text-rendering="auto" visibility="visible" style="isolation:auto;mix-blend-mode:normal;solid-color:#000;solid-opacity:1;marker:none"/><path id="path4284" fill="url(#linearGradient4309)" fill-opacity="1" fill-rule="nonzero" stroke="none" stroke-dasharray="none" stroke-dashoffset="0" stroke-linecap="butt" stroke-linejoin="miter" stroke-miterlimit="4" stroke-opacity="1" stroke-width="1" d="m 5,6.1494132 7,-2.1796875 7,2.1796875 C 19,14.649413 18,16.59983 12.000783,20.06348 6,16.598927 5,14.649413 5,6.1494132 Z" clip-rule="nonzero" color="#000" color-interpolation="sRGB" color-interpolation-filters="linearRGB" color-rendering="auto" display="inline" enable-background="accumulate" image-rendering="auto" opacity="1" overflow="visible" shape-rendering="auto" text-rendering="auto" visibility="visible" style="isolation:auto;mix-blend-mode:normal;solid-color:#000;solid-opacity:1;marker:none"/><path id="path8117" fill="none" fill-opacity="1" stroke="#555761" stroke-linecap="round" stroke-linejoin="round" stroke-opacity="1" stroke-width="1" d="m 2.5,4.5 9.5,-3 9.5,3 C 21.5,16 20.5,17.592531 12,22.500008 3.5,17.592531 2.5,16 2.5,4.5 Z" opacity=".5"/><path id="path8128" fill="none" fill-opacity="1" fill-rule="nonzero" stroke="#002e99" stroke-dasharray="none" stroke-dashoffset="0" stroke-linecap="round" stroke-linejoin="round" stroke-miterlimit="4" stroke-opacity="1" stroke-width="1" d="m 5.5,6.5 6.5,-2 6.5,2 C 18.5,15 17,16.613704 12.000783,19.500004 7,16.612801 5.5,15 5.5,6.5 Z" clip-rule="nonzero" color="#000" color-interpolation="sRGB" color-interpolation-filters="linearRGB" color-rendering="auto" display="inline" enable-background="accumulate" image-rendering="auto" opacity=".5" overflow="visible" shape-rendering="auto" text-rendering="auto" visibility="visible" style="isolation:auto;mix-blend-mode:normal;solid-color:#000;solid-opacity:1"/><path id="path4311" fill="none" fill-opacity="1" fill-rule="nonzero" stroke="url(#linearGradient4340)" stroke-dasharray="none" stroke-dashoffset="0" stroke-linecap="round" stroke-linejoin="miter" stroke-miterlimit="4.1" stroke-opacity="1" stroke-width="1" d="m 3.5,5.2265625 8.5,-2.6875 8.5,2.6902482 C 20.5,15.5 19.5,17.013624 12,21.34375 4.476404,17 3.5,15.5 3.5,5.2265625 Z" clip-rule="nonzero" color="#000" color-interpolation="sRGB" color-interpolation-filters="linearRGB" color-rendering="auto" display="inline" enable-background="accumulate" image-rendering="auto" opacity=".7" overflow="visible" shape-rendering="auto" text-rendering="auto" visibility="visible" style="isolation:auto;mix-blend-mode:normal;solid-color:#000;solid-opacity:1;marker:none"/><path id="path4352" fill="none" fill-opacity="0" fill-rule="nonzero" stroke="url(#linearGradient4377)" stroke-dasharray="none" stroke-dashoffset="0" stroke-linecap="round" stroke-linejoin="miter" stroke-miterlimit="4" stroke-opacity="1" stroke-width="1" d="M 6.5,7.2348349 12,5.5552427 17.5,7.2348349 C 17.5,14.5 16,16.034801 12.000783,18.34375 8,16.033897 6.5,14.5 6.5,7.2348349 Z" clip-rule="nonzero" color="#000" color-interpolation="sRGB" color-interpolation-filters="linearRGB" color-rendering="auto" display="inline" enable-background="accumulate" image-rendering="auto" opacity=".15" overflow="visible" shape-rendering="auto" text-rendering="auto" visibility="visible" style="isolation:auto;mix-blend-mode:normal;solid-color:#000;solid-opacity:1;marker:none"/><path id="path4379" fill="#fff" fill-opacity="1" fill-rule="nonzero" stroke="none" stroke-dasharray="none" stroke-dashoffset="0" stroke-linecap="butt" stroke-linejoin="miter" stroke-miterlimit="4" stroke-opacity="1" stroke-width="1" d="M 3,4.8515625 12,2.0273437 C 12,10.5 12,12 12,21.914435 4.14384,17.378679 3,16 3,4.8515625 Z" clip-rule="nonzero" color="#000" color-interpolation="sRGB" color-interpolation-filters="linearRGB" color-rendering="auto" display="inline" enable-background="accumulate" image-rendering="auto" opacity=".2" overflow="visible" shape-rendering="auto" text-rendering="auto" visibility="visible" style="isolation:auto;mix-blend-mode:normal;solid-color:#000;solid-opacity:1;marker:none"/><g id="g854-6-0-4" fill="#fff" fill-opacity="1" stroke="none" stroke-dasharray="none" stroke-dashoffset="0" stroke-linecap="butt" stroke-linejoin="miter" stroke-miterlimit="4" stroke-opacity="1" stroke-width="1.5" opacity=".3" transform="matrix(0.66666443,0,0,0.66666443,-615.33124,188.33276)"><path id="path852-1-6-3" fill="#fff" fill-opacity="1" stroke="none" stroke-dasharray="none" stroke-dashoffset="0" stroke-linecap="butt" stroke-linejoin="miter" stroke-miterlimit="4" stroke-opacity="1" stroke-width="1.5" d="m 941,-269 a 3,3 0 0 0 -3,3 c 0,1.243 0.745,2.304 1.822,2.759 L 938,-257 h 6 l -1.821,-6.241 A 2.984,2.984 0 0 0 944,-266 a 3,3 0 0 0 -3,-3 z" color="#000" overflow="visible" vector-effect="none" style="marker:none"/></g><g id="g854-6-8" fill="none" fill-opacity="1" stroke="none" stroke-dasharray="none" stroke-dashoffset="0" stroke-linecap="butt" stroke-linejoin="miter" stroke-miterlimit="4" stroke-opacity="1" stroke-width="1.464" opacity="1" transform="matrix(0.6829268,0,0,0.6829268,-630.63412,191.86584)"><path id="path852-1-60" fill="none" fill-opacity="1" stroke="none" stroke-dasharray="none" stroke-dashoffset="0" stroke-linecap="butt" stroke-linejoin="miter" stroke-miterlimit="4" stroke-opacity="1" stroke-width="1.464" d="m 941,-269 a 3,3 0 0 0 -3,3 c 0,1.243 0.745,2.304 1.822,2.759 L 938,-257 h 6 l -1.821,-6.241 A 2.984,2.984 0 0 0 944,-266 a 3,3 0 0 0 -3,-3 z" color="#000" overflow="visible" vector-effect="none" style="marker:none"/></g><path id="path933" fill="#0d52bf" fill-opacity="1" stroke="#002e99" stroke-dasharray="none" stroke-dashoffset="0" stroke-linecap="butt" stroke-linejoin="miter" stroke-miterlimit="4" stroke-opacity="1" stroke-width="1" d="m 12.000002,8.5000015 a 1.5,1.5 0 0 0 -1.5,1.4999995 1.5,1.5 0 0 0 1.353516,1.492189 l -1.1875,4.007812 h 2.662109 L 12.144533,11.49219 a 1.5,1.5 0 0 0 1.355469,-1.492189 1.5,1.5 0 0 0 -1.5,-1.4999995 z" opacity="1" vector-effect="none" style="marker:none"/></svg>