<svg xmlns="http://www.w3.org/2000/svg" xmlns:svg="http://www.w3.org/2000/svg" id="svg2" width="64" height="64" version="1.1" viewBox="0 0 80 80" xml:space="preserve"><metadata id="metadata8"/><defs id="defs6"><clipPath id="clipPath16" clipPathUnits="userSpaceOnUse"><path id="path18" d="m 5.136,38.652 c 0,-1.186 0.097,-2.352 0.28,-3.493 l 0,0 c 0.16,-1.865 0.131,-3.89 0.162,-5.553 l 0,0 c 0.034,-1.791 0.078,-4.087 0.078,-4.087 l 0,0 0,0.001 c 0.026,-1.438 0.592,-3.79 1.598,-6.35 l 0,0 c 0.809,-2.057 1.742,-3.843 2.587,-5.046 l 0,0 c 0,0 0.004,-0.007 0.011,-0.017 l 0,0 C 9.991,13.91 10.127,13.73 10.26,13.566 l 0,0 c 0.571,-0.757 1.584,-2.087 2.111,-2.711 l 0,0 c 0.064,-0.078 0.126,-0.149 0.186,-0.212 l 0,0 C 13.11,10.046 13.491,9.742 14.005,9.49 l 0,0 C 14.52,9.237 14.912,9.438 14.912,9.438 l 0,0 c 0.324,0.087 0.386,0.918 0.226,2.264 l 0,0 4.455,-2.729 c 0.124,-0.067 0.275,-0.092 0.425,-0.052 l 0,0 1.91,0.507 0.011,-0.014 0.001,0 c 0.055,-0.062 0.106,-0.109 0.151,-0.141 l 0,0 c 0.356,-0.287 0.863,-0.407 1.353,-0.277 l 0,0 2.004,0.533 c 1.014,0.269 1.683,1.082 1.736,1.982 l 0,0 c 0.162,1.195 -1.107,6.354 -3.095,12.434 l 0,0 c -2.062,6.301 -4.178,11.394 -4.974,12.044 l 0,0 c -0.6,0.652 -1.594,0.955 -2.552,0.7 l 0,0 -2.004,-0.531 C 14.152,36.049 13.84,35.791 13.673,35.471 l 0,0 -2.154,-0.573 c -0.142,-0.037 -0.253,-0.125 -0.317,-0.235 l 0,0 -2.04,-4.362 C 9.141,30.339 9.12,30.376 9.099,30.412 l 0,0 -0.178,0.446 c -0.543,1.8 -0.833,3.693 -0.833,5.648 l 0,0 c 0,11.892 10.698,21.532 23.893,21.532 l 0,0 c 13.195,0 23.893,-9.64 23.893,-21.532 l 0,0 c 0,-2.063 -0.323,-4.057 -0.924,-5.946 l 0,0 -0.059,-0.148 c -0.022,-0.036 -0.042,-0.073 -0.064,-0.111 l 0,0 -2.04,4.362 c -0.064,0.11 -0.175,0.198 -0.317,0.235 l 0,0 -2.154,0.573 c -0.166,0.32 -0.479,0.578 -0.885,0.687 l 0,0 -2.005,0.531 c -0.958,0.255 -1.953,-0.048 -2.552,-0.7 l 0,0 c -0.796,-0.65 -2.912,-5.743 -4.973,-12.044 l 0,0 C 37.913,17.865 36.643,12.706 36.805,11.511 l 0,0 c 0.053,-0.9 0.722,-1.713 1.736,-1.982 l 0,0 2.004,-0.533 c 0.491,-0.13 0.997,-0.01 1.353,0.277 l 0,0 c 0.046,0.032 0.096,0.079 0.151,0.141 l 0,0 10e-4,0 0.012,0.014 1.909,-0.507 c 0.15,-0.04 0.302,-0.015 0.424,0.052 l 0,0 4.457,2.729 c -0.16,-1.346 -0.099,-2.177 0.225,-2.264 l 0,0 c 0,0 0.392,-0.201 0.907,0.052 l 0,0 c 0.515,0.252 0.895,0.556 1.448,1.153 l 0,0 c 0.061,0.063 0.122,0.134 0.185,0.212 l 0,0 c 0.527,0.624 1.541,1.954 2.112,2.711 l 0,0 c 0.133,0.164 0.269,0.344 0.408,0.541 l 0,0 c 0.007,0.01 0.012,0.017 0.012,0.017 l 0,0 -10e-4,0 c 0.844,1.203 1.778,2.989 2.586,5.046 l 0,0 c 1.007,2.56 1.573,4.912 1.598,6.35 l 0,0 10e-4,-0.001 c 0,0 0.043,2.296 0.078,4.087 l 0,0 c 0.034,1.792 -0.004,4.005 0.202,5.984 l 0,0 c 0,10e-4 0,10e-4 0,0.002 l 0,0 c 0.14,1.003 0.213,2.023 0.213,3.06 l 0,0 c 0,13.363 -12.019,24.194 -26.845,24.194 l 0,0 C 17.155,62.846 5.136,52.015 5.136,38.652"/></clipPath><linearGradient id="linearGradient24" x1="0" x2="1" y1="0" y2="0" gradientTransform="matrix(0,-53.45932,-53.45932,0,31.98111,61.920944)" gradientUnits="userSpaceOnUse" spreadMethod="pad"><stop id="stop26" offset="0" stop-color="#3d3d3e" stop-opacity="1"/><stop id="stop28" offset=".406" stop-color="#3d3d3e" stop-opacity="1"/><stop id="stop30" offset=".572" stop-color="#343334" stop-opacity="1"/><stop id="stop32" offset=".748" stop-color="#656263" stop-opacity="1"/><stop id="stop34" offset=".971" stop-color="#1f1d1d" stop-opacity="1"/><stop id="stop36" offset="1" stop-color="#1f1d1d" stop-opacity="1"/></linearGradient><clipPath id="clipPath44" clipPathUnits="userSpaceOnUse"><path id="path46" d="M 9.251,46.401 C 9.104,46.124 9.3,45.779 9.599,45.779 l 0,0 0.696,0 c 0.68,0 1.321,0.343 1.715,0.929 l 0,0 c 4.432,6.609 11.722,10.475 19.971,10.475 l 0,0 c 8.25,0 15.54,-3.866 19.971,-10.475 l 0,0 c 0.394,-0.586 1.036,-0.929 1.715,-0.929 l 0,0 0.696,0 c 0.3,0 0.496,0.345 0.348,0.622 l 0,0 C 50.081,55.127 41.638,60.07 31.981,60.07 l 0,0 c -9.657,0 -18.1,-4.943 -22.73,-13.669"/></clipPath><radialGradient id="radialGradient52" cx="0" cy="0" r="1" fx="0" fy="0" gradientTransform="matrix(24.213787,0.0159341,0.0143603,-21.822311,31.814695,38.526939)" gradientUnits="userSpaceOnUse" spreadMethod="pad"><stop id="stop54" offset="0" stop-color="#1f1d1d" stop-opacity="1"/><stop id="stop56" offset=".928" stop-color="#1f1d1d" stop-opacity="1"/><stop id="stop58" offset="1" stop-color="#343334" stop-opacity="1"/></radialGradient><clipPath id="clipPath66" clipPathUnits="userSpaceOnUse"><path id="path68" d="m 55.947,20.082 c -1.372,-3.85 -2.87,-7.119 -3.959,-8.773 l 0,0 c 0.547,0.683 1.285,1.652 1.741,2.257 l 0,0 c 0.133,0.164 0.269,0.344 0.408,0.541 l 0,0 c 0.007,0.01 0.012,0.017 0.012,0.017 l 0,0 -10e-4,0 c 0.844,1.203 1.778,2.989 2.586,5.046 l 0,0 c 1.007,2.56 1.573,4.912 1.598,6.35 l 0,0 10e-4,-0.001 c 0,0 0.04,2.136 0.074,3.896 l 0,0 c -0.162,-1.9 -1.063,-5.408 -2.46,-9.333"/></clipPath><linearGradient id="linearGradient74" x1="0" x2="1" y1="0" y2="0" gradientTransform="matrix(6.4187036,0,0,-6.4187036,51.988399,20.361425)" gradientUnits="userSpaceOnUse" spreadMethod="pad"><stop id="stop76" offset="0" stop-color="#2b2829" stop-opacity="1"/><stop id="stop78" offset=".37" stop-color="#2b2829" stop-opacity="1"/><stop id="stop80" offset="1" stop-color="#3b3839" stop-opacity="1"/></linearGradient><clipPath id="clipPath88" clipPathUnits="userSpaceOnUse"><path id="path90" d="M 51.112,21.021 C 49.152,14.846 48.24,9.661 49.077,9.438 l 0,0 c 0.836,-0.222 3.104,4.604 5.064,10.779 l 0,0 c 1.961,6.175 2.873,11.361 2.036,11.584 l 0,0 c -0.018,0.005 -0.038,0.007 -0.058,0.007 l 0,0 c -0.879,0 -3.09,-4.748 -5.007,-10.787"/></clipPath><linearGradient id="linearGradient96" x1="0" x2="1" y1="0" y2="0" gradientTransform="matrix(7.7210336,0,0,-7.7210336,48.766312,20.619322)" gradientUnits="userSpaceOnUse" spreadMethod="pad"><stop id="stop98" offset="0" stop-color="#1a1817" stop-opacity="1"/><stop id="stop100" offset="1" stop-color="#2c2a2a" stop-opacity="1"/></linearGradient><clipPath id="clipPath108" clipPathUnits="userSpaceOnUse"><path id="path110" d="m 52.785,34.658 c 0.008,-0.014 0.02,-0.028 0.026,-0.043 l 0,0 -0.023,0.051 -0.003,-0.008 z"/></clipPath><linearGradient id="linearGradient116" x1="0" x2="1" y1="0" y2="0" gradientTransform="matrix(0.0265716,0,0,-0.0265716,52.784992,34.640827)" gradientUnits="userSpaceOnUse" spreadMethod="pad"><stop id="stop118" offset="0" stop-color="#6d6e70" stop-opacity="1"/><stop id="stop120" offset=".506" stop-color="#545557" stop-opacity="1"/><stop id="stop122" offset="1" stop-color="#2c2a2a" stop-opacity="1"/></linearGradient><clipPath id="clipPath130" clipPathUnits="userSpaceOnUse"><path id="path132" d="m 52.849,34.469 c 0.26,-1.001 -1.077,-6.472 -3.2,-12.957 l 0,0 C 47.499,14.938 45.3,9.635 44.505,9.036 l 0,0 5.026,3.083 c 0.666,0.403 2.13,3.98 3.697,8.771 l 0,0 c 1.567,4.791 2.299,7.932 1.98,8.597 l 0,0 -2.392,5.12 c 0.018,-0.044 0.029,-0.09 0.033,-0.138"/></clipPath><linearGradient id="linearGradient138" x1="0" x2="1" y1="0" y2="0" gradientTransform="matrix(5.2528844,15.443684,15.443684,-5.2528844,47.953125,12.83254)" gradientUnits="userSpaceOnUse" spreadMethod="pad"><stop id="stop140" offset="0" stop-color="#2c2a2a" stop-opacity="1"/><stop id="stop142" offset=".5" stop-color="#2c2a2a" stop-opacity="1"/><stop id="stop144" offset=".803" stop-color="#545557" stop-opacity="1"/><stop id="stop146" offset="1" stop-color="#7b7979" stop-opacity="1"/></linearGradient><clipPath id="clipPath154" clipPathUnits="userSpaceOnUse"><path id="path156" d="M 44.428,8.991 C 44.418,8.985 44.407,8.98 44.396,8.976 l 0,0 -0.002,-0.007 0.074,0.045 C 44.456,9.006 44.44,8.996 44.428,8.991"/></clipPath><linearGradient id="linearGradient162" x1="0" x2="1" y1="0" y2="0" gradientTransform="matrix(0.0732546,0,0,-0.0732546,44.394592,8.9913454)" gradientUnits="userSpaceOnUse" spreadMethod="pad"><stop id="stop164" offset="0" stop-color="#6d6e70" stop-opacity="1"/><stop id="stop166" offset=".506" stop-color="#545557" stop-opacity="1"/><stop id="stop168" offset="1" stop-color="#2c2a2a" stop-opacity="1"/></linearGradient><clipPath id="clipPath176" clipPathUnits="userSpaceOnUse"><path id="path178" d="m 44.874,35.989 c -0.796,-0.65 -2.912,-5.743 -4.973,-12.044 l 0,0 C 37.913,17.865 36.643,12.706 36.805,11.511 l 0,0 c 0.053,-0.9 0.722,-1.713 1.736,-1.982 l 0,0 2.004,-0.533 c 0.491,-0.13 0.997,-0.01 1.353,0.277 l 0,0 c 0.046,0.032 0.096,0.079 0.151,0.141 l 0,0 10e-4,0 c 0.918,1.036 3.054,6.228 5.133,12.587 l 0,0 c 2.258,6.9 3.634,12.676 3.195,13.33 l 0,0 c -0.143,0.385 -0.484,0.702 -0.947,0.827 l 0,0 -2.005,0.531 c -0.229,0.061 -0.46,0.09 -0.687,0.09 l 0,0 c -0.724,0 -1.409,-0.294 -1.865,-0.79"/></clipPath><linearGradient id="linearGradient184" x1="0" x2="1" y1="0" y2="0" gradientTransform="matrix(6.875638,-2.0283756,-2.0283756,-6.875638,40.173004,23.967646)" gradientUnits="userSpaceOnUse" spreadMethod="pad"><stop id="stop186" offset="0" stop-color="#363233" stop-opacity="1"/><stop id="stop188" offset=".334" stop-color="#343131" stop-opacity="1"/><stop id="stop190" offset="1" stop-color="#2b2829" stop-opacity="1"/></linearGradient><clipPath id="clipPath198" clipPathUnits="userSpaceOnUse"><path id="path200" d="m 44.874,35.989 c -0.796,-0.65 -2.912,-5.743 -4.973,-12.044 l 0,0 C 37.913,17.865 36.643,12.706 36.805,11.511 l 0,0 c 0.053,-0.9 0.722,-1.713 1.736,-1.982 l 0,0 2.004,-0.533 c 0.491,-0.13 0.997,-0.01 1.353,0.277 l 0,0 c 0.046,0.032 0.096,0.079 0.151,0.141 l 0,0 10e-4,0 c 0.918,1.036 3.054,6.228 5.133,12.587 l 0,0 c 2.258,6.9 3.634,12.676 3.195,13.33 l 0,0 c -0.143,0.385 -0.484,0.702 -0.947,0.827 l 0,0 -2.005,0.531 c -0.229,0.061 -0.46,0.09 -0.687,0.09 l 0,0 c -0.724,0 -1.409,-0.294 -1.865,-0.79"/></clipPath><linearGradient id="linearGradient206" x1="0" x2="1" y1="0" y2="0" gradientTransform="matrix(-7.8168912,-26.165588,-26.165588,7.8168912,47.447113,36.039764)" gradientUnits="userSpaceOnUse" spreadMethod="pad"><stop id="stop208" offset="0" stop-color="#3b3839" stop-opacity="1"/><stop id="stop210" offset=".279" stop-color="#363233" stop-opacity="1"/><stop id="stop212" offset=".5" stop-color="#322e2f" stop-opacity="1"/><stop id="stop214" offset="1" stop-color="#2b2829" stop-opacity="1"/></linearGradient><clipPath id="clipPath222" clipPathUnits="userSpaceOnUse"><path id="path224" d="m 50.378,35.331 c 0.439,-0.654 -0.937,-6.43 -3.195,-13.33 l 0,0 C 45.112,15.665 42.984,10.491 42.061,9.428 l 0,0 1.91,-0.507 c 0.163,-0.043 0.329,-0.012 0.457,0.07 l 0,0 c 0.721,0.284 2.998,5.723 5.221,12.521 l 0,0 c 2.123,6.485 3.46,11.956 3.2,12.957 l 0,0 c -0.014,0.195 -0.158,0.371 -0.379,0.429 l 0,0 -2.166,0.576 c 0.025,-0.047 0.055,-0.092 0.074,-0.143"/></clipPath><linearGradient id="linearGradient230" x1="0" x2="1" y1="0" y2="0" gradientTransform="matrix(-5.6781921,-24.874912,-24.874912,5.6781921,50.428005,34.290646)" gradientUnits="userSpaceOnUse" spreadMethod="pad"><stop id="stop232" offset="0" stop-color="#d3d2d2" stop-opacity="1"/><stop id="stop234" offset=".139" stop-color="#a7a5a6" stop-opacity="1"/><stop id="stop236" offset=".274" stop-color="#6d6e70" stop-opacity="1"/><stop id="stop238" offset="1" stop-color="#373737" stop-opacity="1"/></linearGradient><clipPath id="clipPath246" clipPathUnits="userSpaceOnUse"><path id="path248" d="M 0,64 64,64 64,0 0,0 0,64 Z"/></clipPath><clipPath id="clipPath254" clipPathUnits="userSpaceOnUse"><path id="path256" d="m 48.5463,30.2262 7.2352,0 0,-18.973 -7.2352,0 0,18.973 z"/></clipPath><clipPath id="clipPath270" clipPathUnits="userSpaceOnUse"><path id="path272" d="m 41.675,35.5672 9.2842,0 0,-26.52766 -9.2842,0 0,26.52766 z"/></clipPath><clipPath id="clipPath286" clipPathUnits="userSpaceOnUse"><path id="path288" d="m 43.9527,34.6864 9.1356,0 0,-26.06923 -9.1356,0 0,26.06923 z"/></clipPath><clipPath id="clipPath302" clipPathUnits="userSpaceOnUse"><path id="path304" d="m 5.656,25.519 0,0.001 c 0.026,-1.438 0.592,-3.79 1.598,-6.35 l 0,0 c 0.809,-2.057 1.742,-3.843 2.587,-5.046 l 0,0 c 0,0 0.004,-0.007 0.011,-0.017 l 0,0 C 9.991,13.91 10.127,13.73 10.26,13.566 l 0,0 c 0.456,-0.605 1.193,-1.574 1.741,-2.257 l 0,0 c -1.088,1.654 -2.587,4.923 -3.959,8.773 l 0,0 c -1.397,3.925 -2.298,7.433 -2.46,9.333 l 0,0 c 0.034,-1.76 0.074,-3.896 0.074,-3.896"/></clipPath><linearGradient id="linearGradient310" x1="0" x2="1" y1="0" y2="0" gradientTransform="matrix(-6.4187036,0,0,-6.4187036,12.000724,20.361425)" gradientUnits="userSpaceOnUse" spreadMethod="pad"><stop id="stop312" offset="0" stop-color="#2b2829" stop-opacity="1"/><stop id="stop314" offset=".37" stop-color="#2b2829" stop-opacity="1"/><stop id="stop316" offset="1" stop-color="#3b3839" stop-opacity="1"/></linearGradient><clipPath id="clipPath324" clipPathUnits="userSpaceOnUse"><path id="path326" d="M 7.813,31.801 C 6.976,31.578 7.888,26.392 9.848,20.217 l 0,0 c 1.96,-6.175 4.228,-11.001 5.064,-10.779 l 0,0 c 0.836,0.223 -0.075,5.408 -2.035,11.583 l 0,0 C 10.96,27.06 8.75,31.808 7.871,31.808 l 0,0 c -0.02,0 -0.04,-0.002 -0.058,-0.007"/></clipPath><linearGradient id="linearGradient332" x1="0" x2="1" y1="0" y2="0" gradientTransform="matrix(-7.7210336,0,0,-7.7210336,15.222813,20.619322)" gradientUnits="userSpaceOnUse" spreadMethod="pad"><stop id="stop334" offset="0" stop-color="#1a1817" stop-opacity="1"/><stop id="stop336" offset="1" stop-color="#2c2a2a" stop-opacity="1"/></linearGradient><clipPath id="clipPath344" clipPathUnits="userSpaceOnUse"><path id="path346" d="m 11.178,34.615 c 0.006,0.015 0.018,0.029 0.026,0.043 l 0,0 -0.003,0.008 -0.023,-0.051 z"/></clipPath><linearGradient id="linearGradient352" x1="0" x2="1" y1="0" y2="0" gradientTransform="matrix(-0.0265716,0,0,-0.0265716,11.204133,34.640827)" gradientUnits="userSpaceOnUse" spreadMethod="pad"><stop id="stop354" offset="0" stop-color="#6d6e70" stop-opacity="1"/><stop id="stop356" offset=".506" stop-color="#545557" stop-opacity="1"/><stop id="stop358" offset="1" stop-color="#2c2a2a" stop-opacity="1"/></linearGradient><clipPath id="clipPath366" clipPathUnits="userSpaceOnUse"><path id="path368" d="m 8.781,29.487 c -0.319,-0.665 0.412,-3.806 1.98,-8.597 l 0,0 c 1.567,-4.791 3.031,-8.368 3.697,-8.771 l 0,0 5.026,-3.083 C 18.689,9.635 16.49,14.938 14.34,21.512 l 0,0 c -2.123,6.485 -3.46,11.956 -3.2,12.957 l 0,0 c 0.004,0.048 0.016,0.094 0.034,0.138 l 0,0 -2.393,-5.12 z"/></clipPath><linearGradient id="linearGradient374" x1="0" x2="1" y1="0" y2="0" gradientTransform="matrix(-5.2528844,15.443684,-15.443684,-5.2528844,16.035999,12.832539)" gradientUnits="userSpaceOnUse" spreadMethod="pad"><stop id="stop376" offset="0" stop-color="#2c2a2a" stop-opacity="1"/><stop id="stop378" offset=".5" stop-color="#2c2a2a" stop-opacity="1"/><stop id="stop380" offset=".803" stop-color="#545557" stop-opacity="1"/><stop id="stop382" offset="1" stop-color="#7b7979" stop-opacity="1"/></linearGradient><clipPath id="clipPath390" clipPathUnits="userSpaceOnUse"><path id="path392" d="M 19.595,8.969 19.592,8.976 C 19.582,8.98 19.57,8.985 19.561,8.991 l 0,0 c -0.013,0.005 -0.026,0.015 -0.039,0.023 l 0,0 0.073,-0.045 z"/></clipPath><linearGradient id="linearGradient398" x1="0" x2="1" y1="0" y2="0" gradientTransform="matrix(-0.0732546,0,0,-0.0732546,19.594532,8.9913454)" gradientUnits="userSpaceOnUse" spreadMethod="pad"><stop id="stop400" offset="0" stop-color="#6d6e70" stop-opacity="1"/><stop id="stop402" offset=".506" stop-color="#545557" stop-opacity="1"/><stop id="stop404" offset="1" stop-color="#2c2a2a" stop-opacity="1"/></linearGradient><clipPath id="clipPath412" clipPathUnits="userSpaceOnUse"><path id="path414" d="m 16.563,36.689 -2.004,-0.531 c -0.464,-0.125 -0.805,-0.442 -0.948,-0.827 l 0,0 c -0.438,-0.654 0.938,-6.43 3.194,-13.33 l 0,0 C 18.886,15.642 21.021,10.45 21.939,9.414 l 0,0 0.001,0 c 0.055,-0.062 0.106,-0.109 0.151,-0.141 l 0,0 c 0.356,-0.287 0.863,-0.407 1.353,-0.277 l 0,0 2.004,0.533 c 1.014,0.269 1.683,1.082 1.736,1.982 l 0,0 c 0.162,1.195 -1.107,6.354 -3.095,12.434 l 0,0 c -2.062,6.301 -4.178,11.394 -4.974,12.044 l 0,0 c -0.457,0.496 -1.141,0.79 -1.865,0.79 l 0,0 c -0.227,0 -0.458,-0.029 -0.687,-0.09"/></clipPath><linearGradient id="linearGradient420" x1="0" x2="1" y1="0" y2="0" gradientTransform="matrix(-6.875638,-2.0283756,2.0283756,-6.875638,23.81612,23.967646)" gradientUnits="userSpaceOnUse" spreadMethod="pad"><stop id="stop422" offset="0" stop-color="#363233" stop-opacity="1"/><stop id="stop424" offset=".334" stop-color="#343131" stop-opacity="1"/><stop id="stop426" offset="1" stop-color="#2b2829" stop-opacity="1"/></linearGradient><clipPath id="clipPath434" clipPathUnits="userSpaceOnUse"><path id="path436" d="m 16.563,36.689 -2.004,-0.531 c -0.464,-0.125 -0.805,-0.442 -0.948,-0.827 l 0,0 c -0.438,-0.654 0.938,-6.43 3.194,-13.33 l 0,0 C 18.886,15.642 21.021,10.45 21.939,9.414 l 0,0 0.001,0 c 0.055,-0.062 0.106,-0.109 0.151,-0.141 l 0,0 c 0.356,-0.287 0.863,-0.407 1.353,-0.277 l 0,0 2.004,0.533 c 1.014,0.269 1.683,1.082 1.736,1.982 l 0,0 c 0.162,1.195 -1.107,6.354 -3.095,12.434 l 0,0 c -2.062,6.301 -4.178,11.394 -4.974,12.044 l 0,0 c -0.457,0.496 -1.141,0.79 -1.865,0.79 l 0,0 c -0.227,0 -0.458,-0.029 -0.687,-0.09"/></clipPath><linearGradient id="linearGradient442" x1="0" x2="1" y1="0" y2="0" gradientTransform="matrix(7.8168912,-26.165588,26.165588,7.8168912,16.542009,36.039764)" gradientUnits="userSpaceOnUse" spreadMethod="pad"><stop id="stop444" offset="0" stop-color="#3b3839" stop-opacity="1"/><stop id="stop446" offset=".279" stop-color="#363233" stop-opacity="1"/><stop id="stop448" offset=".5" stop-color="#322e2f" stop-opacity="1"/><stop id="stop450" offset="1" stop-color="#2b2829" stop-opacity="1"/></linearGradient><clipPath id="clipPath458" clipPathUnits="userSpaceOnUse"><path id="path460" d="M 11.519,34.898 C 11.299,34.84 11.155,34.664 11.14,34.469 l 0,0 c -0.26,-1.001 1.077,-6.472 3.2,-12.957 l 0,0 c 2.223,-6.798 4.5,-12.237 5.221,-12.521 l 0,0 c 0.128,-0.082 0.294,-0.113 0.457,-0.07 l 0,0 1.91,0.507 c -0.923,1.063 -3.05,6.237 -5.123,12.573 l 0,0 c -2.256,6.9 -3.632,12.676 -3.194,13.33 l 0,0 c 0.019,0.051 0.049,0.096 0.074,0.143 l 0,0 -2.166,-0.576 z"/></clipPath><linearGradient id="linearGradient466" x1="0" x2="1" y1="0" y2="0" gradientTransform="matrix(5.6781921,-24.874912,24.874912,5.6781921,13.561118,34.290646)" gradientUnits="userSpaceOnUse" spreadMethod="pad"><stop id="stop468" offset="0" stop-color="#d3d2d2" stop-opacity="1"/><stop id="stop470" offset=".139" stop-color="#a7a5a6" stop-opacity="1"/><stop id="stop472" offset=".274" stop-color="#6d6e70" stop-opacity="1"/><stop id="stop474" offset="1" stop-color="#373737" stop-opacity="1"/></linearGradient><clipPath id="clipPath482" clipPathUnits="userSpaceOnUse"><path id="path484" d="M 0,64 64,64 64,0 0,0 0,64 Z"/></clipPath><clipPath id="clipPath490" clipPathUnits="userSpaceOnUse"><path id="path492" d="m 8.20761,30.2262 7.23529,0 0,-18.973 -7.23529,0 0,18.973 z"/></clipPath><clipPath id="clipPath506" clipPathUnits="userSpaceOnUse"><path id="path508" d="m 13.0299,35.5672 9.2842,0 0,-26.52766 -9.2842,0 0,26.52766 z"/></clipPath><clipPath id="clipPath522" clipPathUnits="userSpaceOnUse"><path id="path524" d="m 10.9008,34.6864 9.1356,0 0,-26.06923 -9.1356,0 0,26.06923 z"/></clipPath><clipPath id="clipPath538" clipPathUnits="userSpaceOnUse"><path id="path540" d="m 11.3592,10.6419 19.6875,0 0,-4.00251 -19.6875,0 0,4.00251 z"/></clipPath><clipPath id="clipPath542" clipPathUnits="userSpaceOnUse"><path id="path544" d="m 31.047,8.641 c 0,-1.106 -4.407,-2.001 -9.844,-2.001 -5.436,0 -9.844,0.895 -9.844,2.001 0,1.105 4.408,2.001 9.844,2.001 5.437,0 9.844,-0.896 9.844,-2.001"/></clipPath><clipPath id="clipPath546" clipPathUnits="userSpaceOnUse"><path id="path548" d="m -32768,32767 65535,0 0,-65535 -65535,0 0,65535 z"/></clipPath><radialGradient id="radialGradient550" cx="0" cy="0" r="1" fx="0" fy="0" gradientTransform="matrix(9.8867559,0,0,-1.8747674,21.202988,8.6406593)" gradientUnits="userSpaceOnUse" spreadMethod="pad"><stop id="stop552" offset="0" stop-color="#fff" stop-opacity="1"/><stop id="stop554" offset=".531" stop-color="#fff" stop-opacity="0"/><stop id="stop556" offset="1" stop-color="#fff" stop-opacity="0"/></radialGradient><mask id="mask558" width="1" height="1" x="0" y="0" maskUnits="userSpaceOnUse"><g id="g560"><g id="g562" clip-path="url(#clipPath546)"><g id="g564"><g id="g566"><path id="path568" fill="url(#radialGradient550)" stroke="none" d="m -32768,32767 65535,0 0,-65535 -65535,0 0,65535 z"/></g></g></g></g></mask><radialGradient id="radialGradient570" cx="0" cy="0" r="1" fx="0" fy="0" gradientTransform="matrix(9.8867559,0,0,-1.8747674,21.202988,8.6406593)" gradientUnits="userSpaceOnUse" spreadMethod="pad"><stop id="stop572" offset="0" stop-color="#100f0d" stop-opacity="1"/><stop id="stop574" offset=".531" stop-color="#100f0d" stop-opacity="1"/><stop id="stop576" offset="1" stop-color="#100f0d" stop-opacity="1"/></radialGradient><clipPath id="clipPath600" clipPathUnits="userSpaceOnUse"><path id="path602" d="m 27.2382,1.93176 10.1099,0 0,-1.657834 -10.1099,0 0,1.657834 z"/></clipPath><clipPath id="clipPath604" clipPathUnits="userSpaceOnUse"><path id="path606" d="m 37.348,1.103 c 0,-0.457 -2.263,-0.83 -5.055,-0.83 -2.792,0 -5.055,0.373 -5.055,0.83 0,0.458 2.263,0.829 5.055,0.829 2.792,0 5.055,-0.371 5.055,-0.829"/></clipPath><clipPath id="clipPath608" clipPathUnits="userSpaceOnUse"><path id="path610" d="m -32768,32767 65535,0 0,-65535 -65535,0 0,65535 z"/></clipPath><radialGradient id="radialGradient612" cx="0" cy="0" r="1" fx="0" fy="0" gradientTransform="matrix(5.0770202,0,0,-0.7765269,32.293163,1.1028409)" gradientUnits="userSpaceOnUse" spreadMethod="pad"><stop id="stop614" offset="0" stop-color="#fff" stop-opacity="1"/><stop id="stop616" offset=".531" stop-color="#fff" stop-opacity="0"/><stop id="stop618" offset="1" stop-color="#fff" stop-opacity="0"/></radialGradient><mask id="mask620" width="1" height="1" x="0" y="0" maskUnits="userSpaceOnUse"><g id="g622"><g id="g624" clip-path="url(#clipPath608)"><g id="g626"><g id="g628"><path id="path630" fill="url(#radialGradient612)" stroke="none" d="m -32768,32767 65535,0 0,-65535 -65535,0 0,65535 z"/></g></g></g></g></mask><radialGradient id="radialGradient632" cx="0" cy="0" r="1" fx="0" fy="0" gradientTransform="matrix(5.0770202,0,0,-0.7765269,32.293163,1.1028409)" gradientUnits="userSpaceOnUse" spreadMethod="pad"><stop id="stop634" offset="0" stop-color="#100f0d" stop-opacity="1"/><stop id="stop636" offset=".531" stop-color="#100f0d" stop-opacity="1"/><stop id="stop638" offset="1" stop-color="#100f0d" stop-opacity="1"/></radialGradient><clipPath id="clipPath662" clipPathUnits="userSpaceOnUse"><path id="path664" d="m 33.2336,10.6419 19.6875,0 0,-4.00251 -19.6875,0 0,4.00251 z"/></clipPath><clipPath id="clipPath666" clipPathUnits="userSpaceOnUse"><path id="path668" d="m 52.921,8.641 c 0,-1.106 -4.407,-2.001 -9.844,-2.001 -5.436,0 -9.844,0.895 -9.844,2.001 0,1.105 4.408,2.001 9.844,2.001 5.437,0 9.844,-0.896 9.844,-2.001"/></clipPath><clipPath id="clipPath670" clipPathUnits="userSpaceOnUse"><path id="path672" d="m -32768,32767 65535,0 0,-65535 -65535,0 0,65535 z"/></clipPath><radialGradient id="radialGradient674" cx="0" cy="0" r="1" fx="0" fy="0" gradientTransform="matrix(9.8867559,0,0,-1.8747674,43.077366,8.6406593)" gradientUnits="userSpaceOnUse" spreadMethod="pad"><stop id="stop676" offset="0" stop-color="#fff" stop-opacity="1"/><stop id="stop678" offset=".531" stop-color="#fff" stop-opacity="0"/><stop id="stop680" offset="1" stop-color="#fff" stop-opacity="0"/></radialGradient><mask id="mask682" width="1" height="1" x="0" y="0" maskUnits="userSpaceOnUse"><g id="g684"><g id="g686" clip-path="url(#clipPath670)"><g id="g688"><g id="g690"><path id="path692" fill="url(#radialGradient674)" stroke="none" d="m -32768,32767 65535,0 0,-65535 -65535,0 0,65535 z"/></g></g></g></g></mask><radialGradient id="radialGradient694" cx="0" cy="0" r="1" fx="0" fy="0" gradientTransform="matrix(9.8867559,0,0,-1.8747674,43.077366,8.6406593)" gradientUnits="userSpaceOnUse" spreadMethod="pad"><stop id="stop696" offset="0" stop-color="#100f0d" stop-opacity="1"/><stop id="stop698" offset=".531" stop-color="#100f0d" stop-opacity="1"/><stop id="stop700" offset="1" stop-color="#100f0d" stop-opacity="1"/></radialGradient><clipPath id="clipPath724" clipPathUnits="userSpaceOnUse"><path id="path726" d="M 34.222,2.643 C 33.876,2.648 33.6,2.372 33.605,2.028 l 0,0 C 33.611,1.686 33.89,1.405 34.232,1.394 l 0,0 0.011,0 C 34.668,1.389 44.71,1.29 49.978,4.221 l 0,0 -0.636,1.093 C 44.359,2.544 34.323,2.641 34.222,2.643"/></clipPath><clipPath id="clipPath732" clipPathUnits="userSpaceOnUse"><path id="path734" d="m -32768,32767 65535,0 0,-65535 -65535,0 0,65535 z"/></clipPath><linearGradient id="linearGradient736" x1="0" x2="1" y1="0" y2="0" gradientTransform="matrix(16.372398,-0.4824995,0,-16.288204,33.605053,3.5958331)" gradientUnits="userSpaceOnUse" spreadMethod="pad"><stop id="stop738" offset="0" stop-color="#fff" stop-opacity=".1"/><stop id="stop740" offset="1" stop-color="#fff" stop-opacity="0"/></linearGradient><mask id="mask742" width="1" height="1" x="0" y="0" maskUnits="userSpaceOnUse"><g id="g744"><g id="g746" clip-path="url(#clipPath732)"><g id="g748"><g id="g750"><path id="path752" fill="url(#linearGradient736)" stroke="none" d="m -32768,32767 65535,0 0,-65535 -65535,0 0,65535 z"/></g></g></g></g></mask><linearGradient id="linearGradient758" x1="0" x2="1" y1="0" y2="0" gradientTransform="matrix(16.372398,-0.4824995,0,-16.288204,33.605053,3.5958331)" gradientUnits="userSpaceOnUse" spreadMethod="pad"><stop id="stop760" offset="0" stop-color="#4f4c4d" stop-opacity="1"/><stop id="stop762" offset="1" stop-color="#2e2d2d" stop-opacity="1"/></linearGradient><clipPath id="clipPath770" clipPathUnits="userSpaceOnUse"><path id="path772" d="M 57.227,19.798 C 57.192,19.687 54.156,10.158 49.261,7.277 l 0,0 C 44.303,4.359 34.32,4.161 34.219,4.159 l 0,0 C 33.874,4.154 33.6,3.869 33.605,3.524 l 0,0 C 33.611,3.183 33.889,2.911 34.23,2.911 l 0,0 0.01,0 C 34.662,2.918 44.653,3.115 49.893,6.2 l 0,0 c 5.301,3.122 8.369,12.743 8.522,13.209 l 0,0 c 0.107,0.328 -0.073,0.681 -0.4,0.788 l 0,0 c -0.064,0.021 -0.129,0.031 -0.193,0.031 l 0,0 c -0.263,0 -0.508,-0.167 -0.595,-0.43"/></clipPath><linearGradient id="linearGradient778" x1="0" x2="1" y1="0" y2="0" gradientTransform="matrix(24.84012,0,0,-24.84012,33.605049,11.569341)" gradientUnits="userSpaceOnUse" spreadMethod="pad"><stop id="stop780" offset="0" stop-color="#4f4c4d" stop-opacity="1"/><stop id="stop782" offset="1" stop-color="#2e2d2d" stop-opacity="1"/></linearGradient><clipPath id="clipPath790" clipPathUnits="userSpaceOnUse"><path id="path792" d="m 56.99,19.875 c -0.006,-0.019 -0.655,-1.992 -1.765,-4.457 l 0,0 c -0.199,-0.439 -0.002,-0.957 0.437,-1.156 l 0,0 c 0.117,-0.052 0.24,-0.076 0.359,-0.076 l 0,0 c 0.333,0 0.651,0.191 0.798,0.515 l 0,0 c 1.15,2.555 1.805,4.548 1.832,4.631 l 0,0 c 0.15,0.459 -0.101,0.952 -0.558,1.102 l 0,0 c -0.09,0.03 -0.182,0.044 -0.273,0.044 l 0,0 c -0.367,0 -0.709,-0.236 -0.83,-0.603"/></clipPath><clipPath id="clipPath798" clipPathUnits="userSpaceOnUse"><path id="path800" d="m -32768,32767 65535,0 0,-65535 -65535,0 0,65535 z"/></clipPath><linearGradient id="linearGradient802" x1="0" x2="1" y1="0" y2="0" gradientTransform="matrix(-1.9946219,-4.7870717,-4.7870717,1.9946219,57.690277,19.149116)" gradientUnits="userSpaceOnUse" spreadMethod="pad"><stop id="stop804" offset="0" stop-color="#fff" stop-opacity="1"/><stop id="stop806" offset=".151" stop-color="#fff" stop-opacity=".749"/><stop id="stop808" offset=".161" stop-color="#fff" stop-opacity=".749"/><stop id="stop810" offset=".434" stop-color="#fff" stop-opacity="0"/><stop id="stop812" offset=".442" stop-color="#fff" stop-opacity="0"/><stop id="stop814" offset=".789" stop-color="#fff" stop-opacity="0"/><stop id="stop816" offset="1" stop-color="#fff" stop-opacity="1"/></linearGradient><mask id="mask818" width="1" height="1" x="0" y="0" maskUnits="userSpaceOnUse"><g id="g820"><g id="g822" clip-path="url(#clipPath798)"><g id="g824"><g id="g826"><path id="path828" fill="url(#linearGradient802)" stroke="none" d="m -32768,32767 65535,0 0,-65535 -65535,0 0,65535 z"/></g></g></g></g></mask><linearGradient id="linearGradient834" x1="0" x2="1" y1="0" y2="0" gradientTransform="matrix(-1.9946219,-4.7870717,-4.7870717,1.9946219,57.690277,19.149116)" gradientUnits="userSpaceOnUse" spreadMethod="pad"><stop id="stop836" offset="0" stop-color="#2e2d2d" stop-opacity="1"/><stop id="stop838" offset=".151" stop-color="#403b3a" stop-opacity="1"/><stop id="stop840" offset=".161" stop-color="#403b3a" stop-opacity="1"/><stop id="stop842" offset=".434" stop-color="#7b7979" stop-opacity="1"/><stop id="stop844" offset=".442" stop-color="#7b7979" stop-opacity="1"/><stop id="stop846" offset=".789" stop-color="#7b7979" stop-opacity="1"/><stop id="stop848" offset="1" stop-color="#2e2d2d" stop-opacity="1"/></linearGradient><clipPath id="clipPath856" clipPathUnits="userSpaceOnUse"><path id="path858" d="m 56.99,19.875 c -0.006,-0.019 -0.655,-1.992 -1.765,-4.457 l 0,0 c -0.199,-0.439 -0.002,-0.957 0.437,-1.156 l 0,0 c 0.117,-0.052 0.24,-0.076 0.359,-0.076 l 0,0 c 0.333,0 0.651,0.191 0.798,0.515 l 0,0 c 1.15,2.555 1.805,4.548 1.832,4.631 l 0,0 c 0.15,0.459 -0.101,0.952 -0.558,1.102 l 0,0 c -0.09,0.03 -0.182,0.044 -0.273,0.044 l 0,0 c -0.367,0 -0.709,-0.236 -0.83,-0.603"/></clipPath><linearGradient id="linearGradient864" x1="0" x2="1" y1="0" y2="0" gradientTransform="matrix(1.5289046,-0.5915162,-0.5915162,-1.5289046,56.25452,17.589123)" gradientUnits="userSpaceOnUse" spreadMethod="pad"><stop id="stop866" offset="0" stop-color="#2e2d2d" stop-opacity="1"/><stop id="stop868" offset=".208" stop-color="#7b7979" stop-opacity="1"/><stop id="stop870" offset=".5" stop-color="#7b7979" stop-opacity="1"/><stop id="stop872" offset=".811" stop-color="#7b7979" stop-opacity="1"/><stop id="stop874" offset="1" stop-color="#2e2d2d" stop-opacity="1"/></linearGradient><clipPath id="clipPath882" clipPathUnits="userSpaceOnUse"><path id="path884" d="m 56.765,19.259 0.888,-0.327 c 0.458,-0.168 0.966,0.067 1.135,0.526 l 0,0 0.022,0.058 c 0.168,0.459 -0.067,0.966 -0.526,1.135 l 0,0 -0.888,0.326 -0.631,-1.718 z"/></clipPath><radialGradient id="radialGradient890" cx="0" cy="0" r="1" fx="0" fy="0" gradientTransform="matrix(2.7843666,-0.913309,-0.9132686,-2.7843854,58.364155,21.283602)" gradientUnits="userSpaceOnUse" spreadMethod="pad"><stop id="stop892" offset="0" stop-color="#7b7979" stop-opacity="1"/><stop id="stop894" offset=".47" stop-color="#7b7979" stop-opacity="1"/><stop id="stop896" offset=".672" stop-color="#2e2d2d" stop-opacity="1"/><stop id="stop898" offset="1" stop-color="#393536" stop-opacity="1"/></radialGradient><clipPath id="clipPath906" clipPathUnits="userSpaceOnUse"><path id="path908" d="m 30.309,6.513 c -1.429,0 -2.587,-1.157 -2.587,-2.586 l 0,0 0,-0.183 c 0,-1.428 1.158,-2.588 2.587,-2.588 l 0,0 3.968,0 c 1.429,0 2.587,1.16 2.587,2.588 l 0,0 0,0.183 c 0,1.429 -1.158,2.586 -2.587,2.586 l 0,0 -3.968,0 z"/></clipPath><linearGradient id="linearGradient914" x1="0" x2="1" y1="0" y2="0" gradientTransform="matrix(9.1426029,0,0,-9.1426029,27.721863,3.8351643)" gradientUnits="userSpaceOnUse" spreadMethod="pad"><stop id="stop916" offset="0" stop-color="#282322" stop-opacity="1"/><stop id="stop918" offset="1" stop-color="#191716" stop-opacity="1"/></linearGradient><clipPath id="clipPath926" clipPathUnits="userSpaceOnUse"><path id="path928" d="m 30.309,6.513 c -1.429,0 -2.587,-1.157 -2.587,-2.586 l 0,0 0,-0.183 c 0,-1.428 1.158,-2.588 2.587,-2.588 l 0,0 3.968,0 c 1.429,0 2.587,1.16 2.587,2.588 l 0,0 0,0.183 c 0,1.429 -1.158,2.586 -2.587,2.586 l 0,0 -3.968,0 z"/></clipPath><clipPath id="clipPath934" clipPathUnits="userSpaceOnUse"><path id="path936" d="m -32768,32767 65535,0 0,-65535 -65535,0 0,65535 z"/></clipPath><linearGradient id="linearGradient938" x1="0" x2="1" y1="0" y2="0" gradientTransform="matrix(0,5.3569927,5.3569927,0,32.293163,1.1566677)" gradientUnits="userSpaceOnUse" spreadMethod="pad"><stop id="stop940" offset="0" stop-color="#fff" stop-opacity="0"/><stop id="stop942" offset=".482" stop-color="#fff" stop-opacity="0"/><stop id="stop944" offset="1" stop-color="#fff" stop-opacity="1"/></linearGradient><mask id="mask946" width="1" height="1" x="0" y="0" maskUnits="userSpaceOnUse"><g id="g948"><g id="g950" clip-path="url(#clipPath934)"><g id="g952"><g id="g954"><path id="path956" fill="url(#linearGradient938)" stroke="none" d="m -32768,32767 65535,0 0,-65535 -65535,0 0,65535 z"/></g></g></g></g></mask><linearGradient id="linearGradient962" x1="0" x2="1" y1="0" y2="0" gradientTransform="matrix(0,5.3569927,5.3569927,0,32.293163,1.1566677)" gradientUnits="userSpaceOnUse" spreadMethod="pad"><stop id="stop964" offset="0" stop-color="#413b3a" stop-opacity="1"/><stop id="stop966" offset=".482" stop-color="#413b3a" stop-opacity="1"/><stop id="stop968" offset="1" stop-color="#4f4c4d" stop-opacity="1"/></linearGradient><clipPath id="clipPath976" clipPathUnits="userSpaceOnUse"><path id="path978" d="M 0,64 64,64 64,0 0,0 0,64 Z"/></clipPath><clipPath id="clipPath984" clipPathUnits="userSpaceOnUse"><path id="path986" d="m 4.63611,63.3461 54.71899,0 0,-62.689423 -54.71899,0 0,62.689423 z"/></clipPath><clipPath id="clipPath988" clipPathUnits="userSpaceOnUse"><path id="path990" d="m 4.63611,63.3461 54.71899,0 0,-62.689423 -54.71899,0 0,62.689423 z"/></clipPath><radialGradient id="radialGradient992" cx="0" cy="0" r="1" fx="0" fy="0" gradientTransform="matrix(29.1699,-0.0212991,0.0212991,29.1699,31.9956,31.9986)" gradientUnits="userSpaceOnUse" spreadMethod="pad"><stop id="stop994" offset="0" stop-color="#1f1d1d" stop-opacity="1"/><stop id="stop996" offset=".928" stop-color="#1f1d1d" stop-opacity="1"/><stop id="stop998" offset="1" stop-color="#343334" stop-opacity="1"/></radialGradient></defs><g id="g10" transform="matrix(1.25,0,0,-1.25,0,80)"><g id="g12"><g id="g14" clip-path="url(#clipPath16)"><g id="g20"><g id="g22"><path id="path38" fill="url(#linearGradient24)" stroke="none" d="m 5.136,38.652 c 0,-1.186 0.097,-2.352 0.28,-3.493 l 0,0 c 0.16,-1.865 0.131,-3.89 0.162,-5.553 l 0,0 c 0.034,-1.791 0.078,-4.087 0.078,-4.087 l 0,0 0,0.001 c 0.026,-1.438 0.592,-3.79 1.598,-6.35 l 0,0 c 0.809,-2.057 1.742,-3.843 2.587,-5.046 l 0,0 c 0,0 0.004,-0.007 0.011,-0.017 l 0,0 C 9.991,13.91 10.127,13.73 10.26,13.566 l 0,0 c 0.571,-0.757 1.584,-2.087 2.111,-2.711 l 0,0 c 0.064,-0.078 0.126,-0.149 0.186,-0.212 l 0,0 C 13.11,10.046 13.491,9.742 14.005,9.49 l 0,0 C 14.52,9.237 14.912,9.438 14.912,9.438 l 0,0 c 0.324,0.087 0.386,0.918 0.226,2.264 l 0,0 4.455,-2.729 c 0.124,-0.067 0.275,-0.092 0.425,-0.052 l 0,0 1.91,0.507 0.011,-0.014 0.001,0 c 0.055,-0.062 0.106,-0.109 0.151,-0.141 l 0,0 c 0.356,-0.287 0.863,-0.407 1.353,-0.277 l 0,0 2.004,0.533 c 1.014,0.269 1.683,1.082 1.736,1.982 l 0,0 c 0.162,1.195 -1.107,6.354 -3.095,12.434 l 0,0 c -2.062,6.301 -4.178,11.394 -4.974,12.044 l 0,0 c -0.6,0.652 -1.594,0.955 -2.552,0.7 l 0,0 -2.004,-0.531 C 14.152,36.049 13.84,35.791 13.673,35.471 l 0,0 -2.154,-0.573 c -0.142,-0.037 -0.253,-0.125 -0.317,-0.235 l 0,0 -2.04,-4.362 C 9.141,30.339 9.12,30.376 9.099,30.412 l 0,0 -0.178,0.446 c -0.543,1.8 -0.833,3.693 -0.833,5.648 l 0,0 c 0,11.892 10.698,21.532 23.893,21.532 l 0,0 c 13.195,0 23.893,-9.64 23.893,-21.532 l 0,0 c 0,-2.063 -0.323,-4.057 -0.924,-5.946 l 0,0 -0.059,-0.148 c -0.022,-0.036 -0.042,-0.073 -0.064,-0.111 l 0,0 -2.04,4.362 c -0.064,0.11 -0.175,0.198 -0.317,0.235 l 0,0 -2.154,0.573 c -0.166,0.32 -0.479,0.578 -0.885,0.687 l 0,0 -2.005,0.531 c -0.958,0.255 -1.953,-0.048 -2.552,-0.7 l 0,0 c -0.796,-0.65 -2.912,-5.743 -4.973,-12.044 l 0,0 C 37.913,17.865 36.643,12.706 36.805,11.511 l 0,0 c 0.053,-0.9 0.722,-1.713 1.736,-1.982 l 0,0 2.004,-0.533 c 0.491,-0.13 0.997,-0.01 1.353,0.277 l 0,0 c 0.046,0.032 0.096,0.079 0.151,0.141 l 0,0 10e-4,0 0.012,0.014 1.909,-0.507 c 0.15,-0.04 0.302,-0.015 0.424,0.052 l 0,0 4.457,2.729 c -0.16,-1.346 -0.099,-2.177 0.225,-2.264 l 0,0 c 0,0 0.392,-0.201 0.907,0.052 l 0,0 c 0.515,0.252 0.895,0.556 1.448,1.153 l 0,0 c 0.061,0.063 0.122,0.134 0.185,0.212 l 0,0 c 0.527,0.624 1.541,1.954 2.112,2.711 l 0,0 c 0.133,0.164 0.269,0.344 0.408,0.541 l 0,0 c 0.007,0.01 0.012,0.017 0.012,0.017 l 0,0 -10e-4,0 c 0.844,1.203 1.778,2.989 2.586,5.046 l 0,0 c 1.007,2.56 1.573,4.912 1.598,6.35 l 0,0 10e-4,-0.001 c 0,0 0.043,2.296 0.078,4.087 l 0,0 c 0.034,1.792 -0.004,4.005 0.202,5.984 l 0,0 c 0,10e-4 0,10e-4 0,0.002 l 0,0 c 0.14,1.003 0.213,2.023 0.213,3.06 l 0,0 c 0,13.363 -12.019,24.194 -26.845,24.194 l 0,0 C 17.155,62.846 5.136,52.015 5.136,38.652"/></g></g></g></g><g id="g40"><g id="g42" clip-path="url(#clipPath44)"><g id="g48"><g id="g50"><path id="path60" fill="url(#radialGradient52)" stroke="none" d="M 9.251,46.401 C 9.104,46.124 9.3,45.779 9.599,45.779 l 0,0 0.696,0 c 0.68,0 1.321,0.343 1.715,0.929 l 0,0 c 4.432,6.609 11.722,10.475 19.971,10.475 l 0,0 c 8.25,0 15.54,-3.866 19.971,-10.475 l 0,0 c 0.394,-0.586 1.036,-0.929 1.715,-0.929 l 0,0 0.696,0 c 0.3,0 0.496,0.345 0.348,0.622 l 0,0 C 50.081,55.127 41.638,60.07 31.981,60.07 l 0,0 c -9.657,0 -18.1,-4.943 -22.73,-13.669"/></g></g></g></g><g id="g62"><g id="g64" clip-path="url(#clipPath66)"><g id="g70"><g id="g72"><path id="path82" fill="url(#linearGradient74)" stroke="none" d="m 55.947,20.082 c -1.372,-3.85 -2.87,-7.119 -3.959,-8.773 l 0,0 c 0.547,0.683 1.285,1.652 1.741,2.257 l 0,0 c 0.133,0.164 0.269,0.344 0.408,0.541 l 0,0 c 0.007,0.01 0.012,0.017 0.012,0.017 l 0,0 -10e-4,0 c 0.844,1.203 1.778,2.989 2.586,5.046 l 0,0 c 1.007,2.56 1.573,4.912 1.598,6.35 l 0,0 10e-4,-0.001 c 0,0 0.04,2.136 0.074,3.896 l 0,0 c -0.162,-1.9 -1.063,-5.408 -2.46,-9.333"/></g></g></g></g><g id="g84"><g id="g86" clip-path="url(#clipPath88)"><g id="g92"><g id="g94"><path id="path102" fill="url(#linearGradient96)" stroke="none" d="M 51.112,21.021 C 49.152,14.846 48.24,9.661 49.077,9.438 l 0,0 c 0.836,-0.222 3.104,4.604 5.064,10.779 l 0,0 c 1.961,6.175 2.873,11.361 2.036,11.584 l 0,0 c -0.018,0.005 -0.038,0.007 -0.058,0.007 l 0,0 c -0.879,0 -3.09,-4.748 -5.007,-10.787"/></g></g></g></g><g id="g104"><g id="g106" clip-path="url(#clipPath108)"><g id="g112"><g id="g114"><path id="path124" fill="url(#linearGradient116)" stroke="none" d="m 52.785,34.658 c 0.008,-0.014 0.02,-0.028 0.026,-0.043 l 0,0 -0.023,0.051 -0.003,-0.008 z"/></g></g></g></g><g id="g126"><g id="g128" clip-path="url(#clipPath130)"><g id="g134"><g id="g136"><path id="path148" fill="url(#linearGradient138)" stroke="none" d="m 52.849,34.469 c 0.26,-1.001 -1.077,-6.472 -3.2,-12.957 l 0,0 C 47.499,14.938 45.3,9.635 44.505,9.036 l 0,0 5.026,3.083 c 0.666,0.403 2.13,3.98 3.697,8.771 l 0,0 c 1.567,4.791 2.299,7.932 1.98,8.597 l 0,0 -2.392,5.12 c 0.018,-0.044 0.029,-0.09 0.033,-0.138"/></g></g></g></g><g id="g150"><g id="g152" clip-path="url(#clipPath154)"><g id="g158"><g id="g160"><path id="path170" fill="url(#linearGradient162)" stroke="none" d="M 44.428,8.991 C 44.418,8.985 44.407,8.98 44.396,8.976 l 0,0 -0.002,-0.007 0.074,0.045 C 44.456,9.006 44.44,8.996 44.428,8.991"/></g></g></g></g><g id="g172"><g id="g174" clip-path="url(#clipPath176)"><g id="g180"><g id="g182"><path id="path192" fill="url(#linearGradient184)" stroke="none" d="m 44.874,35.989 c -0.796,-0.65 -2.912,-5.743 -4.973,-12.044 l 0,0 C 37.913,17.865 36.643,12.706 36.805,11.511 l 0,0 c 0.053,-0.9 0.722,-1.713 1.736,-1.982 l 0,0 2.004,-0.533 c 0.491,-0.13 0.997,-0.01 1.353,0.277 l 0,0 c 0.046,0.032 0.096,0.079 0.151,0.141 l 0,0 10e-4,0 c 0.918,1.036 3.054,6.228 5.133,12.587 l 0,0 c 2.258,6.9 3.634,12.676 3.195,13.33 l 0,0 c -0.143,0.385 -0.484,0.702 -0.947,0.827 l 0,0 -2.005,0.531 c -0.229,0.061 -0.46,0.09 -0.687,0.09 l 0,0 c -0.724,0 -1.409,-0.294 -1.865,-0.79"/></g></g></g></g><g id="g194"><g id="g196" clip-path="url(#clipPath198)"><g id="g202"><g id="g204"><path id="path216" fill="url(#linearGradient206)" stroke="none" d="m 44.874,35.989 c -0.796,-0.65 -2.912,-5.743 -4.973,-12.044 l 0,0 C 37.913,17.865 36.643,12.706 36.805,11.511 l 0,0 c 0.053,-0.9 0.722,-1.713 1.736,-1.982 l 0,0 2.004,-0.533 c 0.491,-0.13 0.997,-0.01 1.353,0.277 l 0,0 c 0.046,0.032 0.096,0.079 0.151,0.141 l 0,0 10e-4,0 c 0.918,1.036 3.054,6.228 5.133,12.587 l 0,0 c 2.258,6.9 3.634,12.676 3.195,13.33 l 0,0 c -0.143,0.385 -0.484,0.702 -0.947,0.827 l 0,0 -2.005,0.531 c -0.229,0.061 -0.46,0.09 -0.687,0.09 l 0,0 c -0.724,0 -1.409,-0.294 -1.865,-0.79"/></g></g></g></g><g id="g218"><g id="g220" clip-path="url(#clipPath222)"><g id="g226"><g id="g228"><path id="path240" fill="url(#linearGradient230)" stroke="none" d="m 50.378,35.331 c 0.439,-0.654 -0.937,-6.43 -3.195,-13.33 l 0,0 C 45.112,15.665 42.984,10.491 42.061,9.428 l 0,0 1.91,-0.507 c 0.163,-0.043 0.329,-0.012 0.457,0.07 l 0,0 c 0.721,0.284 2.998,5.723 5.221,12.521 l 0,0 c 2.123,6.485 3.46,11.956 3.2,12.957 l 0,0 c -0.014,0.195 -0.158,0.371 -0.379,0.429 l 0,0 -2.166,0.576 c 0.025,-0.047 0.055,-0.092 0.074,-0.143"/></g></g></g></g><g id="g242"><g id="g244" clip-path="url(#clipPath246)"><g id="g250"><g id="g258"><g id="g260" clip-path="url(#clipPath254)" opacity=".5"><g id="g262" transform="translate(48.8809,11.7812)"><path id="path264" fill="none" stroke="#100f0d" stroke-dasharray="none" stroke-linecap="butt" stroke-linejoin="miter" stroke-miterlimit="10" stroke-opacity="1" stroke-width="1" d="m 0,0 c 0,0 0.167,-0.149 0.65,0.239 0.485,0.39 2.13,3.981 3.697,8.772 1.567,4.79 2.299,7.93 1.98,8.595 l -0.26,0.655"/></g></g></g></g><g id="g266"><g id="g274"><g id="g276" clip-path="url(#clipPath270)" opacity=".5"><g id="g278" transform="translate(42.0488,9.3711)"><path id="path280" fill="none" stroke="#231f20" stroke-dasharray="none" stroke-linecap="butt" stroke-linejoin="miter" stroke-miterlimit="10" stroke-opacity="1" stroke-width="1" d="m 0,0 c 0.001,0 0.001,0 0.001,0.001 0.918,1.035 3.054,6.228 5.134,12.587 2.258,6.898 3.633,12.676 3.194,13.33"/></g></g></g></g><g id="g282"><g id="g290"><g id="g292" clip-path="url(#clipPath286)" opacity=".2"><g id="g294" transform="translate(44.1357,9.083)"><path id="path296" fill="none" stroke="#fff" stroke-dasharray="none" stroke-linecap="butt" stroke-linejoin="miter" stroke-miterlimit="10" stroke-opacity="1" stroke-width="1" d="m 0,0 c 0.721,0.283 2.997,5.723 5.221,12.52 2.122,6.486 3.46,11.957 3.2,12.958"/></g></g></g></g></g></g><g id="g298"><g id="g300" clip-path="url(#clipPath302)"><g id="g306"><g id="g308"><path id="path318" fill="url(#linearGradient310)" stroke="none" d="m 5.656,25.519 0,0.001 c 0.026,-1.438 0.592,-3.79 1.598,-6.35 l 0,0 c 0.809,-2.057 1.742,-3.843 2.587,-5.046 l 0,0 c 0,0 0.004,-0.007 0.011,-0.017 l 0,0 C 9.991,13.91 10.127,13.73 10.26,13.566 l 0,0 c 0.456,-0.605 1.193,-1.574 1.741,-2.257 l 0,0 c -1.088,1.654 -2.587,4.923 -3.959,8.773 l 0,0 c -1.397,3.925 -2.298,7.433 -2.46,9.333 l 0,0 c 0.034,-1.76 0.074,-3.896 0.074,-3.896"/></g></g></g></g><g id="g320"><g id="g322" clip-path="url(#clipPath324)"><g id="g328"><g id="g330"><path id="path338" fill="url(#linearGradient332)" stroke="none" d="M 7.813,31.801 C 6.976,31.578 7.888,26.392 9.848,20.217 l 0,0 c 1.96,-6.175 4.228,-11.001 5.064,-10.779 l 0,0 c 0.836,0.223 -0.075,5.408 -2.035,11.583 l 0,0 C 10.96,27.06 8.75,31.808 7.871,31.808 l 0,0 c -0.02,0 -0.04,-0.002 -0.058,-0.007"/></g></g></g></g><g id="g340"><g id="g342" clip-path="url(#clipPath344)"><g id="g348"><g id="g350"><path id="path360" fill="url(#linearGradient352)" stroke="none" d="m 11.178,34.615 c 0.006,0.015 0.018,0.029 0.026,0.043 l 0,0 -0.003,0.008 -0.023,-0.051 z"/></g></g></g></g><g id="g362"><g id="g364" clip-path="url(#clipPath366)"><g id="g370"><g id="g372"><path id="path384" fill="url(#linearGradient374)" stroke="none" d="m 8.781,29.487 c -0.319,-0.665 0.412,-3.806 1.98,-8.597 l 0,0 c 1.567,-4.791 3.031,-8.368 3.697,-8.771 l 0,0 5.026,-3.083 C 18.689,9.635 16.49,14.938 14.34,21.512 l 0,0 c -2.123,6.485 -3.46,11.956 -3.2,12.957 l 0,0 c 0.004,0.048 0.016,0.094 0.034,0.138 l 0,0 -2.393,-5.12 z"/></g></g></g></g><g id="g386"><g id="g388" clip-path="url(#clipPath390)"><g id="g394"><g id="g396"><path id="path406" fill="url(#linearGradient398)" stroke="none" d="M 19.595,8.969 19.592,8.976 C 19.582,8.98 19.57,8.985 19.561,8.991 l 0,0 c -0.013,0.005 -0.026,0.015 -0.039,0.023 l 0,0 0.073,-0.045 z"/></g></g></g></g><g id="g408"><g id="g410" clip-path="url(#clipPath412)"><g id="g416"><g id="g418"><path id="path428" fill="url(#linearGradient420)" stroke="none" d="m 16.563,36.689 -2.004,-0.531 c -0.464,-0.125 -0.805,-0.442 -0.948,-0.827 l 0,0 c -0.438,-0.654 0.938,-6.43 3.194,-13.33 l 0,0 C 18.886,15.642 21.021,10.45 21.939,9.414 l 0,0 0.001,0 c 0.055,-0.062 0.106,-0.109 0.151,-0.141 l 0,0 c 0.356,-0.287 0.863,-0.407 1.353,-0.277 l 0,0 2.004,0.533 c 1.014,0.269 1.683,1.082 1.736,1.982 l 0,0 c 0.162,1.195 -1.107,6.354 -3.095,12.434 l 0,0 c -2.062,6.301 -4.178,11.394 -4.974,12.044 l 0,0 c -0.457,0.496 -1.141,0.79 -1.865,0.79 l 0,0 c -0.227,0 -0.458,-0.029 -0.687,-0.09"/></g></g></g></g><g id="g430"><g id="g432" clip-path="url(#clipPath434)"><g id="g438"><g id="g440"><path id="path452" fill="url(#linearGradient442)" stroke="none" d="m 16.563,36.689 -2.004,-0.531 c -0.464,-0.125 -0.805,-0.442 -0.948,-0.827 l 0,0 c -0.438,-0.654 0.938,-6.43 3.194,-13.33 l 0,0 C 18.886,15.642 21.021,10.45 21.939,9.414 l 0,0 0.001,0 c 0.055,-0.062 0.106,-0.109 0.151,-0.141 l 0,0 c 0.356,-0.287 0.863,-0.407 1.353,-0.277 l 0,0 2.004,0.533 c 1.014,0.269 1.683,1.082 1.736,1.982 l 0,0 c 0.162,1.195 -1.107,6.354 -3.095,12.434 l 0,0 c -2.062,6.301 -4.178,11.394 -4.974,12.044 l 0,0 c -0.457,0.496 -1.141,0.79 -1.865,0.79 l 0,0 c -0.227,0 -0.458,-0.029 -0.687,-0.09"/></g></g></g></g><g id="g454"><g id="g456" clip-path="url(#clipPath458)"><g id="g462"><g id="g464"><path id="path476" fill="url(#linearGradient466)" stroke="none" d="M 11.519,34.898 C 11.299,34.84 11.155,34.664 11.14,34.469 l 0,0 c -0.26,-1.001 1.077,-6.472 3.2,-12.957 l 0,0 c 2.223,-6.798 4.5,-12.237 5.221,-12.521 l 0,0 c 0.128,-0.082 0.294,-0.113 0.457,-0.07 l 0,0 1.91,0.507 c -0.923,1.063 -3.05,6.237 -5.123,12.573 l 0,0 c -2.256,6.9 -3.632,12.676 -3.194,13.33 l 0,0 c 0.019,0.051 0.049,0.096 0.074,0.143 l 0,0 -2.166,-0.576 z"/></g></g></g></g><g id="g478"><g id="g480" clip-path="url(#clipPath482)"><g id="g486"><g id="g494"><g id="g496" clip-path="url(#clipPath490)" opacity=".5"><g id="g498" transform="translate(15.1079,11.7812)"><path id="path500" fill="none" stroke="#100f0d" stroke-dasharray="none" stroke-linecap="butt" stroke-linejoin="miter" stroke-miterlimit="10" stroke-opacity="1" stroke-width="1" d="m 0,0 c 0,0 -0.166,-0.149 -0.65,0.239 -0.484,0.39 -2.129,3.981 -3.697,8.772 -1.567,4.79 -2.299,7.93 -1.98,8.595 l 0.26,0.655"/></g></g></g></g><g id="g502"><g id="g510"><g id="g512" clip-path="url(#clipPath506)" opacity=".5"><g id="g514" transform="translate(21.9399,9.3711)"><path id="path516" fill="none" stroke="#231f20" stroke-dasharray="none" stroke-linecap="butt" stroke-linejoin="miter" stroke-miterlimit="10" stroke-opacity="1" stroke-width="1" d="m 0,0 c 0,0 0,0 0,0.001 -0.918,1.035 -3.054,6.228 -5.135,12.587 -2.257,6.898 -3.632,12.676 -3.194,13.33"/></g></g></g></g><g id="g518"><g id="g526"><g id="g528" clip-path="url(#clipPath522)" opacity=".2"><g id="g530" transform="translate(19.8535,9.083)"><path id="path532" fill="none" stroke="#fff" stroke-dasharray="none" stroke-linecap="butt" stroke-linejoin="miter" stroke-miterlimit="10" stroke-opacity="1" stroke-width="1" d="m 0,0 c -0.721,0.283 -2.998,5.723 -5.221,12.52 -2.122,6.486 -3.46,11.957 -3.199,12.958"/></g></g></g></g><g id="g534"><g id="g578"><g id="g580" clip-path="url(#clipPath538)" opacity=".2"><g id="g582"><g id="g584" clip-path="url(#clipPath542)"><g id="g586"><g id="g590" mask="url(#mask558)"><g id="g592"><path id="path594" fill="url(#radialGradient570)" stroke="none" d="m 31.047,8.641 c 0,-1.106 -4.407,-2.001 -9.844,-2.001 -5.436,0 -9.844,0.895 -9.844,2.001 0,1.105 4.408,2.001 9.844,2.001 5.437,0 9.844,-0.896 9.844,-2.001"/></g></g></g></g></g></g></g></g><g id="g596"><g id="g640"><g id="g642" clip-path="url(#clipPath600)" opacity=".2"><g id="g644"><g id="g646" clip-path="url(#clipPath604)"><g id="g648"><g id="g652" mask="url(#mask620)"><g id="g654"><path id="path656" fill="url(#radialGradient632)" stroke="none" d="m 37.348,1.103 c 0,-0.457 -2.263,-0.83 -5.055,-0.83 -2.792,0 -5.055,0.373 -5.055,0.83 0,0.458 2.263,0.829 5.055,0.829 2.792,0 5.055,-0.371 5.055,-0.829"/></g></g></g></g></g></g></g></g><g id="g658"><g id="g702"><g id="g704" clip-path="url(#clipPath662)" opacity=".2"><g id="g706"><g id="g708" clip-path="url(#clipPath666)"><g id="g710"><g id="g714" mask="url(#mask682)"><g id="g716"><path id="path718" fill="url(#radialGradient694)" stroke="none" d="m 52.921,8.641 c 0,-1.106 -4.407,-2.001 -9.844,-2.001 -5.436,0 -9.844,0.895 -9.844,2.001 0,1.105 4.408,2.001 9.844,2.001 5.437,0 9.844,-0.896 9.844,-2.001"/></g></g></g></g></g></g></g></g></g></g><g id="g720"><g id="g722" clip-path="url(#clipPath724)"><g id="g728"><g id="g754" mask="url(#mask742)"><g id="g756"><path id="path764" fill="url(#linearGradient758)" stroke="none" d="M 34.222,2.643 C 33.876,2.648 33.6,2.372 33.605,2.028 l 0,0 C 33.611,1.686 33.89,1.405 34.232,1.394 l 0,0 0.011,0 C 34.668,1.389 44.71,1.29 49.978,4.221 l 0,0 -0.636,1.093 C 44.359,2.544 34.323,2.641 34.222,2.643"/></g></g></g></g></g><g id="g766"><g id="g768" clip-path="url(#clipPath770)"><g id="g774"><g id="g776"><path id="path784" fill="url(#linearGradient778)" stroke="none" d="M 57.227,19.798 C 57.192,19.687 54.156,10.158 49.261,7.277 l 0,0 C 44.303,4.359 34.32,4.161 34.219,4.159 l 0,0 C 33.874,4.154 33.6,3.869 33.605,3.524 l 0,0 C 33.611,3.183 33.889,2.911 34.23,2.911 l 0,0 0.01,0 C 34.662,2.918 44.653,3.115 49.893,6.2 l 0,0 c 5.301,3.122 8.369,12.743 8.522,13.209 l 0,0 c 0.107,0.328 -0.073,0.681 -0.4,0.788 l 0,0 c -0.064,0.021 -0.129,0.031 -0.193,0.031 l 0,0 c -0.263,0 -0.508,-0.167 -0.595,-0.43"/></g></g></g></g><g id="g786"><g id="g788" clip-path="url(#clipPath790)"><g id="g794"><g id="g830" mask="url(#mask818)"><g id="g832"><path id="path850" fill="url(#linearGradient834)" stroke="none" d="m 56.99,19.875 c -0.006,-0.019 -0.655,-1.992 -1.765,-4.457 l 0,0 c -0.199,-0.439 -0.002,-0.957 0.437,-1.156 l 0,0 c 0.117,-0.052 0.24,-0.076 0.359,-0.076 l 0,0 c 0.333,0 0.651,0.191 0.798,0.515 l 0,0 c 1.15,2.555 1.805,4.548 1.832,4.631 l 0,0 c 0.15,0.459 -0.101,0.952 -0.558,1.102 l 0,0 c -0.09,0.03 -0.182,0.044 -0.273,0.044 l 0,0 c -0.367,0 -0.709,-0.236 -0.83,-0.603"/></g></g></g></g></g><g id="g852"><g id="g854" clip-path="url(#clipPath856)"><g id="g860"><g id="g862"><path id="path876" fill="url(#linearGradient864)" stroke="none" d="m 56.99,19.875 c -0.006,-0.019 -0.655,-1.992 -1.765,-4.457 l 0,0 c -0.199,-0.439 -0.002,-0.957 0.437,-1.156 l 0,0 c 0.117,-0.052 0.24,-0.076 0.359,-0.076 l 0,0 c 0.333,0 0.651,0.191 0.798,0.515 l 0,0 c 1.15,2.555 1.805,4.548 1.832,4.631 l 0,0 c 0.15,0.459 -0.101,0.952 -0.558,1.102 l 0,0 c -0.09,0.03 -0.182,0.044 -0.273,0.044 l 0,0 c -0.367,0 -0.709,-0.236 -0.83,-0.603"/></g></g></g></g><g id="g878"><g id="g880" clip-path="url(#clipPath882)"><g id="g886"><g id="g888"><path id="path900" fill="url(#radialGradient890)" stroke="none" d="m 56.765,19.259 0.888,-0.327 c 0.458,-0.168 0.966,0.067 1.135,0.526 l 0,0 0.022,0.058 c 0.168,0.459 -0.067,0.966 -0.526,1.135 l 0,0 -0.888,0.326 -0.631,-1.718 z"/></g></g></g></g><g id="g902"><g id="g904" clip-path="url(#clipPath906)"><g id="g910"><g id="g912"><path id="path920" fill="url(#linearGradient914)" stroke="none" d="m 30.309,6.513 c -1.429,0 -2.587,-1.157 -2.587,-2.586 l 0,0 0,-0.183 c 0,-1.428 1.158,-2.588 2.587,-2.588 l 0,0 3.968,0 c 1.429,0 2.587,1.16 2.587,2.588 l 0,0 0,0.183 c 0,1.429 -1.158,2.586 -2.587,2.586 l 0,0 -3.968,0 z"/></g></g></g></g><g id="g922"><g id="g924" clip-path="url(#clipPath926)"><g id="g930"><g id="g958" mask="url(#mask946)"><g id="g960"><path id="path970" fill="url(#linearGradient962)" stroke="none" d="m 30.309,6.513 c -1.429,0 -2.587,-1.157 -2.587,-2.586 l 0,0 0,-0.183 c 0,-1.428 1.158,-2.588 2.587,-2.588 l 0,0 3.968,0 c 1.429,0 2.587,1.16 2.587,2.588 l 0,0 0,0.183 c 0,1.429 -1.158,2.586 -2.587,2.586 l 0,0 -3.968,0 z"/></g></g></g></g></g><g id="g972"><g id="g974" clip-path="url(#clipPath976)"><g id="g980"><g id="g1000"><g id="g1002" clip-path="url(#clipPath984)"><g id="g1004"><g id="g1008"><g id="g1010" clip-path="url(#clipPath988)" opacity=".5"><g id="g1012" transform="translate(58.2549,20.6621)"><path id="path1014" fill="none" stroke="url(#radialGradient992)" stroke-dasharray="none" stroke-linecap="butt" stroke-linejoin="round" stroke-miterlimit="10" stroke-opacity="1" stroke-width="1" d="m 0,0 -0.859,0.315 c 0,0 0.916,3.368 0.936,4.542 l 0.001,0 c 0,0 0.043,2.296 0.078,4.087 0.034,1.792 -0.004,4.005 0.202,5.985 0,10e-4 -0.001,10e-4 -0.001,10e-4 0.141,1.003 0.214,2.024 0.214,3.06 0,13.362 -12.018,24.194 -26.845,24.194 -14.826,0 -26.845,-10.832 -26.845,-24.194 0,-1.186 0.097,-2.353 0.281,-3.494 0.16,-1.864 0.13,-3.889 0.161,-5.552 0.035,-1.791 0.078,-4.087 0.078,-4.087 l 10e-4,0 c 0.025,-1.437 0.591,-3.79 1.598,-6.349 0.808,-2.057 1.742,-3.843 2.586,-5.046 l -10e-4,0 c 0,0 0.005,-0.007 0.013,-0.017 0.138,-0.197 0.274,-0.378 0.407,-0.542 0.572,-0.757 1.584,-2.087 2.112,-2.711 0.064,-0.078 0.125,-0.148 0.185,-0.211 0.553,-0.597 0.934,-0.901 1.448,-1.154 0.515,-0.253 0.907,-0.051 0.907,-0.051 0.324,0.086 0.386,0.918 0.226,2.264 l 4.455,-2.729 c 0.124,-0.068 0.275,-0.092 0.425,-0.052 l 1.91,0.508 0.012,-0.015 0,0 c 0.055,-0.063 0.106,-0.109 0.152,-0.142 0.355,-0.286 0.862,-0.406 1.352,-0.276 l 2.004,0.533 c 1.014,0.269 1.684,1.082 1.737,1.982 0.161,1.195 -1.107,6.354 -3.096,12.434 -2.062,6.301 -4.178,11.394 -4.974,12.044 -0.6,0.652 -1.594,0.955 -2.552,0.7 l -2.004,-0.532 c -0.407,-0.108 -0.719,-0.366 -0.886,-0.686 l -2.154,-0.573 c -0.142,-0.038 -0.252,-0.125 -0.317,-0.235 l -2.04,-4.362 c -0.021,0.038 -0.042,0.075 -0.063,0.111 l -0.178,0.446 c -0.542,1.8 -0.833,3.693 -0.833,5.647 0,3.324 0.837,6.471 2.33,9.282 0.633,0.039 1.223,0.371 1.592,0.921 4.432,6.609 11.723,10.475 19.971,10.475 8.25,0 15.54,-3.866 19.971,-10.475 0.369,-0.55 0.959,-0.882 1.593,-0.921 1.492,-2.811 2.329,-5.958 2.329,-9.282 0,-2.062 -0.323,-4.056 -0.925,-5.945 L -3.364,9.75 C -3.386,9.714 -3.406,9.677 -3.428,9.639 l -2.04,4.362 c -0.064,0.11 -0.175,0.197 -0.317,0.235 l -2.153,0.573 c -0.167,0.32 -0.48,0.578 -0.886,0.686 l -2.004,0.532 c -0.959,0.255 -1.952,-0.048 -2.553,-0.7 -0.796,-0.65 -2.912,-5.743 -4.973,-12.044 -1.989,-6.08 -3.258,-11.239 -3.096,-12.434 0.053,-0.9 0.722,-1.713 1.736,-1.982 l 2.004,-0.533 c 0.491,-0.13 0.997,-0.01 1.353,0.276 0.045,0.033 0.096,0.079 0.151,0.142 l 0.001,0 0.012,0.015 1.91,-0.508 c 0.149,-0.04 0.301,-0.016 0.424,0.052 l 4.456,2.729 c -0.16,-1.346 -0.099,-2.178 0.225,-2.264 0,0 0.393,-0.202 0.907,0.051 0.515,0.253 0.895,0.557 1.449,1.154 0.059,0.063 0.121,0.133 0.184,0.211 0.528,0.624 1.54,1.954 2.113,2.711 0.132,0.164 0.268,0.345 0.407,0.542 0.007,0.01 0.013,0.017 0.013,0.017 l -10e-4,0 c 0.843,1.203 1.777,2.989 2.585,5.046 0.012,0.029 0.022,0.058 0.034,0.088 l 0.008,-0.003 C -1.756,-2.18 -2.29,-3.601 -3.03,-5.244 -3.118,-5.44 -3.125,-5.65 -3.069,-5.843 c -1.379,-2.814 -3.406,-6.059 -5.925,-7.543 -3.387,-1.993 -9.118,-2.717 -12.443,-2.976 -0.221,1.257 -1.312,2.214 -2.632,2.214 l -3.785,0 c -1.48,0 -2.679,-1.2 -2.679,-2.679 0,-1.48 1.199,-2.679 2.679,-2.679 l 3.785,0 c 1.199,0 2.202,0.793 2.544,1.879 3.395,0.249 9.462,0.986 13.164,3.165 2.786,1.642 4.955,5.077 6.408,8.036 0.221,0.075 0.413,0.235 0.516,0.464 0.979,2.173 1.597,3.935 1.778,4.466 0.087,0.089 0.157,0.196 0.203,0.321 C 0.718,-0.7 0.475,-0.175 0,0 Z"/></g></g></g></g></g></g></g></g></g></g></svg>