<svg xmlns="http://www.w3.org/2000/svg" xmlns:svg="http://www.w3.org/2000/svg" id="svg2" width="64" height="64" version="1.1" viewBox="0 0 80 80" xml:space="preserve"><metadata id="metadata8"/><defs id="defs6"><clipPath id="clipPath16" clipPathUnits="userSpaceOnUse"><path id="path18" d="m 4.947,35.867 c 0,-1.328 0.097,-2.632 0.283,-3.907 l 0,0 c 0.161,-2.085 0.13,-4.35 0.163,-6.208 l 0,0 c 0.035,-2.003 0.078,-4.57 0.078,-4.57 l 0,0 0.001,0 c 0.025,-1.608 0.596,-4.238 1.61,-7.1 l 0,0 c 0.815,-2.3 1.756,-4.297 2.607,-5.643 l 0,0 -10e-4,0 c 0,0 0.005,-0.008 0.012,-0.018 l 0,0 C 9.84,8.201 9.977,7.999 10.111,7.816 l 0,0 c 0.576,-0.847 1.596,-2.335 2.128,-3.032 l 0,0 c 0.064,-0.087 0.126,-0.166 0.186,-0.236 l 0,0 C 12.983,3.88 13.366,3.54 13.885,3.257 l 0,0 C 14.404,2.975 14.799,3.2 14.799,3.2 l 0,0 c 0.326,0.097 0.389,1.026 0.227,2.531 l 0,0 4.49,-3.052 c 0.125,-0.074 0.278,-0.102 0.428,-0.058 l 0,0 1.925,0.569 c 0.004,-0.007 0.008,-0.011 0.012,-0.017 l 0,0 c 0,0 0,0 0.001,0 l 0,0 c 0.055,-0.07 0.106,-0.122 0.152,-0.157 l 0,0 c 0.359,-0.321 0.868,-0.455 1.363,-0.31 l 0,0 2.02,0.596 c 1.02,0.301 1.696,1.21 1.749,2.216 l 0,0 c 0.163,1.336 -1.115,7.106 -3.12,13.903 l 0,0 c -2.077,7.046 -4.21,12.741 -5.011,13.467 l 0,0 c -0.606,0.729 -1.607,1.069 -2.573,0.784 l 0,0 -2.019,-0.595 c -0.41,-0.122 -0.724,-0.41 -0.893,-0.768 l 0,0 -2.17,-0.64 c -0.144,-0.042 -0.255,-0.14 -0.32,-0.263 l 0,0 -2.055,-4.878 c -0.021,0.043 -0.043,0.084 -0.064,0.126 l 0,0 -0.18,0.498 C 8.215,29.165 7.923,31.28 7.923,33.466 l 0,0 c 0,13.298 10.779,24.077 24.077,24.077 l 0,0 c 13.298,0 24.078,-10.779 24.078,-24.077 l 0,0 c 0,-2.306 -0.326,-4.536 -0.932,-6.648 l 0,0 -0.06,-0.164 c -0.02,-0.042 -0.042,-0.083 -0.064,-0.126 l 0,0 -2.055,4.878 c -0.065,0.123 -0.176,0.221 -0.32,0.263 l 0,0 -2.17,0.64 c -0.169,0.358 -0.483,0.646 -0.893,0.768 l 0,0 -2.019,0.595 c -0.967,0.285 -1.967,-0.055 -2.573,-0.784 l 0,0 C 44.19,32.162 42.058,26.467 39.981,19.421 l 0,0 C 37.976,12.624 36.698,6.854 36.861,5.518 l 0,0 C 36.914,4.512 37.589,3.603 38.61,3.302 l 0,0 2.02,-0.596 c 0.495,-0.145 1.005,-0.011 1.363,0.31 l 0,0 c 0.046,0.035 0.098,0.087 0.152,0.157 l 0,0 c 10e-4,0 10e-4,0 10e-4,0 l 0,0 c 0.005,0.006 0.008,0.01 0.012,0.017 l 0,0 1.925,-0.569 c 0.15,-0.044 0.304,-0.016 0.427,0.058 l 0,0 4.491,3.052 C 48.839,4.226 48.902,3.297 49.228,3.2 l 0,0 c 0,0 0.396,-0.225 0.915,0.057 l 0,0 c 0.518,0.283 0.901,0.623 1.459,1.291 l 0,0 c 0.06,0.07 0.122,0.149 0.186,0.236 l 0,0 c 0.532,0.697 1.551,2.185 2.129,3.032 l 0,0 c 0.132,0.183 0.27,0.385 0.41,0.605 l 0,0 c 0.007,0.01 0.013,0.018 0.013,0.018 l 0,0 -0.001,0 c 0.851,1.346 1.791,3.343 2.607,5.643 l 0,0 c 1.013,2.862 1.584,5.492 1.609,7.1 l 0,0 10e-4,0 c 0,0 0.044,2.567 0.078,4.57 l 0,0 c 0.035,2.003 -0.003,4.478 0.203,6.691 l 0,0 c 0,0.001 0,0.001 0,0.002 l 0,0 c 0.143,1.121 0.216,2.263 0.216,3.422 l 0,0 C 59.053,50.808 46.94,62.919 32,62.919 l 0,0 C 17.059,62.919 4.947,50.808 4.947,35.867"/></clipPath><linearGradient id="linearGradient24" x1="0" x2="1" y1="0" y2="0" gradientTransform="matrix(0,-59.776657,-59.776657,0,32,61.884872)" gradientUnits="userSpaceOnUse" spreadMethod="pad"><stop id="stop26" offset="0" stop-color="#3d3d3e" stop-opacity="1"/><stop id="stop28" offset=".406" stop-color="#3d3d3e" stop-opacity="1"/><stop id="stop30" offset=".572" stop-color="#343334" stop-opacity="1"/><stop id="stop32" offset=".748" stop-color="#656263" stop-opacity="1"/><stop id="stop34" offset=".971" stop-color="#1f1d1d" stop-opacity="1"/><stop id="stop36" offset="1" stop-color="#1f1d1d" stop-opacity="1"/></linearGradient><clipPath id="clipPath44" clipPathUnits="userSpaceOnUse"><path id="path46" d="M 0,64 64,64 64,0 0,0 0,64 Z"/></clipPath><clipPath id="clipPath52" clipPathUnits="userSpaceOnUse"><path id="path54" d="m 4.94736,62.9194 54.10524,0 0,-30.9596 -54.10524,0 0,30.9596 z"/></clipPath><clipPath id="clipPath56" clipPathUnits="userSpaceOnUse"><path id="path58" d="m 7.922,33.466 c 0,13.298 10.78,24.077 24.078,24.077 13.298,0 24.078,-10.779 24.078,-24.077 l 2.76,-1.023 c 0,0.001 0,0.001 -10e-4,0.002 0.142,1.121 0.216,2.263 0.216,3.422 C 59.053,50.808 46.94,62.919 32,62.919 17.059,62.919 4.947,50.808 4.947,35.867 4.947,34.54 5.045,33.235 5.23,31.96"/></clipPath><linearGradient id="linearGradient60" x1="0" x2="1" y1="0" y2="0" gradientTransform="matrix(5.2017817,-16.172287,-16.172287,-5.2017817,22.631371,65.613304)" gradientUnits="userSpaceOnUse" spreadMethod="pad"><stop id="stop62" offset="0" stop-color="#797b79" stop-opacity="1"/><stop id="stop64" offset=".074" stop-color="#797b79" stop-opacity="1"/><stop id="stop66" offset=".928" stop-color="#1f1d1d" stop-opacity="1"/><stop id="stop68" offset="1" stop-color="#1f1d1d" stop-opacity="1"/></linearGradient><clipPath id="clipPath96" clipPathUnits="userSpaceOnUse"><path id="path98" d="m 6.44295,58.4964 51.11415,0 0,-32.9206 -51.11415,0 0,32.9206 z"/></clipPath><clipPath id="clipPath112" clipPathUnits="userSpaceOnUse"><path id="path114" d="m 9.094,44.531 c -0.148,-0.31 0.048,-0.695 0.351,-0.695 l 0,0 0.702,0 c 0.684,0 1.331,0.384 1.727,1.039 l 0,0 C 16.34,52.264 23.687,56.587 32,56.587 l 0,0 c 8.313,0 15.66,-4.323 20.126,-11.712 l 0,0 c 0.395,-0.655 1.043,-1.039 1.727,-1.039 l 0,0 0.701,0 c 0.304,0 0.5,0.385 0.352,0.695 l 0,0 C 50.24,54.288 41.731,59.816 32,59.816 l 0,0 c -9.731,0 -18.24,-5.528 -22.906,-15.285"/></clipPath><radialGradient id="radialGradient120" cx="0" cy="0" r="1" fx="0" fy="0" gradientTransform="matrix(24.401068,0.017817,0.017817,-24.40107,31.832296,35.726376)" gradientUnits="userSpaceOnUse" spreadMethod="pad"><stop id="stop122" offset="0" stop-color="#1f1d1d" stop-opacity="1"/><stop id="stop124" offset=".928" stop-color="#1f1d1d" stop-opacity="1"/><stop id="stop126" offset="1" stop-color="#343334" stop-opacity="1"/></radialGradient><clipPath id="clipPath134" clipPathUnits="userSpaceOnUse"><path id="path136" d="M 56.15,15.102 C 54.77,10.797 53.258,7.141 52.162,5.291 l 0,0 c 0.552,0.765 1.294,1.848 1.755,2.525 l 0,0 c 0.132,0.183 0.27,0.385 0.41,0.605 l 0,0 c 0.007,0.01 0.013,0.018 0.013,0.018 l 0,0 -0.001,0 c 0.851,1.346 1.791,3.343 2.607,5.643 l 0,0 c 1.013,2.862 1.584,5.492 1.609,7.1 l 0,0 10e-4,0 c 0,0 0.04,2.388 0.075,4.356 l 0,0 C 58.467,23.413 57.559,19.49 56.15,15.102"/></clipPath><linearGradient id="linearGradient142" x1="0" x2="1" y1="0" y2="0" gradientTransform="matrix(6.4683495,0,0,-6.4683495,52.162037,15.414229)" gradientUnits="userSpaceOnUse" spreadMethod="pad"><stop id="stop144" offset="0" stop-color="#2b2829" stop-opacity="1"/><stop id="stop146" offset=".37" stop-color="#2b2829" stop-opacity="1"/><stop id="stop148" offset="1" stop-color="#3b3839" stop-opacity="1"/></linearGradient><clipPath id="clipPath156" clipPathUnits="userSpaceOnUse"><path id="path158" d="M 51.279,16.152 C 49.304,9.248 48.385,3.449 49.228,3.2 l 0,0 c 0.844,-0.249 3.129,5.148 5.104,12.053 l 0,0 c 1.976,6.904 2.894,12.703 2.051,12.952 l 0,0 c -0.019,0.006 -0.038,0.008 -0.058,0.008 l 0,0 c -0.886,0 -3.114,-5.308 -5.046,-12.061"/></clipPath><linearGradient id="linearGradient164" x1="0" x2="1" y1="0" y2="0" gradientTransform="matrix(7.7807517,0,0,-7.7807517,48.915028,15.702601)" gradientUnits="userSpaceOnUse" spreadMethod="pad"><stop id="stop166" offset="0" stop-color="#1a1817" stop-opacity="1"/><stop id="stop168" offset="1" stop-color="#2c2a2a" stop-opacity="1"/></linearGradient><clipPath id="clipPath176" clipPathUnits="userSpaceOnUse"><path id="path178" d="m 52.965,31.4 c 0.007,-0.012 0.015,-0.024 0.022,-0.036 l 0,0 -0.019,0.046 -0.003,-0.01 z m 0.026,-0.048 c -10e-4,0.004 -0.003,0.008 -0.004,0.012 l 0,0 0.004,-0.012 z"/></clipPath><linearGradient id="linearGradient184" x1="0" x2="1" y1="0" y2="0" gradientTransform="matrix(0.0267771,0,0,-0.0267771,52.96479,31.381041)" gradientUnits="userSpaceOnUse" spreadMethod="pad"><stop id="stop186" offset="0" stop-color="#6d6e70" stop-opacity="1"/><stop id="stop188" offset=".506" stop-color="#545557" stop-opacity="1"/><stop id="stop190" offset="1" stop-color="#2c2a2a" stop-opacity="1"/></linearGradient><clipPath id="clipPath198" clipPathUnits="userSpaceOnUse"><path id="path200" d="M 53.029,31.189 C 53.291,30.07 51.943,23.952 49.806,16.7 l 0,0 C 47.639,9.351 45.422,3.421 44.621,2.751 l 0,0 5.065,3.446 c 0.672,0.45 2.146,4.452 3.725,9.809 l 0,0 c 1.579,5.356 2.318,8.867 1.995,9.612 l 0,0 -2.409,5.724 c 0.017,-0.048 0.028,-0.099 0.032,-0.153"/></clipPath><linearGradient id="linearGradient206" x1="0" x2="1" y1="0" y2="0" gradientTransform="matrix(5.8158765,17.098902,17.098902,-5.8158765,47.666653,7.2164283)" gradientUnits="userSpaceOnUse" spreadMethod="pad"><stop id="stop208" offset="0" stop-color="#2c2a2a" stop-opacity="1"/><stop id="stop210" offset=".5" stop-color="#2c2a2a" stop-opacity="1"/><stop id="stop212" offset=".803" stop-color="#545557" stop-opacity="1"/><stop id="stop214" offset="1" stop-color="#7b7979" stop-opacity="1"/></linearGradient><clipPath id="clipPath222" clipPathUnits="userSpaceOnUse"><path id="path224" d="M 44.544,2.7 C 44.533,2.694 44.522,2.688 44.511,2.683 l 0,0 -0.001,-0.007 0.073,0.049 C 44.571,2.717 44.555,2.706 44.544,2.7"/></clipPath><linearGradient id="linearGradient230" x1="0" x2="1" y1="0" y2="0" gradientTransform="matrix(0.0738212,0,0,-0.0738212,44.509495,2.7005365)" gradientUnits="userSpaceOnUse" spreadMethod="pad"><stop id="stop232" offset="0" stop-color="#6d6e70" stop-opacity="1"/><stop id="stop234" offset=".506" stop-color="#545557" stop-opacity="1"/><stop id="stop236" offset="1" stop-color="#2c2a2a" stop-opacity="1"/></linearGradient><clipPath id="clipPath244" clipPathUnits="userSpaceOnUse"><path id="path246" d="M 44.992,32.888 C 44.19,32.162 42.058,26.467 39.981,19.421 l 0,0 C 37.976,12.624 36.698,6.854 36.861,5.518 l 0,0 C 36.914,4.512 37.589,3.603 38.61,3.302 l 0,0 2.02,-0.596 c 0.495,-0.145 1.005,-0.011 1.363,0.31 l 0,0 c 0.046,0.035 0.098,0.087 0.152,0.157 l 0,0 c 10e-4,0 10e-4,0 10e-4,0 l 0,0 c 0.925,1.159 3.077,6.964 5.174,14.075 l 0,0 c 2.274,7.714 3.661,14.174 3.22,14.905 l 0,0 c -0.144,0.43 -0.488,0.786 -0.956,0.924 l 0,0 -2.019,0.595 c -0.231,0.068 -0.464,0.1 -0.693,0.1 l 0,0 c -0.729,0 -1.419,-0.329 -1.88,-0.884"/></clipPath><linearGradient id="linearGradient252" x1="0" x2="1" y1="0" y2="0" gradientTransform="matrix(6.8662038,-2.0255926,-2.0255926,-6.8662038,40.280605,19.315144)" gradientUnits="userSpaceOnUse" spreadMethod="pad"><stop id="stop254" offset="0" stop-color="#363233" stop-opacity="1"/><stop id="stop256" offset=".334" stop-color="#343131" stop-opacity="1"/><stop id="stop258" offset="1" stop-color="#2b2829" stop-opacity="1"/></linearGradient><clipPath id="clipPath266" clipPathUnits="userSpaceOnUse"><path id="path268" d="M 44.992,32.888 C 44.19,32.162 42.058,26.467 39.981,19.421 l 0,0 C 37.976,12.624 36.698,6.854 36.861,5.518 l 0,0 C 36.914,4.512 37.589,3.603 38.61,3.302 l 0,0 2.02,-0.596 c 0.495,-0.145 1.005,-0.011 1.363,0.31 l 0,0 c 0.046,0.035 0.098,0.087 0.152,0.157 l 0,0 c 10e-4,0 10e-4,0 10e-4,0 l 0,0 c 0.925,1.159 3.077,6.964 5.174,14.075 l 0,0 c 2.274,7.714 3.661,14.174 3.22,14.905 l 0,0 c -0.144,0.43 -0.488,0.786 -0.956,0.924 l 0,0 -2.019,0.595 c -0.231,0.068 -0.464,0.1 -0.693,0.1 l 0,0 c -0.729,0 -1.419,-0.329 -1.88,-0.884"/></clipPath><linearGradient id="linearGradient274" x1="0" x2="1" y1="0" y2="0" gradientTransform="matrix(-8.6460457,-28.941029,-28.941029,8.6460457,47.964436,32.774448)" gradientUnits="userSpaceOnUse" spreadMethod="pad"><stop id="stop276" offset="0" stop-color="#3b3839" stop-opacity="1"/><stop id="stop278" offset=".279" stop-color="#363233" stop-opacity="1"/><stop id="stop280" offset=".5" stop-color="#322e2f" stop-opacity="1"/><stop id="stop282" offset="1" stop-color="#2b2829" stop-opacity="1"/></linearGradient><clipPath id="clipPath290" clipPathUnits="userSpaceOnUse"><path id="path292" d="m 50.54,32.153 c 0.441,-0.731 -0.946,-7.191 -3.22,-14.905 l 0,0 C 45.231,10.163 43.087,4.377 42.157,3.19 l 0,0 1.926,-0.569 C 44.247,2.573 44.414,2.608 44.544,2.7 l 0,0 c 0.727,0.317 3.02,6.4 5.262,14 l 0,0 c 2.137,7.252 3.485,13.37 3.223,14.489 l 0,0 c -0.015,0.218 -0.16,0.415 -0.382,0.48 l 0,0 -2.183,0.644 c 0.025,-0.053 0.057,-0.104 0.076,-0.16"/></clipPath><linearGradient id="linearGradient298" x1="0" x2="1" y1="0" y2="0" gradientTransform="matrix(-6.3169494,-27.673168,-27.673168,6.3169494,50.936829,30.919903)" gradientUnits="userSpaceOnUse" spreadMethod="pad"><stop id="stop300" offset="0" stop-color="#d3d2d2" stop-opacity="1"/><stop id="stop302" offset=".139" stop-color="#a7a5a6" stop-opacity="1"/><stop id="stop304" offset=".274" stop-color="#6d6e70" stop-opacity="1"/><stop id="stop306" offset="1" stop-color="#373737" stop-opacity="1"/></linearGradient><clipPath id="clipPath314" clipPathUnits="userSpaceOnUse"><path id="path316" d="M 0,64 64,64 64,0 0,0 0,64 Z"/></clipPath><clipPath id="clipPath322" clipPathUnits="userSpaceOnUse"><path id="path324" d="m 48.6771,26.4069 7.3035,0 0,-21.11814 -7.3035,0 0,21.11814 z"/></clipPath><clipPath id="clipPath338" clipPathUnits="userSpaceOnUse"><path id="path340" d="m 41.7553,32.3641 9.3657,0 0,-29.5509 -9.3657,0 0,29.5509 z"/></clipPath><clipPath id="clipPath354" clipPathUnits="userSpaceOnUse"><path id="path356" d="m 44.0487,31.4054 9.2179,0 0,-29.06124 -9.2179,0 0,29.06124 z"/></clipPath><clipPath id="clipPath370" clipPathUnits="userSpaceOnUse"><path id="path372" d="m 5.471,21.182 0.001,0 c 0.025,-1.608 0.596,-4.238 1.61,-7.1 l 0,0 c 0.815,-2.3 1.756,-4.297 2.607,-5.643 l 0,0 -10e-4,0 c 0,0 0.005,-0.008 0.012,-0.018 l 0,0 C 9.84,8.201 9.977,7.999 10.111,7.816 l 0,0 c 0.459,-0.677 1.203,-1.76 1.755,-2.525 l 0,0 c -1.097,1.85 -2.609,5.506 -3.989,9.811 l 0,0 C 6.468,19.49 5.56,23.413 5.396,25.538 l 0,0 C 5.431,23.57 5.471,21.182 5.471,21.182"/></clipPath><linearGradient id="linearGradient378" x1="0" x2="1" y1="0" y2="0" gradientTransform="matrix(-6.4683495,0,0,-6.4683495,11.865075,15.414229)" gradientUnits="userSpaceOnUse" spreadMethod="pad"><stop id="stop380" offset="0" stop-color="#2b2829" stop-opacity="1"/><stop id="stop382" offset=".37" stop-color="#2b2829" stop-opacity="1"/><stop id="stop384" offset="1" stop-color="#3b3839" stop-opacity="1"/></linearGradient><clipPath id="clipPath392" clipPathUnits="userSpaceOnUse"><path id="path394" d="M 7.645,28.205 C 6.801,27.956 7.719,22.157 9.696,15.253 l 0,0 C 11.671,8.348 13.956,2.951 14.799,3.2 l 0,0 c 0.843,0.249 -0.075,6.048 -2.051,12.952 l 0,0 c -1.932,6.753 -4.16,12.061 -5.045,12.061 l 0,0 c -0.02,0 -0.04,-0.002 -0.058,-0.008"/></clipPath><linearGradient id="linearGradient400" x1="0" x2="1" y1="0" y2="0" gradientTransform="matrix(-7.7807517,0,0,-7.7807517,15.112084,15.702601)" gradientUnits="userSpaceOnUse" spreadMethod="pad"><stop id="stop402" offset="0" stop-color="#1a1817" stop-opacity="1"/><stop id="stop404" offset="1" stop-color="#2c2a2a" stop-opacity="1"/></linearGradient><clipPath id="clipPath412" clipPathUnits="userSpaceOnUse"><path id="path414" d="m 11.036,31.352 c 0.006,0.018 0.018,0.032 0.027,0.048 l 0,0 -0.004,0.01 -0.023,-0.058 z"/></clipPath><linearGradient id="linearGradient420" x1="0" x2="1" y1="0" y2="0" gradientTransform="matrix(-0.0267771,0,0,-0.0267771,11.062323,31.381041)" gradientUnits="userSpaceOnUse" spreadMethod="pad"><stop id="stop422" offset="0" stop-color="#6d6e70" stop-opacity="1"/><stop id="stop424" offset=".506" stop-color="#545557" stop-opacity="1"/><stop id="stop426" offset="1" stop-color="#2c2a2a" stop-opacity="1"/></linearGradient><clipPath id="clipPath434" clipPathUnits="userSpaceOnUse"><path id="path436" d="m 8.62,25.618 c -0.322,-0.745 0.417,-4.256 1.996,-9.612 l 0,0 c 1.579,-5.357 3.054,-9.359 3.725,-9.809 l 0,0 5.065,-3.446 c -0.8,0.67 -3.017,6.6 -5.184,13.949 l 0,0 c -2.139,7.252 -3.486,13.37 -3.224,14.489 l 0,0 c 0.004,0.054 0.015,0.105 0.033,0.153 l 0,0 -2.411,-5.724 z"/></clipPath><linearGradient id="linearGradient442" x1="0" x2="1" y1="0" y2="0" gradientTransform="matrix(-5.8158765,17.098902,-17.098902,-5.8158765,16.360456,7.2164278)" gradientUnits="userSpaceOnUse" spreadMethod="pad"><stop id="stop444" offset="0" stop-color="#2c2a2a" stop-opacity="1"/><stop id="stop446" offset=".5" stop-color="#2c2a2a" stop-opacity="1"/><stop id="stop448" offset=".803" stop-color="#545557" stop-opacity="1"/><stop id="stop450" offset="1" stop-color="#7b7979" stop-opacity="1"/></linearGradient><clipPath id="clipPath458" clipPathUnits="userSpaceOnUse"><path id="path460" d="M 19.517,2.676 19.516,2.683 C 19.505,2.688 19.494,2.694 19.483,2.7 l 0,0 c -0.012,0.006 -0.026,0.017 -0.039,0.025 l 0,0 0.073,-0.049 z"/></clipPath><linearGradient id="linearGradient466" x1="0" x2="1" y1="0" y2="0" gradientTransform="matrix(-0.0738212,0,0,-0.0738212,19.517618,2.7005365)" gradientUnits="userSpaceOnUse" spreadMethod="pad"><stop id="stop468" offset="0" stop-color="#6d6e70" stop-opacity="1"/><stop id="stop470" offset=".506" stop-color="#545557" stop-opacity="1"/><stop id="stop472" offset="1" stop-color="#2c2a2a" stop-opacity="1"/></linearGradient><clipPath id="clipPath480" clipPathUnits="userSpaceOnUse"><path id="path482" d="m 16.462,33.672 -2.019,-0.595 c -0.468,-0.138 -0.812,-0.494 -0.956,-0.924 l 0,0 c -0.441,-0.731 0.945,-7.191 3.22,-14.905 l 0,0 C 18.803,10.137 20.956,4.332 21.881,3.173 l 0,0 c 0,0 0,0 0.001,0 l 0,0 c 0.055,-0.07 0.106,-0.122 0.152,-0.157 l 0,0 c 0.359,-0.321 0.868,-0.455 1.363,-0.31 l 0,0 2.02,0.596 c 1.02,0.301 1.696,1.21 1.749,2.216 l 0,0 c 0.163,1.336 -1.115,7.106 -3.12,13.903 l 0,0 c -2.077,7.046 -4.21,12.741 -5.011,13.467 l 0,0 c -0.461,0.555 -1.151,0.884 -1.88,0.884 l 0,0 c -0.229,0 -0.462,-0.032 -0.693,-0.1"/></clipPath><linearGradient id="linearGradient488" x1="0" x2="1" y1="0" y2="0" gradientTransform="matrix(-6.8662038,-2.0255926,2.0255926,-6.8662038,23.746506,19.315144)" gradientUnits="userSpaceOnUse" spreadMethod="pad"><stop id="stop490" offset="0" stop-color="#363233" stop-opacity="1"/><stop id="stop492" offset=".334" stop-color="#343131" stop-opacity="1"/><stop id="stop494" offset="1" stop-color="#2b2829" stop-opacity="1"/></linearGradient><clipPath id="clipPath502" clipPathUnits="userSpaceOnUse"><path id="path504" d="m 16.462,33.672 -2.019,-0.595 c -0.468,-0.138 -0.812,-0.494 -0.956,-0.924 l 0,0 c -0.441,-0.731 0.945,-7.191 3.22,-14.905 l 0,0 C 18.803,10.137 20.956,4.332 21.881,3.173 l 0,0 c 0,0 0,0 0.001,0 l 0,0 c 0.055,-0.07 0.106,-0.122 0.152,-0.157 l 0,0 c 0.359,-0.321 0.868,-0.455 1.363,-0.31 l 0,0 2.02,0.596 c 1.02,0.301 1.696,1.21 1.749,2.216 l 0,0 c 0.163,1.336 -1.115,7.106 -3.12,13.903 l 0,0 c -2.077,7.046 -4.21,12.741 -5.011,13.467 l 0,0 c -0.461,0.555 -1.151,0.884 -1.88,0.884 l 0,0 c -0.229,0 -0.462,-0.032 -0.693,-0.1"/></clipPath><linearGradient id="linearGradient510" x1="0" x2="1" y1="0" y2="0" gradientTransform="matrix(8.6460457,-28.941029,28.941029,8.6460457,16.062677,32.774448)" gradientUnits="userSpaceOnUse" spreadMethod="pad"><stop id="stop512" offset="0" stop-color="#3b3839" stop-opacity="1"/><stop id="stop514" offset=".279" stop-color="#363233" stop-opacity="1"/><stop id="stop516" offset=".5" stop-color="#322e2f" stop-opacity="1"/><stop id="stop518" offset="1" stop-color="#2b2829" stop-opacity="1"/></linearGradient><clipPath id="clipPath526" clipPathUnits="userSpaceOnUse"><path id="path528" d="m 11.38,31.669 c -0.223,-0.065 -0.368,-0.262 -0.382,-0.48 l 0,0 C 10.736,30.07 12.083,23.952 14.222,16.7 l 0,0 c 2.241,-7.6 4.535,-13.683 5.261,-14 l 0,0 c 0.13,-0.092 0.297,-0.127 0.461,-0.079 l 0,0 1.926,0.569 c -0.931,1.187 -3.074,6.973 -5.163,14.058 l 0,0 c -2.275,7.714 -3.661,14.174 -3.22,14.905 l 0,0 c 0.019,0.056 0.051,0.107 0.076,0.16 l 0,0 -2.183,-0.644 z"/></clipPath><linearGradient id="linearGradient534" x1="0" x2="1" y1="0" y2="0" gradientTransform="matrix(6.3169494,-27.673168,27.673168,6.3169494,13.090284,30.919903)" gradientUnits="userSpaceOnUse" spreadMethod="pad"><stop id="stop536" offset="0" stop-color="#d3d2d2" stop-opacity="1"/><stop id="stop538" offset=".139" stop-color="#a7a5a6" stop-opacity="1"/><stop id="stop540" offset=".274" stop-color="#6d6e70" stop-opacity="1"/><stop id="stop542" offset="1" stop-color="#373737" stop-opacity="1"/></linearGradient><clipPath id="clipPath550" clipPathUnits="userSpaceOnUse"><path id="path552" d="M 0,64 64,64 64,0 0,0 0,64 Z"/></clipPath><clipPath id="clipPath558" clipPathUnits="userSpaceOnUse"><path id="path560" d="m 8.04649,26.4069 7.30361,0 0,-21.11814 -7.30361,0 0,21.11814 z"/></clipPath><clipPath id="clipPath574" clipPathUnits="userSpaceOnUse"><path id="path576" d="m 12.9061,32.3641 9.3657,0 0,-29.5509 -9.3657,0 0,29.5509 z"/></clipPath><clipPath id="clipPath590" clipPathUnits="userSpaceOnUse"><path id="path592" d="m 10.7605,31.4054 9.218,0 0,-29.06124 -9.218,0 0,29.06124 z"/></clipPath><clipPath id="clipPath606" clipPathUnits="userSpaceOnUse"><path id="path608" d="m 4.44736,63.4194 55.10524,0 0,-61.31929 -55.10524,0 0,61.31929 z"/></clipPath><clipPath id="clipPath610" clipPathUnits="userSpaceOnUse"><path id="path612" d="m 4.44736,63.4194 55.10524,0 0,-61.31929 -55.10524,0 0,61.31929 z"/></clipPath><clipPath id="clipPath634" clipPathUnits="userSpaceOnUse"><path id="path636" d="m 11.2186,4.54616 19.8398,0 0,-4.4755118 -19.8398,0 0,4.4755118 z"/></clipPath><clipPath id="clipPath638" clipPathUnits="userSpaceOnUse"><path id="path640" d="m 31.059,2.309 c 0,-1.237 -4.442,-2.239 -9.92,-2.239 -5.479,0 -9.92,1.002 -9.92,2.239 0,1.235 4.441,2.237 9.92,2.237 5.478,0 9.92,-1.002 9.92,-2.237"/></clipPath><clipPath id="clipPath642" clipPathUnits="userSpaceOnUse"><path id="path644" d="m -32768,32767 65535,0 0,-65535 -65535,0 0,65535 z"/></clipPath><radialGradient id="radialGradient646" cx="0" cy="0" r="1" fx="0" fy="0" gradientTransform="matrix(9.9632254,0,0,-2.0963104,21.138514,2.3084095)" gradientUnits="userSpaceOnUse" spreadMethod="pad"><stop id="stop648" offset="0" stop-color="#fff" stop-opacity="1"/><stop id="stop650" offset=".531" stop-color="#fff" stop-opacity="0"/><stop id="stop652" offset="1" stop-color="#fff" stop-opacity="0"/></radialGradient><mask id="mask654" width="1" height="1" x="0" y="0" maskUnits="userSpaceOnUse"><g id="g656"><g id="g658" clip-path="url(#clipPath642)"><g id="g660"><g id="g662"><path id="path664" fill="url(#radialGradient646)" stroke="none" d="m -32768,32767 65535,0 0,-65535 -65535,0 0,65535 z"/></g></g></g></g></mask><radialGradient id="radialGradient666" cx="0" cy="0" r="1" fx="0" fy="0" gradientTransform="matrix(9.9632254,0,0,-2.0963104,21.138514,2.3084095)" gradientUnits="userSpaceOnUse" spreadMethod="pad"><stop id="stop668" offset="0" stop-color="#100f0d" stop-opacity="1"/><stop id="stop670" offset=".531" stop-color="#100f0d" stop-opacity="1"/><stop id="stop672" offset="1" stop-color="#100f0d" stop-opacity="1"/></radialGradient><clipPath id="clipPath696" clipPathUnits="userSpaceOnUse"><path id="path698" d="m 33.2622,4.54616 19.8398,0 0,-4.4755118 -19.8398,0 0,4.4755118 z"/></clipPath><clipPath id="clipPath700" clipPathUnits="userSpaceOnUse"><path id="path702" d="m 53.102,2.309 c 0,-1.237 -4.441,-2.239 -9.92,-2.239 -5.479,0 -9.92,1.002 -9.92,2.239 0,1.235 4.441,2.237 9.92,2.237 5.479,0 9.92,-1.002 9.92,-2.237"/></clipPath><clipPath id="clipPath704" clipPathUnits="userSpaceOnUse"><path id="path706" d="m -32768,32767 65535,0 0,-65535 -65535,0 0,65535 z"/></clipPath><radialGradient id="radialGradient708" cx="0" cy="0" r="1" fx="0" fy="0" gradientTransform="matrix(9.9632254,0,0,-2.0963104,43.182079,2.3084095)" gradientUnits="userSpaceOnUse" spreadMethod="pad"><stop id="stop710" offset="0" stop-color="#fff" stop-opacity="1"/><stop id="stop712" offset=".531" stop-color="#fff" stop-opacity="0"/><stop id="stop714" offset="1" stop-color="#fff" stop-opacity="0"/></radialGradient><mask id="mask716" width="1" height="1" x="0" y="0" maskUnits="userSpaceOnUse"><g id="g718"><g id="g720" clip-path="url(#clipPath704)"><g id="g722"><g id="g724"><path id="path726" fill="url(#radialGradient708)" stroke="none" d="m -32768,32767 65535,0 0,-65535 -65535,0 0,65535 z"/></g></g></g></g></mask><radialGradient id="radialGradient728" cx="0" cy="0" r="1" fx="0" fy="0" gradientTransform="matrix(9.9632254,0,0,-2.0963104,43.182079,2.3084095)" gradientUnits="userSpaceOnUse" spreadMethod="pad"><stop id="stop730" offset="0" stop-color="#100f0d" stop-opacity="1"/><stop id="stop732" offset=".531" stop-color="#100f0d" stop-opacity="1"/><stop id="stop734" offset="1" stop-color="#100f0d" stop-opacity="1"/></radialGradient></defs><g id="g10" transform="matrix(1.25,0,0,-1.25,0,80)"><g id="g12"><g id="g14" clip-path="url(#clipPath16)"><g id="g20"><g id="g22"><path id="path38" fill="url(#linearGradient24)" stroke="none" d="m 4.947,35.867 c 0,-1.328 0.097,-2.632 0.283,-3.907 l 0,0 c 0.161,-2.085 0.13,-4.35 0.163,-6.208 l 0,0 c 0.035,-2.003 0.078,-4.57 0.078,-4.57 l 0,0 0.001,0 c 0.025,-1.608 0.596,-4.238 1.61,-7.1 l 0,0 c 0.815,-2.3 1.756,-4.297 2.607,-5.643 l 0,0 -10e-4,0 c 0,0 0.005,-0.008 0.012,-0.018 l 0,0 C 9.84,8.201 9.977,7.999 10.111,7.816 l 0,0 c 0.576,-0.847 1.596,-2.335 2.128,-3.032 l 0,0 c 0.064,-0.087 0.126,-0.166 0.186,-0.236 l 0,0 C 12.983,3.88 13.366,3.54 13.885,3.257 l 0,0 C 14.404,2.975 14.799,3.2 14.799,3.2 l 0,0 c 0.326,0.097 0.389,1.026 0.227,2.531 l 0,0 4.49,-3.052 c 0.125,-0.074 0.278,-0.102 0.428,-0.058 l 0,0 1.925,0.569 c 0.004,-0.007 0.008,-0.011 0.012,-0.017 l 0,0 c 0,0 0,0 0.001,0 l 0,0 c 0.055,-0.07 0.106,-0.122 0.152,-0.157 l 0,0 c 0.359,-0.321 0.868,-0.455 1.363,-0.31 l 0,0 2.02,0.596 c 1.02,0.301 1.696,1.21 1.749,2.216 l 0,0 c 0.163,1.336 -1.115,7.106 -3.12,13.903 l 0,0 c -2.077,7.046 -4.21,12.741 -5.011,13.467 l 0,0 c -0.606,0.729 -1.607,1.069 -2.573,0.784 l 0,0 -2.019,-0.595 c -0.41,-0.122 -0.724,-0.41 -0.893,-0.768 l 0,0 -2.17,-0.64 c -0.144,-0.042 -0.255,-0.14 -0.32,-0.263 l 0,0 -2.055,-4.878 c -0.021,0.043 -0.043,0.084 -0.064,0.126 l 0,0 -0.18,0.498 C 8.215,29.165 7.923,31.28 7.923,33.466 l 0,0 c 0,13.298 10.779,24.077 24.077,24.077 l 0,0 c 13.298,0 24.078,-10.779 24.078,-24.077 l 0,0 c 0,-2.306 -0.326,-4.536 -0.932,-6.648 l 0,0 -0.06,-0.164 c -0.02,-0.042 -0.042,-0.083 -0.064,-0.126 l 0,0 -2.055,4.878 c -0.065,0.123 -0.176,0.221 -0.32,0.263 l 0,0 -2.17,0.64 c -0.169,0.358 -0.483,0.646 -0.893,0.768 l 0,0 -2.019,0.595 c -0.967,0.285 -1.967,-0.055 -2.573,-0.784 l 0,0 C 44.19,32.162 42.058,26.467 39.981,19.421 l 0,0 C 37.976,12.624 36.698,6.854 36.861,5.518 l 0,0 C 36.914,4.512 37.589,3.603 38.61,3.302 l 0,0 2.02,-0.596 c 0.495,-0.145 1.005,-0.011 1.363,0.31 l 0,0 c 0.046,0.035 0.098,0.087 0.152,0.157 l 0,0 c 10e-4,0 10e-4,0 10e-4,0 l 0,0 c 0.005,0.006 0.008,0.01 0.012,0.017 l 0,0 1.925,-0.569 c 0.15,-0.044 0.304,-0.016 0.427,0.058 l 0,0 4.491,3.052 C 48.839,4.226 48.902,3.297 49.228,3.2 l 0,0 c 0,0 0.396,-0.225 0.915,0.057 l 0,0 c 0.518,0.283 0.901,0.623 1.459,1.291 l 0,0 c 0.06,0.07 0.122,0.149 0.186,0.236 l 0,0 c 0.532,0.697 1.551,2.185 2.129,3.032 l 0,0 c 0.132,0.183 0.27,0.385 0.41,0.605 l 0,0 c 0.007,0.01 0.013,0.018 0.013,0.018 l 0,0 -0.001,0 c 0.851,1.346 1.791,3.343 2.607,5.643 l 0,0 c 1.013,2.862 1.584,5.492 1.609,7.1 l 0,0 10e-4,0 c 0,0 0.044,2.567 0.078,4.57 l 0,0 c 0.035,2.003 -0.003,4.478 0.203,6.691 l 0,0 c 0,0.001 0,0.001 0,0.002 l 0,0 c 0.143,1.121 0.216,2.263 0.216,3.422 l 0,0 C 59.053,50.808 46.94,62.919 32,62.919 l 0,0 C 17.059,62.919 4.947,50.808 4.947,35.867"/></g></g></g></g><g id="g40"><g id="g42" clip-path="url(#clipPath44)"><g id="g48"><g id="g70"><g id="g72" clip-path="url(#clipPath52)" opacity=".3"><g id="g74"><g id="g76" clip-path="url(#clipPath56)"><g id="g78"><g id="g80"><path id="path82" fill="url(#linearGradient60)" stroke="none" d="m 7.922,33.466 c 0,13.298 10.78,24.077 24.078,24.077 13.298,0 24.078,-10.779 24.078,-24.077 l 2.76,-1.023 c 0,0.001 0,0.001 -10e-4,0.002 0.142,1.121 0.216,2.263 0.216,3.422 C 59.053,50.808 46.94,62.919 32,62.919 17.059,62.919 4.947,50.808 4.947,35.867 4.947,34.54 5.045,33.235 5.23,31.96"/></g></g></g></g></g></g></g><g id="g84" transform="translate(5.1567,39.1826)"><path id="path86" fill="#d3d2d2" fill-opacity="1" fill-rule="nonzero" stroke="none" d="m 0,0 c -0.133,-1.087 -0.209,-2.192 -0.209,-3.316 0,-1.327 0.097,-2.631 0.282,-3.907 l 1.213,0.176 1.48,1.33 c 0,1.971 0.242,3.884 0.688,5.717 L 2.023,-0.21 0,0 Z"/></g><g id="g88" transform="translate(58.8428,39.1826)"><path id="path90" fill="#d3d2d2" fill-opacity="1" fill-rule="nonzero" stroke="none" d="m 0,0 c 0.134,-1.087 0.21,-2.192 0.21,-3.316 0,-1.327 -0.098,-2.631 -0.282,-3.907 l -1.214,0.176 -1.479,1.33 c 0,1.971 -0.242,3.884 -0.689,5.717 L -2.022,-0.21 0,0 Z"/></g><g id="g92"><g id="g100"><g id="g102" clip-path="url(#clipPath96)" opacity=".8"><g id="g104" transform="translate(56.4375,25.5762)"><path id="path106" fill="#231f20" fill-opacity="1" fill-rule="nonzero" stroke="none" d="m 0,0 c 0.022,0.044 0.045,0.089 0.067,0.132 l 0.064,0.176 c 0.642,2.241 0.988,4.607 0.988,7.055 0,14.115 -11.441,25.557 -25.556,25.557 -14.115,0 -25.558,-11.442 -25.558,-25.557 0,-2.319 0.311,-4.566 0.891,-6.702 l 0.19,-0.529 C -48.891,0.089 -48.869,0.044 -48.846,0 l 1.413,0.952 c -0.021,0.042 -0.043,0.084 -0.064,0.125 l -0.18,0.499 c -0.546,2.012 -0.838,4.129 -0.838,6.314 0,13.297 10.78,24.077 24.078,24.077 13.297,0 24.078,-10.78 24.078,-24.077 0,-2.307 -0.327,-4.536 -0.933,-6.648 L -1.352,1.077 C -1.372,1.036 -1.394,0.994 -1.415,0.952 L 0,0 Z"/></g></g></g></g></g></g><g id="g108"><g id="g110" clip-path="url(#clipPath112)"><g id="g116"><g id="g118"><path id="path128" fill="url(#radialGradient120)" stroke="none" d="m 9.094,44.531 c -0.148,-0.31 0.048,-0.695 0.351,-0.695 l 0,0 0.702,0 c 0.684,0 1.331,0.384 1.727,1.039 l 0,0 C 16.34,52.264 23.687,56.587 32,56.587 l 0,0 c 8.313,0 15.66,-4.323 20.126,-11.712 l 0,0 c 0.395,-0.655 1.043,-1.039 1.727,-1.039 l 0,0 0.701,0 c 0.304,0 0.5,0.385 0.352,0.695 l 0,0 C 50.24,54.288 41.731,59.816 32,59.816 l 0,0 c -9.731,0 -18.24,-5.528 -22.906,-15.285"/></g></g></g></g><g id="g130"><g id="g132" clip-path="url(#clipPath134)"><g id="g138"><g id="g140"><path id="path150" fill="url(#linearGradient142)" stroke="none" d="M 56.15,15.102 C 54.77,10.797 53.258,7.141 52.162,5.291 l 0,0 c 0.552,0.765 1.294,1.848 1.755,2.525 l 0,0 c 0.132,0.183 0.27,0.385 0.41,0.605 l 0,0 c 0.007,0.01 0.013,0.018 0.013,0.018 l 0,0 -0.001,0 c 0.851,1.346 1.791,3.343 2.607,5.643 l 0,0 c 1.013,2.862 1.584,5.492 1.609,7.1 l 0,0 10e-4,0 c 0,0 0.04,2.388 0.075,4.356 l 0,0 C 58.467,23.413 57.559,19.49 56.15,15.102"/></g></g></g></g><g id="g152"><g id="g154" clip-path="url(#clipPath156)"><g id="g160"><g id="g162"><path id="path170" fill="url(#linearGradient164)" stroke="none" d="M 51.279,16.152 C 49.304,9.248 48.385,3.449 49.228,3.2 l 0,0 c 0.844,-0.249 3.129,5.148 5.104,12.053 l 0,0 c 1.976,6.904 2.894,12.703 2.051,12.952 l 0,0 c -0.019,0.006 -0.038,0.008 -0.058,0.008 l 0,0 c -0.886,0 -3.114,-5.308 -5.046,-12.061"/></g></g></g></g><g id="g172"><g id="g174" clip-path="url(#clipPath176)"><g id="g180"><g id="g182"><path id="path192" fill="url(#linearGradient184)" stroke="none" d="m 52.965,31.4 c 0.007,-0.012 0.015,-0.024 0.022,-0.036 l 0,0 -0.019,0.046 -0.003,-0.01 z m 0.026,-0.048 c -10e-4,0.004 -0.003,0.008 -0.004,0.012 l 0,0 0.004,-0.012 z"/></g></g></g></g><g id="g194"><g id="g196" clip-path="url(#clipPath198)"><g id="g202"><g id="g204"><path id="path216" fill="url(#linearGradient206)" stroke="none" d="M 53.029,31.189 C 53.291,30.07 51.943,23.952 49.806,16.7 l 0,0 C 47.639,9.351 45.422,3.421 44.621,2.751 l 0,0 5.065,3.446 c 0.672,0.45 2.146,4.452 3.725,9.809 l 0,0 c 1.579,5.356 2.318,8.867 1.995,9.612 l 0,0 -2.409,5.724 c 0.017,-0.048 0.028,-0.099 0.032,-0.153"/></g></g></g></g><g id="g218"><g id="g220" clip-path="url(#clipPath222)"><g id="g226"><g id="g228"><path id="path238" fill="url(#linearGradient230)" stroke="none" d="M 44.544,2.7 C 44.533,2.694 44.522,2.688 44.511,2.683 l 0,0 -0.001,-0.007 0.073,0.049 C 44.571,2.717 44.555,2.706 44.544,2.7"/></g></g></g></g><g id="g240"><g id="g242" clip-path="url(#clipPath244)"><g id="g248"><g id="g250"><path id="path260" fill="url(#linearGradient252)" stroke="none" d="M 44.992,32.888 C 44.19,32.162 42.058,26.467 39.981,19.421 l 0,0 C 37.976,12.624 36.698,6.854 36.861,5.518 l 0,0 C 36.914,4.512 37.589,3.603 38.61,3.302 l 0,0 2.02,-0.596 c 0.495,-0.145 1.005,-0.011 1.363,0.31 l 0,0 c 0.046,0.035 0.098,0.087 0.152,0.157 l 0,0 c 10e-4,0 10e-4,0 10e-4,0 l 0,0 c 0.925,1.159 3.077,6.964 5.174,14.075 l 0,0 c 2.274,7.714 3.661,14.174 3.22,14.905 l 0,0 c -0.144,0.43 -0.488,0.786 -0.956,0.924 l 0,0 -2.019,0.595 c -0.231,0.068 -0.464,0.1 -0.693,0.1 l 0,0 c -0.729,0 -1.419,-0.329 -1.88,-0.884"/></g></g></g></g><g id="g262"><g id="g264" clip-path="url(#clipPath266)"><g id="g270"><g id="g272"><path id="path284" fill="url(#linearGradient274)" stroke="none" d="M 44.992,32.888 C 44.19,32.162 42.058,26.467 39.981,19.421 l 0,0 C 37.976,12.624 36.698,6.854 36.861,5.518 l 0,0 C 36.914,4.512 37.589,3.603 38.61,3.302 l 0,0 2.02,-0.596 c 0.495,-0.145 1.005,-0.011 1.363,0.31 l 0,0 c 0.046,0.035 0.098,0.087 0.152,0.157 l 0,0 c 10e-4,0 10e-4,0 10e-4,0 l 0,0 c 0.925,1.159 3.077,6.964 5.174,14.075 l 0,0 c 2.274,7.714 3.661,14.174 3.22,14.905 l 0,0 c -0.144,0.43 -0.488,0.786 -0.956,0.924 l 0,0 -2.019,0.595 c -0.231,0.068 -0.464,0.1 -0.693,0.1 l 0,0 c -0.729,0 -1.419,-0.329 -1.88,-0.884"/></g></g></g></g><g id="g286"><g id="g288" clip-path="url(#clipPath290)"><g id="g294"><g id="g296"><path id="path308" fill="url(#linearGradient298)" stroke="none" d="m 50.54,32.153 c 0.441,-0.731 -0.946,-7.191 -3.22,-14.905 l 0,0 C 45.231,10.163 43.087,4.377 42.157,3.19 l 0,0 1.926,-0.569 C 44.247,2.573 44.414,2.608 44.544,2.7 l 0,0 c 0.727,0.317 3.02,6.4 5.262,14 l 0,0 c 2.137,7.252 3.485,13.37 3.223,14.489 l 0,0 c -0.015,0.218 -0.16,0.415 -0.382,0.48 l 0,0 -2.183,0.644 c 0.025,-0.053 0.057,-0.104 0.076,-0.16"/></g></g></g></g><g id="g310"><g id="g312" clip-path="url(#clipPath314)"><g id="g318"><g id="g326"><g id="g328" clip-path="url(#clipPath322)" opacity=".5"><g id="g330" transform="translate(49.0303,5.8203)"><path id="path332" fill="none" stroke="#100f0d" stroke-dasharray="none" stroke-linecap="butt" stroke-linejoin="miter" stroke-miterlimit="10" stroke-opacity="1" stroke-width="1" d="m 0,0 c 0,0 0.168,-0.167 0.656,0.268 0.488,0.434 2.146,4.451 3.725,9.807 1.579,5.357 2.317,8.868 1.995,9.612 l -0.262,0.731"/></g></g></g></g><g id="g334"><g id="g342"><g id="g344" clip-path="url(#clipPath338)" opacity=".5"><g id="g346" transform="translate(42.1455,3.125)"><path id="path348" fill="none" stroke="#231f20" stroke-dasharray="none" stroke-linecap="butt" stroke-linejoin="miter" stroke-miterlimit="10" stroke-opacity="1" stroke-width="1" d="M 0,0 C 0.001,0 0.001,0.001 0.001,0.001 0.926,1.159 3.078,6.965 5.175,14.075 7.449,21.79 8.836,28.249 8.394,28.98"/></g></g></g></g><g id="g350"><g id="g358"><g id="g360" clip-path="url(#clipPath354)" opacity=".2"><g id="g362" transform="translate(44.248,2.8027)"><path id="path364" fill="none" stroke="#fff" stroke-dasharray="none" stroke-linecap="butt" stroke-linejoin="miter" stroke-miterlimit="10" stroke-opacity="1" stroke-width="1" d="M 0,0 C 0.727,0.316 3.021,6.399 5.262,14 7.4,21.252 8.748,27.37 8.486,28.489"/></g></g></g></g></g></g><g id="g366"><g id="g368" clip-path="url(#clipPath370)"><g id="g374"><g id="g376"><path id="path386" fill="url(#linearGradient378)" stroke="none" d="m 5.471,21.182 0.001,0 c 0.025,-1.608 0.596,-4.238 1.61,-7.1 l 0,0 c 0.815,-2.3 1.756,-4.297 2.607,-5.643 l 0,0 -10e-4,0 c 0,0 0.005,-0.008 0.012,-0.018 l 0,0 C 9.84,8.201 9.977,7.999 10.111,7.816 l 0,0 c 0.459,-0.677 1.203,-1.76 1.755,-2.525 l 0,0 c -1.097,1.85 -2.609,5.506 -3.989,9.811 l 0,0 C 6.468,19.49 5.56,23.413 5.396,25.538 l 0,0 C 5.431,23.57 5.471,21.182 5.471,21.182"/></g></g></g></g><g id="g388"><g id="g390" clip-path="url(#clipPath392)"><g id="g396"><g id="g398"><path id="path406" fill="url(#linearGradient400)" stroke="none" d="M 7.645,28.205 C 6.801,27.956 7.719,22.157 9.696,15.253 l 0,0 C 11.671,8.348 13.956,2.951 14.799,3.2 l 0,0 c 0.843,0.249 -0.075,6.048 -2.051,12.952 l 0,0 c -1.932,6.753 -4.16,12.061 -5.045,12.061 l 0,0 c -0.02,0 -0.04,-0.002 -0.058,-0.008"/></g></g></g></g><g id="g408"><g id="g410" clip-path="url(#clipPath412)"><g id="g416"><g id="g418"><path id="path428" fill="url(#linearGradient420)" stroke="none" d="m 11.036,31.352 c 0.006,0.018 0.018,0.032 0.027,0.048 l 0,0 -0.004,0.01 -0.023,-0.058 z"/></g></g></g></g><g id="g430"><g id="g432" clip-path="url(#clipPath434)"><g id="g438"><g id="g440"><path id="path452" fill="url(#linearGradient442)" stroke="none" d="m 8.62,25.618 c -0.322,-0.745 0.417,-4.256 1.996,-9.612 l 0,0 c 1.579,-5.357 3.054,-9.359 3.725,-9.809 l 0,0 5.065,-3.446 c -0.8,0.67 -3.017,6.6 -5.184,13.949 l 0,0 c -2.139,7.252 -3.486,13.37 -3.224,14.489 l 0,0 c 0.004,0.054 0.015,0.105 0.033,0.153 l 0,0 -2.411,-5.724 z"/></g></g></g></g><g id="g454"><g id="g456" clip-path="url(#clipPath458)"><g id="g462"><g id="g464"><path id="path474" fill="url(#linearGradient466)" stroke="none" d="M 19.517,2.676 19.516,2.683 C 19.505,2.688 19.494,2.694 19.483,2.7 l 0,0 c -0.012,0.006 -0.026,0.017 -0.039,0.025 l 0,0 0.073,-0.049 z"/></g></g></g></g><g id="g476"><g id="g478" clip-path="url(#clipPath480)"><g id="g484"><g id="g486"><path id="path496" fill="url(#linearGradient488)" stroke="none" d="m 16.462,33.672 -2.019,-0.595 c -0.468,-0.138 -0.812,-0.494 -0.956,-0.924 l 0,0 c -0.441,-0.731 0.945,-7.191 3.22,-14.905 l 0,0 C 18.803,10.137 20.956,4.332 21.881,3.173 l 0,0 c 0,0 0,0 0.001,0 l 0,0 c 0.055,-0.07 0.106,-0.122 0.152,-0.157 l 0,0 c 0.359,-0.321 0.868,-0.455 1.363,-0.31 l 0,0 2.02,0.596 c 1.02,0.301 1.696,1.21 1.749,2.216 l 0,0 c 0.163,1.336 -1.115,7.106 -3.12,13.903 l 0,0 c -2.077,7.046 -4.21,12.741 -5.011,13.467 l 0,0 c -0.461,0.555 -1.151,0.884 -1.88,0.884 l 0,0 c -0.229,0 -0.462,-0.032 -0.693,-0.1"/></g></g></g></g><g id="g498"><g id="g500" clip-path="url(#clipPath502)"><g id="g506"><g id="g508"><path id="path520" fill="url(#linearGradient510)" stroke="none" d="m 16.462,33.672 -2.019,-0.595 c -0.468,-0.138 -0.812,-0.494 -0.956,-0.924 l 0,0 c -0.441,-0.731 0.945,-7.191 3.22,-14.905 l 0,0 C 18.803,10.137 20.956,4.332 21.881,3.173 l 0,0 c 0,0 0,0 0.001,0 l 0,0 c 0.055,-0.07 0.106,-0.122 0.152,-0.157 l 0,0 c 0.359,-0.321 0.868,-0.455 1.363,-0.31 l 0,0 2.02,0.596 c 1.02,0.301 1.696,1.21 1.749,2.216 l 0,0 c 0.163,1.336 -1.115,7.106 -3.12,13.903 l 0,0 c -2.077,7.046 -4.21,12.741 -5.011,13.467 l 0,0 c -0.461,0.555 -1.151,0.884 -1.88,0.884 l 0,0 c -0.229,0 -0.462,-0.032 -0.693,-0.1"/></g></g></g></g><g id="g522"><g id="g524" clip-path="url(#clipPath526)"><g id="g530"><g id="g532"><path id="path544" fill="url(#linearGradient534)" stroke="none" d="m 11.38,31.669 c -0.223,-0.065 -0.368,-0.262 -0.382,-0.48 l 0,0 C 10.736,30.07 12.083,23.952 14.222,16.7 l 0,0 c 2.241,-7.6 4.535,-13.683 5.261,-14 l 0,0 c 0.13,-0.092 0.297,-0.127 0.461,-0.079 l 0,0 1.926,0.569 c -0.931,1.187 -3.074,6.973 -5.163,14.058 l 0,0 c -2.275,7.714 -3.661,14.174 -3.22,14.905 l 0,0 c 0.019,0.056 0.051,0.107 0.076,0.16 l 0,0 -2.183,-0.644 z"/></g></g></g></g><g id="g546"><g id="g548" clip-path="url(#clipPath550)"><g id="g554"><g id="g562"><g id="g564" clip-path="url(#clipPath558)" opacity=".5"><g id="g566" transform="translate(14.9966,5.8203)"><path id="path568" fill="none" stroke="#100f0d" stroke-dasharray="none" stroke-linecap="butt" stroke-linejoin="miter" stroke-miterlimit="10" stroke-opacity="1" stroke-width="1" d="m 0,0 c 0,0 -0.168,-0.167 -0.656,0.268 -0.488,0.434 -2.145,4.451 -3.724,9.807 -1.58,5.357 -2.318,8.868 -1.996,9.612 l 0.262,0.731"/></g></g></g></g><g id="g570"><g id="g578"><g id="g580" clip-path="url(#clipPath574)" opacity=".5"><g id="g582" transform="translate(21.8813,3.125)"><path id="path584" fill="none" stroke="#231f20" stroke-dasharray="none" stroke-linecap="butt" stroke-linejoin="miter" stroke-miterlimit="10" stroke-opacity="1" stroke-width="1" d="M 0,0 C 0,0 0,0.001 0,0.001 -0.926,1.159 -3.078,6.965 -5.175,14.075 -7.449,21.79 -8.835,28.249 -8.394,28.98"/></g></g></g></g><g id="g586"><g id="g594"><g id="g596" clip-path="url(#clipPath590)" opacity=".2"><g id="g598" transform="translate(19.7788,2.8027)"><path id="path600" fill="none" stroke="#fff" stroke-dasharray="none" stroke-linecap="butt" stroke-linejoin="miter" stroke-miterlimit="10" stroke-opacity="1" stroke-width="1" d="M 0,0 C -0.727,0.316 -3.021,6.399 -5.262,14 -7.4,21.252 -8.748,27.37 -8.486,28.489"/></g></g></g></g><g id="g602"><g id="g614"><g id="g616" clip-path="url(#clipPath606)"><g id="g618"><g id="g622"><g id="g624" clip-path="url(#clipPath610)" opacity=".5"><g id="g626" transform="translate(59.0527,35.8667)"><path id="path628" fill="none" stroke="#231f20" stroke-dasharray="none" stroke-linecap="butt" stroke-linejoin="miter" stroke-miterlimit="10" stroke-opacity="1" stroke-width="1" d="m 0,0 c 0,14.941 -12.112,27.053 -27.053,27.053 -14.941,0 -27.052,-12.112 -27.052,-27.053 0,-1.327 0.097,-2.631 0.282,-3.907 0.161,-2.085 0.131,-4.349 0.163,-6.208 0.035,-2.003 0.078,-4.57 0.078,-4.57 l 10e-4,0 c 0.026,-1.607 0.596,-4.237 1.61,-7.1 0.815,-2.299 1.756,-4.297 2.607,-5.642 l -0.001,0 c 0,0 0.005,-0.008 0.013,-0.019 0.139,-0.22 0.276,-0.422 0.41,-0.605 0.576,-0.847 1.597,-2.334 2.128,-3.032 0.064,-0.086 0.126,-0.166 0.187,-0.236 0.558,-0.668 0.94,-1.008 1.459,-1.291 0.519,-0.282 0.914,-0.057 0.914,-0.057 0.327,0.097 0.389,1.027 0.228,2.532 l 4.49,-3.052 c 0.124,-0.075 0.277,-0.103 0.427,-0.059 l 1.925,0.569 c 0.004,-0.006 0.008,-0.011 0.012,-0.016 0,-0.001 0,-0.001 10e-4,-0.001 0.055,-0.069 0.106,-0.122 0.152,-0.157 0.359,-0.32 0.869,-0.455 1.364,-0.31 l 2.019,0.596 c 1.021,0.301 1.697,1.21 1.75,2.216 0.163,1.337 -1.116,7.106 -3.12,13.903 -2.077,7.046 -4.21,12.741 -5.012,13.467 -0.605,0.729 -1.607,1.069 -2.573,0.784 L -44.61,-2.79 c -0.41,-0.121 -0.724,-0.409 -0.892,-0.768 l -2.171,-0.64 c -0.144,-0.042 -0.255,-0.14 -0.319,-0.262 l -2.056,-4.878 c -0.021,0.042 -0.043,0.084 -0.064,0.125 l -0.18,0.499 c -0.546,2.011 -0.838,4.128 -0.838,6.313 0,3.717 0.843,7.236 2.347,10.379 0.638,0.043 1.232,0.415 1.604,1.03 4.467,7.389 11.814,11.713 20.126,11.713 8.313,0 15.659,-4.324 20.126,-11.713 0.372,-0.615 0.966,-0.987 1.605,-1.03 1.504,-3.143 2.347,-6.662 2.347,-10.379 0,-2.306 -0.326,-4.536 -0.932,-6.647 l -0.06,-0.165 c -0.02,-0.041 -0.042,-0.083 -0.063,-0.125 l -2.056,4.878 c -0.064,0.122 -0.176,0.22 -0.319,0.262 l -2.171,0.64 c -0.168,0.359 -0.483,0.647 -0.893,0.768 l -2.018,0.595 c -0.967,0.285 -1.968,-0.055 -2.574,-0.784 -0.801,-0.726 -2.934,-6.421 -5.011,-13.467 -2.004,-6.797 -3.282,-12.566 -3.119,-13.903 0.052,-1.006 0.728,-1.915 1.749,-2.216 l 2.019,-0.596 c 0.495,-0.145 1.005,-0.01 1.363,0.31 0.046,0.035 0.098,0.088 0.153,0.157 0.001,0 0.001,0 0.001,0.001 0.004,0.005 0.008,0.01 0.011,0.016 l 1.925,-0.569 c 0.151,-0.044 0.304,-0.016 0.428,0.059 l 4.49,3.052 c -0.161,-1.505 -0.099,-2.435 0.228,-2.532 0,0 0.395,-0.225 0.914,0.057 0.518,0.283 0.901,0.623 1.459,1.291 0.06,0.07 0.122,0.15 0.186,0.236 0.532,0.698 1.552,2.185 2.129,3.032 0.133,0.183 0.271,0.385 0.41,0.605 0.007,0.011 0.013,0.019 0.013,0.019 l -0.001,0 c 0.851,1.345 1.791,3.343 2.607,5.642 1.013,2.863 1.584,5.493 1.609,7.1 l 0.001,0 c 0,0 0.044,2.567 0.078,4.57 0.035,2.003 -0.003,4.479 0.204,6.692 0,10e-4 0,10e-4 -0.001,10e-4 C -0.073,-2.301 0,-1.159 0,0 Z"/></g></g></g></g></g></g></g><g id="g630"><g id="g674"><g id="g676" clip-path="url(#clipPath634)" opacity=".2"><g id="g678"><g id="g680" clip-path="url(#clipPath638)"><g id="g682"><g id="g686" mask="url(#mask654)"><g id="g688"><path id="path690" fill="url(#radialGradient666)" stroke="none" d="m 31.059,2.309 c 0,-1.237 -4.442,-2.239 -9.92,-2.239 -5.479,0 -9.92,1.002 -9.92,2.239 0,1.235 4.441,2.237 9.92,2.237 5.478,0 9.92,-1.002 9.92,-2.237"/></g></g></g></g></g></g></g></g><g id="g692"><g id="g736"><g id="g738" clip-path="url(#clipPath696)" opacity=".2"><g id="g740"><g id="g742" clip-path="url(#clipPath700)"><g id="g744"><g id="g748" mask="url(#mask716)"><g id="g750"><path id="path752" fill="url(#radialGradient728)" stroke="none" d="m 53.102,2.309 c 0,-1.237 -4.441,-2.239 -9.92,-2.239 -5.479,0 -9.92,1.002 -9.92,2.239 0,1.235 4.441,2.237 9.92,2.237 5.479,0 9.92,-1.002 9.92,-2.237"/></g></g></g></g></g></g></g></g></g></g></g></svg>