<svg xmlns="http://www.w3.org/2000/svg" xmlns:svg="http://www.w3.org/2000/svg" xmlns:xlink="http://www.w3.org/1999/xlink" id="svg11300" width="64" height="64" version="1.0" viewBox="0 0 64 64"><metadata id="metadata49"/><defs id="defs3"><linearGradient id="linearGradient4614"><stop id="stop4606" offset="0" stop-color="#fff" stop-opacity="1"/><stop id="stop4608" offset="0" stop-color="#fff" stop-opacity=".235"/><stop id="stop4610" offset=".981" stop-color="#fff" stop-opacity=".157"/><stop id="stop4612" offset="1" stop-color="#fff" stop-opacity=".392"/></linearGradient><linearGradient id="linearGradient3742"><stop id="stop3734" offset="0" stop-color="#fff" stop-opacity="1"/><stop id="stop3736" offset=".019" stop-color="#fff" stop-opacity=".235"/><stop id="stop3738" offset=".981" stop-color="#fff" stop-opacity=".157"/><stop id="stop3740" offset="1" stop-color="#fff" stop-opacity=".392"/></linearGradient><radialGradient id="radialGradient7374" cx="23.335" cy="41.636" r="22.627" gradientTransform="matrix(0.61871386,0,0,0.14061988,17.56277,53.961714)" gradientUnits="userSpaceOnUse"><stop id="stop23421" offset="0"/><stop id="stop23423" offset="1" stop-opacity="0"/></radialGradient><linearGradient id="linearGradient3600-8"><stop id="stop3602-2" offset="0" stop-color="#f4f4f4" stop-opacity="1"/><stop id="stop3604-5" offset="1" stop-color="#dbdbdb" stop-opacity="1"/></linearGradient><linearGradient id="linearGradient5466-8-3" x1="11.098" x2="11.098" y1="5.97" y2="45.689" gradientTransform="matrix(1.2289726,0,0,1.0632918,22.850217,-0.1995066)" gradientUnits="userSpaceOnUse" xlink:href="#linearGradient3600-8"/><linearGradient id="linearGradient3730" x1="118.574" x2="118.574" y1="3.704" y2="31.679" gradientTransform="matrix(0.81791996,0,0,1.4890166,-55.31544,0.6569973)" gradientUnits="userSpaceOnUse" xlink:href="#linearGradient3742"/><linearGradient id="linearGradient4604" x1="116.791" x2="116.791" y1="-37.808" y2="-26.979" gradientTransform="matrix(0.81288992,0,0,1.4490643,-54.78462,-4.0592618)" gradientUnits="userSpaceOnUse" xlink:href="#linearGradient4614"/><linearGradient id="linearGradient7056"><stop id="stop7064" offset="0" stop-color="#e6e6e6" stop-opacity="1"/><stop id="stop7060" offset="1" stop-color="#c8c8c8" stop-opacity="1"/></linearGradient><linearGradient id="linearGradient4763" x1="25" x2="25" y1="-35" y2="-44.396" gradientTransform="matrix(1.2666667,0,0,1.2666667,0.6,-4.1333342)" gradientUnits="userSpaceOnUse" xlink:href="#linearGradient7056"/></defs><path id="path23417" fill="url(#radialGradient7374)" fill-rule="evenodd" stroke-width="1" d="m 46,59.816784 a 14.000001,3.1818183 0 1 1 -28.000001,0 14.000001,3.1818183 0 1 1 28.000001,0 z" opacity=".3"/><rect id="rect3448" width="19" height="19" x="21.5" y="-60.5" fill="url(#linearGradient4763)" fill-opacity="1" stroke="#000" stroke-opacity=".293" stroke-width="1" rx="1" ry="1" transform="scale(1,-1)"/><path id="path4538" fill="none" fill-rule="evenodd" stroke="#000" stroke-dasharray="none" stroke-linecap="butt" stroke-linejoin="miter" stroke-miterlimit="4" stroke-opacity="1" stroke-width="3" d="M 22,49.5 H 40" opacity=".1"/><path id="rect3450" fill="#000" fill-opacity=".336" stroke="#000" stroke-dasharray="none" stroke-dashoffset="0" stroke-linecap="butt" stroke-linejoin="round" stroke-miterlimit="4" stroke-opacity=".674" stroke-width="1" d="m 24.5,53.5 v 4 h 4 v -4 z m 9,0 v 4 h 4 v -4 z" opacity=".35"/><rect id="rect3458" width="17" height="17" x="22.5" y="-59.5" fill="none" fill-opacity="1" stroke="url(#linearGradient4604)" stroke-dasharray="none" stroke-dashoffset="0" stroke-linecap="round" stroke-linejoin="round" stroke-miterlimit="4" stroke-opacity="1" stroke-width="1" opacity=".4" transform="scale(1,-1)" style="marker:none"/><rect id="rect5391" width="26" height="44" x="18" y="5" fill="url(#linearGradient5466-8-3)" fill-opacity="1" stroke="none" stroke-dasharray="none" stroke-dashoffset="0" stroke-linecap="butt" stroke-linejoin="round" stroke-miterlimit="4" stroke-opacity="1" stroke-width="1" opacity="1" rx="2.5" ry="2.5" style="marker:none"/><rect id="rect5391-2" width="27" height="45" x="17.5" y="4.5" fill="none" fill-opacity="1" stroke="#000" stroke-dasharray="none" stroke-dashoffset="0" stroke-linecap="butt" stroke-linejoin="round" stroke-miterlimit="4" stroke-opacity="1" stroke-width="1" opacity=".3" rx="3" ry="3" style="marker:none"/><rect id="rect5391-2-0" width="25" height="43" x="18.5" y="5.5" fill="none" fill-opacity="1" stroke="url(#linearGradient3730)" stroke-dasharray="none" stroke-dashoffset="0" stroke-linecap="round" stroke-linejoin="round" stroke-miterlimit="4" stroke-opacity="1" stroke-width="1" opacity="1" rx="2" ry="2" style="marker:none"/><path id="path4540" fill="#fff" fill-opacity="1" stroke-width="1" d="m 27.961933,41.867923 c 0,-1.858009 0.617533,-2.340038 1.373958,-2.988756 0.607264,-0.293144 0.704295,-0.493272 0.69631,-1.436051 -0.0087,-1.041847 -0.108537,-0.922837 -2.039534,-2.599089 -2.94832,-2.559235 -3.344823,-3.176389 -3.691,-5.744497 -0.255356,-1.894081 -0.07625,-1.47736 -0.809268,-2.205931 -1.349202,-1.340969 -1.118049,-3.307588 0.488095,-4.152812 1.446931,-0.761414 3.160971,0.04841 3.689545,1.743247 0.26052,0.83529 -0.364053,2.277785 -1.202717,2.777705 -0.767465,0.45752 -1.08586,-0.305261 -0.910357,1.38123 0.09713,0.933427 0.333842,2.006953 0.526014,2.385565 0.330046,0.650231 3.561984,3.711218 3.913542,3.711218 L 30,17 h -1.791537 c 0.829079,-1.43707 1.63634,-3.425076 2.439237,-4.871745 l 2.556617,4.872327 h -1.741356 l -0.0035,13.904202 c 0.242192,0 2.616688,-2.409856 3.415658,-3.494785 0.345217,-0.468764 0.304712,-1.635494 0.304712,-2.263572 C 35.179831,24.199183 35.492205,24 34.769714,24 H 34 v -5 h 5 v 5 h -1.343763 c -0.629576,0.07372 -1.079562,0.833238 -1.198411,1.883564 -0.177248,1.566377 -0.598118,2.656935 -3.067042,5.145625 l -1.931317,2.082733 v 5.427381 l 0.570726,0.340621 c 0.388082,0.187343 0.922547,0.792701 1.187706,1.345245 0.943986,1.97088 -0.369449,4.088667 -2.535235,4.088667 -1.569431,-0.05818 -2.721414,-0.863987 -2.721414,-2.4436 z" opacity=".2"/><path id="path3690" fill="#aaa" stroke-width="1" d="m 27.961933,40.867923 c 0,-1.858009 0.617533,-2.340038 1.373958,-2.988756 0.607264,-0.293144 0.704295,-0.493272 0.69631,-1.436051 -0.0087,-1.041847 -0.108537,-0.922837 -2.039534,-2.599089 -2.94832,-2.559235 -3.344823,-3.176389 -3.691,-5.744497 -0.255356,-1.894081 -0.07625,-1.47736 -0.809268,-2.205931 -1.349202,-1.340969 -1.118049,-3.307588 0.488095,-4.152812 1.446931,-0.761414 3.160971,0.04841 3.689545,1.743247 0.26052,0.83529 -0.364053,2.277785 -1.202717,2.777705 -0.767465,0.45752 -1.08586,-0.305261 -0.910357,1.38123 0.09713,0.933427 0.333842,2.006953 0.526014,2.385565 0.330046,0.650231 3.561984,3.711218 3.913542,3.711218 L 30,16 h -1.791537 c 0.829079,-1.43707 1.63634,-3.425076 2.439237,-4.871745 l 2.556617,4.872327 h -1.741356 l -0.0035,13.904202 c 0.242192,0 2.616688,-2.409856 3.415658,-3.494785 0.345217,-0.468764 0.304712,-1.635494 0.304712,-2.263572 C 35.179831,23.199183 35.492205,23 34.769714,23 H 34 v -5 h 5 v 5 h -1.343763 c -0.629576,0.07372 -1.079562,0.833238 -1.198411,1.883564 -0.177248,1.566377 -0.598118,2.656935 -3.067042,5.145625 l -1.931317,2.082733 v 5.427381 l 0.570726,0.340621 c 0.388082,0.187343 0.922547,0.792701 1.187706,1.345245 0.943986,1.97088 -0.369449,4.088667 -2.535235,4.088667 -1.569431,-0.05818 -2.721414,-0.863987 -2.721414,-2.4436 z" opacity=".95"/></svg>