<svg xmlns="http://www.w3.org/2000/svg" xmlns:svg="http://www.w3.org/2000/svg" xmlns:xlink="http://www.w3.org/1999/xlink" id="svg3338" width="64" height="64" version="1.0"><metadata id="metadata83"/><defs id="defs3340"><linearGradient id="linearGradient1139"><stop id="stop1135" offset="0" stop-color="#d1ff82" stop-opacity="1"/><stop id="stop1137" offset="1" stop-color="#9bdb4d" stop-opacity="1"/></linearGradient><linearGradient id="linearGradient1131"><stop id="stop1127" offset="0" stop-color="#ffe16b" stop-opacity="1"/><stop id="stop1133" offset=".513" stop-color="#d39220" stop-opacity="1"/><stop id="stop1129" offset="1" stop-color="#f9c440" stop-opacity="1"/></linearGradient><linearGradient id="linearGradient1101"><stop id="stop1091" offset="0" stop-color="#fff" stop-opacity="1"/><stop id="stop1093" offset=".25" stop-color="#e7e7e7" stop-opacity="1"/><stop id="stop1095" offset=".672" stop-color="#8c8c8c" stop-opacity="1"/><stop id="stop1097" offset=".835" stop-color="#ddd" stop-opacity="1"/><stop id="stop1099" offset="1" stop-color="#a8a8a8" stop-opacity="1"/></linearGradient><linearGradient id="linearGradient1045"><stop id="stop1041" offset="0" stop-color="#333" stop-opacity="1"/><stop id="stop1043" offset="1" stop-color="#555761" stop-opacity="1"/></linearGradient><linearGradient id="linearGradient5048"><stop id="stop5050" offset="0" stop-color="#000" stop-opacity="0"/><stop id="stop5056" offset=".5" stop-color="#000" stop-opacity="1"/><stop id="stop5052" offset="1" stop-color="#000" stop-opacity="0"/></linearGradient><linearGradient id="linearGradient2566" x1="302.857" x2="302.857" y1="366.648" y2="609.505" gradientTransform="matrix(0.1018087,0,0,0.02745099,-4.7965709,43.268495)" gradientUnits="userSpaceOnUse" xlink:href="#linearGradient5048"/><radialGradient id="radialGradient2563" cx="605.714" cy="486.648" r="117.143" fx="605.714" fy="486.648" gradientTransform="matrix(0.05979662,0,0,0.02745099,20.518506,43.268495)" gradientUnits="userSpaceOnUse" xlink:href="#linearGradient5060"/><radialGradient id="radialGradient2560" cx="605.714" cy="486.648" r="117.143" fx="605.714" fy="486.648" gradientTransform="matrix(-0.05979662,0,0,0.02745099,43.481506,43.268495)" gradientUnits="userSpaceOnUse" xlink:href="#linearGradient5060"/><linearGradient id="linearGradient2215"><stop id="stop2223" offset="0" stop-color="#7a7a7a" stop-opacity="1"/><stop id="stop2219" offset="1" stop-color="#474747" stop-opacity="1"/></linearGradient><linearGradient id="linearGradient2557" x1="29.938" x2="30" y1="41" y2="50" gradientTransform="matrix(1.3573591,0,0,1.0098512,-7.3634079,6.5517759)" gradientUnits="userSpaceOnUse" xlink:href="#linearGradient2215"/><linearGradient id="linearGradient3484"><stop id="stop3486" offset="0" stop-color="#969696" stop-opacity="1"/><stop id="stop3488" offset="1" stop-color="#b4b4b4" stop-opacity="1"/></linearGradient><linearGradient id="linearGradient2553" x1="17.814" x2="18.073" y1="29.797" y2="10" gradientTransform="matrix(1.3526366,0,0,1.3652569,-0.463278,-2.8344302)" gradientUnits="userSpaceOnUse" xlink:href="#linearGradient3484"/><linearGradient id="linearGradient7056"><stop id="stop7064" offset="0" stop-color="#e6e6e6" stop-opacity="1"/><stop id="stop7060" offset="1" stop-color="#c8c8c8" stop-opacity="1"/></linearGradient><radialGradient id="radialGradient2551" cx="11.734" cy="8.49" r="23.048" fx="11.734" fy="8.49" gradientTransform="matrix(1.8621852,0.9518493,-0.6331808,1.2619694,-0.5297689,-5.4809546)" gradientUnits="userSpaceOnUse" xlink:href="#linearGradient7056"/><radialGradient id="radialGradient2547" cx="141.747" cy="206.426" r="78.728" fx="141.747" fy="206.426" gradientTransform="matrix(0.475706,-0.00690855,0.00352072,0.3975024,-37.03293,-36.799112)" gradientUnits="userSpaceOnUse" xlink:href="#linearGradient4035"/><linearGradient id="linearGradient7609"><stop id="stop7611" offset="0" stop-color="#fff" stop-opacity="1"/><stop id="stop7677" offset=".47" stop-color="#e7e7e7" stop-opacity="1"/><stop id="stop7613" offset=".672" stop-color="#8c8c8c" stop-opacity="1"/><stop id="stop7617" offset=".835" stop-color="#ddd" stop-opacity="1"/><stop id="stop7615" offset="1" stop-color="#a8a8a8" stop-opacity="1"/></linearGradient><radialGradient id="radialGradient2544" cx="142.622" cy="191.854" r="78.728" fx="142.622" fy="191.854" gradientTransform="matrix(0.2466032,0,0,-0.1743241,-4.1482291,59.731248)" gradientUnits="userSpaceOnUse" xlink:href="#linearGradient7609"/><radialGradient id="radialGradient2540" cx="113.065" cy="97.588" r="2.563" fx="113.667" fy="98" gradientTransform="matrix(-0.5034274,0,0,0.4878048,62.920656,-2.103415)" gradientUnits="userSpaceOnUse" xlink:href="#radialGradient4241"/><radialGradient id="radialGradient2536" cx="113.065" cy="97.588" r="2.563" fx="113.667" fy="98" gradientTransform="matrix(0.374113,-0.07929617,0.04213943,0.3149909,-33.911844,-8.7733407)" gradientUnits="userSpaceOnUse" xlink:href="#radialGradient4241"/><radialGradient id="radialGradient2532" cx="113.065" cy="97.588" r="2.563" fx="113.667" fy="98" gradientTransform="matrix(0.3782453,0.07056425,-0.03896353,0.3065004,11.53557,-24.903099)" gradientUnits="userSpaceOnUse" xlink:href="#radialGradient4241"/><linearGradient id="linearGradient5060"><stop id="stop5062" offset="0" stop-color="#000" stop-opacity="1"/><stop id="stop5064" offset="1" stop-color="#000" stop-opacity="0"/></linearGradient><linearGradient id="linearGradient2529" x1="7.063" x2="24.688" y1="35.281" y2="35.281" gradientTransform="matrix(1.3801029,0,0,1.2584266,-8.0712936,29.10113)" gradientUnits="userSpaceOnUse" xlink:href="#linearGradient5060"/><linearGradient id="linearGradient4236"><stop id="stop4238" offset="0" stop-color="#eee" stop-opacity="1"/><stop id="stop4240" offset="1" stop-color="#eee" stop-opacity="0"/></linearGradient><linearGradient id="linearGradient2526" x1="12.277" x2="12.222" y1="37.206" y2="33.759" gradientTransform="matrix(1.3504215,0,0,1.2464221,-0.08267968,10.210591)" gradientUnits="userSpaceOnUse" xlink:href="#linearGradient4236"/><linearGradient id="linearGradient4035"><stop id="stop4037" offset="0" stop-color="#f5f5f5" stop-opacity="1"/><stop id="stop4039" offset=".47" stop-color="#e7e7e7" stop-opacity="1"/><stop id="stop4041" offset=".693" stop-color="#8c8c8c" stop-opacity="1"/><stop id="stop4043" offset=".835" stop-color="#ddd" stop-opacity="1"/><stop id="stop4045" offset="1" stop-color="#a8a8a8" stop-opacity="1"/></linearGradient><radialGradient id="radialGradient2523" cx="127.317" cy="143.828" r="78.728" fx="127.317" fy="143.828" gradientTransform="matrix(0.2540562,-0.03579406,0.00825801,0.1439066,-9.916226,3.6124102)" gradientUnits="userSpaceOnUse" xlink:href="#linearGradient4035"/><radialGradient id="radialGradient4241" cx="113.065" cy="97.588" r="2.563" fx="113.667" fy="98" gradientUnits="userSpaceOnUse"><stop id="stop4243" offset="0" stop-color="#eee" stop-opacity="1"/><stop id="stop4245" offset=".16" stop-color="#cecece" stop-opacity="1"/><stop id="stop4247" offset=".468" stop-color="#888" stop-opacity="1"/><stop id="stop4249" offset="1" stop-color="#555" stop-opacity="1"/></radialGradient><radialGradient id="radialGradient2519" cx="113.065" cy="97.588" r="2.563" fx="113.667" fy="98" gradientTransform="matrix(0.5034273,0,0,0.4878048,1.0793577,-2.103415)" gradientUnits="userSpaceOnUse" xlink:href="#radialGradient4241"/><linearGradient id="linearGradient6310-8"><stop id="stop6312-6" offset="0" stop-color="#fff" stop-opacity="1"/><stop id="stop6314-6" offset="1" stop-color="#fff" stop-opacity="0"/></linearGradient><radialGradient id="radialGradient2516" cx="24" cy="42" r="21" fx="24" fy="42" gradientTransform="matrix(1.3809524,-1.4521173e-8,3.8407907e-8,0.486864,-1.1428547,32.14366)" gradientUnits="userSpaceOnUse" xlink:href="#linearGradient6310-8"/><radialGradient id="radialGradient925" cx="25.96" cy="75.091" r="18.5" fx="25.96" fy="75.091" gradientTransform="matrix(1.1323845,-1.809244e-7,-2.7011291e-8,-0.2162162,-6.3970894,67.235857)" gradientUnits="userSpaceOnUse" xlink:href="#linearGradient1045"/><linearGradient id="linearGradient1011" x1="7" x2="7" y1="53" y2="52" gradientTransform="matrix(1,0,0,2,0,-52.499999)" gradientUnits="userSpaceOnUse" xlink:href="#linearGradient1131"/><linearGradient id="linearGradient1013" x1="10" x2="10" y1="53" y2="52" gradientTransform="matrix(1,0,0,2,0,-52.499999)" gradientUnits="userSpaceOnUse" xlink:href="#linearGradient1131"/><linearGradient id="linearGradient1015" x1="13" x2="13" y1="53" y2="52" gradientTransform="matrix(1,0,0,2,0,-52.499999)" gradientUnits="userSpaceOnUse" xlink:href="#linearGradient1131"/><linearGradient id="linearGradient1017" x1="16" x2="16" y1="53" y2="52" gradientTransform="matrix(1,0,0,2,0,-52.499999)" gradientUnits="userSpaceOnUse" xlink:href="#linearGradient1131"/><linearGradient id="linearGradient1019" x1="19" x2="19" y1="53" y2="52" gradientTransform="matrix(1,0,0,2,0,-52.499999)" gradientUnits="userSpaceOnUse" xlink:href="#linearGradient1131"/><linearGradient id="linearGradient1021" x1="22" x2="22" y1="53" y2="52" gradientTransform="matrix(1,0,0,2,0,-52.499999)" gradientUnits="userSpaceOnUse" xlink:href="#linearGradient1131"/><linearGradient id="linearGradient1023" x1="25" x2="25" y1="53" y2="52" gradientTransform="matrix(1,0,0,2,0,-52.499999)" gradientUnits="userSpaceOnUse" xlink:href="#linearGradient1131"/><linearGradient id="linearGradient1025" x1="28" x2="28" y1="53" y2="52" gradientTransform="matrix(1,0,0,2,0,-52.499999)" gradientUnits="userSpaceOnUse" xlink:href="#linearGradient1131"/><linearGradient id="linearGradient1027" x1="31" x2="31" y1="53" y2="52" gradientTransform="matrix(1,0,0,2,0,-52.499999)" gradientUnits="userSpaceOnUse" xlink:href="#linearGradient1131"/><linearGradient id="linearGradient1029" x1="34" x2="34" y1="53" y2="52" gradientTransform="matrix(1,0,0,2,0,-52.499999)" gradientUnits="userSpaceOnUse" xlink:href="#linearGradient1131"/><linearGradient id="linearGradient1031" x1="41" x2="41" y1="53" y2="52" gradientTransform="matrix(1,0,0,2,-1,-52.499999)" gradientUnits="userSpaceOnUse" xlink:href="#linearGradient1131"/><linearGradient id="linearGradient1033" x1="37" x2="37" y1="53" y2="52" gradientTransform="matrix(1,0,0,2,0,-52.499999)" gradientUnits="userSpaceOnUse" xlink:href="#linearGradient1131"/><radialGradient id="radialGradient1141" cx="58.064" cy="53" r="1.689" fx="58.064" fy="53" gradientTransform="matrix(1,0,0,0.88806701,0,5.9324482)" gradientUnits="userSpaceOnUse" xlink:href="#linearGradient1139"/></defs><rect id="rect2723" width="49.159" height="6.667" x="7.42" y="53.333" fill="url(#linearGradient2566)" fill-opacity="1" fill-rule="nonzero" stroke="none" stroke-width=".5" display="inline" opacity=".3" overflow="visible" visibility="visible" style="marker:none"/><path id="path2725" fill="url(#radialGradient2563)" fill-opacity="1" fill-rule="nonzero" stroke="none" stroke-width=".5" d="m 56.555559,53.333564 c 0,0 0,6.666297 0,6.666297 3.079373,0.01255 7.444439,-1.49358 7.444439,-3.333576 0,-1.839996 -3.436346,-3.332721 -7.444439,-3.332721 z" display="inline" opacity=".3" overflow="visible" visibility="visible" style="marker:none"/><path id="path2727" fill="url(#radialGradient2560)" fill-opacity="1" fill-rule="nonzero" stroke="none" stroke-width="1" d="m 7.4444398,53.333564 c 0,0 0,6.666297 0,6.666297 C 4.3650531,60.012413 0,58.506281 0,56.666285 0,54.826289 3.4363598,53.333564 7.4444398,53.333564 Z" display="inline" opacity=".3" overflow="visible" visibility="visible" style="marker:none"/><path id="rect6431" fill="url(#linearGradient2557)" fill-opacity="1" fill-rule="evenodd" stroke="#353537" stroke-dasharray="none" stroke-dashoffset="0" stroke-linecap="round" stroke-linejoin="round" stroke-miterlimit="4" stroke-opacity="1" stroke-width=".928" d="M 1.4639996,48.463998 H 62.536003 l -1.221119,8.072 H 2.8208566 Z" display="inline" enable-background="new"/><rect id="rect6381" width="60.869" height="1.363" x="1.566" y="47.626" fill="#d2d2d3" fill-opacity="1" fill-rule="evenodd" stroke="none" display="inline" enable-background="new"/><path id="path6345" fill="url(#radialGradient2551)" fill-opacity="1" fill-rule="nonzero" stroke="url(#linearGradient2553)" stroke-dasharray="none" stroke-dashoffset="0" stroke-linecap="round" stroke-linejoin="round" stroke-miterlimit="4" stroke-opacity="1" stroke-width=".996" d="M 62.501957,48.502108 53.290998,13.313517 C 53.030543,12.311454 51.666211,11.49789 50.51922,11.49789 H 13.16316 c -1.762134,0 -2.7719,0.271104 -3.143472,1.815627 L 1.4980451,48.467845" display="inline" enable-background="accumulate" overflow="visible" visibility="visible" style="marker:none"/><path id="path7046" fill="none" stroke="#fff" stroke-dasharray="none" stroke-dashoffset="0" stroke-linecap="round" stroke-linejoin="miter" stroke-miterlimit="4" stroke-opacity="1" stroke-width="1" d="M 61.499999,48.515874 2.5,48.484128" display="inline" enable-background="accumulate" opacity=".4" overflow="visible" visibility="visible" style="marker:none"/><path id="path9007" fill="#e1e1e1" fill-opacity="1" d="M 7.9967277,45.492684 C 7.9332943,46.322928 6.9833279,47 5.8757865,47 4.7687495,47 3.9305429,46.322928 4.0045466,45.492684 4.078048,44.666829 5.027512,44 6.1239769,44 c 1.096969,3.91e-4 1.9351757,0.666829 1.8727508,1.492684 z"/><path id="path9009" fill="url(#radialGradient2540)" fill-opacity="1" d="m 7.280349,44.90878 c 0.1011901,0.105359 0.2169781,0.274148 0.2169781,0.498536 0,0.01611 -0.00101,0.03219 -0.00202,0.04928 -0.0438,0.572194 -0.7853474,1.055609 -1.6190232,1.055609 -0.474732,0 -0.908686,-0.158536 -1.1604005,-0.424877 -0.1082352,-0.113658 -0.2315767,-0.301952 -0.2094255,-0.552683 0.050846,-0.567318 0.7913868,-1.046829 1.6180165,-1.046829 0.471208,3.9e-4 0.9036511,0.157561 1.1558678,0.420974 h 4.1e-6 l -5e-7,-7e-6 z"/><path id="path9019" fill="#f0f0f0" fill-opacity="1" d="m 11.015508,13.309735 c 0.118861,0.526123 0.883302,0.813697 1.706351,0.639247 0.822674,-0.174371 1.387082,-0.743609 1.260368,-1.268067 -0.125972,-0.521702 -0.889146,-0.802742 -1.703963,-0.630035 -0.815161,0.173038 -1.380487,0.735406 -1.262756,1.258855 z"/><path id="path9021" fill="url(#radialGradient2536)" fill-opacity="1" d="m 11.497432,12.819853 c -0.0661,0.08398 -0.137561,0.211202 -0.118178,0.356097 0.0014,0.01035 0.0035,0.02071 0.0058,0.03149 0.08198,0.362583 0.674806,0.557935 1.294338,0.426621 0.352787,-0.07477 0.661577,-0.245501 0.825625,-0.457134 0.07062,-0.09045 0.146001,-0.231456 0.107889,-0.389872 -0.0868,-0.358327 -0.678535,-0.551317 -1.29283,-0.421113 -0.350136,0.07447 -0.657921,0.24408 -0.822597,0.453902 l -2e-6,2e-6 -5e-6,9e-6 z"/><path id="path9025" fill="#e1e1e1" fill-opacity="1" d="m 49.000386,12.701322 c -0.01865,0.530555 0.641011,1.089131 1.473151,1.244373 0.831763,0.15517 1.515621,-0.152769 1.526335,-0.684798 0.01067,-0.529209 -0.649366,-1.081279 -1.473185,-1.234967 -0.824228,-0.153508 -1.507238,0.147743 -1.526301,0.675392 z"/><path id="path9027" fill="url(#radialGradient2532)" fill-opacity="1" d="m 49.58527,12.434852 c -0.08445,0.05201 -0.184921,0.141835 -0.202845,0.282832 -0.0013,0.01005 -0.0019,0.02031 -0.0024,0.03125 -0.01287,0.365665 0.505746,0.773348 1.132121,0.890201 0.356685,0.06654 0.695395,0.02776 0.905794,-0.104309 0.09041,-0.05624 0.198111,-0.157263 0.201496,-0.317911 0.0071,-0.363587 -0.510985,-0.768676 -1.132066,-0.884543 -0.354069,-0.0658 -0.691536,-0.02765 -0.902077,0.102505 l -4e-6,-4e-6 -4.7e-5,-1.8e-5 z"/><path id="path9091" fill="#e1e1e1" fill-opacity="1" d="M 56.003272,45.492684 C 56.066707,46.322928 57.016672,47 58.124213,47 59.23125,47 60.069458,46.322928 59.995454,45.492684 59.921945,44.666829 58.972488,44 57.876023,44 c -1.09697,3.91e-4 -1.935174,0.666829 -1.872751,1.492684 z"/><path id="path9093" fill="url(#radialGradient2519)" fill-opacity="1" d="m 56.719652,44.90878 c -0.101194,0.105359 -0.216979,0.274148 -0.216979,0.498536 0,0.01611 10e-4,0.03219 0.002,0.04928 0.04381,0.572194 0.785346,1.055609 1.619022,1.055609 0.474732,0 0.908686,-0.158536 1.160399,-0.424877 0.108237,-0.113658 0.231578,-0.301952 0.209427,-0.552683 -0.05085,-0.567318 -0.791387,-1.046829 -1.618016,-1.046829 -0.471209,3.9e-4 -0.903651,0.157561 -1.155869,0.420974 h -3e-6 l 3.3e-5,-7e-6 z"/><rect id="rect6300-3" width="58" height="6.816" x="3" y="49.184" fill="url(#radialGradient2516)" fill-opacity="1" stroke="none" stroke-width="1" opacity=".3"/><path id="path915" fill="url(#radialGradient1141)" fill-opacity="1" stroke="#9bdb4d" stroke-linecap="butt" stroke-linejoin="miter" stroke-opacity=".544" stroke-width="1" d="m 59.2,52 -0.3,2 h -2 l 0.3,-2 z"/><path id="rect917" fill="url(#radialGradient925)" fill-opacity="1" fill-rule="nonzero" stroke="#474747" stroke-dasharray="none" stroke-linecap="butt" stroke-linejoin="miter" stroke-miterlimit="4" stroke-opacity=".599" stroke-width="1" d="m 4.972956,54.5 h 37.17246 l 0.301398,-3 H 4.5710916 Z" opacity="1" paint-order="normal" vector-effect="none"/><path id="path928" fill="url(#linearGradient1011)" fill-opacity="1" stroke="none" stroke-linecap="butt" stroke-linejoin="miter" stroke-opacity="1" stroke-width="1" d="m 6,51.499999 v 2 h 2 v -2 z"/><path id="path928-3" fill="url(#linearGradient1013)" fill-opacity="1" stroke="none" stroke-linecap="butt" stroke-linejoin="miter" stroke-opacity="1" stroke-width="1" d="m 9,51.499999 v 2 h 2 v -2 z"/><path id="path928-6" fill="url(#linearGradient1015)" fill-opacity="1" stroke="none" stroke-linecap="butt" stroke-linejoin="miter" stroke-opacity="1" stroke-width="1" d="m 12,51.499999 v 2 h 2 v -2 z"/><path id="path928-7" fill="url(#linearGradient1017)" fill-opacity="1" stroke="none" stroke-linecap="butt" stroke-linejoin="miter" stroke-opacity="1" stroke-width="1" d="m 15,51.499999 v 2 h 2 v -2 z"/><path id="path928-5" fill="url(#linearGradient1019)" fill-opacity="1" stroke="none" stroke-linecap="butt" stroke-linejoin="miter" stroke-opacity="1" stroke-width="1" d="m 18,51.499999 v 2 h 2 v -2 z"/><path id="path928-35" fill="url(#linearGradient1021)" fill-opacity="1" stroke="none" stroke-linecap="butt" stroke-linejoin="miter" stroke-opacity="1" stroke-width="1" d="m 21,51.499999 v 2 h 2 v -2 z"/><path id="path928-62" fill="url(#linearGradient1023)" fill-opacity="1" stroke="none" stroke-linecap="butt" stroke-linejoin="miter" stroke-opacity="1" stroke-width="1" d="m 24,51.499999 v 2 h 2 v -2 z"/><path id="path928-9" fill="url(#linearGradient1025)" fill-opacity="1" stroke="none" stroke-linecap="butt" stroke-linejoin="miter" stroke-opacity="1" stroke-width="1" d="m 27,51.499999 v 2 h 2 v -2 z"/><path id="path928-1" fill="url(#linearGradient1027)" fill-opacity="1" stroke="none" stroke-linecap="butt" stroke-linejoin="miter" stroke-opacity="1" stroke-width="1" d="m 30,51.499999 v 2 h 2 v -2 z"/><path id="path928-2" fill="url(#linearGradient1029)" fill-opacity="1" stroke="none" stroke-linecap="butt" stroke-linejoin="miter" stroke-opacity="1" stroke-width="1" d="m 33,51.499999 v 2 h 2 v -2 z"/><path id="path928-70" fill="url(#linearGradient1033)" fill-opacity="1" stroke="none" stroke-linecap="butt" stroke-linejoin="miter" stroke-opacity="1" stroke-width="1" d="m 36,51.499999 v 2 h 2 v -2 z"/><path id="path928-93" fill="url(#linearGradient1031)" fill-opacity="1" stroke="none" stroke-linecap="butt" stroke-linejoin="miter" stroke-opacity="1" stroke-width="1" d="m 39,51.499999 v 2 h 2 v -2 z"/></svg>