<svg xmlns="http://www.w3.org/2000/svg" xmlns:svg="http://www.w3.org/2000/svg" xmlns:xlink="http://www.w3.org/1999/xlink" id="svg2" width="64" height="64" version="1.1"><defs id="defs4"><linearGradient id="linearGradient6420"><stop id="stop6422" offset="0" stop-color="#000" stop-opacity="1"/><stop id="stop6424" offset="1" stop-color="#000" stop-opacity="0"/></linearGradient><linearGradient id="linearGradient6307"><stop id="stop6309" offset="0" stop-color="#c00" stop-opacity="1"/><stop id="stop6311" offset="1" stop-color="#c00" stop-opacity="0"/></linearGradient><linearGradient id="linearGradient4610" x1="16.806" x2="16.806" y1="20.62" y2="42.728" gradientTransform="matrix(2.2656662,0,0,2.6355713,-3.9888972,-53.47955)" gradientUnits="userSpaceOnUse" xlink:href="#linearGradient4035"/><linearGradient id="linearGradient4035"><stop id="stop4037" offset="0" stop-color="#fff" stop-opacity="1"/><stop id="stop4039" offset=".056" stop-color="#fff" stop-opacity=".235"/><stop id="stop4041" offset=".944" stop-color="#fff" stop-opacity=".157"/><stop id="stop4043" offset="1" stop-color="#fff" stop-opacity=".392"/></linearGradient><linearGradient id="linearGradient3688-166-749-654"><stop id="stop3088" offset="0" stop-color="#181818" stop-opacity="1"/><stop id="stop3090" offset="1" stop-color="#181818" stop-opacity="0"/></linearGradient><linearGradient id="linearGradient3688-464-309-604"><stop id="stop3094" offset="0" stop-color="#181818" stop-opacity="1"/><stop id="stop3096" offset="1" stop-color="#181818" stop-opacity="0"/></linearGradient><linearGradient id="linearGradient3702-501-757-795"><stop id="stop3100" offset="0" stop-color="#181818" stop-opacity="0"/><stop id="stop3102" offset=".5" stop-color="#181818" stop-opacity="1"/><stop id="stop3104" offset="1" stop-color="#181818" stop-opacity="0"/></linearGradient><radialGradient id="radialGradient4730" cx="4.996" cy="43.5" r="2.5" fx="4.996" fy="43.5" gradientTransform="matrix(3.2060542,2.6349059e-7,-8.2185947e-8,1.0000077,33.981009,1004.2786)" gradientUnits="userSpaceOnUse" xlink:href="#linearGradient3688-166-749-654"/><radialGradient id="radialGradient4732" cx="4.993" cy="43.5" r="2.5" fx="4.993" fy="43.5" gradientTransform="matrix(3.163875,0,0,0.99999995,-26.702994,-1091.3623)" gradientUnits="userSpaceOnUse" xlink:href="#linearGradient3688-464-309-604"/><linearGradient id="linearGradient4734" x1="25.058" x2="25.058" y1="47.028" y2="39.999" gradientTransform="matrix(1.3928572,0,0,0.71428561,-3.0214163,1016.7908)" gradientUnits="userSpaceOnUse" xlink:href="#linearGradient3702-501-757-795"/><linearGradient id="linearGradient4899" x1="33" x2="33" y1="988.362" y2="1048.362" gradientTransform="translate(0,-988.36218)" gradientUnits="userSpaceOnUse" xlink:href="#linearGradient3994-617-9-9"/><linearGradient id="linearGradient4939" x1="16.806" x2="16.806" y1="20.62" y2="42.728" gradientTransform="matrix(1.8957615,0,0,2.2656665,2.0501065,-41.76312)" gradientUnits="userSpaceOnUse" xlink:href="#linearGradient6420"/><linearGradient id="linearGradient2867-449-88-871-390-598-476-591-434-148-57-177-8-3-3-6-4-8-8-8-5-7"><stop id="stop3750-1-0-7-6-6-1-3-9-3-9" offset="0" stop-color="#505050" stop-opacity="1"/><stop id="stop3752-3-7-4-0-32-8-923-0-7-0" offset=".262" stop-color="#2b2b2b" stop-opacity="1"/><stop id="stop3754-1-8-5-2-7-6-7-1-9-1" offset=".705" stop-color="#0a0a0a" stop-opacity="1"/><stop id="stop3756-1-6-2-6-6-1-96-6-0-1" offset="1" stop-color="#000" stop-opacity="1"/></linearGradient><radialGradient id="radialGradient5299" cx="7.118" cy="9.957" r="12.672" fx="7.118" fy="9.957" gradientTransform="matrix(0,11.952628,-12.372204,0,157.10767,-104.54522)" gradientUnits="userSpaceOnUse" xlink:href="#linearGradient2867-449-88-871-390-598-476-591-434-148-57-177-8-3-3-6-4-8-8-8-5-7"/><linearGradient id="linearGradient3600"><stop id="stop3602" offset="0" stop-color="#f4f4f4" stop-opacity="1"/><stop id="stop3604" offset="1" stop-color="#dbdbdb" stop-opacity="1"/></linearGradient><linearGradient id="linearGradient3029"><stop id="stop3031" offset="0" stop-color="#fff" stop-opacity="1"/><stop id="stop3033" offset=".015" stop-color="#fff" stop-opacity=".235"/><stop id="stop3035" offset=".985" stop-color="#fff" stop-opacity=".157"/><stop id="stop3037" offset="1" stop-color="#fff" stop-opacity=".392"/></linearGradient><linearGradient id="linearGradient3052" x1="22.004" x2="22.004" y1="47.813" y2="3.364" gradientTransform="translate(7.0179043,992.31207)" gradientUnits="userSpaceOnUse" xlink:href="#linearGradient3104-5"/><linearGradient id="linearGradient3104-5"><stop id="stop3106-2" offset="0" stop-color="#aaa" stop-opacity="1"/><stop id="stop3108-5" offset="1" stop-color="#c8c8c8" stop-opacity="1"/></linearGradient><linearGradient id="linearGradient5477" x1="25.132" x2="25.132" y1=".985" y2="47.013" gradientTransform="matrix(0.9714263,0,0,0.91258567,9.6857672,995.05986)" gradientUnits="userSpaceOnUse" xlink:href="#linearGradient3600"/><linearGradient id="linearGradient5522" x1="24" x2="24" y1="5.564" y2="42.111" gradientTransform="matrix(0.89189189,0,0,1.1081086,11.5946,991.76453)" gradientUnits="userSpaceOnUse" xlink:href="#linearGradient3029"/><linearGradient id="linearGradient6426" x1="33" x2="33" y1="1045.362" y2="991.362" gradientTransform="translate(0,-988.36218)" gradientUnits="userSpaceOnUse" xlink:href="#linearGradient4035"/><linearGradient id="linearGradient3994-617-9-9"><stop id="stop4324-9-7" offset="0" stop-color="#f0f0f0" stop-opacity="1"/><stop id="stop2860-4-4" offset=".086" stop-color="#d7d7d8" stop-opacity="1"/><stop id="stop2862-5-9" offset=".922" stop-color="#b2b2b3" stop-opacity="1"/><stop id="stop4326-1-1" offset="1" stop-color="#979798" stop-opacity="1"/></linearGradient><linearGradient id="linearGradient3097" x1="32" x2="32" y1="1017.87" y2="1015.362" gradientTransform="matrix(1,0,0,1.399999,0,-1388.506)" gradientUnits="userSpaceOnUse" spreadMethod="reflect" xlink:href="#linearGradient6307"/></defs><metadata id="metadata7"/><g id="g4725" transform="translate(3,-988.36218)"><rect id="rect2801" width="8" height="5" x="50" y="1045.279" fill="url(#radialGradient4730)" fill-opacity="1" stroke="none" opacity=".4"/><rect id="rect3696" width="8" height="5" x="-11" y="-1050.362" fill="url(#radialGradient4732)" fill-opacity="1" stroke="none" opacity=".4" transform="scale(-1)"/><rect id="rect3700" width="39" height="5" x="11" y="1045.362" fill="url(#linearGradient4734)" fill-opacity="1" stroke="none" opacity=".4"/></g><rect id="rect4897" width="51" height="59" x="7.5" y=".5" fill="url(#linearGradient4899)" stroke="none" rx="3" ry="3"/><rect id="rect6410" width="45" height="53" x="10.5" y="3.5" fill="none" stroke="url(#linearGradient6426)" stroke-opacity="1" stroke-width="1" opacity=".35" rx="2" ry="2"/><rect id="rect3993" width="51" height="59" x="7.5" y=".5" fill="none" stroke="#000" stroke-opacity="1" stroke-width="1" opacity=".4" rx="3" ry="3"/><rect id="rect6741-5-0-2-3" width="49" height="57" x="8.5" y="1.5" fill="none" stroke="url(#linearGradient4610)" stroke-dasharray="none" stroke-dashoffset="0" stroke-linecap="round" stroke-linejoin="round" stroke-miterlimit="4" stroke-opacity="1" stroke-width="1" rx="2" ry="2"/><rect id="rect5505-21-3-8-5-2" width="43" height="51" x="11.5" y="4.5" fill="url(#radialGradient5299)" fill-opacity="1" fill-rule="nonzero" stroke="none" stroke-width="1" color="#000" display="inline" enable-background="accumulate" opacity=".9" overflow="visible" rx="1" ry="1" visibility="visible" style="marker:none"/><rect id="rect4937" width="41" height="49" x="12.5" y="5.5" fill="none" stroke="url(#linearGradient4939)" stroke-dasharray="none" stroke-dashoffset="0" stroke-linecap="round" stroke-linejoin="round" stroke-miterlimit="4" stroke-opacity="1" stroke-width="1" opacity=".3"/><g id="g6471" transform="translate(0,-988.36218)"><path id="path4160" fill="url(#linearGradient5477)" fill-opacity="1" stroke="none" d="m 16,997.36203 c 7.791126,0 33.999959,0.003 33.999959,0.003 L 50,1039.3622 c 0,0 -22.666666,0 -34,0 0,-13.9998 0,-27.9998 0,-41.99984 z" display="inline"/><path id="rect6741-1" fill="none" stroke="url(#linearGradient5522)" stroke-dasharray="none" stroke-dashoffset="0" stroke-linecap="round" stroke-linejoin="miter" stroke-miterlimit="4" stroke-opacity="1" stroke-width="1" d="m 49.500001,1038.8591 h -33 v -40.99998 h 33 z"/><path id="path4160-9" fill="none" stroke="#000" stroke-dasharray="none" stroke-dashoffset="0" stroke-linecap="butt" stroke-linejoin="round" stroke-miterlimit="4" stroke-opacity="1" stroke-width="1" d="m 15.499961,996.86204 c 8.020296,0 35.00004,0.003 35.00004,0.003 l 4.2e-5,42.99716 c 0,0 -23.333387,0 -35.000082,0 0,-14.3333 0,-28.6665 0,-42.99989 z" display="inline" opacity=".3"/><path id="path3475" fill="none" stroke="url(#linearGradient3052)" stroke-linecap="butt" stroke-linejoin="miter" stroke-opacity="1" stroke-width="1" d="m 20.000001,1003.8591 h 2.34375 z m 2.6875,0 h 2.1875 z m 2.53125,0 h 1.9375 z m 2.25,0 h 0.84375 z m 1.1875,0 h 1.875 z m 2.25,0 h 4.9375 z m 5.25,0 h 3.78125 z m 4.09375,0 h 1.15625 z m -20.25,2 h 3.65625 z m 4.0625,0 h 1.75 z m 2.0625,0 h 0.875 z m 1.21875,0 h 1.59375 z m 1.9375,0 h 1.625 z m 1.9375,0 h 2.59375 z m 2.9375,0 h 3.375 z m 3.6875,0 h 2.25 z m 2.5625,0 h 0.5625 z m -20.40625,1.9844 h 3.09375 z m 3.40625,0 h 5.0625 z m 5.375,0 h 2.46875 z m 2.78125,0 h 2.3125 z m 2.625,0 h 1.96875 z m 2.28125,0 3.09375,0.031 z m 3.375,0.031 h 5.03125 z m -19.84375,1.9846 h 4.28125 z m 4.625,0 h 4.625 z m 4.9375,0 h 1.84375 z m 2.15625,0 h 4.34375 z m 4.625,0 h 2.96875 z m 3.3125,0 h 1.1875 z m 1.5,0 h 0.65625 z m 1,0 h 1.84375 z m -22.15625,2 h 1.59375 z m 2.09375,0 h 5.90625 z m -2.09375,3.9844 h 3.09375 z m 3.40625,0 h 5.0625 z m 5.375,0 h 2.46875 z m 2.78125,0 h 2.3125 z m 2.625,0 h 1.96875 z m 2.28125,0 3.09375,0.031 z m 3.375,0.031 h 5.03125 z m -19.84375,1.9846 h 2.34375 z m 2.6875,0 h 2.15625 z m 2.53125,0 h 1.9375 z m 2.25,0 h 0.84375 z m 1.1875,0 h 1.875 z m 2.25,0 h 4.90625 z m 5.25,0 h 3.75 z m 4.0625,0 h 1.1875 z m 1.5,0 h 2.8125 z m -21.71875,2 h 3.9375 z m 4.25,0 h 4.21875 z m 4.53125,0 h 1.625 z m 1.9375,0 h 3.96875 z m 4.28125,0 h 5 z m 5.34375,0 h 1.84375 z m -20.34375,2 h 4.28125 z m 4.625,0 h 4.625 z m 4.9375,0 h 1.84375 z m 2.15625,0 h 4.34375 z m 4.625,0 h 2.96875 z m 3.3125,0 h 1.1875 z m 1.5,0 h 0.65625 z m 1,0 h 1.84375 z m -22.15625,2 h 3.65625 z m 4.0625,0 h 1.75 z m 2.0625,0 h 0.875 z m 1.21875,0 h 1.59375 z m 1.9375,0 h 1.625 z m 1.9375,0 h 2.59375 z m 2.9375,0 h 3.375 z m 3.6875,0 h 2.25 z m 2.5625,0 h 0.5625 z m -20.40625,3.9844 h 3.09375 z m 3.40625,0 h 5.0625 z m 5.375,0 h 2.46875 z m 2.78125,0 h 2.3125 z m 2.625,0 h 1.96875 z m 2.28125,0 3.09375,0.031 z m 3.375,0.031 h 5.03125 z m -19.84375,1.9846 h 3.65625 z m 4.0625,0 h 1.75 z m 2.0625,0 h 0.875 z m 1.21875,0 h 1.59375 z m 1.9375,0 h 1.625 z m 1.9375,0 h 2.59375 z m 2.9375,0 h 3.375 z m 3.6875,0 h 2.25 z m 2.5625,0 h 0.5625 z m -20.40625,2 h 3.875 z m 4.21875,0 h 1.21875 z m 1.53125,0 h 2.78125 z m 3.09375,0 h 4.09375 z m 4.4375,0 h 2.78125 z m 3.0625,0 h 0.59375 z m 0.90625,0 h 3.53125 z m 3.90625,0 h 1.84375 z m -21.15625,2 h 3.875 z m 4.21875,0 h 1.75 z m 2.0625,0 h 2.75 z m 3.0625,0 h 2.96875 z m 3.3125,0 h 1.1875 z m 1.5,0 h 0.65625 z m 1,0 h 1.84375 z"/></g><rect id="rect5537" width="44" height="7" x="11" y="33" fill="url(#linearGradient3097)" fill-opacity="1" stroke="none" opacity=".8"/><rect id="rect3099" width="44" height="1" x="11" y="36" fill="#fff" fill-opacity="1" stroke="none" opacity=".8"/><rect id="rect4935" width="43" height="51" x="11.5" y="4.5" fill="none" stroke="#000" stroke-opacity="1" stroke-width="1" opacity=".5" rx="1" ry="1"/></svg>