<svg xmlns="http://www.w3.org/2000/svg" xmlns:svg="http://www.w3.org/2000/svg" xmlns:xlink="http://www.w3.org/1999/xlink" id="svg4117" width="64" height="64" version="1.1"><defs id="defs4119"><linearGradient id="linearGradient899"><stop id="stop891" offset="0" stop-color="#fff" stop-opacity="1"/><stop id="stop893" offset=".03" stop-color="#fff" stop-opacity=".235"/><stop id="stop895" offset=".969" stop-color="#fff" stop-opacity=".157"/><stop id="stop897" offset="1" stop-color="#fff" stop-opacity=".392"/></linearGradient><linearGradient id="linearGradient913"><stop id="stop909" offset="0" stop-color="#64baff" stop-opacity="1"/><stop id="stop911" offset="1" stop-color="#3689e6" stop-opacity="1"/></linearGradient><linearGradient id="linearGradient3688-166-749"><stop id="stop2883" offset="0" stop-color="#181818" stop-opacity="1"/><stop id="stop2885" offset="1" stop-color="#181818" stop-opacity="0"/></linearGradient><linearGradient id="linearGradient3702-501-757"><stop id="stop2895" offset="0" stop-color="#181818" stop-opacity="0"/><stop id="stop2897" offset=".5" stop-color="#181818" stop-opacity="1"/><stop id="stop2899" offset="1" stop-color="#181818" stop-opacity="0"/></linearGradient><filter id="filter3831" color-interpolation-filters="sRGB"><feGaussianBlur id="feGaussianBlur3833" stdDeviation=".637"/></filter><clipPath id="clipPath3823"><path id="path3825" fill="#fff" fill-opacity="1" stroke="none" d="M 108.8125,58 C 107.25437,58 106,59.254375 106,60.8125 v 24.375 C 106,86.745625 107.25437,88 108.8125,88 h 24.375 C 134.74562,88 136,86.745625 136,85.1875 V 60.8125 C 136,59.254375 134.74562,58 133.1875,58 Z M 116,62.5 h 10 v 8.75 h 5 L 121,85 111,71.25 h 5 z"/></clipPath><linearGradient id="linearGradient3812" x1="65.263" x2="65.263" y1="64.205" y2="50.069" gradientTransform="matrix(0.625,0,0,0.625,78.5,32.25)" gradientUnits="userSpaceOnUse" xlink:href="#linearGradient5010"/><filter id="filter3806" color-interpolation-filters="sRGB"><feGaussianBlur id="feGaussianBlur3808" stdDeviation="1.2"/></filter><linearGradient id="linearGradient3788" x1="70" x2="70" y1="54" y2="75.095" gradientTransform="translate(0,4)" gradientUnits="userSpaceOnUse" xlink:href="#linearGradient3737"/><linearGradient id="linearGradient3773" x1="56" x2="88" y1="72" y2="72" gradientTransform="matrix(0.9375,0,0,0.9375,-140.5,3.5)" gradientUnits="userSpaceOnUse" xlink:href="#linearGradient3778"/><linearGradient id="linearGradient3832" x1="65.263" x2="65.263" y1="64.205" y2="50.069" gradientTransform="matrix(0.625,0,0,0.625,28.5,31.25)" gradientUnits="userSpaceOnUse" xlink:href="#linearGradient3737"/><filter id="filter3174" color-interpolation-filters="sRGB"><feGaussianBlur id="feGaussianBlur3176" stdDeviation="1.71"/></filter><linearGradient id="linearGradient3737"><stop id="stop3739" offset="0" stop-color="#fff" stop-opacity="1"/><stop id="stop3741" offset="1" stop-color="#fff" stop-opacity="0"/></linearGradient><linearGradient id="ButtonShadow" x1="45.448" x2="45.448" y1="92.54" y2="7.017" gradientTransform="scale(1.0058652,0.994169)" gradientUnits="userSpaceOnUse"><stop id="stop3750" offset="0" stop-color="#000" stop-opacity="1"/><stop id="stop3752" offset="1" stop-color="#000" stop-opacity=".588"/></linearGradient><linearGradient id="linearGradient5010"><stop id="stop5012" offset="0" stop-color="#000" stop-opacity="1"/><stop id="stop5014" offset="1" stop-color="#000" stop-opacity="0"/></linearGradient><linearGradient id="linearGradient3778"><stop id="stop3780" offset="0" stop-color="#499119" stop-opacity="1"/><stop id="stop3782" offset="1" stop-color="#8fd625" stop-opacity="1"/></linearGradient><linearGradient id="linearGradient3431" x1="24" x2="24" y1="6.061" y2="41.939" gradientTransform="matrix(0.89189191,0,0,0.89189191,18.594597,3.5946034)" gradientUnits="userSpaceOnUse" xlink:href="#linearGradient899"/><linearGradient id="linearGradient915" x1="35.393" x2="35.393" y1="5.265" y2="31.924" gradientTransform="matrix(1.2962963,0,0,1.2962963,1.1111111,0.4125788)" gradientUnits="userSpaceOnUse" xlink:href="#linearGradient913"/><linearGradient id="linearGradient3431-5" x1="24" x2="24" y1="6.061" y2="41.939" gradientTransform="matrix(0.89189191,0,0,0.89189191,2.594601,20.594604)" gradientUnits="userSpaceOnUse" xlink:href="#linearGradient899"/><radialGradient id="radialGradient2873-966-168-2" cx="4.993" cy="43.5" r="2.5" fx="4.993" fy="43.5" gradientTransform="matrix(1.73054,0,0,1.4,26.580649,-17.4)" gradientUnits="userSpaceOnUse" xlink:href="#linearGradient3688-166-749"/><radialGradient id="radialGradient2875-742-326-5" cx="4.993" cy="43.5" r="2.5" fx="4.993" fy="43.5" gradientTransform="matrix(1.73054,0,0,1.4,-17.964792,-104.4)" gradientUnits="userSpaceOnUse" xlink:href="#linearGradient3688-166-749"/><linearGradient id="linearGradient2877-634-617-2" x1="25.058" x2="25.058" y1="47.028" y2="39.999" gradientTransform="matrix(0.92532431,0,0,1,0.06493703,0)" gradientUnits="userSpaceOnUse" xlink:href="#linearGradient3702-501-757"/><filter id="filter3831-3" color-interpolation-filters="sRGB"><feGaussianBlur id="feGaussianBlur3833-6" stdDeviation=".637"/></filter><clipPath id="clipPath3823-1"><path id="path3825-2" fill="#fff" fill-opacity="1" stroke="none" d="M 108.8125,58 C 107.25437,58 106,59.254375 106,60.8125 l 0,24.375 C 106,86.745625 107.25437,88 108.8125,88 l 24.375,0 C 134.74562,88 136,86.745625 136,85.1875 l 0,-24.375 C 136,59.254375 134.74562,58 133.1875,58 l -24.375,0 z m 7.1875,4.5 10,0 0,8.75 5,0 -10,13.75 -10,-13.75 5,0 0,-8.75 z"/></clipPath><filter id="filter3806-9" color-interpolation-filters="sRGB"><feGaussianBlur id="feGaussianBlur3808-3" stdDeviation="1.2"/></filter><filter id="filter3174-1" color-interpolation-filters="sRGB"><feGaussianBlur id="feGaussianBlur3176-9" stdDeviation="1.71"/></filter><linearGradient id="linearGradient909"><stop id="stop905" offset="0" stop-color="#fafafa" stop-opacity="1"/><stop id="stop907" offset="1" stop-color="#d4d4d4" stop-opacity="1"/></linearGradient><linearGradient id="linearGradient903" x1="15.667" x2="15.667" y1="66.778" y2="93.239" gradientTransform="matrix(1.2270389,0,0,1.2702706,3.8045978,-59.925095)" gradientUnits="userSpaceOnUse" xlink:href="#linearGradient909"/><linearGradient id="linearGradient1156" x1="45.448" x2="45.448" y1="92.54" y2="7.017" gradientTransform="scale(1.0058652,0.994169)" gradientUnits="userSpaceOnUse" xlink:href="#ButtonShadow"/><linearGradient id="linearGradient1158" x1="56" x2="88" y1="72" y2="72" gradientTransform="matrix(0.9375,0,0,0.9375,-140.5,3.5)" gradientUnits="userSpaceOnUse" xlink:href="#linearGradient3778"/><linearGradient id="linearGradient1160" x1="70" x2="70" y1="54" y2="75.095" gradientTransform="translate(0,4)" gradientUnits="userSpaceOnUse" xlink:href="#linearGradient3737"/><linearGradient id="linearGradient1162" x1="65.263" x2="65.263" y1="64.205" y2="50.069" gradientTransform="matrix(0.625,0,0,0.625,78.5,32.25)" gradientUnits="userSpaceOnUse" xlink:href="#linearGradient5010"/><linearGradient id="linearGradient1164" x1="65.263" x2="65.263" y1="64.205" y2="50.069" gradientTransform="matrix(0.625,0,0,0.625,28.5,31.25)" gradientUnits="userSpaceOnUse" xlink:href="#linearGradient3737"/></defs><metadata id="metadata4122"/><g id="g3712" opacity=".4" transform="matrix(1.1578952,0,0,0.57142859,-1.789476,34.142857)"><rect id="rect2801-6" width="4.318" height="7" x="35.227" y="40" fill="url(#radialGradient2873-966-168-2)" fill-opacity="1" stroke="none" stroke-width="1"/><rect id="rect3696-3" width="4.318" height="7" x="-9.318" y="-47" fill="url(#radialGradient2875-742-326-5)" fill-opacity="1" stroke="none" stroke-width="1" transform="scale(-1)"/><rect id="rect3700-2" width="25.909" height="7" x="9.318" y="40" fill="url(#linearGradient2877-634-617-2)" fill-opacity="1" stroke="none" stroke-width="1"/></g><rect stroke-miterlimit="4" style="marker:none" id="rect3423-9" width="34" height="34" x="7" y="25" fill="url(#linearGradient903)" fill-opacity="1" fill-rule="nonzero" stroke="none" stroke-dasharray="none" stroke-dashoffset="0" stroke-linecap="butt" stroke-linejoin="miter" stroke-opacity="1" stroke-width="1" color="#000" display="inline" enable-background="accumulate" opacity="1" overflow="visible" rx="1.846" ry="1.846" vector-effect="none" visibility="visible"/><path font-size="25.742" style="line-height:1.25;-inkscape-font-specification:'Redacted Script'" id="text1266" fill="#7e8087" fill-opacity="1" stroke="none" stroke-width="1" d="M 21.035156 31.136719 C 21.060898 31.445618 21.010117 31.909698 20.984375 32.373047 C 20.932892 32.939362 20.854569 33.608962 20.777344 34.355469 C 20.185287 34.38121 19.619401 34.380859 19.027344 34.380859 C 17.920455 34.380859 15.680253 34.199371 14.779297 34.044922 L 14.832031 35.976562 C 15.887437 36.053787 17.895064 36.15625 19.001953 36.15625 C 19.516785 36.15625 20.031692 36.156601 20.572266 36.130859 C 20.469299 37.340714 20.340546 38.626983 20.289062 39.914062 C 16.736722 41.561525 13.853516 44.935193 13.853516 48.255859 C 13.853516 50.443895 15.19168 51.498047 16.890625 51.498047 C 18.306413 51.498047 19.85179 50.931504 21.267578 50.082031 C 21.396286 50.596863 21.523285 51.08583 21.677734 51.523438 L 23.53125 50.958984 C 23.325317 50.315444 23.119995 49.619553 22.914062 48.873047 C 24.684787 47.373139 26.381157 45.205753 27.744141 42.5 L 25.785156 42.5 C 24.832677 44.253649 23.68335 45.655838 22.451172 46.814453 C 22.193756 45.32144 22.013672 43.750978 22.013672 42.103516 C 22.013672 41.743133 22.013321 41.407257 22.039062 41.046875 C 22.191032 40.990712 22.361564 40.940478 22.523438 40.886719 C 22.513742 40.809769 22.5 40.73396 22.5 40.654297 L 22.5 39.142578 C 22.363588 39.177824 22.224328 39.20767 22.089844 39.246094 C 22.167069 38.164947 22.244339 37.084 22.373047 36.080078 C 22.414698 36.07803 22.458251 36.074386 22.5 36.072266 L 22.5 31.171875 L 21.035156 31.136719 z M 20.210938 41.845703 L 20.210938 42.308594 C 20.210938 44.239214 20.467743 46.32469 20.828125 48.152344 C 19.515303 49.079041 18.281266 49.515625 17.277344 49.515625 C 16.299163 49.515625 15.808594 48.975327 15.808594 47.919922 C 15.808594 45.809111 17.714002 43.261491 20.210938 41.845703 z M 31.587891 42.5 C 32.087776 43.214341 32.361328 44.037304 32.361328 44.908203 C 32.361328 48.254611 29.477589 50.649582 24.818359 51.138672 L 25.925781 52.863281 C 31.897832 51.910842 34.34375 48.718509 34.34375 45.011719 C 34.34375 44.113349 34.132157 43.271383 33.767578 42.5 L 31.587891 42.5 z" font-family="Redacted Script" font-stretch="normal" font-style="normal" font-variant="normal" font-weight="normal" letter-spacing="0" word-spacing="0"/><rect id="rect3425-3" width="33" height="33" x="7.5" y="25.5" fill="none" stroke="url(#linearGradient3431-5)" stroke-dasharray="none" stroke-dashoffset="0" stroke-linecap="round" stroke-linejoin="round" stroke-miterlimit="4" stroke-opacity="1" stroke-width="1" opacity="1" rx=".901" ry=".901"/><g id="layer2" display="none" transform="translate(-135.85714,-15.05041)"><path id="rect3745" fill="url(#ButtonShadow)" fill-opacity="1" fill-rule="nonzero" stroke="none" d="M 11,7 48,5 85,7 c 3.324,0 6,2.676 6,6 v 73 c 0,3.324 -2.676,6 -6,6 H 11 C 7.676,92 5,89.324 5,86 V 13 C 5,9.676 7.676,7 11,7 Z" filter="url(#filter3174)" opacity=".9"/></g><g id="layer4" display="none" transform="translate(-135.85714,-15.05041)"><rect id="rect3790" width="30" height="30" x="-86" y="56" fill="#000" fill-opacity="1" stroke="none" filter="url(#filter3806)" opacity=".6" rx="2.813" ry="2.813" transform="rotate(-90,2,2)"/><rect id="rect2993" width="30" height="30" x="-88" y="56" fill="url(#linearGradient3773)" fill-opacity="1" stroke="none" rx="2.813" ry="2.813" transform="rotate(-90)"/><path id="rect3775" fill="url(#linearGradient3788)" fill-opacity="1" stroke="none" d="M 58.8125,58 C 57.254375,58 56,59.254375 56,60.8125 v 24.375 c 0,0.873066 0.410816,1.641163 1.03125,2.15625 C 57.02841,87.289908 57,87.242129 57,87.1875 V 62.8125 C 57,61.254375 58.17075,60 59.625,60 h 22.75 C 83.82925,60 85,61.254375 85,62.8125 v 24.375 c 0,0.05463 -0.02841,0.102408 -0.03125,0.15625 C 85.589184,86.828663 86,86.060566 86,85.1875 V 60.8125 C 86,59.254375 84.745625,58 83.1875,58 Z" opacity=".5"/><path id="path3810" fill="url(#linearGradient3812)" fill-opacity="1" fill-rule="nonzero" stroke="none" d="m 116,63.5 v 8.75 h -5 L 121,86 131,72.25 h -5 V 63.5 Z" clip-path="url(#clipPath3823)" display="inline" filter="url(#filter3831)" opacity=".6" transform="translate(-50)"/><path id="path4278" fill="url(#linearGradient3832)" fill-opacity="1" fill-rule="nonzero" stroke="none" d="m 66,62.5 v 8.75 H 61 L 71,85 81,71.25 H 76 V 62.5 Z" display="inline"/></g><g id="layer2-6" display="none" transform="translate(-69.962616,-22.619606)"><path id="rect3745-1" fill="url(#linearGradient1156)" fill-opacity="1" fill-rule="nonzero" stroke="none" d="M 11,7 48,5 85,7 c 3.324,0 6,2.676 6,6 v 73 c 0,3.324 -2.676,6 -6,6 H 11 C 7.676,92 5,89.324 5,86 V 13 C 5,9.676 7.676,7 11,7 Z" filter="url(#filter3174-1)" opacity=".9"/></g><g id="layer4-5" display="none" transform="translate(-69.962616,-22.619606)"><rect id="rect3790-5" width="30" height="30" x="-86" y="56" fill="#000" fill-opacity="1" stroke="none" filter="url(#filter3806-9)" opacity=".6" rx="2.813" ry="2.813" transform="rotate(-90,2,2)"/><rect id="rect2993-4" width="30" height="30" x="-88" y="56" fill="url(#linearGradient1158)" fill-opacity="1" stroke="none" rx="2.813" ry="2.813" transform="rotate(-90)"/><path id="rect3775-7" fill="url(#linearGradient1160)" fill-opacity="1" stroke="none" d="M 58.8125,58 C 57.254375,58 56,59.254375 56,60.8125 v 24.375 c 0,0.873066 0.410816,1.641163 1.03125,2.15625 C 57.02841,87.289908 57,87.242129 57,87.1875 V 62.8125 C 57,61.254375 58.17075,60 59.625,60 h 22.75 C 83.82925,60 85,61.254375 85,62.8125 v 24.375 c 0,0.05463 -0.02841,0.102408 -0.03125,0.15625 C 85.589184,86.828663 86,86.060566 86,85.1875 V 60.8125 C 86,59.254375 84.745625,58 83.1875,58 Z" opacity=".5"/><path id="path3810-6" fill="url(#linearGradient1162)" fill-opacity="1" fill-rule="nonzero" stroke="none" d="m 116,63.5 v 8.75 h -5 L 121,86 131,72.25 h -5 V 63.5 Z" clip-path="url(#clipPath3823-1)" display="inline" filter="url(#filter3831-3)" opacity=".6" transform="translate(-50)"/><path id="path4278-5" fill="url(#linearGradient1164)" fill-opacity="1" fill-rule="nonzero" stroke="none" d="m 66,62.5 v 8.75 H 61 L 71,85 81,71.25 H 76 V 62.5 Z" display="inline"/></g><rect stroke-miterlimit="4" style="marker:none;font-variant-east_asian:normal" id="rect3423-9-2" width="35" height="35" x="6.5" y="24.5" fill="none" fill-opacity="1" fill-rule="nonzero" stroke="#000" stroke-dasharray="none" stroke-dashoffset="0" stroke-linecap="round" stroke-linejoin="round" stroke-opacity="1" stroke-width="1" color="#000" display="inline" enable-background="accumulate" opacity=".3" overflow="visible" rx="1.846" ry="1.846" vector-effect="none" visibility="visible"/><rect stroke-linejoin="round" style="marker:none" id="rect4287" width="35" height="35" x="22.5" y="8.5" fill="#000" fill-opacity="1" fill-rule="nonzero" stroke="#000" stroke-dasharray="none" stroke-dashoffset="0" stroke-linecap="round" stroke-miterlimit="4" stroke-opacity="1" stroke-width="3" color="#000" display="inline" enable-background="accumulate" opacity=".05" overflow="visible" rx="1.846" ry="1.846" visibility="visible"/><rect stroke-linejoin="round" style="marker:none" id="rect4285" width="35" height="35" x="22.5" y="8.5" fill="#000" fill-opacity="1" fill-rule="nonzero" stroke="#000" stroke-dasharray="none" stroke-dashoffset="0" stroke-linecap="round" stroke-miterlimit="4" stroke-opacity="1" stroke-width="1" color="#000" display="inline" enable-background="accumulate" opacity=".15" overflow="visible" rx="1.846" ry="1.846" visibility="visible"/><rect id="rect3423" width="35" height="35" x="22.5" y="7.5" fill="url(#linearGradient915)" fill-opacity="1" fill-rule="nonzero" stroke="#002e99" stroke-dasharray="none" stroke-dashoffset="0" stroke-linecap="round" stroke-linejoin="round" stroke-miterlimit="4" stroke-opacity=".484" stroke-width="1" color="#000" display="inline" enable-background="accumulate" overflow="visible" rx="1.846" ry="1.846" visibility="visible" style="marker:none"/><rect id="rect3425" width="33" height="33" x="23.5" y="8.5" fill="none" stroke="url(#linearGradient3431)" stroke-dasharray="none" stroke-dashoffset="0" stroke-linecap="round" stroke-linejoin="round" stroke-miterlimit="4" stroke-opacity="1" stroke-width="1" opacity=".5" rx=".901" ry=".901"/><path id="text4533-6-7" fill="#002e99" fill-opacity="1" stroke="none" stroke-dasharray="none" stroke-dashoffset="0" stroke-linecap="butt" stroke-linejoin="miter" stroke-miterlimit="4" stroke-opacity="1" stroke-width="1" d="m 38.40625,16 a 1.0001,1.0001 0 0 0 -0.9375,0.650391 l -6.707031,18 A 1.0001,1.0001 0 0 0 31.699219,36 h 3.089843 a 1.0001,1.0001 0 0 0 0.94336,-0.666016 L 37.267578,31 h 5.548828 l 1.421875,4.3125 A 1.0001,1.0001 0 0 0 45.1875,36 h 3.113281 a 1.0001,1.0001 0 0 0 0.9375,-1.349609 c -2.23569,-5.999996 -4.471333,-11.999996 -6.707031,-18 A 1.0001,1.0001 0 0 0 41.59375,16 Z M 40.017578,23.052734 41.394531,27 H 38.6875 Z" font-family="Open Sans" font-size="13.951" font-stretch="normal" font-style="normal" font-variant="normal" font-weight="600" letter-spacing="0" opacity=".05" text-anchor="start" vector-effect="none" word-spacing="0" writing-mode="lr-tb" style="line-height:125%;-inkscape-font-specification:'Open Sans Semi-Bold';text-align:start"/><path id="text4533-6" fill="#002e99" fill-opacity="1" stroke="none" stroke-dasharray="none" stroke-dashoffset="0" stroke-linecap="butt" stroke-linejoin="miter" stroke-miterlimit="4" stroke-opacity="1" stroke-width="1" d="M 45.186651,35 43.539422,30 H 36.56135 l -1.77252,5 h -3.089919 l 6.707084,-18 h 3.18801 c 2.235696,5.999999 4.471392,12 6.707084,18 z M 42.802382,28 40.000004,19.973062 37.296699,28 Z" font-family="Open Sans" font-size="13.951" font-stretch="normal" font-style="normal" font-variant="normal" font-weight="600" letter-spacing="0" opacity=".15" text-anchor="start" vector-effect="none" word-spacing="0" writing-mode="lr-tb" style="line-height:125%;-inkscape-font-specification:'Open Sans Semi-Bold';text-align:start;font-variant-east_asian:normal"/><path id="text4533" fill="#fff" fill-opacity="1" stroke="none" stroke-width="1" d="M 45.186651,34 43.539422,29 H 36.56135 l -1.77252,5 h -3.089919 l 6.707084,-18 h 3.18801 c 2.235696,5.999999 4.471392,12 6.707084,18 z M 42.802382,27 40.000004,18.973062 37.296699,27 Z" font-family="Open Sans" font-size="13.951" font-stretch="normal" font-style="normal" font-variant="normal" font-weight="600" letter-spacing="0" text-anchor="start" word-spacing="0" writing-mode="lr-tb" style="line-height:125%;-inkscape-font-specification:'Open Sans Semi-Bold';text-align:start"/></svg>