<svg xmlns="http://www.w3.org/2000/svg" xmlns:svg="http://www.w3.org/2000/svg" xmlns:xlink="http://www.w3.org/1999/xlink" id="svg2437" width="64" height="64" version="1.1"><defs id="defs2439"><linearGradient id="linearGradient1169"><stop id="stop1165" offset="0" stop-color="#555761" stop-opacity="1"/><stop id="stop1167" offset="1" stop-color="#abacae" stop-opacity="1"/></linearGradient><linearGradient id="linearGradient1139"><stop id="stop1131" offset="0" stop-color="#fff" stop-opacity="1"/><stop id="stop1133" offset=".225" stop-color="#fff" stop-opacity=".235"/><stop id="stop1135" offset=".747" stop-color="#fff" stop-opacity=".157"/><stop id="stop1137" offset="1" stop-color="#fff" stop-opacity=".392"/></linearGradient><linearGradient id="linearGradient1090"><stop id="stop1082" offset="0" stop-color="#fff" stop-opacity="1"/><stop id="stop1084" offset=".115" stop-color="#fff" stop-opacity=".235"/><stop id="stop1086" offset=".747" stop-color="#fff" stop-opacity=".157"/><stop id="stop1088" offset="1" stop-color="#fff" stop-opacity=".392"/></linearGradient><linearGradient id="linearGradient6019"><stop id="stop6021" offset="0" stop-color="#000" stop-opacity="1"/><stop id="stop6023" offset="1" stop-color="#000" stop-opacity="0"/></linearGradient><linearGradient id="linearGradient5958"><stop id="stop5960" offset="0" stop-color="#c17d11" stop-opacity="1"/><stop id="stop5962" offset="1" stop-color="#e9b96e" stop-opacity="1"/></linearGradient><linearGradient id="linearGradient5964" x1="35.359" x2="30.547" y1="12.344" y2="7.391" gradientTransform="matrix(1.3333333,0,0,1.3333333,0.20833347,0)" gradientUnits="userSpaceOnUse" xlink:href="#linearGradient5958"/><linearGradient id="linearGradient5994" x1="31.938" x2="33.119" y1="3.125" y2="18.373" gradientTransform="matrix(1.3333333,0,0,1.3333333,-2.6666666,0)" gradientUnits="userSpaceOnUse" xlink:href="#linearGradient1139"/><linearGradient id="linearGradient5972" x1="19.34" x2="25.052" y1="24.17" y2="44.243" gradientTransform="matrix(1.3333333,0,0,1.3333333,0.20833347,0)" gradientUnits="userSpaceOnUse" xlink:href="#linearGradient840"/><linearGradient id="linearGradient5999"><stop id="stop6001" offset="0" stop-color="#d48e15" stop-opacity="1"/><stop id="stop6003" offset="1" stop-color="#d48e15" stop-opacity=".201"/></linearGradient><linearGradient id="linearGradient6005" x1="27.355" x2="23.489" y1="36.218" y2="34.728" gradientTransform="matrix(1.3333333,0,0,1.3333333,0.20833347,0)" gradientUnits="userSpaceOnUse" xlink:href="#linearGradient5999"/><radialGradient id="radialGradient3300" cx="99.189" cy="185.297" r="62.769" fx="99.189" fy="185.297" gradientTransform="matrix(0.3823536,7.5555777e-8,-1.8372241e-8,0.1115198,-5.9254271,36.335849)" gradientUnits="userSpaceOnUse" xlink:href="#linearGradient6019"/><radialGradient id="radialGradient4192" cx="99.189" cy="185.297" r="62.769" fx="99.189" fy="185.297" gradientTransform="matrix(0.2549024,5.3967361e-8,-1.2248161e-8,0.07965545,6.7163816,44.240666)" gradientUnits="userSpaceOnUse" xlink:href="#linearGradient6019"/><linearGradient id="linearGradient840"><stop id="stop836" offset="0" stop-color="#ffe16b" stop-opacity="1"/><stop id="stop838" offset="1" stop-color="#f9c440" stop-opacity="1"/></linearGradient><linearGradient id="linearGradient3264-5" x1="71.711" x2="71.204" y1="15.093" y2="40.496" gradientTransform="matrix(1.4071344,0,0,1.4071344,-67.360242,1.3335014)" gradientUnits="userSpaceOnUse" xlink:href="#linearGradient1090"/><linearGradient id="linearGradient5980-761-9" x1="31.237" x2="21.591" y1="24.794" y2="20.619" gradientTransform="matrix(1.3024257,0,0,1.3333333,1.0421161,0)" gradientUnits="userSpaceOnUse" xlink:href="#linearGradient1169"/></defs><metadata id="metadata2442"/><g id="g4198" stroke-width=".841" transform="matrix(1.015625,0,0,1.3928555,-3.1249984,-27.520304)"><path id="path3818-0" fill="url(#radialGradient3300)" fill-opacity="1" stroke="none" stroke-width=".841" d="m 55.999998,57.0017 a 24,6.9985714 0 1 1 -47.9999991,0 24,6.9985714 0 1 1 47.9999991,0 z" opacity=".2"/><path id="path4190" fill="url(#radialGradient4192)" fill-opacity="1" stroke="none" stroke-width=".841" d="m 47.999998,59.0017 a 16,4.9988822 0 1 1 -31.999999,0 16,4.9988822 0 1 1 31.999999,0 z" opacity=".4"/></g><path id="path5371" fill="url(#linearGradient5964)" fill-opacity="1" fill-rule="evenodd" stroke="none" stroke-linecap="butt" stroke-linejoin="miter" stroke-opacity="1" stroke-width="1" d="M 48.999999,3.291667 C 38.062376,3.432534 36.470932,24.955034 33.333333,28.833333 l 5.333333,1.916666 C 42.17583,24.919937 59.67466,5.539338 50.083332,3.333333 49.710679,3.292043 49.352826,3.287123 48.999999,3.291663 Z m -1.375,2.7499995 c 0.258084,-0.024985 0.490648,0.00763 0.708333,0.125 0.870742,0.4694968 0.964874,1.9931694 0.208334,3.3749999 -0.75654,1.3818306 -2.087595,2.1361636 -2.958334,1.6666666 -0.870737,-0.469497 -0.964873,-1.9931694 -0.208333,-3.3749999 0.567405,-1.036373 1.475749,-1.7167121 2.25,-1.7916666 z"/><path id="path5371-5" fill="none" fill-opacity="1" fill-rule="evenodd" stroke="#522d00" stroke-linecap="butt" stroke-linejoin="miter" stroke-opacity="1" stroke-width="1" d="M 48.999999,3.2916674 C 38.062376,3.4325344 36.470932,24.955034 33.333333,28.833333 l 5.333333,1.916666 C 42.17583,24.919937 59.67466,5.5393384 50.083332,3.3333334 c -0.372653,-0.04129 -0.730506,-0.04621 -1.083333,-0.04167 z m -1.375,2.7499995 c 0.258084,-0.024985 0.490648,0.00763 0.708333,0.125 0.870742,0.4694968 0.964874,1.9931694 0.208334,3.3749999 -0.75654,1.3818302 -2.087595,2.1361632 -2.958334,1.6666662 -0.870737,-0.469497 -0.964873,-1.993169 -0.208333,-3.3749995 0.567405,-1.036373 1.475749,-1.7167121 2.25,-1.7916666 z" opacity=".5"/><path id="path5992" fill="none" stroke="url(#linearGradient5994)" stroke-linecap="butt" stroke-linejoin="miter" stroke-opacity="1" stroke-width="1" d="m 46.121094,4.3164062 c -2.393187,0.030818 -4.212929,1.2123719 -5.81836,3.1523438 -1.611088,1.9468078 -2.909884,4.663174 -3.96875,7.550781 -1.058102,2.885525 -1.905118,5.933951 -2.671875,8.517578 -0.530967,1.789127 -1.019511,3.186488 -1.607421,4.414063 A 0.30904379,0.30904379 0 0 0 32.230469,28.375 l 2.916015,1.041016 a 0.30904379,0.30904379 0 0 0 0.363282,-0.123047 c 2.133976,-3.290264 6.704372,-8.765481 10.044922,-14.171875 1.778667,-2.878622 3.072234,-5.595311 3.375,-7.5332034 C 49.080055,6.6254392 49.008936,5.9208572 48.726562,5.4296875 48.463515,4.9721328 47.962421,4.5940738 47.033203,4.3652344 a 0.30904379,0.30904379 0 0 0 -0.04492,-0.00781 C 46.718064,4.331974 46.436026,4.3123496 46.121094,4.3164062 Z" opacity=".5" transform="translate(2.8750001)"/><path id="path5367" fill="url(#linearGradient5972)" fill-opacity="1" fill-rule="evenodd" stroke="none" stroke-dasharray="none" stroke-linecap="butt" stroke-linejoin="miter" stroke-miterlimit="20" stroke-opacity="1" stroke-width="1" d="m 30.208333,22 c 0.946008,2.670675 -0.721851,4.983774 -1.333334,6.666666 -6.922089,2.060899 -11.715734,12.938301 -18.843442,18.604779 0.890384,0.929864 1.936301,1.925571 2.843443,2.728554 l 5.416666,-4.708333 -4.090074,6.032865 c 2.945649,2.387977 6.006741,4.008801 8.006741,4.675468 l 3.666666,-4.875 -2.333333,5.541666 c 1.935992,0.785176 6.647048,1.976034 9.333333,2 l 2.671854,-4.536662 -0.684226,4.619996 c 1.106084,0.211145 3.250887,0.498954 4.679039,0.541666 4.482914,-7.333333 5.333333,-19.291666 2.666666,-24.624999 -0.666666,-2.666667 2,-6 4,-7.333333 C 42.874999,24.666666 35.267547,21.595031 30.208333,22 Z"/><path id="path5367-6" fill="none" fill-opacity="1" fill-rule="evenodd" stroke="#ad5f00" stroke-dasharray="none" stroke-linecap="butt" stroke-linejoin="miter" stroke-miterlimit="20" stroke-opacity="1" stroke-width="1" d="m 30.208333,22 c 0.946008,2.670675 -0.721851,4.983774 -1.333334,6.666666 -6.922089,2.060899 -11.715734,12.938301 -18.843442,18.604779 0.890384,0.929864 1.936301,1.925571 2.843443,2.728554 l 5.416666,-4.708333 -4.090074,6.032865 c 2.945649,2.387977 6.006741,4.008801 8.006741,4.675468 l 3.666666,-4.875 -2.333333,5.541666 c 1.935992,0.785176 6.647048,1.976034 9.333333,2 l 2.671854,-4.536662 -0.684226,4.619996 c 1.106084,0.211145 3.250887,0.498954 4.679039,0.541666 4.482914,-7.333333 5.333333,-19.291666 2.666666,-24.624999 -0.666666,-2.666667 2,-6 4,-7.333333 C 42.874999,24.666666 35.267547,21.595031 30.208333,22 Z" opacity=".5"/><path id="path5975" fill="#d48e15" fill-rule="evenodd" stroke="none" stroke-width="1" d="M 14.875,51.333332 C 21.296993,44.652139 20.828364,41.728098 28.363155,35.963028 24.386566,42.400936 23.742037,45.749772 18.875,53.999999 Z" opacity=".267"/><path id="path5979" fill="#d48e15" fill-rule="evenodd" stroke="none" stroke-width="1" d="M 24.408077,56.269935 30.202779,43.149739 C 32.42213,39.171436 34.015675,35.18967 36.24141,32.019935 34.105471,39.243984 29.72049,48.182325 26.199743,56.853268 Z" opacity=".416"/><path id="path6014" fill="none" fill-opacity="1" stroke="url(#linearGradient3264-5)" stroke-dasharray="none" stroke-dashoffset="0" stroke-linecap="square" stroke-linejoin="miter" stroke-miterlimit="4" stroke-opacity="1" stroke-width="1" d="m 28.804688,22.998047 a 0.33627067,0.33627067 0 0 0 -0.306641,0.353515 c 0.1225,2.425129 -1.175074,4.473691 -1.605469,5.658204 -0.102655,0.280749 -0.330671,0.495581 -0.617187,0.583984 a 0.33627067,0.33627067 0 0 0 -0.02734,0.01172 c -3.724315,1.526116 -6.308963,4.441063 -8.845703,7.689453 -2.536741,3.24839 -5.035986,6.839932 -8.5703128,9.8125 A 0.33627067,0.33627067 0 0 0 8.8125,47.603516 c 0.2969333,0.294299 0.6857253,0.584543 0.9316406,0.816406 a 0.33627067,0.33627067 0 0 0 0.4472654,0.01172 l 10.191406,-8.625 -7.43164,11.085937 a 0.33627067,0.33627067 0 0 0 0.06836,0.449219 c 1.719843,1.391565 3.684274,2.549939 5.722657,3.369141 a 0.33627067,0.33627067 0 0 0 0.394531,-0.111329 l 7.751953,-10.304687 -4.707031,11.460937 a 0.33627067,0.33627067 0 0 0 0.205078,0.447266 c 2.150721,0.708552 4.179566,1.113283 6.652343,1.462891 A 0.33627067,0.33627067 0 0 0 29.375,57.507812 l 5.228516,-8.703124 -1.519532,8.763671 A 0.33627067,0.33627067 0 0 0 33.375,57.958984 l 2.5,0.302735 a 0.33627067,0.33627067 0 0 0 0.333984,-0.167969 c 1.94625,-3.443107 2.881514,-7.657456 3.416016,-11.841797 0.572339,-4.480544 0.01662,-8.802533 -1.158203,-11.152344 l 0.0059,0.01172 c -0.02556,-0.05667 -0.04563,-0.11877 -0.06055,-0.185547 a 0.33627067,0.33627067 0 0 0 -0.002,-0.0078 c -0.430947,-1.723788 0.20905,-3.440731 1.125,-4.90625 0.55374,-0.885984 1.207656,-1.675724 1.900391,-2.337891 a 0.33627067,0.33627067 0 0 0 -0.04492,-0.521484 c -1.591409,-1.063253 -3.505554,-1.978242 -5.902344,-2.84375 -2.382614,-0.860389 -4.726548,-1.284967 -6.65039,-1.310547 a 0.33627067,0.33627067 0 0 0 -0.0332,0 z" opacity=".7" transform="translate(2.8750001)" vector-effect="none" style="marker:none"/><path id="path5977" fill="url(#linearGradient6005)" fill-opacity="1" fill-rule="evenodd" stroke="none" stroke-width="1" d="m 28.166666,57.333332 c 2.903421,-7.669161 8.527888,-13.425257 10.689217,-21.247216 0.06872,4.882764 0.33296,13.604968 -2.522551,22.288883 -0.426354,0.0024 -0.231902,-0.147746 -0.626506,-0.158071 l 1.067722,-7.632689 -4.375314,7.405845 c -2.921077,-0.208432 -1.726148,0.04346 -4.232568,-0.656752 z" opacity=".247"/><path id="path5995" fill="#d48e15" fill-rule="evenodd" stroke="none" stroke-width="1" d="m 30.879089,30.147262 c -1.669327,0.821839 -2.749612,2.036371 -3.977475,3.152517 1.635316,-0.944857 3.171981,-1.931992 5.332764,-2.65165 z" opacity=".482"/><path id="path5997" fill="#d48e15" fill-rule="evenodd" stroke="none" stroke-width="1" d="m 33.553263,30.748065 -1.355286,2.65165 3.974284,-2.117666 z" opacity=".482"/><path id="path6007" fill="#d48e15" fill-rule="evenodd" stroke="none" stroke-width="1" d="m 33.461406,23.948531 -1.193591,2.27603 2.087636,0.669445 z" opacity=".482"/><path id="path6009" fill="#d48e15" fill-rule="evenodd" stroke="none" stroke-width="1" d="m 42.772671,26.513826 -3.280331,2.447263 2.087636,0.669445 z" opacity=".482"/><path id="path6011" fill="#d48e15" fill-rule="evenodd" stroke="none" stroke-width="1" d="m 37.558899,23.918087 -2.018548,3.366152 2.087636,0.669446 -0.06909,-4.035598 z" opacity=".482"/><path id="path6013" fill="#ad5f00" fill-opacity="1" fill-rule="evenodd" stroke="none" stroke-width="1" d="m 28.165301,29.366265 c -0.755707,-3.953979 12.443779,2.870537 14.715762,3.992491 -0.0087,1.438758 0,2.666667 -1.302425,2.666667 -3.423384,-1.857307 -8.713673,-4.806857 -13.413337,-6.659158 z" opacity=".3"/><path id="path5373-8" fill="url(#linearGradient5980-761-9)" fill-opacity="1" fill-rule="evenodd" stroke="none" stroke-linecap="butt" stroke-linejoin="round" stroke-opacity="1" stroke-width="1" d="m 27.741843,28.666666 c -0.651213,-1.333333 0,-2.666667 1.302427,-2.666667 5.32192,1.300556 9.7665,2.941643 14.326682,5.333334 0.651214,1.333333 0,2.666666 -1.302425,2.666666 -4.711924,-2.485893 -9.155614,-4.09975 -14.326684,-5.333333 z" opacity="1"/><path id="path5373" fill="none" fill-opacity="1" fill-rule="evenodd" stroke="#333" stroke-linecap="butt" stroke-linejoin="round" stroke-opacity="1" stroke-width="1" d="m 27.741843,28.666666 c -0.651213,-1.333333 0,-2.666667 1.302427,-2.666667 5.32192,1.300556 9.7665,2.941643 14.326682,5.333334 0.651214,1.333333 0,2.666666 -1.302425,2.666666 -4.711924,-2.485893 -9.155614,-4.09975 -14.326684,-5.333333 z" opacity=".5"/></svg>