<svg xmlns="http://www.w3.org/2000/svg" xmlns:svg="http://www.w3.org/2000/svg" xmlns:xlink="http://www.w3.org/1999/xlink" id="svg13986" width="64" height="64" version="1.1"><defs id="defs13988"><linearGradient id="linearGradient1093"><stop id="stop1089" offset="0" stop-color="#d4d4d4" stop-opacity="1"/><stop id="stop1091" offset="1" stop-color="#fafafa" stop-opacity="1"/></linearGradient><linearGradient id="linearGradient3924-2-2-5-8"><stop id="stop3926-9-4-9-6" offset="0" stop-color="#fff" stop-opacity="1"/><stop id="stop3928-9-8-6-5" offset=".042" stop-color="#fff" stop-opacity=".235"/><stop id="stop3930-3-5-1-7" offset=".965" stop-color="#fff" stop-opacity=".157"/><stop id="stop3932-8-0-4-8" offset="1" stop-color="#fff" stop-opacity=".392"/></linearGradient><radialGradient id="radialGradient3337-2-2" cx="4.993" cy="43.5" r="2.5" fx="4.993" fy="43.5" gradientTransform="matrix(2.003784,0,0,1.4,27.98813,-17.4)" gradientUnits="userSpaceOnUse" xlink:href="#linearGradient3688-166-749-4-0-3-8"/><linearGradient id="linearGradient3688-166-749-4-0-3-8"><stop id="stop2883-4-0-1-8" offset="0" stop-color="#181818" stop-opacity="1"/><stop id="stop2885-9-2-9-6" offset="1" stop-color="#181818" stop-opacity="0"/></linearGradient><radialGradient id="radialGradient3339-1-4" cx="4.993" cy="43.5" r="2.5" fx="4.993" fy="43.5" gradientTransform="matrix(2.003784,0,0,1.4,-20.01187,-104.4)" gradientUnits="userSpaceOnUse" xlink:href="#linearGradient3688-464-309-9-2-4-2"/><linearGradient id="linearGradient3688-464-309-9-2-4-2"><stop id="stop2889-7-9-6-9" offset="0" stop-color="#181818" stop-opacity="1"/><stop id="stop2891-6-6-1-7" offset="1" stop-color="#181818" stop-opacity="0"/></linearGradient><linearGradient id="linearGradient3702-501-757-8-4-1-1"><stop id="stop2895-8-9-9-1" offset="0" stop-color="#181818" stop-opacity="0"/><stop id="stop2897-7-8-7-7" offset=".5" stop-color="#181818" stop-opacity="1"/><stop id="stop2899-4-5-1-5" offset="1" stop-color="#181818" stop-opacity="0"/></linearGradient><linearGradient id="linearGradient13984" x1="25.058" x2="25.058" y1="47.028" y2="39.999" gradientUnits="userSpaceOnUse" xlink:href="#linearGradient3702-501-757-8-4-1-1"/><linearGradient id="linearGradient3647" x1="38.66" x2="38.66" y1="5.824" y2="41.828" gradientTransform="matrix(1.4324324,0,0,1.2972973,-2.378381,-60.63513)" gradientUnits="userSpaceOnUse" xlink:href="#linearGradient3924-2-2-5-8"/><linearGradient id="linearGradient1087" x1="23.689" x2="23.689" y1="-.058" y2="64.01" gradientUnits="userSpaceOnUse" xlink:href="#linearGradient1093"/></defs><metadata id="metadata13991"/><g id="g3712-8-2-4-4" opacity=".4" transform="matrix(1.5789502,0,0,0.7142857,-5.894751,27.928572)"><rect id="rect2801-5-5-7-9" width="5" height="7" x="38" y="40" fill="url(#radialGradient3337-2-2)" fill-opacity="1" stroke="none"/><rect id="rect3696-3-0-3-7" width="5" height="7" x="-10" y="-47" fill="url(#radialGradient3339-1-4)" fill-opacity="1" stroke="none" transform="scale(-1,-1)"/><rect id="rect3700-5-6-8-4" width="28" height="7" x="10" y="40" fill="url(#linearGradient13984)" fill-opacity="1" stroke="none"/></g><rect id="rect5505-21-3-8-9-1-1" width="55" height="55" x="4.5" y="4.5" fill="none" stroke="#555761" stroke-dasharray="none" stroke-dashoffset="0" stroke-linecap="butt" stroke-linejoin="miter" stroke-miterlimit="4" stroke-opacity="1" stroke-width="1" color="#000" display="inline" enable-background="accumulate" opacity=".5" overflow="visible" rx="3" ry="3" visibility="visible" style="marker:none"/><rect id="rect5505" width="54" height="54" x="5" y="5" fill="url(#linearGradient1087)" fill-opacity="1" fill-rule="nonzero" stroke="none" stroke-width="1.421" color="#000" display="inline" enable-background="accumulate" opacity="1" overflow="visible" rx="2.5" ry="2.5" visibility="visible" style="marker:none"/><g id="text4643-5-8-9-9-3-6-3-3" fill="#fff" fill-opacity="1" stroke="none" stroke-dasharray="none" stroke-dashoffset="0" stroke-linecap="butt" stroke-linejoin="miter" stroke-miterlimit="4" stroke-opacity="1" stroke-width=".972" display="inline" font-family="Open Sans" font-size="20.279" font-stretch="normal" font-style="normal" font-variant="normal" font-weight="normal" letter-spacing="0" opacity=".5" text-anchor="start" transform="matrix(1.4526335,0,0,1.4725099,-2.2216913,-5.7881927)" word-spacing="0" writing-mode="lr-tb" style="d:m 36.6380669999999995,19.99766400000000033 q 0,1.40608500000000003 -.43568800000000002,2.57452199999999998 -.43568800000000002,1.16843600000000003 -1.22784899999999997,1.81206700000000009 -.79215999999999998,.64363000000000004 -1.82196899999999995,.64363000000000004 -.851572,0 -1.43579100000000004,-.51490400000000003 -.58421800000000002,-.51490400000000003 -.69313999999999998,-1.316967 h -.07922 q -.39607999999999999,.86147499999999999 -1.13873099999999994,1.34667300000000001 -.73274799999999984,.48519800000000002 -1.742753,.48519800000000002 -1.48530099999999998,0 -2.3269709999999999,-1.0100039999999999 -.83176899999999998,-1.0199069999999999 -.83176899999999998,-2.76265999999999989 0,-2.02000899999999994 1.16843699999999995,-3.27756399999999992 1.16843699999999995,-1.26745700000000006 3.06962199999999985,-1.26745700000000006 .67333600000000005,0 1.52490900000000007,.12872600000000001 .851572,.118824 1.53481099999999993,.33666800000000002 l -.24755099999999999,4.65394299999999994 v .21784400000000001 q 0,1.76255800000000007 1.316967,1.76255800000000007 .90108299999999997,0 1.46549700000000005,-1.05951499999999998 .564415,-1.06941700000000006 .564415,-2.77256200000000019 0,-1.79226299999999994 -.73274899999999998,-3.13893600000000017 -.73274799999999984,-1.34667300000000001 -2.08932299999999982,-2.06951900000000011 -1.34667300000000001,-.73274799999999984 -3.09932799999999986,-.73274799999999984 -2.20814699999999986,0 -3.84197800000000012,.92088599999999998 -1.63383100000000003,.91098500000000004 -2.4953059999999998,2.61412999999999984 -.86147399999999985,1.69324300000000005 -.86147399999999985,3.92119399999999985 0,3.02011200000000013 1.59422299999999995,4.64404099999999964 1.59422200000000003,1.62392899999999996 4.59452999999999978,1.62392899999999996 2.0794220000000001,0 4.31727500000000042,-.85157300000000002 v 1.316967 Q 30.78598200000000062,29.05799999999999983 28.36989200000000011,29.05799999999999983 q -3.59442800000000018,0 -5.58473099999999967,-1.97049999999999992 -1.98040100000000008,-1.98040100000000008 -1.98040100000000008,-5.52531899999999965 0,-2.57452099999999984 1.05951400000000007,-4.58462899999999962 1.05951499999999998,-2.01010700000000009 3.02011200000000013,-3.10923000000000016 1.96059699999999992,-1.10902400000000001 4.49551099999999959,-1.10902400000000001 2.12893100000000013,0 3.78256600000000009,.90108200000000005 1.66353700000000004,.891181 2.56462000000000012,2.54481599999999997 .91098400000000002,1.64373300000000011 .91098400000000002,3.79246799999999995 z m -10.23867399999999961,1.29716300000000007 q 0,2.51510999999999996 1.93089099999999991,2.51510999999999996 2.04971600000000009,0 2.22795200000000015,-3.09932799999999986 l .138628,-2.58442399999999983 q -.71294500000000005,-.19803999999999999 -1.55461500000000008,-.19803999999999999 -1.28726100000000021,0 -2.02000899999999994,.89117999999999986 -.72284700000000002,.891181 -.72284700000000002,2.47550200000000009 z;line-height:125%;-inkscape-font-specification:'Open Sans';font-variation-settings:normal;text-align:start;marker:none"><path id="path4173-6" fill="#fff" fill-opacity="1" stroke="none" stroke-dasharray="none" stroke-dashoffset="0" stroke-linecap="butt" stroke-linejoin="miter" stroke-miterlimit="4" stroke-opacity="1" stroke-width=".972" d="m 36.638067,19.997664 q 0,1.406085 -0.435688,2.574522 -0.435688,1.168436 -1.227849,1.812067 -0.79216,0.64363 -1.821969,0.64363 -0.851572,0 -1.435791,-0.514904 -0.584218,-0.514904 -0.69314,-1.316967 h -0.07922 q -0.39608,0.861475 -1.138731,1.346673 -0.732748,0.485198 -1.742753,0.485198 -1.485301,0 -2.326971,-1.010004 -0.831769,-1.019907 -0.831769,-2.76266 0,-2.020009 1.168437,-3.277564 1.168437,-1.267457 3.069622,-1.267457 0.673336,0 1.524909,0.128726 0.851572,0.118824 1.534811,0.336668 l -0.247551,4.653943 v 0.217844 q 0,1.762558 1.316967,1.762558 0.901083,0 1.465497,-1.059515 0.564415,-1.069417 0.564415,-2.772562 0,-1.792263 -0.732749,-3.138936 -0.732748,-1.346673 -2.089323,-2.069519 -1.346673,-0.732748 -3.099328,-0.732748 -2.208147,0 -3.841978,0.920886 -1.633831,0.910985 -2.495306,2.61413 -0.861474,1.693243 -0.861474,3.921194 0,3.020112 1.594223,4.644041 1.594222,1.623929 4.59453,1.623929 2.079422,0 4.317275,-0.851573 v 1.316967 Q 30.785982,29.058 28.369892,29.058 q -3.594428,0 -5.584731,-1.9705 -1.980401,-1.980401 -1.980401,-5.525319 0,-2.574521 1.059514,-4.584629 1.059515,-2.010107 3.020112,-3.10923 1.960597,-1.109024 4.495511,-1.109024 2.128931,0 3.782566,0.901082 1.663537,0.891181 2.56462,2.544816 0.910984,1.643733 0.910984,3.792468 z m -10.238674,1.297163 q 0,2.51511 1.930891,2.51511 2.049716,0 2.227952,-3.099328 l 0.138628,-2.584424 q -0.712945,-0.19804 -1.554615,-0.19804 -1.287261,0 -2.020009,0.89118 -0.722847,0.891181 -0.722847,2.475502 z" vector-effect="none" style="font-variation-settings:normal;marker:none"/></g><g id="text4643-5-8-9-9-3-6-3" fill="#000" fill-opacity="1" stroke="none" stroke-width=".972" display="inline" font-family="Open Sans" font-size="20.279" font-stretch="normal" font-style="normal" font-variant="normal" font-weight="normal" letter-spacing="0" opacity=".7" text-anchor="start" transform="matrix(1.4526335,0,0,1.4725099,-2.2631509,-5.4757387)" word-spacing="0" writing-mode="lr-tb" style="line-height:125%;-inkscape-font-specification:'Open Sans';text-align:start"><path id="path4173" fill="#555761" stroke-width=".972" d="m 36.666613,19.10636 q 0,1.406085 -0.435689,2.574522 -0.435688,1.168436 -1.227848,1.812067 -0.792161,0.64363 -1.821969,0.64363 -0.851573,0 -1.435791,-0.514904 -0.584219,-0.514904 -0.693141,-1.316967 h -0.07922 q -0.39608,0.861475 -1.13873,1.346673 -0.732749,0.485198 -1.742754,0.485198 -1.4853,0 -2.326971,-1.010004 -0.831768,-1.019907 -0.831768,-2.76266 0,-2.020009 1.168436,-3.277564 1.168437,-1.267457 3.069622,-1.267457 0.673337,0 1.524909,0.128726 0.851573,0.118824 1.534811,0.336668 l -0.24755,4.653943 v 0.217844 q 0,1.762557 1.316967,1.762557 0.901082,0 1.465497,-1.059514 0.564414,-1.069417 0.564414,-2.772562 0,-1.792263 -0.732749,-3.138936 -0.732748,-1.346673 -2.089323,-2.069519 -1.346673,-0.732748 -3.099328,-0.732748 -2.208147,0 -3.841978,0.920886 -1.633831,0.910985 -2.495306,2.61413 -0.861474,1.693243 -0.861474,3.921194 0,3.020112 1.594223,4.644041 1.594223,1.623929 4.594531,1.623929 2.079421,0 4.317274,-0.851573 v 1.316967 q -1.901185,0.831769 -4.317274,0.831769 -3.594429,0 -5.584732,-1.9705 -1.980401,-1.980401 -1.980401,-5.525319 0,-2.574521 1.059515,-4.584629 1.059514,-2.010107 3.020112,-3.10923 1.960597,-1.109024 4.49551,-1.109024 2.128932,0 3.782567,0.901082 1.663537,0.891181 2.564619,2.544816 0.910985,1.643733 0.910985,3.792468 z m -10.238675,1.297163 q 0,2.515109 1.930892,2.515109 2.049715,0 2.227951,-3.099327 l 0.138628,-2.584424 q -0.712944,-0.19804 -1.554615,-0.19804 -1.287261,0 -2.020009,0.89118 -0.722847,0.891181 -0.722847,2.475502 z"/></g><path id="rect5505-94" fill="#000" fill-opacity="1" fill-rule="nonzero" stroke="none" stroke-width="1.421" d="M 5 51.5 L 5 56.5 C 5 57.885 6.115 59 7.5 59 L 56.5 59 C 57.885 59 59 57.885 59 56.5 L 59 51.5 C 59 52.885 57.885 54 56.5 54 L 7.5 54 C 6.115 54 5 52.885 5 51.5 z" color="#000" display="inline" enable-background="accumulate" opacity=".1" overflow="visible" visibility="visible" style="marker:none"/><rect id="rect6741-5-0-2-3" width="53" height="48" x="5.5" y="-53.5" fill="none" stroke="url(#linearGradient3647)" stroke-dasharray="none" stroke-dashoffset="0" stroke-linecap="round" stroke-linejoin="round" stroke-miterlimit="4" stroke-opacity="1" stroke-width="1" rx="2" ry="2" transform="scale(1,-1)"/></svg>