<svg xmlns="http://www.w3.org/2000/svg" xmlns:svg="http://www.w3.org/2000/svg" xmlns:xlink="http://www.w3.org/1999/xlink" id="svg3489" width="64" height="64" version="1.1"><defs id="defs3491"><linearGradient id="linearGradient4806"><stop id="stop4808" offset="0" stop-color="#fff" stop-opacity="1"/><stop id="stop4810" offset=".424" stop-color="#fff" stop-opacity=".235"/><stop id="stop4812" offset=".821" stop-color="#fff" stop-opacity=".157"/><stop id="stop4814" offset="1" stop-color="#fff" stop-opacity=".392"/></linearGradient><linearGradient id="linearGradient3820-7-2"><stop id="stop3822-2-6" offset="0" stop-color="#000" stop-opacity="1"/><stop id="stop3824-1-2" offset="1" stop-color="#000" stop-opacity="0"/></linearGradient><linearGradient id="linearGradient3293" x1="71.204" x2="71.204" y1="15.369" y2="40.496" gradientTransform="matrix(2.3268746,0,0,2.3268746,-135.94475,-32.842783)" gradientUnits="userSpaceOnUse" xlink:href="#linearGradient4806"/><radialGradient id="radialGradient3300" cx="99.189" cy="185.297" r="62.769" fx="99.189" fy="185.297" gradientTransform="matrix(0.3823536,7.5555777e-8,-1.8372241e-8,0.1115198,-5.9254271,36.335849)" gradientUnits="userSpaceOnUse" xlink:href="#linearGradient3820-7-2"/><radialGradient id="radialGradient4192" cx="99.189" cy="185.297" r="62.769" fx="99.189" fy="185.297" gradientTransform="matrix(0.2549024,5.3967361e-8,-1.2248161e-8,0.07965545,6.7163816,44.240666)" gradientUnits="userSpaceOnUse" xlink:href="#linearGradient3820-7-2"/><linearGradient id="linearGradient11527-6-5" x1="2035.165" x2="2035.165" y1="3208.074" y2="3241.997" gradientTransform="matrix(2.261075,0,0,1.6903709,-4577.9225,-5418.7019)" gradientUnits="userSpaceOnUse" xlink:href="#linearGradient947"/><linearGradient id="linearGradient947"><stop id="stop943" offset="0" stop-color="#64baff" stop-opacity="1"/><stop id="stop945" offset="1" stop-color="#3689e6" stop-opacity="1"/></linearGradient></defs><metadata id="metadata3494"/><g id="g4198"><path id="path3818-0" fill="url(#radialGradient3300)" fill-opacity="1" stroke="none" d="m 55.999998,57.0017 a 24,6.9985714 0 1 1 -47.9999991,0 24,6.9985714 0 1 1 47.9999991,0 z" opacity=".2"/><path id="path4190" fill="url(#radialGradient4192)" fill-opacity="1" stroke="none" d="m 47.999998,59.0017 a 16,4.9988822 0 1 1 -31.999999,0 16,4.9988822 0 1 1 31.999999,0 z" opacity=".4"/></g><path id="path2555-7-8-5-0-9" fill="url(#linearGradient11527-6-5)" fill-opacity="1" fill-rule="nonzero" stroke="none" stroke-width="1" d="M 32.000001,2.499998 C 15.722912,2.499998 2.5,15.722908 2.5,31.999997 2.5,48.277086 15.722912,61.499998 32.000001,61.499998 48.277088,61.499998 61.500027,48.277086 61.5,31.999997 61.5,15.722908 48.277088,2.499998 32.000001,2.499998 Z" color="#000" display="inline" enable-background="accumulate" opacity=".99" overflow="visible" visibility="visible" style="marker:none"/><path id="path2555-7-1" fill="none" fill-opacity="1" fill-rule="nonzero" stroke="#002e99" stroke-dasharray="none" stroke-dashoffset="0" stroke-linecap="round" stroke-linejoin="round" stroke-miterlimit="4" stroke-opacity="1" stroke-width="1" d="m 32,2.499999 c -16.277082,0 -29.5,13.222915 -29.5,29.499998 0,16.277083 13.222918,29.500005 29.5,29.5 16.27708,0 29.50001,-13.222917 29.5,-29.5 C 61.5,15.722914 48.27708,2.499999 32,2.499999 z" clip-rule="nonzero" color="#000" color-interpolation="sRGB" color-interpolation-filters="linearRGB" color-rendering="auto" display="inline" enable-background="accumulate" image-rendering="auto" opacity=".5" overflow="visible" shape-rendering="auto" text-rendering="auto" visibility="visible" style="marker:none;isolation:auto;mix-blend-mode:normal;solid-color:#000;solid-opacity:1;filter-blend-mode:normal;filter-gaussianBlur-deviation:0"/><path id="path3019" fill="none" stroke="url(#linearGradient3293)" stroke-dasharray="none" stroke-dashoffset="0" stroke-linecap="round" stroke-linejoin="round" stroke-miterlimit="4" stroke-opacity="1" stroke-width="1" d="m 60.50001,31.999999 c 0,15.740115 -12.7599,28.499999 -28.50002,28.499999 -15.740099,0 -28.499991,-12.759884 -28.499991,-28.499999 0,-15.740116 12.759892,-28.5000013 28.499991,-28.5000013 15.74012,0 28.50002,12.7598853 28.50002,28.5000013 z" color="#000" display="inline" enable-background="accumulate" opacity=".5" overflow="visible" visibility="visible" style="marker:none"/><path id="path4193" fill="#002e99" fill-opacity="1" fill-rule="evenodd" stroke="#000" stroke-dasharray="none" stroke-dashoffset="0" stroke-linecap="butt" stroke-linejoin="round" stroke-miterlimit="4" stroke-opacity="1" stroke-width="2" d="m 32,13 a 5,5 0 0 0 -5,5 5,5 0 0 0 5,5 5,5 0 0 0 5,-5 5,5 0 0 0 -5,-5 z M 16.023438,24 c -1.150165,-0.02945 -1.432113,1.587701 -0.339844,1.949219 L 27,29.720703 v 8.128906 l -3.955078,12.855469 c -0.35351,1.142078 1.232134,1.829644 1.824219,0.791016 L 32,39.017578 39.130859,51.496094 c 0.591401,1.044054 2.184221,0.351672 1.824219,-0.792969 L 37,37.996094 V 29.720703 L 48.316406,25.949219 C 49.466028,25.568567 49.076191,23.853973 47.875,24.007812 L 32,25.992188 16.125,24.007812 c -0.0337,-0.0043 -0.0676,-0.0069 -0.101562,-0.0078 z" clip-rule="nonzero" color="#000" color-interpolation="sRGB" color-interpolation-filters="linearRGB" color-rendering="auto" display="inline" enable-background="accumulate" image-rendering="auto" opacity=".05" overflow="visible" shape-rendering="auto" text-rendering="auto" visibility="visible" style="isolation:auto;mix-blend-mode:normal;solid-color:#000;solid-opacity:1"/><path id="path4191" fill="#002e99" fill-opacity="1" fill-rule="evenodd" stroke="none" stroke-dasharray="none" stroke-dashoffset="0" stroke-linecap="butt" stroke-linejoin="miter" stroke-miterlimit="4" stroke-opacity="1" stroke-width="2" d="m 32,13 a 5,5 0 0 0 -5,5 5,5 0 0 0 5,5 5,5 0 0 0 5,-5 5,5 0 0 0 -5,-5 z M 16.023438,24 c -1.150165,-0.02945 -1.432113,1.587701 -0.339844,1.949219 L 27,29.720703 v 8.128906 l -3.955078,12.855469 c -0.35351,1.142078 1.232134,1.829644 1.824219,0.791016 L 32,39.017578 39.130859,51.496094 c 0.591401,1.044054 2.184221,0.351672 1.824219,-0.792969 L 37,37.996094 V 29.720703 L 48.316406,25.949219 C 49.466028,25.568567 49.076191,23.853973 47.875,24.007812 L 32,25.992188 16.125,24.007812 c -0.0337,-0.0043 -0.0676,-0.0069 -0.101562,-0.0078 z" clip-rule="nonzero" color="#000" color-interpolation="sRGB" color-interpolation-filters="linearRGB" color-rendering="auto" display="inline" enable-background="accumulate" image-rendering="auto" opacity=".15" overflow="visible" shape-rendering="auto" text-rendering="auto" visibility="visible" style="isolation:auto;mix-blend-mode:normal;solid-color:#000;solid-opacity:1"/><path id="path4184" fill="#fff" fill-opacity="1" fill-rule="evenodd" stroke="none" stroke-dasharray="none" stroke-dashoffset="0" stroke-linecap="butt" stroke-linejoin="miter" stroke-miterlimit="4" stroke-opacity="1" stroke-width="2" d="m 32,12 a 5,5 0 0 0 -5,5 5,5 0 0 0 5,5 5,5 0 0 0 5,-5 5,5 0 0 0 -5,-5 z M 16.023438,23 c -1.150165,-0.02945 -1.432113,1.587701 -0.339844,1.949219 L 27,28.720703 v 8.128906 l -3.955078,12.855469 c -0.35351,1.142078 1.232134,1.829644 1.824219,0.791016 L 32,38.017578 39.130859,50.496094 c 0.591401,1.044054 2.184221,0.351672 1.824219,-0.792969 L 37,36.996094 V 28.720703 L 48.316406,24.949219 C 49.466028,24.568567 49.076191,22.853973 47.875,23.007812 L 32,24.992188 16.125,23.007812 c -0.0337,-0.0043 -0.0676,-0.0069 -0.101562,-0.0078 z" clip-rule="nonzero" color="#000" color-interpolation="sRGB" color-interpolation-filters="linearRGB" color-rendering="auto" display="inline" enable-background="accumulate" image-rendering="auto" opacity="1" overflow="visible" shape-rendering="auto" text-rendering="auto" visibility="visible" style="isolation:auto;mix-blend-mode:normal;solid-color:#000;solid-opacity:1"/></svg>