<svg xmlns="http://www.w3.org/2000/svg" xmlns:svg="http://www.w3.org/2000/svg" xmlns:xlink="http://www.w3.org/1999/xlink" id="svg2453" width="64" height="64" version="1.0" viewBox="0 0 64 64"><metadata id="metadata35"/><defs id="defs2455"><linearGradient id="linearGradient848"><stop id="stop844" offset="0" stop-color="#64baff" stop-opacity="1"/><stop id="stop846" offset="1" stop-color="#3689e6" stop-opacity="1"/></linearGradient><linearGradient id="linearGradient3462"><stop id="stop3464" offset="0" stop-color="#fff" stop-opacity="1"/><stop id="stop3466" offset=".021" stop-color="#fff" stop-opacity=".235"/><stop id="stop3468" offset=".979" stop-color="#fff" stop-opacity=".157"/><stop id="stop3470" offset="1" stop-color="#fff" stop-opacity=".392"/></linearGradient><linearGradient id="linearGradient5060-2"><stop id="stop5062-3" offset="0" stop-color="#000" stop-opacity="1"/><stop id="stop5064-1" offset="1" stop-color="#000" stop-opacity="0"/></linearGradient><linearGradient id="linearGradient5048-8"><stop id="stop5050-4" offset="0" stop-color="#000" stop-opacity="0"/><stop id="stop5056-5" offset=".5" stop-color="#000" stop-opacity="1"/><stop id="stop5052-1" offset="1" stop-color="#000" stop-opacity="0"/></linearGradient><radialGradient id="radialGradient3172" cx="605.714" cy="486.648" r="117.143" fx="605.714" fy="486.648" gradientTransform="matrix(0.03212956,0,0,0.02058823,40.136784,48.451416)" gradientUnits="userSpaceOnUse" xlink:href="#linearGradient5060-2"/><radialGradient id="radialGradient3175" cx="605.714" cy="486.648" r="117.143" fx="605.714" fy="486.648" gradientTransform="matrix(-0.03212956,0,0,0.02058823,23.863217,48.451416)" gradientUnits="userSpaceOnUse" xlink:href="#linearGradient5060-2"/><linearGradient id="linearGradient3178" x1="302.857" x2="302.857" y1="366.648" y2="609.505" gradientTransform="matrix(0.11390532,0,0,0.02058823,-9.1686406,48.451416)" gradientUnits="userSpaceOnUse" xlink:href="#linearGradient5048-8"/><linearGradient id="linearGradient3133" x1="40.29" x2="40.29" y1="5.824" y2="42.069" gradientTransform="matrix(1.5405405,0,0,1.3243243,-4.9729751,1.2874721)" gradientUnits="userSpaceOnUse" xlink:href="#linearGradient3462"/><linearGradient id="linearGradient850" x1="33.169" x2="33.169" y1="7.484" y2="58.424" gradientUnits="userSpaceOnUse" xlink:href="#linearGradient848"/></defs><rect id="rect2879-0" width="55" height="5" x="4.5" y="56" fill="url(#linearGradient3178)" fill-opacity="1" fill-rule="nonzero" stroke="none" stroke-width="1" display="inline" opacity=".3" overflow="visible" visibility="visible" style="marker:none"/><path id="path2881-4" fill="url(#radialGradient3175)" fill-opacity="1" fill-rule="nonzero" stroke="none" stroke-width="1" d="m 4.5,56.000216 c 0,0 0,4.9997 0,4.9997 -1.654593,0.01 -4,-1.1202 -4,-2.5002 0,-1.38 1.8464008,-2.4995 4,-2.4995 z" display="inline" opacity=".3" overflow="visible" visibility="visible" style="marker:none"/><path id="path2883-6" fill="url(#radialGradient3172)" fill-opacity="1" fill-rule="nonzero" stroke="none" stroke-width="1" d="m 59.5,56.000216 c 0,0 0,4.9997 0,4.9997 1.654592,0.01 4,-1.1202 4,-2.5002 0,-1.38 -1.846401,-2.4995 -4,-2.4995 z" display="inline" opacity=".3" overflow="visible" visibility="visible" style="marker:none"/><rect stroke-linejoin="round" style="marker:none;font-variant-east_asian:normal" id="rect5505-21-3-8-5-2" width="59" height="51" x="2.5" y="7.5" fill="url(#linearGradient850)" fill-opacity="1" fill-rule="nonzero" stroke="none" stroke-dasharray="none" stroke-dashoffset="0" stroke-linecap="round" stroke-miterlimit="4" stroke-opacity="1" stroke-width="1" color="#000" display="inline" enable-background="accumulate" opacity="1" overflow="visible" rx="2" ry="2" visibility="visible"/><rect id="rect6741-5-0-2-3" width="57" height="49" x="3.5" y="8.571" fill="none" stroke="url(#linearGradient3133)" stroke-dasharray="none" stroke-dashoffset="0" stroke-linecap="round" stroke-linejoin="round" stroke-miterlimit="4" stroke-opacity="1" stroke-width="1" opacity=".5" rx="1" ry="1"/><path id="path4306" fill="#fff" fill-opacity=".588" stroke="#fff" stroke-linecap="butt" stroke-linejoin="miter" stroke-opacity="1" stroke-width="1" d="m 10.543478,52.5 c -1.1320873,0 -2.0434782,0.892001 -2.0434782,2 v 4 H 55.499998 v -4 c 0,-1.107999 -0.91139,-2 -2.043476,-2 z" opacity=".7"/><rect clip-rule="nonzero" style="isolation:auto;mix-blend-mode:normal;solid-color:#000;solid-opacity:1;marker:none" id="rect5505-21-3-8-9-1-1" width="59" height="51" x="2.5" y="7.5" fill="#000" fill-opacity="0" fill-rule="nonzero" stroke="#002e99" stroke-dasharray="none" stroke-dashoffset="0" stroke-linecap="round" stroke-linejoin="round" stroke-miterlimit="4" stroke-opacity="1" stroke-width="1" color="#000" color-interpolation="sRGB" color-interpolation-filters="linearRGB" color-rendering="auto" display="inline" enable-background="accumulate" image-rendering="auto" opacity=".5" overflow="visible" rx="2" ry="2" shape-rendering="auto" text-rendering="auto" visibility="visible"/><path id="path3176-4-7" fill="#000" fill-opacity="1" fill-rule="nonzero" stroke="none" stroke-dasharray="none" stroke-dashoffset="0" stroke-linecap="butt" stroke-linejoin="miter" stroke-miterlimit="4" stroke-opacity="1" stroke-width="1" d="m 16.677734,48.033203 c -1.723438,0.01293 -3.450127,-0.02592 -5.171875,0.01953 -1.049566,0.09994 -1.629431,1.208223 -1.472656,2.179688 0.0359,1.810501 -0.07236,3.634521 0.05469,5.4375 0.194928,1.010383 1.305241,1.436138 2.234375,1.296875 1.780723,-0.03587 3.574454,0.07232 5.347656,-0.05469 1.010383,-0.194928 1.436138,-1.305241 1.296875,-2.234375 -0.03587,-1.780723 0.07232,-3.574454 -0.05469,-5.347656 -0.194928,-1.010383 -1.305241,-1.436138 -2.234375,-1.296875 z m 12,0 c -1.723438,0.01293 -3.450127,-0.02592 -5.171875,0.01953 -1.049566,0.09994 -1.629431,1.208223 -1.472656,2.179688 0.0359,1.810501 -0.07236,3.634521 0.05469,5.4375 0.194928,1.010383 1.305241,1.436138 2.234375,1.296875 1.780723,-0.03587 3.574454,0.07232 5.347656,-0.05469 1.010383,-0.194928 1.436138,-1.305241 1.296875,-2.234375 -0.03587,-1.780723 0.07232,-3.574454 -0.05469,-5.347656 -0.194928,-1.010383 -1.305241,-1.436138 -2.234375,-1.296875 z m 11,0 c -1.723438,0.01293 -3.450127,-0.02592 -5.171875,0.01953 -1.049566,0.09994 -1.629431,1.208223 -1.472656,2.179688 0.0359,1.810501 -0.07236,3.634521 0.05469,5.4375 0.194928,1.010383 1.305241,1.436138 2.234375,1.296875 1.780723,-0.03587 3.574454,0.07232 5.347656,-0.05469 1.010383,-0.194928 1.436138,-1.305241 1.296875,-2.234375 -0.03587,-1.780723 0.07232,-3.574454 -0.05469,-5.347656 -0.194928,-1.010383 -1.305241,-1.436138 -2.234375,-1.296875 z m 12,0 c -1.723438,0.01293 -3.450127,-0.02592 -5.171875,0.01953 -1.049566,0.09994 -1.629431,1.208223 -1.472656,2.179688 0.0359,1.810501 -0.07236,3.634521 0.05469,5.4375 0.194928,1.010383 1.305241,1.436138 2.234375,1.296875 1.780723,-0.03587 3.574454,0.07232 5.347656,-0.05469 1.010383,-0.194928 1.436138,-1.305241 1.296875,-2.234375 -0.03587,-1.780723 0.07232,-3.574454 -0.05469,-5.347656 -0.194928,-1.010383 -1.305241,-1.436138 -2.234375,-1.296875 z" color="#000" display="inline" enable-background="accumulate" opacity=".15" overflow="visible" transform="translate(0,-0.99250408)" visibility="visible" style="marker:none"/><path id="path3176-4" fill="#000" fill-opacity="1" fill-rule="nonzero" stroke="none" stroke-dasharray="none" stroke-dashoffset="0" stroke-linecap="butt" stroke-linejoin="miter" stroke-miterlimit="4" stroke-opacity="1" stroke-width="1" d="M 11.697266,47.000001 C 11.310593,47.000001 11,47.399337 11,47.896486 v 7.20703 c 0,0.497152 0.310593,0.896485 0.697266,0.896485 h 5.605468 C 17.689405,56.000001 18,55.600668 18,55.103516 v -7.20703 c 0,-0.497149 -0.310595,-0.896485 -0.697266,-0.896485 z m 12,0 C 23.310593,47.000001 23,47.399337 23,47.896486 v 7.20703 c 0,0.497152 0.310593,0.896485 0.697266,0.896485 h 5.605468 C 29.689405,56.000001 30,55.600668 30,55.103516 v -7.20703 c 0,-0.497149 -0.310595,-0.896485 -0.697266,-0.896485 z m 11,0 C 34.310593,47.000001 34,47.399337 34,47.896486 v 7.20703 c 0,0.497152 0.310593,0.896485 0.697266,0.896485 h 5.605468 C 40.689405,56.000001 41,55.600668 41,55.103516 v -7.20703 c 0,-0.497149 -0.310595,-0.896485 -0.697266,-0.896485 z m 12,0 C 46.310593,47.000001 46,47.399337 46,47.896486 v 7.20703 c 0,0.497152 0.310593,0.896485 0.697266,0.896485 h 5.605468 C 52.689405,56.000001 53,55.600668 53,55.103516 v -7.20703 c 0,-0.497149 -0.310595,-0.896485 -0.697266,-0.896485 z" color="#000" display="inline" enable-background="accumulate" opacity=".15" overflow="visible" visibility="visible" style="marker:none"/><path id="path3176" fill="#f7f7f7" fill-opacity="1" fill-rule="nonzero" stroke="#fff" stroke-dashoffset="0" stroke-linecap="butt" stroke-linejoin="miter" stroke-miterlimit="4" stroke-opacity="1" stroke-width=".985" d="M 12.091797 48.492188 C 11.759558 48.492188 11.492187 48.75956 11.492188 49.091797 L 11.492188 53.908203 C 11.492188 54.240443 11.759558 54.507812 12.091797 54.507812 L 16.908203 54.507812 C 17.24044 54.507812 17.507813 54.240443 17.507812 53.908203 L 17.507812 49.091797 C 17.507812 48.75956 17.24044 48.492187 16.908203 48.492188 L 12.091797 48.492188 z M 24.091797 48.492188 C 23.759558 48.492188 23.492188 48.75956 23.492188 49.091797 L 23.492188 53.908203 C 23.492188 54.240443 23.759558 54.507812 24.091797 54.507812 L 28.908203 54.507812 C 29.24044 54.507812 29.507813 54.240443 29.507812 53.908203 L 29.507812 49.091797 C 29.507812 48.75956 29.24044 48.492187 28.908203 48.492188 L 24.091797 48.492188 z M 35.091797 48.492188 C 34.759558 48.492188 34.492188 48.75956 34.492188 49.091797 L 34.492188 53.908203 C 34.492188 54.240443 34.759558 54.507812 35.091797 54.507812 L 39.908203 54.507812 C 40.24044 54.507812 40.507813 54.240443 40.507812 53.908203 L 40.507812 49.091797 C 40.507812 48.75956 40.24044 48.492187 39.908203 48.492188 L 35.091797 48.492188 z M 47.091797 48.492188 C 46.759558 48.492188 46.492188 48.75956 46.492188 49.091797 L 46.492188 53.908203 C 46.492188 54.240443 46.759558 54.507812 47.091797 54.507812 L 51.908203 54.507812 C 52.24044 54.507812 52.507813 54.240443 52.507812 53.908203 L 52.507812 49.091797 C 52.507812 48.75956 52.24044 48.492187 51.908203 48.492188 L 47.091797 48.492188 z" color="#000" display="inline" enable-background="accumulate" overflow="visible" visibility="visible" style="marker:none"/></svg>