<svg xmlns="http://www.w3.org/2000/svg" xmlns:svg="http://www.w3.org/2000/svg" xmlns:xlink="http://www.w3.org/1999/xlink" id="svg4715" width="16" height="16" version="1.1"><defs id="defs4717"><linearGradient id="linearGradient880"><stop id="stop876" offset="0" stop-color="#64baff" stop-opacity="1"/><stop id="stop878" offset="1" stop-color="#3689e6" stop-opacity="1"/></linearGradient><linearGradient id="linearGradient872"><stop id="stop864" offset="0" stop-color="#fff" stop-opacity="1"/><stop id="stop866" offset="0" stop-color="#fff" stop-opacity=".235"/><stop id="stop868" offset="1" stop-color="#fff" stop-opacity=".157"/><stop id="stop870" offset="1" stop-color="#fff" stop-opacity=".392"/></linearGradient><linearGradient id="linearGradient2867-449-88-871-390-598-476-591-434-148-57-177-641-289-620-227-114-444-680-744-4-8-69-5-4-8-426-2-9-1-4-965"><stop id="stop4036" offset="0" stop-color="#f4f4f4" stop-opacity="1"/><stop id="stop4040" offset="1" stop-color="#d0d0d0" stop-opacity="1"/></linearGradient><linearGradient id="linearGradient3924-64"><stop id="stop3926-3-6" offset="0" stop-color="#fff" stop-opacity="1"/><stop id="stop3928-0" offset="0" stop-color="#fff" stop-opacity=".235"/><stop id="stop3930-3-59" offset="1" stop-color="#fff" stop-opacity=".157"/><stop id="stop3932-0" offset="1" stop-color="#fff" stop-opacity=".392"/></linearGradient><linearGradient id="linearGradient4549-5"><stop id="stop4551-9" offset="0" stop-color="#000" stop-opacity=".272"/><stop id="stop4553-0" offset="1" stop-color="#000" stop-opacity=".368"/></linearGradient><linearGradient id="linearGradient3304" x1="23.925" x2="24.149" y1="7.812" y2="40.187" gradientTransform="matrix(0.21621623,0,0,0.21621623,0.31081335,5.3108149)" gradientUnits="userSpaceOnUse" xlink:href="#linearGradient3924-64"/><radialGradient id="radialGradient3035-9" cx="20.931" cy="8.45" r="20" fx="20.931" fy="8.45" gradientTransform="matrix(0,0.5992282,-0.61806418,-1.104007e-8,-0.27747573,-19.842263)" gradientUnits="userSpaceOnUse" xlink:href="#linearGradient2867-449-88-871-390-598-476-591-434-148-57-177-641-289-620-227-114-444-680-744-4-8-69-5-4-8-426-2-9-1-4-965"/><linearGradient id="linearGradient4287-3-2" x1="30.643" x2="30.643" y1="3.916" y2="30.093" gradientTransform="matrix(0.57692296,0,0,0.43830112,-26.065805,-2.5804514)" gradientUnits="userSpaceOnUse" xlink:href="#linearGradient4549-5"/><linearGradient id="linearGradient3304-9" x1="24" x2="24" y1="7.812" y2="40.187" gradientTransform="matrix(0.21621624,0,0,0.21621623,5.3108129,0.31081505)" gradientUnits="userSpaceOnUse" xlink:href="#linearGradient872"/><linearGradient id="linearGradient882" x1="19" x2="19" y1="3" y2="15" gradientTransform="matrix(0.76923079,0,0,0.76923074,-1.0384602,-1.4230915)" gradientUnits="userSpaceOnUse" xlink:href="#linearGradient880"/></defs><metadata id="metadata4720"/><rect id="rect5505-8" width="10" height="10" x="-10.5" y="-15.5" fill="url(#radialGradient3035-9)" fill-opacity="1" fill-rule="nonzero" stroke="none" stroke-width="1" color="#000" display="inline" enable-background="accumulate" overflow="visible" rx=".769" ry=".769" transform="scale(-1)" visibility="visible" style="marker:none"/><rect id="rect6741-0-3-5" width="8" height="8" x="1.5" y="6.5" fill="none" stroke="url(#linearGradient3304)" stroke-dasharray="none" stroke-dashoffset="0" stroke-linecap="round" stroke-linejoin="round" stroke-miterlimit="4" stroke-opacity="1" stroke-width="1" opacity="1"/><rect clip-rule="nonzero" style="isolation:auto;mix-blend-mode:normal;solid-color:#000;solid-opacity:1;marker:none" id="rect5505-21-2-8" width="10" height="10" x=".5" y="5.5" fill="none" fill-opacity="1" fill-rule="nonzero" stroke="url(#linearGradient4287-3-2)" stroke-dasharray="none" stroke-dashoffset="0" stroke-linecap="round" stroke-linejoin="round" stroke-miterlimit="4" stroke-opacity="1" stroke-width="1" color="#000" color-interpolation="sRGB" color-interpolation-filters="linearRGB" color-rendering="auto" display="inline" enable-background="accumulate" image-rendering="auto" opacity="1" overflow="visible" rx=".769" ry=".769" shape-rendering="auto" text-rendering="auto" visibility="visible"/><path id="text4533-9-2" fill="#666" fill-opacity="1" stroke="none" stroke-width="1" d="m 4.7429261,6.2878708 c -0.00297,0.035478 -0.0056,0.1284601 -0.020482,0.2644227 -0.02679,0.2157831 -0.046563,0.3984397 -0.061435,0.549182 L 4.6405275,7.3862367 4.6200459,7.589637 C 4.2837482,7.6132916 3.9211839,7.6303205 3.5551296,7.6303121 3.3110906,7.6303188 3.0678685,7.6073716 2.81788,7.589637 l 0.061435,0.6305438 c 0.095233,0.0059 0.228395,0.02035 0.3891036,0.020342 0.4136716,5.8e-6 0.8348472,-0.025548 1.2901874,-0.061018 C 4.513965,8.708608 4.506092,9.1780226 4.497171,9.5829709 4.1965873,9.7455422 3.9559874,9.9033506 3.7804009,10.030449 c -0.9196044,0.688716 -1.3925828,1.44419 -1.3925828,2.29843 0,0.629598 0.2775223,0.955984 0.8191665,0.955984 0.4493845,0 0.924632,-0.191522 1.433541,-0.549181 0.050593,0.316277 0.087513,0.527438 0.1023965,0.610202 L 5.398256,13.101803 C 5.3208739,12.81213 5.2816828,12.519459 5.2549015,12.247518 5.6452143,11.882394 5.9894705,11.470124 6.299339,11.006774 H 5.6644847 c -0.037372,0 -0.066765,-0.01442 -0.1023954,-0.02034 C 5.4381375,11.157137 5.3123818,11.320298 5.1729845,11.474596 5.1611189,11.299102 5.1592839,10.991968 5.1525035,10.762693 5.0626582,10.651322 5.0091489,10.510348 5.0091489,10.355891 V 6.3082118 L 4.7429203,6.28787 Z M 4.4766966,10.213509 c 0.00893,0.75079 0.037275,1.357674 0.081916,1.830609 -0.4374837,0.399041 -0.8448388,0.610204 -1.2287495,0.610203 -0.1755891,1e-6 -0.2662294,-0.110014 -0.2662286,-0.305102 -8e-7,-0.04139 -0.011552,-0.07213 -0.020482,-0.101698 0.00893,-0.02069 0.020482,-0.06033 0.020482,-0.101698 0.035711,-0.458161 0.2815577,-0.924621 0.7577288,-1.403471 0.2232029,-0.23351 0.4470062,-0.404694 0.6553333,-0.528843 z m 4.3825399,0.793265 c 0.00768,0.06694 0.020476,0.132287 0.020476,0.203399 -7.4e-6,0.585261 -0.2887261,1.048766 -0.8601236,1.403468 -0.4493919,0.280807 -1.0492277,0.469374 -1.8021665,0.549182 l 0.3891036,0.610202 c 0.8600784,-0.121189 1.5334039,-0.368673 2.0274376,-0.732243 0.6338942,-0.467023 0.9625118,-1.085731 0.9625202,-1.830609 -10e-7,-0.07061 -0.01464,-0.135937 -0.020476,-0.203399 z" font-family="Open Sans" font-size="13.951" font-stretch="normal" font-style="normal" font-variant="normal" font-weight="600" letter-spacing="0" text-anchor="start" word-spacing="0" writing-mode="lr-tb" style="line-height:125%;-inkscape-font-specification:'Open Sans Semi-Bold';text-align:start"/><rect id="rect5505-21-8-5-7-4" width="11" height="11" x="5" y="1" fill="#000" fill-opacity="1" fill-rule="nonzero" stroke="none" stroke-width="1" color="#000" display="inline" enable-background="accumulate" opacity=".15" overflow="visible" rx=".786" ry=".786" visibility="visible" style="marker:none"/><rect id="rect5505-21-8-5" width="10" height="10" x="5.5" y=".5" fill="url(#linearGradient882)" fill-opacity="1" fill-rule="nonzero" stroke="none" stroke-width="1" color="#000" display="inline" enable-background="accumulate" overflow="visible" rx=".769" ry=".769" visibility="visible" style="marker:none"/><g id="g4563" stroke-width="1.262" transform="matrix(0.79487179,0,0,0.78947409,-1.8135351,-2.065785)"><path id="path4698-3" fill="#002e99" fill-opacity=".631" fill-rule="nonzero" stroke="none" stroke-width="1.262" d="m 19.125,6.9980469 a 1.0015805,1.0015805 0 0 0 -0.9375,0.6503906 l -3.75,10.0000005 a 1.0015805,1.0015805 0 0 0 0.9375,1.353515 h 1.71875 a 1.0015805,1.0015805 0 0 0 0.947266,-0.675781 l 0.798828,-2.324219 h 2.289062 l 0.798828,2.324219 A 1.0015805,1.0015805 0 0 0 22.875,19.001953 h 1.75 a 1.0015805,1.0015805 0 0 0 0.9375,-1.353515 L 21.8125,7.6484375 A 1.0015805,1.0015805 0 0 0 20.875,6.9980469 Z m 0.865234,5.6992191 0.103516,0.300781 h -0.208984 z" color="#000" display="inline" enable-background="accumulate" font-family="Open Sans" font-size="13.951" font-stretch="normal" font-style="normal" font-variant="normal" font-weight="600" letter-spacing="0" opacity=".05" overflow="visible" text-anchor="start" transform="matrix(0.75,0,0,0.75,0.410575,0)" visibility="visible" word-spacing="0" writing-mode="lr-tb" style="line-height:125%;-inkscape-font-specification:'Open Sans Semi-Bold';text-align:start;marker:none"/><path id="text4533-5-8" fill="#002e99" fill-opacity=".631" fill-rule="nonzero" stroke="none" stroke-width="1.262" d="m 17.571666,13.5 -0.785772,-2.25 h -2.772572 l -0.774057,2.25 c -0.429154,0 -0.858307,0 -1.287459,0 0.931534,-2.499987 1.863068,-4.9999731 2.794602,-7.4999601 0.442777,0 0.885554,0 1.328332,0 0.931533,2.499987 1.863068,4.9999731 2.794603,7.4999601 -0.432559,0 -0.865118,0 -1.297677,0 z M 16.528511,10.5 15.410575,7.2388079 14.27,10.5 Z" color="#000" display="inline" enable-background="accumulate" font-family="Open Sans" font-size="13.951" font-stretch="normal" font-style="normal" font-variant="normal" font-weight="600" letter-spacing="0" opacity=".3" overflow="visible" text-anchor="start" visibility="visible" word-spacing="0" writing-mode="lr-tb" style="line-height:125%;-inkscape-font-specification:'Open Sans Semi-Bold';text-align:start;marker:none"/><path font-stretch="normal" style="line-height:125%;-inkscape-font-specification:'Open Sans Semi-Bold';text-align:start" id="text4533-95" fill="#fff" fill-opacity="1" stroke="none" stroke-width="1.262" d="M 17.571666,12.75 16.785894,10.5 h -2.772572 l -0.774057,2.25 c -0.429154,0 -0.858307,0 -1.287459,0 0.931534,-2.499987 1.863068,-4.9999731 2.794602,-7.4999601 0.442777,0 0.885554,0 1.328332,0 0.931533,2.499987 1.863068,4.9999731 2.794603,7.4999601 -0.432559,0 -0.865118,0 -1.297677,0 z M 16.528511,9.7499999 15.410575,6.4888089 14.27,9.7499999 Z" font-family="Open Sans" font-size="13.951" font-style="normal" font-variant="normal" font-weight="600" letter-spacing="0" text-anchor="start" word-spacing="0" writing-mode="lr-tb"/></g><rect id="rect6741-0-3-5-9" width="8" height="8" x="6.5" y="1.5" fill="none" stroke="url(#linearGradient3304-9)" stroke-dasharray="none" stroke-dashoffset="0" stroke-linecap="round" stroke-linejoin="round" stroke-miterlimit="4" stroke-opacity="1" stroke-width="1" opacity=".5"/><rect clip-rule="nonzero" style="isolation:auto;mix-blend-mode:normal;solid-color:#000;solid-opacity:1;marker:none" id="rect5505-21-2-8-1" width="10" height="10" x="5.5" y=".5" fill="none" fill-opacity="1" fill-rule="nonzero" stroke="#002e99" stroke-dasharray="none" stroke-dashoffset="0" stroke-linecap="butt" stroke-linejoin="round" stroke-miterlimit="4" stroke-opacity="1" stroke-width="1" color="#000" color-interpolation="sRGB" color-interpolation-filters="linearRGB" color-rendering="auto" display="inline" enable-background="accumulate" image-rendering="auto" opacity=".5" overflow="visible" rx=".769" ry=".769" shape-rendering="auto" text-rendering="auto" visibility="visible"/></svg>