<svg xmlns="http://www.w3.org/2000/svg" xmlns:svg="http://www.w3.org/2000/svg" id="svg2" width="16" height="16" version="1.1"><metadata id="metadata14"/><path id="rect4146" fill="#666" fill-opacity="1" fill-rule="nonzero" stroke="none" stroke-dasharray="none" stroke-dashoffset="0" stroke-linecap="butt" stroke-linejoin="miter" stroke-miterlimit="4" stroke-opacity="1" stroke-width="1" d="M 0 4 L 0 4.5 L 0 11 L 1 11 L 1 13 L 15 13 L 15 11 L 16 11 L 16 4 L 0 4 z M 1 5 L 15 5 L 15 10 L 1 10 L 1 5 z M 2 6 L 2 9 L 4 9 L 4 6 L 2 6 z M 5 6 L 5 9 L 7 9 L 7 6 L 5 6 z M 9 6 L 9 9 L 11 9 L 11 6 L 9 6 z M 12 6 L 12 9 L 14 9 L 14 6 L 12 6 z M 2 11 L 3 11 L 3 12 L 2 12 L 2 11 z M 4 11 L 5 11 L 5 12 L 4 12 L 4 11 z M 6 11 L 7 11 L 7 12 L 6 12 L 6 11 z M 8 11 L 10 11 L 10 12 L 8 12 L 8 11 z M 11 11 L 12 11 L 12 12 L 11 12 L 11 11 z M 13 11 L 14 11 L 14 12 L 13 12 L 13 11 z" baseline-shift="baseline" clip-rule="nonzero" color="#000" color-interpolation="sRGB" color-interpolation-filters="linearRGB" color-rendering="auto" direction="ltr" display="inline" dominant-baseline="auto" enable-background="accumulate" font-family="sans-serif" font-size="medium" font-stretch="normal" font-style="normal" font-variant="normal" font-weight="normal" image-rendering="auto" letter-spacing="normal" opacity="1" overflow="visible" shape-rendering="auto" text-anchor="start" text-decoration="none" text-rendering="auto" vector-effect="none" visibility="visible" word-spacing="normal" writing-mode="lr-tb" style="line-height:normal;font-variant-ligatures:normal;font-variant-position:normal;font-variant-caps:normal;font-variant-numeric:normal;font-variant-alternates:normal;font-feature-settings:normal;text-indent:0;text-align:start;text-decoration-line:none;text-decoration-style:solid;text-decoration-color:#000;text-transform:none;text-orientation:mixed;white-space:normal;shape-padding:0;isolation:auto;mix-blend-mode:normal;solid-color:#000;solid-opacity:1;marker:none"/></svg>