<svg xmlns="http://www.w3.org/2000/svg" xmlns:svg="http://www.w3.org/2000/svg" xmlns:xlink="http://www.w3.org/1999/xlink" id="svg3901" width="48" height="48" version="1.1"><defs id="defs3903"><linearGradient id="linearGradient3403"><stop id="stop3405" offset="0" stop-color="#fff" stop-opacity="1"/><stop id="stop3407" offset="0" stop-color="#fff" stop-opacity=".235"/><stop id="stop3409" offset="1" stop-color="#fff" stop-opacity=".157"/><stop id="stop3411" offset="1" stop-color="#fff" stop-opacity=".392"/></linearGradient><linearGradient id="linearGradient3600"><stop id="stop3602" offset="0" stop-color="#f4f4f4" stop-opacity="1"/><stop id="stop3604" offset="1" stop-color="#dbdbdb" stop-opacity="1"/></linearGradient><linearGradient id="linearGradient5060"><stop id="stop5062" offset="0" stop-color="#000" stop-opacity="1"/><stop id="stop5064" offset="1" stop-color="#000" stop-opacity="0"/></linearGradient><linearGradient id="linearGradient5048"><stop id="stop5050" offset="0" stop-color="#000" stop-opacity="0"/><stop id="stop5056" offset=".5" stop-color="#000" stop-opacity="1"/><stop id="stop5052" offset="1" stop-color="#000" stop-opacity="0"/></linearGradient><linearGradient id="linearGradient3104-6"><stop id="stop3106-3" offset="0" stop-color="#000" stop-opacity=".318"/><stop id="stop3108-9" offset="1" stop-color="#000" stop-opacity=".24"/></linearGradient><linearGradient id="linearGradient3106" x1="24" x2="24" y1="5.94" y2="42.111" gradientTransform="matrix(0.89189189,0,0,1.1351351,2.5945999,-4.7432314)" gradientUnits="userSpaceOnUse" xlink:href="#linearGradient3403"/><linearGradient id="linearGradient3109" x1="25.132" x2="25.132" y1=".985" y2="47.013" gradientTransform="matrix(0.97142632,0,0,0.93431938,0.68576678,-1.3569996)" gradientUnits="userSpaceOnUse" xlink:href="#linearGradient3600"/><radialGradient id="radialGradient3112" cx="605.714" cy="486.648" r="117.143" fx="605.714" fy="486.648" gradientTransform="matrix(0.02303995,0,0,0.01470022,26.360882,37.040176)" gradientUnits="userSpaceOnUse" xlink:href="#linearGradient5060"/><radialGradient id="radialGradient3115" cx="605.714" cy="486.648" r="117.143" fx="605.714" fy="486.648" gradientTransform="matrix(-0.02303994,0,0,0.01470022,21.62311,37.040176)" gradientUnits="userSpaceOnUse" xlink:href="#linearGradient5060"/><linearGradient id="linearGradient3118" x1="302.857" x2="302.857" y1="366.648" y2="609.505" gradientTransform="matrix(0.06732488,0,0,0.01470022,-0.3411391,37.040146)" gradientUnits="userSpaceOnUse" xlink:href="#linearGradient5048"/><linearGradient id="linearGradient3170" x1="-51.786" x2="-51.786" y1="50.786" y2="2.906" gradientTransform="matrix(0.80749686,0,0,0.89471714,59.410232,-2.9773433)" gradientUnits="userSpaceOnUse" xlink:href="#linearGradient3104-6"/><linearGradient id="linearGradient2867-449-88-871-390-598-476-591-434-148-57-177-8-3"><stop id="stop3750-1-0" offset="0" stop-color="#90dbec" stop-opacity="1"/><stop id="stop3752-3-7" offset=".262" stop-color="#55c1ec" stop-opacity="1"/><stop id="stop3754-1-8" offset=".705" stop-color="#3689e6" stop-opacity="1"/><stop id="stop3756-1-6" offset="1" stop-color="#2b63a0" stop-opacity="1"/></linearGradient><radialGradient id="radialGradient4200" cx="5.649" cy="9.957" r="12.672" fx="5.119" fy="9.957" gradientTransform="matrix(-1.5324784e-7,6.4910062,-7.6705026,-1.9484253e-7,99.953972,-58.68638)" gradientUnits="userSpaceOnUse" xlink:href="#linearGradient2867-449-88-871-390-598-476-591-434-148-57-177-8-3"/></defs><metadata id="metadata3906"/><rect id="rect2879" width="32.508" height="3.57" x="7.738" y="42.43" fill="url(#linearGradient3118)" fill-opacity="1" fill-rule="nonzero" stroke="none" stroke-width="1" display="inline" opacity=".3" overflow="visible" visibility="visible" style="marker:none"/><path id="path2881" fill="url(#radialGradient3115)" fill-opacity="1" fill-rule="nonzero" stroke="none" stroke-width="1" d="m 7.7378475,42.430102 c 0,0 0,3.569856 0,3.569856 -1.1865002,0.0067 -2.8683795,-0.799823 -2.8683795,-1.785158 0,-0.985333 1.3240446,-1.784697 2.8683795,-1.784698 z" display="inline" opacity=".3" overflow="visible" visibility="visible" style="marker:none"/><path id="path2883" fill="url(#radialGradient3112)" fill-opacity="1" fill-rule="nonzero" stroke="none" stroke-width="1" d="m 40.246148,42.430102 c 0,0 0,3.569856 0,3.569856 1.1865,0.0067 2.86838,-0.799823 2.86838,-1.785158 0,-0.985333 -1.324045,-1.784697 -2.86838,-1.784698 z" display="inline" opacity=".3" overflow="visible" visibility="visible" style="marker:none"/><path id="path4160" fill="url(#linearGradient3109)" fill-opacity="1" stroke="none" d="m 7,1.0000001 c 7.791126,0 33.999959,0.00274 33.999959,0.00274 L 41,44 C 41,44 18.333334,44 7,44 7,29.666666 7,15.333333 7,1 z" display="inline"/><path id="rect6741-1" fill="none" stroke="url(#linearGradient3106)" stroke-dasharray="none" stroke-dashoffset="0" stroke-linecap="round" stroke-linejoin="miter" stroke-miterlimit="4" stroke-opacity="1" stroke-width="1" d="m 40.5,43.5 -33,0 0,-41.9999998 33,0 z"/><path id="path4160-6-1" fill="none" stroke="url(#linearGradient3170)" stroke-dasharray="none" stroke-dashoffset="0" stroke-linecap="butt" stroke-linejoin="round" stroke-miterlimit="4" stroke-opacity="1" stroke-width="1" d="m 6.4999605,0.4999623 c 8.0202885,0 35.0000415,0.00298 35.0000415,0.00298 l 3.7e-5,43.9970957 c 0,0 -23.333385,0 -35.0000785,0 0,-14.666738 0,-29.333326 0,-43.9998923 z" display="inline"/><path id="rect3164" fill="#0093dd" fill-opacity="1" fill-rule="nonzero" stroke="none" stroke-width="1" d="m 23.999998,9.9940541 c -4.431999,0 -7.999997,3.5679979 -7.999997,7.9999989 v 3.997448 H 15 v 6.095997 l 0.406249,-0.531249 c 0.58133,-0.780701 2.130812,-1.895799 3.343752,-2.374999 0.639031,-0.2525 2.173396,-0.529551 3.906249,-0.718752 2.610848,-0.293399 7.543627,-0.470999 9.343749,-2.470997 v -3.997448 c 0,-4.432001 -3.567997,-7.9999989 -8.000001,-7.9999989 z m 0.656252,0.9687499 c 0.379168,0.0221 0.750798,0.06628 1.125,0.156258 1.344369,0.323098 1.496152,0.6343 0.187507,0.375001 -2.058991,-0.4081 -4.793763,0.5085 -6.468748,2.1875 -0.50085,0.502099 -1.132725,1.333447 -1.40625,1.843747 -0.563565,1.051501 -0.474903,0.374251 0.124992,-0.906247 1.096803,-2.341151 3.78333,-3.811126 6.437499,-3.656259 z m -0.656252,3.031248 C 26.216,13.994052 28,15.778052 28,17.994053 v 3.997448 h -7.999999 v -3.997448 c 0,-2.216001 1.783999,-4.000001 3.999997,-4.000001 z M 33,24.156251 l -1.062498,0.875 c -0.577502,0.491398 -1.481253,1.1639 -2.031252,1.499999 -1.125632,0.687899 -3.794346,1.656249 -4.593751,1.656249 -0.300685,0 -0.476957,0.07281 -0.406247,0.187509 0.133254,0.216 1.731034,0.118836 3.406249,-0.218748 0.550001,-0.110718 1.826246,-0.609801 2.843748,-1.125002 L 33,26.093758 v -0.968749 z m 0,2.156251 -0.562502,0.781248 c -1.865714,2.5717 -4.903767,3.9967 -9.124997,4.25 -2.819488,0.169092 -1.787198,0.49 1.593751,0.499999 2.290275,0.0032 2.806509,-0.06644 4.187496,-0.531249 0.863973,-0.2907 1.581403,-0.512751 1.625001,-0.468749 0.15732,0.157608 -1.532958,1.556248 -2.468751,2.031248 -1.793,0.9101 -3.013938,1.1655 -6.249998,1.312499 -2.298803,0.1044 -3.24257,0.22325 -3.687498,0.468752 C 17.745958,34.968248 18.120313,34.989999 25.343751,35 H 33 Z" color="#000" display="inline" enable-background="accumulate" overflow="visible" visibility="visible" style="marker:none"/></svg>