<svg xmlns="http://www.w3.org/2000/svg" xmlns:svg="http://www.w3.org/2000/svg" xmlns:xlink="http://www.w3.org/1999/xlink" id="svg3901" width="48" height="48" version="1.1"><defs id="defs3903"><linearGradient id="linearGradient3403"><stop id="stop3405" offset="0" stop-color="#fff" stop-opacity="1"/><stop id="stop3407" offset="0" stop-color="#fff" stop-opacity=".235"/><stop id="stop3409" offset="1" stop-color="#fff" stop-opacity=".157"/><stop id="stop3411" offset="1" stop-color="#fff" stop-opacity=".392"/></linearGradient><linearGradient id="linearGradient3600"><stop id="stop3602" offset="0" stop-color="#f4f4f4" stop-opacity="1"/><stop id="stop3604" offset="1" stop-color="#dbdbdb" stop-opacity="1"/></linearGradient><linearGradient id="linearGradient5060"><stop id="stop5062" offset="0" stop-color="#000" stop-opacity="1"/><stop id="stop5064" offset="1" stop-color="#000" stop-opacity="0"/></linearGradient><linearGradient id="linearGradient5048"><stop id="stop5050" offset="0" stop-color="#000" stop-opacity="0"/><stop id="stop5056" offset=".5" stop-color="#000" stop-opacity="1"/><stop id="stop5052" offset="1" stop-color="#000" stop-opacity="0"/></linearGradient><linearGradient id="linearGradient3104-6"><stop id="stop3106-3" offset="0" stop-color="#000" stop-opacity=".318"/><stop id="stop3108-9" offset="1" stop-color="#000" stop-opacity=".24"/></linearGradient><linearGradient id="linearGradient3106" x1="24" x2="24" y1="5.94" y2="42.111" gradientTransform="matrix(0.89189189,0,0,1.1351351,2.5945999,-4.7432314)" gradientUnits="userSpaceOnUse" xlink:href="#linearGradient3403"/><linearGradient id="linearGradient3109" x1="25.132" x2="25.132" y1=".985" y2="47.013" gradientTransform="matrix(0.97142632,0,0,0.93431938,0.68576678,-1.3569996)" gradientUnits="userSpaceOnUse" xlink:href="#linearGradient3600"/><radialGradient id="radialGradient3112" cx="605.714" cy="486.648" r="117.143" fx="605.714" fy="486.648" gradientTransform="matrix(0.02303995,0,0,0.01470022,26.360882,37.040176)" gradientUnits="userSpaceOnUse" xlink:href="#linearGradient5060"/><radialGradient id="radialGradient3115" cx="605.714" cy="486.648" r="117.143" fx="605.714" fy="486.648" gradientTransform="matrix(-0.02303994,0,0,0.01470022,21.62311,37.040176)" gradientUnits="userSpaceOnUse" xlink:href="#linearGradient5060"/><linearGradient id="linearGradient3118" x1="302.857" x2="302.857" y1="366.648" y2="609.505" gradientTransform="matrix(0.06732488,0,0,0.01470022,-0.3411391,37.040146)" gradientUnits="userSpaceOnUse" xlink:href="#linearGradient5048"/><linearGradient id="linearGradient3170" x1="-51.786" x2="-51.786" y1="50.786" y2="2.906" gradientTransform="matrix(0.80749686,0,0,0.89471714,59.410232,-2.9773433)" gradientUnits="userSpaceOnUse" xlink:href="#linearGradient3104-6"/><radialGradient id="radialGradient4777" cx="5.616" cy="9.957" r="12.672" fx="5.085" fy="9.957" gradientTransform="matrix(-2.7521908e-8,7.5232227,-9.2361126,-3.3074898e-8,115.9544,-64.480095)" gradientUnits="userSpaceOnUse" xlink:href="#linearGradient3242-7-3-8-0-4-58"/><linearGradient id="linearGradient3242-7-3-8-0-4-58"><stop id="stop3244-5-8-5-6-4-3" offset="0" stop-color="#bdff69" stop-opacity="1"/><stop id="stop3246-9-5-1-5-3-0" offset=".262" stop-color="#8ed451" stop-opacity="1"/><stop id="stop3248-7-2-0-7-5-35" offset=".661" stop-color="#58aa30" stop-opacity="1"/><stop id="stop3250-8-2-8-5-6-40" offset="1" stop-color="#2a6c1f" stop-opacity="1"/></linearGradient></defs><metadata id="metadata3906"/><rect id="rect2879" width="32.508" height="3.57" x="7.738" y="42.43" fill="url(#linearGradient3118)" fill-opacity="1" fill-rule="nonzero" stroke="none" stroke-width="1" display="inline" opacity=".3" overflow="visible" visibility="visible" style="marker:none"/><path id="path2881" fill="url(#radialGradient3115)" fill-opacity="1" fill-rule="nonzero" stroke="none" stroke-width="1" d="m 7.7378475,42.430102 c 0,0 0,3.569856 0,3.569856 -1.1865002,0.0067 -2.8683795,-0.799823 -2.8683795,-1.785158 0,-0.985333 1.3240446,-1.784697 2.8683795,-1.784698 z" display="inline" opacity=".3" overflow="visible" visibility="visible" style="marker:none"/><path id="path2883" fill="url(#radialGradient3112)" fill-opacity="1" fill-rule="nonzero" stroke="none" stroke-width="1" d="m 40.246148,42.430102 c 0,0 0,3.569856 0,3.569856 1.1865,0.0067 2.86838,-0.799823 2.86838,-1.785158 0,-0.985333 -1.324045,-1.784697 -2.86838,-1.784698 z" display="inline" opacity=".3" overflow="visible" visibility="visible" style="marker:none"/><path id="path4160" fill="url(#linearGradient3109)" fill-opacity="1" stroke="none" d="m 7,1.0000001 c 7.791126,0 33.999959,0.00274 33.999959,0.00274 L 41,44 C 41,44 18.333334,44 7,44 7,29.666666 7,15.333333 7,1 z" display="inline"/><path id="rect6741-1" fill="none" stroke="url(#linearGradient3106)" stroke-dasharray="none" stroke-dashoffset="0" stroke-linecap="round" stroke-linejoin="miter" stroke-miterlimit="4" stroke-opacity="1" stroke-width="1" d="m 40.5,43.5 -33,0 0,-41.9999998 33,0 z"/><path id="path4160-6-1" fill="none" stroke="url(#linearGradient3170)" stroke-dasharray="none" stroke-dashoffset="0" stroke-linecap="butt" stroke-linejoin="round" stroke-miterlimit="4" stroke-opacity="1" stroke-width="1" d="m 6.4999605,0.4999623 c 8.0202885,0 35.0000415,0.00298 35.0000415,0.00298 l 3.7e-5,43.9970957 c 0,0 -23.333385,0 -35.0000785,0 0,-14.666738 0,-29.333326 0,-43.9998923 z" display="inline"/><path id="path4881" fill="url(#radialGradient4777)" fill-opacity="1" fill-rule="nonzero" stroke="none" stroke-dasharray="none" stroke-dashoffset="0" stroke-linecap="butt" stroke-linejoin="miter" stroke-miterlimit="4" stroke-opacity="1" stroke-width="1" d="m 25,12.966667 -12,2.2 L 13,31.3 25,33.5 Z M 26,14.433333 26,16 l 3,0 0,2 -3,0 0,1 3,0 0,2 -3,0 0,1 3,0 0,1.966667 -3,0 L 26,25 l 3,0 0,2 -3,0 0,1 3,0 0,2 -3,0 0,1.5 9,0 0,-17.066667 z M 30,16 l 3.533333,0 0,2 L 30,18 Z m 0,3 3.533333,0 0,2 L 30,21 Z m -8.66781,0.360417 c 0.133188,-0.0026 0.206316,-0.0056 0.20625,0 -1.03e-4,0.01113 -0.375056,0.863543 -0.847917,1.879166 l -0.870833,1.833334 0.870833,1.833333 c 0.472861,1.002005 0.847917,1.860144 0.847917,1.902083 0,0.08807 -0.631855,0.07337 -1.16875,-0.02292 -0.355388,-0.06373 -0.37315,-0.10362 -0.825,-1.2375 -0.257496,-0.646173 -0.506638,-1.21522 -0.55,-1.260417 -0.04334,-0.04519 -0.294881,0.444454 -0.55,1.077083 -0.25512,0.632625 -0.492566,1.17656 -0.527084,1.214584 -0.03454,0.03806 -0.348216,0.03806 -0.710416,0 l -0.664584,-0.06875 0.802084,-1.695834 0.802083,-1.695833 -0.710417,-1.627083 c -0.388967,-0.897695 -0.710416,-1.700911 -0.710416,-1.764584 0,-0.07107 0.268568,-0.114583 0.6875,-0.114583 l 0.6875,0 0.389583,1.1 c 0.218959,0.602115 0.440777,1.124373 0.48125,1.16875 0.04048,0.04437 0.313023,-0.490976 0.595833,-1.191667 l 0.504167,-1.260416 0.733333,-0.04583 c 0.202151,-0.0096 0.393888,-0.02025 0.527084,-0.02292 z M 30,22 l 3.533333,0 0,1.966667 -3.533333,0 z m 0,3 3.533333,0 0,2 L 30,27 Z m 0,3 3.533333,0 0,2 L 30,30 Z" clip-rule="nonzero" color="#000" color-interpolation="sRGB" color-interpolation-filters="linearRGB" color-rendering="auto" display="inline" enable-background="accumulate" image-rendering="auto" opacity="1" overflow="visible" shape-rendering="auto" text-rendering="auto" visibility="visible" style="isolation:auto;mix-blend-mode:normal;solid-color:#000;solid-opacity:1;marker:none"/></svg>