<svg xmlns="http://www.w3.org/2000/svg" xmlns:svg="http://www.w3.org/2000/svg" xmlns:xlink="http://www.w3.org/1999/xlink" id="svg3901" width="48" height="48" version="1.1"><defs id="defs3903"><linearGradient id="linearGradient3403"><stop id="stop3405" offset="0" stop-color="#fff" stop-opacity="1"/><stop id="stop3407" offset="0" stop-color="#fff" stop-opacity=".235"/><stop id="stop3409" offset="1" stop-color="#fff" stop-opacity=".157"/><stop id="stop3411" offset="1" stop-color="#fff" stop-opacity=".392"/></linearGradient><linearGradient id="linearGradient3600"><stop id="stop3602" offset="0" stop-color="#f4f4f4" stop-opacity="1"/><stop id="stop3604" offset="1" stop-color="#dbdbdb" stop-opacity="1"/></linearGradient><linearGradient id="linearGradient5060"><stop id="stop5062" offset="0" stop-color="#000" stop-opacity="1"/><stop id="stop5064" offset="1" stop-color="#000" stop-opacity="0"/></linearGradient><linearGradient id="linearGradient5048"><stop id="stop5050" offset="0" stop-color="#000" stop-opacity="0"/><stop id="stop5056" offset=".5" stop-color="#000" stop-opacity="1"/><stop id="stop5052" offset="1" stop-color="#000" stop-opacity="0"/></linearGradient><linearGradient id="linearGradient3104-6"><stop id="stop3106-3" offset="0" stop-color="#000" stop-opacity=".318"/><stop id="stop3108-9" offset="1" stop-color="#000" stop-opacity=".24"/></linearGradient><linearGradient id="linearGradient3106" x1="24" x2="24" y1="5.94" y2="42.111" gradientTransform="matrix(0.89189189,0,0,1.1351351,2.5945999,-4.7432314)" gradientUnits="userSpaceOnUse" xlink:href="#linearGradient3403"/><linearGradient id="linearGradient3109" x1="25.132" x2="25.132" y1=".985" y2="47.013" gradientTransform="matrix(0.97142632,0,0,0.93431938,0.68576678,-1.3569996)" gradientUnits="userSpaceOnUse" xlink:href="#linearGradient3600"/><radialGradient id="radialGradient3112" cx="605.714" cy="486.648" r="117.143" fx="605.714" fy="486.648" gradientTransform="matrix(0.02303995,0,0,0.01470022,26.360882,37.040176)" gradientUnits="userSpaceOnUse" xlink:href="#linearGradient5060"/><radialGradient id="radialGradient3115" cx="605.714" cy="486.648" r="117.143" fx="605.714" fy="486.648" gradientTransform="matrix(-0.02303994,0,0,0.01470022,21.62311,37.040176)" gradientUnits="userSpaceOnUse" xlink:href="#linearGradient5060"/><linearGradient id="linearGradient3118" x1="302.857" x2="302.857" y1="366.648" y2="609.505" gradientTransform="matrix(0.06732488,0,0,0.01470022,-0.3411391,37.040146)" gradientUnits="userSpaceOnUse" xlink:href="#linearGradient5048"/><linearGradient id="linearGradient3170" x1="-51.786" x2="-51.786" y1="50.786" y2="2.906" gradientTransform="matrix(0.80749686,0,0,0.89471714,59.410232,-2.9773433)" gradientUnits="userSpaceOnUse" xlink:href="#linearGradient3104-6"/><linearGradient id="linearGradient2867-449-88-871-390-598-476-591-434-148-57-177-8-3"><stop id="stop3750-1-0" offset="0" stop-color="#90dbec" stop-opacity="1"/><stop id="stop3752-3-7" offset=".262" stop-color="#55c1ec" stop-opacity="1"/><stop id="stop3754-1-8" offset=".705" stop-color="#3689e6" stop-opacity="1"/><stop id="stop3756-1-6" offset="1" stop-color="#2b63a0" stop-opacity="1"/></linearGradient><radialGradient id="radialGradient4200" cx="5.649" cy="9.957" r="12.672" fx="5.119" fy="9.957" gradientTransform="matrix(-1.5324784e-7,6.4910062,-7.6705026,-1.9484253e-7,99.953972,-58.68638)" gradientUnits="userSpaceOnUse" xlink:href="#linearGradient2867-449-88-871-390-598-476-591-434-148-57-177-8-3"/></defs><metadata id="metadata3906"/><rect id="rect2879" width="32.508" height="3.57" x="7.738" y="42.43" fill="url(#linearGradient3118)" fill-opacity="1" fill-rule="nonzero" stroke="none" stroke-width="1" display="inline" opacity=".3" overflow="visible" visibility="visible" style="marker:none"/><path id="path2881" fill="url(#radialGradient3115)" fill-opacity="1" fill-rule="nonzero" stroke="none" stroke-width="1" d="m 7.7378475,42.430102 c 0,0 0,3.569856 0,3.569856 -1.1865002,0.0067 -2.8683795,-0.799823 -2.8683795,-1.785158 0,-0.985333 1.3240446,-1.784697 2.8683795,-1.784698 z" display="inline" opacity=".3" overflow="visible" visibility="visible" style="marker:none"/><path id="path2883" fill="url(#radialGradient3112)" fill-opacity="1" fill-rule="nonzero" stroke="none" stroke-width="1" d="m 40.246148,42.430102 c 0,0 0,3.569856 0,3.569856 1.1865,0.0067 2.86838,-0.799823 2.86838,-1.785158 0,-0.985333 -1.324045,-1.784697 -2.86838,-1.784698 z" display="inline" opacity=".3" overflow="visible" visibility="visible" style="marker:none"/><path id="path4160" fill="url(#linearGradient3109)" fill-opacity="1" stroke="none" d="m 7,1.0000001 c 7.791126,0 33.999959,0.00274 33.999959,0.00274 L 41,44 C 41,44 18.333334,44 7,44 7,29.666666 7,15.333333 7,1 z" display="inline"/><path id="rect6741-1" fill="none" stroke="url(#linearGradient3106)" stroke-dasharray="none" stroke-dashoffset="0" stroke-linecap="round" stroke-linejoin="miter" stroke-miterlimit="4" stroke-opacity="1" stroke-width="1" d="m 40.5,43.5 -33,0 0,-41.9999998 33,0 z"/><path id="path4160-6-1" fill="none" stroke="url(#linearGradient3170)" stroke-dasharray="none" stroke-dashoffset="0" stroke-linecap="butt" stroke-linejoin="round" stroke-miterlimit="4" stroke-opacity="1" stroke-width="1" d="m 6.4999605,0.4999623 c 8.0202885,0 35.0000415,0.00298 35.0000415,0.00298 l 3.7e-5,43.9970957 c 0,0 -23.333385,0 -35.0000785,0 0,-14.666738 0,-29.333326 0,-43.9998923 z" display="inline"/><path id="path4198" fill="url(#radialGradient4200)" fill-opacity="1" fill-rule="nonzero" stroke="none" stroke-dasharray="none" stroke-dashoffset="0" stroke-linecap="butt" stroke-linejoin="miter" stroke-miterlimit="4" stroke-opacity="1" stroke-width="1" d="M 25 12.966797 L 13 15.166016 L 13 31.300781 L 25 33.5 L 25 12.966797 z M 26 15.166016 L 26 17.367188 L 32.75 17.367188 L 32.75 18.099609 L 26 18.099609 L 26 19.566406 L 32.75 19.566406 L 32.75 20.300781 L 26 20.300781 L 26 21.767578 L 32.75 21.767578 L 32.75 22.5 L 26 22.5 L 26 23.966797 L 32.75 23.966797 L 32.75 24.699219 L 26 24.699219 L 26 26.166016 L 32.75 26.166016 L 32.75 26.900391 L 26 26.900391 L 26 28.367188 L 32.75 28.367188 L 32.75 29.099609 L 26 29.099609 L 26 31.300781 L 35 31.300781 L 35 15.166016 L 26 15.166016 z M 21.560547 19.498047 L 22.242188 19.498047 C 22.86937 19.498047 22.909195 19.542137 22.837891 19.865234 C 22.795441 20.057594 22.437389 21.765735 22.044922 23.667969 L 21.337891 27.128906 L 20.609375 27.128906 C 20.212449 27.128906 19.89042 27.105354 19.882812 27.083984 C 19.875212 27.062614 19.646742 25.930399 19.375 24.5625 C 19.103258 23.194602 18.844827 22.164729 18.800781 22.292969 C 18.756731 22.421209 18.526488 23.547413 18.294922 24.769531 L 17.875 26.992188 L 17.212891 26.945312 L 16.529297 26.900391 L 15.978516 23.851562 C 15.67083 22.184435 15.379478 20.640273 15.337891 20.414062 C 15.269091 20.0398 15.315894 19.992405 15.800781 19.933594 C 16.476391 19.851654 16.505903 19.924594 16.904297 22.615234 C 17.074496 23.764741 17.21324 24.72211 17.236328 24.746094 C 17.259418 24.770084 17.499922 23.680044 17.763672 22.339844 C 18.027422 20.999643 18.324105 19.862014 18.425781 19.794922 C 18.718406 19.60183 19.540645 19.651271 19.617188 19.865234 C 19.655417 19.972101 19.893105 21.127862 20.125 22.431641 C 20.512975 24.612947 20.785933 25.406243 20.787109 24.355469 C 20.78756 23.9358 21.096917 21.932138 21.404297 20.322266 L 21.560547 19.498047 z" clip-rule="nonzero" color="#000" color-interpolation="sRGB" color-interpolation-filters="linearRGB" color-rendering="auto" display="inline" enable-background="accumulate" image-rendering="auto" opacity="1" overflow="visible" shape-rendering="auto" text-rendering="auto" visibility="visible" style="isolation:auto;mix-blend-mode:normal;solid-color:#000;solid-opacity:1;marker:none"/></svg>