<svg xmlns="http://www.w3.org/2000/svg" xmlns:svg="http://www.w3.org/2000/svg" xmlns:xlink="http://www.w3.org/1999/xlink" id="svg11300" width="48" height="48" display="inline" enable-background="new" version="1.0" viewBox="0 0 48 48"><metadata id="metadata155"/><title id="title4162">elementary Icon Template</title><defs id="defs3"><linearGradient id="linearGradient10457"><stop id="stop10453" offset="0" stop-color="#000" stop-opacity="1"/><stop id="stop10455" offset="1" stop-color="#000" stop-opacity="0"/></linearGradient><linearGradient id="linearGradient3977"><stop id="stop3979" offset="0" stop-color="#fff" stop-opacity="1"/><stop id="stop3981" offset="0" stop-color="#fff" stop-opacity=".235"/><stop id="stop3983" offset="1" stop-color="#fff" stop-opacity=".157"/><stop id="stop3985" offset="1" stop-color="#fff" stop-opacity=".392"/></linearGradient><linearGradient id="linearGradient3600"><stop id="stop3602" offset="0" stop-color="#f4f4f4" stop-opacity="1"/><stop id="stop3604" offset="1" stop-color="#dbdbdb" stop-opacity="1"/></linearGradient><linearGradient id="linearGradient5048"><stop id="stop5050" offset="0" stop-color="#000" stop-opacity="0"/><stop id="stop5056" offset=".5" stop-color="#000" stop-opacity="1"/><stop id="stop5052" offset="1" stop-color="#000" stop-opacity="0"/></linearGradient><linearGradient id="linearGradient3104-6"><stop id="stop3106-3" offset="0" stop-color="#000" stop-opacity=".318"/><stop id="stop3108-9" offset="1" stop-color="#000" stop-opacity=".24"/></linearGradient><linearGradient id="linearGradient3106" x1="24" x2="24" y1="5.94" y2="42.111" gradientTransform="matrix(0.89189189,0,0,1.1351351,130.72513,158.25677)" gradientUnits="userSpaceOnUse" xlink:href="#linearGradient3977"/><linearGradient id="linearGradient3109" x1="25.132" x2="25.132" y1=".985" y2="47.013" gradientTransform="matrix(0.97142632,0,0,0.93431938,128.8163,161.643)" gradientUnits="userSpaceOnUse" xlink:href="#linearGradient3600"/><linearGradient id="linearGradient3118" x1="302.857" x2="302.857" y1="366.648" y2="609.505" gradientTransform="matrix(0.06627219,0,0,0.01647059,128.04733,198.9611)" gradientUnits="userSpaceOnUse" xlink:href="#linearGradient5048"/><linearGradient id="linearGradient3170" x1="-51.786" x2="-51.786" y1="50.786" y2="2.906" gradientTransform="matrix(0.80749686,0,0,0.89471714,187.54076,160.02266)" gradientUnits="userSpaceOnUse" xlink:href="#linearGradient3104-6"/><radialGradient id="radialGradient7062" cx="605.714" cy="486.648" r="117.143" fx="605.714" fy="486.648" gradientTransform="matrix(-0.02506223,0,0,0.01647136,151.10402,198.96068)" gradientUnits="userSpaceOnUse" xlink:href="#linearGradient10457"/><radialGradient id="radialGradient7066" cx="605.714" cy="486.648" r="117.143" fx="605.714" fy="486.648" gradientTransform="matrix(0.02506223,0,0,0.01647136,152.89598,198.96068)" gradientUnits="userSpaceOnUse" xlink:href="#linearGradient10457"/></defs><g id="g153" transform="translate(-128,-163)"><path d="m 136,205.00001 v 3.99994 c -1.29065,0.008 -3.12015,-0.8962 -3.12015,-2.00025 0,-1.10405 1.44026,-1.99969 3.12015,-1.99969 z" style="marker:none" id="path7060" fill="url(#radialGradient7062)" fill-opacity="1" fill-rule="nonzero" stroke="none" stroke-width="1" display="inline" opacity=".15" overflow="visible" visibility="visible"/><rect id="rect2879-9" width="32" height="4" x="136" y="205" fill="url(#linearGradient3118)" fill-opacity="1" fill-rule="nonzero" stroke="none" stroke-width="1" display="inline" opacity=".15" overflow="visible" visibility="visible" style="marker:none"/><path d="m 168,205.00001 v 3.99994 c 1.29065,0.008 3.12015,-0.8962 3.12015,-2.00025 0,-1.10405 -1.44026,-1.99969 -3.12015,-1.99969 z" style="marker:none" id="path7064" fill="url(#radialGradient7066)" fill-opacity="1" fill-rule="nonzero" stroke="none" stroke-width="1" display="inline" opacity=".15" overflow="visible" visibility="visible"/><path id="path4160-89" fill="url(#linearGradient3109)" fill-opacity="1" stroke="none" d="m 135.13053,164 c 7.79113,0 33.99996,0.003 33.99996,0.003 l 4e-5,42.99726 h -34 v -43 z" display="inline"/><path id="rect6741-1-73" fill="none" stroke="url(#linearGradient3106)" stroke-dasharray="none" stroke-dashoffset="0" stroke-linecap="round" stroke-linejoin="miter" stroke-miterlimit="4" stroke-opacity="1" stroke-width="1" d="m 168.63053,206.5 h -33 v -42 h 33 z"/><path id="path4160-6-1-6" fill="none" stroke="url(#linearGradient3170)" stroke-dasharray="none" stroke-dashoffset="0" stroke-linecap="butt" stroke-linejoin="round" stroke-miterlimit="4" stroke-opacity="1" stroke-width="1" d="m 134.63049,163.49996 c 8.02029,0 35.00004,0.003 35.00004,0.003 l 4e-5,43.9971 h -35.00008 v -43.99989 z" display="inline"/><path id="path10725" fill="#68b723" fill-opacity="1" fill-rule="nonzero" stroke="none" stroke-width="1" d="M 23 20 L 23 23 L 25 23 L 25 20 L 23 20 z M 25 23 L 25 26 L 23 26 L 23 23 L 20 23 L 20 26 L 19.714844 26 L 18 26 L 14 26 L 24 38.919922 L 34 26 L 31.714844 26 L 30 26 L 28.287109 26.001953 L 28.287109 26 L 28 26 L 28 23 L 25 23 z" color="#bebebe" display="inline" enable-background="accumulate" overflow="visible" transform="translate(128,163)" visibility="visible" style="marker:none"/></g><path style="marker:none" id="rect867" fill="#68b723" fill-opacity="1" stroke="none" stroke-opacity="1" stroke-width="2" d="M 23 8 L 23 11 L 25 11 L 25 8 L 23 8 z M 25 11 L 25 14 L 28 14 L 28 11 L 25 11 z M 25 14 L 23 14 L 23 17 L 25 17 L 25 14 z M 23 14 L 23 11 L 20 11 L 20 14 L 23 14 z" opacity=".2" vector-effect="none"/><path style="marker:none" id="rect875" fill="#68b723" fill-opacity="1" stroke="none" stroke-opacity="1" stroke-width="2" d="M 20 14 L 20 17 L 23 17 L 23 14 L 20 14 z M 23 17 L 23 20 L 25 20 L 28 20 L 28 17 L 28 14 L 25 14 L 25 17 L 23 17 z M 23 20 L 20 20 L 20 23 L 23 23 L 23 20 z" opacity=".6" vector-effect="none"/></svg>