<svg xmlns="http://www.w3.org/2000/svg" xmlns:svg="http://www.w3.org/2000/svg" xmlns:xlink="http://www.w3.org/1999/xlink" id="svg4045" width="48" height="48" version="1.1"><defs id="defs4047"><linearGradient id="linearGradient4405"><stop id="stop4407" offset="0" stop-color="#fff" stop-opacity="1"/><stop id="stop4409" offset="0" stop-color="#fff" stop-opacity=".235"/><stop id="stop4411" offset="1" stop-color="#fff" stop-opacity=".157"/><stop id="stop4413" offset="1" stop-color="#fff" stop-opacity=".392"/></linearGradient><linearGradient id="linearGradient2867-449-88-871-390-598-476-591-434-148-57-177-641-289-620-227-114-444-680-744-8"><stop id="stop5430-8" offset="0" stop-color="#5f5f5f" stop-opacity="1"/><stop id="stop5432-3" offset=".262" stop-color="#4f4f4f" stop-opacity="1"/><stop id="stop5434-1" offset=".705" stop-color="#3b3b3b" stop-opacity="1"/><stop id="stop5436-8" offset="1" stop-color="#2b2b2b" stop-opacity="1"/></linearGradient><linearGradient id="linearGradient3707-319-631-407-324-616-674-812-821-107-178-392-400-6"><stop id="stop5440-4" offset="0" stop-color="#272727" stop-opacity="1"/><stop id="stop5442-3" offset="1" stop-color="#454545" stop-opacity="1"/></linearGradient><linearGradient id="linearGradient2346"><stop id="stop2348" offset="0" stop-color="#eee" stop-opacity="1"/><stop id="stop2350" offset="1" stop-color="#d9d9da" stop-opacity="1"/></linearGradient><linearGradient id="linearGradient3707-319-631-407-324-616-674-812-821-107-178-392-400-6-2"><stop id="stop5440-4-8" offset="0" stop-color="#272727" stop-opacity="1"/><stop id="stop5442-3-8" offset="1" stop-color="#454545" stop-opacity="1"/></linearGradient><radialGradient id="radialGradient3013" cx="4.993" cy="43.5" r="2.5" fx="4.993" fy="43.5" gradientTransform="matrix(2.003784,0,0,1.4,27.98813,-17.4)" gradientUnits="userSpaceOnUse" xlink:href="#linearGradient3688-166-749"/><linearGradient id="linearGradient3688-166-749"><stop id="stop2883" offset="0" stop-color="#181818" stop-opacity="1"/><stop id="stop2885" offset="1" stop-color="#181818" stop-opacity="0"/></linearGradient><radialGradient id="radialGradient3015" cx="4.993" cy="43.5" r="2.5" fx="4.993" fy="43.5" gradientTransform="matrix(2.003784,0,0,1.4,-20.01187,-104.4)" gradientUnits="userSpaceOnUse" xlink:href="#linearGradient3688-464-309"/><linearGradient id="linearGradient3688-464-309"><stop id="stop2889" offset="0" stop-color="#181818" stop-opacity="1"/><stop id="stop2891" offset="1" stop-color="#181818" stop-opacity="0"/></linearGradient><linearGradient id="linearGradient3702-501-757"><stop id="stop2895" offset="0" stop-color="#181818" stop-opacity="0"/><stop id="stop2897" offset=".5" stop-color="#181818" stop-opacity="1"/><stop id="stop2899" offset="1" stop-color="#181818" stop-opacity="0"/></linearGradient><linearGradient id="linearGradient4043" x1="25.058" x2="25.058" y1="47.028" y2="39.999" gradientUnits="userSpaceOnUse" xlink:href="#linearGradient3702-501-757"/><linearGradient id="linearGradient3072" x1="24" x2="24" y1="5.974" y2="42.026" gradientTransform="matrix(0.89189189,0,0,1.0540541,2.5945964,-1.2972859)" gradientUnits="userSpaceOnUse" xlink:href="#linearGradient4405"/><radialGradient id="radialGradient3075" cx="7.496" cy="8.45" r="20" fx="7.496" fy="8.45" gradientTransform="matrix(1.9428467e-8,2.4568358,-2.4722567,-4.5264291e-8,46.890103,-14.303252)" gradientUnits="userSpaceOnUse" xlink:href="#linearGradient2867-449-88-871-390-598-476-591-434-148-57-177-641-289-620-227-114-444-680-744-8"/><linearGradient id="linearGradient3077" x1="24" x2="24" y1="44" y2="3.899" gradientTransform="matrix(1,0,0,1.0512821,2.0000013,-1.2307699)" gradientUnits="userSpaceOnUse" xlink:href="#linearGradient3707-319-631-407-324-616-674-812-821-107-178-392-400-6"/><linearGradient id="linearGradient3085" x1="10.654" x2="10.654" y1="1" y2="3" gradientUnits="userSpaceOnUse" xlink:href="#linearGradient2346"/><linearGradient id="linearGradient3087" x1="24" x2="24" y1="44" y2="3.899" gradientTransform="matrix(1,0,0,0.10256346,2.0002611,0.03848905)" gradientUnits="userSpaceOnUse" xlink:href="#linearGradient3707-319-631-407-324-616-674-812-821-107-178-392-400-6-2"/><linearGradient id="linearGradient4280"><stop id="stop4282" offset="0" stop-color="#9bdb4d" stop-opacity="1"/><stop id="stop4284" offset="1" stop-color="#68b723" stop-opacity="1"/></linearGradient><linearGradient id="linearGradient4323"><stop id="stop4325" offset="0" stop-color="#fafafa" stop-opacity="1"/><stop id="stop4327" offset="1" stop-color="#d4d4d4" stop-opacity="1"/></linearGradient><linearGradient id="linearGradient4336" x1="86.433" x2="86.433" y1="12.493" y2="53.685" gradientTransform="translate(-63.839543,-9.1317816)" gradientUnits="userSpaceOnUse" xlink:href="#linearGradient4280"/><linearGradient id="linearGradient4361" x1="61.306" x2="61.306" y1="7.659" y2="8.542" gradientTransform="matrix(1.3484995,0,0,2.0418357,-62.554774,-14.650115)" gradientUnits="userSpaceOnUse" xlink:href="#linearGradient4323"/></defs><metadata id="metadata4050"/><g id="g3712" opacity=".4" transform="matrix(1.0526316,0,0,0.57142859,-1.2631579,19.142856)"><rect id="rect2801" width="5" height="7" x="38" y="40" fill="url(#radialGradient3013)" fill-opacity="1" stroke="none"/><rect id="rect3696" width="5" height="7" x="-10" y="-47" fill="url(#radialGradient3015)" fill-opacity="1" stroke="none" transform="scale(-1,-1)"/><rect id="rect3700" width="28" height="7" x="10" y="40" fill="url(#linearGradient4043)" fill-opacity="1" stroke="none"/></g><path id="path2723" fill="url(#linearGradient4361)" fill-opacity="1" fill-rule="nonzero" stroke="#206b00" stroke-dasharray="none" stroke-dashoffset="0" stroke-linecap="butt" stroke-linejoin="round" stroke-miterlimit="0" stroke-opacity=".498" stroke-width="1.017" d="M 40.838991,3.217154 C 40.543588,2.2259354 40.727705,1.4453462 40.56455,0.49999976 l -30.239763,0 0.178478,3.00000004" clip-rule="nonzero" color="#000" color-interpolation="sRGB" color-interpolation-filters="linearRGB" color-rendering="auto" display="inline" enable-background="accumulate" image-rendering="auto" opacity="1" overflow="visible" shape-rendering="auto" text-rendering="auto" visibility="visible" style="isolation:auto;mix-blend-mode:normal;solid-color:#000;solid-opacity:1;filter-blend-mode:normal;filter-gaussianBlur-deviation:0"/><path id="rect5505-21-3-9" fill="url(#linearGradient3085)" fill-opacity="1" fill-rule="nonzero" stroke="url(#linearGradient3087)" stroke-dasharray="none" stroke-dashoffset="0" stroke-linecap="round" stroke-linejoin="round" stroke-miterlimit="4" stroke-opacity="1" stroke-width="1" d="m 11.50026,4.4999996 -4.0000002,0 c -0.5708481,0 -1,-0.042333 -1,-0.09756 l 0,-2.7964211 c 0,-0.88791952 0.5590322,-1.10599346 1.2908943,-1.10599346 l 3.7091059,0" color="#000" display="inline" enable-background="accumulate" overflow="visible" visibility="visible" style="marker:none"/><rect clip-rule="nonzero" style="isolation:auto;mix-blend-mode:normal;solid-color:#000;solid-opacity:1;filter-blend-mode:normal;filter-gaussianBlur-deviation:0" id="rect2719" width="33.978" height="40.981" x="7.513" y="3.51" fill="url(#linearGradient4336)" fill-opacity="1" fill-rule="nonzero" stroke="#206b00" stroke-dasharray="none" stroke-dashoffset="0" stroke-linecap="round" stroke-linejoin="round" stroke-miterlimit="0" stroke-opacity=".498" stroke-width="1.019" color="#000" color-interpolation="sRGB" color-interpolation-filters="linearRGB" color-rendering="auto" display="inline" enable-background="accumulate" image-rendering="auto" opacity="1" overflow="visible" rx="1" ry="1" shape-rendering="auto" text-rendering="auto" visibility="visible"/><path id="rect5505-21-3" fill="url(#radialGradient3075)" fill-opacity="1" fill-rule="nonzero" stroke="url(#linearGradient3077)" stroke-dasharray="none" stroke-dashoffset="0" stroke-linecap="round" stroke-linejoin="round" stroke-miterlimit="4" stroke-opacity="1" stroke-width="1" d="m 11.5,3.4999998 c 0,0 0,28.5091172 0,41.0000002 l -4,0 c -0.5708481,0 -1,-0.43395 -1,-1 l 0,-40.0000002 z" color="#000" display="inline" enable-background="accumulate" overflow="visible" visibility="visible" style="marker:none"/><rect id="rect6741-0" width="33" height="39" x="7.5" y="4.5" fill="none" stroke="url(#linearGradient3072)" stroke-dasharray="none" stroke-dashoffset="0" stroke-linecap="round" stroke-linejoin="round" stroke-miterlimit="4" stroke-opacity="1" stroke-width="1" opacity=".3"/><path color="#000" style="isolation:auto;mix-blend-mode:normal;solid-color:#000;solid-opacity:1" id="path4401" fill="#206b00" fill-opacity="1" fill-rule="nonzero" stroke-dasharray="none" stroke-dashoffset="0" stroke-linecap="butt" stroke-linejoin="miter" stroke-miterlimit="4" stroke-opacity="1" stroke-width="1" d="m 26,13.990234 c -0.550693,0 -1.106722,0.216097 -1.523438,0.632813 l -8.853515,8.853515 c -0.833666,0.833664 -0.835123,2.212994 -0.002,3.046876 a 1.0092828,1.0092828 0 0 0 0.002,0 l 8.853515,8.853515 c 0.83326,0.83326 2.213233,0.83284 3.046876,0 l 8.853515,-8.853515 a 1.0092828,1.0092828 0 0 0 0.002,0 c 0.83317,-0.833882 0.831713,-2.213212 -0.002,-3.046876 l -1.285156,-1.285156 a 1.0092828,1.0092828 0 0 0 -1.425781,0 L 26,29.859375 21.140625,25 26,20.140625 l 0.669922,0.669922 -3.478516,3.476562 a 1.0092828,1.0092828 0 0 0 0,1.427735 l 2.095703,2.09375 a 1.0092828,1.0092828 0 0 0 1.425782,-0.002 l 6.285156,-6.283203 a 1.0092828,1.0092828 0 0 0 0,-1.425782 L 27.525391,14.623047 C 27.108479,14.205779 26.550693,13.990234 26,13.990234 Z" clip-rule="nonzero" color-interpolation="sRGB" color-interpolation-filters="linearRGB" color-rendering="auto" display="inline" enable-background="accumulate" image-rendering="auto" opacity=".05" overflow="visible" shape-rendering="auto" text-rendering="auto" visibility="visible"/><path color="#000" style="isolation:auto;mix-blend-mode:normal;solid-color:#000;solid-opacity:1;filter-blend-mode:normal;filter-gaussianBlur-deviation:0" id="path3859" fill="#206b00" fill-opacity="1" fill-rule="nonzero" stroke-dasharray="none" stroke-dashoffset="0" stroke-linecap="butt" stroke-linejoin="miter" stroke-miterlimit="4" stroke-opacity="1" stroke-width="1" d="m 25.999777,31.284779 -6.284715,-6.285225 6.284715,-6.284333 2.095075,2.094693 -4.19015,4.18964 2.094948,2.095075 6.284714,-6.284333 -5.474721,-5.474721 c -0.447051,-0.447433 -1.172171,-0.447433 -1.619605,0 l -8.85475,8.85475 c -0.447051,0.447051 -0.447051,1.172171 0,1.619605 l 8.854878,8.854495 c 0.447433,0.447433 1.172553,0.447433 1.619605,0 l 8.854877,-8.854495 c 0.447051,-0.447434 0.447051,-1.172554 0,-1.619605 l -1.285464,-1.285081 -8.379407,8.379535 z" clip-rule="nonzero" color-interpolation="sRGB" color-interpolation-filters="linearRGB" color-rendering="auto" display="inline" enable-background="accumulate" image-rendering="auto" opacity=".15" overflow="visible" shape-rendering="auto" text-rendering="auto" visibility="visible"/><path id="path10" fill="#fff" fill-opacity="1" d="m 25.999777,30.284779 -6.284715,-6.285225 6.284715,-6.284333 2.095075,2.094693 -4.19015,4.18964 2.094948,2.095075 6.284714,-6.284333 -5.474721,-5.474721 c -0.447051,-0.447433 -1.172171,-0.447433 -1.619605,0 l -8.85475,8.85475 c -0.447051,0.447051 -0.447051,1.172171 0,1.619605 l 8.854878,8.854495 c 0.447433,0.447433 1.172553,0.447433 1.619605,0 l 8.854877,-8.854495 c 0.447051,-0.447434 0.447051,-1.172554 0,-1.619605 l -1.285464,-1.285081 -8.379407,8.379535 z"/></svg>