<svg xmlns="http://www.w3.org/2000/svg" xmlns:svg="http://www.w3.org/2000/svg" xmlns:xlink="http://www.w3.org/1999/xlink" id="svg3901" width="48" height="48" version="1.1"><defs id="defs3903"><linearGradient id="linearGradient3403"><stop id="stop3405" offset="0" stop-color="#fff" stop-opacity="1"/><stop id="stop3407" offset="0" stop-color="#fff" stop-opacity=".235"/><stop id="stop3409" offset="1" stop-color="#fff" stop-opacity=".157"/><stop id="stop3411" offset="1" stop-color="#fff" stop-opacity=".392"/></linearGradient><linearGradient id="linearGradient3600"><stop id="stop3602" offset="0" stop-color="#f4f4f4" stop-opacity="1"/><stop id="stop3604" offset="1" stop-color="#dbdbdb" stop-opacity="1"/></linearGradient><linearGradient id="linearGradient5060"><stop id="stop5062" offset="0" stop-color="#000" stop-opacity="1"/><stop id="stop5064" offset="1" stop-color="#000" stop-opacity="0"/></linearGradient><linearGradient id="linearGradient5048"><stop id="stop5050" offset="0" stop-color="#000" stop-opacity="0"/><stop id="stop5056" offset=".5" stop-color="#000" stop-opacity="1"/><stop id="stop5052" offset="1" stop-color="#000" stop-opacity="0"/></linearGradient><linearGradient id="linearGradient3104-6"><stop id="stop3106-3" offset="0" stop-color="#000" stop-opacity=".318"/><stop id="stop3108-9" offset="1" stop-color="#000" stop-opacity=".24"/></linearGradient><linearGradient id="linearGradient3106" x1="24" x2="24" y1="5.94" y2="42.111" gradientTransform="matrix(0.89189189,0,0,1.1351351,2.5945999,-4.7432314)" gradientUnits="userSpaceOnUse" xlink:href="#linearGradient3403"/><linearGradient id="linearGradient3109" x1="25.132" x2="25.132" y1=".985" y2="47.013" gradientTransform="matrix(0.97142632,0,0,0.93431938,0.68576678,-1.3569996)" gradientUnits="userSpaceOnUse" xlink:href="#linearGradient3600"/><radialGradient id="radialGradient3112" cx="605.714" cy="486.648" r="117.143" fx="605.714" fy="486.648" gradientTransform="matrix(0.02303995,0,0,0.01470022,26.360882,37.040176)" gradientUnits="userSpaceOnUse" xlink:href="#linearGradient5060"/><radialGradient id="radialGradient3115" cx="605.714" cy="486.648" r="117.143" fx="605.714" fy="486.648" gradientTransform="matrix(-0.02303994,0,0,0.01470022,21.62311,37.040176)" gradientUnits="userSpaceOnUse" xlink:href="#linearGradient5060"/><linearGradient id="linearGradient3118" x1="302.857" x2="302.857" y1="366.648" y2="609.505" gradientTransform="matrix(0.06732488,0,0,0.01470022,-0.3411391,37.040146)" gradientUnits="userSpaceOnUse" xlink:href="#linearGradient5048"/><linearGradient id="linearGradient3170" x1="-51.786" x2="-51.786" y1="50.786" y2="2.906" gradientTransform="matrix(0.80749686,0,0,0.89471714,59.410232,-2.9773433)" gradientUnits="userSpaceOnUse" xlink:href="#linearGradient3104-6"/><linearGradient id="linearGradient2867-449-88-871-390-598-476-591-434-148-57-177-8-3"><stop id="stop3750-1-0" offset="0" stop-color="#90dbec" stop-opacity="1"/><stop id="stop3752-3-7" offset=".262" stop-color="#55c1ec" stop-opacity="1"/><stop id="stop3754-1-8" offset=".705" stop-color="#3689e6" stop-opacity="1"/><stop id="stop3756-1-6" offset="1" stop-color="#2b63a0" stop-opacity="1"/></linearGradient><radialGradient id="radialGradient4200" cx="5.649" cy="9.957" r="12.672" fx="5.119" fy="9.957" gradientTransform="matrix(-1.5324784e-7,6.4910062,-7.6705026,-1.9484253e-7,99.953972,-58.68638)" gradientUnits="userSpaceOnUse" xlink:href="#linearGradient2867-449-88-871-390-598-476-591-434-148-57-177-8-3"/><radialGradient id="radialGradient3988-4" cx="8.276" cy="9.994" r="12.672" fx="8.276" fy="9.994" gradientTransform="matrix(0,7.3972221,-9.0814262,0,114.84104,-71.20314)" gradientUnits="userSpaceOnUse" xlink:href="#linearGradient3242-4"/><linearGradient id="linearGradient3242-4"><stop id="stop3244-7" offset="0" stop-color="#f89b7e" stop-opacity="1"/><stop id="stop3246-1" offset=".262" stop-color="#e35d4f" stop-opacity="1"/><stop id="stop3248-5" offset=".661" stop-color="#c6262e" stop-opacity="1"/><stop id="stop3250-7" offset="1" stop-color="#690b2c" stop-opacity="1"/></linearGradient></defs><metadata id="metadata3906"/><rect id="rect2879" width="32.508" height="3.57" x="7.738" y="42.43" fill="url(#linearGradient3118)" fill-opacity="1" fill-rule="nonzero" stroke="none" stroke-width="1" display="inline" opacity=".3" overflow="visible" visibility="visible" style="marker:none"/><path id="path2881" fill="url(#radialGradient3115)" fill-opacity="1" fill-rule="nonzero" stroke="none" stroke-width="1" d="m 7.7378475,42.430102 c 0,0 0,3.569856 0,3.569856 -1.1865002,0.0067 -2.8683795,-0.799823 -2.8683795,-1.785158 0,-0.985333 1.3240446,-1.784697 2.8683795,-1.784698 z" display="inline" opacity=".3" overflow="visible" visibility="visible" style="marker:none"/><path id="path2883" fill="url(#radialGradient3112)" fill-opacity="1" fill-rule="nonzero" stroke="none" stroke-width="1" d="m 40.246148,42.430102 c 0,0 0,3.569856 0,3.569856 1.1865,0.0067 2.86838,-0.799823 2.86838,-1.785158 0,-0.985333 -1.324045,-1.784697 -2.86838,-1.784698 z" display="inline" opacity=".3" overflow="visible" visibility="visible" style="marker:none"/><path id="path4160" fill="url(#linearGradient3109)" fill-opacity="1" stroke="none" d="m 7,1.0000001 c 7.791126,0 33.999959,0.00274 33.999959,0.00274 L 41,44 C 41,44 18.333334,44 7,44 7,29.666666 7,15.333333 7,1 z" display="inline"/><path id="rect6741-1" fill="none" stroke="url(#linearGradient3106)" stroke-dasharray="none" stroke-dashoffset="0" stroke-linecap="round" stroke-linejoin="miter" stroke-miterlimit="4" stroke-opacity="1" stroke-width="1" d="m 40.5,43.5 -33,0 0,-41.9999998 33,0 z"/><path id="path4160-6-1" fill="none" stroke="url(#linearGradient3170)" stroke-dasharray="none" stroke-dashoffset="0" stroke-linecap="butt" stroke-linejoin="round" stroke-miterlimit="4" stroke-opacity="1" stroke-width="1" d="m 6.4999605,0.4999623 c 8.0202885,0 35.0000415,0.00298 35.0000415,0.00298 l 3.7e-5,43.9970957 c 0,0 -23.333385,0 -35.0000785,0 0,-14.666738 0,-29.333326 0,-43.9998923 z" display="inline"/><path id="path4255" fill="url(#radialGradient3988-4)" fill-opacity="1" fill-rule="nonzero" stroke="none" stroke-dasharray="none" stroke-dashoffset="0" stroke-linecap="butt" stroke-linejoin="miter" stroke-miterlimit="4" stroke-opacity="1" stroke-width="1" d="m 25,12.966667 -12,2.2 L 13,31.3 25,33.5 Z M 27.872917,15.9 c -0.234585,0.0023 -0.472916,0.0139 -0.710417,0.02292 l -0.9625,0.02292 0,1.85625 0,1.85625 0.366667,0.04583 c 0.730987,0.09177 2.450668,0.06425 3.597916,-0.04583 3.086279,-0.296061 5.031624,-1.144029 4.697917,-2.03959 C 34.488109,16.614015 31.39169,15.869952 27.872917,15.9 Z M 35,18.420834 34.725,18.741667 c -0.362301,0.435563 -1.362486,0.899038 -2.589583,1.16875 -0.758197,0.166646 -1.577323,0.229727 -3.460417,0.275 l -2.475,0.04583 0,1.44375 0,1.420833 2.40625,-0.06875 c 1.906186,-0.04513 2.649537,-0.110459 3.50625,-0.297913 1.236179,-0.270484 2.199255,-0.659035 2.566667,-1.054167 L 34.93125,21.4 34.97708,19.910417 Z m -16.339583,1.283333 0.733333,0 c 0.610823,0 0.756184,0.02852 0.802083,0.183333 0.03051,0.102933 0.457688,1.682847 0.9625,3.50625 0.504812,1.823403 0.936929,3.363976 0.9625,3.4375 0.03388,0.09738 -0.127438,0.14365 -0.572916,0.1375 -0.336366,-0.0046 -0.664004,-0.04048 -0.733334,-0.06875 -0.0693,-0.02827 -0.194744,-0.410276 -0.297916,-0.847917 l -0.20625,-0.779166 -0.9625,0 -0.985417,0 -0.160417,0.710416 -0.1375,0.733334 -0.6875,0.02292 -0.664583,0.02292 0.04583,-0.183333 c 0.03219,-0.105869 0.409354,-1.449862 0.825,-2.979167 0.415646,-1.529306 0.828594,-3.014114 0.916667,-3.322916 z m 0.6875,1.65 c -0.03014,0.0084 -0.170874,0.47234 -0.320834,1.077083 -0.159947,0.645061 -0.312825,1.249149 -0.34375,1.352083 -0.0495,0.164725 0.03378,0.20625 0.641667,0.20625 l 0.6875,0 -0.320833,-1.260416 c -0.172385,-0.691129 -0.327162,-1.318135 -0.34375,-1.375 z M 35,21.8125 34.679167,22.15625 C 33.842539,23.062247 31.142496,23.632718 27.827083,23.6 l -1.558333,-0.02292 -0.04583,1.375 -0.02292,1.375 0.183333,0.06875 c 0.400693,0.120953 4.223999,-0.03325 5.179167,-0.20625 1.333387,-0.241508 2.555196,-0.654154 3.002083,-1.03125 L 34.93125,24.8375 34.97708,23.325 Z m 0,3.3 -0.320833,0.389583 c -0.781162,0.90001 -3.182169,1.430798 -6.554167,1.44375 l -1.925,0 0,1.397917 0,1.397917 0.572917,0.04583 c 1.160584,0.08213 1.583002,0.06367 3.002083,-0.04583 2.401496,-0.185319 4.235185,-0.673104 4.835417,-1.30625 l 0.320833,-0.34375 0.04583,-1.489584 z" clip-rule="nonzero" color="#000" color-interpolation="sRGB" color-interpolation-filters="linearRGB" color-rendering="auto" display="inline" enable-background="accumulate" image-rendering="auto" opacity="1" overflow="visible" shape-rendering="auto" text-rendering="auto" visibility="visible" style="isolation:auto;mix-blend-mode:normal;solid-color:#000;solid-opacity:1;marker:none"/></svg>