<svg xmlns="http://www.w3.org/2000/svg" xmlns:svg="http://www.w3.org/2000/svg" xmlns:xlink="http://www.w3.org/1999/xlink" id="svg3901" width="48" height="48" version="1.1"><defs id="defs3903"><linearGradient id="linearGradient3403"><stop id="stop3405" offset="0" stop-color="#fff" stop-opacity="1"/><stop id="stop3407" offset="0" stop-color="#fff" stop-opacity=".235"/><stop id="stop3409" offset="1" stop-color="#fff" stop-opacity=".157"/><stop id="stop3411" offset="1" stop-color="#fff" stop-opacity=".392"/></linearGradient><linearGradient id="linearGradient3600"><stop id="stop3602" offset="0" stop-color="#f4f4f4" stop-opacity="1"/><stop id="stop3604" offset="1" stop-color="#dbdbdb" stop-opacity="1"/></linearGradient><linearGradient id="linearGradient5060"><stop id="stop5062" offset="0" stop-color="#000" stop-opacity="1"/><stop id="stop5064" offset="1" stop-color="#000" stop-opacity="0"/></linearGradient><linearGradient id="linearGradient5048"><stop id="stop5050" offset="0" stop-color="#000" stop-opacity="0"/><stop id="stop5056" offset=".5" stop-color="#000" stop-opacity="1"/><stop id="stop5052" offset="1" stop-color="#000" stop-opacity="0"/></linearGradient><linearGradient id="linearGradient3104-6"><stop id="stop3106-3" offset="0" stop-color="#000" stop-opacity=".318"/><stop id="stop3108-9" offset="1" stop-color="#000" stop-opacity=".24"/></linearGradient><linearGradient id="linearGradient3106" x1="24" x2="24" y1="5.94" y2="42.111" gradientTransform="matrix(0.89189189,0,0,1.1351351,2.5945999,-4.7432314)" gradientUnits="userSpaceOnUse" xlink:href="#linearGradient3403"/><linearGradient id="linearGradient3109" x1="25.132" x2="25.132" y1=".985" y2="47.013" gradientTransform="matrix(0.97142632,0,0,0.93431938,0.68576678,-1.3569996)" gradientUnits="userSpaceOnUse" xlink:href="#linearGradient3600"/><radialGradient id="radialGradient3112" cx="605.714" cy="486.648" r="117.143" fx="605.714" fy="486.648" gradientTransform="matrix(0.02303995,0,0,0.01470022,26.360882,37.040176)" gradientUnits="userSpaceOnUse" xlink:href="#linearGradient5060"/><radialGradient id="radialGradient3115" cx="605.714" cy="486.648" r="117.143" fx="605.714" fy="486.648" gradientTransform="matrix(-0.02303994,0,0,0.01470022,21.62311,37.040176)" gradientUnits="userSpaceOnUse" xlink:href="#linearGradient5060"/><linearGradient id="linearGradient3118" x1="302.857" x2="302.857" y1="366.648" y2="609.505" gradientTransform="matrix(0.06732488,0,0,0.01470022,-0.3411391,37.040146)" gradientUnits="userSpaceOnUse" xlink:href="#linearGradient5048"/><linearGradient id="linearGradient3170" x1="-51.786" x2="-51.786" y1="50.786" y2="2.906" gradientTransform="matrix(0.80749686,0,0,0.89471714,59.410232,-2.9773433)" gradientUnits="userSpaceOnUse" xlink:href="#linearGradient3104-6"/><linearGradient id="linearGradient3052" x1="22.004" x2="22.004" y1="47.813" y2="3.364" gradientTransform="translate(-1.982096,-3.047074)" gradientUnits="userSpaceOnUse" xlink:href="#linearGradient3104-5"/><linearGradient id="linearGradient3104-5"><stop id="stop3106-2" offset="0" stop-color="#aaa" stop-opacity="1"/><stop id="stop3108-5" offset="1" stop-color="#c8c8c8" stop-opacity="1"/></linearGradient></defs><metadata id="metadata3906"/><rect id="rect2879" width="32.508" height="3.57" x="7.738" y="42.43" fill="url(#linearGradient3118)" fill-opacity="1" fill-rule="nonzero" stroke="none" stroke-width="1" display="inline" opacity=".3" overflow="visible" visibility="visible" style="marker:none"/><path id="path2881" fill="url(#radialGradient3115)" fill-opacity="1" fill-rule="nonzero" stroke="none" stroke-width="1" d="m 7.7378475,42.430102 c 0,0 0,3.569856 0,3.569856 -1.1865002,0.0067 -2.8683795,-0.799823 -2.8683795,-1.785158 0,-0.985333 1.3240446,-1.784697 2.8683795,-1.784698 z" display="inline" opacity=".3" overflow="visible" visibility="visible" style="marker:none"/><path id="path2883" fill="url(#radialGradient3112)" fill-opacity="1" fill-rule="nonzero" stroke="none" stroke-width="1" d="m 40.246148,42.430102 c 0,0 0,3.569856 0,3.569856 1.1865,0.0067 2.86838,-0.799823 2.86838,-1.785158 0,-0.985333 -1.324045,-1.784697 -2.86838,-1.784698 z" display="inline" opacity=".3" overflow="visible" visibility="visible" style="marker:none"/><path id="path4160" fill="url(#linearGradient3109)" fill-opacity="1" stroke="none" d="m 7,1.0000001 c 7.791126,0 33.999959,0.00274 33.999959,0.00274 L 41,44 C 41,44 18.333334,44 7,44 7,29.666666 7,15.333333 7,1 z" display="inline"/><path id="rect6741-1" fill="none" stroke="url(#linearGradient3106)" stroke-dasharray="none" stroke-dashoffset="0" stroke-linecap="round" stroke-linejoin="miter" stroke-miterlimit="4" stroke-opacity="1" stroke-width="1" d="m 40.5,43.5 -33,0 0,-41.9999998 33,0 z"/><path id="path4160-6-1" fill="none" stroke="url(#linearGradient3170)" stroke-dasharray="none" stroke-dashoffset="0" stroke-linecap="butt" stroke-linejoin="round" stroke-miterlimit="4" stroke-opacity="1" stroke-width="1" d="m 6.4999605,0.4999623 c 8.0202885,0 35.0000415,0.00298 35.0000415,0.00298 l 3.7e-5,43.9970957 c 0,0 -23.333385,0 -35.0000785,0 0,-14.666738 0,-29.333326 0,-43.9998923 z" display="inline"/><path font-style="normal" style="line-height:125%;-inkscape-font-specification:'Latin Modern Roman';text-align:start" id="path4447" fill="#1a1a1a" fill-opacity="1" stroke="none" d="m 27.62963,15.5 0,0.555555 0.37037,0 c 0.986149,0 1.325997,0.127591 1.666667,0.62963 l 3.296296,5 L 30,26.018518 c -0.25102,0.358601 -0.781663,1.185185 -2.592593,1.185185 l 0,0.555557 2,-0.07407 c 0.66341,0 1.650816,0.02028 2.296296,0.07407 l 0,-0.555557 c -0.824779,-0.01793 -1.148148,-0.529111 -1.148148,-0.851851 0,-0.16137 0.05969,-0.210177 0.185185,-0.407407 l 2.555557,-3.777778 2.814813,4.296296 c 0.03586,0.07171 0.111112,0.131395 0.111112,0.185185 0,0.21516 -0.414194,0.537625 -1.185185,0.555555 l 0,0.555557 c 0.627551,-0.05379 1.948289,-0.07407 2.62963,-0.07407 L 40,27.75926 l 0,-0.555557 -0.333333,0 c -0.932361,0 -1.327175,-0.110838 -1.703704,-0.666666 L 34.185185,20.833333 36.62963,17.24074 c 0.394461,-0.57376 1.03386,-1.167254 2.62963,-1.185185 l 0,-0.555555 -2,0.07407 c -0.717201,0 -1.579097,-0.02028 -2.296297,-0.07407 l 0,0.555555 c 0.7172,0.01793 1.111112,0.402426 1.111112,0.814815 0,0.179299 -0.02264,0.247215 -0.14815,0.444445 l -2.074073,3 -2.296297,-3.444445 c -0.03586,-0.05379 -0.11111,-0.18754 -0.11111,-0.25926 0,-0.21516 0.377157,-0.537624 1.148148,-0.555555 l 0,-0.555555 c -0.62755,0.05379 -1.948291,0.07407 -2.62963,0.07407 L 27.62963,15.5 Z M 8.333333,15.61111 8,19.648148 l 0.4444447,0 c 0.2510198,-2.886729 0.5147916,-3.481481 3.2222223,-3.481481 0.32274,0 0.783664,0.0012 0.962963,0.03703 0.376529,0.07171 0.407407,0.254278 0.407407,0.666667 l 0,9.444445 c 0,0.609619 -0.0063,0.888888 -1.888889,0.888888 l -0.740741,0 0,0.555557 c 0.735131,-0.05379 2.582628,-0.07407 3.407408,-0.07407 0.82478,0 2.672278,0.02028 3.407407,0.07407 l 0,-0.555557 -0.74074,0 c -1.882649,0 -1.851852,-0.279269 -1.851852,-0.888888 l 0,-9.444445 c 0,-0.358599 -0.02644,-0.594946 0.296295,-0.666667 0.197231,-0.03586 0.696368,-0.03703 1.037038,-0.03703 2.707428,0 2.971202,0.594752 3.222222,3.481481 l 0.444445,0 -0.333333,-4.037038 -10.962964,0 z m 9.703704,4.703705 0,0.555555 0.444445,0 c 1.380609,0 1.407408,0.169336 1.407408,0.814815 l 0,9.407408 c 0,0.645478 -0.02679,0.851852 -1.407408,0.851852 l -0.444445,0 0,0.555555 10.333333,0 0.777778,-4.62963 -0.481481,0 c -0.44825,2.761219 -0.841967,4.074075 -3.925927,4.074075 l -2.37037,0 c -0.842709,0 -0.888888,-0.149052 -0.888888,-0.740742 l 0,-4.777778 1.592593,0 c 1.739208,0 1.962962,0.587063 1.962962,2.111112 l 0.444445,0 0,-4.777777 -0.444445,0 c 0,1.541978 -0.223754,2.11111 -1.962962,2.11111 l -1.592593,0 0,-4.296295 c 0,-0.59169 0.04619,-0.703705 0.888888,-0.703705 l 2.296297,0 c 2.743288,0 3.231638,0.952175 3.518518,3.444445 l 0.444445,0 -0.51852,-4 -10.074073,0 z" font-family="Latin Modern Roman" font-size="15.128" font-stretch="normal" font-variant="normal" font-weight="normal" letter-spacing="0" opacity="1" text-anchor="start" word-spacing="0" writing-mode="lr-tb"/></svg>