<svg xmlns="http://www.w3.org/2000/svg" xmlns:svg="http://www.w3.org/2000/svg" xmlns:xlink="http://www.w3.org/1999/xlink" id="svg3901" width="48" height="48" version="1.1"><defs id="defs3903"><linearGradient id="linearGradient3403"><stop id="stop3405" offset="0" stop-color="#fff" stop-opacity="1"/><stop id="stop3407" offset="0" stop-color="#fff" stop-opacity=".235"/><stop id="stop3409" offset="1" stop-color="#fff" stop-opacity=".157"/><stop id="stop3411" offset="1" stop-color="#fff" stop-opacity=".392"/></linearGradient><linearGradient id="linearGradient3600"><stop id="stop3602" offset="0" stop-color="#f4f4f4" stop-opacity="1"/><stop id="stop3604" offset="1" stop-color="#dbdbdb" stop-opacity="1"/></linearGradient><linearGradient id="linearGradient5060"><stop id="stop5062" offset="0" stop-color="#000" stop-opacity="1"/><stop id="stop5064" offset="1" stop-color="#000" stop-opacity="0"/></linearGradient><linearGradient id="linearGradient5048"><stop id="stop5050" offset="0" stop-color="#000" stop-opacity="0"/><stop id="stop5056" offset=".5" stop-color="#000" stop-opacity="1"/><stop id="stop5052" offset="1" stop-color="#000" stop-opacity="0"/></linearGradient><linearGradient id="linearGradient3104-6"><stop id="stop3106-3" offset="0" stop-color="#000" stop-opacity=".318"/><stop id="stop3108-9" offset="1" stop-color="#000" stop-opacity=".24"/></linearGradient><linearGradient id="linearGradient3106" x1="24" x2="24" y1="5.94" y2="42.111" gradientTransform="matrix(0.89189189,0,0,1.1351351,2.5945999,-4.7432314)" gradientUnits="userSpaceOnUse" xlink:href="#linearGradient3403"/><linearGradient id="linearGradient3109" x1="25.132" x2="25.132" y1=".985" y2="47.013" gradientTransform="matrix(0.97142632,0,0,0.93431938,0.68576678,-1.3569996)" gradientUnits="userSpaceOnUse" xlink:href="#linearGradient3600"/><radialGradient id="radialGradient3112" cx="605.714" cy="486.648" r="117.143" fx="605.714" fy="486.648" gradientTransform="matrix(0.02303995,0,0,0.01470022,26.360882,37.040176)" gradientUnits="userSpaceOnUse" xlink:href="#linearGradient5060"/><radialGradient id="radialGradient3115" cx="605.714" cy="486.648" r="117.143" fx="605.714" fy="486.648" gradientTransform="matrix(-0.02303994,0,0,0.01470022,21.62311,37.040176)" gradientUnits="userSpaceOnUse" xlink:href="#linearGradient5060"/><linearGradient id="linearGradient3118" x1="302.857" x2="302.857" y1="366.648" y2="609.505" gradientTransform="matrix(0.06732488,0,0,0.01470022,-0.3411391,37.040146)" gradientUnits="userSpaceOnUse" xlink:href="#linearGradient5048"/><linearGradient id="linearGradient3170" x1="-51.786" x2="-51.786" y1="50.786" y2="2.906" gradientTransform="matrix(0.80749686,0,0,0.89471714,59.410232,-2.9773433)" gradientUnits="userSpaceOnUse" xlink:href="#linearGradient3104-6"/><linearGradient id="linearGradient1106"><stop id="stop1102" offset="0" stop-color="#abacae" stop-opacity="1"/><stop id="stop1104" offset="1" stop-color="#d4d4d4" stop-opacity="1"/></linearGradient><linearGradient id="linearGradient890"><stop id="stop886" offset="0" stop-color="#64baff" stop-opacity="1"/><stop id="stop888" offset="1" stop-color="#3689e6" stop-opacity="1"/></linearGradient><linearGradient id="linearGradient917" x1="29.944" x2="29.944" y1=".575" y2="34.109" gradientTransform="matrix(0.69999998,0,0,0.69999998,2.4000006,0.2000353)" gradientUnits="userSpaceOnUse" xlink:href="#linearGradient890"/><linearGradient id="linearGradient1108" x1="21.073" x2="21.073" y1="46.197" y2="1.417" gradientTransform="matrix(0.69999998,0,0,0.69999998,0.80000018,1.8000006)" gradientUnits="userSpaceOnUse" xlink:href="#linearGradient1106"/></defs><metadata id="metadata3906"/><rect id="rect2879" width="32.508" height="3.57" x="7.738" y="42.43" fill="url(#linearGradient3118)" fill-opacity="1" fill-rule="nonzero" stroke="none" stroke-width="1" display="inline" opacity=".3" overflow="visible" visibility="visible" style="marker:none"/><path id="path2881" fill="url(#radialGradient3115)" fill-opacity="1" fill-rule="nonzero" stroke="none" stroke-width="1" d="m 7.7378475,42.430102 c 0,0 0,3.569856 0,3.569856 -1.1865002,0.0067 -2.8683795,-0.799823 -2.8683795,-1.785158 0,-0.985333 1.3240446,-1.784697 2.8683795,-1.784698 z" display="inline" opacity=".3" overflow="visible" visibility="visible" style="marker:none"/><path id="path2883" fill="url(#radialGradient3112)" fill-opacity="1" fill-rule="nonzero" stroke="none" stroke-width="1" d="m 40.246148,42.430102 c 0,0 0,3.569856 0,3.569856 1.1865,0.0067 2.86838,-0.799823 2.86838,-1.785158 0,-0.985333 -1.324045,-1.784697 -2.86838,-1.784698 z" display="inline" opacity=".3" overflow="visible" visibility="visible" style="marker:none"/><path id="path4160" fill="url(#linearGradient3109)" fill-opacity="1" stroke="none" d="m 7,1.0000001 c 7.791126,0 33.999959,0.00274 33.999959,0.00274 L 41,44 C 41,44 18.333334,44 7,44 7,29.666666 7,15.333333 7,1 z" display="inline"/><path id="rect6741-1" fill="none" stroke="url(#linearGradient3106)" stroke-dasharray="none" stroke-dashoffset="0" stroke-linecap="round" stroke-linejoin="miter" stroke-miterlimit="4" stroke-opacity="1" stroke-width="1" d="m 40.5,43.5 -33,0 0,-41.9999998 33,0 z"/><path id="path4160-6-1" fill="none" stroke="url(#linearGradient3170)" stroke-dasharray="none" stroke-dashoffset="0" stroke-linecap="butt" stroke-linejoin="round" stroke-miterlimit="4" stroke-opacity="1" stroke-width="1" d="m 6.4999605,0.4999623 c 8.0202885,0 35.0000415,0.00298 35.0000415,0.00298 l 3.7e-5,43.9970957 c 0,0 -23.333385,0 -35.0000785,0 0,-14.666738 0,-29.333326 0,-43.9998923 z" display="inline"/><path id="rect1016" fill="url(#linearGradient1108)" fill-opacity="1" stroke="none" stroke-dasharray="none" stroke-dashoffset="0" stroke-linecap="butt" stroke-linejoin="round" stroke-miterlimit="4" stroke-opacity="1" stroke-width="1" d="m 13.4,20 h 11.2 c 0.775599,0 1.4,0.6244 1.4,1.399999 v 11.2 C 26,33.375599 25.375599,34 24.6,34 H 13.4 C 12.624401,34 12,33.3756 12,32.599999 v -11.2 C 12,20.6244 12.624401,20 13.4,20 Z" opacity="1" vector-effect="none" style="font-variation-settings:normal;marker:none"/><path id="path1033" fill="#555761" fill-opacity="1" stroke="none" stroke-dasharray="none" stroke-dashoffset="0" stroke-linecap="butt" stroke-linejoin="round" stroke-miterlimit="4" stroke-opacity="1" stroke-width="1" d="m 17.437278,22.074936 a 0.2207148,0.22190525 0 0 0 -0.212756,0.20418 c -0.0031,0.03731 -0.01479,0.146783 -0.03316,0.316687 -0.03303,0.269577 -0.0588,0.499921 -0.07737,0.690322 a 0.2207148,0.22190525 0 0 0 0,0.0014 l -0.03315,0.355579 a 0.2207148,0.22190525 0 0 0 0,0.0014 l -0.0055,0.05556 c -0.355504,0.02135 -0.718084,0.03611 -1.101077,0.03611 -0.29671,0 -0.597764,-0.0101 -0.902138,-0.03195 a 0.2207148,0.22190525 0 0 0 -0.23486,0.240294 l 0.07184,0.794496 a 0.2207148,0.22190525 0 0 0 0.205847,0.201403 c 0.125611,0.0079 0.287398,0.0125 0.489061,0.0125 0.438906,0 0.905117,-0.02478 1.380146,-0.05696 -0.0389,0.50861 -0.06885,0.982519 -0.08013,1.395924 -0.316278,0.177415 -0.597804,0.345 -0.799905,0.493088 a 0.2207148,0.22190525 0 0 0 -0.0027,0.0014 c -1.173401,0.88957 -1.795986,1.928458 -1.795986,3.077977 0,0.426069 0.09049,0.779236 0.305317,1.032012 0.21483,0.252776 0.543182,0.373635 0.921479,0.373635 0.521319,0 1.060673,-0.213786 1.610862,-0.551424 0.02637,0.163793 0.06178,0.381403 0.07322,0.445862 a 0.2207148,0.22190525 0 0 0 0.294265,0.169455 l 0.817864,-0.305576 a 0.2207148,0.22190525 0 0 0 0.135391,-0.265294 c -0.08454,-0.32038 -0.135925,-0.627894 -0.169929,-0.927838 0.892967,-0.869565 1.61324,-1.956888 2.177287,-3.23771 0.383542,0.06041 0.715602,0.164806 0.980885,0.327799 a 0.2207148,0.22190525 0 0 0 0.0014,0.0014 c 0.603207,0.364557 0.875888,0.843465 0.875888,1.526489 0,0.66166 -0.296318,1.163865 -0.957398,1.579268 -0.517248,0.327177 -1.229085,0.5469 -2.138605,0.644487 A 0.2207148,0.22190525 0 0 0 19.071727,31.0186 l 0.486298,0.755604 a 0.2207148,0.22190525 0 0 0 0.215518,0.09862 c 1.089267,-0.155366 1.963877,-0.467605 2.615232,-0.952839 0.829799,-0.618851 1.266861,-1.459806 1.266861,-2.455715 0,-0.905692 -0.365563,-1.672646 -1.066539,-2.234867 a 0.2207148,0.22190525 0 0 0 -0.0027,-0.0014 c -0.443052,-0.345662 -1.033291,-0.554166 -1.721383,-0.673654 0.04078,-0.124457 0.09223,-0.270127 0.110523,-0.354189 A 0.2207148,0.22190525 0 0 0 20.809753,24.936253 L 19.97531,24.741797 a 0.2207148,0.22190525 0 0 0 -0.263871,0.16251 c -0.05973,0.237185 -0.112732,0.421127 -0.164402,0.594483 -0.50323,0.05443 -0.953676,0.147234 -1.36495,0.269462 0.01441,-0.341519 0.03301,-0.671314 0.06217,-0.975064 1.158775,-0.127105 2.242599,-0.311883 3.238301,-0.563925 a 0.2207148,0.22190525 0 0 0 0.165752,-0.240224 l -0.08848,-0.783312 a 0.2207148,0.22190525 0 0 0 -0.277683,-0.188902 c -0.97292,0.267992 -1.945783,0.450214 -2.917787,0.568094 0.03957,-0.370769 0.08167,-0.752976 0.138153,-1.204245 a 0.2207148,0.22190525 0 0 0 -0.204466,-0.248627 l -0.839968,-0.05556 a 0.2207148,0.22190525 0 0 0 -0.02073,-0.0014 z m 1.612242,4.614189 c -0.25739,0.53751 -0.554113,1.023815 -0.886941,1.463983 -0.01362,-0.364042 -0.02734,-0.718623 -0.02902,-1.215357 0.291983,-0.112383 0.603703,-0.180849 0.915954,-0.248626 z m -2.144131,0.969506 c 0.01478,0.656414 0.03589,1.269941 0.07598,1.734835 -0.485339,0.42753 -0.922381,0.637541 -1.300016,0.637541 -0.06753,0 -0.07451,-0.01034 -0.08013,-0.01667 -0.0056,-0.0063 -0.02487,-0.03862 -0.02487,-0.127786 0,-0.04812 -0.0091,-0.09414 -0.01797,-0.140287 0.0056,-0.03578 0.01797,-0.07338 0.01797,-0.10973 l -0.0014,0.01667 c 0.03884,-0.504377 0.321661,-1.045488 0.888323,-1.622327 a 0.2207148,0.22190525 0 0 0 0.0027,-0.0028 c 0.15497,-0.164114 0.29408,-0.253053 0.439326,-0.369468 z" font-family="Open Sans" font-size="16" font-stretch="normal" font-style="normal" font-variant="normal" font-weight="bold" letter-spacing="0" opacity="1" vector-effect="none" word-spacing="0" style="line-height:1.25;-inkscape-font-specification:'Open Sans Bold';font-variation-settings:normal;marker:none"/><path id="path4" fill="url(#linearGradient917)" fill-opacity="1" stroke="none" stroke-dasharray="none" stroke-dashoffset="0" stroke-linecap="butt" stroke-linejoin="round" stroke-miterlimit="4" stroke-opacity="1" stroke-width="1" d="M 23.4,10 C 22.624401,10 22,10.624401 22,11.4 V 22.599999 C 22,23.375599 22.624401,24 23.4,24 H 34.6 C 35.3756,24 36,23.3756 36,22.599999 V 11.4 C 36,10.624401 35.3756,10 34.6,10 Z" color="#000" opacity="1" vector-effect="none" style="font-variation-settings:normal;marker:none"/><path id="path1020" fill="#fff" fill-opacity="1" stroke="none" stroke-dasharray="none" stroke-dashoffset="0" stroke-linecap="butt" stroke-linejoin="round" stroke-miterlimit="4" stroke-opacity="1" stroke-width="1" d="m 28.291016,13 -2.980469,8 h 1.372395 l 0.826823,-2.39974 h 2.95573 L 31.302735,21 h 1.386718 l -2.981771,-8 z m 0.708333,1.320312 1.192708,3.479168 h -2.408854 z" color="#000" opacity="1" vector-effect="none" style="font-variation-settings:normal;marker:none"/></svg>