<svg xmlns="http://www.w3.org/2000/svg" xmlns:svg="http://www.w3.org/2000/svg" xmlns:xlink="http://www.w3.org/1999/xlink" id="svg3901" width="48" height="48" version="1.1"><defs id="defs3903"><linearGradient id="linearGradient3403"><stop id="stop3405" offset="0" stop-color="#fff" stop-opacity="1"/><stop id="stop3407" offset="0" stop-color="#fff" stop-opacity=".235"/><stop id="stop3409" offset="1" stop-color="#fff" stop-opacity=".157"/><stop id="stop3411" offset="1" stop-color="#fff" stop-opacity=".392"/></linearGradient><linearGradient id="linearGradient3600"><stop id="stop3602" offset="0" stop-color="#f4f4f4" stop-opacity="1"/><stop id="stop3604" offset="1" stop-color="#dbdbdb" stop-opacity="1"/></linearGradient><linearGradient id="linearGradient5060"><stop id="stop5062" offset="0" stop-color="#000" stop-opacity="1"/><stop id="stop5064" offset="1" stop-color="#000" stop-opacity="0"/></linearGradient><linearGradient id="linearGradient5048"><stop id="stop5050" offset="0" stop-color="#000" stop-opacity="0"/><stop id="stop5056" offset=".5" stop-color="#000" stop-opacity="1"/><stop id="stop5052" offset="1" stop-color="#000" stop-opacity="0"/></linearGradient><linearGradient id="linearGradient3104-6"><stop id="stop3106-3" offset="0" stop-color="#000" stop-opacity=".318"/><stop id="stop3108-9" offset="1" stop-color="#000" stop-opacity=".24"/></linearGradient><linearGradient id="linearGradient3106" x1="24" x2="24" y1="5.94" y2="42.111" gradientTransform="matrix(0.89189189,0,0,1.1351351,2.5945999,-4.7432314)" gradientUnits="userSpaceOnUse" xlink:href="#linearGradient3403"/><linearGradient id="linearGradient3109" x1="25.132" x2="25.132" y1=".985" y2="47.013" gradientTransform="matrix(0.97142632,0,0,0.93431938,0.68576678,-1.3569996)" gradientUnits="userSpaceOnUse" xlink:href="#linearGradient3600"/><radialGradient id="radialGradient3112" cx="605.714" cy="486.648" r="117.143" fx="605.714" fy="486.648" gradientTransform="matrix(0.02303995,0,0,0.01470022,26.360882,37.040176)" gradientUnits="userSpaceOnUse" xlink:href="#linearGradient5060"/><radialGradient id="radialGradient3115" cx="605.714" cy="486.648" r="117.143" fx="605.714" fy="486.648" gradientTransform="matrix(-0.02303994,0,0,0.01470022,21.62311,37.040176)" gradientUnits="userSpaceOnUse" xlink:href="#linearGradient5060"/><linearGradient id="linearGradient3118" x1="302.857" x2="302.857" y1="366.648" y2="609.505" gradientTransform="matrix(0.06732488,0,0,0.01470022,-0.3411391,37.040146)" gradientUnits="userSpaceOnUse" xlink:href="#linearGradient5048"/><linearGradient id="linearGradient3170" x1="-51.786" x2="-51.786" y1="50.786" y2="2.906" gradientTransform="matrix(0.80749686,0,0,0.89471714,59.410232,-2.9773433)" gradientUnits="userSpaceOnUse" xlink:href="#linearGradient3104-6"/><linearGradient id="linearGradient2580" x1="22.104" x2="22.104" y1="40.124" y2="10.035" gradientTransform="matrix(0.6655579,0,0,1.4407893,4.5202523,-10.848874)" gradientUnits="userSpaceOnUse" xlink:href="#linearGradient5031"/><linearGradient id="linearGradient5031"><stop id="stop5033" offset="0" stop-color="#a3a3a3" stop-opacity="1"/><stop id="stop5035" offset="1" stop-color="#bababa" stop-opacity="1"/></linearGradient></defs><metadata id="metadata3906"/><rect id="rect2879" width="32.508" height="3.57" x="7.738" y="42.43" fill="url(#linearGradient3118)" fill-opacity="1" fill-rule="nonzero" stroke="none" stroke-width="1" display="inline" opacity=".3" overflow="visible" visibility="visible" style="marker:none"/><path id="path2881" fill="url(#radialGradient3115)" fill-opacity="1" fill-rule="nonzero" stroke="none" stroke-width="1" d="m 7.7378475,42.430102 c 0,0 0,3.569856 0,3.569856 -1.1865002,0.0067 -2.8683795,-0.799823 -2.8683795,-1.785158 0,-0.985333 1.3240446,-1.784697 2.8683795,-1.784698 z" display="inline" opacity=".3" overflow="visible" visibility="visible" style="marker:none"/><path id="path2883" fill="url(#radialGradient3112)" fill-opacity="1" fill-rule="nonzero" stroke="none" stroke-width="1" d="m 40.246148,42.430102 c 0,0 0,3.569856 0,3.569856 1.1865,0.0067 2.86838,-0.799823 2.86838,-1.785158 0,-0.985333 -1.324045,-1.784697 -2.86838,-1.784698 z" display="inline" opacity=".3" overflow="visible" visibility="visible" style="marker:none"/><path id="path4160" fill="url(#linearGradient3109)" fill-opacity="1" stroke="none" d="m 7,1.0000001 c 7.791126,0 33.999959,0.00274 33.999959,0.00274 L 41,44 C 41,44 18.333334,44 7,44 7,29.666666 7,15.333333 7,1 z" display="inline"/><path id="rect6741-1" fill="none" stroke="url(#linearGradient3106)" stroke-dasharray="none" stroke-dashoffset="0" stroke-linecap="round" stroke-linejoin="miter" stroke-miterlimit="4" stroke-opacity="1" stroke-width="1" d="m 40.5,43.5 -33,0 0,-41.9999998 33,0 z"/><path id="path4160-6-1" fill="none" stroke="url(#linearGradient3170)" stroke-dasharray="none" stroke-dashoffset="0" stroke-linecap="butt" stroke-linejoin="round" stroke-miterlimit="4" stroke-opacity="1" stroke-width="1" d="m 6.4999605,0.4999623 c 8.0202885,0 35.0000415,0.00298 35.0000415,0.00298 l 3.7e-5,43.9970957 c 0,0 -23.333385,0 -35.0000785,0 0,-14.666738 0,-29.333326 0,-43.9998923 z" display="inline"/><path id="path4149" fill="#89adc2" fill-opacity="1" stroke="none" d="m 11,7 0,1 2.375,0 0,-1 L 11,7 Z m 2.6875,0 0,1 2.25,0 0,-1 -2.25,0 z m 2.5625,0 0,1 1.96875,0 0,-1 L 16.25,7 Z m 2.28125,0 0,1 0.875,0 0,-1 -0.875,0 z m 1.1875,0 0,1 1.9375,0 0,-1 -1.9375,0 z M 22,7 l 0,1 5,0 0,-1 -5,0 z m -11,2 0,1 3.78125,0 0,-1 L 11,9 Z m 4.15625,0 0,1 1.8125,0 0,-1 -1.8125,0 z m 2.15625,0 0,1 0.84375,0 0,-1 -0.84375,0 z m 1.21875,0 0,1 1.625,0 0,-1 -1.625,0 z m 2,0 0,1 1.625,0 0,-1 -1.625,0 z M 22.5,9 l 0,1 2.65625,0 0,-1 L 22.5,9 Z m 3.03125,0 0,1 L 29,10 29,9 25.53125,9 Z M 11,11 l 0,1 4.1875,0 0,-1 L 11,11 Z m 4.5,0 0,1 4.5,0 0,-1 -4.5,0 z m -4.5,2 0,1 2.3125,0 0,-1 L 11,13 Z m 2.625,0 0,1 2.15625,0 0,-1 -2.15625,0 z m 2.46875,0 0,1 1.90625,0 0,-1 -1.90625,0 z m 3.8125,5 0,1 1.90625,0 0,-1 -1.90625,0 z m 2.21875,0 0,1 1.90625,0 0,-1 -1.90625,0 z m 2.21875,0 0,1 2.75,0 0,-1 -2.75,0 z m 3.09375,0 0,1 0.5625,0 0,-1 -0.5625,0 z M 20,25 l 0,1 2.34375,0 0,-1 L 20,25 Z m 2.65625,0 0,1 2.1875,0 0,-1 -2.1875,0 z m 2.5,0 0,1 L 27,26 27,25 25.15625,25 Z M 20,27 l 0,1 1.875,0 0,-1 L 20,27 Z m 2.1875,0 0,1 4.8125,0 0,-1 -4.8125,0 z m 5.125,0 0,1 3.6875,0 0,-1 -3.6875,0 z M 20,29 l 0,1 2.4375,0 0,-1 L 20,29 Z m 2.78125,0 0,1 4.28125,0 0,-1 -4.28125,0 z m 4.59375,0 0,1 2.9375,0 0,-1 -2.9375,0 z M 20,31.125 l 0,0.96875 1.875,0 0,-0.96875 -1.875,0 z m 2.1875,0 0,0.96875 1.90625,0 0,-0.96875 -1.90625,0 z m 2.21875,0 0,0.96875 2.71875,0 0,-0.96875 -2.71875,0 z m 3.03125,0 0,0.96875 0.5625,0 0,-0.96875 -0.5625,0 z m 0.875,0 0,0.96875 3.53125,0 0,-0.96875 -3.53125,0 z m -8.375,6.875 0,1 2.4375,0 0,-1 -2.4375,0 z m 2.75,0 0,1 2.25,0 0,-1 -2.25,0 z m 2.59375,0 0,1 1.9375,0 0,-1 -1.9375,0 z m 2.25,0 0,1 3.09375,0 0,-1 -3.09375,0 z m 3.4375,0 0,1 5.03125,0 0,-1 -5.03125,0 z" display="inline"/><path id="path4063" fill="#b78ed4" fill-opacity="1" stroke="none" d="m 11,16 0,1 3.0625,0 0,-1 L 11,16 Z m 0,2 0,1 3.09375,0 0,-1 L 11,18 Z" display="inline"/><path id="path4061" fill="#d48eb3" fill-opacity="1" stroke="none" d="m 14.40625,16 0,1 5.59375,0 0,-1 -5.59375,0 z m 0.03125,2 0,1 5.09375,0 0,-1 -5.09375,0 z m 1.1875,16 0,1 4.59375,0 0,-1 -4.59375,0 z m 4.9375,0 0,1 1.8125,0 0,-1 -1.8125,0 z m 2.15625,0 0,1 4.3125,0 0,-1 -4.3125,0 z m 4.65625,0 0,1 2.96875,0 0,-1 -2.96875,0 z m 3.28125,0 0,1 1.15625,0 0,-1 -1.15625,0 z m 1.5,0 0,1 0.6875,0 0,-1 -0.6875,0 z m 1,0 0,1 1.84375,0 0,-1 -1.84375,0 z m -16.03125,2 0,1 0.8125,0 0,-1 -0.8125,0 z m 1.03125,0 0,1 1.625,0 0,-1 -1.625,0 z m 1.875,0 0,1 1.625,0 0,-1 -1.625,0 z m 2.125,0 0,1 2.59375,0 0,-1 -2.59375,0 z m 2.90625,0 0,1 3.375,0 0,-1 -3.375,0 z m 3.84375,0 0,1 2.28125,0 0,-1 -2.28125,0 z m 2.5625,0 0,1 0.53125,0 0,-1 -0.53125,0 z" display="inline"/><path id="path4009" fill="#de6161" fill-opacity="1" stroke="none" d="m 11,38 3.036746,0 0,1 L 11,39 11,38 Z" display="inline"/><path id="path4007" fill="url(#linearGradient2580)" fill-opacity="1" stroke="none" d="m 13.75,21 0,1 2.25,0 0,-1 -2.25,0 z m -2.75,2 0,1 1,0 0,-1 -1,0 z m 3.15625,2 0,1 1.84375,0 0,-1 -1.84375,0 z m 0.125,2 0,1 2.71875,0 0,-1 -2.71875,0 z m -0.34375,2 0,1 2.0625,0 0,-1 -2.0625,0 z m -0.375,2.15625 0,0.96875 2.125,0 0,-0.96875 -2.125,0 z M 11,34 l 0,1 4.28125,0 0,-1 L 11,34 Z m 0,2 0,1 3.6875,0 0,-1 L 11,36 Z m 3.96875,0 0,1 1.78125,0 0,-1 -1.78125,0 z m -0.625,2 0,1 3.34375,0 0,-1 -3.34375,0 z" display="inline"/><path id="path5302" fill="#94d48e" fill-opacity="1" stroke="none" d="m 11,21 0,1 2.34375,0 0,-1 L 11,21 Z m 0,4 0,1 2.75,0 0,-1 -2.75,0 z m 0,2 0,1 2.9375,0 0,-1 L 11,27 Z m 0,2 0,1 2.53125,0 0,-1 L 11,29 Z m 0,2.15625 0,0.96875 2.21875,0 0,-0.96875 -2.21875,0 z" display="inline"/></svg>