<svg xmlns="http://www.w3.org/2000/svg" xmlns:svg="http://www.w3.org/2000/svg" xmlns:xlink="http://www.w3.org/1999/xlink" id="svg2453" width="48" height="48" version="1.0"><metadata id="metadata35"/><defs id="defs2455"><radialGradient id="radialGradient19613" cx="605.714" cy="486.648" r="117.143" fx="605.714" fy="486.648" gradientTransform="matrix(0.02891661,0,0,0.01235294,26.973101,38.470848)" gradientUnits="userSpaceOnUse" xlink:href="#linearGradient5060"/><linearGradient id="linearGradient5060"><stop id="stop5062" offset="0" stop-color="#000" stop-opacity="1"/><stop id="stop5064" offset="1" stop-color="#000" stop-opacity="0"/></linearGradient><radialGradient id="radialGradient19616" cx="605.714" cy="486.648" r="117.143" fx="605.714" fy="486.648" gradientTransform="matrix(-0.0289166,0,0,0.01235294,21.026894,38.470848)" gradientUnits="userSpaceOnUse" xlink:href="#linearGradient5060"/><linearGradient id="linearGradient5048"><stop id="stop5050" offset="0" stop-color="#000" stop-opacity="0"/><stop id="stop5056" offset=".5" stop-color="#000" stop-opacity="1"/><stop id="stop5052" offset="1" stop-color="#000" stop-opacity="0"/></linearGradient><linearGradient id="linearGradient19619" x1="302.857" x2="302.857" y1="366.648" y2="609.505" gradientTransform="matrix(0.08449704,0,0,0.01235294,-6.5396456,38.470822)" gradientUnits="userSpaceOnUse" xlink:href="#linearGradient5048"/><linearGradient id="linearGradient3680-6-6-6-3-7-1-8-8"><stop id="stop3682-4-6-1-3-7-7-4-0" offset="0" stop-color="#dcdcdc" stop-opacity="1"/><stop id="stop3684-8-5-8-0-2-6-8-4" offset="1" stop-color="#fff" stop-opacity="1"/></linearGradient><linearGradient id="linearGradient3127-4-4" x1="20" x2="20" y1="26" y2="13" gradientTransform="matrix(1.326882,0,0,1.326882,9.2598082,6.2451596)" gradientUnits="userSpaceOnUse" xlink:href="#linearGradient3680-6-6-6-3-7-1-8-8"/><linearGradient id="linearGradient2867-449-88-871-390-598-476-591-434-148-57-177-8-3-3-6-4-8-8-8-5-7"><stop id="stop3750-1-0-7-6-6-1-3-9-3-9" offset="0" stop-color="#505050" stop-opacity="1"/><stop id="stop3752-3-7-4-0-32-8-923-0-7-0" offset=".262" stop-color="#2b2b2b" stop-opacity="1"/><stop id="stop3754-1-8-5-2-7-6-7-1-9-1" offset=".705" stop-color="#0a0a0a" stop-opacity="1"/><stop id="stop3756-1-6-2-6-6-1-96-6-0-1" offset="1" stop-color="#000" stop-opacity="1"/></linearGradient><linearGradient id="linearGradient3462"><stop id="stop3464" offset="0" stop-color="#fff" stop-opacity="1"/><stop id="stop3466" offset=".035" stop-color="#fff" stop-opacity=".235"/><stop id="stop3468" offset=".964" stop-color="#fff" stop-opacity=".157"/><stop id="stop3470" offset="1" stop-color="#fff" stop-opacity=".392"/></linearGradient><linearGradient id="linearGradient3324" x1="20" x2="20" y1="26" y2="13" gradientTransform="matrix(1.326882,0,0,1.326882,9.2598082,6.2451596)" gradientUnits="userSpaceOnUse" xlink:href="#linearGradient3680-6-6-6-3-7-1-8-8"/><linearGradient id="linearGradient3339" x1="20" x2="20" y1="26" y2="13" gradientTransform="matrix(1.326882,0,0,1.326882,9.2598082,6.2451596)" gradientUnits="userSpaceOnUse" xlink:href="#linearGradient3680-6-6-6-3-7-1-8-8"/><linearGradient id="linearGradient3345" x1="40.29" x2="40.29" y1="5.414" y2="42.438" gradientTransform="matrix(1.1621621,0,0,0.91891888,-3.8918941,4.4459492)" gradientUnits="userSpaceOnUse" xlink:href="#linearGradient3462"/><radialGradient id="radialGradient3348" cx="7.118" cy="9.957" r="12.672" fx="7.118" fy="9.957" gradientTransform="matrix(0,8.4371492,-12.947656,0,153.88012,-68.473106)" gradientUnits="userSpaceOnUse" xlink:href="#linearGradient2867-449-88-871-390-598-476-591-434-148-57-177-8-3-3-6-4-8-8-8-5-7"/><linearGradient id="linearGradient3352" x1="20" x2="20" y1="26" y2="13" gradientTransform="matrix(1.326882,0,0,1.326882,9.2598082,6.2451596)" gradientUnits="userSpaceOnUse" xlink:href="#linearGradient3680-6-6-6-3-7-1-8-8"/><filter id="filter7554" color-interpolation-filters="sRGB"><feBlend id="feBlend7556" in2="BackgroundImage" mode="darken"/></filter></defs><g id="g3257" opacity=".4"><rect id="rect2879" width="40.8" height="3" x="3.6" y="43" fill="url(#linearGradient19619)" fill-opacity="1" fill-rule="nonzero" stroke="none" stroke-width="1" display="inline" overflow="visible" visibility="visible" style="marker:none"/><path id="path2881" fill="url(#radialGradient19616)" fill-opacity="1" fill-rule="nonzero" stroke="none" stroke-width="1" d="m 3.6,43.00013 c 0,0 0,2.999835 0,2.999835 C 2.1108662,46.005612 0,45.327854 0,44.499854 0,43.671856 1.6617608,43.000131 3.6,43.00013 z" display="inline" overflow="visible" visibility="visible" style="marker:none"/><path id="path2883" fill="url(#radialGradient19613)" fill-opacity="1" fill-rule="nonzero" stroke="none" stroke-width="1" d="m 44.4,43.00013 c 0,0 0,2.999835 0,2.999835 1.489133,0.0056 3.6,-0.672111 3.6,-1.500111 0,-0.827998 -1.661761,-1.499723 -3.6,-1.499724 z" display="inline" overflow="visible" visibility="visible" style="marker:none"/></g><rect id="rect5505-21-3-8-5-2" width="45" height="36" x="1.5" y="8.5" fill="url(#radialGradient3348)" fill-opacity="1" fill-rule="nonzero" stroke="none" stroke-width="1" color="#000" display="inline" enable-background="accumulate" opacity=".9" overflow="visible" rx="1.5" ry="1.5" visibility="visible" style="marker:none"/><rect id="rect6741-5-0-2-3" width="43" height="34" x="2.5" y="9.5" fill="none" stroke="url(#linearGradient3345)" stroke-dasharray="none" stroke-dashoffset="0" stroke-linecap="round" stroke-linejoin="round" stroke-miterlimit="4" stroke-opacity="1" stroke-width="1" opacity=".3" rx=".75" ry=".75"/><rect id="rect5505-21-3-8-9-1-1" width="45" height="36" x="1.5" y="8.5" fill="none" stroke="#000" stroke-dasharray="none" stroke-dashoffset="0" stroke-linecap="round" stroke-linejoin="round" stroke-miterlimit="4" stroke-opacity="1" stroke-width="1" color="#000" display="inline" enable-background="accumulate" opacity=".7" overflow="visible" rx="1.5" ry="1.5" visibility="visible" style="marker:none"/><path id="path5137" fill="#000" fill-opacity="1" fill-rule="nonzero" stroke="#000" stroke-dasharray="none" stroke-miterlimit="4" stroke-opacity="1" stroke-width="2" d="M 17.75,20 C 17.3345,20 17,20.3345 17,20.75 l 0,13.5 c 0,0.4155 0.3345,0.75 0.75,0.75 l 12.5,0 C 30.6655,35 31,34.6655 31,34.25 l 0,-13.5 C 31,20.3345 30.6655,20 30.25,20 l -12.5,0 z m 0.25,1 1,0 0,1 -1,0 0,-1 z m 2.5,0 7,0 c 0.277,0 0.5,0.223 0.5,0.5 l 0,5 c 0,0.277 -0.223,0.5 -0.5,0.5 l -7,0 C 20.223,27 20,26.777 20,26.5 l 0,-5 C 20,21.223 20.223,21 20.5,21 Z m 8.5,0 1,0 0,1 -1,0 0,-1 z m -11,2 1,0 0,1 -1,0 0,-1 z m 11,0 1,0 0,1 -1,0 0,-1 z m -11,2 1,0 0,1 -1,0 0,-1 z m 11,0 1,0 0,1 -1,0 0,-1 z m -11,2 1,0 0,1 -1,0 0,-1 z m 11,0 1,0 0,1 -1,0 0,-1 z m -8.5,1 7,0 c 0.277,0 0.5,0.223 0.5,0.5 l 0,5 c 0,0.277 -0.223,0.5 -0.5,0.5 l -7,0 C 20.223,34 20,33.777 20,33.5 l 0,-5 C 20,28.223 20.223,28 20.5,28 Z m -2.5,1 1,0 0,1 -1,0 0,-1 z m 11,0 1,0 0,1 -1,0 0,-1 z m -11,2 1,0 0,1 -1,0 0,-1 z m 11,0 1,0 0,1 -1,0 0,-1 z m -11,2 1,0 0,1 -1,0 0,-1 z m 11,0 1,0 0,1 -1,0 0,-1 z" color="#bebebe" display="inline" enable-background="accumulate" opacity=".15" overflow="visible" visibility="visible" style="marker:none"/><path id="path5115" fill="#000" fill-opacity="1" fill-rule="nonzero" stroke="none" stroke-width="1" d="M 17.75,20 C 17.3345,20 17,20.3345 17,20.75 l 0,13.5 c 0,0.4155 0.3345,0.75 0.75,0.75 l 12.5,0 C 30.6655,35 31,34.6655 31,34.25 l 0,-13.5 C 31,20.3345 30.6655,20 30.25,20 l -12.5,0 z m 0.25,1 1,0 0,1 -1,0 0,-1 z m 2.5,0 7,0 c 0.277,0 0.5,0.223 0.5,0.5 l 0,5 c 0,0.277 -0.223,0.5 -0.5,0.5 l -7,0 C 20.223,27 20,26.777 20,26.5 l 0,-5 C 20,21.223 20.223,21 20.5,21 Z m 8.5,0 1,0 0,1 -1,0 0,-1 z m -11,2 1,0 0,1 -1,0 0,-1 z m 11,0 1,0 0,1 -1,0 0,-1 z m -11,2 1,0 0,1 -1,0 0,-1 z m 11,0 1,0 0,1 -1,0 0,-1 z m -11,2 1,0 0,1 -1,0 0,-1 z m 11,0 1,0 0,1 -1,0 0,-1 z m -8.5,1 7,0 c 0.277,0 0.5,0.223 0.5,0.5 l 0,5 c 0,0.277 -0.223,0.5 -0.5,0.5 l -7,0 C 20.223,34 20,33.777 20,33.5 l 0,-5 C 20,28.223 20.223,28 20.5,28 Z m -2.5,1 1,0 0,1 -1,0 0,-1 z m 11,0 1,0 0,1 -1,0 0,-1 z m -11,2 1,0 0,1 -1,0 0,-1 z m 11,0 1,0 0,1 -1,0 0,-1 z m -11,2 1,0 0,1 -1,0 0,-1 z m 11,0 1,0 0,1 -1,0 0,-1 z" color="#bebebe" display="inline" enable-background="accumulate" opacity=".3" overflow="visible" visibility="visible" style="marker:none"/><path id="rect3032" fill="#fff" fill-opacity="1" fill-rule="nonzero" stroke="none" stroke-width="1" d="M 17.75,19 C 17.3345,19 17,19.3345 17,19.75 l 0,13.5 c 0,0.4155 0.3345,0.75 0.75,0.75 l 12.5,0 C 30.6655,34 31,33.6655 31,33.25 l 0,-13.5 C 31,19.3345 30.6655,19 30.25,19 l -12.5,0 z m 0.25,1 1,0 0,1 -1,0 0,-1 z m 2.5,0 7,0 c 0.277,0 0.5,0.223 0.5,0.5 l 0,5 c 0,0.277 -0.223,0.5 -0.5,0.5 l -7,0 C 20.223,26 20,25.777 20,25.5 l 0,-5 C 20,20.223 20.223,20 20.5,20 Z m 8.5,0 1,0 0,1 -1,0 0,-1 z m -11,2 1,0 0,1 -1,0 0,-1 z m 11,0 1,0 0,1 -1,0 0,-1 z m -11,2 1,0 0,1 -1,0 0,-1 z m 11,0 1,0 0,1 -1,0 0,-1 z m -11,2 1,0 0,1 -1,0 0,-1 z m 11,0 1,0 0,1 -1,0 0,-1 z m -8.5,1 7,0 c 0.277,0 0.5,0.223 0.5,0.5 l 0,5 c 0,0.277 -0.223,0.5 -0.5,0.5 l -7,0 C 20.223,33 20,32.777 20,32.5 l 0,-5 C 20,27.223 20.223,27 20.5,27 Z m -2.5,1 1,0 0,1 -1,0 0,-1 z m 11,0 1,0 0,1 -1,0 0,-1 z m -11,2 1,0 0,1 -1,0 0,-1 z m 11,0 1,0 0,1 -1,0 0,-1 z m -11,2 1,0 0,1 -1,0 0,-1 z m 11,0 1,0 0,1 -1,0 0,-1 z" color="#bebebe" display="inline" enable-background="accumulate" overflow="visible" visibility="visible" style="marker:none"/></svg>