<svg xmlns="http://www.w3.org/2000/svg" xmlns:svg="http://www.w3.org/2000/svg" id="svg2" width="48" height="48" version="1.1" viewBox="0 0 60 60" xml:space="preserve"><metadata id="metadata8"/><defs id="defs6"><clipPath id="clipPath16" clipPathUnits="userSpaceOnUse"><path id="path18" d="m 3.728,26.893 c 0,-0.981 0.073,-1.944 0.211,-2.886 l 0,0 c 0.121,-1.54 0.098,-3.213 0.123,-4.586 l 0,0 C 4.088,17.941 4.12,16.045 4.12,16.045 l 0,0 c 0.02,-1.187 0.448,-3.13 1.207,-5.244 l 0,0 C 5.937,9.103 6.643,7.627 7.28,6.634 l 0,0 0,-0.001 c 0,0 0.004,-0.005 0.01,-0.013 l 0,0 C 7.394,6.457 7.497,6.307 7.597,6.172 l 0,0 C 8.028,5.547 8.794,4.448 9.192,3.934 l 0,0 C 9.239,3.868 9.286,3.811 9.331,3.758 l 0,0 C 9.75,3.264 10.037,3.014 10.426,2.805 l 0,0 C 10.814,2.596 11.11,2.763 11.11,2.763 l 0,0 c 0.245,0.071 0.291,0.759 0.171,1.87 l 0,0 3.364,-2.254 c 0.093,-0.056 0.208,-0.076 0.32,-0.044 l 0,0 1.443,0.42 c 0.003,-0.004 0.006,-0.008 0.009,-0.012 l 0,0 c 0.042,-0.052 0.08,-0.091 0.115,-0.116 l 0,0 C 16.8,2.389 17.183,2.291 17.554,2.398 l 0,0 1.512,0.44 c 0.765,0.223 1.272,0.894 1.312,1.637 l 0,0 C 20.5,5.463 19.542,9.724 18.04,14.745 l 0,0 c -1.557,5.204 -3.155,9.411 -3.756,9.947 l 0,0 c -0.453,0.539 -1.204,0.79 -1.928,0.579 l 0,0 -1.513,-0.439 c -0.307,-0.09 -0.542,-0.303 -0.669,-0.567 l 0,0 -1.626,-0.473 C 8.44,23.76 8.357,23.689 8.309,23.598 l 0,0 -1.541,-3.603 c -0.016,0.03 -0.032,0.062 -0.048,0.092 l 0,0 -0.135,0.368 c -0.408,1.486 -0.628,3.05 -0.628,4.664 l 0,0 c 0,9.823 8.079,17.785 18.043,17.785 l 0,0 c 9.965,0 18.043,-7.962 18.043,-17.785 l 0,0 c 0,-1.704 -0.244,-3.351 -0.698,-4.91 l 0,0 -0.045,-0.122 c -0.016,-0.03 -0.031,-0.062 -0.047,-0.092 l 0,0 -1.541,3.603 c -0.049,0.091 -0.132,0.162 -0.239,0.194 l 0,0 -1.627,0.473 c -0.126,0.264 -0.362,0.477 -0.669,0.567 l 0,0 -1.513,0.439 c -0.723,0.211 -1.475,-0.04 -1.928,-0.579 l 0,0 c -0.601,-0.536 -2.199,-4.743 -3.755,-9.947 l 0,0 C 28.479,9.724 27.52,5.463 27.643,4.475 l 0,0 c 0.039,-0.743 0.546,-1.414 1.311,-1.637 l 0,0 1.513,-0.44 c 0.371,-0.107 0.753,-0.009 1.021,0.229 l 0,0 c 0.035,0.025 0.073,0.064 0.116,0.116 l 0,0 0.009,0.012 1.441,-0.42 c 0.114,-0.032 0.228,-0.012 0.321,0.044 l 0,0 3.365,2.254 C 36.619,3.522 36.665,2.834 36.91,2.763 l 0,0 c 0,0 0.297,-0.167 0.686,0.042 l 0,0 c 0.388,0.209 0.675,0.459 1.093,0.953 l 0,0 c 0.045,0.053 0.091,0.11 0.14,0.176 l 0,0 c 0.398,0.514 1.163,1.613 1.595,2.238 l 0,0 c 0.099,0.135 0.202,0.285 0.307,0.448 l 0,0 c 0.006,0.008 0.009,0.013 0.009,0.013 l 0,0 0,0.001 c 0.638,0.993 1.343,2.469 1.953,4.167 l 0,0 c 0.76,2.114 1.188,4.057 1.206,5.244 l 0,0 10e-4,0 c 0,0 0.033,1.896 0.059,3.376 l 0,0 c 0.027,1.48 -0.003,3.308 0.153,4.943 l 0,0 0,10e-4 c 0.106,0.828 0.161,1.671 0.161,2.528 l 0,0 c 0,11.036 -9.077,19.982 -20.273,19.982 l 0,0 C 12.803,46.875 3.728,37.929 3.728,26.893"/></clipPath><linearGradient id="linearGradient24" x1="0" x2="1" y1="0" y2="0" gradientTransform="matrix(0,-44.154308,-44.154308,0,24.000002,46.110851)" gradientUnits="userSpaceOnUse" spreadMethod="pad"><stop id="stop26" offset="0" stop-color="#3d3d3e" stop-opacity="1"/><stop id="stop28" offset=".406" stop-color="#3d3d3e" stop-opacity="1"/><stop id="stop30" offset=".572" stop-color="#343334" stop-opacity="1"/><stop id="stop32" offset=".748" stop-color="#656263" stop-opacity="1"/><stop id="stop34" offset=".971" stop-color="#1f1d1d" stop-opacity="1"/><stop id="stop36" offset="1" stop-color="#1f1d1d" stop-opacity="1"/></linearGradient><clipPath id="clipPath44" clipPathUnits="userSpaceOnUse"><path id="path46" d="M 0,48 48,48 48,0 0,0 0,48 Z"/></clipPath><clipPath id="clipPath52" clipPathUnits="userSpaceOnUse"><path id="path54" d="m 3.72751,46.875 40.54499,0 0,-22.8685 -40.54499,0 0,22.8685 z"/></clipPath><clipPath id="clipPath56" clipPathUnits="userSpaceOnUse"><path id="path58" d="m 5.957,25.119 c 0,9.822 8.078,17.785 18.043,17.785 9.965,0 18.043,-7.963 18.043,-17.785 l 2.068,-0.755 0,10e-4 c 0.107,0.828 0.161,1.671 0.161,2.528 0,11.036 -9.076,19.982 -20.272,19.982 -11.196,0 -20.272,-8.946 -20.272,-19.982 0,-0.981 0.073,-1.944 0.211,-2.887"/></clipPath><linearGradient id="linearGradient60" x1="0" x2="1" y1="0" y2="0" gradientTransform="matrix(3.8579054,-11.994188,-11.994188,-3.8579054,17.062818,48.901157)" gradientUnits="userSpaceOnUse" spreadMethod="pad"><stop id="stop62" offset="0" stop-color="#797b79" stop-opacity="1"/><stop id="stop64" offset=".074" stop-color="#797b79" stop-opacity="1"/><stop id="stop66" offset=".928" stop-color="#1f1d1d" stop-opacity="1"/><stop id="stop68" offset="1" stop-color="#1f1d1d" stop-opacity="1"/></linearGradient><clipPath id="clipPath96" clipPathUnits="userSpaceOnUse"><path id="path98" d="m 4.84827,43.608 38.30343,0 0,-24.317 -38.30343,0 0,24.317 z"/></clipPath><clipPath id="clipPath112" clipPathUnits="userSpaceOnUse"><path id="path114" d="M 6.835,33.292 C 6.724,33.063 6.872,32.779 7.098,32.779 l 0,0 0.526,0 c 0.513,0 0.998,0.283 1.294,0.768 l 0,0 c 3.347,5.457 8.853,8.65 15.082,8.65 l 0,0 c 6.229,0 11.734,-3.193 15.082,-8.65 l 0,0 c 0.297,-0.485 0.782,-0.768 1.295,-0.768 l 0,0 0.525,0 c 0.227,0 0.375,0.284 0.263,0.513 l 0,0 C 37.669,40.499 31.292,44.582 24,44.582 l 0,0 c -7.292,0 -13.669,-4.083 -17.165,-11.29"/></clipPath><radialGradient id="radialGradient120" cx="0" cy="0" r="1" fx="0" fy="0" gradientTransform="matrix(18.285467,0.0131606,0.0129724,-18.023977,23.874329,26.788753)" gradientUnits="userSpaceOnUse" spreadMethod="pad"><stop id="stop122" offset="0" stop-color="#1f1d1d" stop-opacity="1"/><stop id="stop124" offset=".928" stop-color="#1f1d1d" stop-opacity="1"/><stop id="stop126" offset="1" stop-color="#343334" stop-opacity="1"/></radialGradient><clipPath id="clipPath134" clipPathUnits="userSpaceOnUse"><path id="path136" d="M 42.098,11.555 C 41.063,8.375 39.929,5.674 39.109,4.307 l 0,0 c 0.414,0.565 0.97,1.366 1.315,1.865 l 0,0 c 0.099,0.135 0.202,0.285 0.307,0.448 l 0,0 c 0.006,0.008 0.009,0.013 0.009,0.013 l 0,0 0,0.001 c 0.638,0.993 1.343,2.469 1.953,4.167 l 0,0 c 0.76,2.114 1.188,4.057 1.206,5.244 l 0,0 10e-4,0 c 0,0 0.031,1.764 0.056,3.218 l 0,0 c -0.123,-1.57 -0.803,-4.467 -1.858,-7.708"/></clipPath><linearGradient id="linearGradient142" x1="0" x2="1" y1="0" y2="0" gradientTransform="matrix(4.8471975,0,0,-4.8471975,39.10886,11.785091)" gradientUnits="userSpaceOnUse" spreadMethod="pad"><stop id="stop144" offset="0" stop-color="#2b2829" stop-opacity="1"/><stop id="stop146" offset=".37" stop-color="#2b2829" stop-opacity="1"/><stop id="stop148" offset="1" stop-color="#3b3839" stop-opacity="1"/></linearGradient><clipPath id="clipPath156" clipPathUnits="userSpaceOnUse"><path id="path158" d="M 38.447,12.33 C 36.967,7.231 36.278,2.947 36.91,2.763 l 0,0 c 0.632,-0.184 2.343,3.803 3.824,8.903 l 0,0 c 1.481,5.099 2.169,9.384 1.537,9.568 l 0,0 c -0.014,0.004 -0.028,0.006 -0.043,0.006 l 0,0 c -0.664,0 -2.333,-3.923 -3.781,-8.91"/></clipPath><linearGradient id="linearGradient164" x1="0" x2="1" y1="0" y2="0" gradientTransform="matrix(5.8306751,0,0,-5.8306751,36.675644,11.998098)" gradientUnits="userSpaceOnUse" spreadMethod="pad"><stop id="stop166" offset="0" stop-color="#1a1817" stop-opacity="1"/><stop id="stop168" offset="1" stop-color="#2c2a2a" stop-opacity="1"/></linearGradient><clipPath id="clipPath176" clipPathUnits="userSpaceOnUse"><path id="path178" d="m 39.71,23.594 c 0.006,-0.011 0.013,-0.02 0.018,-0.029 l 0,0 -0.016,0.035 -0.002,-0.006 z m 0.02,-0.036 c 0,0.003 -10e-4,0.005 -0.002,0.007 l 0,0 0.002,-0.007 z"/></clipPath><linearGradient id="linearGradient184" x1="0" x2="1" y1="0" y2="0" gradientTransform="matrix(0.020066,0,0,-0.020066,39.710419,23.579052)" gradientUnits="userSpaceOnUse" spreadMethod="pad"><stop id="stop186" offset="0" stop-color="#6d6e70" stop-opacity="1"/><stop id="stop188" offset=".506" stop-color="#545557" stop-opacity="1"/><stop id="stop190" offset="1" stop-color="#2c2a2a" stop-opacity="1"/></linearGradient><clipPath id="clipPath198" clipPathUnits="userSpaceOnUse"><path id="path200" d="m 39.758,23.437 c 0.198,-0.825 -0.812,-5.345 -2.415,-10.703 l 0,0 C 35.718,7.305 34.058,2.926 33.458,2.432 l 0,0 3.796,2.546 c 0.503,0.332 1.607,3.288 2.791,7.244 l 0,0 c 1.183,3.956 1.737,6.55 1.495,7.099 l 0,0 -1.807,4.23 c 0.014,-0.037 0.023,-0.074 0.025,-0.114"/></clipPath><linearGradient id="linearGradient206" x1="0" x2="1" y1="0" y2="0" gradientTransform="matrix(4.3015718,12.646788,12.646788,-4.3015718,35.78458,5.7088723)" gradientUnits="userSpaceOnUse" spreadMethod="pad"><stop id="stop208" offset="0" stop-color="#2c2a2a" stop-opacity="1"/><stop id="stop210" offset=".5" stop-color="#2c2a2a" stop-opacity="1"/><stop id="stop212" offset=".803" stop-color="#545557" stop-opacity="1"/><stop id="stop214" offset="1" stop-color="#7b7979" stop-opacity="1"/></linearGradient><clipPath id="clipPath222" clipPathUnits="userSpaceOnUse"><path id="path224" d="M 33.426,2.41 33.43,2.413 C 33.428,2.412 33.427,2.411 33.426,2.41 m -0.02,-0.013 c 0.006,0.004 0.013,0.009 0.02,0.013 l 0,0 -0.02,-0.013 z M 33.399,2.394 C 33.393,2.389 33.384,2.386 33.376,2.38 l 0,0 -0.002,-0.004 0.032,0.021 C 33.404,2.396 33.401,2.395 33.399,2.394"/></clipPath><linearGradient id="linearGradient230" x1="0" x2="1" y1="0" y2="0" gradientTransform="matrix(0.0553195,0,0,-0.0553195,33.37426,2.3940618)" gradientUnits="userSpaceOnUse" spreadMethod="pad"><stop id="stop232" offset="0" stop-color="#6d6e70" stop-opacity="1"/><stop id="stop234" offset=".506" stop-color="#545557" stop-opacity="1"/><stop id="stop236" offset="1" stop-color="#2c2a2a" stop-opacity="1"/></linearGradient><clipPath id="clipPath244" clipPathUnits="userSpaceOnUse"><path id="path246" d="m 33.736,24.692 c -0.601,-0.536 -2.199,-4.743 -3.755,-9.947 l 0,0 C 28.479,9.724 27.52,5.463 27.643,4.475 l 0,0 c 0.039,-0.743 0.546,-1.414 1.311,-1.637 l 0,0 1.513,-0.44 c 0.371,-0.107 0.753,-0.009 1.021,0.229 l 0,0 c 0.035,0.025 0.073,0.064 0.116,0.116 l 0,0 c 0.692,0.855 2.305,5.144 3.877,10.397 l 0,0 c 1.704,5.698 2.743,10.47 2.412,11.01 l 0,0 c -0.107,0.317 -0.366,0.579 -0.716,0.682 l 0,0 -1.513,0.439 c -0.173,0.05 -0.347,0.074 -0.519,0.074 l 0,0 c -0.546,0 -1.064,-0.243 -1.409,-0.653"/></clipPath><linearGradient id="linearGradient252" x1="0" x2="1" y1="0" y2="0" gradientTransform="matrix(5.1411953,-1.5166993,-1.5166993,-5.1411953,30.207729,14.677854)" gradientUnits="userSpaceOnUse" spreadMethod="pad"><stop id="stop254" offset="0" stop-color="#363233" stop-opacity="1"/><stop id="stop256" offset=".334" stop-color="#343131" stop-opacity="1"/><stop id="stop258" offset="1" stop-color="#2b2829" stop-opacity="1"/></linearGradient><clipPath id="clipPath266" clipPathUnits="userSpaceOnUse"><path id="path268" d="m 33.736,24.692 c -0.601,-0.536 -2.199,-4.743 -3.755,-9.947 l 0,0 C 28.479,9.724 27.52,5.463 27.643,4.475 l 0,0 c 0.039,-0.743 0.546,-1.414 1.311,-1.637 l 0,0 1.513,-0.44 c 0.371,-0.107 0.753,-0.009 1.021,0.229 l 0,0 c 0.035,0.025 0.073,0.064 0.116,0.116 l 0,0 c 0.692,0.855 2.305,5.144 3.877,10.397 l 0,0 c 1.704,5.698 2.743,10.47 2.412,11.01 l 0,0 c -0.107,0.317 -0.366,0.579 -0.716,0.682 l 0,0 -1.513,0.439 c -0.173,0.05 -0.347,0.074 -0.519,0.074 l 0,0 c -0.546,0 -1.064,-0.243 -1.409,-0.653"/></clipPath><linearGradient id="linearGradient274" x1="0" x2="1" y1="0" y2="0" gradientTransform="matrix(-6.3956504,-21.408249,-21.408249,6.3956504,35.922031,24.625)" gradientUnits="userSpaceOnUse" spreadMethod="pad"><stop id="stop276" offset="0" stop-color="#3b3839" stop-opacity="1"/><stop id="stop278" offset=".279" stop-color="#363233" stop-opacity="1"/><stop id="stop280" offset=".5" stop-color="#322e2f" stop-opacity="1"/><stop id="stop282" offset="1" stop-color="#2b2829" stop-opacity="1"/></linearGradient><clipPath id="clipPath290" clipPathUnits="userSpaceOnUse"><path id="path292" d="m 37.893,24.15 c 0.331,-0.54 -0.708,-5.312 -2.412,-11.01 l 0,0 C 33.915,7.906 32.31,3.632 31.612,2.755 l 0,0 1.442,-0.42 c 0.124,-0.036 0.249,-0.008 0.345,0.059 l 0,0 c 0.545,0.234 2.264,4.727 3.944,10.34 l 0,0 c 1.603,5.358 2.613,9.878 2.415,10.703 l 0,0 c -0.01,0.161 -0.119,0.306 -0.285,0.355 l 0,0 -1.636,0.475 c 0.019,-0.039 0.042,-0.076 0.056,-0.117"/></clipPath><linearGradient id="linearGradient298" x1="0" x2="1" y1="0" y2="0" gradientTransform="matrix(-4.6691947,-20.454718,-20.454718,4.6691947,38.152214,23.245422)" gradientUnits="userSpaceOnUse" spreadMethod="pad"><stop id="stop300" offset="0" stop-color="#d3d2d2" stop-opacity="1"/><stop id="stop302" offset=".139" stop-color="#a7a5a6" stop-opacity="1"/><stop id="stop304" offset=".274" stop-color="#6d6e70" stop-opacity="1"/><stop id="stop306" offset="1" stop-color="#373737" stop-opacity="1"/></linearGradient><clipPath id="clipPath314" clipPathUnits="userSpaceOnUse"><path id="path316" d="M 0,48 48,48 48,0 0,0 0,48 Z"/></clipPath><clipPath id="clipPath322" clipPathUnits="userSpaceOnUse"><path id="path324" d="m 36.4113,19.951 5.6844,0 0,-15.77581 -5.6844,0 0,15.77581 z"/></clipPath><clipPath id="clipPath338" clipPathUnits="userSpaceOnUse"><path id="path340" d="m 31.2146,24.3755 7.2395,0 0,-21.98253 -7.2395,0 0,21.98253 z"/></clipPath><clipPath id="clipPath354" clipPathUnits="userSpaceOnUse"><path id="path356" d="m 4.12,16.045 c 0.02,-1.187 0.448,-3.13 1.207,-5.244 l 0,0 C 5.937,9.103 6.643,7.627 7.28,6.634 l 0,0 0,-0.001 c 0,0 0.004,-0.005 0.01,-0.013 l 0,0 C 7.394,6.457 7.497,6.307 7.597,6.172 l 0,0 C 7.942,5.673 8.498,4.872 8.912,4.307 l 0,0 C 8.09,5.674 6.958,8.375 5.922,11.555 l 0,0 c -1.055,3.241 -1.735,6.138 -1.858,7.708 l 0,0 C 4.09,17.809 4.12,16.045 4.12,16.045"/></clipPath><linearGradient id="linearGradient362" x1="0" x2="1" y1="0" y2="0" gradientTransform="matrix(-4.8471975,0,0,-4.8471975,8.911459,11.785091)" gradientUnits="userSpaceOnUse" spreadMethod="pad"><stop id="stop364" offset="0" stop-color="#2b2829" stop-opacity="1"/><stop id="stop366" offset=".37" stop-color="#2b2829" stop-opacity="1"/><stop id="stop368" offset="1" stop-color="#3b3839" stop-opacity="1"/></linearGradient><clipPath id="clipPath376" clipPathUnits="userSpaceOnUse"><path id="path378" d="M 5.748,21.234 C 5.117,21.05 5.805,16.765 7.286,11.666 l 0,0 c 1.48,-5.1 3.193,-9.087 3.824,-8.903 l 0,0 c 0.631,0.184 -0.056,4.468 -1.537,9.567 l 0,0 c -1.447,4.987 -3.117,8.91 -3.781,8.91 l 0,0 c -0.015,0 -0.03,-0.002 -0.044,-0.006"/></clipPath><linearGradient id="linearGradient384" x1="0" x2="1" y1="0" y2="0" gradientTransform="matrix(-5.8306751,0,0,-5.8306751,11.344676,11.998098)" gradientUnits="userSpaceOnUse" spreadMethod="pad"><stop id="stop386" offset="0" stop-color="#1a1817" stop-opacity="1"/><stop id="stop388" offset="1" stop-color="#2c2a2a" stop-opacity="1"/></linearGradient><clipPath id="clipPath396" clipPathUnits="userSpaceOnUse"><path id="path398" d="m 8.29,23.558 c 0.005,0.013 0.013,0.023 0.02,0.036 l 0,0 L 8.308,23.6 8.29,23.558 Z"/></clipPath><linearGradient id="linearGradient404" x1="0" x2="1" y1="0" y2="0" gradientTransform="matrix(-0.020066,0,0,-0.020066,8.3098993,23.579052)" gradientUnits="userSpaceOnUse" spreadMethod="pad"><stop id="stop406" offset="0" stop-color="#6d6e70" stop-opacity="1"/><stop id="stop408" offset=".506" stop-color="#545557" stop-opacity="1"/><stop id="stop410" offset="1" stop-color="#2c2a2a" stop-opacity="1"/></linearGradient><clipPath id="clipPath418" clipPathUnits="userSpaceOnUse"><path id="path420" d="M 6.481,19.321 C 6.239,18.772 6.792,16.178 7.976,12.222 l 0,0 C 9.159,8.266 10.264,5.31 10.767,4.978 l 0,0 3.796,-2.546 c -0.6,0.494 -2.262,4.873 -3.885,10.302 l 0,0 C 9.076,18.092 8.066,22.612 8.262,23.437 l 0,0 c 0.002,0.04 0.011,0.077 0.024,0.114 l 0,0 -1.805,-4.23 z"/></clipPath><linearGradient id="linearGradient426" x1="0" x2="1" y1="0" y2="0" gradientTransform="matrix(-4.3015718,12.646788,-12.646788,-4.3015718,12.235738,5.7088718)" gradientUnits="userSpaceOnUse" spreadMethod="pad"><stop id="stop428" offset="0" stop-color="#2c2a2a" stop-opacity="1"/><stop id="stop430" offset=".5" stop-color="#2c2a2a" stop-opacity="1"/><stop id="stop432" offset=".803" stop-color="#545557" stop-opacity="1"/><stop id="stop434" offset="1" stop-color="#7b7979" stop-opacity="1"/></linearGradient><clipPath id="clipPath442" clipPathUnits="userSpaceOnUse"><path id="path444" d="M 14.597,2.409 C 14.595,2.41 14.593,2.412 14.591,2.413 l 0,0 0.006,-0.004 z M 14.614,2.397 14.597,2.409 C 14.603,2.405 14.609,2.4 14.614,2.397 M 14.646,2.376 14.645,2.38 C 14.637,2.386 14.628,2.389 14.62,2.394 l 0,0 c -0.002,10e-4 -0.004,0.002 -0.006,0.003 l 0,0 0.032,-0.021 z"/></clipPath><linearGradient id="linearGradient450" x1="0" x2="1" y1="0" y2="0" gradientTransform="matrix(-0.0553195,0,0,-0.0553195,14.646057,2.3940618)" gradientUnits="userSpaceOnUse" spreadMethod="pad"><stop id="stop452" offset="0" stop-color="#6d6e70" stop-opacity="1"/><stop id="stop454" offset=".506" stop-color="#545557" stop-opacity="1"/><stop id="stop456" offset="1" stop-color="#2c2a2a" stop-opacity="1"/></linearGradient><clipPath id="clipPath464" clipPathUnits="userSpaceOnUse"><path id="path466" d="m 12.356,25.271 -1.513,-0.439 c -0.35,-0.103 -0.607,-0.365 -0.715,-0.682 l 0,0 C 9.796,23.61 10.835,18.838 12.54,13.14 l 0,0 C 14.111,7.887 15.724,3.598 16.417,2.743 l 0,0 c 0.042,-0.052 0.08,-0.091 0.115,-0.116 l 0,0 C 16.8,2.389 17.183,2.291 17.554,2.398 l 0,0 1.512,0.44 c 0.765,0.223 1.272,0.894 1.312,1.637 l 0,0 C 20.5,5.463 19.542,9.724 18.04,14.745 l 0,0 c -1.557,5.204 -3.155,9.411 -3.756,9.947 l 0,0 c -0.345,0.41 -0.862,0.653 -1.409,0.653 l 0,0 c -0.172,0 -0.346,-0.024 -0.519,-0.074"/></clipPath><linearGradient id="linearGradient472" x1="0" x2="1" y1="0" y2="0" gradientTransform="matrix(-5.1411953,-1.5166993,1.5166993,-5.1411953,17.81259,14.677854)" gradientUnits="userSpaceOnUse" spreadMethod="pad"><stop id="stop474" offset="0" stop-color="#363233" stop-opacity="1"/><stop id="stop476" offset=".334" stop-color="#343131" stop-opacity="1"/><stop id="stop478" offset="1" stop-color="#2b2829" stop-opacity="1"/></linearGradient><clipPath id="clipPath486" clipPathUnits="userSpaceOnUse"><path id="path488" d="m 12.356,25.271 -1.513,-0.439 c -0.35,-0.103 -0.607,-0.365 -0.715,-0.682 l 0,0 C 9.796,23.61 10.835,18.838 12.54,13.14 l 0,0 C 14.111,7.887 15.724,3.598 16.417,2.743 l 0,0 c 0.042,-0.052 0.08,-0.091 0.115,-0.116 l 0,0 C 16.8,2.389 17.183,2.291 17.554,2.398 l 0,0 1.512,0.44 c 0.765,0.223 1.272,0.894 1.312,1.637 l 0,0 C 20.5,5.463 19.542,9.724 18.04,14.745 l 0,0 c -1.557,5.204 -3.155,9.411 -3.756,9.947 l 0,0 c -0.345,0.41 -0.862,0.653 -1.409,0.653 l 0,0 c -0.172,0 -0.346,-0.024 -0.519,-0.074"/></clipPath><linearGradient id="linearGradient494" x1="0" x2="1" y1="0" y2="0" gradientTransform="matrix(6.3956504,-21.408249,21.408249,6.3956504,12.098288,24.624998)" gradientUnits="userSpaceOnUse" spreadMethod="pad"><stop id="stop496" offset="0" stop-color="#3b3839" stop-opacity="1"/><stop id="stop498" offset=".279" stop-color="#363233" stop-opacity="1"/><stop id="stop500" offset=".5" stop-color="#322e2f" stop-opacity="1"/><stop id="stop502" offset="1" stop-color="#2b2829" stop-opacity="1"/></linearGradient><clipPath id="clipPath510" clipPathUnits="userSpaceOnUse"><path id="path512" d="M 8.548,23.792 C 8.382,23.743 8.273,23.598 8.262,23.437 l 0,0 C 8.066,22.612 9.076,18.092 10.678,12.734 l 0,0 C 12.357,7.121 14.076,2.628 14.62,2.394 l 0,0 c 0.098,-0.067 0.223,-0.095 0.345,-0.059 l 0,0 1.444,0.42 C 15.711,3.632 14.105,7.906 12.54,13.14 l 0,0 c -1.705,5.698 -2.744,10.47 -2.412,11.01 l 0,0 c 0.013,0.041 0.037,0.078 0.056,0.117 l 0,0 -1.636,-0.475 z"/></clipPath><linearGradient id="linearGradient518" x1="0" x2="1" y1="0" y2="0" gradientTransform="matrix(4.6691947,-20.454718,20.454718,4.6691947,9.8681049,23.245422)" gradientUnits="userSpaceOnUse" spreadMethod="pad"><stop id="stop520" offset="0" stop-color="#d3d2d2" stop-opacity="1"/><stop id="stop522" offset=".139" stop-color="#a7a5a6" stop-opacity="1"/><stop id="stop524" offset=".274" stop-color="#6d6e70" stop-opacity="1"/><stop id="stop526" offset="1" stop-color="#373737" stop-opacity="1"/></linearGradient><clipPath id="clipPath534" clipPathUnits="userSpaceOnUse"><path id="path536" d="M 0,48 48,48 48,0 0,0 0,48 Z"/></clipPath><clipPath id="clipPath542" clipPathUnits="userSpaceOnUse"><path id="path544" d="m 5.92461,19.951 5.68449,0 0,-15.77581 -5.68449,0 0,15.77581 z"/></clipPath><clipPath id="clipPath558" clipPathUnits="userSpaceOnUse"><path id="path560" d="m 9.56622,24.3755 7.23948,0 0,-21.98253 -7.23948,0 0,21.98253 z"/></clipPath><clipPath id="clipPath574" clipPathUnits="userSpaceOnUse"><path id="path576" d="m 3.22752,47.375 41.54498,0 0,-45.55511 -41.54498,0 0,45.55511 z"/></clipPath><clipPath id="clipPath578" clipPathUnits="userSpaceOnUse"><path id="path580" d="m 3.22752,47.375 41.54498,0 0,-45.55511 -41.54498,0 0,45.55511 z"/></clipPath><clipPath id="clipPath602" clipPathUnits="userSpaceOnUse"><path id="path604" d="m 8.42703,3.75734 14.86737,0 0,-3.305848 -14.86737,0 0,3.305848 z"/></clipPath><clipPath id="clipPath606" clipPathUnits="userSpaceOnUse"><path id="path608" d="m 23.294,2.104 c 0,-0.913 -3.328,-1.653 -7.433,-1.653 -4.106,0 -7.434,0.74 -7.434,1.653 0,0.914 3.328,1.654 7.434,1.654 4.105,0 7.433,-0.74 7.433,-1.654"/></clipPath><clipPath id="clipPath610" clipPathUnits="userSpaceOnUse"><path id="path612" d="m -32768,32767 65535,0 0,-65535 -65535,0 0,65535 z"/></clipPath><radialGradient id="radialGradient614" cx="0" cy="0" r="1" fx="0" fy="0" gradientTransform="matrix(7.4661584,0,0,-1.5484505,15.860712,2.1044154)" gradientUnits="userSpaceOnUse" spreadMethod="pad"><stop id="stop616" offset="0" stop-color="#fff" stop-opacity="1"/><stop id="stop618" offset=".531" stop-color="#fff" stop-opacity="0"/><stop id="stop620" offset="1" stop-color="#fff" stop-opacity="0"/></radialGradient><mask id="mask622" width="1" height="1" x="0" y="0" maskUnits="userSpaceOnUse"><g id="g624"><g id="g626" clip-path="url(#clipPath610)"><g id="g628"><g id="g630"><path id="path632" fill="url(#radialGradient614)" stroke="none" d="m -32768,32767 65535,0 0,-65535 -65535,0 0,65535 z"/></g></g></g></g></mask><radialGradient id="radialGradient634" cx="0" cy="0" r="1" fx="0" fy="0" gradientTransform="matrix(7.4661584,0,0,-1.5484505,15.860712,2.1044154)" gradientUnits="userSpaceOnUse" spreadMethod="pad"><stop id="stop636" offset="0" stop-color="#100f0d" stop-opacity="1"/><stop id="stop638" offset=".531" stop-color="#100f0d" stop-opacity="1"/><stop id="stop640" offset="1" stop-color="#100f0d" stop-opacity="1"/></radialGradient><clipPath id="clipPath664" clipPathUnits="userSpaceOnUse"><path id="path666" d="m 24.9458,3.75734 14.8674,0 0,-3.305848 -14.8674,0 0,3.305848 z"/></clipPath><clipPath id="clipPath668" clipPathUnits="userSpaceOnUse"><path id="path670" d="m 39.813,2.104 c 0,-0.913 -3.328,-1.653 -7.433,-1.653 -4.106,0 -7.434,0.74 -7.434,1.653 0,0.914 3.328,1.654 7.434,1.654 4.105,0 7.433,-0.74 7.433,-1.654"/></clipPath><clipPath id="clipPath672" clipPathUnits="userSpaceOnUse"><path id="path674" d="m -32768,32767 65535,0 0,-65535 -65535,0 0,65535 z"/></clipPath><radialGradient id="radialGradient676" cx="0" cy="0" r="1" fx="0" fy="0" gradientTransform="matrix(7.4661584,0,0,-1.5484505,32.379536,2.1044154)" gradientUnits="userSpaceOnUse" spreadMethod="pad"><stop id="stop678" offset="0" stop-color="#fff" stop-opacity="1"/><stop id="stop680" offset=".531" stop-color="#fff" stop-opacity="0"/><stop id="stop682" offset="1" stop-color="#fff" stop-opacity="0"/></radialGradient><mask id="mask684" width="1" height="1" x="0" y="0" maskUnits="userSpaceOnUse"><g id="g686"><g id="g688" clip-path="url(#clipPath672)"><g id="g690"><g id="g692"><path id="path694" fill="url(#radialGradient676)" stroke="none" d="m -32768,32767 65535,0 0,-65535 -65535,0 0,65535 z"/></g></g></g></g></mask><radialGradient id="radialGradient696" cx="0" cy="0" r="1" fx="0" fy="0" gradientTransform="matrix(7.4661584,0,0,-1.5484505,32.379536,2.1044154)" gradientUnits="userSpaceOnUse" spreadMethod="pad"><stop id="stop698" offset="0" stop-color="#100f0d" stop-opacity="1"/><stop id="stop700" offset=".531" stop-color="#100f0d" stop-opacity="1"/><stop id="stop702" offset="1" stop-color="#100f0d" stop-opacity="1"/></radialGradient></defs><g id="g10" transform="matrix(1.25,0,0,-1.25,0,60)"><g id="g12"><g id="g14" clip-path="url(#clipPath16)"><g id="g20"><g id="g22"><path id="path38" fill="url(#linearGradient24)" stroke="none" d="m 3.728,26.893 c 0,-0.981 0.073,-1.944 0.211,-2.886 l 0,0 c 0.121,-1.54 0.098,-3.213 0.123,-4.586 l 0,0 C 4.088,17.941 4.12,16.045 4.12,16.045 l 0,0 c 0.02,-1.187 0.448,-3.13 1.207,-5.244 l 0,0 C 5.937,9.103 6.643,7.627 7.28,6.634 l 0,0 0,-0.001 c 0,0 0.004,-0.005 0.01,-0.013 l 0,0 C 7.394,6.457 7.497,6.307 7.597,6.172 l 0,0 C 8.028,5.547 8.794,4.448 9.192,3.934 l 0,0 C 9.239,3.868 9.286,3.811 9.331,3.758 l 0,0 C 9.75,3.264 10.037,3.014 10.426,2.805 l 0,0 C 10.814,2.596 11.11,2.763 11.11,2.763 l 0,0 c 0.245,0.071 0.291,0.759 0.171,1.87 l 0,0 3.364,-2.254 c 0.093,-0.056 0.208,-0.076 0.32,-0.044 l 0,0 1.443,0.42 c 0.003,-0.004 0.006,-0.008 0.009,-0.012 l 0,0 c 0.042,-0.052 0.08,-0.091 0.115,-0.116 l 0,0 C 16.8,2.389 17.183,2.291 17.554,2.398 l 0,0 1.512,0.44 c 0.765,0.223 1.272,0.894 1.312,1.637 l 0,0 C 20.5,5.463 19.542,9.724 18.04,14.745 l 0,0 c -1.557,5.204 -3.155,9.411 -3.756,9.947 l 0,0 c -0.453,0.539 -1.204,0.79 -1.928,0.579 l 0,0 -1.513,-0.439 c -0.307,-0.09 -0.542,-0.303 -0.669,-0.567 l 0,0 -1.626,-0.473 C 8.44,23.76 8.357,23.689 8.309,23.598 l 0,0 -1.541,-3.603 c -0.016,0.03 -0.032,0.062 -0.048,0.092 l 0,0 -0.135,0.368 c -0.408,1.486 -0.628,3.05 -0.628,4.664 l 0,0 c 0,9.823 8.079,17.785 18.043,17.785 l 0,0 c 9.965,0 18.043,-7.962 18.043,-17.785 l 0,0 c 0,-1.704 -0.244,-3.351 -0.698,-4.91 l 0,0 -0.045,-0.122 c -0.016,-0.03 -0.031,-0.062 -0.047,-0.092 l 0,0 -1.541,3.603 c -0.049,0.091 -0.132,0.162 -0.239,0.194 l 0,0 -1.627,0.473 c -0.126,0.264 -0.362,0.477 -0.669,0.567 l 0,0 -1.513,0.439 c -0.723,0.211 -1.475,-0.04 -1.928,-0.579 l 0,0 c -0.601,-0.536 -2.199,-4.743 -3.755,-9.947 l 0,0 C 28.479,9.724 27.52,5.463 27.643,4.475 l 0,0 c 0.039,-0.743 0.546,-1.414 1.311,-1.637 l 0,0 1.513,-0.44 c 0.371,-0.107 0.753,-0.009 1.021,0.229 l 0,0 c 0.035,0.025 0.073,0.064 0.116,0.116 l 0,0 0.009,0.012 1.441,-0.42 c 0.114,-0.032 0.228,-0.012 0.321,0.044 l 0,0 3.365,2.254 C 36.619,3.522 36.665,2.834 36.91,2.763 l 0,0 c 0,0 0.297,-0.167 0.686,0.042 l 0,0 c 0.388,0.209 0.675,0.459 1.093,0.953 l 0,0 c 0.045,0.053 0.091,0.11 0.14,0.176 l 0,0 c 0.398,0.514 1.163,1.613 1.595,2.238 l 0,0 c 0.099,0.135 0.202,0.285 0.307,0.448 l 0,0 c 0.006,0.008 0.009,0.013 0.009,0.013 l 0,0 0,0.001 c 0.638,0.993 1.343,2.469 1.953,4.167 l 0,0 c 0.76,2.114 1.188,4.057 1.206,5.244 l 0,0 10e-4,0 c 0,0 0.033,1.896 0.059,3.376 l 0,0 c 0.027,1.48 -0.003,3.308 0.153,4.943 l 0,0 0,10e-4 c 0.106,0.828 0.161,1.671 0.161,2.528 l 0,0 c 0,11.036 -9.077,19.982 -20.273,19.982 l 0,0 C 12.803,46.875 3.728,37.929 3.728,26.893"/></g></g></g></g><g id="g40"><g id="g42" clip-path="url(#clipPath44)"><g id="g48"><g id="g70"><g id="g72" clip-path="url(#clipPath52)" opacity=".3"><g id="g74"><g id="g76" clip-path="url(#clipPath56)"><g id="g78"><g id="g80"><path id="path82" fill="url(#linearGradient60)" stroke="none" d="m 5.957,25.119 c 0,9.822 8.078,17.785 18.043,17.785 9.965,0 18.043,-7.963 18.043,-17.785 l 2.068,-0.755 0,10e-4 c 0.107,0.828 0.161,1.671 0.161,2.528 0,11.036 -9.076,19.982 -20.272,19.982 -11.196,0 -20.272,-8.946 -20.272,-19.982 0,-0.981 0.073,-1.944 0.211,-2.887"/></g></g></g></g></g></g></g><g id="g84" transform="translate(3.8848,29.3418)"><path id="path86" fill="#d3d2d2" fill-opacity="1" fill-rule="nonzero" stroke="none" d="m 0,0 c -0.1,-0.803 -0.157,-1.62 -0.157,-2.449 0,-0.981 0.073,-1.944 0.212,-2.886 l 0.908,0.129 1.109,0.983 c 0,1.456 0.181,2.869 0.516,4.223 L 1.516,-0.155 0,0 Z"/></g><g id="g88" transform="translate(44.1152,29.3418)"><path id="path90" fill="#d3d2d2" fill-opacity="1" fill-rule="nonzero" stroke="none" d="m 0,0 c 0.1,-0.803 0.157,-1.62 0.157,-2.449 0,-0.981 -0.073,-1.944 -0.212,-2.886 l -0.909,0.129 -1.108,0.983 c 0,1.456 -0.182,2.869 -0.516,4.223 L -1.516,-0.155 0,0 Z"/></g><g id="g92"><g id="g100"><g id="g102" clip-path="url(#clipPath96)" opacity=".8"><g id="g104" transform="translate(42.3125,19.291)"><path id="path106" fill="#231f20" fill-opacity="1" fill-rule="nonzero" stroke="none" d="m 0,0 c 0.017,0.032 0.034,0.065 0.051,0.098 l 0.047,0.13 c 0.482,1.655 0.741,3.403 0.741,5.211 0,10.426 -8.574,18.878 -19.151,18.878 -10.578,0 -19.152,-8.452 -19.152,-18.878 0,-1.713 0.233,-3.373 0.667,-4.95 l 0.143,-0.391 0,0 c 0.017,-0.033 0.033,-0.066 0.05,-0.098 l 1.059,0.704 c -0.016,0.03 -0.032,0.062 -0.047,0.092 l -0.135,0.368 c -0.409,1.486 -0.628,3.05 -0.628,4.664 0,9.822 8.078,17.785 18.043,17.785 9.964,0 18.042,-7.963 18.042,-17.785 0,-1.703 -0.244,-3.35 -0.698,-4.91 L -1.013,0.796 C -1.028,0.766 -1.044,0.734 -1.06,0.704 L 0,0 Z"/></g></g></g></g></g></g><g id="g108"><g id="g110" clip-path="url(#clipPath112)"><g id="g116"><g id="g118"><path id="path128" fill="url(#radialGradient120)" stroke="none" d="M 6.835,33.292 C 6.724,33.063 6.872,32.779 7.098,32.779 l 0,0 0.526,0 c 0.513,0 0.998,0.283 1.294,0.768 l 0,0 c 3.347,5.457 8.853,8.65 15.082,8.65 l 0,0 c 6.229,0 11.734,-3.193 15.082,-8.65 l 0,0 c 0.297,-0.485 0.782,-0.768 1.295,-0.768 l 0,0 0.525,0 c 0.227,0 0.375,0.284 0.263,0.513 l 0,0 C 37.669,40.499 31.292,44.582 24,44.582 l 0,0 c -7.292,0 -13.669,-4.083 -17.165,-11.29"/></g></g></g></g><g id="g130"><g id="g132" clip-path="url(#clipPath134)"><g id="g138"><g id="g140"><path id="path150" fill="url(#linearGradient142)" stroke="none" d="M 42.098,11.555 C 41.063,8.375 39.929,5.674 39.109,4.307 l 0,0 c 0.414,0.565 0.97,1.366 1.315,1.865 l 0,0 c 0.099,0.135 0.202,0.285 0.307,0.448 l 0,0 c 0.006,0.008 0.009,0.013 0.009,0.013 l 0,0 0,0.001 c 0.638,0.993 1.343,2.469 1.953,4.167 l 0,0 c 0.76,2.114 1.188,4.057 1.206,5.244 l 0,0 10e-4,0 c 0,0 0.031,1.764 0.056,3.218 l 0,0 c -0.123,-1.57 -0.803,-4.467 -1.858,-7.708"/></g></g></g></g><g id="g152"><g id="g154" clip-path="url(#clipPath156)"><g id="g160"><g id="g162"><path id="path170" fill="url(#linearGradient164)" stroke="none" d="M 38.447,12.33 C 36.967,7.231 36.278,2.947 36.91,2.763 l 0,0 c 0.632,-0.184 2.343,3.803 3.824,8.903 l 0,0 c 1.481,5.099 2.169,9.384 1.537,9.568 l 0,0 c -0.014,0.004 -0.028,0.006 -0.043,0.006 l 0,0 c -0.664,0 -2.333,-3.923 -3.781,-8.91"/></g></g></g></g><g id="g172"><g id="g174" clip-path="url(#clipPath176)"><g id="g180"><g id="g182"><path id="path192" fill="url(#linearGradient184)" stroke="none" d="m 39.71,23.594 c 0.006,-0.011 0.013,-0.02 0.018,-0.029 l 0,0 -0.016,0.035 -0.002,-0.006 z m 0.02,-0.036 c 0,0.003 -10e-4,0.005 -0.002,0.007 l 0,0 0.002,-0.007 z"/></g></g></g></g><g id="g194"><g id="g196" clip-path="url(#clipPath198)"><g id="g202"><g id="g204"><path id="path216" fill="url(#linearGradient206)" stroke="none" d="m 39.758,23.437 c 0.198,-0.825 -0.812,-5.345 -2.415,-10.703 l 0,0 C 35.718,7.305 34.058,2.926 33.458,2.432 l 0,0 3.796,2.546 c 0.503,0.332 1.607,3.288 2.791,7.244 l 0,0 c 1.183,3.956 1.737,6.55 1.495,7.099 l 0,0 -1.807,4.23 c 0.014,-0.037 0.023,-0.074 0.025,-0.114"/></g></g></g></g><g id="g218"><g id="g220" clip-path="url(#clipPath222)"><g id="g226"><g id="g228"><path id="path238" fill="url(#linearGradient230)" stroke="none" d="M 33.426,2.41 33.43,2.413 C 33.428,2.412 33.427,2.411 33.426,2.41 m -0.02,-0.013 c 0.006,0.004 0.013,0.009 0.02,0.013 l 0,0 -0.02,-0.013 z M 33.399,2.394 C 33.393,2.389 33.384,2.386 33.376,2.38 l 0,0 -0.002,-0.004 0.032,0.021 C 33.404,2.396 33.401,2.395 33.399,2.394"/></g></g></g></g><g id="g240"><g id="g242" clip-path="url(#clipPath244)"><g id="g248"><g id="g250"><path id="path260" fill="url(#linearGradient252)" stroke="none" d="m 33.736,24.692 c -0.601,-0.536 -2.199,-4.743 -3.755,-9.947 l 0,0 C 28.479,9.724 27.52,5.463 27.643,4.475 l 0,0 c 0.039,-0.743 0.546,-1.414 1.311,-1.637 l 0,0 1.513,-0.44 c 0.371,-0.107 0.753,-0.009 1.021,0.229 l 0,0 c 0.035,0.025 0.073,0.064 0.116,0.116 l 0,0 c 0.692,0.855 2.305,5.144 3.877,10.397 l 0,0 c 1.704,5.698 2.743,10.47 2.412,11.01 l 0,0 c -0.107,0.317 -0.366,0.579 -0.716,0.682 l 0,0 -1.513,0.439 c -0.173,0.05 -0.347,0.074 -0.519,0.074 l 0,0 c -0.546,0 -1.064,-0.243 -1.409,-0.653"/></g></g></g></g><g id="g262"><g id="g264" clip-path="url(#clipPath266)"><g id="g270"><g id="g272"><path id="path284" fill="url(#linearGradient274)" stroke="none" d="m 33.736,24.692 c -0.601,-0.536 -2.199,-4.743 -3.755,-9.947 l 0,0 C 28.479,9.724 27.52,5.463 27.643,4.475 l 0,0 c 0.039,-0.743 0.546,-1.414 1.311,-1.637 l 0,0 1.513,-0.44 c 0.371,-0.107 0.753,-0.009 1.021,0.229 l 0,0 c 0.035,0.025 0.073,0.064 0.116,0.116 l 0,0 c 0.692,0.855 2.305,5.144 3.877,10.397 l 0,0 c 1.704,5.698 2.743,10.47 2.412,11.01 l 0,0 c -0.107,0.317 -0.366,0.579 -0.716,0.682 l 0,0 -1.513,0.439 c -0.173,0.05 -0.347,0.074 -0.519,0.074 l 0,0 c -0.546,0 -1.064,-0.243 -1.409,-0.653"/></g></g></g></g><g id="g286"><g id="g288" clip-path="url(#clipPath290)"><g id="g294"><g id="g296"><path id="path308" fill="url(#linearGradient298)" stroke="none" d="m 37.893,24.15 c 0.331,-0.54 -0.708,-5.312 -2.412,-11.01 l 0,0 C 33.915,7.906 32.31,3.632 31.612,2.755 l 0,0 1.442,-0.42 c 0.124,-0.036 0.249,-0.008 0.345,0.059 l 0,0 c 0.545,0.234 2.264,4.727 3.944,10.34 l 0,0 c 1.603,5.358 2.613,9.878 2.415,10.703 l 0,0 c -0.01,0.161 -0.119,0.306 -0.285,0.355 l 0,0 -1.636,0.475 c 0.019,-0.039 0.042,-0.076 0.056,-0.117"/></g></g></g></g><g id="g310"><g id="g312" clip-path="url(#clipPath314)"><g id="g318"><g id="g326"><g id="g328" clip-path="url(#clipPath322)" opacity=".5"><g id="g330" transform="translate(36.7627,4.6982)"><path id="path332" fill="none" stroke="#100f0d" stroke-dasharray="none" stroke-linecap="butt" stroke-linejoin="miter" stroke-miterlimit="10" stroke-opacity="1" stroke-width="1" d="m 0,0 c 0,0 0.125,-0.123 0.491,0.198 0.365,0.322 1.608,3.287 2.791,7.244 1.184,3.957 1.737,6.551 1.495,7.1 l -0.196,0.54"/></g></g></g></g><g id="g334"><g id="g342"><g id="g344" clip-path="url(#clipPath338)" opacity=".5"><g id="g346" transform="translate(31.6035,2.708)"><path id="path348" fill="none" stroke="#231f20" stroke-dasharray="none" stroke-linecap="butt" stroke-linejoin="miter" stroke-miterlimit="10" stroke-opacity="1" stroke-width="1" d="m 0,0 0,0 c 0.693,0.855 2.306,5.144 3.877,10.396 1.705,5.699 2.743,10.47 2.412,11.01"/></g></g></g></g></g></g><g id="g350"><g id="g352" clip-path="url(#clipPath354)"><g id="g358"><g id="g360"><path id="path370" fill="url(#linearGradient362)" stroke="none" d="m 4.12,16.045 c 0.02,-1.187 0.448,-3.13 1.207,-5.244 l 0,0 C 5.937,9.103 6.643,7.627 7.28,6.634 l 0,0 0,-0.001 c 0,0 0.004,-0.005 0.01,-0.013 l 0,0 C 7.394,6.457 7.497,6.307 7.597,6.172 l 0,0 C 7.942,5.673 8.498,4.872 8.912,4.307 l 0,0 C 8.09,5.674 6.958,8.375 5.922,11.555 l 0,0 c -1.055,3.241 -1.735,6.138 -1.858,7.708 l 0,0 C 4.09,17.809 4.12,16.045 4.12,16.045"/></g></g></g></g><g id="g372"><g id="g374" clip-path="url(#clipPath376)"><g id="g380"><g id="g382"><path id="path390" fill="url(#linearGradient384)" stroke="none" d="M 5.748,21.234 C 5.117,21.05 5.805,16.765 7.286,11.666 l 0,0 c 1.48,-5.1 3.193,-9.087 3.824,-8.903 l 0,0 c 0.631,0.184 -0.056,4.468 -1.537,9.567 l 0,0 c -1.447,4.987 -3.117,8.91 -3.781,8.91 l 0,0 c -0.015,0 -0.03,-0.002 -0.044,-0.006"/></g></g></g></g><g id="g392"><g id="g394" clip-path="url(#clipPath396)"><g id="g400"><g id="g402"><path id="path412" fill="url(#linearGradient404)" stroke="none" d="m 8.29,23.558 c 0.005,0.013 0.013,0.023 0.02,0.036 l 0,0 L 8.308,23.6 8.29,23.558 Z"/></g></g></g></g><g id="g414"><g id="g416" clip-path="url(#clipPath418)"><g id="g422"><g id="g424"><path id="path436" fill="url(#linearGradient426)" stroke="none" d="M 6.481,19.321 C 6.239,18.772 6.792,16.178 7.976,12.222 l 0,0 C 9.159,8.266 10.264,5.31 10.767,4.978 l 0,0 3.796,-2.546 c -0.6,0.494 -2.262,4.873 -3.885,10.302 l 0,0 C 9.076,18.092 8.066,22.612 8.262,23.437 l 0,0 c 0.002,0.04 0.011,0.077 0.024,0.114 l 0,0 -1.805,-4.23 z"/></g></g></g></g><g id="g438"><g id="g440" clip-path="url(#clipPath442)"><g id="g446"><g id="g448"><path id="path458" fill="url(#linearGradient450)" stroke="none" d="M 14.597,2.409 C 14.595,2.41 14.593,2.412 14.591,2.413 l 0,0 0.006,-0.004 z M 14.614,2.397 14.597,2.409 C 14.603,2.405 14.609,2.4 14.614,2.397 M 14.646,2.376 14.645,2.38 C 14.637,2.386 14.628,2.389 14.62,2.394 l 0,0 c -0.002,10e-4 -0.004,0.002 -0.006,0.003 l 0,0 0.032,-0.021 z"/></g></g></g></g><g id="g460"><g id="g462" clip-path="url(#clipPath464)"><g id="g468"><g id="g470"><path id="path480" fill="url(#linearGradient472)" stroke="none" d="m 12.356,25.271 -1.513,-0.439 c -0.35,-0.103 -0.607,-0.365 -0.715,-0.682 l 0,0 C 9.796,23.61 10.835,18.838 12.54,13.14 l 0,0 C 14.111,7.887 15.724,3.598 16.417,2.743 l 0,0 c 0.042,-0.052 0.08,-0.091 0.115,-0.116 l 0,0 C 16.8,2.389 17.183,2.291 17.554,2.398 l 0,0 1.512,0.44 c 0.765,0.223 1.272,0.894 1.312,1.637 l 0,0 C 20.5,5.463 19.542,9.724 18.04,14.745 l 0,0 c -1.557,5.204 -3.155,9.411 -3.756,9.947 l 0,0 c -0.345,0.41 -0.862,0.653 -1.409,0.653 l 0,0 c -0.172,0 -0.346,-0.024 -0.519,-0.074"/></g></g></g></g><g id="g482"><g id="g484" clip-path="url(#clipPath486)"><g id="g490"><g id="g492"><path id="path504" fill="url(#linearGradient494)" stroke="none" d="m 12.356,25.271 -1.513,-0.439 c -0.35,-0.103 -0.607,-0.365 -0.715,-0.682 l 0,0 C 9.796,23.61 10.835,18.838 12.54,13.14 l 0,0 C 14.111,7.887 15.724,3.598 16.417,2.743 l 0,0 c 0.042,-0.052 0.08,-0.091 0.115,-0.116 l 0,0 C 16.8,2.389 17.183,2.291 17.554,2.398 l 0,0 1.512,0.44 c 0.765,0.223 1.272,0.894 1.312,1.637 l 0,0 C 20.5,5.463 19.542,9.724 18.04,14.745 l 0,0 c -1.557,5.204 -3.155,9.411 -3.756,9.947 l 0,0 c -0.345,0.41 -0.862,0.653 -1.409,0.653 l 0,0 c -0.172,0 -0.346,-0.024 -0.519,-0.074"/></g></g></g></g><g id="g506"><g id="g508" clip-path="url(#clipPath510)"><g id="g514"><g id="g516"><path id="path528" fill="url(#linearGradient518)" stroke="none" d="M 8.548,23.792 C 8.382,23.743 8.273,23.598 8.262,23.437 l 0,0 C 8.066,22.612 9.076,18.092 10.678,12.734 l 0,0 C 12.357,7.121 14.076,2.628 14.62,2.394 l 0,0 c 0.098,-0.067 0.223,-0.095 0.345,-0.059 l 0,0 1.444,0.42 C 15.711,3.632 14.105,7.906 12.54,13.14 l 0,0 c -1.705,5.698 -2.744,10.47 -2.412,11.01 l 0,0 c 0.013,0.041 0.037,0.078 0.056,0.117 l 0,0 -1.636,-0.475 z"/></g></g></g></g><g id="g530"><g id="g532" clip-path="url(#clipPath534)"><g id="g538"><g id="g546"><g id="g548" clip-path="url(#clipPath542)" opacity=".5"><g id="g550" transform="translate(11.2583,4.6982)"><path id="path552" fill="none" stroke="#100f0d" stroke-dasharray="none" stroke-linecap="butt" stroke-linejoin="miter" stroke-miterlimit="10" stroke-opacity="1" stroke-width="1" d="m 0,0 c 0,0 -0.126,-0.123 -0.491,0.198 -0.366,0.322 -1.608,3.287 -2.792,7.244 -1.183,3.957 -1.737,6.551 -1.495,7.1 l 0.196,0.54"/></g></g></g></g><g id="g554"><g id="g562"><g id="g564" clip-path="url(#clipPath558)" opacity=".5"><g id="g566" transform="translate(16.417,2.708)"><path id="path568" fill="none" stroke="#231f20" stroke-dasharray="none" stroke-linecap="butt" stroke-linejoin="miter" stroke-miterlimit="10" stroke-opacity="1" stroke-width="1" d="m 0,0 0,0 c -0.693,0.855 -2.306,5.144 -3.877,10.396 -1.705,5.699 -2.744,10.47 -2.413,11.01"/></g></g></g></g><g id="g570"><g id="g582"><g id="g584" clip-path="url(#clipPath574)"><g id="g586"><g id="g590"><g id="g592" clip-path="url(#clipPath578)" opacity=".5"><g id="g594" transform="translate(44.2725,26.8926)"><path id="path596" fill="none" stroke="#231f20" stroke-dasharray="none" stroke-linecap="butt" stroke-linejoin="miter" stroke-miterlimit="10" stroke-opacity="1" stroke-width="1" d="m 0,0 c 0,11.036 -9.076,19.982 -20.272,19.982 -11.197,0 -20.273,-8.946 -20.273,-19.982 0,-0.98 0.073,-1.944 0.212,-2.886 0.121,-1.54 0.098,-3.213 0.122,-4.586 0.026,-1.479 0.059,-3.376 0.059,-3.376 l 0,0 c 0.019,-1.186 0.447,-3.13 1.207,-5.244 0.61,-1.698 1.316,-3.174 1.953,-4.167 l -0.001,-0.001 c 0,0 0.004,-0.005 0.01,-0.013 0.105,-0.163 0.207,-0.312 0.307,-0.448 0.432,-0.625 1.197,-1.723 1.595,-2.238 0.048,-0.065 0.095,-0.123 0.14,-0.175 0.418,-0.494 0.705,-0.745 1.094,-0.953 0.388,-0.209 0.684,-0.043 0.684,-0.043 0.246,0.071 0.292,0.759 0.171,1.87 l 3.365,-2.254 c 0.093,-0.055 0.207,-0.076 0.32,-0.043 l 1.442,0.419 c 0.003,-0.004 0.007,-0.008 0.01,-0.011 0.042,-0.052 0.08,-0.091 0.115,-0.117 0.268,-0.237 0.65,-0.336 1.021,-0.228 l 1.513,0.439 c 0.765,0.223 1.271,0.895 1.311,1.637 0.123,0.988 -0.836,5.249 -2.337,10.271 -1.557,5.204 -3.156,9.41 -3.756,9.947 -0.453,0.538 -1.204,0.789 -1.928,0.579 l -1.513,-0.44 c -0.307,-0.089 -0.543,-0.302 -0.669,-0.567 l -1.627,-0.473 c -0.108,-0.031 -0.191,-0.103 -0.239,-0.193 l -1.541,-3.603 c -0.016,0.03 -0.032,0.061 -0.047,0.091 l -0.135,0.369 c -0.409,1.486 -0.628,3.049 -0.628,4.664 0,2.745 0.631,5.344 1.758,7.666 0.479,0.032 0.924,0.306 1.203,0.761 3.347,5.458 8.852,8.651 15.082,8.651 6.229,0 11.734,-3.193 15.082,-8.651 0.278,-0.455 0.723,-0.729 1.202,-0.761 1.127,-2.322 1.759,-4.921 1.759,-7.666 0,-1.704 -0.245,-3.351 -0.699,-4.911 l -0.045,-0.122 c -0.015,-0.03 -0.031,-0.061 -0.047,-0.091 l -1.541,3.603 c -0.048,0.09 -0.131,0.162 -0.239,0.193 l -1.627,0.473 c -0.126,0.265 -0.361,0.478 -0.669,0.567 l -1.512,0.44 c -0.724,0.21 -1.475,-0.041 -1.928,-0.579 -0.601,-0.537 -2.199,-4.743 -3.756,-9.947 -1.502,-5.022 -2.46,-9.283 -2.338,-10.271 0.04,-0.742 0.546,-1.414 1.312,-1.637 l 1.512,-0.439 c 0.371,-0.108 0.753,-0.009 1.022,0.228 0.035,0.026 0.073,0.065 0.115,0.117 l 0.009,0.011 1.442,-0.419 c 0.114,-0.033 0.228,-0.012 0.321,0.043 l 3.365,2.254 c -0.121,-1.111 -0.075,-1.799 0.17,-1.87 0,0 0.297,-0.166 0.684,0.043 0.389,0.208 0.676,0.459 1.095,0.953 0.045,0.052 0.091,0.11 0.14,0.175 0.397,0.515 1.163,1.613 1.594,2.238 0.1,0.136 0.203,0.285 0.308,0.448 0.005,0.008 0.009,0.013 0.009,0.013 l 0,0.001 c 0.637,0.993 1.343,2.469 1.953,4.167 0.76,2.114 1.187,4.058 1.206,5.244 l 0.001,0 c 0,0 0.032,1.897 0.059,3.376 0.026,1.48 -0.003,3.308 0.152,4.943 l 0,10e-4 C -0.055,-1.7 0,-0.856 0,0 Z"/></g></g></g></g></g></g></g><g id="g598"><g id="g642"><g id="g644" clip-path="url(#clipPath602)" opacity=".2"><g id="g646"><g id="g648" clip-path="url(#clipPath606)"><g id="g650"><g id="g654" mask="url(#mask622)"><g id="g656"><path id="path658" fill="url(#radialGradient634)" stroke="none" d="m 23.294,2.104 c 0,-0.913 -3.328,-1.653 -7.433,-1.653 -4.106,0 -7.434,0.74 -7.434,1.653 0,0.914 3.328,1.654 7.434,1.654 4.105,0 7.433,-0.74 7.433,-1.654"/></g></g></g></g></g></g></g></g><g id="g660"><g id="g704"><g id="g706" clip-path="url(#clipPath664)" opacity=".2"><g id="g708"><g id="g710" clip-path="url(#clipPath668)"><g id="g712"><g id="g716" mask="url(#mask684)"><g id="g718"><path id="path720" fill="url(#radialGradient696)" stroke="none" d="m 39.813,2.104 c 0,-0.913 -3.328,-1.653 -7.433,-1.653 -4.106,0 -7.434,0.74 -7.434,1.653 0,0.914 3.328,1.654 7.434,1.654 4.105,0 7.433,-0.74 7.433,-1.654"/></g></g></g></g></g></g></g></g></g></g></g></svg>