<svg xmlns="http://www.w3.org/2000/svg" xmlns:svg="http://www.w3.org/2000/svg" xmlns:xlink="http://www.w3.org/1999/xlink" id="svg2485" width="48" height="48" version="1.0" viewBox="0 0 48 48"><metadata id="metadata71"/><defs id="defs2487"><linearGradient id="linearGradient5126"><stop id="stop5128" offset="0" stop-color="#fff" stop-opacity="1"/><stop id="stop5130" offset="1" stop-color="#fff" stop-opacity="0"/></linearGradient><linearGradient id="linearGradient5118"><stop id="stop5120" offset="0" stop-color="#9d9d9d" stop-opacity="1"/><stop id="stop5122" offset="1" stop-color="#fff" stop-opacity="1"/></linearGradient><linearGradient id="linearGradient4762"><stop id="stop4764" offset="0" stop-color="#fff" stop-opacity="1"/><stop id="stop4766" offset=".028" stop-color="#fff" stop-opacity=".235"/><stop id="stop4768" offset=".972" stop-color="#fff" stop-opacity=".157"/><stop id="stop4770" offset="1" stop-color="#fff" stop-opacity=".392"/></linearGradient><linearGradient id="linearGradient4393" x1="-5.001" x2="46.68" y1="35" y2="35" gradientTransform="matrix(0.92592593,0,0,1.5263158,1.7777778,-23.421053)" gradientUnits="userSpaceOnUse" xlink:href="#linearGradient2867-449-88-871-390-598-476-591-434-148-57-177-3-8-1"/><linearGradient id="linearGradient3254-3-182-8-5"><stop id="stop4663-8-7" offset="0" stop-color="#fff" stop-opacity="1"/><stop id="stop4665-7-6" offset="1" stop-color="#fff" stop-opacity="0"/></linearGradient><linearGradient id="linearGradient4760" x1="30" x2="30" y1="7.308" y2="43" gradientUnits="userSpaceOnUse" xlink:href="#linearGradient4762"/><linearGradient id="linearGradient3457-7-6" x1="-20.447" x2="-48.479" y1="-93.092" y2="-93.092" gradientTransform="matrix(0.1783638,0,0,0.1558618,28.646957,19.509417)" gradientUnits="userSpaceOnUse" spreadMethod="reflect" xlink:href="#linearGradient2793-2-0-669-94-2"/><linearGradient id="linearGradient2793-2-0-669-94-2"><stop id="stop4681-3-1" offset="0" stop-color="#b4b4b4" stop-opacity="1"/><stop id="stop4683-67-4" offset="1" stop-color="#fff" stop-opacity="1"/></linearGradient><linearGradient id="linearGradient5066-8" x1="-17.121" x2="-45.762" y1="-93.092" y2="-93.092" gradientTransform="matrix(0.61425314,0,0,0.1558618,40.07214,19.732487)" gradientUnits="userSpaceOnUse" spreadMethod="reflect" xlink:href="#linearGradient5118"/><radialGradient id="radialGradient5132" cx="16.5" cy="7.5" r="3.5" fx="16.5" fy="7.5" gradientTransform="matrix(1,0,0,0.42857143,0,4.2857143)" gradientUnits="userSpaceOnUse" xlink:href="#linearGradient5126"/><linearGradient id="linearGradient3820-7-2-1-2-6"><stop id="stop3822-2-6-3-3-7" offset="0" stop-color="#3d3d3d" stop-opacity="1"/><stop id="stop3864-8-7-7-9-1" offset=".5" stop-color="#686868" stop-opacity=".498"/><stop id="stop3824-1-2-5-0-3" offset="1" stop-color="#686868" stop-opacity="0"/></linearGradient><radialGradient id="radialGradient5362" cx="99.157" cy="186.171" r="62.769" fx="99.157" fy="186.171" gradientTransform="matrix(0.2549024,0,0,0.07169133,-1.275361,29.153187)" gradientUnits="userSpaceOnUse" xlink:href="#linearGradient3820-7-2-1-2-6"/><linearGradient id="linearGradient5508" x1="13.682" x2="17.773" y1="17.458" y2="35.717" gradientTransform="matrix(1.4666658,0,0,2.0811612,-6.0666553,-30.333874)" gradientUnits="userSpaceOnUse" xlink:href="#linearGradient3254-3-182-8-5"/><linearGradient id="linearGradient5510" x1="25.273" x2="27.318" y1="17.458" y2="35.717" gradientTransform="matrix(1.4666658,0,0,2.0811612,-6.0666553,-30.333874)" gradientUnits="userSpaceOnUse" xlink:href="#linearGradient3254-3-182-8-5"/><linearGradient id="linearGradient2867-449-88-871-390-598-476-591-434-148-57-177-3-8-1"><stop id="stop3750-8-9-7" offset="0" stop-color="#90dbec" stop-opacity="1"/><stop id="stop3752-3-2-4" offset=".262" stop-color="#42baea" stop-opacity="1"/><stop id="stop3754-7-2-4" offset=".705" stop-color="#3689e6" stop-opacity="1"/><stop id="stop3756-9-3-7" offset="1" stop-color="#2b63a0" stop-opacity="1"/></linearGradient></defs><path id="path3818-0-5" fill="url(#radialGradient5362)" fill-opacity="1" stroke="none" d="M 40,42.5 A 16,4.5 0 0 1 7.9999998,42.5 16,4.5 0 1 1 40,42.5 Z"/><rect id="rect3268-0-1" width="25" height="29" x="11.5" y="15.5" fill="url(#linearGradient4393)" fill-opacity="1" fill-rule="nonzero" stroke="none" stroke-width="1" color="#000" display="inline" enable-background="accumulate" overflow="visible" rx="13.5" ry="1.5" visibility="visible" style="marker:none"/><path id="rect3268-0" fill="none" fill-opacity="0" stroke="#00537d" stroke-dasharray="none" stroke-dashoffset="0" stroke-linecap="butt" stroke-linejoin="round" stroke-miterlimit="4" stroke-opacity="1" stroke-width="1" d="m 36.5,17 c 0,-0.831 -5.575,-1.5 -12.5,-1.5 -6.925,0 -12.5,0.669 -12.5,1.5" color="#000" display="inline" enable-background="accumulate" opacity=".5" overflow="visible" visibility="visible" style="marker:none"/><path id="rect3268-6-4" fill="url(#linearGradient5066-8)" fill-opacity="1" fill-rule="nonzero" stroke="none" stroke-width="1" d="M 24,5.5 C 17.075,5.5 11.5,6.169 11.5,7 v 10 c 0,-0.831 5.575,-1.5 12.5,-1.5 6.925,0 12.5,0.669 12.5,1.5 V 7 C 36.5,6.169 30.925,5.5 24,5.5 Z" color="#000" display="inline" enable-background="accumulate" overflow="visible" visibility="visible" style="marker:none"/><path id="rect3268-6" fill="none" stroke="#000" stroke-dasharray="none" stroke-dashoffset="0" stroke-linecap="butt" stroke-linejoin="miter" stroke-miterlimit="7" stroke-opacity="1" stroke-width="1" d="m 11.5,17 c 0,-0.831 5.575,-1.5 12.5,-1.5 6.925,0 12.5,0.669 12.5,1.5" color="#000" display="block" enable-background="accumulate" opacity=".3" overflow="visible" visibility="visible" style="marker:none"/><path id="rect3268-3-9" fill="url(#linearGradient3457-7-6)" fill-opacity="1" fill-rule="nonzero" stroke="none" stroke-width="1" d="M 27.5,5.5625 V 4.34375 C 27.5,3.8749017 25.939,3.5 24,3.5 22.061,3.5 20.5,3.8749017 20.5,4.34375 V 5.5625" color="#000" display="inline" enable-background="accumulate" overflow="visible" visibility="visible" style="marker:none"/><path id="rect3268-3" fill="none" stroke="#000" stroke-dasharray="none" stroke-dashoffset="0" stroke-linecap="butt" stroke-linejoin="miter" stroke-miterlimit="7" stroke-opacity="1" stroke-width="1" d="M 27.5,5.5625 V 4.34375 C 27.5,3.8749017 25.939,3.5 24,3.5 22.061,3.5 20.5,3.8749017 20.5,4.34375 V 5.5625" color="#000" display="block" enable-background="accumulate" opacity=".3" overflow="visible" visibility="visible" style="marker:none"/><path id="path4752" fill="none" stroke="url(#linearGradient4760)" stroke-dasharray="none" stroke-dashoffset="0" stroke-linecap="butt" stroke-linejoin="miter" stroke-miterlimit="7" stroke-opacity="1" stroke-width="1.043" d="m 24,6.5 c -3.709888,0 -7.052717,0.1725241 -9.4375,0.4375 -1.192392,0.132488 -2.155165,0.2807189 -2.75,0.4375 C 11.64892,7.418115 11.599316,7.431865 11.5,7.46875 v 35.0625 c 0.09932,0.03688 0.14892,0.05063 0.3125,0.09375 0.594835,0.156781 1.557608,0.305012 2.75,0.4375 C 16.947283,43.327476 20.290112,43.5 24,43.5 c 3.709888,0 7.052717,-0.172524 9.4375,-0.4375 1.192392,-0.132488 2.155165,-0.280719 2.75,-0.4375 0.16358,-0.04312 0.213184,-0.05687 0.3125,-0.09375 V 7.46875 C 36.400684,7.4318648 36.35108,7.4181148 36.1875,7.375 35.592665,7.2182189 34.629892,7.069988 33.4375,6.9375 31.052717,6.6725241 27.709888,6.5 24,6.5 Z" color="#000" display="block" enable-background="accumulate" opacity=".8" overflow="visible" transform="matrix(0.92,0,0,1,1.92,0)" visibility="visible" style="marker:none"/><rect id="rect3268" width="25" height="39" x="11.5" y="5.5" fill="none" stroke="#000" stroke-dasharray="none" stroke-dashoffset="0" stroke-linecap="butt" stroke-linejoin="miter" stroke-miterlimit="7" stroke-opacity="1" stroke-width="1" color="#000" display="block" enable-background="accumulate" opacity=".3" overflow="visible" rx="13.5" ry="1.5" visibility="visible" style="marker:none"/><path id="path5194" fill="url(#linearGradient5508)" fill-opacity="1" fill-rule="nonzero" stroke="none" stroke-width="1" d="M 20,5.59375 C 16.787316,5.7149057 15.492733,5.9541603 14,6.3125 v 37.375 c 1.492733,0.35834 2.787316,0.597594 6,0.71875 z" display="inline" opacity=".15" overflow="visible" visibility="visible" style="marker:none"/><path id="rect3244" fill="url(#linearGradient5510)" fill-opacity="1" fill-rule="nonzero" stroke="none" stroke-width="1" d="m 31,5.875 v 38.25 c 1.136673,-0.123654 2.304289,-0.27049 3,-0.4375 V 6.3125 C 33.304289,6.1454904 32.136673,5.9986542 31,5.875 Z" display="inline" opacity=".05" overflow="visible" visibility="visible" style="marker:none"/><path id="path5124" fill="url(#radialGradient5132)" fill-opacity="1" fill-rule="nonzero" stroke="none" stroke-width="1" d="m 20,7.5 a 3.5,1.5 0 1 1 -7,0 3.5,1.5 0 1 1 7,0 z" color="#000" display="inline" enable-background="accumulate" opacity=".2" overflow="visible" transform="matrix(0.90865815,0,0,2.0656555,1.5071413,-8.7383745)" visibility="visible" style="marker:none"/><path id="rect3268-0-7" fill="none" stroke="#fff" stroke-dasharray="none" stroke-dashoffset="0" stroke-linecap="butt" stroke-linejoin="miter" stroke-miterlimit="7" stroke-opacity="1" stroke-width="1" d="M 35.969003,17.564443 C 34.420917,16.947168 29.661637,16.5 24,16.5 c -5.64267,0 -10.38902,0.444177 -11.953337,1.058245" color="#000" display="block" enable-background="accumulate" opacity=".2" overflow="visible" visibility="visible" style="marker:none"/><path id="rect3268-0-7-4" fill="none" stroke="#fff" stroke-dasharray="none" stroke-dashoffset="0" stroke-linecap="butt" stroke-linejoin="miter" stroke-miterlimit="7" stroke-opacity="1" stroke-width="1" d="M 35.969003,15.564443 C 34.420917,14.947168 29.661637,14.5 24,14.5 c -5.64267,0 -10.38902,0.444177 -11.953337,1.058245" color="#000" display="block" enable-background="accumulate" opacity=".2" overflow="visible" visibility="visible" style="marker:none"/></svg>