<svg xmlns="http://www.w3.org/2000/svg" xmlns:svg="http://www.w3.org/2000/svg" xmlns:xlink="http://www.w3.org/1999/xlink" id="svg11300" width="48" height="48" version="1.0" viewBox="0 0 48 48"><metadata id="metadata49"/><defs id="defs3"><linearGradient id="linearGradient4614"><stop id="stop4606" offset="0" stop-color="#fff" stop-opacity="1"/><stop id="stop4608" offset="0" stop-color="#fff" stop-opacity=".235"/><stop id="stop4610" offset=".981" stop-color="#fff" stop-opacity=".157"/><stop id="stop4612" offset="1" stop-color="#fff" stop-opacity=".392"/></linearGradient><linearGradient id="linearGradient3742"><stop id="stop3734" offset="0" stop-color="#fff" stop-opacity="1"/><stop id="stop3736" offset=".019" stop-color="#fff" stop-opacity=".235"/><stop id="stop3738" offset=".981" stop-color="#fff" stop-opacity=".157"/><stop id="stop3740" offset="1" stop-color="#fff" stop-opacity=".392"/></linearGradient><radialGradient id="radialGradient7374" cx="23.335" cy="41.636" r="22.627" gradientTransform="matrix(0.48613231,0,0,0.11048705,12.656462,39.898188)" gradientUnits="userSpaceOnUse"><stop id="stop23421" offset="0"/><stop id="stop23423" offset="1" stop-opacity="0"/></radialGradient><linearGradient id="linearGradient3600-8"><stop id="stop3602-2" offset="0" stop-color="#f4f4f4" stop-opacity="1"/><stop id="stop3604-5" offset="1" stop-color="#dbdbdb" stop-opacity="1"/></linearGradient><linearGradient id="linearGradient5466-8-3" x1="11.098" x2="11.098" y1="5.97" y2="45.689" gradientTransform="matrix(0.95586485,0,0,0.83020854,17.661268,-2.959857)" gradientUnits="userSpaceOnUse" xlink:href="#linearGradient3600-8"/><linearGradient id="linearGradient3730" x1="118.574" x2="118.574" y1="3.704" y2="31.679" gradientTransform="matrix(0.62162171,0,0,1.108108,-41.600004,-1.104142)" gradientUnits="userSpaceOnUse" xlink:href="#linearGradient3742"/><linearGradient id="linearGradient4604" x1="116.791" x2="116.791" y1="-37.808" y2="-26.979" gradientTransform="matrix(0.62162171,0,0,1.108108,-41.600004,-1.104142)" gradientUnits="userSpaceOnUse" xlink:href="#linearGradient4614"/><linearGradient id="linearGradient7056"><stop id="stop7064" offset="0" stop-color="#e6e6e6" stop-opacity="1"/><stop id="stop7060" offset="1" stop-color="#c8c8c8" stop-opacity="1"/></linearGradient><linearGradient id="linearGradient4763" x1="25" x2="25" y1="-35" y2="-44.396" gradientUnits="userSpaceOnUse" xlink:href="#linearGradient7056"/></defs><path id="path23417" fill="url(#radialGradient7374)" fill-rule="evenodd" stroke-width="1" d="m 35,44.4986 a 11,2.5 0 1 1 -22,0 11,2.5 0 1 1 22,0 z" opacity=".3"/><rect id="rect3448" width="15" height="15" x="16.5" y="-44.5" fill="url(#linearGradient4763)" fill-opacity="1" stroke="none" rx="1" ry="1" transform="scale(1,-1)"/><rect id="rect3448-9" width="15" height="15" x="16.5" y="-44.5" fill="none" stroke="#000" stroke-opacity="1" opacity=".4" rx="1" ry="1" transform="scale(1,-1)"/><path id="rect3450" fill="#000" fill-opacity=".336" stroke="#000" stroke-dasharray="none" stroke-dashoffset="0" stroke-linecap="butt" stroke-linejoin="miter" stroke-miterlimit="4" stroke-opacity="1" stroke-width="1" d="m 19.5,38.5 v 3 h 3 v -3 z m 6,0 v 3 h 3 v -3 z" opacity=".35"/><rect id="rect3458" width="13" height="13" x="17.5" y="-43.5" fill="none" fill-opacity="1" stroke="url(#linearGradient4604)" stroke-dasharray="none" stroke-dashoffset="0" stroke-linecap="round" stroke-linejoin="round" stroke-miterlimit="4" stroke-opacity="1" stroke-width="1" opacity=".6" transform="scale(1,-1)" style="font-variant-east_asian:normal;marker:none"/><rect id="rect5391" width="20" height="33" x="14" y="2" fill="url(#linearGradient5466-8-3)" fill-opacity="1" stroke="none" stroke-dasharray="none" stroke-dashoffset="0" stroke-linecap="butt" stroke-linejoin="round" stroke-miterlimit="4" stroke-opacity="1" stroke-width="1" opacity="1" rx="1.5" ry="1.5" style="marker:none"/><rect id="rect5391-2" width="21" height="34" x="13.5" y="1.5" fill="none" fill-opacity="1" stroke="#000" stroke-dasharray="none" stroke-dashoffset="0" stroke-linecap="butt" stroke-linejoin="round" stroke-miterlimit="4" stroke-opacity="1" stroke-width="1" opacity=".3" rx="2" ry="2" style="marker:none"/><rect id="rect5391-2-0" width="19" height="32" x="14.5" y="2.5" fill="none" fill-opacity="1" stroke="url(#linearGradient3730)" stroke-dasharray="none" stroke-dashoffset="0" stroke-linecap="round" stroke-linejoin="round" stroke-miterlimit="4" stroke-opacity="1" stroke-width="1" opacity="1" rx="1" ry="1" style="marker:none;font-variant-east_asian:normal"/><path id="path3690-6" fill="#fff" d="m 22.678,29.36641 c 0,-1.2774 0.42456,-1.6088 0.94461,-2.0548 0.4175,-0.20154 0.48421,-0.33913 0.47872,-0.9873 -0.006,-0.71628 -0.07462,-0.63446 -1.4022,-1.7869 -2.027,-1.7595 -2.2996,-2.1838 -2.5376,-3.9494 -0.17556,-1.3022 -0.05242,-1.0157 -0.55638,-1.5166 -0.92759,-0.92193 -0.76867,-2.274 0.33557,-2.8551 0.99478,-0.52348 2.1732,0.03328 2.5366,1.1985 0.17911,0.57427 -0.25029,1.566 -0.82688,1.9097 -0.52764,0.31455 -0.74654,-0.20987 -0.62588,0.94961 0.06678,0.64174 0.22952,1.3798 0.36164,1.6401 0.22691,0.44704 2.4489,2.5515 2.6906,2.5515 v -12.432 h -1.2317 c 0.57,-0.988 1.125,-1.9924 1.677,-2.987 l 1.7577,2.9874 h -1.1972 v 8.42 c 0.16651,0 1.799,-1.6568 2.3483,-2.4027 0.23734,-0.32228 0.38137,-0.77989 0.38137,-1.2117 0,-0.65124 0.21476,-0.78818 -0.28196,-0.78818 h -0.5292 v -3.0516 h 2.9988 v 3.0516 h -0.4851 c -0.43284,0.05068 -0.74221,0.2713 -0.82392,0.99341 -0.12186,1.0769 -0.58309,1.7837 -2.2805,3.4947 l -1.3278,1.4319 v 5.1064 l 0.39238,0.23418 c 0.26681,0.1288 0.63426,0.54499 0.81656,0.92487 0.649,1.355 -0.254,2.811 -1.743,2.811 -1.079,-0.04 -1.871,-0.594 -1.871,-1.68 z" opacity=".3"/><path id="path3690" fill="#aaa" d="m 22.678,28.36647 c 0,-1.2774 0.42456,-1.6088 0.94461,-2.0548 0.4175,-0.20154 0.48421,-0.33913 0.47872,-0.9873 -0.006,-0.71628 -0.07462,-0.63446 -1.4022,-1.7869 -2.027,-1.7595 -2.2996,-2.1838 -2.5376,-3.9494 -0.17556,-1.3022 -0.05242,-1.0157 -0.55638,-1.5166 -0.92759,-0.92193 -0.76867,-2.274 0.33557,-2.8551 0.99478,-0.52348 2.1732,0.03328 2.5366,1.1985 0.17911,0.57427 -0.25029,1.566 -0.82688,1.9097 -0.52764,0.31455 -0.74654,-0.20987 -0.62588,0.94961 0.06678,0.64174 0.22952,1.3798 0.36164,1.6401 0.22691,0.44704 2.4489,2.5515 2.6906,2.5515 v -12.432 h -1.2317 c 0.57,-0.988 1.125,-1.9924 1.677,-2.987 l 1.7577,2.9874 h -1.1972 v 8.42 c 0.16651,0 1.799,-1.6568 2.3483,-2.4027 0.23734,-0.32228 0.38137,-0.77989 0.38137,-1.2117 0,-0.65124 0.21476,-0.78818 -0.28196,-0.78818 h -0.5292 V 12 h 2.9988 v 3.0516 h -0.4851 c -0.43284,0.05068 -0.74221,0.2713 -0.82392,0.99341 -0.12186,1.0769 -0.58309,1.7837 -2.2805,3.4947 l -1.3278,1.4319 v 5.1064 l 0.39238,0.23418 c 0.26681,0.1288 0.63426,0.54499 0.81656,0.92487 0.649,1.355 -0.254,2.811 -1.743,2.811 -1.079,-0.04 -1.871,-0.594 -1.871,-1.68 z" opacity=".95"/></svg>