<svg xmlns="http://www.w3.org/2000/svg" xmlns:svg="http://www.w3.org/2000/svg" xmlns:xlink="http://www.w3.org/1999/xlink" id="svg3786" width="48" height="48" version="1.0"><metadata id="metadata82"/><defs id="defs3788"><linearGradient id="linearGradient4231"><stop id="stop4233" offset="0" stop-color="#fff" stop-opacity="1"/><stop id="stop4235" offset=".008" stop-color="#fff" stop-opacity=".235"/><stop id="stop4237" offset=".992" stop-color="#fff" stop-opacity=".157"/><stop id="stop4239" offset="1" stop-color="#fff" stop-opacity=".392"/></linearGradient><linearGradient id="linearGradient4170"><stop id="stop4172" offset="0" stop-color="#fff" stop-opacity="1"/><stop id="stop4174" offset=".028" stop-color="#fff" stop-opacity=".235"/><stop id="stop4176" offset=".998" stop-color="#fff" stop-opacity=".157"/><stop id="stop4178" offset="1" stop-color="#fff" stop-opacity=".392"/></linearGradient><linearGradient id="linearGradient5060"><stop id="stop5062" offset="0" stop-color="#000" stop-opacity="1"/><stop id="stop5064" offset="1" stop-color="#000" stop-opacity="0"/></linearGradient><linearGradient id="linearGradient5048"><stop id="stop5050" offset="0" stop-color="#000" stop-opacity="0"/><stop id="stop5056" offset=".5" stop-color="#000" stop-opacity="1"/><stop id="stop5052" offset="1" stop-color="#000" stop-opacity="0"/></linearGradient><linearGradient id="linearGradient2215"><stop id="stop2223" offset="0" stop-color="#7a7a7a" stop-opacity="1"/><stop id="stop2219" offset="1" stop-color="#474747" stop-opacity="1"/></linearGradient><linearGradient id="linearGradient7056"><stop id="stop7064" offset="0" stop-color="#e6e6e6" stop-opacity="1"/><stop id="stop7060" offset="1" stop-color="#c8c8c8" stop-opacity="1"/></linearGradient><radialGradient id="radialGradient2927" cx="11.734" cy="8.49" r="23.048" fx="11.734" fy="8.49" gradientTransform="matrix(1.3767077,0.69719425,-0.46810846,0.92434578,-0.04915651,-2.9386274)" gradientUnits="userSpaceOnUse" xlink:href="#linearGradient7056"/><linearGradient id="linearGradient2933" x1="29.938" x2="30" y1="41" y2="50" gradientTransform="matrix(1.0017502,0,0,0.7596403,-5.0508975,4.9363745)" gradientUnits="userSpaceOnUse" xlink:href="#linearGradient2215"/><radialGradient id="radialGradient2936" cx="605.714" cy="486.648" r="117.143" fx="605.714" fy="486.648" gradientTransform="matrix(-0.04484747,0,0,0.02058824,32.61113,32.451372)" gradientUnits="userSpaceOnUse" xlink:href="#linearGradient5060"/><radialGradient id="radialGradient2939" cx="605.714" cy="486.648" r="117.143" fx="605.714" fy="486.648" gradientTransform="matrix(0.04484747,0,0,0.02058824,15.38888,32.451372)" gradientUnits="userSpaceOnUse" xlink:href="#linearGradient5060"/><linearGradient id="linearGradient2942" x1="302.857" x2="302.857" y1="366.648" y2="609.505" gradientTransform="matrix(0.07635654,0,0,0.02058824,-3.5974283,32.451372)" gradientUnits="userSpaceOnUse" xlink:href="#linearGradient5048"/><linearGradient id="linearGradient3308" x1="34.947" x2="34.947" y1="50.909" y2="53.836" gradientTransform="matrix(0.84051728,0,0,1.0278991,14.415778,-14.334416)" gradientUnits="userSpaceOnUse" xlink:href="#linearGradient4231"/><linearGradient id="linearGradient3311-4" x1="24" x2="24" y1="6.253" y2="42.941" gradientTransform="matrix(0.26232885,0,0,0.65751536,6.9297476,6.8105801)" gradientUnits="userSpaceOnUse" xlink:href="#linearGradient4170"/><radialGradient id="radialGradient2923" cx="141.747" cy="206.426" r="78.728" fx="141.747" fy="206.426" gradientTransform="matrix(0.35160878,-0.0050244,0.00260227,0.28909275,-27.02434,-25.217538)" gradientUnits="userSpaceOnUse" xlink:href="#linearGradient4035"/><linearGradient id="linearGradient4035"><stop id="stop4037" offset="0" stop-color="#f5f5f5" stop-opacity="1"/><stop id="stop4039" offset=".47" stop-color="#e7e7e7" stop-opacity="1"/><stop id="stop4041" offset=".693" stop-color="#8c8c8c" stop-opacity="1"/><stop id="stop4043" offset=".835" stop-color="#ddd" stop-opacity="1"/><stop id="stop4045" offset="1" stop-color="#a8a8a8" stop-opacity="1"/></linearGradient><radialGradient id="radialGradient2920" cx="142.622" cy="191.854" r="78.728" fx="142.622" fy="191.854" gradientTransform="matrix(0.18495239,0,0,-0.13074306,-3.1111723,45.048436)" gradientUnits="userSpaceOnUse" xlink:href="#linearGradient7609"/><linearGradient id="linearGradient7609"><stop id="stop7611" offset="0" stop-color="#fff" stop-opacity="1"/><stop id="stop7677" offset=".47" stop-color="#e7e7e7" stop-opacity="1"/><stop id="stop7613" offset=".672" stop-color="#8c8c8c" stop-opacity="1"/><stop id="stop7617" offset=".835" stop-color="#ddd" stop-opacity="1"/><stop id="stop7615" offset="1" stop-color="#a8a8a8" stop-opacity="1"/></linearGradient><radialGradient id="radialGradient2965" cx="113.065" cy="97.588" r="2.563" fx="113.667" fy="98" gradientTransform="matrix(-0.32948872,0,0,0.34974643,41.963041,0.4938254)" gradientUnits="userSpaceOnUse" xlink:href="#radialGradient4241"/><radialGradient id="radialGradient4241" cx="113.065" cy="97.588" r="2.563" fx="113.667" fy="98" gradientUnits="userSpaceOnUse"><stop id="stop4243" offset="0" stop-color="#eee" stop-opacity="1"/><stop id="stop4245" offset=".16" stop-color="#cecece" stop-opacity="1"/><stop id="stop4247" offset=".468" stop-color="#888" stop-opacity="1"/><stop id="stop4249" offset="1" stop-color="#555" stop-opacity="1"/></radialGradient><radialGradient id="radialGradient2959" cx="113.065" cy="97.588" r="2.563" fx="113.667" fy="98" gradientTransform="matrix(0.22282769,-0.03752228,0.02509892,0.149051,-18.145918,0.5322802)" gradientUnits="userSpaceOnUse" xlink:href="#radialGradient4241"/><radialGradient id="radialGradient2953" cx="113.065" cy="97.588" r="2.563" fx="113.667" fy="98" gradientTransform="matrix(0.22333209,0.03439303,-0.02300572,0.14938839,14.791441,-7.631841)" gradientUnits="userSpaceOnUse" xlink:href="#radialGradient4241"/><linearGradient id="linearGradient2908" x1="7.063" x2="24.688" y1="35.281" y2="35.281" gradientTransform="matrix(1.0212766,0,0,0.89887639,2.1092738,20.498378)" gradientUnits="userSpaceOnUse" xlink:href="#linearGradient5060"/><linearGradient id="linearGradient2905" x1="12.277" x2="12.222" y1="37.206" y2="33.759" gradientTransform="matrix(1.0212766,0,0,0.89887639,0.3816013,20.266398)" gradientUnits="userSpaceOnUse" xlink:href="#linearGradient4236"/><linearGradient id="linearGradient4236"><stop id="stop4238" offset="0" stop-color="#eee" stop-opacity="1"/><stop id="stop4240" offset="1" stop-color="#eee" stop-opacity="0"/></linearGradient><radialGradient id="radialGradient2902" cx="127.317" cy="143.828" r="78.728" fx="127.317" fy="143.828" gradientTransform="matrix(0.19054222,-0.02505584,0.00619351,0.10073457,-7.4371744,4.4286863)" gradientUnits="userSpaceOnUse" xlink:href="#linearGradient4035"/><radialGradient id="radialGradient2947" cx="113.065" cy="97.588" r="2.563" fx="113.667" fy="98" gradientTransform="matrix(0.32948872,0,0,0.34974643,6.0549235,0.4938254)" gradientUnits="userSpaceOnUse" xlink:href="#radialGradient4241"/><linearGradient id="linearGradient1139"><stop id="stop1135" offset="0" stop-color="#d1ff82" stop-opacity="1"/><stop id="stop1137" offset="1" stop-color="#9bdb4d" stop-opacity="1"/></linearGradient><linearGradient id="linearGradient1131"><stop id="stop1127" offset="0" stop-color="#ffe16b" stop-opacity="1"/><stop id="stop1133" offset=".513" stop-color="#d39220" stop-opacity="1"/><stop id="stop1129" offset="1" stop-color="#f9c440" stop-opacity="1"/></linearGradient><linearGradient id="linearGradient1101"><stop id="stop1091" offset="0" stop-color="#fff" stop-opacity="1"/><stop id="stop1093" offset=".25" stop-color="#e7e7e7" stop-opacity="1"/><stop id="stop1095" offset=".672" stop-color="#8c8c8c" stop-opacity="1"/><stop id="stop1097" offset=".835" stop-color="#ddd" stop-opacity="1"/><stop id="stop1099" offset="1" stop-color="#a8a8a8" stop-opacity="1"/></linearGradient><linearGradient id="linearGradient1045"><stop id="stop1041" offset="0" stop-color="#333" stop-opacity="1"/><stop id="stop1043" offset="1" stop-color="#555761" stop-opacity="1"/></linearGradient><linearGradient id="linearGradient2566" x1="302.857" x2="302.857" y1="366.648" y2="609.505" gradientTransform="matrix(0.1018087,0,0,0.02745099,-69.338943,29.531208)" gradientUnits="userSpaceOnUse" xlink:href="#linearGradient5048"/><radialGradient id="radialGradient2563" cx="605.714" cy="486.648" r="117.143" fx="605.714" fy="486.648" gradientTransform="matrix(0.05979662,0,0,0.02745099,-44.023866,29.531208)" gradientUnits="userSpaceOnUse" xlink:href="#linearGradient5060"/><radialGradient id="radialGradient2560" cx="605.714" cy="486.648" r="117.143" fx="605.714" fy="486.648" gradientTransform="matrix(-0.05979662,0,0,0.02745099,-21.060866,29.531208)" gradientUnits="userSpaceOnUse" xlink:href="#linearGradient5060"/><linearGradient id="linearGradient2557" x1="29.938" x2="30" y1="41" y2="50" gradientTransform="matrix(1.3573591,0,0,1.0098512,-71.90578,-7.1855111)" gradientUnits="userSpaceOnUse" xlink:href="#linearGradient2215"/><linearGradient id="linearGradient3484"><stop id="stop3486" offset="0" stop-color="#969696" stop-opacity="1"/><stop id="stop3488" offset="1" stop-color="#b4b4b4" stop-opacity="1"/></linearGradient><linearGradient id="linearGradient2553" x1="17.814" x2="18.073" y1="29.797" y2="10" gradientTransform="matrix(1.3526366,0,0,1.3652569,-65.00565,-16.571717)" gradientUnits="userSpaceOnUse" xlink:href="#linearGradient3484"/><radialGradient id="radialGradient2551" cx="11.734" cy="8.49" r="23.048" fx="11.734" fy="8.49" gradientTransform="matrix(1.8621852,0.9518493,-0.6331808,1.2619694,-65.072141,-19.218242)" gradientUnits="userSpaceOnUse" xlink:href="#linearGradient7056"/><radialGradient id="radialGradient2547" cx="141.747" cy="206.426" r="78.728" fx="141.747" fy="206.426" gradientTransform="matrix(0.475706,-0.00690855,0.00352072,0.3975024,-37.03293,-36.799112)" gradientUnits="userSpaceOnUse" xlink:href="#linearGradient4035"/><radialGradient id="radialGradient2544" cx="142.622" cy="191.854" r="78.728" fx="142.622" fy="191.854" gradientTransform="matrix(0.2466032,0,0,-0.1743241,-4.1482291,59.731248)" gradientUnits="userSpaceOnUse" xlink:href="#linearGradient7609"/><radialGradient id="radialGradient2540" cx="113.065" cy="97.588" r="2.563" fx="113.667" fy="98" gradientTransform="matrix(-0.5034274,0,0,0.4878048,-1.621716,-15.840702)" gradientUnits="userSpaceOnUse" xlink:href="#radialGradient4241-8"/><radialGradient id="radialGradient2536" cx="113.065" cy="97.588" r="2.563" fx="113.667" fy="98" gradientTransform="matrix(0.374113,-0.07929617,0.04213943,0.3149909,-98.454216,-22.510628)" gradientUnits="userSpaceOnUse" xlink:href="#radialGradient4241-8"/><radialGradient id="radialGradient2532" cx="113.065" cy="97.588" r="2.563" fx="113.667" fy="98" gradientTransform="matrix(0.3782453,0.07056425,-0.03896353,0.3065004,-53.006802,-38.640386)" gradientUnits="userSpaceOnUse" xlink:href="#radialGradient4241-8"/><linearGradient id="linearGradient2529" x1="7.063" x2="24.688" y1="35.281" y2="35.281" gradientTransform="matrix(1.3801029,0,0,1.2584266,-8.0712936,29.10113)" gradientUnits="userSpaceOnUse" xlink:href="#linearGradient5060"/><linearGradient id="linearGradient2526" x1="12.277" x2="12.222" y1="37.206" y2="33.759" gradientTransform="matrix(1.3504215,0,0,1.2464221,-0.08267968,10.210591)" gradientUnits="userSpaceOnUse" xlink:href="#linearGradient4236"/><radialGradient id="radialGradient2523" cx="127.317" cy="143.828" r="78.728" fx="127.317" fy="143.828" gradientTransform="matrix(0.2540562,-0.03579406,0.00825801,0.1439066,-9.916226,3.6124102)" gradientUnits="userSpaceOnUse" xlink:href="#linearGradient4035"/><radialGradient id="radialGradient4241-8" cx="113.065" cy="97.588" r="2.563" fx="113.667" fy="98" gradientUnits="userSpaceOnUse"><stop id="stop4243-7" offset="0" stop-color="#eee" stop-opacity="1"/><stop id="stop4245-9" offset=".16" stop-color="#cecece" stop-opacity="1"/><stop id="stop4247-2" offset=".468" stop-color="#888" stop-opacity="1"/><stop id="stop4249-0" offset="1" stop-color="#555" stop-opacity="1"/></radialGradient><radialGradient id="radialGradient2519" cx="113.065" cy="97.588" r="2.563" fx="113.667" fy="98" gradientTransform="matrix(0.5034273,0,0,0.4878048,-63.463014,-15.840702)" gradientUnits="userSpaceOnUse" xlink:href="#radialGradient4241-8"/><linearGradient id="linearGradient6310-8"><stop id="stop6312-6" offset="0" stop-color="#fff" stop-opacity="1"/><stop id="stop6314-6" offset="1" stop-color="#fff" stop-opacity="0"/></linearGradient><radialGradient id="radialGradient2516" cx="24" cy="42" r="21" fx="24" fy="42" gradientTransform="matrix(1.3809524,-1.4521173e-8,3.8407907e-8,0.486864,-65.685227,18.406373)" gradientUnits="userSpaceOnUse" xlink:href="#linearGradient6310-8"/><radialGradient id="radialGradient925" cx="25.96" cy="75.091" r="18.5" fx="25.96" fy="75.091" gradientTransform="matrix(0.77483523,-1.809244e-7,-1.8482502e-8,-0.2162162,-2.9570507,53.735858)" gradientUnits="userSpaceOnUse" xlink:href="#linearGradient1045"/><linearGradient id="linearGradient1011" x1="7" x2="7" y1="53" y2="52" gradientTransform="matrix(0.99999995,0,0,2,-0.9999998,-65.999998)" gradientUnits="userSpaceOnUse" xlink:href="#linearGradient1131"/><linearGradient id="linearGradient1013" x1="10" x2="10" y1="53" y2="52" gradientTransform="matrix(1.0000002,0,0,2,-1.0000022,-65.999998)" gradientUnits="userSpaceOnUse" xlink:href="#linearGradient1131"/><linearGradient id="linearGradient1017" x1="16" x2="16" y1="53" y2="52" gradientTransform="matrix(0.99999924,0,0,2,-3.9999894,-65.999998)" gradientUnits="userSpaceOnUse" xlink:href="#linearGradient1131"/><linearGradient id="linearGradient1019" x1="19" x2="19" y1="53" y2="52" gradientTransform="matrix(1.0000007,0,0,2,-4.0000134,-65.999998)" gradientUnits="userSpaceOnUse" xlink:href="#linearGradient1131"/><linearGradient id="linearGradient1023" x1="25" x2="25" y1="53" y2="52" gradientTransform="matrix(1.0000007,0,0,2,-7.0000178,-65.999998)" gradientUnits="userSpaceOnUse" xlink:href="#linearGradient1131"/><linearGradient id="linearGradient1025" x1="28" x2="28" y1="53" y2="52" gradientTransform="matrix(0.97384771,0,0,2,-6.2938899,-65.999998)" gradientUnits="userSpaceOnUse" xlink:href="#linearGradient1131"/><linearGradient id="linearGradient1027" x1="31" x2="31" y1="53" y2="52" gradientTransform="matrix(0.99999999,0,0,2,-7.0000001,-65.999998)" gradientUnits="userSpaceOnUse" xlink:href="#linearGradient1131"/><linearGradient id="linearGradient1033" x1="37" x2="37" y1="53" y2="52" gradientTransform="matrix(0.99999999,0,0,2,-10,-65.999998)" gradientUnits="userSpaceOnUse" xlink:href="#linearGradient1131"/><radialGradient id="radialGradient1141" cx="58.064" cy="53" r="1.689" fx="58.064" fy="53" gradientTransform="matrix(1,0,0,0.88806701,-14.819406,-7.5675518)" gradientUnits="userSpaceOnUse" xlink:href="#linearGradient1139"/></defs><path id="path6345" fill="url(#radialGradient2927)" fill-opacity="1" fill-rule="nonzero" stroke="none" stroke-width=".996" d="M 46.55,36.601962 39.740367,10.827625 c -0.192553,-0.733973 -1.2012,-1.329879 -2.049166,-1.329879 l -27.617218,0 c -1.30274,0 -2.049257,0.198573 -2.323959,1.329879 L 1.45,36.576866 z" display="inline" enable-background="accumulate" overflow="visible" visibility="visible" style="marker:none"/><rect id="rect2723" width="36.869" height="5" x="5.565" y="40" fill="url(#linearGradient2942)" fill-opacity="1" fill-rule="nonzero" stroke="none" stroke-width=".5" display="inline" opacity=".3" overflow="visible" visibility="visible" style="marker:none"/><path id="path2725" fill="url(#radialGradient2939)" fill-opacity="1" fill-rule="nonzero" stroke="none" stroke-width=".5" d="m 42.41667,40.000174 c 0,0 0,4.999723 0,4.999723 C 44.7262,45.009311 48,43.879712 48,42.499715 48,41.119718 45.42274,40.000174 42.41667,40.000174 z" display="inline" opacity=".3" overflow="visible" visibility="visible" style="marker:none"/><path id="path2727" fill="url(#radialGradient2936)" fill-opacity="1" fill-rule="nonzero" stroke="none" stroke-width="1" d="m 5.58333,40.000174 c 0,0 0,4.999723 0,4.999723 C 3.2737899,45.009311 0,43.879712 0,42.499715 0,41.119718 2.5772699,40.000174 5.58333,40.000174 z" display="inline" opacity=".3" overflow="visible" visibility="visible" style="marker:none"/><path id="path6345-1" fill="none" stroke="#000" stroke-dasharray="none" stroke-dashoffset="0" stroke-linecap="round" stroke-linejoin="round" stroke-miterlimit="4" stroke-opacity="1" stroke-width="1" d="M 46.55,36.5 39.740367,10.824766 c -0.192553,-0.731151 -1.2012,-1.3247661 -2.049166,-1.3247661 l -27.617218,0 c -1.30274,0 -2.049257,0.1978095 -2.323959,1.3247661 L 1.45,36.475001 z" color="#000" display="inline" enable-background="accumulate" opacity=".35" overflow="visible" visibility="visible" style="marker:none"/><path id="path4129" fill="none" stroke="url(#linearGradient3311-4)" stroke-dasharray="none" stroke-dashoffset="0" stroke-linecap="round" stroke-linejoin="round" stroke-miterlimit="4" stroke-opacity="1" stroke-width="1.003" d="m 10.0625,10.46875 c -0.6058109,0 -0.9673014,0.09427 -1.09375,0.15625 -0.1264486,0.06198 -0.1572339,0.02421 -0.25,0.40625 l -6.03125,24.5625 42.625,0.03125 -6.5,-24.5625 c -0.0041,-0.01553 -0.138916,-0.199012 -0.375,-0.34375 -0.236084,-0.144738 -0.549495,-0.25 -0.75,-0.25 l -27.625,0 z" color="#000" display="inline" enable-background="accumulate" opacity=".8" overflow="visible" transform="matrix(1,0,0,0.99378882,0,0.09627324)" visibility="visible" style="marker:none"/><path id="rect6431" fill="url(#linearGradient2933)" fill-opacity="1" fill-rule="evenodd" stroke="none" d="m 1.4638537,36.464001 45.0720003,0 -0.901202,6.072 -43.1694186,0 -1.0013797,-6.072 z" display="inline" enable-background="new"/><path id="rect6431-3" fill="none" stroke="#000" stroke-dasharray="none" stroke-dashoffset="0" stroke-linecap="butt" stroke-linejoin="round" stroke-miterlimit="4" stroke-opacity="1" stroke-width="1" d="m 1.4638537,36.5 45.0720003,0 -0.901202,6 -43.1694185,0 -1.0013798,-6 z" color="#000" display="inline" enable-background="accumulate" opacity=".5" overflow="visible" visibility="visible" style="marker:none"/><path id="path4497" fill="none" stroke="url(#linearGradient3308)" stroke-dasharray="none" stroke-dashoffset="0" stroke-linecap="round" stroke-linejoin="miter" stroke-miterlimit="4" stroke-opacity="1" stroke-width="1" d="m 3.3117397,41.499995 41.4657843,3e-6 c 0.108461,-0.399966 0.576759,-4 0.576759,-4 H 2.654475 c 0,0 0.4981314,2.982569 0.6572647,3.999997 z" color="#000" display="inline" enable-background="accumulate" opacity=".2" overflow="visible" visibility="visible" style="marker:none"/><path id="path9007" fill="#e1e1e1" fill-opacity="1" d="M 6.0158229,34.619284 C 5.9743059,35.214553 5.3525618,35.7 4.6276859,35.7 c -0.7245458,0 -1.2731445,-0.485447 -1.2247097,-1.080716 0.048106,-0.592121 0.6695217,-1.070225 1.3871481,-1.070225 0.7179564,2.81e-4 1.2665551,0.478104 1.2256986,1.070225 z"/><path id="path9009" fill="url(#radialGradient2965)" fill-opacity="1" d="m 5.5469595,34.200637 c 0.066228,0.07554 0.1420102,0.196558 0.1420102,0.357441 0,0.01155 -6.602e-4,0.02308 -0.00132,0.03533 -0.028667,0.410252 -0.5140028,0.756851 -1.0596361,0.756851 -0.3107079,0 -0.5947269,-0.113668 -0.7594717,-0.304629 -0.070839,-0.08149 -0.1515649,-0.216493 -0.1370672,-0.396263 0.033278,-0.406755 0.5179556,-0.750556 1.0589773,-0.750556 0.3084014,2.8e-4 0.5914315,0.112968 0.7565052,0.301831 h 2.6e-6 z"/><path id="path9019" fill="#f0f0f0" fill-opacity="1" d="m 8.6135352,10.981804 c 0.070795,0.248957 0.526108,0.385035 1.0163294,0.302486 0.4899984,-0.08251 0.8261694,-0.351869 0.7506954,-0.600038 -0.07503,-0.246865 -0.5295895,-0.379851 -1.0149081,-0.298127 -0.4855218,0.08188 -0.8222397,0.347988 -0.7521167,0.595679 z"/><path id="path9021" fill="url(#radialGradient2959)" fill-opacity="1" d="m 8.9005762,10.749996 c -0.039367,0.03974 -0.081933,0.09994 -0.070388,0.168502 8.287e-4,0.0049 0.0021,0.0098 0.00343,0.0149 0.048828,0.171572 0.4019255,0.264011 0.7709282,0.201874 0.2101265,-0.03538 0.3940466,-0.116169 0.4917566,-0.216312 0.04206,-0.0428 0.08696,-0.109523 0.06426,-0.184484 -0.0517,-0.169557 -0.4041467,-0.260879 -0.7700306,-0.199267 -0.2085465,0.03524 -0.3918682,0.115496 -0.4899513,0.214782 l -1.8e-6,1e-6 z"/><path id="path9025" fill="#e1e1e1" fill-opacity="1" d="m 36.912257,10.696563 c -0.01101,0.258593 0.37848,0.530843 0.869811,0.606508 0.491108,0.07563 0.894887,-0.07446 0.901213,-0.333771 0.0063,-0.257936 -0.383413,-0.527015 -0.869831,-0.601923 -0.486659,-0.07482 -0.889937,0.07201 -0.901193,0.329186 z"/><path id="path9027" fill="url(#radialGradient2953)" fill-opacity="1" d="m 37.257597,10.566686 c -0.04986,0.02535 -0.109185,0.06913 -0.119768,0.137852 -7.6e-4,0.0049 -0.0011,0.0099 -0.0014,0.01523 -0.0076,0.178225 0.298614,0.37693 0.668452,0.433884 0.210602,0.03243 0.410591,0.01353 0.534819,-0.05084 0.05338,-0.02741 0.116973,-0.07665 0.118971,-0.15495 0.0042,-0.177212 -0.301707,-0.374653 -0.668419,-0.431126 -0.209057,-0.03207 -0.408312,-0.01348 -0.532624,0.04996 l -2e-6,-1e-6 z"/><path id="path9091" fill="#e1e1e1" fill-opacity="1" d="M 42.002142,34.619284 C 42.043662,35.214553 42.665403,35.7 43.390279,35.7 c 0.724546,0 1.273145,-0.485447 1.22471,-1.080716 -0.04811,-0.592121 -0.669522,-1.070225 -1.387148,-1.070225 -0.717957,2.81e-4 -1.266555,0.478104 -1.225699,1.070225 z"/><path id="path9093" fill="url(#radialGradient2947)" fill-opacity="1" d="m 42.471006,34.200637 c -0.06623,0.07554 -0.142011,0.196558 -0.142011,0.357441 0,0.01155 6.6e-4,0.02308 0.0013,0.03533 0.02867,0.410252 0.514002,0.756851 1.059636,0.756851 0.310708,0 0.594727,-0.113668 0.759471,-0.304629 0.07084,-0.08149 0.151565,-0.216493 0.137068,-0.396263 -0.03328,-0.406755 -0.517956,-0.750556 -1.058978,-0.750556 -0.308401,2.8e-4 -0.591431,0.112968 -0.756505,0.301831 h -2e-6 z"/><path id="path915" fill="url(#radialGradient1141)" fill-opacity="1" stroke="#9bdb4d" stroke-linecap="butt" stroke-linejoin="miter" stroke-opacity=".544" stroke-width="1" d="m 44.380594,38.5 -0.3,2 h -2 l 0.3,-2 z"/><path id="rect917" fill="url(#radialGradient925)" fill-opacity="1" fill-rule="nonzero" stroke="#474747" stroke-dasharray="none" stroke-linecap="butt" stroke-linejoin="miter" stroke-miterlimit="4" stroke-opacity=".599" stroke-width="1" d="M 4.2,40.5 H 30.258207 L 30.5,38.5 H 3.9 Z" opacity="1" paint-order="normal" vector-effect="none"/><path id="path928" fill="url(#linearGradient1011)" fill-opacity="1" stroke="none" stroke-linecap="butt" stroke-linejoin="miter" stroke-opacity="1" stroke-width="1" d="m 5.0000001,38 v 2 H 7 v -2 z"/><path id="path928-3" fill="url(#linearGradient1013)" fill-opacity="1" stroke="none" stroke-linecap="butt" stroke-linejoin="miter" stroke-opacity="1" stroke-width="1" d="m 8,38 v 2 h 2 v -2 z"/><path id="path928-7" fill="url(#linearGradient1017)" fill-opacity="1" stroke="none" stroke-linecap="butt" stroke-linejoin="miter" stroke-opacity="1" stroke-width="1" d="m 11,38 v 2 h 1.999999 v -2 z"/><path id="path928-5" fill="url(#linearGradient1019)" fill-opacity="1" stroke="none" stroke-linecap="butt" stroke-linejoin="miter" stroke-opacity="1" stroke-width="1" d="m 14,38 v 2 h 2 v -2 z"/><path id="path928-62" fill="url(#linearGradient1023)" fill-opacity="1" stroke="none" stroke-linecap="butt" stroke-linejoin="miter" stroke-opacity="1" stroke-width="1" d="m 17,38 v 2 h 2 v -2 z"/><path id="path928-9" fill="url(#linearGradient1025)" fill-opacity="1" stroke="none" stroke-linecap="butt" stroke-linejoin="miter" stroke-opacity="1" stroke-width="1" d="m 20,38 v 2 h 1.947694 v -2 z"/><path id="path928-1" fill="url(#linearGradient1027)" fill-opacity="1" stroke="none" stroke-linecap="butt" stroke-linejoin="miter" stroke-opacity="1" stroke-width="1" d="m 23,38 v 2 h 2 v -2 z"/><path id="path928-70" fill="url(#linearGradient1033)" fill-opacity="1" stroke="none" stroke-linecap="butt" stroke-linejoin="miter" stroke-opacity="1" stroke-width="1" d="m 26,38 v 2 h 2 v -2 z"/></svg>