<svg xmlns="http://www.w3.org/2000/svg" xmlns:svg="http://www.w3.org/2000/svg" xmlns:xlink="http://www.w3.org/1999/xlink" id="svg4220" width="48" height="48" version="1.1" viewBox="0 0 48 48"><defs id="defs4222"><linearGradient id="linearGradient5177" x1="-19" x2="-19" y1="20" y2="42" gradientTransform="translate(46.620552,1004.3622)" gradientUnits="userSpaceOnUse" xlink:href="#linearGradient5171"/><linearGradient id="linearGradient5171"><stop id="stop5173" offset="0" stop-color="#f8f8f8" stop-opacity="1"/><stop id="stop5175" offset="1" stop-color="#efeff0" stop-opacity="1"/></linearGradient><linearGradient id="linearGradient4088" x1="40.29" x2="40.29" y1="5.525" y2="42.438" gradientTransform="matrix(1.1621621,0,0,0.72972967,-3.8918941,1016.8487)" gradientUnits="userSpaceOnUse" xlink:href="#linearGradient3462"/><linearGradient id="linearGradient3462"><stop id="stop3464" offset="0" stop-color="#fff" stop-opacity="1"/><stop id="stop3466" offset=".035" stop-color="#fff" stop-opacity=".235"/><stop id="stop3468" offset=".964" stop-color="#fff" stop-opacity=".157"/><stop id="stop3470" offset="1" stop-color="#fff" stop-opacity=".392"/></linearGradient><linearGradient id="linearGradient4534" x1="24.726" x2="24.726" y1="7.879" y2="61.172" gradientTransform="matrix(1,0,0,0.80555556,0,1013.015)" gradientUnits="userSpaceOnUse" xlink:href="#radialGradient4536"/><radialGradient id="radialGradient4536" cx="23.896" cy="3.99" r="20.397" gradientTransform="matrix(0,1.2316483,-1.625754,0,18.486966,-28.721977)" gradientUnits="userSpaceOnUse"><stop id="stop4538" offset="0" stop-color="#fff" stop-opacity="1"/><stop id="stop4540" offset=".066" stop-color="#ddd" stop-opacity="1"/><stop id="stop4542" offset=".661" stop-color="#abacae" stop-opacity="1"/><stop id="stop4544" offset="1" stop-color="#89898b" stop-opacity="1"/></radialGradient><linearGradient id="linearGradient19619" x1="302.857" x2="302.857" y1="366.648" y2="609.505" gradientTransform="matrix(0.08449704,0,0,0.01235294,-6.5396456,38.470822)" gradientUnits="userSpaceOnUse" xlink:href="#linearGradient5048"/><linearGradient id="linearGradient5048"><stop id="stop5050" offset="0" stop-color="#000" stop-opacity="0"/><stop id="stop5056" offset=".5" stop-color="#000" stop-opacity="1"/><stop id="stop5052" offset="1" stop-color="#000" stop-opacity="0"/></linearGradient><radialGradient id="radialGradient19616" cx="605.714" cy="486.648" r="117.143" fx="605.714" fy="486.648" gradientTransform="matrix(-0.0289166,0,0,0.01235294,21.026894,38.470848)" gradientUnits="userSpaceOnUse" xlink:href="#linearGradient5060"/><linearGradient id="linearGradient5060"><stop id="stop5062" offset="0" stop-color="#000" stop-opacity="1"/><stop id="stop5064" offset="1" stop-color="#000" stop-opacity="0"/></linearGradient><radialGradient id="radialGradient19613" cx="605.714" cy="486.648" r="117.143" fx="605.714" fy="486.648" gradientTransform="matrix(0.02891661,0,0,0.01235294,26.973101,38.470848)" gradientUnits="userSpaceOnUse" xlink:href="#linearGradient5060"/></defs><metadata id="metadata4225"/><g id="layer1" transform="translate(0,-1004.3622)"><g id="g3257" opacity=".4" transform="translate(0,1004.3622)"><rect id="rect2879" width="40.8" height="3" x="3.6" y="43" fill="url(#linearGradient19619)" fill-opacity="1" fill-rule="nonzero" stroke="none" stroke-width="1" display="inline" overflow="visible" visibility="visible" style="marker:none"/><path id="path2881" fill="url(#radialGradient19616)" fill-opacity="1" fill-rule="nonzero" stroke="none" stroke-width="1" d="m 3.6,43.00013 c 0,0 0,2.999835 0,2.999835 C 2.1108662,46.005612 0,45.327854 0,44.499854 0,43.671856 1.6617608,43.000131 3.6,43.00013 Z" display="inline" overflow="visible" visibility="visible" style="marker:none"/><path id="path2883" fill="url(#radialGradient19613)" fill-opacity="1" fill-rule="nonzero" stroke="none" stroke-width="1" d="m 44.4,43.00013 c 0,0 0,2.999835 0,2.999835 1.489133,0.0056 3.6,-0.672111 3.6,-1.500111 0,-0.827998 -1.661761,-1.499723 -3.6,-1.499724 z" display="inline" overflow="visible" visibility="visible" style="marker:none"/></g><rect id="rect5505-21-3-8-5-2" width="45" height="29" x="1.5" y="1019.862" fill="url(#linearGradient4534)" fill-opacity="1" fill-rule="nonzero" stroke="none" stroke-width="1" color="#000" display="inline" enable-background="accumulate" opacity="1" overflow="visible" rx="1.5" ry="1.5" visibility="visible" style="marker:none"/><rect id="rect6741-5-0-2-3" width="43" height="27" x="2.5" y="1020.862" fill="none" stroke="url(#linearGradient4088)" stroke-dasharray="none" stroke-dashoffset="0" stroke-linecap="round" stroke-linejoin="round" stroke-miterlimit="4" stroke-opacity="1" stroke-width="1" opacity=".6" rx=".75" ry=".75"/><rect clip-rule="nonzero" style="isolation:auto;mix-blend-mode:normal;solid-color:#000;solid-opacity:1;marker:none" id="rect5505-21-3-8-9-1-1" width="45" height="29" x="1.5" y="1019.862" fill="none" fill-opacity="1" fill-rule="nonzero" stroke="#000" stroke-dasharray="none" stroke-dashoffset="0" stroke-linecap="butt" stroke-linejoin="miter" stroke-miterlimit="4" stroke-opacity="1" stroke-width="1" color="#000" color-interpolation="sRGB" color-interpolation-filters="linearRGB" color-rendering="auto" display="inline" enable-background="accumulate" image-rendering="auto" opacity=".3" overflow="visible" rx="1.5" ry="1.5" shape-rendering="auto" text-rendering="auto" visibility="visible"/><path color="#000" style="isolation:auto;mix-blend-mode:normal;solid-color:#000;solid-opacity:1;marker:none" id="path5222" fill="#000" fill-opacity="1" fill-rule="nonzero" stroke="none" stroke-dasharray="none" stroke-dashoffset="0" stroke-linecap="butt" stroke-linejoin="miter" stroke-miterlimit="4" stroke-opacity="1" stroke-width="1" d="m 4.5,20.007812 c -0.809969,0 -1.4921875,0.682219 -1.4921875,1.492188 l 0,1 c 0,0.385392 0.1705443,0.731978 0.4199219,1 -0.2493776,0.268022 -0.4199219,0.614608 -0.4199219,1 l 0,3 c 0,0.385392 0.1705443,0.731978 0.4199219,1 -0.2493776,0.268022 -0.4199219,0.614608 -0.4199219,1 l 0,3 c 0,0.385392 0.1705443,0.731978 0.4199219,1 -0.2493776,0.268022 -0.4199219,0.614608 -0.4199219,1 l 0,3 c 0,0.385392 0.1705443,0.731978 0.4199219,1 -0.2493776,0.268022 -0.4199219,0.614608 -0.4199219,1 l 0,3 c 0,0.809969 0.6822185,1.492188 1.4921875,1.492188 l 4,0 c 0.3853918,0 0.7319775,-0.170545 1,-0.419922 0.2680225,0.249377 0.614608,0.419922 1,0.419922 l 4,0 c 0.385392,0 0.731978,-0.170545 1,-0.419922 0.268022,0.249377 0.614608,0.419922 1,0.419922 l 15,0 c 0.385392,0 0.731978,-0.170545 1,-0.419922 0.268022,0.249377 0.614608,0.419922 1,0.419922 l 4,0 c 0.385392,0 0.731978,-0.170545 1,-0.419922 0.268022,0.249377 0.614608,0.419922 1,0.419922 l 4,0 c 0.809969,0 1.492188,-0.682219 1.492188,-1.492188 l 0,-3 c 0,-0.385392 -0.170545,-0.731978 -0.419922,-1 0.249377,-0.268022 0.419922,-0.614608 0.419922,-1 l 0,-3 c 0,-0.385392 -0.170545,-0.731978 -0.419922,-1 0.249377,-0.268022 0.419922,-0.614608 0.419922,-1 l 0,-3 c 0,-0.385392 -0.170545,-0.731978 -0.419922,-1 0.249377,-0.268022 0.419922,-0.614608 0.419922,-1 l 0,-3 c 0,-0.385392 -0.170545,-0.731978 -0.419922,-1 0.249377,-0.268022 0.419922,-0.614608 0.419922,-1 l 0,-1 c 0,-0.809969 -0.682219,-1.492188 -1.492188,-1.492188 l -4,0 c -0.385392,0 -0.731978,0.170545 -1,0.419922 -0.268022,-0.249377 -0.614608,-0.419922 -1,-0.419922 l -3,0 c -0.385392,0 -0.731978,0.170545 -1,0.419922 -0.268022,-0.249377 -0.614608,-0.419922 -1,-0.419922 l -3,0 c -0.385392,0 -0.731978,0.170545 -1,0.419922 -0.268022,-0.249377 -0.614608,-0.419922 -1,-0.419922 l -3,0 c -0.385392,0 -0.731978,0.170545 -1,0.419922 -0.268022,-0.249377 -0.614608,-0.419922 -1,-0.419922 l -3,0 c -0.385392,0 -0.731978,0.170545 -1,0.419922 -0.268022,-0.249377 -0.614608,-0.419922 -1,-0.419922 l -3,0 c -0.385392,0 -0.731978,0.170545 -1,0.419922 -0.268022,-0.249377 -0.614608,-0.419922 -1,-0.419922 l -3,0 c -0.3853918,0 -0.7319775,0.170545 -1,0.419922 -0.2680225,-0.249377 -0.6146082,-0.419922 -1,-0.419922 l -3,0 z" clip-rule="nonzero" color-interpolation="sRGB" color-interpolation-filters="linearRGB" color-rendering="auto" display="inline" enable-background="accumulate" image-rendering="auto" opacity=".07" overflow="visible" shape-rendering="auto" text-rendering="auto" transform="translate(0,1004.3622)" visibility="visible"/><path id="rect4562" fill="#000" fill-opacity="1" fill-rule="nonzero" stroke="none" stroke-dasharray="none" stroke-dashoffset="0" stroke-linecap="butt" stroke-linejoin="miter" stroke-miterlimit="4" stroke-opacity="1" stroke-width="1" d="m 4.5,1025.3622 c -0.277,0 -0.5,0.223 -0.5,0.5 l 0,1 c 0,0.277 0.223,0.5 0.5,0.5 l 3,0 c 0.277,0 0.5,-0.223 0.5,-0.5 l 0,-1 c 0,-0.277 -0.223,-0.5 -0.5,-0.5 l -3,0 z m 5,0 c -0.277,0 -0.5,0.223 -0.5,0.5 l 0,1 c 0,0.277 0.223,0.5 0.5,0.5 l 3,0 c 0.277,0 0.5,-0.223 0.5,-0.5 l 0,-1 c 0,-0.277 -0.223,-0.5 -0.5,-0.5 l -3,0 z m 5,0 c -0.277,0 -0.5,0.223 -0.5,0.5 l 0,1 c 0,0.277 0.223,0.5 0.5,0.5 l 3,0 c 0.277,0 0.5,-0.223 0.5,-0.5 l 0,-1 c 0,-0.277 -0.223,-0.5 -0.5,-0.5 l -3,0 z m 5,0 c -0.277,0 -0.5,0.223 -0.5,0.5 l 0,1 c 0,0.277 0.223,0.5 0.5,0.5 l 3,0 c 0.277,0 0.5,-0.223 0.5,-0.5 l 0,-1 c 0,-0.277 -0.223,-0.5 -0.5,-0.5 l -3,0 z m 5,0 c -0.277,0 -0.5,0.223 -0.5,0.5 l 0,1 c 0,0.277 0.223,0.5 0.5,0.5 l 3,0 c 0.277,0 0.5,-0.223 0.5,-0.5 l 0,-1 c 0,-0.277 -0.223,-0.5 -0.5,-0.5 l -3,0 z m 5,0 c -0.277,0 -0.5,0.223 -0.5,0.5 l 0,1 c 0,0.277 0.223,0.5 0.5,0.5 l 3,0 c 0.277,0 0.5,-0.223 0.5,-0.5 l 0,-1 c 0,-0.277 -0.223,-0.5 -0.5,-0.5 l -3,0 z m 5,0 c -0.277,0 -0.5,0.223 -0.5,0.5 l 0,1 c 0,0.277 0.223,0.5 0.5,0.5 l 3,0 c 0.277,0 0.5,-0.223 0.5,-0.5 l 0,-1 c 0,-0.277 -0.223,-0.5 -0.5,-0.5 l -3,0 z m 5,0 c -0.277,0 -0.5,0.223 -0.5,0.5 l 0,1 c 0,0.277 0.223,0.5 0.5,0.5 l 4,0 c 0.277,0 0.5,-0.223 0.5,-0.5 l 0,-1 c 0,-0.277 -0.223,-0.5 -0.5,-0.5 l -4,0 z m -35,3 c -0.277,0 -0.5,0.223 -0.5,0.5 l 0,3 c 0,0.277 0.223,0.5 0.5,0.5 l 3,0 c 0.277,0 0.5,-0.223 0.5,-0.5 l 0,-3 c 0,-0.277 -0.223,-0.5 -0.5,-0.5 l -3,0 z m 5,0 c -0.277,0 -0.5,0.223 -0.5,0.5 l 0,3 c 0,0.277 0.223,0.5 0.5,0.5 l 3,0 c 0.277,0 0.5,-0.223 0.5,-0.5 l 0,-3 c 0,-0.277 -0.223,-0.5 -0.5,-0.5 l -3,0 z m 5,0 c -0.277,0 -0.5,0.223 -0.5,0.5 l 0,3 c 0,0.277 0.223,0.5 0.5,0.5 l 3,0 c 0.277,0 0.5,-0.223 0.5,-0.5 l 0,-3 c 0,-0.277 -0.223,-0.5 -0.5,-0.5 l -3,0 z m 5,0 c -0.277,0 -0.5,0.223 -0.5,0.5 l 0,3 c 0,0.277 0.223,0.5 0.5,0.5 l 3,0 c 0.277,0 0.5,-0.223 0.5,-0.5 l 0,-3 c 0,-0.277 -0.223,-0.5 -0.5,-0.5 l -3,0 z m 5,0 c -0.277,0 -0.5,0.223 -0.5,0.5 l 0,3 c 0,0.277 0.223,0.5 0.5,0.5 l 3,0 c 0.277,0 0.5,-0.223 0.5,-0.5 l 0,-3 c 0,-0.277 -0.223,-0.5 -0.5,-0.5 l -3,0 z m 5,0 c -0.277,0 -0.5,0.223 -0.5,0.5 l 0,3 c 0,0.277 0.223,0.5 0.5,0.5 l 3,0 c 0.277,0 0.5,-0.223 0.5,-0.5 l 0,-3 c 0,-0.277 -0.223,-0.5 -0.5,-0.5 l -3,0 z m 5,0 c -0.277,0 -0.5,0.223 -0.5,0.5 l 0,3 c 0,0.277 0.223,0.5 0.5,0.5 l 3,0 c 0.277,0 0.5,-0.223 0.5,-0.5 l 0,-3 c 0,-0.277 -0.223,-0.5 -0.5,-0.5 l -3,0 z m 5,0 c -0.277,0 -0.5,0.223 -0.5,0.5 l 0,3 c 0,0.277 0.223,0.5 0.5,0.5 l 4,0 c 0.277,0 0.5,-0.223 0.5,-0.5 l 0,-3 c 0,-0.277 -0.223,-0.5 -0.5,-0.5 l -4,0 z m -35,5 c -0.277,0 -0.5,0.223 -0.5,0.5 l 0,3 c 0,0.277 0.223,0.5 0.5,0.5 l 4,0 c 0.277,0 0.5,-0.223 0.5,-0.5 l 0,-3 c 0,-0.277 -0.223,-0.5 -0.5,-0.5 l -4,0 z m 6,0 c -0.277,0 -0.5,0.223 -0.5,0.5 l 0,3 c 0,0.277 0.223,0.5 0.5,0.5 l 3,0 c 0.277,0 0.5,-0.223 0.5,-0.5 l 0,-3 c 0,-0.277 -0.223,-0.5 -0.5,-0.5 l -3,0 z m 5,0 c -0.277,0 -0.5,0.223 -0.5,0.5 l 0,3 c 0,0.277 0.223,0.5 0.5,0.5 l 3,0 c 0.277,0 0.5,-0.223 0.5,-0.5 l 0,-3 c 0,-0.277 -0.223,-0.5 -0.5,-0.5 l -3,0 z m 5,0 c -0.277,0 -0.5,0.223 -0.5,0.5 l 0,3 c 0,0.277 0.223,0.5 0.5,0.5 l 3,0 c 0.277,0 0.5,-0.223 0.5,-0.5 l 0,-3 c 0,-0.277 -0.223,-0.5 -0.5,-0.5 l -3,0 z m 5,0 c -0.277,0 -0.5,0.223 -0.5,0.5 l 0,3 c 0,0.277 0.223,0.5 0.5,0.5 l 3,0 c 0.277,0 0.5,-0.223 0.5,-0.5 l 0,-3 c 0,-0.277 -0.223,-0.5 -0.5,-0.5 l -3,0 z m 5,0 c -0.277,0 -0.5,0.223 -0.5,0.5 l 0,3 c 0,0.277 0.223,0.5 0.5,0.5 l 3,0 c 0.277,0 0.5,-0.223 0.5,-0.5 l 0,-3 c 0,-0.277 -0.223,-0.5 -0.5,-0.5 l -3,0 z m 5,0 c -0.277,0 -0.5,0.223 -0.5,0.5 l 0,3 c 0,0.277 0.223,0.5 0.5,0.5 l 3,0 c 0.277,0 0.5,-0.223 0.5,-0.5 l 0,-3 c 0,-0.277 -0.223,-0.5 -0.5,-0.5 l -3,0 z m 5,0 c -0.277,0 -0.5,0.223 -0.5,0.5 l 0,3 c 0,0.277 0.223,0.5 0.5,0.5 l 3,0 c 0.277,0 0.5,-0.223 0.5,-0.5 l 0,-3 c 0,-0.277 -0.223,-0.5 -0.5,-0.5 l -3,0 z m -36,5 c -0.277,0 -0.5,0.223 -0.5,0.5 l 0,3 c 0,0.277 0.223,0.5 0.5,0.5 l 4,0 c 0.277,0 0.5,-0.223 0.5,-0.5 l 0,-3 c 0,-0.277 -0.223,-0.5 -0.5,-0.5 l -4,0 z m 6,0 c -0.277,0 -0.5,0.223 -0.5,0.5 l 0,3 c 0,0.277 0.223,0.5 0.5,0.5 l 3,0 c 0.277,0 0.5,-0.223 0.5,-0.5 l 0,-3 c 0,-0.277 -0.223,-0.5 -0.5,-0.5 l -3,0 z m 5,0 c -0.277,0 -0.5,0.223 -0.5,0.5 l 0,3 c 0,0.277 0.223,0.5 0.5,0.5 l 3,0 c 0.277,0 0.5,-0.223 0.5,-0.5 l 0,-3 c 0,-0.277 -0.223,-0.5 -0.5,-0.5 l -3,0 z m 5,0 c -0.277,0 -0.5,0.223 -0.5,0.5 l 0,3 c 0,0.277 0.223,0.5 0.5,0.5 l 3,0 c 0.277,0 0.5,-0.223 0.5,-0.5 l 0,-3 c 0,-0.277 -0.223,-0.5 -0.5,-0.5 l -3,0 z m 5,0 c -0.277,0 -0.5,0.223 -0.5,0.5 l 0,3 c 0,0.277 0.223,0.5 0.5,0.5 l 3,0 c 0.277,0 0.5,-0.223 0.5,-0.5 l 0,-3 c 0,-0.277 -0.223,-0.5 -0.5,-0.5 l -3,0 z m 5,0 c -0.277,0 -0.5,0.223 -0.5,0.5 l 0,3 c 0,0.277 0.223,0.5 0.5,0.5 l 3,0 c 0.277,0 0.5,-0.223 0.5,-0.5 l 0,-3 c 0,-0.277 -0.223,-0.5 -0.5,-0.5 l -3,0 z m 5,0 c -0.277,0 -0.5,0.223 -0.5,0.5 l 0,3 c 0,0.277 0.223,0.5 0.5,0.5 l 3,0 c 0.277,0 0.5,-0.223 0.5,-0.5 l 0,-3 c 0,-0.277 -0.223,-0.5 -0.5,-0.5 l -3,0 z m 5,0 c -0.277,0 -0.5,0.223 -0.5,0.5 l 0,3 c 0,0.277 0.223,0.5 0.5,0.5 l 3,0 c 0.277,0 0.5,-0.223 0.5,-0.5 l 0,-3 c 0,-0.277 -0.223,-0.5 -0.5,-0.5 l -3,0 z m -36,5 c -0.277,0 -0.5,0.223 -0.5,0.5 l 0,3 c 0,0.277 0.223,0.5 0.5,0.5 l 4,0 c 0.277,0 0.5,-0.223 0.5,-0.5 l 0,-3 c 0,-0.277 -0.223,-0.5 -0.5,-0.5 l -4,0 z m 6,0 c -0.277,0 -0.5,0.223 -0.5,0.5 l 0,3 c 0,0.277 0.223,0.5 0.5,0.5 l 4,0 c 0.277,0 0.5,-0.223 0.5,-0.5 l 0,-3 c 0,-0.277 -0.223,-0.5 -0.5,-0.5 l -4,0 z m 6,0 c -0.277,0 -0.5,0.223 -0.5,0.5 l 0,3 c 0,0.277 0.223,0.5 0.5,0.5 l 15,0 c 0.277,0 0.5,-0.223 0.5,-0.5 l 0,-3 c 0,-0.277 -0.223,-0.5 -0.5,-0.5 l -15,0 z m 17,0 c -0.277,0 -0.5,0.223 -0.5,0.5 l 0,3 c 0,0.277 0.223,0.5 0.5,0.5 l 4,0 c 0.277,0 0.5,-0.223 0.5,-0.5 l 0,-3 c 0,-0.277 -0.223,-0.5 -0.5,-0.5 l -4,0 z m 6,0 c -0.277,0 -0.5,0.223 -0.5,0.5 l 0,3 c 0,0.277 0.223,0.5 0.5,0.5 l 4,0 c 0.277,0 0.5,-0.223 0.5,-0.5 l 0,-3 c 0,-0.277 -0.223,-0.5 -0.5,-0.5 l -4,0 z" clip-rule="nonzero" color="#000" color-interpolation="sRGB" color-interpolation-filters="linearRGB" color-rendering="auto" display="inline" enable-background="accumulate" image-rendering="auto" opacity=".15" overflow="visible" shape-rendering="auto" text-rendering="auto" visibility="visible" style="isolation:auto;mix-blend-mode:normal;solid-color:#000;solid-opacity:1;marker:none"/><path id="rect4562-8" fill="url(#linearGradient5177)" fill-opacity="1" fill-rule="nonzero" stroke="none" stroke-dasharray="none" stroke-dashoffset="0" stroke-linecap="butt" stroke-linejoin="miter" stroke-miterlimit="4" stroke-opacity="1" stroke-width="1" d="m 4.5,1024.3622 c -0.277,0 -0.5,0.223 -0.5,0.5 l 0,1 c 0,0.277 0.223,0.5 0.5,0.5 l 3,0 c 0.277,0 0.5,-0.223 0.5,-0.5 l 0,-1 c 0,-0.277 -0.223,-0.5 -0.5,-0.5 l -3,0 z m 5,0 c -0.277,0 -0.5,0.223 -0.5,0.5 l 0,1 c 0,0.277 0.223,0.5 0.5,0.5 l 3,0 c 0.277,0 0.5,-0.223 0.5,-0.5 l 0,-1 c 0,-0.277 -0.223,-0.5 -0.5,-0.5 l -3,0 z m 5,0 c -0.277,0 -0.5,0.223 -0.5,0.5 l 0,1 c 0,0.277 0.223,0.5 0.5,0.5 l 3,0 c 0.277,0 0.5,-0.223 0.5,-0.5 l 0,-1 c 0,-0.277 -0.223,-0.5 -0.5,-0.5 l -3,0 z m 5,0 c -0.277,0 -0.5,0.223 -0.5,0.5 l 0,1 c 0,0.277 0.223,0.5 0.5,0.5 l 3,0 c 0.277,0 0.5,-0.223 0.5,-0.5 l 0,-1 c 0,-0.277 -0.223,-0.5 -0.5,-0.5 l -3,0 z m 5,0 c -0.277,0 -0.5,0.223 -0.5,0.5 l 0,1 c 0,0.277 0.223,0.5 0.5,0.5 l 3,0 c 0.277,0 0.5,-0.223 0.5,-0.5 l 0,-1 c 0,-0.277 -0.223,-0.5 -0.5,-0.5 l -3,0 z m 5,0 c -0.277,0 -0.5,0.223 -0.5,0.5 l 0,1 c 0,0.277 0.223,0.5 0.5,0.5 l 3,0 c 0.277,0 0.5,-0.223 0.5,-0.5 l 0,-1 c 0,-0.277 -0.223,-0.5 -0.5,-0.5 l -3,0 z m 5,0 c -0.277,0 -0.5,0.223 -0.5,0.5 l 0,1 c 0,0.277 0.223,0.5 0.5,0.5 l 3,0 c 0.277,0 0.5,-0.223 0.5,-0.5 l 0,-1 c 0,-0.277 -0.223,-0.5 -0.5,-0.5 l -3,0 z m 5,0 c -0.277,0 -0.5,0.223 -0.5,0.5 l 0,1 c 0,0.277 0.223,0.5 0.5,0.5 l 4,0 c 0.277,0 0.5,-0.223 0.5,-0.5 l 0,-1 c 0,-0.277 -0.223,-0.5 -0.5,-0.5 l -4,0 z m -35,3 c -0.277,0 -0.5,0.223 -0.5,0.5 l 0,3 c 0,0.277 0.223,0.5 0.5,0.5 l 3,0 c 0.277,0 0.5,-0.223 0.5,-0.5 l 0,-3 c 0,-0.277 -0.223,-0.5 -0.5,-0.5 l -3,0 z m 5,0 c -0.277,0 -0.5,0.223 -0.5,0.5 l 0,3 c 0,0.277 0.223,0.5 0.5,0.5 l 3,0 c 0.277,0 0.5,-0.223 0.5,-0.5 l 0,-3 c 0,-0.277 -0.223,-0.5 -0.5,-0.5 l -3,0 z m 5,0 c -0.277,0 -0.5,0.223 -0.5,0.5 l 0,3 c 0,0.277 0.223,0.5 0.5,0.5 l 3,0 c 0.277,0 0.5,-0.223 0.5,-0.5 l 0,-3 c 0,-0.277 -0.223,-0.5 -0.5,-0.5 l -3,0 z m 5,0 c -0.277,0 -0.5,0.223 -0.5,0.5 l 0,3 c 0,0.277 0.223,0.5 0.5,0.5 l 3,0 c 0.277,0 0.5,-0.223 0.5,-0.5 l 0,-3 c 0,-0.277 -0.223,-0.5 -0.5,-0.5 l -3,0 z m 5,0 c -0.277,0 -0.5,0.223 -0.5,0.5 l 0,3 c 0,0.277 0.223,0.5 0.5,0.5 l 3,0 c 0.277,0 0.5,-0.223 0.5,-0.5 l 0,-3 c 0,-0.277 -0.223,-0.5 -0.5,-0.5 l -3,0 z m 5,0 c -0.277,0 -0.5,0.223 -0.5,0.5 l 0,3 c 0,0.277 0.223,0.5 0.5,0.5 l 3,0 c 0.277,0 0.5,-0.223 0.5,-0.5 l 0,-3 c 0,-0.277 -0.223,-0.5 -0.5,-0.5 l -3,0 z m 5,0 c -0.277,0 -0.5,0.223 -0.5,0.5 l 0,3 c 0,0.277 0.223,0.5 0.5,0.5 l 3,0 c 0.277,0 0.5,-0.223 0.5,-0.5 l 0,-3 c 0,-0.277 -0.223,-0.5 -0.5,-0.5 l -3,0 z m 5,0 c -0.277,0 -0.5,0.223 -0.5,0.5 l 0,3 c 0,0.277 0.223,0.5 0.5,0.5 l 4,0 c 0.277,0 0.5,-0.223 0.5,-0.5 l 0,-3 c 0,-0.277 -0.223,-0.5 -0.5,-0.5 l -4,0 z m -35,5 c -0.277,0 -0.5,0.223 -0.5,0.5 l 0,3 c 0,0.277 0.223,0.5 0.5,0.5 l 4,0 c 0.277,0 0.5,-0.223 0.5,-0.5 l 0,-3 c 0,-0.277 -0.223,-0.5 -0.5,-0.5 l -4,0 z m 6,0 c -0.277,0 -0.5,0.223 -0.5,0.5 l 0,3 c 0,0.277 0.223,0.5 0.5,0.5 l 3,0 c 0.277,0 0.5,-0.223 0.5,-0.5 l 0,-3 c 0,-0.277 -0.223,-0.5 -0.5,-0.5 l -3,0 z m 5,0 c -0.277,0 -0.5,0.223 -0.5,0.5 l 0,3 c 0,0.277 0.223,0.5 0.5,0.5 l 3,0 c 0.277,0 0.5,-0.223 0.5,-0.5 l 0,-3 c 0,-0.277 -0.223,-0.5 -0.5,-0.5 l -3,0 z m 5,0 c -0.277,0 -0.5,0.223 -0.5,0.5 l 0,3 c 0,0.277 0.223,0.5 0.5,0.5 l 3,0 c 0.277,0 0.5,-0.223 0.5,-0.5 l 0,-3 c 0,-0.277 -0.223,-0.5 -0.5,-0.5 l -3,0 z m 5,0 c -0.277,0 -0.5,0.223 -0.5,0.5 l 0,3 c 0,0.277 0.223,0.5 0.5,0.5 l 3,0 c 0.277,0 0.5,-0.223 0.5,-0.5 l 0,-3 c 0,-0.277 -0.223,-0.5 -0.5,-0.5 l -3,0 z m 5,0 c -0.277,0 -0.5,0.223 -0.5,0.5 l 0,3 c 0,0.277 0.223,0.5 0.5,0.5 l 3,0 c 0.277,0 0.5,-0.223 0.5,-0.5 l 0,-3 c 0,-0.277 -0.223,-0.5 -0.5,-0.5 l -3,0 z m 5,0 c -0.277,0 -0.5,0.223 -0.5,0.5 l 0,3 c 0,0.277 0.223,0.5 0.5,0.5 l 3,0 c 0.277,0 0.5,-0.223 0.5,-0.5 l 0,-3 c 0,-0.277 -0.223,-0.5 -0.5,-0.5 l -3,0 z m 5,0 c -0.277,0 -0.5,0.223 -0.5,0.5 l 0,3 c 0,0.277 0.223,0.5 0.5,0.5 l 3,0 c 0.277,0 0.5,-0.223 0.5,-0.5 l 0,-3 c 0,-0.277 -0.223,-0.5 -0.5,-0.5 l -3,0 z m -36,5 c -0.277,0 -0.5,0.223 -0.5,0.5 l 0,3 c 0,0.277 0.223,0.5 0.5,0.5 l 4,0 c 0.277,0 0.5,-0.223 0.5,-0.5 l 0,-3 c 0,-0.277 -0.223,-0.5 -0.5,-0.5 l -4,0 z m 6,0 c -0.277,0 -0.5,0.223 -0.5,0.5 l 0,3 c 0,0.277 0.223,0.5 0.5,0.5 l 3,0 c 0.277,0 0.5,-0.223 0.5,-0.5 l 0,-3 c 0,-0.277 -0.223,-0.5 -0.5,-0.5 l -3,0 z m 5,0 c -0.277,0 -0.5,0.223 -0.5,0.5 l 0,3 c 0,0.277 0.223,0.5 0.5,0.5 l 3,0 c 0.277,0 0.5,-0.223 0.5,-0.5 l 0,-3 c 0,-0.277 -0.223,-0.5 -0.5,-0.5 l -3,0 z m 5,0 c -0.277,0 -0.5,0.223 -0.5,0.5 l 0,3 c 0,0.277 0.223,0.5 0.5,0.5 l 3,0 c 0.277,0 0.5,-0.223 0.5,-0.5 l 0,-3 c 0,-0.277 -0.223,-0.5 -0.5,-0.5 l -3,0 z m 5,0 c -0.277,0 -0.5,0.223 -0.5,0.5 l 0,3 c 0,0.277 0.223,0.5 0.5,0.5 l 3,0 c 0.277,0 0.5,-0.223 0.5,-0.5 l 0,-3 c 0,-0.277 -0.223,-0.5 -0.5,-0.5 l -3,0 z m 5,0 c -0.277,0 -0.5,0.223 -0.5,0.5 l 0,3 c 0,0.277 0.223,0.5 0.5,0.5 l 3,0 c 0.277,0 0.5,-0.223 0.5,-0.5 l 0,-3 c 0,-0.277 -0.223,-0.5 -0.5,-0.5 l -3,0 z m 5,0 c -0.277,0 -0.5,0.223 -0.5,0.5 l 0,3 c 0,0.277 0.223,0.5 0.5,0.5 l 3,0 c 0.277,0 0.5,-0.223 0.5,-0.5 l 0,-3 c 0,-0.277 -0.223,-0.5 -0.5,-0.5 l -3,0 z m 5,0 c -0.277,0 -0.5,0.223 -0.5,0.5 l 0,3 c 0,0.277 0.223,0.5 0.5,0.5 l 3,0 c 0.277,0 0.5,-0.223 0.5,-0.5 l 0,-3 c 0,-0.277 -0.223,-0.5 -0.5,-0.5 l -3,0 z m -36,5 c -0.277,0 -0.5,0.223 -0.5,0.5 l 0,3 c 0,0.277 0.223,0.5 0.5,0.5 l 4,0 c 0.277,0 0.5,-0.223 0.5,-0.5 l 0,-3 c 0,-0.277 -0.223,-0.5 -0.5,-0.5 l -4,0 z m 6,0 c -0.277,0 -0.5,0.223 -0.5,0.5 l 0,3 c 0,0.277 0.223,0.5 0.5,0.5 l 4,0 c 0.277,0 0.5,-0.223 0.5,-0.5 l 0,-3 c 0,-0.277 -0.223,-0.5 -0.5,-0.5 l -4,0 z m 6,0 c -0.277,0 -0.5,0.223 -0.5,0.5 l 0,3 c 0,0.277 0.223,0.5 0.5,0.5 l 15,0 c 0.277,0 0.5,-0.223 0.5,-0.5 l 0,-3 c 0,-0.277 -0.223,-0.5 -0.5,-0.5 l -15,0 z m 17,0 c -0.277,0 -0.5,0.223 -0.5,0.5 l 0,3 c 0,0.277 0.223,0.5 0.5,0.5 l 4,0 c 0.277,0 0.5,-0.223 0.5,-0.5 l 0,-3 c 0,-0.277 -0.223,-0.5 -0.5,-0.5 l -4,0 z m 6,0 c -0.277,0 -0.5,0.223 -0.5,0.5 l 0,3 c 0,0.277 0.223,0.5 0.5,0.5 l 4,0 c 0.277,0 0.5,-0.223 0.5,-0.5 l 0,-3 c 0,-0.277 -0.223,-0.5 -0.5,-0.5 l -4,0 z" clip-rule="nonzero" color="#000" color-interpolation="sRGB" color-interpolation-filters="linearRGB" color-rendering="auto" display="inline" enable-background="accumulate" image-rendering="auto" opacity="1" overflow="visible" shape-rendering="auto" text-rendering="auto" visibility="visible" style="isolation:auto;mix-blend-mode:normal;solid-color:#000;solid-opacity:1;marker:none"/></g></svg>