<svg xmlns="http://www.w3.org/2000/svg" xmlns:svg="http://www.w3.org/2000/svg" xmlns:xlink="http://www.w3.org/1999/xlink" id="svg7388" width="48" height="48" version="1.1"><metadata id="metadata113"/><defs id="defs7390"><radialGradient id="radialGradient5031" cx="605.714" cy="486.648" r="117.143" fx="605.714" fy="486.648" gradientTransform="matrix(-2.774389,0,0,1.969706,112.7623,-872.8854)" gradientUnits="userSpaceOnUse" xlink:href="#linearGradient5060"/><linearGradient id="linearGradient5060"><stop id="stop5062" offset="0" stop-color="#000" stop-opacity="1"/><stop id="stop5064" offset="1" stop-color="#000" stop-opacity="0"/></linearGradient><radialGradient id="radialGradient5029" cx="605.714" cy="486.648" r="117.143" fx="605.714" fy="486.648" gradientTransform="matrix(2.774389,0,0,1.969706,-1891.633,-872.8854)" gradientUnits="userSpaceOnUse" xlink:href="#linearGradient5060"/><linearGradient id="linearGradient5048"><stop id="stop5050" offset="0" stop-color="#000" stop-opacity="0"/><stop id="stop5056" offset=".5" stop-color="#000" stop-opacity="1"/><stop id="stop5052" offset="1" stop-color="#000" stop-opacity="0"/></linearGradient><linearGradient id="linearGradient5027" x1="302.857" x2="302.857" y1="366.648" y2="609.505" gradientTransform="matrix(2.774389,0,0,1.969706,-1892.179,-872.8854)" gradientUnits="userSpaceOnUse" xlink:href="#linearGradient5048"/><linearGradient id="linearGradient9542"><stop id="stop9544" offset="0" stop-color="#424242" stop-opacity="1"/><stop id="stop9546" offset="1" stop-color="#000" stop-opacity="1"/></linearGradient><radialGradient id="radialGradient9554" cx="314.563" cy="78.985" r="8.51" fx="314.563" fy="78.985" gradientTransform="matrix(0.8038608,0.5948175,-0.9503348,1.2843214,136.76029,-209.56473)" gradientUnits="userSpaceOnUse" xlink:href="#linearGradient9542"/><linearGradient id="linearGradient11454"><stop id="stop11456" offset="0" stop-color="#a2a2a2" stop-opacity="1"/><stop id="stop11458" offset="1" stop-color="#fff" stop-opacity="0"/></linearGradient><radialGradient id="radialGradient11460" cx="206" cy="203" r="18.667" fx="206" fy="203" gradientUnits="userSpaceOnUse" xlink:href="#linearGradient11454"/><linearGradient id="linearGradient9921-0"><stop id="stop9923-2" offset="0" stop-color="#414240" stop-opacity="1"/><stop id="stop9925-7" offset="1" stop-color="#181818" stop-opacity="1"/></linearGradient><radialGradient id="radialGradient11433" cx="202.687" cy="178.307" r="16" fx="202.687" fy="178.307" gradientTransform="matrix(11.888752,-9.778074,0.3728094,0.4532834,-2313.1711,2117.066)" gradientUnits="userSpaceOnUse" xlink:href="#linearGradient9921-0"/><linearGradient id="linearGradient9348"><stop id="stop9350" offset="0" stop-color="#fff" stop-opacity="1"/><stop id="stop9352" offset="1" stop-color="#fff" stop-opacity="0"/></linearGradient><radialGradient id="radialGradient9354" cx="321.204" cy="73.492" r="17.407" fx="321.204" fy="73.492" gradientTransform="matrix(1.1575429,-1.2103905e-7,3.5589389e-7,3.4035498,-50.589207,-176.56861)" gradientUnits="userSpaceOnUse" xlink:href="#linearGradient9348"/><linearGradient id="linearGradient9314"><stop id="stop9316" offset="0" stop-color="#fff" stop-opacity="0"/><stop id="stop9324" offset=".276" stop-color="#fff" stop-opacity=".8"/><stop id="stop9322" offset=".772" stop-color="#fff" stop-opacity="1"/><stop id="stop9318" offset="1" stop-color="#fff" stop-opacity="0"/></linearGradient><linearGradient id="linearGradient9320" x1="312.358" x2="329.483" y1="82.991" y2="95.991" gradientUnits="userSpaceOnUse" xlink:href="#linearGradient9314"/><linearGradient id="linearGradient9304"><stop id="stop9306" offset="0" stop-color="#fff" stop-opacity="1"/><stop id="stop9308" offset="1" stop-color="#fff" stop-opacity="0"/></linearGradient><radialGradient id="radialGradient9310" cx="319.594" cy="93.563" r="14.594" fx="319.594" fy="93.563" gradientTransform="matrix(1,0,0,0.2912206,0,66.315177)" gradientUnits="userSpaceOnUse" xlink:href="#linearGradient9304"/><linearGradient id="linearGradient6210"><stop id="stop6212" offset="0" stop-color="#fff" stop-opacity="1"/><stop id="stop6214" offset="1" stop-color="#fff" stop-opacity="0"/></linearGradient><linearGradient id="linearGradient6216" x1="16.846" x2="30.508" y1="8.678" y2="78.505" gradientUnits="userSpaceOnUse" xlink:href="#linearGradient6210"/><linearGradient id="linearGradient9296"><stop id="stop9298" offset="0" stop-color="#dededa" stop-opacity="1"/><stop id="stop9300" offset=".785" stop-color="#dededa" stop-opacity="1"/><stop id="stop9302" offset="1" stop-color="#838375" stop-opacity="1"/></linearGradient><linearGradient id="linearGradient9294" x1="22.797" x2="22.797" y1="39.68" y2="46.636" gradientTransform="matrix(1,0,0,0.934004,295.9826,51.557983)" gradientUnits="userSpaceOnUse" xlink:href="#linearGradient9296"/><linearGradient id="linearGradient6196"><stop id="stop6198" offset="0" stop-color="#edd400" stop-opacity="1"/><stop id="stop6204" offset=".5" stop-color="#c3af07" stop-opacity="1"/><stop id="stop6200" offset="1" stop-color="#ffeb3e" stop-opacity="1"/></linearGradient><linearGradient id="linearGradient6202" x1="29.375" x2="22.102" y1="21.741" y2="7.679" gradientTransform="translate(295.9826,50.000001)" gradientUnits="userSpaceOnUse" xlink:href="#linearGradient6196"/><linearGradient id="linearGradient9326"><stop id="stop9328" offset="0" stop-color="#555753" stop-opacity="1"/><stop id="stop9342" offset=".526" stop-color="#555652" stop-opacity="1"/><stop id="stop9332" offset=".626" stop-color="#5e605b" stop-opacity="1"/><stop id="stop9330" offset="1" stop-color="#3e3f3c" stop-opacity="1"/></linearGradient><linearGradient id="linearGradient9346" x1="21.617" x2="26.444" y1="4.608" y2="47.007" gradientTransform="matrix(1,0,0,0.982516,295.9826,49.929234)" gradientUnits="userSpaceOnUse" xlink:href="#linearGradient9326"/><linearGradient id="linearGradient3390-178-986-453"><stop id="stop3624" offset="0" stop-color="#bb5e12" stop-opacity="1"/><stop id="stop3626" offset="1" stop-color="#cd8033" stop-opacity="1"/></linearGradient><linearGradient id="linearGradient4055" x1="316" x2="316" y1="90" y2="84" gradientUnits="userSpaceOnUse" xlink:href="#linearGradient3390-178-986-453"/></defs><g id="layer1"><g id="g5022" display="inline" opacity=".587" transform="matrix(0.02265526,0,0,0.01567866,44.15039,41.489725)"><rect id="rect4173" width="1339.633" height="478.357" x="-1559.252" y="-150.697" fill="url(#linearGradient5027)" fill-opacity="1" fill-rule="nonzero" stroke="none" stroke-width="1" display="inline" opacity=".402" overflow="visible" visibility="visible" style="marker:none"/><path id="path5058" fill="url(#radialGradient5029)" fill-opacity="1" fill-rule="nonzero" stroke="none" stroke-width="1" d="m -219.61876,-150.68038 c 0,0 0,478.33079 0,478.33079 142.874166,0.90045 345.40022,-107.16966 345.40014,-239.196175 0,-132.026537 -159.436816,-239.134595 -345.40014,-239.134615 z" display="inline" opacity=".402" overflow="visible" visibility="visible" style="marker:none"/><path id="path5018" fill="url(#radialGradient5031)" fill-opacity="1" fill-rule="nonzero" stroke="none" stroke-width="1" d="m -1559.2523,-150.68038 c 0,0 0,478.33079 0,478.33079 -142.8742,0.90045 -345.4002,-107.16966 -345.4002,-239.196175 0,-132.026537 159.4368,-239.134595 345.4002,-239.134615 z" display="inline" opacity=".402" overflow="visible" visibility="visible" style="marker:none"/></g><g id="g8261" display="inline" transform="translate(-296.00047,-50.999789)"><path id="path4291" fill="url(#linearGradient9346)" fill-opacity="1" fill-rule="evenodd" stroke="#2e3436" stroke-dasharray="none" stroke-dashoffset=".8" stroke-linecap="butt" stroke-linejoin="miter" stroke-miterlimit="4" stroke-opacity="1" stroke-width="1" d="m 301.4826,53.23686 0,40.381999 c 0.0697,1.050208 0.99873,2.102352 2.38342,1.997388 l 31.85186,0 c 0.89356,-0.04311 1.77777,-0.786202 1.7647,-2.257918 l 0,-36.929988 c 0,-0.716537 -0.23124,-1.197904 -0.75625,-1.713734 0,0 -2.749,-2.835485 -2.749,-2.835485 C 333.69007,51.607738 333.51337,51.5 332.71788,51.5 l -29.99999,0 c -0.9375,0.06141 -1.29779,0.999973 -1.23529,1.73686 z" display="inline" overflow="visible" visibility="visible" style="marker:none"/><rect id="rect6089" width="27.977" height="17" x="305.483" y="55.616" fill="#edd400" fill-opacity="1" fill-rule="evenodd" stroke="#2e3436" stroke-dasharray="none" stroke-dashoffset=".8" stroke-linecap="butt" stroke-linejoin="miter" stroke-miterlimit="4" stroke-opacity="1" stroke-width="3" display="inline" overflow="visible" rx="1.897" ry="1.897" visibility="visible" style="marker:none"/><rect id="rect4293" width="27.977" height="17" x="305.483" y="55.616" fill="url(#linearGradient6202)" fill-opacity="1" fill-rule="evenodd" stroke="#c4a000" stroke-dasharray="none" stroke-dashoffset=".8" stroke-linecap="butt" stroke-linejoin="miter" stroke-miterlimit="4" stroke-opacity="1" stroke-width="1" display="inline" overflow="visible" rx="1.897" ry="1.897" visibility="visible" style="marker:none"/><rect id="rect4295" width="26" height="15" x="306.837" y="56.617" fill="none" stroke="#fff" stroke-dasharray="none" stroke-dashoffset=".8" stroke-linecap="butt" stroke-linejoin="miter" stroke-miterlimit="4" stroke-opacity="1" stroke-width="1" display="inline" opacity=".449" overflow="visible" rx="1.146" ry="1.146" transform="matrix(1,0,-0.0055327,0.9999847,0,0)" visibility="visible" style="marker:none"/><path id="path6043" fill="#fff" fill-opacity="1" fill-rule="evenodd" stroke="none" stroke-width="1" d="m 307.9826,56.116118 0,6.000003 c 7.20491,-2.860273 15.05802,3.977999 23,2 l 0,-7.928081 1,0 0,15.928081 -1,0 0,-6 c -8.66298,1.940742 -15.5543,-5.045644 -23,-2 l 0,8 -1,0 0,-16.000003 1,0 z" display="inline" opacity=".449" overflow="visible" visibility="visible" style="marker:none"/><path id="path6045" fill="#fff" fill-opacity="1" fill-rule="evenodd" stroke="none" stroke-width="1" d="m 308.9826,56.116118 0,4.734838 1,-0.239222 0,-4.495616 -1,0 z" display="inline" opacity=".449" overflow="visible" visibility="visible" style="marker:none"/><path id="path6047" fill="#fff" fill-opacity="1" fill-rule="evenodd" stroke="none" stroke-width="1" d="m 310.9826,60.611733 0,-4.495615 1,0 0,4.407227 -1,0.08839 z" display="inline" opacity=".449" overflow="visible" visibility="visible" style="marker:none"/><path id="path6049" fill="#fff" fill-opacity="1" fill-rule="evenodd" stroke="none" stroke-width="1" d="m 312.9826,60.523345 0,-4.407227 1,0 0,4.558061 -1,-0.150834 z" display="inline" opacity=".449" overflow="visible" visibility="visible" style="marker:none"/><path id="path6051" fill="#fff" fill-opacity="1" fill-rule="evenodd" stroke="none" stroke-width="1" d="m 314.9826,60.89515 0,-4.779032 1,0 0,5.000003 -1,-0.220971 z" display="inline" opacity=".449" overflow="visible" visibility="visible" style="marker:none"/><path id="path6053" fill="#fff" fill-opacity="1" fill-rule="evenodd" stroke="none" stroke-width="1" d="m 316.9826,61.274646 0,-5.158528 1,0 0,5.335305 -1,-0.176777 z" display="inline" opacity=".449" overflow="visible" visibility="visible" style="marker:none"/><path id="path6055" fill="#fff" fill-opacity="1" fill-rule="evenodd" stroke="none" stroke-width="1" d="m 318.9826,61.804976 0,-5.688858 1,0 0,5.821441 -1,-0.132583 z" display="inline" opacity=".449" overflow="visible" visibility="visible" style="marker:none"/><path id="path6057" fill="#fff" fill-opacity="1" fill-rule="evenodd" stroke="none" stroke-width="1" d="m 320.9826,62.335306 0,-6.219188 1,0 0,6.395965 -1,-0.176777 z" display="inline" opacity=".449" overflow="visible" visibility="visible" style="marker:none"/><path id="path6059" fill="#fff" fill-opacity="1" fill-rule="evenodd" stroke="none" stroke-width="1" d="m 322.9826,62.733054 0,-6.616936 1,0 0,6.793713 -1,-0.176777 z" display="inline" opacity=".449" overflow="visible" visibility="visible" style="marker:none"/><path id="path6061" fill="#fff" fill-opacity="1" fill-rule="evenodd" stroke="none" stroke-width="1" d="m 324.9826,63.21919 0,-7.103072 1,0 0,7.19146 -1,-0.08839 z" display="inline" opacity=".449" overflow="visible" visibility="visible" style="marker:none"/><path id="path6063" fill="#fff" fill-opacity="1" fill-rule="evenodd" stroke="none" stroke-width="1" d="m 326.9826,63.395966 0,-7.279848 1,0 0,7.279849 -1,-10e-7 z" display="inline" opacity=".449" overflow="visible" visibility="visible" style="marker:none"/><path id="path6065" fill="#fff" fill-opacity="1" fill-rule="evenodd" stroke="none" stroke-width="1" d="m 328.9826,63.395966 0,-7.279848 1,0 0,7.147266 -1,0.132582 z" display="inline" opacity=".449" overflow="visible" visibility="visible" style="marker:none"/><path id="path5356" fill="#fff" fill-opacity="1" fill-rule="evenodd" stroke="none" stroke-width="1" d="m 308.9826,72.07014 0,-7.43068 1,-0.114331 0,7.545011 -1,0 z" display="inline" opacity=".449" overflow="visible" visibility="visible" style="marker:none"/><path id="path6069" fill="#fff" fill-opacity="1" fill-rule="evenodd" stroke="none" stroke-width="1" d="m 310.9826,64.480936 0,7.589204 1,0 0,-7.721787 -1,0.132583 z" display="inline" opacity=".449" overflow="visible" visibility="visible" style="marker:none"/><path id="path5359" fill="#fff" fill-opacity="1" fill-rule="evenodd" stroke="none" stroke-width="1" d="m 312.9826,64.348353 0,7.721787 1,0 0,-7.607456 -1,-0.114331 z" display="inline" opacity=".449" overflow="visible" visibility="visible" style="marker:none"/><path id="path6073" fill="#fff" fill-opacity="1" fill-rule="evenodd" stroke="none" stroke-width="1" d="m 314.9826,64.772043 0,7.298097 1,0 0,-7.077126 -1,-0.220971 z" display="inline" opacity=".449" overflow="visible" visibility="visible" style="marker:none"/><path id="path6075" fill="#fff" fill-opacity="1" fill-rule="evenodd" stroke="none" stroke-width="1" d="m 316.9826,65.232236 0,6.837904 1,0 0,-6.572739 -1,-0.265165 z" display="inline" opacity=".449" overflow="visible" visibility="visible" style="marker:none"/><path id="path6077" fill="#fff" fill-opacity="1" fill-rule="evenodd" stroke="none" stroke-width="1" d="m 318.9826,65.850955 0,6.219185 1,0 0,-5.865632 -1,-0.353553 z" display="inline" opacity=".449" overflow="visible" visibility="visible" style="marker:none"/><path id="path6079" fill="#fff" fill-opacity="1" fill-rule="evenodd" stroke="none" stroke-width="1" d="m 320.9826,66.381285 0,5.688855 1,0 0,-5.42369 -1,-0.265165 z" display="inline" opacity=".449" overflow="visible" visibility="visible" style="marker:none"/><path id="path6081" fill="#fff" fill-opacity="1" fill-rule="evenodd" stroke="none" stroke-width="1" d="m 322.9826,66.823227 0,5.246913 1,0 0,-5.070137 -1,-0.176776 z" display="inline" opacity=".449" overflow="visible" visibility="visible" style="marker:none"/><path id="path6083" fill="#fff" fill-opacity="1" fill-rule="evenodd" stroke="none" stroke-width="1" d="m 324.9826,67.17678 0,4.89336 1,0 0,-4.849166 -1,-0.04419 z" display="inline" opacity=".449" overflow="visible" visibility="visible" style="marker:none"/><path id="path6085" fill="#fff" fill-opacity="1" fill-rule="evenodd" stroke="none" stroke-width="1" d="m 326.9826,67.397751 0,4.672389 1,0 0,-4.804972 -1,0.132583 z" display="inline" opacity=".449" overflow="visible" visibility="visible" style="marker:none"/><path id="path6087" fill="#fff" fill-opacity="1" fill-rule="evenodd" stroke="none" stroke-width="1" d="m 328.9826,67.353557 0,4.716583 1,0 0,-4.89336 -1,0.176777 z" display="inline" opacity=".449" overflow="visible" visibility="visible" style="marker:none"/><rect id="rect6095" width="31" height="11" x="303.983" y="85.116" fill="#2e3436" fill-opacity="1" fill-rule="evenodd" stroke="none" stroke-width="3" display="inline" overflow="visible" rx=".817" ry=".817" visibility="visible" style="marker:none"/><rect id="rect6097" width="29" height="9" x="304.983" y="86.116" fill="url(#linearGradient9294)" fill-opacity="1" fill-rule="evenodd" stroke="none" stroke-width="3" display="inline" overflow="visible" rx=".13" ry=".13" visibility="visible" style="marker:none"/><rect id="rect6109" width="29" height="3" x="304.983" y="86.116" fill="url(#linearGradient4055)" fill-opacity="1" fill-rule="evenodd" stroke="none" stroke-width="1" display="inline" overflow="visible" rx=".13" ry=".13" visibility="visible" style="marker:none"/><rect id="rect6111" width="10.036" height="2" x="306.983" y="87.116" fill="#e9b96e" fill-opacity="1" fill-rule="evenodd" stroke="none" stroke-width="1" display="inline" overflow="visible" rx=".13" ry=".13" visibility="visible" style="marker:none"/><rect id="rect6113" width="4.036" height="2" x="318.946" y="87.116" fill="#e9b96e" fill-opacity="1" fill-rule="evenodd" stroke="none" stroke-width="1" display="inline" overflow="visible" rx=".13" ry=".13" visibility="visible" style="marker:none"/><path id="path6206" fill="none" stroke="url(#linearGradient6216)" stroke-dasharray="none" stroke-dashoffset=".8" stroke-linecap="butt" stroke-linejoin="miter" stroke-miterlimit="4" stroke-opacity="1" stroke-width="1" d="m 302.78125,52.5 c -0.14109,0.0092 -0.14702,0.0057 -0.21875,0.125 -0.0717,0.119264 -0.1077,0.366824 -0.0937,0.53125 a 1.000473,1.000473 0 0 1 0,0.09375 l 0,40.3125 c 0.0328,0.49388 0.49717,1.126673 1.34375,1.0625 a 1.000473,1.000473 0 0 1 0.0625,0 l 31.78125,0 c 0.35473,-0.01711 0.82204,-0.206594 0.8125,-1.28125 l 0,-36.90625 c 0,-0.507128 -0.0348,-0.60436 -0.4375,-1 A 1.000473,1.000473 0 0 1 336,55.40625 l -2.71875,-2.8125 c -0.0597,-0.05639 -0.0293,-0.02818 -0.0312,-0.03125 -0.002,-0.0031 -0.0313,-0.03127 -0.0312,-0.03125 1.4e-4,4.6e-5 -0.14569,-0.03125 -0.5,-0.03125 l -29.9375,0 z" display="inline" opacity=".18" overflow="visible" transform="translate(0.03110637,-0.1295216)" visibility="visible" style="marker:none"/><rect id="rect9292" width="29.188" height="1.125" x="305" y="93" fill="url(#radialGradient9310)" fill-opacity="1" fill-rule="evenodd" stroke="none" stroke-width="1" display="inline" enable-background="accumulate" overflow="visible" visibility="visible" style="marker:none"/><rect id="rect9312" width="29" height="9" x="304.983" y="86.116" fill="url(#linearGradient9320)" fill-opacity="1" fill-rule="evenodd" stroke="none" stroke-width="3" display="inline" opacity=".408" overflow="visible" rx=".13" ry=".13" visibility="visible" style="marker:none"/><path id="path9344" fill="none" stroke="url(#radialGradient9354)" stroke-dasharray="none" stroke-dashoffset=".8" stroke-linecap="butt" stroke-linejoin="miter" stroke-miterlimit="4" stroke-opacity="1" stroke-width="1" d="m 302.78125,52.59375 c -0.11288,0.0074 -0.0646,-0.0067 -0.125,0.09375 -0.0604,0.100457 -0.10621,0.321889 -0.0937,0.46875 a 1.0866064,1.0866064 0 0 1 0,0.09375 l 0,40.3125 c 0.0296,0.445984 0.4185,1.029411 1.21875,0.96875 a 1.0866064,1.0866064 0 0 1 0.0937,0 l 31.78125,0 c 0.30834,-0.01488 0.72799,-0.147028 0.71875,-1.1875 l 0,-36.90625 c 0,-0.489099 -0.0141,-0.552208 -0.40625,-0.9375 a 1.0866064,1.0866064 0 0 1 -0.0312,-0.03125 l -2.71875,-2.8125 c -0.11729,-0.110809 -0.0466,-0.03645 -0.0312,-0.03125 0.0154,0.0052 -0.11818,-0.03125 -0.46875,-0.03125 l -29.9375,0 z" display="inline" overflow="visible" visibility="visible" style="marker:none"/><path id="path9929-4" fill="url(#radialGradient11433)" fill-opacity="1" fill-rule="evenodd" stroke="url(#radialGradient11460)" stroke-dasharray="none" stroke-miterlimit="4" stroke-opacity="1" stroke-width="5.333" d="m 222,188 a 16,16 0 1 1 -32,0 16,16 0 1 1 32,0 z" display="inline" enable-background="accumulate" opacity=".66" overflow="visible" transform="matrix(0.1875,0,0,0.1875,290.875,44.25)" visibility="visible" style="marker:none"/><g id="g9560" opacity=".25"><path id="path9552" fill="none" stroke="#fff" stroke-dasharray="none" stroke-miterlimit="4" stroke-opacity="1" stroke-width="1" d="m 308.53125,76.46875 -1.96875,1.96875 0,3.0625 16,0 0,-5.03125 -14.03125,0 z" display="inline" enable-background="accumulate" opacity=".136" overflow="visible" transform="translate(0,1)" visibility="visible" style="marker:none"/><path id="path9520" fill="none" stroke="url(#radialGradient9554)" stroke-dasharray="none" stroke-miterlimit="4" stroke-opacity="1" stroke-width="1" d="m 306.55289,78.432509 0,3.071495 16.02039,0 0,-5.038136 -14.05375,2e-6 -1.96664,1.966639 0,0" display="inline" enable-background="accumulate" opacity=".51" overflow="visible" visibility="visible" style="marker:none"/></g></g></g></svg>