<svg xmlns="http://www.w3.org/2000/svg" xmlns:svg="http://www.w3.org/2000/svg" xmlns:xlink="http://www.w3.org/1999/xlink" id="svg11300" width="48" height="48" version="1.0"><metadata id="metadata99"/><defs id="defs3"><linearGradient id="linearGradient4251"><stop id="stop4253" offset="0" stop-color="#000" stop-opacity="1"/><stop id="stop4255" offset="1" stop-color="#000" stop-opacity="0"/></linearGradient><linearGradient id="linearGradient3924-0-9"><stop id="stop3926-6-0" offset="0" stop-color="#fff" stop-opacity="1"/><stop id="stop3928-3-5" offset=".063" stop-color="#fff" stop-opacity=".235"/><stop id="stop3930-2-1" offset=".951" stop-color="#fff" stop-opacity=".157"/><stop id="stop3932-62-5" offset="1" stop-color="#fff" stop-opacity=".392"/></linearGradient><linearGradient id="linearGradient3924-0"><stop id="stop3926-6" offset="0" stop-color="#fff" stop-opacity="1"/><stop id="stop3928-3" offset=".063" stop-color="#fff" stop-opacity=".235"/><stop id="stop3930-2" offset=".951" stop-color="#fff" stop-opacity=".157"/><stop id="stop3932-62" offset="1" stop-color="#fff" stop-opacity=".392"/></linearGradient><linearGradient id="linearGradient2867-449-88-871-390-598-476-591-434-148-57-177-8-3-3-6-4-8-8-8-5-9-4"><stop id="stop3750-1-0-7-6-6-1-3-9-3-3-3" offset="0" stop-color="#505050" stop-opacity="1"/><stop id="stop3752-3-7-4-0-32-8-923-0-7-1-1" offset=".262" stop-color="#2b2b2b" stop-opacity="1"/><stop id="stop3754-1-8-5-2-7-6-7-1-9-8-6" offset=".705" stop-color="#0a0a0a" stop-opacity="1"/><stop id="stop3756-1-6-2-6-6-1-96-6-0-0-6" offset="1" stop-color="#000" stop-opacity="1"/></linearGradient><linearGradient id="linearGradient3688-166-749-6"><stop id="stop2883-8" offset="0" stop-color="#181818" stop-opacity="1"/><stop id="stop2885-3" offset="1" stop-color="#181818" stop-opacity="0"/></linearGradient><linearGradient id="linearGradient3688-464-309-7"><stop id="stop2889-0" offset="0" stop-color="#181818" stop-opacity="1"/><stop id="stop2891-66" offset="1" stop-color="#181818" stop-opacity="0"/></linearGradient><linearGradient id="linearGradient3702-501-757-3"><stop id="stop2895-3" offset="0" stop-color="#181818" stop-opacity="0"/><stop id="stop2897-28" offset=".5" stop-color="#181818" stop-opacity="1"/><stop id="stop2899-8" offset="1" stop-color="#181818" stop-opacity="0"/></linearGradient><radialGradient id="radialGradient3339" cx="1120.375" cy="394.781" r="20.625" fx="1120.375" fy="394.781" gradientTransform="matrix(1.0181815,0,0,0.14545458,-1116.4951,-12.422309)" gradientUnits="userSpaceOnUse" xlink:href="#linearGradient10997"/><linearGradient id="linearGradient10997"><stop id="stop10999" offset="0" stop-color="#000" stop-opacity="1"/><stop id="stop11001" offset="1" stop-color="#000" stop-opacity="0"/></linearGradient><linearGradient id="linearGradient3480" x1=".612" x2="5.086" y1="372.578" y2="372.578" gradientTransform="matrix(9.3885424,0,0,0.2235366,29.130395,-51.784906)" gradientUnits="userSpaceOnUse" xlink:href="#linearGradient272-6"/><linearGradient id="linearGradient272-6"><stop id="stop273-1" offset="0" stop-color="#474747" stop-opacity="0"/><stop id="stop275-8" offset=".1" stop-color="#474747" stop-opacity="1"/><stop id="stop276-3" offset=".9" stop-color="#474747" stop-opacity="1"/><stop id="stop274-5" offset="1" stop-color="#474747" stop-opacity="0"/></linearGradient><linearGradient id="linearGradient3482" x1=".612" x2="5.086" y1="372.578" y2="372.578" gradientTransform="matrix(9.3885418,0,0,0.2235361,29.130383,-45.865211)" gradientUnits="userSpaceOnUse" xlink:href="#linearGradient272-6"/><linearGradient id="linearGradient3484" x1="1.642" x2="15.343" y1="117.827" y2="117.827" gradientTransform="matrix(3.1119049,0,0,0.09123576,28.948795,19.750004)" gradientUnits="userSpaceOnUse" xlink:href="#linearGradient178-9"/><linearGradient id="linearGradient178-9"><stop id="stop179-9" offset="0" stop-color="#fff" stop-opacity="0"/><stop id="stop180-2" offset=".108" stop-color="#d9d9d9" stop-opacity="1"/><stop id="stop181-7" offset=".921" stop-color="#d9d9d9" stop-opacity="1"/><stop id="stop182-0" offset="1" stop-color="#fff" stop-opacity="0"/></linearGradient><linearGradient id="linearGradient3331" x1="23.1" x2="23.144" y1="38.297" y2="46.038" gradientTransform="matrix(0.7312763,0,0,0.6969978,7.1179686,14.1222)" gradientUnits="userSpaceOnUse" xlink:href="#linearGradient9347"/><linearGradient id="linearGradient9347"><stop id="stop9349" offset="0" stop-color="#7a7a7a" stop-opacity="1"/><stop id="stop9351" offset=".198" stop-color="#ebebeb" stop-opacity="1"/><stop id="stop9353" offset=".599" stop-color="#b9b9b9" stop-opacity="1"/><stop id="stop9355" offset="1" stop-color="#878787" stop-opacity="1"/></linearGradient><linearGradient id="linearGradient6189" x1="17" x2="17" y1="14" y2="10" gradientTransform="matrix(1,0,0,1.3333333,3.0847461,1.666667)" gradientUnits="userSpaceOnUse" xlink:href="#linearGradient4251"/><linearGradient id="linearGradient6192" x1="24" x2="24" y1="11.667" y2="36.333" gradientTransform="matrix(0.72972973,0,0,0.08108108,1.5712301,16.054054)" gradientUnits="userSpaceOnUse" xlink:href="#linearGradient3924-0-9"/><linearGradient id="linearGradient6199" x1="24" x2="24" y1="5" y2="43" gradientTransform="matrix(0.72972973,0,0,0.29729729,1.5712301,19.864869)" gradientUnits="userSpaceOnUse" xlink:href="#linearGradient3924-0"/><radialGradient id="radialGradient6202" cx="6.584" cy="9.041" r="12.672" fx="6.584" fy="9.041" gradientTransform="matrix(0,5.8591313,-8.3440444,0,102.44017,-38.574628)" gradientUnits="userSpaceOnUse" xlink:href="#linearGradient2867-449-88-871-390-598-476-591-434-148-57-177-8-3-3-6-4-8-8-8-5-9-4"/><linearGradient id="linearGradient6205" x1="25.058" x2="25.058" y1="47.028" y2="39.999" gradientTransform="matrix(0.84210526,0,0,0.42857134,-1.1257809,16.857146)" gradientUnits="userSpaceOnUse" xlink:href="#linearGradient3702-501-757-3"/><radialGradient id="radialGradient6208" cx="4.993" cy="43.5" r="2.5" fx="4.993" fy="43.5" gradientTransform="matrix(-1.687397,0,0,-0.59999988,15.72632,61.599994)" gradientUnits="userSpaceOnUse" xlink:href="#linearGradient3688-464-309-7"/><radialGradient id="radialGradient6211" cx="3.003" cy="43.788" r="2.5" fx="3.003" fy="43.788" gradientTransform="matrix(1.899529,0,0,0.59999988,36.206774,9.329547)" gradientUnits="userSpaceOnUse" xlink:href="#linearGradient3688-166-749-6"/><linearGradient id="linearGradient3739" x1="17" x2="17" y1="14" y2="10" gradientTransform="matrix(1.3,0,0,1.6666666,3.1999979,-2.6666666)" gradientUnits="userSpaceOnUse" xlink:href="#linearGradient4251-1"/><linearGradient id="linearGradient4251-1"><stop id="stop4253-8" offset="0" stop-color="#000" stop-opacity="1"/><stop id="stop4255-2" offset="1" stop-color="#000" stop-opacity="0"/></linearGradient><linearGradient id="linearGradient3743" x1="24" x2="24" y1="5.564" y2="43" gradientTransform="matrix(0.62162161,0,0,1.042471,9.0810839,1.7664205)" gradientUnits="userSpaceOnUse" xlink:href="#linearGradient3977-6"/><linearGradient id="linearGradient3977-6"><stop id="stop3979-5" offset="0" stop-color="#fff" stop-opacity="1"/><stop id="stop3981-9" offset=".036" stop-color="#fff" stop-opacity=".235"/><stop id="stop3983-2" offset=".951" stop-color="#fff" stop-opacity=".157"/><stop id="stop3985-4" offset="1" stop-color="#fff" stop-opacity=".392"/></linearGradient><linearGradient id="linearGradient3600-4-3"><stop id="stop3602-7-9" offset="0" stop-color="#f4f4f4" stop-opacity="1"/><stop id="stop3604-6-6" offset="1" stop-color="#dbdbdb" stop-opacity="1"/></linearGradient><linearGradient id="linearGradient3168" x1="25.132" x2="25.132" y1=".985" y2="62.706" gradientTransform="matrix(0.68571268,0,0,0.19108172,7.5428939,6.5179601)" gradientUnits="userSpaceOnUse" xlink:href="#linearGradient3600-4-3"/></defs><g id="g3486" transform="translate(-0.1249999,-0.99990691)"><rect id="rect8955" width="3" height="5" x="22.75" y="35.501" fill="#d9d9d9" fill-opacity="1" stroke="#828282" stroke-dasharray="none" stroke-miterlimit="4" stroke-opacity="1" stroke-width="1"/><path id="path6774" fill="url(#radialGradient3339)" fill-opacity="1" fill-rule="evenodd" stroke="none" d="m 45.24996,45.000414 a 20.999994,3 0 0 1 -41.9999874,0 20.999994,3.0000005 0 1 1 41.9999874,0 z" display="inline" enable-background="new" opacity=".3"/><g id="g7753" display="inline" transform="translate(-31.627102,12.999991)"><rect id="rect8601" width="42" height="1" x="34.877" y="31" fill="url(#linearGradient3480)" fill-opacity="1" fill-rule="nonzero" stroke="none" stroke-width="1" display="block" opacity=".65" overflow="visible" visibility="visible" style="marker:none"/><rect id="rect8603" width="42" height="1" x="34.877" y="29" fill="url(#linearGradient3482)" fill-opacity="1" fill-rule="nonzero" stroke="none" stroke-width="1" display="block" opacity=".65" overflow="visible" visibility="visible" style="marker:none"/><rect id="rect8605" width="41.5" height="1" x="34.627" y="30" fill="url(#linearGradient3484)" fill-opacity="1" fill-rule="nonzero" stroke="none" stroke-width="1" display="block" overflow="visible" visibility="visible" style="marker:none"/></g><path id="path8607" fill="url(#linearGradient3331)" fill-opacity="1" fill-rule="nonzero" stroke="#5a5c58" stroke-dasharray="none" stroke-dashoffset="0" stroke-linecap="butt" stroke-linejoin="miter" stroke-miterlimit="4" stroke-opacity="1" stroke-width="1" d="m 22.028715,40.500491 -3.233398,0 c -0.582372,0 -1.045288,0.42704 -1.045288,0.964275 l 0,4.071083 c 0,0.53723 0.462916,0.964574 1.045288,0.964574 l 10.909354,0 c 0.582367,0 1.04529,-0.427345 1.04529,-0.964574 l 0,-4.071083 c 0,-0.537235 -0.462923,-0.964275 -1.04529,-0.964275 l -2.821165,0 -4.854791,0 z" display="block" enable-background="new" overflow="visible" visibility="visible" style="marker:none"/><rect id="rect8615" width="8" height="1.5" x="21.25" y="41.25" fill="#fff" fill-opacity=".72" fill-rule="nonzero" stroke="none" stroke-width="1.14" display="block" enable-background="new" overflow="visible" rx=".5" ry=".5" visibility="visible" style="marker:none"/><path id="path8617" fill="#fff" fill-opacity=".72" fill-rule="nonzero" stroke="none" stroke-width="1.14" d="m 20.499998,42.000458 a 0.75,0.75 0 0 1 -1.5,0 0.75,0.75 0 1 1 1.5,0 z" display="block" enable-background="new" overflow="visible" visibility="visible" style="marker:none"/></g><path id="rect2801-0" fill="url(#radialGradient6211)" fill-opacity="1" stroke="none" d="m 41.874219,34 4.210526,0 0,2.999999 -4.210526,0 z" opacity=".4"/><path id="rect3696-2" fill="url(#radialGradient6208)" fill-opacity="1" stroke="none" d="m 7.2952717,36.999999 -4.2105263,0 0,-2.999999 4.2105263,0 z" opacity=".4"/><path id="rect3700-1" fill="url(#linearGradient6205)" fill-opacity="1" stroke="none" d="m 7.2952717,34 34.5721453,0 0,2.999999 -34.5721453,0 z" opacity=".4"/><path id="rect5505-21" fill="url(#radialGradient6202)" fill-opacity="1" fill-rule="nonzero" stroke="none" stroke-width="1" d="m 6.5847466,15.5 c 9.0000014,0 27.0000004,0 36.0000004,0 1.297092,0 2.000002,3.324604 2.000002,5 0,4.178255 0,9.822113 0,14.000368 0.0103,0.964169 -1.03366,1.068845 -1.76274,1 -8.745754,0 -28.491508,0 -37.2372634,0 -0.9641695,0.01033 -1.0688455,-1.033653 -1.0000005,-1.762737 l 0,-13.237631 c 0,0 0.474654,-5 2.0000015,-5 z" color="#000" display="inline" enable-background="accumulate" opacity=".9" overflow="visible" visibility="visible" style="marker:none"/><path id="rect6741-7-4" fill="none" stroke="url(#linearGradient6199)" stroke-dashoffset="0" stroke-linecap="round" stroke-linejoin="round" stroke-miterlimit="4" stroke-opacity="1" stroke-width="1" d="m 5.5847464,21.5 37.9999996,0 0,13 -37.9999996,0 z" opacity=".25"/><path id="rect5505-6" fill="none" stroke="#000" stroke-dasharray="none" stroke-dashoffset="0" stroke-linecap="round" stroke-linejoin="round" stroke-miterlimit="4" stroke-opacity="1" stroke-width="1" d="m 6.5847466,15.5 c 0,0 27.0000004,0 36.0000004,0 1.449292,0 2.000002,5 2.000002,5 0,0 0,9.701952 0,13.99961 0.008,0.980409 -1.05735,1.065948 -1.793224,1 -8.735593,0 -28.471186,0 -37.2067794,0 -0.9804095,0.0082 -1.0659485,-1.057345 -1.0000005,-1.793221 l 0,-13.206389 c 0,0 0.526914,-5 2.0000015,-5 z" color="#000" display="inline" enable-background="accumulate" opacity=".7" overflow="visible" visibility="visible" style="marker:none"/><path id="rect3957" fill="#000" fill-opacity="1" fill-rule="nonzero" stroke="none" stroke-width="1" d="m 5.0847464,21 38.9999996,0 0,-1 -38.9999996,0 z" color="#000" display="inline" enable-background="accumulate" opacity=".4" overflow="visible" visibility="visible" style="marker:none"/><path d="m 40.584749,23 2,0 0,2 -2,0 z" style="marker:none" id="rect3991" fill="#0cceff" fill-opacity="1" fill-rule="nonzero" stroke="none" stroke-width="1" color="#000" display="inline" enable-background="accumulate" overflow="visible" visibility="visible"/><path id="rect6741-7-4-2" fill="none" stroke="url(#linearGradient6192)" stroke-dasharray="none" stroke-dashoffset="0" stroke-linecap="round" stroke-linejoin="round" stroke-miterlimit="4" stroke-opacity="1" stroke-width="1" d="m 7.0847466,16.499998 35.0000004,0 c 0.835818,0 1.500002,3 1.500002,3 -9.000003,0 -38.0000034,0 -38.0000034,0 0,0 0.579915,-3 1.500001,-3 z" opacity=".1"/><path id="rect4249" fill="url(#linearGradient6189)" fill-opacity="1" fill-rule="nonzero" stroke="none" stroke-width="1" d="m 9.0847464,15 30.9999996,0 0,4 -30.9999996,0 z" color="#000" display="inline" enable-background="accumulate" opacity=".3" overflow="visible" visibility="visible" style="marker:none"/><rect id="rect4375" width="26" height="1" x="11" y="29" fill="#000" fill-opacity="1" stroke="none" opacity=".5"/><path id="path4160-3-8" fill="url(#linearGradient3168)" fill-opacity="1" stroke="none" d="m 12,6.9999998 c 5.499618,0 23.99997,5.61e-4 23.99997,5.61e-4 L 36,18.5 c 0,0 -16.000001,0 -24,0 0,-2.931373 0,-8.5686272 0,-11.5000002 z" display="inline"/><path id="rect6741-1-8" fill="none" stroke="url(#linearGradient3743)" stroke-dasharray="none" stroke-dashoffset="0" stroke-linecap="round" stroke-linejoin="round" stroke-miterlimit="4" stroke-opacity="1" stroke-width="1" d="m 35.499999,17.5 -23,0 0,-10.0000002 23,0 z"/><path id="path4160-3-4-7" fill="none" stroke="#000" stroke-dasharray="none" stroke-dashoffset="0" stroke-linecap="butt" stroke-linejoin="round" stroke-miterlimit="4" stroke-opacity="1" stroke-width="1" d="m 11.499961,6.4999399 25.000048,0.0026 3e-5,11.9974991 -25.000078,0 z" display="inline" opacity=".3"/><rect id="rect4249-5" width="26" height="5" x="11" y="14" fill="url(#linearGradient3739)" fill-opacity="1" fill-rule="nonzero" stroke="none" stroke-width="1" color="#000" display="inline" enable-background="accumulate" opacity=".3" overflow="visible" visibility="visible" style="marker:none"/></svg>