<svg xmlns="http://www.w3.org/2000/svg" xmlns:svg="http://www.w3.org/2000/svg" id="svg10" width="48" height="48" version="1.1"><metadata id="metadata16"/><path id="path2" fill="#666" d="m 32.125,8.0069998 c 0.72,0.094 1.875,0.5 1.875,2.0000002 v 4 c 0,0 2,0 2,2 v 6 h 2 c 0,0 2,0 2,2 v 11 c 0,1 -1,1 -1,1 h -1 c 0,2 -2,2 -2,2 0,0 0,2 -2,2 H 14 c -2,0 -2,-2 -2,-2 0,0 -2,0 -2,-2 H 9 c -1,0 -1,-0.838 -1,-1 v -11 c 0,-2 2,-2 2,-2 h 2 v -6 c 0,-2 2,-2 2,-2 v -4 c 0,-2.0000002 2,-2.0000002 2.375,-2.0000002 h 15.25 c 0.094,0 0.26,-0.031 0.5,0 z M 32,10.007 H 16 v 12 h 16 z m 4.875,14 c -0.123,-0.018 -0.187,0 -0.187,0 H 11.313 c 0,0 -1.313,0 -1.313,1.125 v 8.875 H 38 V 25.132 C 38,24.288 37.244,24.06 36.875,24.007 Z M 34,36.007 H 14 v 2 h 20 z" color="#000" font-family="Sans" font-weight="400" overflow="visible" text-decoration="none" style="line-height:normal;-inkscape-font-specification:Sans;text-indent:0;text-align:start;text-decoration-line:none;text-transform:none;marker:none"/><path id="path4" fill="#666" d="m 34,24.007 v 8 H 14 v -8 z" opacity=".5"/></svg>