<svg xmlns="http://www.w3.org/2000/svg" xmlns:svg="http://www.w3.org/2000/svg" xmlns:xlink="http://www.w3.org/1999/xlink" id="svg7087" width="48" height="48" version="1.1"><defs id="defs7089"><linearGradient id="linearGradient6307"><stop id="stop6309" offset="0" stop-color="#c00" stop-opacity="1"/><stop id="stop6311" offset="1" stop-color="#c00" stop-opacity="0"/></linearGradient><linearGradient id="linearGradient6430" x1="33" x2="33" y1="1045.362" y2="991.362" gradientTransform="matrix(0.55555558,0,0,0.58490571,5.6666659,-572.64569)" gradientUnits="userSpaceOnUse" xlink:href="#linearGradient6420"/><linearGradient id="linearGradient6420"><stop id="stop6422" offset="0" stop-color="#000" stop-opacity="1"/><stop id="stop6424" offset="1" stop-color="#000" stop-opacity="0"/></linearGradient><linearGradient id="linearGradient4939" x1="16.806" x2="16.806" y1="20.62" y2="42.728" gradientTransform="matrix(1.2484283,0,0,1.6645713,3.6183622,-30.22389)" gradientUnits="userSpaceOnUse" xlink:href="#linearGradient6420"/><linearGradient id="linearGradient4035"><stop id="stop4037" offset="0" stop-color="#fff" stop-opacity="1"/><stop id="stop4039" offset=".056" stop-color="#fff" stop-opacity=".235"/><stop id="stop4041" offset=".944" stop-color="#fff" stop-opacity=".157"/><stop id="stop4043" offset="1" stop-color="#fff" stop-opacity=".392"/></linearGradient><radialGradient id="radialGradient5299" cx="7.118" cy="9.957" r="12.672" fx="7.118" fy="9.957" gradientTransform="matrix(0,8.9058797,-8.3440446,0,107.70052,-77.74932)" gradientUnits="userSpaceOnUse" xlink:href="#linearGradient2867-449-88-871-390-598-476-591-434-148-57-177-8-3-3-6-4-8-8-8-5-7"/><linearGradient id="linearGradient2867-449-88-871-390-598-476-591-434-148-57-177-8-3-3-6-4-8-8-8-5-7"><stop id="stop3750-1-0-7-6-6-1-3-9-3-9" offset="0" stop-color="#505050" stop-opacity="1"/><stop id="stop3752-3-7-4-0-32-8-923-0-7-0" offset=".262" stop-color="#2b2b2b" stop-opacity="1"/><stop id="stop3754-1-8-5-2-7-6-7-1-9-1" offset=".705" stop-color="#0a0a0a" stop-opacity="1"/><stop id="stop3756-1-6-2-6-6-1-96-6-0-1" offset="1" stop-color="#000" stop-opacity="1"/></linearGradient><linearGradient id="linearGradient4610" x1="16.806" x2="16.806" y1="20.62" y2="42.728" gradientTransform="matrix(1.5258568,0,0,1.9419998,-0.91089018,-39.01122)" gradientUnits="userSpaceOnUse" xlink:href="#linearGradient4035"/><linearGradient id="linearGradient6426" x1="33" x2="33" y1="1045.362" y2="991.362" gradientTransform="matrix(0.68888889,0,0,0.75471665,1.2666663,-746.07487)" gradientUnits="userSpaceOnUse" xlink:href="#linearGradient4035"/><linearGradient id="linearGradient4899" x1="33" x2="33" y1="988.362" y2="1048.362" gradientTransform="matrix(0.68627451,0,0,0.74576271,1.3529409,-736.95648)" gradientUnits="userSpaceOnUse" xlink:href="#linearGradient3994-617-9-9"/><linearGradient id="linearGradient3994-617-9-9"><stop id="stop4324-9-7" offset="0" stop-color="#f0f0f0" stop-opacity="1"/><stop id="stop2860-4-4" offset=".086" stop-color="#d7d7d8" stop-opacity="1"/><stop id="stop2862-5-9" offset=".922" stop-color="#b2b2b3" stop-opacity="1"/><stop id="stop4326-1-1" offset="1" stop-color="#979798" stop-opacity="1"/></linearGradient><linearGradient id="linearGradient3688-166-749-654"><stop id="stop3088" offset="0" stop-color="#181818" stop-opacity="1"/><stop id="stop3090" offset="1" stop-color="#181818" stop-opacity="0"/></linearGradient><linearGradient id="linearGradient3688-464-309-604"><stop id="stop3094" offset="0" stop-color="#181818" stop-opacity="1"/><stop id="stop3096" offset="1" stop-color="#181818" stop-opacity="0"/></linearGradient><linearGradient id="linearGradient3702-501-757-795"><stop id="stop3100" offset="0" stop-color="#181818" stop-opacity="0"/><stop id="stop3102" offset=".5" stop-color="#181818" stop-opacity="1"/><stop id="stop3104" offset="1" stop-color="#181818" stop-opacity="0"/></linearGradient><linearGradient id="linearGradient10158" x1="25.058" x2="25.058" y1="47.028" y2="39.999" gradientTransform="matrix(1.0714286,0,0,0.57142849,-1.7857052,1023.5051)" gradientUnits="userSpaceOnUse" xlink:href="#linearGradient3702-501-757-795"/><radialGradient id="radialGradient10161" cx="4.993" cy="43.5" r="2.5" fx="4.993" fy="43.5" gradientTransform="matrix(1.9774219,0,0,0.79999996,-18.814371,-1083.1623)" gradientUnits="userSpaceOnUse" xlink:href="#linearGradient3688-464-309-604"/><radialGradient id="radialGradient10164" cx="4.996" cy="43.5" r="2.5" fx="4.996" fy="43.5" gradientTransform="matrix(2.0037839,2.1079247e-7,-5.1366217e-8,0.80000616,28.988131,1013.562)" gradientUnits="userSpaceOnUse" xlink:href="#linearGradient3688-166-749-654"/><linearGradient id="linearGradient3600-4"><stop id="stop3602-7" offset="0" stop-color="#f4f4f4" stop-opacity="1"/><stop id="stop3604-6" offset="1" stop-color="#dbdbdb" stop-opacity="1"/></linearGradient><linearGradient id="linearGradient3977"><stop id="stop3979" offset="0" stop-color="#fff" stop-opacity="1"/><stop id="stop3981" offset=".036" stop-color="#fff" stop-opacity=".235"/><stop id="stop3983" offset=".951" stop-color="#fff" stop-opacity=".157"/><stop id="stop3985" offset="1" stop-color="#fff" stop-opacity=".392"/></linearGradient><linearGradient id="linearGradient3104-5-8"><stop id="stop3106-2-4" offset="0" stop-color="#aaa" stop-opacity="1"/><stop id="stop3108-5-5" offset="1" stop-color="#c8c8c8" stop-opacity="1"/></linearGradient><linearGradient id="linearGradient11036" x1="22.004" x2="22.004" y1="47.813" y2="3.364" gradientTransform="matrix(0.66858377,0,0,0.67036989,7.3203809,4.6917)" gradientUnits="userSpaceOnUse" xlink:href="#linearGradient3104-5-8"/><linearGradient id="linearGradient11040" x1="24" x2="24" y1="5.564" y2="43" gradientTransform="matrix(0.56756757,0,0,0.75675671,10.378382,4.3396)" gradientUnits="userSpaceOnUse" xlink:href="#linearGradient3977"/><linearGradient id="linearGradient11043" x1="25.132" x2="25.132" y1=".985" y2="47.013" gradientTransform="matrix(0.62856997,0,0,0.63012397,8.9143197,6.4122)" gradientUnits="userSpaceOnUse" xlink:href="#linearGradient3600-4"/><linearGradient id="linearGradient11058" x1="32" x2="32" y1="1017.87" y2="1015.362" gradientTransform="matrix(0.68181818,0,0,1.399999,1.4999997,-398.14376)" gradientUnits="userSpaceOnUse" spreadMethod="reflect" xlink:href="#linearGradient6307"/></defs><metadata id="metadata7092"/><g id="g10676" transform="translate(0,-1004.3622)"><rect id="rect2801" width="5" height="4" x="39" y="1046.362" fill="url(#radialGradient10164)" fill-opacity="1" stroke="none" opacity=".4"/><rect id="rect3696" width="5" height="4" x="-9" y="-1050.362" fill="url(#radialGradient10161)" fill-opacity="1" stroke="none" opacity=".4" transform="scale(-1)"/><rect id="rect3700" width="30" height="4" x="9" y="1046.362" fill="url(#linearGradient10158)" fill-opacity="1" stroke="none" opacity=".4"/></g><rect id="rect4897" width="35" height="44" x="6.5" y=".5" fill="url(#linearGradient4899)" stroke="none" rx="1.5" ry="1.5"/><rect id="rect6410" width="31" height="40" x="8.5" y="2.5" fill="none" stroke="url(#linearGradient6426)" stroke-opacity="1" stroke-width="1" opacity=".35" rx="1" ry="1"/><rect id="rect3993" width="35" height="44" x="6.5" y=".5" fill="none" stroke="#000" stroke-opacity="1" stroke-width="1" opacity=".4" rx="1.5" ry="1.5"/><rect id="rect6741-5-0-2-3" width="33" height="42" x="7.5" y="1.5" fill="none" stroke="url(#linearGradient4610)" stroke-dasharray="none" stroke-dashoffset="0" stroke-linecap="round" stroke-linejoin="round" stroke-miterlimit="4" stroke-opacity="1" stroke-width="1" rx=".5" ry=".5"/><rect id="rect5505-21-3-8-5-2" width="29" height="38" x="9.5" y="3.5" fill="url(#radialGradient5299)" fill-opacity="1" fill-rule="nonzero" stroke="none" stroke-width="1" color="#000" display="inline" enable-background="accumulate" opacity=".9" overflow="visible" visibility="visible" style="marker:none"/><rect id="rect4937" width="27" height="36" x="10.5" y="4.5" fill="none" stroke="url(#linearGradient4939)" stroke-dasharray="none" stroke-dashoffset="0" stroke-linecap="round" stroke-linejoin="miter" stroke-miterlimit="4" stroke-opacity="1" stroke-width="1" opacity=".1"/><rect id="rect6428" width="25" height="31" x="11.5" y="7.5" fill="none" stroke="url(#linearGradient6430)" stroke-opacity="1" stroke-width="1" opacity=".15" rx="1" ry="1"/><path id="path4160-3" fill="url(#linearGradient11043)" fill-opacity="1" stroke="none" d="m 13,8.0018 c 5.041316,0 21.999973,0 21.999973,0 L 35,37 c 0,0 -14.666666,0 -22,0 0,-9.6667 0,-19.3333 0,-29 z" display="inline"/><path id="rect6741-1-8" fill="none" stroke="url(#linearGradient11040)" stroke-dasharray="none" stroke-dashoffset="0" stroke-linecap="round" stroke-linejoin="round" stroke-miterlimit="4" stroke-opacity="1" stroke-width="1" d="m 34.5,36.5018 h -21 v -28 h 21 z"/><path id="path4160-3-4" fill="none" stroke="#000" stroke-dasharray="none" stroke-dashoffset="0" stroke-linecap="butt" stroke-linejoin="round" stroke-miterlimit="4" stroke-opacity="1" stroke-width="1" d="m 12.499961,7.5018 c 5.270482,0 23.000037,0 23.000037,0 l 2.8e-5,29.9982 c 0,0 -15.333376,0 -23.000065,0 0,-10 0,-20 0,-30 z" display="inline" opacity=".3"/><path id="path3475-0" fill="none" stroke="url(#linearGradient11036)" stroke-linecap="butt" stroke-linejoin="miter" stroke-opacity="1" stroke-width="1" d="m 16,12.5677 h 1.566993 z m 1.796819,0 h 1.462527 z m 1.692353,0 h 1.295381 z m 1.504313,0 h 0.564117 z m 0.793943,0 h 1.253595 z m 1.504313,0 h 3.301133 z m 3.510065,0 h 2.528083 z m 2.737015,0 h 0.77305 z M 16,14.4895 h 2.06843 z m 2.277364,0 h 3.384705 z m 3.593637,0 h 1.650566 z m 1.859499,0 h 1.546099 z m 1.755032,0 h 1.316274 z m 1.525206,0 2.068432,0.021 z m 2.25647,0.021 h 3.363813 z M 16,16.5 h 2.862374 z m 3.0922,0 h 3.0922 z m 3.301132,0 h 1.232701 z m 1.441634,0 h 2.904161 z m 3.092199,0 h 1.984859 z m 2.214684,0 h 0.793944 z m 1.002876,0 h 0.438758 z m 0.668584,0 H 32.04601 Z M 16,18.5 h 1.065556 z m 1.399847,0 H 21.34867 Z M 16,21.5 h 2.632548 z m 2.841481,0 h 2.820588 z m 3.02952,0 h 1.086449 z m 1.295381,0 h 2.653442 z m 2.862374,0 h 3.342919 z m 3.572745,0 h 1.232701 z M 16,23.5 h 2.862374 z m 3.0922,0 h 3.0922 z m 3.301132,0 h 1.232701 z m 1.441634,0 h 2.904161 z m 3.092199,0 h 1.984859 z m 2.214684,0 h 0.793944 z m 1.002876,0 h 0.438758 z m 0.668584,0 H 32.04601 Z M 16,25.5 h 2.44451 z m 2.716122,0 h 1.170021 z m 1.378954,0 h 0.58501 z m 0.814836,0 h 1.065555 z m 1.295381,0 h 1.086448 z m 1.295381,0 h 1.734139 z m 1.963965,0 h 2.25647 z m 2.465402,0 h 1.504314 z m 1.713247,0 h 0.376078 z M 16,28.4895 h 2.06843 z m 2.277364,0 h 3.384705 z m 3.593637,0 h 1.650566 z m 1.859499,0 h 1.546099 z m 1.755032,0 h 1.316274 z m 1.525206,0 2.068432,0.021 z m 2.25647,0.021 h 3.363813 z M 16,30.5 h 2.590762 z m 2.820588,0 h 0.814836 z m 1.023769,0 h 1.859499 z m 2.06843,0 h 2.737016 z m 2.966842,0 h 1.859498 z m 2.047536,0 h 0.396972 z m 0.605905,0 h 2.360936 z m 2.611655,0 h 1.232702 z M 16,32.5 h 2.590762 z m 2.820588,0 h 1.170021 z m 1.378953,0 h 1.838606 z m 2.047538,0 h 1.984858 z m 2.214684,0 h 0.793943 z m 1.002876,0 h 0.438758 z m 0.668584,0 h 1.232701 z"/><g id="g11054" transform="translate(0,-997.36212)"><rect id="rect5537" width="30" height="7" x="9" y="1023.362" fill="url(#linearGradient11058)" fill-opacity="1" stroke="none" opacity=".8"/><rect id="rect3099" width="30" height="1" x="9" y="1026.362" fill="#fff" fill-opacity="1" stroke="none" opacity=".8"/></g><rect id="rect4935" width="29" height="38" x="9.5" y="3.5" fill="none" stroke="#000" stroke-linejoin="round" stroke-opacity="1" stroke-width="1" opacity=".5"/></svg>