<svg xmlns="http://www.w3.org/2000/svg" xmlns:svg="http://www.w3.org/2000/svg" xmlns:xlink="http://www.w3.org/1999/xlink" id="svg3844" width="64" height="64" version="1.1"><defs id="defs3846"><linearGradient id="linearGradient3033" x1="-51.786" x2="-51.786" y1="50.786" y2="2.906" gradientTransform="matrix(1.0843523,0,0,1.1997367,79.550862,-4.1628601)" gradientUnits="userSpaceOnUse" xlink:href="#linearGradient3104-6"/><linearGradient id="linearGradient3104-6"><stop id="stop3106-3" offset="0" stop-color="#000" stop-opacity=".318"/><stop id="stop3108-9" offset="1" stop-color="#000" stop-opacity=".24"/></linearGradient><linearGradient id="linearGradient3093" x1="24" x2="24" y1="5.864" y2="42.1" gradientTransform="matrix(1.2162162,0,0,1.5405376,2.8108184,-6.9729501)" gradientUnits="userSpaceOnUse" xlink:href="#linearGradient3977-4"/><linearGradient id="linearGradient3977-4"><stop id="stop3979-7" offset="0" stop-color="#fff" stop-opacity="1"/><stop id="stop3981-6" offset=".012" stop-color="#fff" stop-opacity=".235"/><stop id="stop3983-5" offset=".988" stop-color="#fff" stop-opacity=".157"/><stop id="stop3985-6" offset="1" stop-color="#fff" stop-opacity=".392"/></linearGradient><linearGradient id="linearGradient3096" x1="25.132" x2="25.132" y1=".985" y2="47.013" gradientTransform="matrix(1.3142827,0,0,1.2602393,0.4572141,-2.1793201)" gradientUnits="userSpaceOnUse" xlink:href="#linearGradient3600-9"/><linearGradient id="linearGradient3600-9"><stop id="stop3602-3" offset="0" stop-color="#f4f4f4" stop-opacity="1"/><stop id="stop3604-7" offset="1" stop-color="#dbdbdb" stop-opacity="1"/></linearGradient><radialGradient id="radialGradient3153" cx="605.714" cy="486.648" r="117.143" fx="605.714" fy="486.648" gradientTransform="matrix(0.03132633,0,0,0.02058823,35.220859,49.45142)" gradientUnits="userSpaceOnUse" xlink:href="#linearGradient5060"/><linearGradient id="linearGradient5060"><stop id="stop5062" offset="0" stop-color="#000" stop-opacity="1"/><stop id="stop5064" offset="1" stop-color="#000" stop-opacity="0"/></linearGradient><radialGradient id="radialGradient3156" cx="605.714" cy="486.648" r="117.143" fx="605.714" fy="486.648" gradientTransform="matrix(-0.03132632,0,0,0.02058823,28.779136,49.45142)" gradientUnits="userSpaceOnUse" xlink:href="#linearGradient5060"/><linearGradient id="linearGradient5048"><stop id="stop5050" offset="0" stop-color="#000" stop-opacity="0"/><stop id="stop5056" offset=".5" stop-color="#000" stop-opacity="1"/><stop id="stop5052" offset="1" stop-color="#000" stop-opacity="0"/></linearGradient><linearGradient id="linearGradient3842" x1="302.857" x2="302.857" y1="366.648" y2="609.505" gradientTransform="matrix(0.09153846,0,0,0.02058823,-1.084616,49.45142)" gradientUnits="userSpaceOnUse" xlink:href="#linearGradient5048"/><radialGradient id="radialGradient3217" cx="7.806" cy="9.957" r="12.672" fx="7.276" fy="9.957" gradientTransform="matrix(-2.1710338e-7,8.8513747,-10.866659,-2.6569444e-7,140.18608,-80.70502)" gradientUnits="userSpaceOnUse" xlink:href="#linearGradient2867-449-88-871-390-598-476-591-434-148-57-177-8-3-3"/><linearGradient id="linearGradient2867-449-88-871-390-598-476-591-434-148-57-177-8-3-3"><stop id="stop3750-1-0-7" offset="0" stop-color="#ffcd7d" stop-opacity="1"/><stop id="stop3752-3-7-4" offset=".262" stop-color="#fc8f36" stop-opacity="1"/><stop id="stop3754-1-8-5" offset=".705" stop-color="#e23a0e" stop-opacity="1"/><stop id="stop3756-1-6-2" offset="1" stop-color="#ac441f" stop-opacity="1"/></linearGradient></defs><metadata id="metadata3849"/><rect id="rect2879" width="44.2" height="5" x="9.9" y="57" fill="url(#linearGradient3842)" fill-opacity="1" fill-rule="nonzero" stroke="none" stroke-width="1" display="inline" opacity=".15" overflow="visible" visibility="visible" style="marker:none"/><path d="m 9.9,57.00022 c 0,0 0,4.9997 0,4.9997 -1.6132281,0.01 -3.9,-1.1202 -3.9,-2.5002 0,-1.38 1.8002408,-2.4995 3.9,-2.4995 z" style="marker:none" id="path2881" fill="url(#radialGradient3156)" fill-opacity="1" fill-rule="nonzero" stroke="none" stroke-width="1" display="inline" opacity=".15" overflow="visible" visibility="visible"/><path d="m 54.099999,57.00022 c 0,0 0,4.9997 0,4.9997 C 55.713227,62.00992 58,60.87972 58,59.49972 c 0,-1.38 -1.800241,-2.4995 -3.900001,-2.4995 z" style="marker:none" id="path2883" fill="url(#radialGradient3153)" fill-opacity="1" fill-rule="nonzero" stroke="none" stroke-width="1" display="inline" opacity=".15" overflow="visible" visibility="visible"/><path id="path4160-6" fill="url(#linearGradient3096)" fill-opacity="1" stroke="none" d="m 9,0.9998799 c 10.540935,0 45.999945,0.004 45.999945,0.004 L 55,59.00002 c 0,0 -30.666666,0 -46,0 0,-19.3334 0,-38.6665 0,-57.9998201 z" display="inline"/><path id="rect6741-1-8" fill="none" stroke="url(#linearGradient3093)" stroke-dasharray="none" stroke-dashoffset="0" stroke-linecap="round" stroke-linejoin="miter" stroke-miterlimit="4" stroke-opacity="1" stroke-width="1" d="m 54.499999,58.50002 -44.9999992,0 0,-57.0000401 44.9999992,0 z"/><path id="path4160-6-1" fill="none" stroke="url(#linearGradient3033)" stroke-dasharray="none" stroke-dashoffset="0" stroke-linecap="butt" stroke-linejoin="round" stroke-miterlimit="4" stroke-opacity="1" stroke-width="1" d="m 8.4999684,0.4998999 c 10.7700936,0 47.0000286,0.004 47.0000286,0.004 l 4.9e-5,58.9962201 c 0,0 -31.333384,0 -47.0000776,0 0,-19.6668 0,-39.3334 0,-58.9999701 z" display="inline"/><path color-rendering="auto" style="line-height:125%;text-align:start;isolation:auto;mix-blend-mode:normal;solid-color:#000;solid-opacity:1;marker:none" id="path4311" fill="url(#radialGradient3217)" fill-opacity="1" fill-rule="nonzero" stroke="none" stroke-dasharray="none" stroke-dashoffset="0" stroke-linecap="butt" stroke-linejoin="miter" stroke-miterlimit="4" stroke-opacity="1" stroke-width="1" d="m 14.126573,51.804007 c 0,-0.613924 0.212037,-1.129329 0.636067,-1.546219 0.424057,-0.424435 0.942759,-0.636664 1.556108,-0.63668 0.598198,1.6e-5 1.105543,0.212245 1.522019,0.63668 0.424042,0.41689 0.636063,0.932295 0.636063,1.546219 0,0.598798 -0.212021,1.110414 -0.636063,1.534852 -0.416476,0.416888 -0.923821,0.625324 -1.522019,0.62531 -0.613349,1.4e-5 -1.132051,-0.208422 -1.556108,-0.62531 -0.42403,-0.416858 -0.636067,-0.928474 -0.636067,-1.534852 M 14,41.945991 l 0,3.631415 c 4.640371,0 8.409351,3.774914 8.409351,8.422594 l 3.644681,0 C 26.054032,47.342511 20.647015,41.945991 14,41.945991 Z M 14.0063,34 l 0,4.014105 c 8.81056,0 15.964296,7.160589 15.964296,15.979599 l 4.029449,0 C 34.000075,42.954079 25.035381,34 14.00633,34 Z" clip-rule="nonzero" color="#000" color-interpolation="sRGB" color-interpolation-filters="linearRGB" display="inline" enable-background="accumulate" font-family="Bitstream Vera Serif" font-size="13.59" font-stretch="normal" font-style="normal" font-variant="normal" font-weight="bold" image-rendering="auto" opacity="1" overflow="visible" shape-rendering="auto" text-anchor="start" text-rendering="auto" visibility="visible" writing-mode="lr-tb"/></svg>