<svg xmlns="http://www.w3.org/2000/svg" xmlns:svg="http://www.w3.org/2000/svg" xmlns:xlink="http://www.w3.org/1999/xlink" id="svg3844" width="64" height="64" version="1.1"><defs id="defs3846"><linearGradient id="linearGradient875"><stop id="stop871" offset="0" stop-color="#64baff" stop-opacity="1"/><stop id="stop873" offset="1" stop-color="#3689e6" stop-opacity="1"/></linearGradient><linearGradient id="linearGradient3033" x1="-51.786" x2="-51.786" y1="50.786" y2="2.906" gradientTransform="matrix(1.0843523,0,0,1.1997367,79.550862,-4.1628601)" gradientUnits="userSpaceOnUse" xlink:href="#linearGradient3104-6"/><linearGradient id="linearGradient3104-6"><stop id="stop3106-3" offset="0" stop-color="#000" stop-opacity=".318"/><stop id="stop3108-9" offset="1" stop-color="#000" stop-opacity=".24"/></linearGradient><linearGradient id="linearGradient3093" x1="24" x2="24" y1="5.864" y2="42.176" gradientTransform="matrix(1.2162162,0,0,1.5405376,2.8108184,-6.9729501)" gradientUnits="userSpaceOnUse" xlink:href="#linearGradient3977-4"/><linearGradient id="linearGradient3977-4"><stop id="stop3979-7" offset="0" stop-color="#fff" stop-opacity="1"/><stop id="stop3981-6" offset="0" stop-color="#fff" stop-opacity=".235"/><stop id="stop3983-5" offset="1" stop-color="#fff" stop-opacity=".157"/><stop id="stop3985-6" offset="1" stop-color="#fff" stop-opacity=".392"/></linearGradient><linearGradient id="linearGradient3096" x1="25.132" x2="25.132" y1=".985" y2="47.013" gradientTransform="matrix(1.3142827,0,0,1.2602393,0.4572141,-2.1793201)" gradientUnits="userSpaceOnUse" xlink:href="#linearGradient3600-9"/><linearGradient id="linearGradient3600-9"><stop id="stop3602-3" offset="0" stop-color="#f4f4f4" stop-opacity="1"/><stop id="stop3604-7" offset="1" stop-color="#dbdbdb" stop-opacity="1"/></linearGradient><radialGradient id="radialGradient3153" cx="605.714" cy="486.648" r="117.143" fx="605.714" fy="486.648" gradientTransform="matrix(0.03132633,0,0,0.02058823,35.220859,49.45142)" gradientUnits="userSpaceOnUse" xlink:href="#linearGradient5060"/><linearGradient id="linearGradient5060"><stop id="stop5062" offset="0" stop-color="#000" stop-opacity="1"/><stop id="stop5064" offset="1" stop-color="#000" stop-opacity="0"/></linearGradient><radialGradient id="radialGradient3156" cx="605.714" cy="486.648" r="117.143" fx="605.714" fy="486.648" gradientTransform="matrix(-0.03132632,0,0,0.02058823,28.779136,49.45142)" gradientUnits="userSpaceOnUse" xlink:href="#linearGradient5060"/><linearGradient id="linearGradient5048"><stop id="stop5050" offset="0" stop-color="#000" stop-opacity="0"/><stop id="stop5056" offset=".5" stop-color="#000" stop-opacity="1"/><stop id="stop5052" offset="1" stop-color="#000" stop-opacity="0"/></linearGradient><linearGradient id="linearGradient3842" x1="302.857" x2="302.857" y1="366.648" y2="609.505" gradientTransform="matrix(0.09153846,0,0,0.02058823,-1.084616,49.45142)" gradientUnits="userSpaceOnUse" xlink:href="#linearGradient5048"/><linearGradient id="linearGradient3030" x1="22.004" x2="22.004" y1="47.813" y2="3.364" gradientTransform="matrix(1.2586111,0,0,1,-13.884583,985.31513)" gradientUnits="userSpaceOnUse" xlink:href="#linearGradient3104-5-3"/><linearGradient id="linearGradient3104-5-3"><stop id="stop3106-2-94" offset="0" stop-color="#aaa" stop-opacity="1"/><stop id="stop3108-5-9" offset="1" stop-color="#c8c8c8" stop-opacity="1"/></linearGradient><linearGradient id="linearGradient3052" x1="22.004" x2="22.004" y1="47.813" y2="3.364" gradientTransform="matrix(1.2586111,0,0,1,-13.884582,985.31513)" gradientUnits="userSpaceOnUse" xlink:href="#linearGradient3104-5-3"/><linearGradient id="linearGradient3066" x1="24" x2="24" y1="5.94" y2="55.274" gradientTransform="matrix(0.89189189,0,0,1.1351351,2.5945996,-4.7431896)" gradientUnits="userSpaceOnUse" xlink:href="#linearGradient3977-6"/><linearGradient id="linearGradient3977-6"><stop id="stop3979-9" offset="0" stop-color="#fff" stop-opacity="1"/><stop id="stop3981-3" offset="0" stop-color="#fff" stop-opacity=".235"/><stop id="stop3983-7" offset=".998" stop-color="#fff" stop-opacity=".157"/><stop id="stop3985-4" offset="1" stop-color="#fff" stop-opacity=".392"/></linearGradient><linearGradient id="linearGradient877" x1="15" x2="15" y1=".5" y2="59.5" gradientUnits="userSpaceOnUse" xlink:href="#linearGradient875"/></defs><metadata id="metadata3849"/><rect id="rect2879" width="44.2" height="5" x="9.9" y="57" fill="url(#linearGradient3842)" fill-opacity="1" fill-rule="nonzero" stroke="none" stroke-width="1" display="inline" opacity=".15" overflow="visible" visibility="visible" style="marker:none"/><path id="path2881" fill="url(#radialGradient3156)" fill-opacity="1" fill-rule="nonzero" stroke="none" stroke-width="1" d="m 9.9,57.00022 c 0,0 0,4.9997 0,4.9997 -1.6132281,0.01 -3.9,-1.1202 -3.9,-2.5002 0,-1.38 1.8002408,-2.4995 3.9,-2.4995 z" display="inline" opacity=".15" overflow="visible" visibility="visible" style="marker:none"/><path id="path2883" fill="url(#radialGradient3153)" fill-opacity="1" fill-rule="nonzero" stroke="none" stroke-width="1" d="m 54.099999,57.00022 c 0,0 0,4.9997 0,4.9997 C 55.713227,62.00992 58,60.87972 58,59.49972 c 0,-1.38 -1.800241,-2.4995 -3.900001,-2.4995 z" display="inline" opacity=".15" overflow="visible" visibility="visible" style="marker:none"/><path id="path4160-6" fill="url(#linearGradient3096)" fill-opacity="1" stroke="none" d="m 9,0.9998799 c 10.540935,0 45.999945,0.004 45.999945,0.004 L 55,59.00002 c 0,0 -30.666666,0 -46,0 0,-19.3334 0,-38.6665 0,-57.9998201 z" display="inline"/><path id="rect6741-1-8" fill="none" stroke="url(#linearGradient3093)" stroke-dasharray="none" stroke-dashoffset="0" stroke-linecap="round" stroke-linejoin="miter" stroke-miterlimit="4" stroke-opacity="1" stroke-width="1" d="m 54.499999,58.50002 -44.9999992,0 0,-57.0000401 44.9999992,0 z"/><path id="path4160-6-1" fill="none" stroke="url(#linearGradient3033)" stroke-dasharray="none" stroke-dashoffset="0" stroke-linecap="butt" stroke-linejoin="round" stroke-miterlimit="4" stroke-opacity="1" stroke-width="1" d="m 15,0.4998999 40.499997,0.004 4.9e-5,58.9962201 H 15" display="inline"/><path id="path4530" fill="url(#linearGradient877)" fill-opacity="1" fill-rule="nonzero" stroke="none" stroke-dasharray="none" stroke-dashoffset="0" stroke-linecap="butt" stroke-linejoin="round" stroke-miterlimit="4" stroke-opacity="1" stroke-width="1" d="M 15,59.50002 H 8.5 V 0.5 l 6.5,4.1e-7" color="#000" display="inline" enable-background="accumulate" overflow="visible" visibility="visible" style="marker:none"/><path id="rect6741-1-5" fill="none" stroke="url(#linearGradient3066)" stroke-dasharray="none" stroke-dashoffset="0" stroke-linecap="square" stroke-linejoin="miter" stroke-miterlimit="4" stroke-opacity="1" stroke-width="1" d="M 14.507207,58.50002 H 9.5 V 1.5000004 h 5" opacity=".5"/><g id="g3027" transform="matrix(0.79452662,0,0,1,9.0495748,-988.3622)"><path id="path3475-4" fill="none" stroke="url(#linearGradient3030)" stroke-linecap="butt" stroke-linejoin="miter" stroke-opacity="1" stroke-width="1.122" d="m 13.625,997.86239 3.43907,0 z m 3.943467,0 3.209799,0 z m 3.714196,0 2.842964,0 z m 3.301507,0 1.238066,0 z m 1.742462,0 2.751256,0 z m 3.301507,0 7.244975,0 z m 7.703518,0 5.548367,0 z m 6.006909,0 1.696609,0 z m -29.713566,2 5.364949,0 z m 5.961054,0 2.56784,0 z m 3.026382,0 1.283919,0 z m 1.788316,0 2.338569,0 z m 2.842966,0 2.384421,0 z m 2.842964,0 3.805905,0 z m 4.310302,0 4.952261,0 z m 5.410803,0 3.301507,0 z m 3.760051,0 0.825377,0 z m -29.942838,1.98431 4.539572,0 z m 4.998115,0 7.428391,0 z m 7.886934,0 3.622487,0 z m 4.08103,0 3.393216,0 z m 3.851759,0 2.888819,0 z m 3.347362,0 4.539572,0.031 z m 4.952261,0.031 7.382538,0 z m -29.117461,1.9845 6.282034,0 z m 6.786431,0 6.786432,0 z m 7.244975,0 2.705402,0 z m 3.163945,0 6.373743,0 z m 6.786431,0 4.356156,0 z m 4.860553,0 1.742462,0 z m 2.201005,0 0.962939,0 z m 1.467336,0 2.705403,0 z m -32.510676,2 2.338567,0 z m 3.072236,0 8.666456,0 z m -3.072236,3.9844 4.539572,0 z m 4.998115,0 7.428391,0 z m 7.886934,0 3.622487,0 z m 4.08103,0 3.393216,0 z m 3.851759,0 2.888819,0 z m 3.347362,0 4.539572,0.031 z m 4.952261,0.031 7.382538,0 z m -29.117461,1.9846 3.43907,0 z m 3.943467,0 3.163945,0 z m 3.714196,0 2.842964,0 z m 3.301507,0 1.238066,0 z m 1.742462,0 2.751256,0 z m 3.301507,0 7.199121,0 z m 7.703518,0 5.502512,0 z m 5.961055,0 1.742463,0 z m 2.201005,0 4.126885,0 z m -31.868717,2 5.777637,0 z m 6.23618,0 6.190326,0 z m 6.648869,0 2.384423,0 z m 2.842965,0 5.823492,0 z m 6.282035,0 7.336683,0 z m 7.84108,0 2.705402,0 z m -29.851129,2 6.282034,0 z m 6.786431,0 6.786432,0 z m 7.244975,0 2.705402,0 z m 3.163945,0 6.373743,0 z m 6.786431,0 4.356156,0 z m 4.860553,0 1.742462,0 z m 2.201005,0 0.962939,0 z m 1.467336,0 2.705403,0 z m -32.510676,2 5.364949,0 z m 5.961054,0 2.56784,0 z m 3.026382,0 1.283919,0 z m 1.788316,0 2.338569,0 z m 2.842966,0 2.384421,0 z m 2.842964,0 3.805905,0 z m 4.310302,0 4.952261,0 z m 5.410803,0 3.301507,0 z m 3.760051,0 0.825377,0 z m -29.942838,3.9844 4.539572,0 z m 4.998115,0 7.428391,0 z m 7.886934,0 3.622487,0 z m 4.08103,0 3.393216,0 z m 3.851759,0 2.888819,0 z m 3.347362,0 4.539572,0.031 z m 4.952261,0.031 7.382538,0 z m -29.117461,1.9846 5.364949,0 z m 5.961054,0 2.56784,0 z m 3.026382,0 1.283919,0 z m 1.788316,0 2.338569,0 z m 2.842966,0 2.384421,0 z m 2.842964,0 3.805905,0 z m 4.310302,0 4.952261,0 z m 5.410803,0 3.301507,0 z m 3.760051,0 0.825377,0 z m -29.942838,2 5.685928,0 z m 6.190325,0 1.788317,0 z m 2.24686,0 4.08103,0 z m 4.539573,0 6.006909,0 z m 6.511306,0 4.08103,0 z m 4.493718,0 0.871232,0 z m 1.329775,0 5.181531,0 z m 5.731783,0 2.705402,0 z m -31.04334,2 5.685928,0 z m 6.190325,0 2.567839,0 z m 3.026382,0 4.035176,0 z m 4.493719,0 4.356156,0 z m 4.860553,0 1.742462,0 z m 2.201005,0 0.96294,0 z m 1.467336,0 2.705402,0 z"/><path id="path3475-2-1" fill="none" stroke="url(#linearGradient3052)" stroke-linecap="butt" stroke-linejoin="miter" stroke-opacity="1" stroke-width="1.122" d="m 13.625,1031.8624 3.43907,0 z m 3.943467,0 3.209799,0 z m 3.714196,0 2.842964,0 z m 3.301507,0 1.238066,0 z m 1.742462,0 2.751256,0 z m 3.301507,0 7.244975,0 z m 7.703518,0 5.548367,0 z m 6.006909,0 1.696609,0 z m -29.713566,1.9843 4.539572,0 z m 4.998115,0 7.428391,0 z m 7.886934,0 3.622487,0 z m 4.08103,0 3.393216,0 z m 3.851759,0 2.888819,0 z m 3.347362,0 4.539572,0.031 z m 4.952261,0.031 7.382538,0 z m -29.117461,1.9845 6.282034,0 z m 6.786431,0 6.786432,0 z m 7.244975,0 2.705402,0 z m 3.163945,0 6.373743,0 z m 6.786431,0 4.356156,0 z m 4.860553,0 1.742462,0 z m 2.201005,0 0.962939,0 z m 1.467336,0 2.705403,0 z m -32.510676,2 2.338567,0 z m 3.072236,0 8.666456,0 z m -3.072236,0 5.777637,0 z m 6.23618,0 6.190326,0 z m 6.648869,0 2.384423,0 z m 2.842965,0 5.823492,0 z m 6.282035,0 7.336683,0 z m 7.84108,0 2.705402,0 z"/></g><path id="path4530-6" fill="none" fill-opacity="1" fill-rule="nonzero" stroke="#0d52bf" stroke-dasharray="none" stroke-dashoffset="0" stroke-linecap="butt" stroke-linejoin="round" stroke-miterlimit="4" stroke-opacity="1" stroke-width="1" d="M 15,59.50002 H 8.5 V 0.5 l 6.5,4.1e-7" color="#000" display="inline" enable-background="accumulate" opacity=".5" overflow="visible" visibility="visible" style="marker:none"/></svg>