<svg xmlns="http://www.w3.org/2000/svg" xmlns:svg="http://www.w3.org/2000/svg" xmlns:xlink="http://www.w3.org/1999/xlink" id="svg3828" width="24" height="24" version="1.1"><defs id="defs3830"><linearGradient id="linearGradient856"><stop id="stop852" offset="0" stop-color="#64baff" stop-opacity="1"/><stop id="stop854" offset="1" stop-color="#3689e6" stop-opacity="1"/></linearGradient><linearGradient id="linearGradient3977"><stop id="stop3979" offset="0" stop-color="#fff" stop-opacity="1"/><stop id="stop3981" offset="0" stop-color="#fff" stop-opacity=".235"/><stop id="stop3983" offset="1" stop-color="#fff" stop-opacity=".157"/><stop id="stop3985" offset="1" stop-color="#fff" stop-opacity=".392"/></linearGradient><linearGradient id="linearGradient3600-4"><stop id="stop3602-7" offset="0" stop-color="#f4f4f4" stop-opacity="1"/><stop id="stop3604-6" offset="1" stop-color="#dbdbdb" stop-opacity="1"/></linearGradient><linearGradient id="linearGradient5060"><stop id="stop5062" offset="0" stop-color="#000" stop-opacity="1"/><stop id="stop5064" offset="1" stop-color="#000" stop-opacity="0"/></linearGradient><linearGradient id="linearGradient5048"><stop id="stop5050" offset="0" stop-color="#000" stop-opacity="0"/><stop id="stop5056" offset=".5" stop-color="#000" stop-opacity="1"/><stop id="stop5052" offset="1" stop-color="#000" stop-opacity="0"/></linearGradient><linearGradient id="linearGradient3013" x1="24" x2="24" y1="6.474" y2="41.526" gradientTransform="matrix(0.40540511,0,0,0.51351351,2.2696871,-0.3243195)" gradientUnits="userSpaceOnUse" xlink:href="#linearGradient3977"/><linearGradient id="linearGradient3016" x1="25.132" x2="25.132" y1=".985" y2="47.013" gradientTransform="matrix(0.45714178,0,0,0.43456667,1.0285964,0.90372283)" gradientUnits="userSpaceOnUse" xlink:href="#linearGradient3600-4"/><radialGradient id="radialGradient3021" cx="605.714" cy="486.648" r="117.143" fx="605.714" fy="486.648" gradientTransform="matrix(0.01204859,0,0,0.0082353,13.238793,18.980564)" gradientUnits="userSpaceOnUse" xlink:href="#linearGradient5060"/><radialGradient id="radialGradient3024" cx="605.714" cy="486.648" r="117.143" fx="605.714" fy="486.648" gradientTransform="matrix(-0.01204859,0,0,0.0082353,10.761206,18.980564)" gradientUnits="userSpaceOnUse" xlink:href="#linearGradient5060"/><linearGradient id="linearGradient3027" x1="302.857" x2="302.857" y1="366.648" y2="609.505" gradientTransform="matrix(0.0352071,0,0,0.0082353,-0.724852,18.980547)" gradientUnits="userSpaceOnUse" xlink:href="#linearGradient5048"/><linearGradient id="linearGradient3184" x1="22.004" x2="22.004" y1="47.813" y2="3.364" gradientTransform="matrix(0.4507042,0,0,0.46666668,2.148915,0.11136743)" gradientUnits="userSpaceOnUse" xlink:href="#linearGradient3104-4"/><linearGradient id="linearGradient3104-4"><stop id="stop3106-7" offset="0" stop-color="#aaa" stop-opacity="1"/><stop id="stop3108-6" offset="1" stop-color="#c8c8c8" stop-opacity="1"/></linearGradient><linearGradient id="linearGradient858" x1="6" x2="6" y1="1.501" y2="22.509" gradientUnits="userSpaceOnUse" xlink:href="#linearGradient856"/></defs><metadata id="metadata3833"/><rect id="rect2879" width="17" height="2" x="3.5" y="22" fill="url(#linearGradient3027)" fill-opacity="1" fill-rule="nonzero" stroke="none" stroke-width="1" display="inline" opacity=".15" overflow="visible" visibility="visible" style="marker:none"/><path id="path2881" fill="url(#radialGradient3024)" fill-opacity="1" fill-rule="nonzero" stroke="none" stroke-width="1" d="m 3.4999999,22.000085 c 0,0 0,1.999891 0,1.999891 C 2.8795275,24.003776 2,23.551901 2,22.999901 2,22.447902 2.6924,22.000085 3.4999999,22.000085 z" display="inline" opacity=".15" overflow="visible" visibility="visible" style="marker:none"/><path id="path2883" fill="url(#radialGradient3021)" fill-opacity="1" fill-rule="nonzero" stroke="none" stroke-width="1" d="m 20.5,22.000085 c 0,0 0,1.999891 0,1.999891 0.620472,0.0038 1.5,-0.448075 1.5,-1.000075 0,-0.551999 -0.692402,-0.999816 -1.5,-0.999816 z" display="inline" opacity=".15" overflow="visible" visibility="visible" style="marker:none"/><path id="path4160-3" fill="url(#linearGradient3016)" fill-opacity="1" stroke="none" d="m 4,2 c 3.6664118,0 15.99998,0.0013 15.99998,0.0013 L 20,22 C 20,22 9.3333337,22 4,22 4,15.33334 4,8.6666817 4,2.0000212 Z" display="inline"/><path id="rect6741-1" fill="none" stroke="url(#linearGradient3013)" stroke-dasharray="none" stroke-dashoffset="0" stroke-linecap="round" stroke-linejoin="miter" stroke-miterlimit="4" stroke-opacity="1" stroke-width="1" d="m 19.5,21.5 -15.0000004,0 0,-19 L 19.5,2.5 z"/><path id="path4160-3-1" fill="none" stroke="#000" stroke-dasharray="none" stroke-dashoffset="0" stroke-linecap="butt" stroke-linejoin="round" stroke-miterlimit="4" stroke-opacity="1" stroke-width="1" d="m 6,1.4999569 14.500019,0.00136 2.1e-5,20.9987161 H 6" display="inline" opacity=".3"/><path id="path3475" fill="none" stroke="url(#linearGradient3184)" stroke-linecap="butt" stroke-linejoin="miter" stroke-opacity="1" stroke-width="1" d="m 8,5.5 h 1.647888 z m 1.830986,0 h 0.788732 z m 0.929578,0 h 0.394365 z m 0.549296,0 h 0.718309 z m 0.873238,0 h 0.732395 z m 0.87324,0 h 1.169014 z m 1.323943,0 h 1.521127 z m 1.661972,0 h 1.014085 z m 1.15493,0 h 0.253521 z M 8,6.492709 h 1.394366 z m 1.535211,0 h 2.28169 z m 2.422536,0 h 1.112676 z m 1.253521,0 h 1.042253 z m 1.183098,0 h 0.887324 z m 1.028169,0 1.394367,0.01458 z m 1.521127,0.01458 z M 8,7.5 h 1.929578 z m 2.084507,0 h 2.084507 z m 2.225352,0 h 0.830986 z m 0.971831,0 h 1.957747 z m 2.084507,0 h 1.338028 z m 1.492958,0 h 0.535211 z M 8,8.5 h 0.71831 z m 0.943662,0 h 2.661972 z M 8,10.492709 h 1.394366 z m 1.535211,0 h 2.28169 z m 2.422536,0 h 1.112676 z m 1.253521,0 h 1.042253 z m 1.183098,0 h 0.887324 z m 1.028169,0 1.394367,0.01458 z m 1.521127,0.01458 z M 8,11.5 h 1.056338 z m 1.211268,0 h 0.97183 z m 1.140845,0 h 0.873239 z m 1.014085,0 h 0.380281 z m 0.535211,0 h 0.84507 z m 1.014084,0 h 2.211268 z m 2.366197,0 h 1.690141 z m 1.830986,0 h 0.535211 z M 8,12.5 h 1.774648 z m 1.915493,0 h 1.901408 z m 2.042254,0 h 0.732394 z m 0.873239,0 h 1.788733 z m 1.929577,0 h 2.253521 z m 2.408451,0 H 18 Z M 8,13.5 h 1.647888 z m 1.830986,0 h 0.788732 z m 0.929578,0 h 0.394365 z m 0.549296,0 h 0.718309 z m 0.873238,0 h 0.732395 z m 0.87324,0 h 1.169014 z m 1.323943,0 h 1.521127 z m 1.661972,0 h 1.014085 z m 1.15493,0 h 0.253521 z M 8,15.49271 h 1.394366 z m 1.535211,0 h 2.28169 z m 2.422536,0 h 1.112676 z m 1.253521,0 h 1.042253 z m 1.183098,0 h 0.887324 z m 1.028169,0 1.394367,0.01458 z m 1.521127,0.01458 z M 8,16.5 h 1.647888 z m 1.830986,0 h 0.788732 z m 0.929578,0 h 0.394365 z m 0.549296,0 h 0.718309 z m 0.873238,0 h 0.732395 z m 0.87324,0 h 1.169014 z m 1.323943,0 h 1.521127 z m 1.661972,0 h 1.014085 z m 1.15493,0 h 0.253521 z M 8,17.5 h 1.746479 z m 1.901409,0 h 0.549295 z m 0.69014,0 h 1.253522 z m 1.394367,0 h 1.84507 z m 1.999999,0 h 1.253522 z m 1.380282,0 h 0.267606 z m 0.408451,0 h 1.591549 z M 8,18.5 h 1.746479 z m 1.901409,0 h 0.788732 z m 0.929577,0 h 1.239437 z m 1.380281,0 h 1.338029 z m 1.492958,0 h 0.535212 z m 0.676056,0 h 0.295776 z m 0.450705,0 h 0.830986 z"/><rect id="rect882" width="2.5" height="21" x="3.5" y="1.5" fill="url(#linearGradient858)" fill-opacity="1" stroke="none" stroke-dasharray="none" stroke-dashoffset="0" stroke-linecap="butt" stroke-linejoin="miter" stroke-miterlimit="4" stroke-opacity="1" stroke-width="1" opacity="1" vector-effect="none" style="marker:none;font-variant-east_asian:normal"/><path id="rect6741-1-4" fill="none" fill-opacity="1" stroke="url(#linearGradient3013)" stroke-dasharray="none" stroke-dashoffset="0" stroke-linecap="butt" stroke-linejoin="miter" stroke-miterlimit="4" stroke-opacity="1" stroke-width="1" d="M 6,21.5 H 4.5 V 2.5 H 6" opacity=".5" vector-effect="none"/><path id="path4160-3-1-5" fill="none" stroke="#0d52bf" stroke-dasharray="none" stroke-dashoffset="0" stroke-linecap="butt" stroke-linejoin="round" stroke-miterlimit="4" stroke-opacity="1" stroke-width="1" d="M 6.0000105,22.500033 H 3.4999601 V 1.4999792 l 0,-2.23e-5 2.5000294,0.00136" display="inline" opacity=".5"/></svg>