<svg xmlns="http://www.w3.org/2000/svg" xmlns:svg="http://www.w3.org/2000/svg" xmlns:xlink="http://www.w3.org/1999/xlink" id="svg3844" width="64" height="64" version="1.1"><defs id="defs3846"><radialGradient id="radialGradient3106" cx="65.916" cy="48.449" r="31" fx="65.916" fy="48.449" gradientTransform="matrix(0,1.2420762,-1.3512236,0,114.59262,-44.66386)" gradientUnits="userSpaceOnUse" xlink:href="#linearGradient3242-7-3-8-0-4-58-06"/><linearGradient id="linearGradient3242-7-3-8-0-4-58-06"><stop id="stop3244-5-8-5-6-4-3-8" offset="0" stop-color="#cdf87e" stop-opacity="1"/><stop id="stop3246-9-5-1-5-3-0-7" offset=".262" stop-color="#a2e34f" stop-opacity="1"/><stop id="stop3248-7-2-0-7-5-35-9" offset=".661" stop-color="#68b723" stop-opacity="1"/><stop id="stop3250-8-2-8-5-6-40-4" offset="1" stop-color="#1d7e0d" stop-opacity="1"/></linearGradient><linearGradient id="linearGradient3030-44" x1="24.139" x2="24.139" y1="9.493" y2="36.813" gradientTransform="matrix(0.9862841,0,0,0.8052748,26.930255,31.347975)" gradientUnits="userSpaceOnUse" xlink:href="#linearGradient4154"/><linearGradient id="linearGradient4154"><stop id="stop4156" offset="0" stop-color="#fff" stop-opacity="1"/><stop id="stop4158" offset="0" stop-color="#fff" stop-opacity=".235"/><stop id="stop4160" offset="1" stop-color="#fff" stop-opacity=".157"/><stop id="stop4162" offset="1" stop-color="#fff" stop-opacity=".392"/></linearGradient><linearGradient id="linearGradient3030-1" x1="24.139" x2="24.139" y1="20.067" y2="26.211" gradientTransform="matrix(0.8119709,0,0,0.97655406,30.803625,27.395953)" gradientUnits="userSpaceOnUse" xlink:href="#linearGradient4299"/><linearGradient id="linearGradient4299"><stop id="stop4301" offset="0" stop-color="#fff" stop-opacity="1"/><stop id="stop4303" offset="0" stop-color="#fff" stop-opacity=".235"/><stop id="stop4305" offset="1" stop-color="#fff" stop-opacity=".157"/><stop id="stop4307" offset="1" stop-color="#fff" stop-opacity=".392"/></linearGradient><linearGradient id="linearGradient2867-449-88-871-390-598-476-591-434-148-57-177-641-289-620-227-114-444-680-744-8-7-7"><stop id="stop5430-8-6-8" offset="0" stop-color="#5f5f5f" stop-opacity="1"/><stop id="stop5432-3-5-5" offset=".262" stop-color="#4f4f4f" stop-opacity="1"/><stop id="stop5434-1-6-9" offset=".705" stop-color="#3b3b3b" stop-opacity="1"/><stop id="stop5436-8-9-2" offset="1" stop-color="#2b2b2b" stop-opacity="1"/></linearGradient><linearGradient id="linearGradient3707-319-631-407-324-616-674-812-821-107-178-392-400-6-7-3"><stop id="stop5440-4-4-64" offset="0" stop-color="#272727" stop-opacity="1"/><stop id="stop5442-3-5-7" offset="1" stop-color="#454545" stop-opacity="1"/></linearGradient><radialGradient id="radialGradient3013-896" cx="4.993" cy="43.5" r="2.5" fx="4.993" fy="43.5" gradientTransform="matrix(2.9529448,0,0,0.99999993,37.877244,16.000002)" gradientUnits="userSpaceOnUse" xlink:href="#linearGradient3688-166-749-2-324"/><linearGradient id="linearGradient3688-166-749-2-324"><stop id="stop3216" offset="0" stop-color="#181818" stop-opacity="1"/><stop id="stop3218" offset="1" stop-color="#181818" stop-opacity="0"/></linearGradient><radialGradient id="radialGradient3015-826" cx="4.993" cy="43.5" r="2.5" fx="4.993" fy="43.5" gradientTransform="matrix(2.9529448,0,0,0.99999993,-26.122756,-103)" gradientUnits="userSpaceOnUse" xlink:href="#linearGradient3688-166-749-2-324"/><linearGradient id="linearGradient4395" x1="25.058" x2="25.058" y1="47.028" y2="39.999" gradientTransform="matrix(1.4736842,0,0,0.71428567,-3.368421,28.428572)" gradientUnits="userSpaceOnUse" xlink:href="#linearGradient3702-501-757-6-946"/><linearGradient id="linearGradient3702-501-757-6-946"><stop id="stop3228" offset="0" stop-color="#181818" stop-opacity="0"/><stop id="stop3230" offset=".5" stop-color="#181818" stop-opacity="1"/><stop id="stop3232" offset="1" stop-color="#181818" stop-opacity="0"/></linearGradient><radialGradient id="radialGradient3035-8" cx="13.003" cy="8.45" r="20" fx="13.003" fy="8.45" gradientTransform="matrix(0,3.9669028,-3.3383556,0,60.124429,-49.203271)" gradientUnits="userSpaceOnUse" xlink:href="#linearGradient2867-449-88-871-390-598-476-591-434-148-57-177-641-289-620-227-114-444-680-744-8-7-7"/><linearGradient id="linearGradient3037-5" x1="24" x2="24" y1="31.26" y2="10.166" gradientTransform="matrix(3.5133674,0,0,3.753651,-52.405096,-57.677664)" gradientUnits="userSpaceOnUse" xlink:href="#linearGradient3707-319-631-407-324-616-674-812-821-107-178-392-400-6-7-3"/><linearGradient id="linearGradient3032-5" x1="24" x2="24" y1="14.976" y2="32.052" gradientTransform="matrix(2.5534595,0,0,3.0079413,-36.437096,-38.572239)" gradientUnits="userSpaceOnUse" xlink:href="#linearGradient4517"/><linearGradient id="linearGradient4517"><stop id="stop4519" offset="0" stop-color="#fff" stop-opacity="1"/><stop id="stop4521" offset=".184" stop-color="#fff" stop-opacity=".235"/><stop id="stop4523" offset="1" stop-color="#fff" stop-opacity=".157"/><stop id="stop4525" offset="1" stop-color="#fff" stop-opacity=".392"/></linearGradient></defs><metadata id="metadata3849"/><path id="path3899-2" fill="url(#radialGradient3035-8)" fill-opacity="1" fill-rule="nonzero" stroke="url(#linearGradient3037-5)" stroke-dasharray="none" stroke-dashoffset="0" stroke-linecap="round" stroke-linejoin="round" stroke-miterlimit="4" stroke-opacity="1" stroke-width="1" d="m 32.000001,3.5 c -2.5,0 -5.469042,2.2908756 -7.500002,1 -0.439282,2.028282 -2.595821,0.8041724 -2.5,2.5 C 15.255798,10.9407 19.23205,20.499999 17.5,23.499999 c -1.5,0 -1.267312,6.823966 0.468921,8.560199 1.822869,2.79282 4.644529,5.093073 5.277117,8.590576 0.298021,3.246658 -3.180007,5.062212 -5.31818,6.830329 C 14.57991,49.809733 11.19285,51.809351 7.4999999,53.5 l 0,6 49.0000001,0 0,-6 C 51.524652,51.309945 47.070243,47.869276 43.285824,43.886248 40.602504,41.28917 43.204851,37.57231 44.904576,35.235392 47.157391,33.325594 48.473937,30.467231 48.5,27.500001 49.247165,24.575851 46.974531,22.467854 47.5,19.5 47.428747,15.734878 47.629293,11.241039 44.5,8.5000001 40.97728,5.4091073 36.5,3.5 32.000001,3.5 Z" color="#000" display="inline" enable-background="accumulate" overflow="visible" visibility="visible" style="marker:none"/><rect id="rect2801-4" width="7.368" height="5" x="52.632" y="57" fill="url(#radialGradient3013-896)" fill-opacity="1" stroke="none"/><rect id="rect3696-8" width="7.368" height="5" x="-11.368" y="-62" fill="url(#radialGradient3015-826)" fill-opacity="1" stroke="none" transform="scale(-1,-1)"/><rect id="rect3700-7" width="41.263" height="5" x="11.368" y="57" fill="url(#linearGradient4395)" fill-opacity="1" stroke="none"/><path id="path4515" fill="none" fill-opacity="1" fill-rule="nonzero" stroke="url(#linearGradient3032-5)" stroke-dasharray="none" stroke-dashoffset="0" stroke-linecap="round" stroke-linejoin="round" stroke-miterlimit="4" stroke-opacity="1" stroke-width="1" d="M 31.545219,4.5385958 C 31.000001,4.4999998 29.500001,5 28.222441,5.4687083 c -0.650402,0.238618 -1.151119,0.2819622 -1.948859,0.4149829 -0.387032,0.064536 -0.893975,-0.109284 -1.310288,-0.2544187 -0.07613,0.2841062 -0.234085,0.5365464 -0.638773,0.7701993 -0.561236,0.32403 -1.038203,0.4703488 -1.325635,0.5192 0.0011,0.235459 -0.02575,0.523898 -0.255143,0.7022449 C 18.5,10.071043 18.692821,15 18.988398,19.878526 c 0.1264,1.621473 -0.250361,4.531815 -1.187916,4.531815 C 17,27.397783 18,30.836981 18.86965,31.639655 c 1.713692,2.531748 4.671095,5.038617 5.370353,8.8759 0.0071,0.03935 0.0124,0.07899 0.01597,0.1188 0.199016,2.151921 -0.974406,3.644713 -2.244306,4.883848 -1.269902,1.239134 -2.804775,2.156336 -3.792345,2.966893 -0.03005,0.02416 -0.06111,0.04707 -0.09309,0.06864 -3.271449,2.258453 -6.109912,3.964104 -9.6262329,5.585547 l 0,4.35744 46.9999999,0 0,-4.346832 c -4.909421,-2.27375 -8.888514,-5.337542 -12.65905,-9.268665 -1.752994,-1.696455 -2.059003,-3.630994 -1.425992,-5.473287 0.634734,-1.847313 1.771741,-3.532031 2.647564,-4.7272 0.06455,-0.08864 0.13956,-0.169296 0.223428,-0.240239 1.974417,-1.661303 3.198899,-4.227446 3.222401,-6.883234 0.0011,-0.109533 0.01535,-0.21856 0.04256,-0.324723 0.330258,-1.232544 -0.08068,-2.269756 -0.487406,-3.558374 -0.406782,-1.288619 -0.806502,-2.388432 -0.573402,-4.382891 0.0099,-1.667848 -0.06164,-3.708256 -0.305707,-5.496912 -0.24403,-1.788653 -1.028746,-3.389849 -2.29284,-4.488843 C 39.667759,5.6271385 34.682975,4.3005299 31.776626,4.567636 31.698796,4.564446 31.62139,4.554743 31.545218,4.538596 Z" clip-rule="nonzero" color="#000" color-interpolation="sRGB" color-interpolation-filters="linearRGB" color-rendering="auto" display="inline" enable-background="accumulate" image-rendering="auto" opacity=".5" overflow="visible" shape-rendering="auto" text-rendering="auto" visibility="visible" style="isolation:auto;mix-blend-mode:normal;solid-color:#000;solid-opacity:1;marker:none"/><path id="path2262" fill="url(#radialGradient3106)" fill-opacity="1" fill-rule="nonzero" stroke="none" stroke-width=".985" d="m 44.5,45.5 0,-8 9,0 0,8 7.999573,0 0,9 -7.999573,0 0,8 -9,0 0,-8 -8,0 0,-9 z" color="#000" display="inline" enable-background="accumulate" overflow="visible" visibility="visible" style="marker:none"/><path id="path2262-9" fill="none" fill-opacity="1" fill-rule="nonzero" stroke="#0f5a00" stroke-dasharray="none" stroke-dashoffset="0" stroke-linecap="round" stroke-linejoin="round" stroke-miterlimit="4" stroke-opacity="1" stroke-width="1" d="m 44.5,45.5 0,-8 9,0 0,8 7.999573,0 0,9 -7.999573,0 0,8 -9,0 0,-8 -8,0 0,-9 z" clip-rule="nonzero" color="#000" color-interpolation="sRGB" color-interpolation-filters="linearRGB" color-rendering="auto" display="inline" enable-background="accumulate" image-rendering="auto" opacity=".5" overflow="visible" shape-rendering="auto" text-rendering="auto" visibility="visible" style="isolation:auto;mix-blend-mode:normal;solid-color:#000;solid-opacity:1;marker:none"/><path id="path2272-4" fill="none" stroke="url(#linearGradient3030-44)" stroke-dasharray="none" stroke-linecap="butt" stroke-linejoin="miter" stroke-miterlimit="4" stroke-opacity="1" stroke-width="1" d="m 45.5,47 0,-8.5 7,0 0,8.5 m 0,6 0,8.5 -7,0 0,-8.5" display="inline" opacity=".5"/><path id="path2272-2" fill="none" stroke="url(#linearGradient3030-1)" stroke-dasharray="none" stroke-linecap="butt" stroke-linejoin="miter" stroke-miterlimit="4" stroke-opacity="1" stroke-width="1" d="m 53,46.5 7.5,0 0,7 -7.5,0 m -8,0 -7.5,0 4.6e-5,-7 7.5,0" display="inline" opacity=".5"/></svg>