<svg xmlns="http://www.w3.org/2000/svg" xmlns:svg="http://www.w3.org/2000/svg" xmlns:xlink="http://www.w3.org/1999/xlink" id="svg4056" width="64" height="64" version="1.1"><defs id="defs4058"><linearGradient id="linearGradient3830" x1="182" x2="182" y1="33" y2="24.52" gradientTransform="matrix(2.1333272,0,0,2.1333272,-372.30794,-24.624104)" gradientUnits="userSpaceOnUse" xlink:href="#linearGradient3985-6-635-120-628-965"/><linearGradient id="linearGradient3985-6-635-120-628-965"><stop id="stop7116" offset="0" stop-color="#fff" stop-opacity="1"/><stop id="stop7118" offset="1" stop-color="#fff" stop-opacity="0"/></linearGradient><linearGradient id="linearGradient3833" x1="188" x2="188" y1="17" y2="36.026" gradientTransform="matrix(2.3260591,0,0,2.3260598,-406.97676,-31.147815)" gradientUnits="userSpaceOnUse" xlink:href="#linearGradient3985-746-156-539-972"/><linearGradient id="linearGradient3985-746-156-539-972"><stop id="stop7110" offset="0" stop-color="#fff" stop-opacity="1"/><stop id="stop7112" offset="1" stop-color="#fff" stop-opacity="0"/></linearGradient><linearGradient id="linearGradient3116" x1="22.004" x2="22.004" y1="47.813" y2="3.364" gradientTransform="matrix(1.3266332,0,0,1.3333242,-2.2224797,-3.8959701)" gradientUnits="userSpaceOnUse" xlink:href="#linearGradient3104-5"/><linearGradient id="linearGradient3104-5"><stop id="stop3106-2" offset="0" stop-color="#aaa" stop-opacity="1"/><stop id="stop3108-5" offset="1" stop-color="#c8c8c8" stop-opacity="1"/></linearGradient><linearGradient id="linearGradient3093" x1="24" x2="24" y1="5.564" y2="43" gradientTransform="matrix(1.2162162,0,0,1.5405376,2.8108184,-6.9729501)" gradientUnits="userSpaceOnUse" xlink:href="#linearGradient3977-4"/><linearGradient id="linearGradient3977-4"><stop id="stop3979-7" offset="0" stop-color="#fff" stop-opacity="1"/><stop id="stop3981-6" offset=".036" stop-color="#fff" stop-opacity=".235"/><stop id="stop3983-5" offset=".951" stop-color="#fff" stop-opacity=".157"/><stop id="stop3985-6" offset="1" stop-color="#fff" stop-opacity=".392"/></linearGradient><linearGradient id="linearGradient3096" x1="25.132" x2="25.132" y1=".985" y2="47.013" gradientTransform="matrix(1.3428567,0,0,1.2819685,-0.2285551,-2.7340501)" gradientUnits="userSpaceOnUse" xlink:href="#linearGradient3600-9"/><linearGradient id="linearGradient3600-9"><stop id="stop3602-3" offset="0" stop-color="#f4f4f4" stop-opacity="1"/><stop id="stop3604-7" offset="1" stop-color="#dbdbdb" stop-opacity="1"/></linearGradient><linearGradient id="linearGradient3098" x1="-51.786" x2="-51.786" y1="50.786" y2="2.906" gradientTransform="matrix(1.0843525,0,0,1.1997316,79.550873,-4.1627801)" gradientUnits="userSpaceOnUse" xlink:href="#linearGradient3104"/><linearGradient id="linearGradient3104"><stop id="stop3106" offset="0" stop-color="#a0a0a0" stop-opacity="1"/><stop id="stop3108" offset="1" stop-color="#bebebe" stop-opacity="1"/></linearGradient><radialGradient id="radialGradient3153" cx="605.714" cy="486.648" r="117.143" fx="605.714" fy="486.648" gradientTransform="matrix(0.03132633,0,0,0.02058823,35.220859,49.45142)" gradientUnits="userSpaceOnUse" xlink:href="#linearGradient5060"/><linearGradient id="linearGradient5060"><stop id="stop5062" offset="0" stop-color="#000" stop-opacity="1"/><stop id="stop5064" offset="1" stop-color="#000" stop-opacity="0"/></linearGradient><radialGradient id="radialGradient3156" cx="605.714" cy="486.648" r="117.143" fx="605.714" fy="486.648" gradientTransform="matrix(-0.03132632,0,0,0.02058823,28.779136,49.45142)" gradientUnits="userSpaceOnUse" xlink:href="#linearGradient5060"/><linearGradient id="linearGradient5048"><stop id="stop5050" offset="0" stop-color="#000" stop-opacity="0"/><stop id="stop5056" offset=".5" stop-color="#000" stop-opacity="1"/><stop id="stop5052" offset="1" stop-color="#000" stop-opacity="0"/></linearGradient><linearGradient id="linearGradient4054" x1="302.857" x2="302.857" y1="366.648" y2="609.505" gradientTransform="matrix(0.09153846,0,0,0.02058823,-1.084616,49.45142)" gradientUnits="userSpaceOnUse" xlink:href="#linearGradient5048"/></defs><metadata id="metadata4061"/><g id="layer1"><rect id="rect2879" width="44.2" height="5" x="9.9" y="57" fill="url(#linearGradient4054)" fill-opacity="1" fill-rule="nonzero" stroke="none" stroke-width="1" display="inline" opacity=".3" overflow="visible" visibility="visible" style="marker:none"/><path id="path2881" fill="url(#radialGradient3156)" fill-opacity="1" fill-rule="nonzero" stroke="none" stroke-width="1" d="m 9.9,57.00022 c 0,0 0,4.9997 0,4.9997 -1.6132281,0.01 -3.9,-1.1202 -3.9,-2.5002 0,-1.38 1.8002408,-2.4995 3.9,-2.4995 z" display="inline" opacity=".3" overflow="visible" visibility="visible" style="marker:none"/><path id="path2883" fill="url(#radialGradient3153)" fill-opacity="1" fill-rule="nonzero" stroke="none" stroke-width="1" d="m 54.099999,57.00022 c 0,0 0,4.9997 0,4.9997 C 55.713227,62.00992 58,60.87972 58,59.49972 c 0,-1.38 -1.800241,-2.4995 -3.900001,-2.4995 z" display="inline" opacity=".3" overflow="visible" visibility="visible" style="marker:none"/><path id="path4160-6" fill="url(#linearGradient3096)" fill-opacity="1" stroke="url(#linearGradient3098)" stroke-dasharray="none" stroke-dashoffset="0" stroke-linecap="butt" stroke-linejoin="round" stroke-miterlimit="4" stroke-opacity="1" stroke-width="1" d="m 8.4999609,0.49995993 c 10.7701071,0 47.0000371,0.004 47.0000371,0.004 l 5.6e-5,58.99606007 c 0,0 -31.333395,0 -47.0000931,0 0,-19.6667 0,-39.3332 0,-58.99981007 z" display="inline"/><path id="rect6741-1-8" fill="none" stroke="url(#linearGradient3093)" stroke-dasharray="none" stroke-dashoffset="0" stroke-linecap="round" stroke-linejoin="miter" stroke-miterlimit="4" stroke-opacity="1" stroke-width="1" d="m 54.499999,58.50002 -44.9999992,0 0,-57.0000401 44.9999992,0 z"/><path id="path3475" fill="none" stroke="url(#linearGradient3116)" stroke-linecap="butt" stroke-linejoin="miter" stroke-opacity="1" stroke-width="1" d="m 15,11.50002 3.109296,0 z m 3.565326,0 2.90201,0 z m 3.35804,0 2.570352,0 z m 2.984926,0 1.119346,0 z m 1.575376,0 2.487437,0 z m 2.984924,0 6.550252,0 z m 6.964825,0 5.016331,0 z m 5.430905,0 1.533919,0 z m -26.864322,2 4.850502,0 z m 5.389447,0 2.321608,0 z m 2.736181,0 1.160803,0 z m 1.616833,0 2.114322,0 z m 2.570352,0 2.155779,0 z m 2.570352,0 3.440956,0 z m 3.896986,0 4.477386,0 z m 4.891959,0 2.984925,0 z m 3.399498,0 0.746231,0 z M 15,17.47902 l 4.10427,0 z m 4.518844,0 6.71608,0 z m 7.130653,0 3.275125,0 z m 3.689698,0 3.06784,0 z m 3.482413,0 2.611809,0 z m 3.026382,0 4.104271,0.042 z m 4.477386,0.042 6.674624,0 z M 15,19.50002 l 5.679648,0 z m 6.135678,0 6.135678,0 z m 6.550252,0 2.445979,0 z m 2.860552,0 5.762563,0 z m 6.135679,0 3.938442,0 z m 4.394472,0 1.575377,0 z m 1.98995,0 0.870602,0 z m 1.326633,0 2.445979,0 z m -29.393216,2 2.114321,0 z m 2.777638,0 7.835427,0 z M 15,27.47922 l 4.10427,0 z m 4.518844,0 6.71608,0 z m 7.130653,0 3.275125,0 z m 3.689698,0 3.06784,0 z m 3.482413,0 2.611809,0 z m 3.026382,0 4.104271,0.042 z m 4.477386,0.042 6.674624,0 z M 15,29.50002 l 3.109296,0 z m 3.565326,0 2.860553,0 z m 3.35804,0 2.570352,0 z m 2.984926,0 1.119346,0 z m 1.575376,0 2.487437,0 z m 2.984924,0 6.508795,0 z m 6.964825,0 4.974874,0 z m 5.389447,0 1.575377,0 z m 1.989949,0 3.731157,0 z m -28.812813,2 5.223618,0 z m 5.638191,0 5.596733,0 z m 6.011306,0 2.155779,0 z m 2.570352,0 5.265075,0 z m 5.679648,0 6.633167,0 z m 7.089197,0 2.44598,0 z M 15,35.49992 l 5.679648,0 z m 6.135678,0 6.135678,0 z m 6.550252,0 2.445979,0 z m 2.860552,0 5.762563,0 z m 6.135679,0 3.938442,0 z m 4.394472,0 1.575377,0 z m 1.98995,0 0.870602,0 z m 1.326633,0 2.445979,0 z M 15,37.50002 l 4.850502,0 z m 5.389447,0 2.321608,0 z m 2.736181,0 1.160803,0 z m 1.616833,0 2.114322,0 z m 2.570352,0 2.155779,0 z m 2.570352,0 3.440956,0 z m 3.896986,0 4.477386,0 z m 4.891959,0 2.984925,0 z m 3.399498,0 0.746231,0 z M 15,43.47922 l 4.10427,0 z m 4.518844,0 6.71608,0 z m 7.130653,0 3.275125,0 z m 3.689698,0 3.06784,0 z m 3.482413,0 2.611809,0 z m 3.026382,0 4.104271,0.042 z m 4.477386,0.042 6.674624,0 z M 15,45.50002 l 4.850502,0 z m 5.389447,0 2.321608,0 z m 2.736181,0 1.160803,0 z m 1.616833,0 2.114322,0 z m 2.570352,0 2.155779,0 z m 2.570352,0 3.440956,0 z m 3.896986,0 4.477386,0 z m 4.891959,0 2.984925,0 z m 3.399498,0 0.746231,0 z m -27.071608,2 5.140703,0 z m 5.596733,0 1.616835,0 z m 2.031408,0 3.689698,0 z m 4.10427,0 5.430905,0 z m 5.886935,0 3.689699,0 z m 4.062815,0 0.787688,0 z m 1.202261,0 4.684673,0 z m 5.182161,0 2.44598,0 z m -28.066583,4 5.140703,0 z m 5.596733,0 2.321608,0 z m 2.736181,0 3.648241,0 z m 4.062814,0 3.938443,0 z m 4.394473,0 1.575377,0 z m 1.98995,0 0.870602,0 z m 1.326632,0 2.44598,0 z M 15,15.50002 l 5.223618,0 z m 5.638191,0 5.596733,0 z m 6.011306,0 2.155779,0 z m 2.570352,0 5.265075,0 z m 5.679648,0 6.633167,0 z m 7.089197,0 2.44598,0 z m -26.988694,18 4.850502,0 z m 5.389447,0 2.321608,0 z m 2.736181,0 1.160803,0 z m 1.616833,0 2.114322,0 z m 2.570352,0 2.155779,0 z m 2.570352,0 3.440956,0 z m 3.896986,0 4.477386,0 z m 4.891959,0 2.984925,0 z m 3.399498,0 0.746231,0 z m -27.071608,16 4.850502,0 z m 5.389447,0 2.321608,0 z m 2.736181,0 1.160803,0 z m 1.616833,0 2.114322,0 z m 2.570352,0 2.155779,0 z m 2.570352,0 3.440956,0 z m 3.896986,0 4.477386,0 z m 4.891959,0 2.984925,0 z m 3.399498,0 0.746231,0 z"/><path id="path3410" fill="#81d72c" fill-opacity=".588" fill-rule="evenodd" stroke="#4e9a06" stroke-dasharray="none" stroke-dashoffset="0" stroke-linecap="butt" stroke-linejoin="round" stroke-miterlimit="4" stroke-opacity="1" stroke-width="1" d="M 2.4999999,8.500164 46.499842,52.5 l -43.9998421,0 0,-43.999836 z M 11.5,32.5 l 0,11 11,0 -11,-11 z" color="#000" display="inline" enable-background="accumulate" overflow="visible" visibility="visible" style="marker:none"/><path id="path3981" fill="none" stroke="url(#linearGradient3833)" stroke-linecap="butt" stroke-linejoin="miter" stroke-opacity="1" stroke-width="1" d="m 3.5,10.999999 c 0,13.714061 0,26.785938 0,40.5 13.714051,0 26.785951,0 40.5,0 0,0 -40.5,-40.5 -40.5,-40.5 z" opacity=".5"/><path id="path3981-5" fill="none" stroke="url(#linearGradient3830)" stroke-linecap="butt" stroke-linejoin="miter" stroke-opacity="1" stroke-width="1" d="m 10.5,28.709078 c 0,0 0,15.790922 0,15.790922 0,0 14.790948,0 14.790948,0" opacity=".5"/><path id="rect4034-50-7-4" fill="#000" fill-opacity="1" stroke="none" stroke-width="2" d="m 40.999641,49 0,3 -1,0 0,-3 1,0 z m -3.957641,0 0,3 -1,0 0,-3 1,0 z m -4.042359,0 0,3 -1,0 0,-3 1,0 z m -3.957641,0 0,3 -1,0 0,-3 1,0 z m -4.042359,0 0,3 -1,0 0,-3 1,0 z m -3.957641,0 0,3 -1,0 0,-3 1,0 z m -4.042359,0 0,3 -1,0 0,-3 1,0 z m -3.957641,0 0,3 -1,0 0,-3 1,0 z m -4.042359,0 0,3 -1,0 0,-3 1,0 z M 3,14.042358 l 3,0 0,1 -3,0 0,-1 z M 3,18 l 3,0 0,1 -3,0 0,-1 z m 0,4.042359 3,0 0,1 -3,0 0,-1 z M 3,26 l 3,0 0,1 -3,0 0,-1 z m 0,4.042359 3,0 0,1 -3,0 0,-1 z M 3,34 l 3,0 0,1 -3,0 0,-1 z m 0,4.042359 3,0 0,1 -3,0 0,-1 z M 3,42 l 3,0 0,1 -3,0 0,-1 z m 0,4.042359 3,0 0,1 -3,0 0,-1 z" color="#000" display="inline" enable-background="accumulate" opacity=".15" overflow="visible" visibility="visible" style="marker:none"/><path id="rect4034-50-7-1-9" fill="#fff" fill-opacity="1" stroke="none" stroke-width="2" d="m 40,49 0,3 -1,0 0,-3 1,0 z m -3.957641,0 0,3 -1,0 0,-3 1,0 z M 32,49 l 0,3 -1,0 0,-3 1,0 z m -3.957641,0 0,3 -1,0 0,-3 1,0 z M 24,49 l 0,3 -1,0 0,-3 1,0 z m -3.957641,0 0,3 -1,0 0,-3 1,0 z M 16,49 l 0,3 -1,0 0,-3 1,0 z m -3.957641,0 0,3 -1,0 0,-3 1,0 z M 8,49 l 0,3 -1,0 0,-3 1,0 z m -5,-33.958001 3,0 0,1 -3,0 0,-1 z m 0,3.957642 3,0 0,1 -3,0 0,-1 z m 0,4.042359 3,0 0,1 -3,0 0,-1 z m 0,3.957641 3,0 0,1 -3,0 0,-1 z m 0,4.042359 3,0 0,1 -3,0 0,-1 z m 0,3.957641 3,0 0,1 -3,0 0,-1 z m 0,4.042359 3,0 0,1 -3,0 0,-1 z m 0,3.957641 3,0 0,1 -3,0 0,-1 z m 0,4.042359 3,0 0,1 -3,0 0,-1 z" color="#000" display="inline" enable-background="accumulate" opacity=".4" overflow="visible" visibility="visible" style="marker:none"/><path id="path3853" fill="none" stroke="#85f619" stroke-linecap="square" stroke-linejoin="miter" stroke-opacity="1" stroke-width="1" d="m 8.5,53.5 37.001241,0" opacity=".3"/></g></svg>