<svg xmlns="http://www.w3.org/2000/svg" xmlns:svg="http://www.w3.org/2000/svg" xmlns:xlink="http://www.w3.org/1999/xlink" id="svg4427" width="64" height="64" version="1.1"><defs id="defs4429"><linearGradient id="linearGradient4087"><stop id="stop4089" offset="0" stop-color="#fff" stop-opacity="1"/><stop id="stop4091" offset=".512" stop-color="#fff" stop-opacity=".235"/><stop id="stop4093" offset=".585" stop-color="#fff" stop-opacity=".157"/><stop id="stop4095" offset="1" stop-color="#fff" stop-opacity=".392"/></linearGradient><linearGradient id="linearGradient4315" x1="28.26" x2="28.26" y1="30.946" y2="4.657" gradientTransform="matrix(0.8227934,0,0,-0.76606771,8.832938,50.781511)" gradientUnits="userSpaceOnUse" xlink:href="#linearGradient4220"/><radialGradient id="radialGradient3436" cx="24.837" cy="36.421" r="15.645" fx="24.837" fy="36.421" gradientTransform="matrix(-0.7670311,0,0,-0.60723273,44.050848,63.616113)" gradientUnits="userSpaceOnUse" xlink:href="#linearGradient8662"/><linearGradient id="linearGradient8662"><stop id="stop8664" offset="0" stop-color="#000" stop-opacity="1"/><stop id="stop8666" offset="1" stop-color="#000" stop-opacity="0"/></linearGradient><linearGradient id="linearGradient3390" x1="302.857" x2="302.857" y1="366.648" y2="609.505" gradientTransform="matrix(0.06732488,0,0,0.01470022,15.789393,51.040146)" gradientUnits="userSpaceOnUse" xlink:href="#linearGradient5048"/><linearGradient id="linearGradient5048"><stop id="stop5050" offset="0" stop-color="#000" stop-opacity="0"/><stop id="stop5056" offset=".5" stop-color="#000" stop-opacity="1"/><stop id="stop5052" offset="1" stop-color="#000" stop-opacity="0"/></linearGradient><radialGradient id="radialGradient3392" cx="605.714" cy="486.648" r="117.143" fx="605.714" fy="486.648" gradientTransform="matrix(-0.02303994,0,0,0.01470022,37.753642,51.040176)" gradientUnits="userSpaceOnUse" xlink:href="#linearGradient5060"/><linearGradient id="linearGradient5060"><stop id="stop5062" offset="0" stop-color="#000" stop-opacity="1"/><stop id="stop5064" offset="1" stop-color="#000" stop-opacity="0"/></linearGradient><radialGradient id="radialGradient3394" cx="605.714" cy="486.648" r="117.143" fx="605.714" fy="486.648" gradientTransform="matrix(0.02303995,0,0,0.01470022,42.491414,51.040176)" gradientUnits="userSpaceOnUse" xlink:href="#linearGradient5060"/><linearGradient id="linearGradient3396" x1="25.132" x2="25.132" y1=".985" y2="47.013" gradientTransform="matrix(1,0,0,0.95604943,16.03535,12.088143)" gradientUnits="userSpaceOnUse" xlink:href="#linearGradient3600"/><linearGradient id="linearGradient3600"><stop id="stop3602" offset="0" stop-color="#f4f4f4" stop-opacity="1"/><stop id="stop3604" offset="1" stop-color="#dbdbdb" stop-opacity="1"/></linearGradient><linearGradient id="linearGradient3400" x1="24" x2="24" y1="5.564" y2="43" gradientTransform="matrix(0.89189189,0,0,1.1351351,18.725132,9.2567686)" gradientUnits="userSpaceOnUse" xlink:href="#linearGradient3977"/><linearGradient id="linearGradient3977"><stop id="stop3979" offset="0" stop-color="#fff" stop-opacity="1"/><stop id="stop3981" offset=".036" stop-color="#fff" stop-opacity=".235"/><stop id="stop3983" offset=".951" stop-color="#fff" stop-opacity=".157"/><stop id="stop3985" offset="1" stop-color="#fff" stop-opacity=".392"/></linearGradient><linearGradient id="linearGradient3390-6" x1="302.857" x2="302.857" y1="366.648" y2="609.505" gradientTransform="matrix(0.06732488,0,0,0.01470022,-0.2106071,41.040146)" gradientUnits="userSpaceOnUse" xlink:href="#linearGradient5048-1"/><linearGradient id="linearGradient5048-1"><stop id="stop5050-32" offset="0" stop-color="#000" stop-opacity="0"/><stop id="stop5056-1" offset=".5" stop-color="#000" stop-opacity="1"/><stop id="stop5052-5" offset="1" stop-color="#000" stop-opacity="0"/></linearGradient><radialGradient id="radialGradient3392-9" cx="605.714" cy="486.648" r="117.143" fx="605.714" fy="486.648" gradientTransform="matrix(-0.02303994,0,0,0.01470022,21.753642,41.040176)" gradientUnits="userSpaceOnUse" xlink:href="#linearGradient5060-9"/><linearGradient id="linearGradient5060-9"><stop id="stop5062-1" offset="0" stop-color="#000" stop-opacity="1"/><stop id="stop5064-49" offset="1" stop-color="#000" stop-opacity="0"/></linearGradient><linearGradient id="linearGradient4220"><stop id="stop4222" offset="0" stop-color="#cdf87e" stop-opacity="1"/><stop id="stop4224" offset=".262" stop-color="#a2e34f" stop-opacity="1"/><stop id="stop4226" offset=".746" stop-color="#68b723" stop-opacity="1"/><stop id="stop4228" offset="1" stop-color="#1d7e0d" stop-opacity="1"/></linearGradient><linearGradient id="linearGradient3269" x1="38.941" x2="20.576" y1="15.991" y2="15.991" gradientTransform="matrix(0,-0.78917906,0.85061918,0,13.02974,61.009036)" gradientUnits="userSpaceOnUse" xlink:href="#linearGradient4087"/><linearGradient id="linearGradient5021" x1="25.5" x2="26" y1="-13.625" y2="-39.125" gradientTransform="matrix(1.3333336,0,0,1.4375001,-6.1666702,5.7187519)" gradientUnits="userSpaceOnUse" xlink:href="#linearGradient5772-1"/><linearGradient id="linearGradient5772-1"><stop id="stop5774-8" offset="0" stop-color="#e2b369" stop-opacity="1"/><stop id="stop5776-7" offset="1" stop-color="#c79b55" stop-opacity="1"/></linearGradient><linearGradient id="linearGradient5025" x1="15" x2="15" y1="-9" y2="-40" gradientTransform="matrix(1.3571423,0,0,1.4666664,-6.749995,6.4333257)" gradientUnits="userSpaceOnUse" xlink:href="#linearGradient4455"/><linearGradient id="linearGradient4455"><stop id="stop4457" offset="0" stop-color="#fff" stop-opacity="1"/><stop id="stop4459" offset=".049" stop-color="#fff" stop-opacity=".235"/><stop id="stop4461" offset=".968" stop-color="#fff" stop-opacity=".157"/><stop id="stop4463" offset="1" stop-color="#fff" stop-opacity=".392"/></linearGradient><linearGradient id="linearGradient4997" x1="25" x2="25" y1="2" y2="14" gradientTransform="translate(1,-0.999999)" gradientUnits="userSpaceOnUse" xlink:href="#radialGradient4536"/><radialGradient id="radialGradient4536" cx="23.896" cy="3.99" r="20.397" gradientTransform="matrix(0,1.2316483,-1.625754,0,18.486966,-28.721977)" gradientUnits="userSpaceOnUse"><stop id="stop4538" offset="0" stop-color="#fff" stop-opacity="1"/><stop id="stop4540" offset=".066" stop-color="#ddd" stop-opacity="1"/><stop id="stop4542" offset=".661" stop-color="#abacae" stop-opacity="1"/><stop id="stop4544" offset="1" stop-color="#89898b" stop-opacity="1"/></radialGradient><linearGradient id="linearGradient5001" x1="24" x2="24.498" y1="1" y2="8" gradientTransform="translate(1,1.000001)" gradientUnits="userSpaceOnUse" xlink:href="#linearGradient5071-3-1-8"/><linearGradient id="linearGradient5071-3-1-8"><stop id="stop5073-3-6-8" offset="0" stop-color="#fff" stop-opacity="1"/><stop id="stop5075-6-9-9" offset="1" stop-color="#fff" stop-opacity="0"/></linearGradient><linearGradient id="linearGradient4365" x1="20" x2="20" y1="3" y2="7" gradientTransform="translate(5,1)" gradientUnits="userSpaceOnUse" xlink:href="#linearGradient5071-3-1-8"/><linearGradient id="linearGradient4342" x1="302.857" x2="302.857" y1="366.648" y2="609.505" gradientTransform="matrix(0.06732488,0,0,0.01470022,9.789393,3.040146)" gradientUnits="userSpaceOnUse" xlink:href="#linearGradient5048"/><radialGradient id="radialGradient4344" cx="605.714" cy="486.648" r="117.143" fx="605.714" fy="486.648" gradientTransform="matrix(-0.02303994,0,0,0.01470022,31.753642,3.040176)" gradientUnits="userSpaceOnUse" xlink:href="#linearGradient5060"/><radialGradient id="radialGradient4346" cx="605.714" cy="486.648" r="117.143" fx="605.714" fy="486.648" gradientTransform="matrix(0.02303995,0,0,0.01470022,21.491414,3.040176)" gradientUnits="userSpaceOnUse" xlink:href="#linearGradient5060"/></defs><metadata id="metadata4432"/><g id="g4322" transform="translate(0,4)"><rect id="rect2879-4" width="32.508" height="3.57" x="7.868" y="46.43" fill="url(#linearGradient3390-6)" fill-opacity="1" fill-rule="nonzero" stroke="none" stroke-width="1" display="inline" opacity=".3" overflow="visible" visibility="visible" style="marker:none"/><path id="path2881-2" fill="url(#radialGradient3392-9)" fill-opacity="1" fill-rule="nonzero" stroke="none" stroke-width="1" d="m 7.8683795,46.430102 c 0,0 0,3.569856 0,3.569856 C 6.6818793,50.006658 5,49.200135 5,48.2148 5,47.229467 6.3240446,46.430103 7.8683795,46.430102 Z" display="inline" opacity=".3" overflow="visible" visibility="visible" style="marker:none"/></g><rect id="rect4613" width="40" height="46" x="6.5" y="-52.5" fill="url(#linearGradient5021)" fill-opacity="1" fill-rule="nonzero" stroke="#66430b" stroke-dasharray="none" stroke-dashoffset="0" stroke-linecap="butt" stroke-linejoin="miter" stroke-miterlimit="4" stroke-opacity=".498" stroke-width="1" color="#000" display="block" enable-background="accumulate" overflow="visible" rx="1.5" ry="1.5" transform="scale(1,-1)" visibility="visible" style="marker:none"/><g id="g4348"><path id="rect4336" fill="url(#linearGradient4342)" fill-opacity="1" fill-rule="nonzero" stroke="none" stroke-width="1" d="m 17.86838,8.4299469 17.5083,0 0,3.5700531 -17.5083,0 z" display="inline" opacity=".3" overflow="visible" visibility="visible" style="marker:none"/><path d="m 17.868379,8.430102 c 0,0 0,3.569856 0,3.569856 C 16.681879,12.006658 15,11.200135 15,10.2148 15,9.229467 16.324045,8.430103 17.868379,8.430102 Z" style="marker:none" id="path4338" fill="url(#radialGradient4344)" fill-opacity="1" fill-rule="nonzero" stroke="none" stroke-width="1" display="inline" opacity=".3" overflow="visible" visibility="visible"/><path d="m 35.37668,8.430102 c 0,0 0,3.569856 0,3.569856 1.1865,0.0067 2.86838,-0.799823 2.86838,-1.785158 0,-0.985333 -1.324045,-1.784697 -2.86838,-1.784698 z" style="marker:none" id="path4340" fill="url(#radialGradient4346)" fill-opacity="1" fill-rule="nonzero" stroke="none" stroke-width="1" display="inline" opacity=".3" overflow="visible" visibility="visible"/></g><rect stroke-opacity="1" style="marker:none" id="rect5786" width="38" height="44" x="7.5" y="-51.5" fill="none" stroke="url(#linearGradient5025)" stroke-dasharray="none" stroke-dashoffset="0" stroke-linecap="butt" stroke-linejoin="miter" stroke-miterlimit="4" stroke-width="1" color="#000" display="block" enable-background="accumulate" opacity=".5" overflow="visible" rx=".5" ry=".5" transform="scale(1,-1)" visibility="visible"/><path id="path5584" fill="url(#linearGradient4997)" fill-opacity="1" fill-rule="nonzero" stroke="#000" stroke-dasharray="none" stroke-dashoffset="0" stroke-linecap="butt" stroke-linejoin="miter" stroke-miterlimit="4" stroke-opacity=".345" stroke-width="1" d="m 36.5,10.5 c 0.97227,0.04419 1,-1 1,-1 l -3,-3 7e-5,-3 c 0,0 -0.0304,-1.955806 -2,-2 l -12,0.03108 c -2.0963,0 -2.00906,2.001117 -2.00906,2.001117 l 0.009,2.967803 -3,3 c 0,0 0.11613,0.955805 0.99999,0.999999 z" color="#000" display="block" enable-background="accumulate" overflow="visible" visibility="visible" style="marker:none"/><path id="path5377" fill="url(#linearGradient5001)" fill-opacity="1" fill-rule="nonzero" stroke="none" stroke-width="1" d="m 20,9.000001 0,-5 c -0.0394,-0.631556 0.20798,-1.033615 1,-1 l 11,0 c 0.46307,0.07386 0.94201,0.11598 1,1 l 0,5 -1,-5 -11,0 z" color="#000" display="inline" enable-background="accumulate" overflow="visible" visibility="visible" style="marker:none"/><path id="path4353" fill="none" fill-rule="evenodd" stroke="#fff" stroke-linecap="round" stroke-linejoin="miter" stroke-opacity="1" stroke-width="1" d="m 16.507121,9.5 20,0" opacity=".4"/><path id="rect4357" fill="none" fill-opacity="1" stroke="url(#linearGradient4365)" stroke-dasharray="none" stroke-linecap="round" stroke-linejoin="miter" stroke-miterlimit="4" stroke-opacity="1" stroke-width="1" d="m 20.5,2.5 12,0 c 0.554,0 1,0.446 1,1 l 0,5 c 0,0.554 0.554,1 0,1 l -13,0 c -0.554,0 -1,-0.446 -1,-1 l 0,-5 c 0,-0.554 0.446,-1 1,-1 z" opacity=".4"/><path id="path4453" fill="none" fill-rule="evenodd" stroke="#000" stroke-linecap="round" stroke-linejoin="miter" stroke-opacity="1" stroke-width="1" d="m 17.507121,8.5 18,0" opacity=".1"/><path id="path4465" fill="none" fill-rule="evenodd" stroke="#000" stroke-linecap="butt" stroke-linejoin="round" stroke-opacity="1" stroke-width="1" d="m 21.5,52 0,-37.5 c 0,0 0,-0.9375 1,-1 l 22.5,0" opacity=".05"/><rect id="rect2879" width="32.508" height="3.57" x="23.868" y="56.43" fill="url(#linearGradient3390)" fill-opacity="1" fill-rule="nonzero" stroke="none" stroke-width="1" display="inline" opacity=".3" overflow="visible" visibility="visible" style="marker:none"/><path d="m 23.868379,56.430102 c 0,0 0,3.569856 0,3.569856 C 22.681879,60.006658 21,59.200135 21,58.2148 c 0,-0.985333 1.324045,-1.784697 2.868379,-1.784698 z" style="marker:none" id="path2881" fill="url(#radialGradient3392)" fill-opacity="1" fill-rule="nonzero" stroke="none" stroke-width="1" display="inline" opacity=".3" overflow="visible" visibility="visible"/><path d="m 56.37668,56.430102 c 0,0 0,3.569856 0,3.569856 1.1865,0.0067 2.86838,-0.799823 2.86838,-1.785158 0,-0.985333 -1.324045,-1.784697 -2.86838,-1.784698 z" style="marker:none" id="path2883" fill="url(#radialGradient3394)" fill-opacity="1" fill-rule="nonzero" stroke="none" stroke-width="1" display="inline" opacity=".3" overflow="visible" visibility="visible"/><path id="path4160" fill="url(#linearGradient3396)" fill-opacity="1" stroke="#000" stroke-dasharray="none" stroke-dashoffset="0" stroke-linecap="butt" stroke-linejoin="round" stroke-miterlimit="4" stroke-opacity=".345" stroke-width="1" d="m 22.535311,14.499961 c 8.020296,0 35.00004,0.0028 35.00004,0.0028 l 4.2e-5,43.997277 c 0,0 -23.333387,0 -35.000082,0 0,-14.666693 0,-29.333386 0,-44.000078 z" display="inline"/><path id="rect6741-1" fill="none" stroke="url(#linearGradient3400)" stroke-dasharray="none" stroke-dashoffset="0" stroke-linecap="round" stroke-linejoin="round" stroke-miterlimit="4" stroke-opacity="1" stroke-width="1" d="m 56.630532,57.5 -33,0 0,-42 33,0 z"/><path id="path3501" fill="url(#radialGradient3436)" fill-opacity="1" fill-rule="evenodd" stroke="none" stroke-width="1" d="m 13,41.5 a 12,9.5000005 0 1 1 24,0 12,9.5000005 0 0 1 -24,0 z" display="inline" opacity=".141" overflow="visible" visibility="visible" style="marker:none"/><path id="path3503" fill="url(#linearGradient4315)" fill-opacity="1" fill-rule="nonzero" stroke="none" stroke-dasharray="none" stroke-dashoffset="0" stroke-linecap="butt" stroke-linejoin="round" stroke-miterlimit="7" stroke-opacity="1" stroke-width=".964" d="m 21.428823,21.142361 c -10.44734,7.054755 -6.428822,19.976108 7.071179,19.476108 l 0,6.357639 13.999999,-10.357639 -13.999999,-9.999999 0,6 C 19,34.11847 17.10844,26.064927 22.477706,21.142361 Z" display="block" overflow="visible" visibility="visible" style="marker:none"/><path id="path3505" fill="none" fill-opacity="1" fill-rule="nonzero" stroke="url(#linearGradient3269)" stroke-dasharray="none" stroke-dashoffset="0" stroke-linecap="butt" stroke-linejoin="miter" stroke-miterlimit="7" stroke-opacity="1" stroke-width=".964" d="m 19.617299,23.815034 c -6.636632,6.38173 -2.515043,16.952934 9.818093,15.696743 l 0.129222,5.385366 11.251303,-8.278674 -11.251303,-8.037176 0,4.901666 c -13.61301,1.814943 -11.048275,-7.924085 -9.947315,-9.667925 z" clip-rule="nonzero" color="#000" color-interpolation="sRGB" color-interpolation-filters="linearRGB" color-rendering="auto" display="block" enable-background="accumulate" image-rendering="auto" opacity=".7" overflow="visible" shape-rendering="auto" text-rendering="auto" visibility="visible" style="marker:none;isolation:auto;mix-blend-mode:normal;solid-color:#000;solid-opacity:1;filter-blend-mode:normal;filter-gaussianBlur-deviation:0"/><path id="path3503-6" fill="none" fill-opacity="1" fill-rule="nonzero" stroke="#0f5a00" stroke-dasharray="none" stroke-dashoffset="0" stroke-linecap="round" stroke-linejoin="miter" stroke-miterlimit="4" stroke-opacity="1" stroke-width="1" d="m 21.428824,21.142361 c -10.44734,7.054755 -6.428823,19.976108 7.071178,19.476108 l 0,6.357639 13.999999,-10.357639 -13.999999,-9.999999 0,6 c -9.500001,1.5 -11.391561,-6.553543 -6.022295,-11.476109 z" clip-rule="nonzero" color="#000" color-interpolation="sRGB" color-interpolation-filters="linearRGB" color-rendering="auto" display="inline" enable-background="accumulate" image-rendering="auto" opacity=".5" overflow="visible" shape-rendering="auto" text-rendering="auto" visibility="visible" style="marker:none;isolation:auto;mix-blend-mode:normal;solid-color:#000;solid-opacity:1;filter-blend-mode:normal;filter-gaussianBlur-deviation:0"/></svg>