<svg xmlns="http://www.w3.org/2000/svg" xmlns:svg="http://www.w3.org/2000/svg" xmlns:xlink="http://www.w3.org/1999/xlink" id="svg6333" width="64" height="64" version="1.1"><defs id="defs6335"><linearGradient id="linearGradient4658"><stop id="stop4660" offset="0" stop-color="#fafafa" stop-opacity="1"/><stop id="stop4662" offset="1" stop-color="#e2e1de" stop-opacity="1"/></linearGradient><radialGradient id="radialGradient3337-2-2-8" cx="4.993" cy="43.5" r="2.5" fx="4.993" fy="43.5" gradientTransform="matrix(2.003784,0,0,1.4,27.98813,-17.4)" gradientUnits="userSpaceOnUse" xlink:href="#linearGradient3688-166-749-4-0-3-8-1"/><linearGradient id="linearGradient3688-166-749-4-0-3-8-1"><stop id="stop2883-4-0-1-8-1" offset="0" stop-color="#181818" stop-opacity="1"/><stop id="stop2885-9-2-9-6-6" offset="1" stop-color="#181818" stop-opacity="0"/></linearGradient><radialGradient id="radialGradient3339-1-4-96" cx="4.993" cy="43.5" r="2.5" fx="4.993" fy="43.5" gradientTransform="matrix(2.003784,0,0,1.4,-20.01187,-104.4)" gradientUnits="userSpaceOnUse" xlink:href="#linearGradient3688-464-309-9-2-4-2-83"/><linearGradient id="linearGradient3688-464-309-9-2-4-2-83"><stop id="stop2889-7-9-6-9-4" offset="0" stop-color="#181818" stop-opacity="1"/><stop id="stop2891-6-6-1-7-4" offset="1" stop-color="#181818" stop-opacity="0"/></linearGradient><linearGradient id="linearGradient3702-501-757-8-4-1-1-4"><stop id="stop2895-8-9-9-1-7" offset="0" stop-color="#181818" stop-opacity="0"/><stop id="stop2897-7-8-7-7-6" offset=".5" stop-color="#181818" stop-opacity="1"/><stop id="stop2899-4-5-1-5-0" offset="1" stop-color="#181818" stop-opacity="0"/></linearGradient><linearGradient id="linearGradient5515" x1="25.058" x2="25.058" y1="47.028" y2="39.999" gradientUnits="userSpaceOnUse" xlink:href="#linearGradient3702-501-757-8-4-1-1-4"/><linearGradient id="linearGradient3510-2"><stop id="stop3512-7" offset="0" stop-color="#000" stop-opacity="1"/><stop id="stop3514-6" offset="1" stop-color="#000" stop-opacity="0"/></linearGradient><linearGradient id="linearGradient3924-2-2-5-8-0"><stop id="stop3926-9-4-9-6-6" offset="0" stop-color="#fff" stop-opacity="1"/><stop id="stop3928-9-8-6-5-1" offset=".063" stop-color="#fff" stop-opacity=".235"/><stop id="stop3930-3-5-1-7-98" offset=".951" stop-color="#fff" stop-opacity=".157"/><stop id="stop3932-8-0-4-8-60" offset="1" stop-color="#fff" stop-opacity=".392"/></linearGradient><linearGradient id="linearGradient3681" x1="24" x2="24" y1="5" y2="43" gradientTransform="matrix(1.4324324,0,0,1.4324324,-2.3783756,-2.3783737)" gradientUnits="userSpaceOnUse" xlink:href="#linearGradient3924-2-2-5-8-0"/><linearGradient id="linearGradient3681-6" x1="24" x2="24" y1="5" y2="43" gradientTransform="matrix(1.4324324,0,0,1.4324324,-2.3783756,-2.3783736)" gradientUnits="userSpaceOnUse" xlink:href="#linearGradient3924-2-2-5-8-0-2"/><linearGradient id="linearGradient3924-2-2-5-8-0-2"><stop id="stop3926-9-4-9-6-6-5" offset="0" stop-color="#fff" stop-opacity="1"/><stop id="stop3928-9-8-6-5-1-5" offset=".063" stop-color="#fff" stop-opacity=".235"/><stop id="stop3930-3-5-1-7-98-0" offset=".951" stop-color="#fff" stop-opacity=".157"/><stop id="stop3932-8-0-4-8-60-3" offset="1" stop-color="#fff" stop-opacity=".392"/></linearGradient><linearGradient id="linearGradient3242-7-3-8-0-4-58-06"><stop id="stop3244-5-8-5-6-4-3-8" offset="0" stop-color="#cdf87e" stop-opacity="1"/><stop id="stop3246-9-5-1-5-3-0-7" offset=".262" stop-color="#a2e34f" stop-opacity="1"/><stop id="stop3248-7-2-0-7-5-35-9" offset=".661" stop-color="#68b723" stop-opacity="1"/><stop id="stop3250-8-2-8-5-6-40-4" offset="1" stop-color="#1d7e0d" stop-opacity="1"/></linearGradient><linearGradient id="linearGradient4556-9" x1="25.132" x2="25.132" y1="15.5" y2="48.396" gradientTransform="matrix(1.2903867,0,0,1.2373259,1.0307217,-1.0669882)" gradientUnits="userSpaceOnUse" xlink:href="#linearGradient4658"/><linearGradient id="linearGradient4654" x1="24.17" x2="24.17" y1="-12.242" y2="48.934" gradientUnits="userSpaceOnUse" xlink:href="#linearGradient3242-7-3-8-0-4-58-06"/><linearGradient id="linearGradient4656" x1="23.954" x2="23.954" y1="15.999" y2="19.963" gradientTransform="matrix(1.4,0,0,0.5,-1.5999986,10.000001)" gradientUnits="userSpaceOnUse" xlink:href="#linearGradient3510-2"/><radialGradient id="radialGradient3106" cx="65.916" cy="48.449" r="31" fx="65.916" fy="48.449" gradientTransform="matrix(0,1.2420762,-1.3512236,0,114.60033,-44.65654)" gradientUnits="userSpaceOnUse" xlink:href="#linearGradient3242-7-3-8-0-4-58-06"/><linearGradient id="linearGradient3030-44" x1="24.139" x2="24.139" y1="9.493" y2="36.813" gradientTransform="matrix(0.9862841,0,0,0.8052748,26.937969,31.355295)" gradientUnits="userSpaceOnUse" xlink:href="#linearGradient4154"/><linearGradient id="linearGradient4154"><stop id="stop4156" offset="0" stop-color="#fff" stop-opacity="1"/><stop id="stop4158" offset="0" stop-color="#fff" stop-opacity=".235"/><stop id="stop4160" offset="1" stop-color="#fff" stop-opacity=".157"/><stop id="stop4162" offset="1" stop-color="#fff" stop-opacity=".392"/></linearGradient><linearGradient id="linearGradient3030-1" x1="24.139" x2="24.139" y1="20.067" y2="26.211" gradientTransform="matrix(0.8119709,0,0,0.97655406,30.811339,27.403273)" gradientUnits="userSpaceOnUse" xlink:href="#linearGradient4299"/><linearGradient id="linearGradient4299"><stop id="stop4301" offset="0" stop-color="#fff" stop-opacity="1"/><stop id="stop4303" offset="0" stop-color="#fff" stop-opacity=".235"/><stop id="stop4305" offset="1" stop-color="#fff" stop-opacity=".157"/><stop id="stop4307" offset="1" stop-color="#fff" stop-opacity=".392"/></linearGradient></defs><metadata id="metadata6338"/><g id="g3712-8-2-4-4-4" opacity=".35" transform="matrix(1.5789502,0,0,0.7142857,-5.894751,27.928572)"><rect id="rect2801-5-5-7-9-5" width="5" height="7" x="38" y="40" fill="url(#radialGradient3337-2-2-8)" fill-opacity="1" stroke="none"/><rect id="rect3696-3-0-3-7-0" width="5" height="7" x="-10" y="-47" fill="url(#radialGradient3339-1-4-96)" fill-opacity="1" stroke="none" transform="scale(-1,-1)"/><rect id="rect3700-5-6-8-4-5" width="28" height="7" x="10" y="40" fill="url(#linearGradient5515)" fill-opacity="1" stroke="none"/></g><rect id="rect5505-21-3-8-5-2-6" width="54" height="54" x="5" y="5" fill="url(#linearGradient4556-9)" fill-opacity="1" fill-rule="nonzero" stroke="none" stroke-width="1" color="#000" display="inline" enable-background="accumulate" overflow="visible" rx="2.5" ry="2.5" visibility="visible" style="marker:none"/><rect id="rect3508" width="56" height="2" x="4" y="18" fill="url(#linearGradient4656)" fill-opacity="1" fill-rule="nonzero" stroke="none" stroke-width="1" display="inline" enable-background="accumulate" opacity=".15" overflow="visible" rx="0" ry="0" visibility="visible" style="marker:none"/><rect id="rect6741-5-0-2-3" width="53" height="53" x="5.5" y="5.5" fill="none" stroke="url(#linearGradient3681)" stroke-dasharray="none" stroke-dashoffset="0" stroke-linecap="round" stroke-linejoin="round" stroke-miterlimit="4" stroke-opacity="1" stroke-width="1" opacity="1" rx="2" ry="2"/><path id="rect4567" fill="none" stroke="#000" stroke-dasharray="none" stroke-miterlimit="4" stroke-width="1" d="m 4.5,18 0,38.5 c 0,1.662 1.338,3 3,3 l 49,0 c 1.662,0 3,-1.338 3,-3 l 0,-38.5" opacity=".3"/><path id="rect5505-21-3-8-5-2-6-1" fill="url(#linearGradient4654)" fill-opacity="1" fill-rule="nonzero" stroke="none" stroke-width="1" d="m 7.5,4.5 c -1.662,0 -3,1.338 -3,3 l 0,10 55,0 0,-10 c 0,-1.662 -1.338,-3 -3,-3 z" color="#000" display="inline" enable-background="accumulate" overflow="visible" visibility="visible" style="marker:none"/><path id="rect5505-21-3-8-9-1-1-7-8" fill="none" stroke="#126400" stroke-dasharray="none" stroke-dashoffset="0" stroke-linecap="round" stroke-linejoin="miter" stroke-miterlimit="4" stroke-opacity="1" stroke-width="1" d="m 7.5,4.5 c -1.662,0 -3,1.338 -3,3 l 0,10 55,0 0,-10 c 0,-1.662 -1.338,-3 -3,-3 z" color="#000" display="inline" enable-background="accumulate" opacity=".4" overflow="visible" visibility="visible" style="marker:none"/><path id="rect6741-5-0-2-3-4" fill="none" stroke="url(#linearGradient3681-6)" stroke-dasharray="none" stroke-dashoffset="0" stroke-linecap="round" stroke-linejoin="round" stroke-miterlimit="4" stroke-opacity="1" stroke-width="1" d="m 7.5,5.5 c -1.108,0 -2,0.892 -2,2 l 0,9 53,0 0,-9 c 0,-1.108 -0.892,-2 -2,-2 z" opacity=".5"/><path id="rect4188-6-4" fill="none" stroke="#fff" stroke-dasharray="none" stroke-miterlimit="4" stroke-opacity="1" stroke-width="1" d="m 52.5,45.5 -41,0 z M 52.469808,26.530497 11.5,26.5 l 0,26 41,0 z M 52.5,39.499592 l -41,0 M 52.5,33.5 l -41,0 M 19.527775,26.55763 19.472225,52.5 M 27.510671,26.670554 27.5,52.5 M 35.494267,26.580214 35.505737,52.5 M 43.458576,26.489875 43.5,52.5" opacity=".2"/><path id="rect4188-6-4-0" fill="none" stroke="#5e553c" stroke-dasharray="none" stroke-miterlimit="4" stroke-opacity="1" stroke-width="1" d="m 52.5,44.500408 -41,0 z M 52.469808,25.530905 11.5,25.500408 l 0,26 41,0 z M 52.5,38.5 l -41,0 m 41,-5.999592 -41,0 m 8.027775,-6.94237 -0.05555,25.94237 M 27.510671,25.670962 27.5,51.500408 m 7.994267,-25.919786 0.01147,25.919786 M 43.458576,25.490283 43.5,51.500408" opacity=".25"/><path id="path4682-6" fill="#fff" fill-opacity="1" fill-rule="nonzero" stroke="none" stroke-width="1.074" d="m 11.464567,11.472441 a 1.1023622,1.0472441 0 1 1 -2.2047246,0 1.1023622,1.0472441 0 1 1 2.2047246,0 z" color="#000" display="inline" enable-background="accumulate" opacity=".3" overflow="visible" transform="matrix(1.3607143,0,0,1.4323308,-1.6,-4.4323301)" visibility="visible" style="marker:none"/><path id="path4682-6-1" fill="#126400" fill-opacity="1" fill-rule="nonzero" stroke="none" stroke-width="1.074" d="m 11.464567,11.472441 a 1.1023622,1.0472441 0 1 1 -2.2047246,0 1.1023622,1.0472441 0 1 1 2.2047246,0 z" color="#000" display="inline" enable-background="accumulate" opacity=".4" overflow="visible" transform="matrix(1.3607143,0,0,1.4323308,-1.6,-5.4323303)" visibility="visible" style="marker:none"/><path id="path4682-6-3" fill="#fff" fill-opacity="1" fill-rule="nonzero" stroke="none" stroke-width="1.074" d="m 11.464567,11.472441 a 1.1023622,1.0472441 0 1 1 -2.2047246,0 1.1023622,1.0472441 0 1 1 2.2047246,0 z" color="#000" display="inline" enable-background="accumulate" opacity=".3" overflow="visible" transform="matrix(1.3607143,0,0,1.4323308,36.9,-4.4323303)" visibility="visible" style="marker:none"/><path id="path4682-6-1-5" fill="#126400" fill-opacity="1" fill-rule="nonzero" stroke="none" stroke-width="1.074" d="m 11.464567,11.472441 a 1.1023622,1.0472441 0 1 1 -2.2047246,0 1.1023622,1.0472441 0 1 1 2.2047246,0 z" color="#000" display="inline" enable-background="accumulate" opacity=".4" overflow="visible" transform="matrix(1.3607143,0,0,1.4323308,36.9,-5.4323303)" visibility="visible" style="marker:none"/><path id="path2262" fill="url(#radialGradient3106)" fill-opacity="1" fill-rule="nonzero" stroke="none" stroke-width=".985" d="m 44.5,45.50002 v -8.0337 h 9.104416 L 53.5,45.50002 h 8.007287 v 9 H 53.5 v 8.0073 h -9 v -8.0073 h -8.007286 v -9 z" color="#000" display="inline" enable-background="accumulate" overflow="visible" visibility="visible" style="marker:none"/><path clip-rule="nonzero" style="isolation:auto;mix-blend-mode:normal;solid-color:#000;solid-opacity:1;marker:none" id="path2262-9" fill="none" fill-opacity="1" fill-rule="nonzero" stroke="#0f5a00" stroke-dasharray="none" stroke-dashoffset="0" stroke-linecap="round" stroke-linejoin="round" stroke-miterlimit="4" stroke-opacity="1" stroke-width="1" d="m 44.5,45.50002 v -8.0337 h 9.104416 L 53.5,45.50002 h 8.007287 v 9 H 53.5 v 8.0073 h -9 v -8.0073 h -8.007286 v -9 z" color="#000" color-interpolation="sRGB" color-interpolation-filters="linearRGB" color-rendering="auto" display="inline" enable-background="accumulate" image-rendering="auto" opacity=".5" overflow="visible" shape-rendering="auto" text-rendering="auto" visibility="visible"/><path id="path2272-4" fill="none" stroke="url(#linearGradient3030-44)" stroke-dasharray="none" stroke-linecap="butt" stroke-linejoin="miter" stroke-miterlimit="4" stroke-opacity="1" stroke-width="1" d="m 45.5,47.006331 v -8.50633 h 6.999999 v 8.493668 m 0,6.006331 v 8.5 H 45.5 V 53" display="inline" opacity=".5"/><path id="path2272-2" fill="none" stroke="url(#linearGradient3030-1)" stroke-dasharray="none" stroke-linecap="butt" stroke-linejoin="miter" stroke-miterlimit="4" stroke-opacity="1" stroke-width="1" d="m 53,46.527141 7.499861,-0.02535 v 6.973006 L 53,53.500147 m -8,0 -7.50014,-0.02535 V 46.501791 L 45,46.527141" display="inline" opacity=".5"/></svg>