<svg xmlns="http://www.w3.org/2000/svg" xmlns:svg="http://www.w3.org/2000/svg" xmlns:xlink="http://www.w3.org/1999/xlink" id="svg3489" width="64" height="64" version="1.1"><defs id="defs3491"><linearGradient id="linearGradient1131"><stop id="stop1127" offset="0" stop-color="#fff" stop-opacity="1"/><stop id="stop1129" offset="1" stop-color="#fff" stop-opacity="0"/></linearGradient><linearGradient id="linearGradient3820-7-2"><stop id="stop3822-2-6" offset="0" stop-color="#000" stop-opacity="1"/><stop id="stop3824-1-2" offset="1" stop-color="#000" stop-opacity="0"/></linearGradient><radialGradient id="radialGradient3106" cx="65.916" cy="48.449" r="31" fx="65.916" fy="48.449" gradientTransform="matrix(0,1.2420762,-1.3512236,0,114.60033,-44.65654)" gradientUnits="userSpaceOnUse" xlink:href="#linearGradient3242-7-3-8-0-4-58-06"/><linearGradient id="linearGradient3242-7-3-8-0-4-58-06"><stop id="stop3244-5-8-5-6-4-3-8" offset="0" stop-color="#cdf87e" stop-opacity="1"/><stop id="stop3246-9-5-1-5-3-0-7" offset=".262" stop-color="#a2e34f" stop-opacity="1"/><stop id="stop3248-7-2-0-7-5-35-9" offset=".661" stop-color="#68b723" stop-opacity="1"/><stop id="stop3250-8-2-8-5-6-40-4" offset="1" stop-color="#1d7e0d" stop-opacity="1"/></linearGradient><linearGradient id="linearGradient3030-44" x1="24.139" x2="24.139" y1="9.493" y2="36.813" gradientTransform="matrix(0.9862841,0,0,0.8052748,26.937969,31.355295)" gradientUnits="userSpaceOnUse" xlink:href="#linearGradient4154"/><linearGradient id="linearGradient4154"><stop id="stop4156" offset="0" stop-color="#fff" stop-opacity="1"/><stop id="stop4158" offset="0" stop-color="#fff" stop-opacity=".235"/><stop id="stop4160" offset="1" stop-color="#fff" stop-opacity=".157"/><stop id="stop4162" offset="1" stop-color="#fff" stop-opacity=".392"/></linearGradient><linearGradient id="linearGradient3030-1" x1="24.139" x2="24.139" y1="20.067" y2="26.211" gradientTransform="matrix(0.8119709,0,0,0.97655406,30.811339,27.403273)" gradientUnits="userSpaceOnUse" xlink:href="#linearGradient4299"/><linearGradient id="linearGradient4299"><stop id="stop4301" offset="0" stop-color="#fff" stop-opacity="1"/><stop id="stop4303" offset="0" stop-color="#fff" stop-opacity=".235"/><stop id="stop4305" offset="1" stop-color="#fff" stop-opacity=".157"/><stop id="stop4307" offset="1" stop-color="#fff" stop-opacity=".392"/></linearGradient><linearGradient id="linearGradient1199" x1="55" x2="69" y1="86" y2="86" gradientUnits="userSpaceOnUse" xlink:href="#linearGradient972"/><linearGradient id="linearGradient972"><stop id="stop968" offset="0" stop-color="#000" stop-opacity="1"/><stop id="stop970" offset="1" stop-color="#fff" stop-opacity=".967"/></linearGradient><linearGradient id="linearGradient899" x1="32" x2="60" y1="86" y2="86" gradientUnits="userSpaceOnUse" xlink:href="#linearGradient972"/><linearGradient id="linearGradient909" x1="68.5" x2="97.5" y1="86" y2="86" gradientUnits="userSpaceOnUse" xlink:href="#linearGradient972"/><radialGradient id="radialGradient3300-4-6" cx="99.189" cy="185.297" r="62.769" fx="99.189" fy="185.297" gradientTransform="matrix(0.1911768,7.5557405e-8,0,0.11152219,1.0372874,35.333972)" gradientUnits="userSpaceOnUse" xlink:href="#linearGradient3820-7-2"/><radialGradient id="radialGradient4192-7" cx="99.189" cy="185.297" r="62.769" fx="99.189" fy="185.297" gradientTransform="matrix(0.1274512,5.3979431e-8,0,0.07967326,7.3581915,43.235667)" gradientUnits="userSpaceOnUse" xlink:href="#linearGradient3820-7-2"/><linearGradient id="linearGradient1133" x1="82.885" x2="64.5" y1="67.615" y2="86" gradientUnits="userSpaceOnUse" xlink:href="#linearGradient1131"/><linearGradient id="linearGradient1135" x1="68.743" x2="82.885" y1="86" y2="71.858" gradientUnits="userSpaceOnUse" xlink:href="#linearGradient1131"/><linearGradient id="linearGradient1137" x1="63.086" x2="44.701" y1="84.586" y2="102.971" gradientUnits="userSpaceOnUse" xlink:href="#linearGradient1131"/><linearGradient id="linearGradient1139" x1="45.408" x2="59.55" y1="99.435" y2="85.293" gradientUnits="userSpaceOnUse" xlink:href="#linearGradient1131"/></defs><metadata id="metadata3494"/><g id="g312" transform="translate(-4.0000002)"><path id="path3818-0" fill="url(#radialGradient3300-4-6)" fill-opacity="1" stroke="none" stroke-width="1" d="m 32,56.000268 a 12,6.9987222 0 1 1 -23.9999996,0 12,6.9987222 0 1 1 23.9999996,0 z" opacity=".2"/><path id="path4190" fill="url(#radialGradient4192-7)" fill-opacity="1" stroke="none" stroke-width="1" d="m 28,58.000002 a 8,5.0000002 0 1 1 -16,0 8,5.0000002 0 1 1 16,0 z" opacity=".4"/></g><g id="g4309"><path id="path2262" fill="url(#radialGradient3106)" fill-opacity="1" fill-rule="nonzero" stroke="none" stroke-width=".985" d="m 44.5,45.50002 0,-8.0337 9.104416,0 -0.104416,8.0337 8.007287,0 0,9 -8.007287,0 0,8.0073 -9,0 0,-8.0073 -8.007286,0 0,-9 8.007286,0 z" color="#000" display="inline" enable-background="accumulate" overflow="visible" visibility="visible" style="marker:none"/><path clip-rule="nonzero" style="isolation:auto;mix-blend-mode:normal;solid-color:#000;solid-opacity:1;marker:none" id="path2262-9" fill="none" fill-opacity="1" fill-rule="nonzero" stroke="#0f5a00" stroke-dasharray="none" stroke-dashoffset="0" stroke-linecap="round" stroke-linejoin="round" stroke-miterlimit="4" stroke-opacity="1" stroke-width="1" d="m 44.5,45.50002 0,-8.0337 9.104416,0 -0.104416,8.0337 8.007287,0 0,9 -8.007287,0 0,8.0073 -9,0 0,-8.0073 -8.007286,0 0,-9 8.007286,0 z" color="#000" color-interpolation="sRGB" color-interpolation-filters="linearRGB" color-rendering="auto" display="inline" enable-background="accumulate" image-rendering="auto" opacity=".5" overflow="visible" shape-rendering="auto" text-rendering="auto" visibility="visible"/><path id="path2272-4" fill="none" stroke="url(#linearGradient3030-44)" stroke-dasharray="none" stroke-linecap="butt" stroke-linejoin="miter" stroke-miterlimit="4" stroke-opacity="1" stroke-width="1" d="m 45.5,47.006331 0,-8.50633 6.999999,0 0,8.493668 m 0,6.006331 0,8.5 -6.999999,0 0,-8.5" display="inline" opacity=".5"/><path id="path2272-2" fill="none" stroke="url(#linearGradient3030-1)" stroke-dasharray="none" stroke-linecap="butt" stroke-linejoin="miter" stroke-miterlimit="4" stroke-opacity="1" stroke-width="1" d="m 53,46.527141 7.499861,-0.02535 0,6.973006 L 53,53.500147 m -8,0 -7.50014,-0.02535 0,-6.973006 L 45,46.527141" display="inline" opacity=".5"/></g><g id="g1216" transform="rotate(-45,-16.933766,98.23097)"><path id="rect1162" fill="#d4d4d4" fill-opacity="1" stroke="#000" stroke-linecap="round" stroke-linejoin="bevel" stroke-opacity=".404" stroke-width="1" d="m 39,76 c -3.878,0 -7,3.122 -7,7 v 6 c 0,3.878 3.122,7 7,7 h 14 c 3.878,0 7,-3.122 7,-7 v -6 c 0,-3.878 -3.122,-7 -7,-7 z m 0.5,5 h 13 c 1.385,0 2.5,1.115 2.5,2.5 v 5 c 0,1.385 -1.115,2.5 -2.5,2.5 h -13 C 38.115,91 37,89.885 37,88.5 v -5 C 37,82.115 38.115,81 39.5,81 Z" opacity="1"/><path id="rect1172" fill="#d4d4d4" fill-opacity="1" stroke="#000" stroke-linecap="round" stroke-linejoin="bevel" stroke-opacity=".404" stroke-width="1" d="m 76,76 c -3.878,0 -7,3.122 -7,7 v 6 c 0,3.878 3.122,7 7,7 h 14 c 3.878,0 7,-3.122 7,-7 v -6 c 0,-3.878 -3.122,-7 -7,-7 z m 0.5,5 h 13 c 1.385,0 2.5,1.115 2.5,2.5 v 5 c 0,1.385 -1.115,2.5 -2.5,2.5 h -13 C 75.115,91 74,89.885 74,88.5 v -5 C 74,82.115 75.115,81 76.5,81 Z" opacity="1"/><path id="path86" fill="url(#linearGradient899)" fill-opacity="1" stroke="none" stroke-linecap="round" stroke-linejoin="bevel" stroke-opacity=".404" stroke-width="1" d="m 39,76 c -3.878,0 -7,3.122 -7,7 v 6 c 0,3.878 3.122,7 7,7 h 14 c 3.878,0 7,-3.122 7,-7 v -6 c 0,-3.878 -3.122,-7 -7,-7 z m 0.5,5 h 13 c 1.385,0 2.5,1.115 2.5,2.5 v 5 c 0,1.385 -1.115,2.5 -2.5,2.5 h -13 C 38.115,91 37,89.885 37,88.5 v -5 C 37,82.115 38.115,81 39.5,81 Z" opacity=".2"/><path id="path901" fill="url(#linearGradient909)" fill-opacity="1" stroke="none" stroke-linecap="round" stroke-linejoin="bevel" stroke-opacity=".404" stroke-width="1" d="m 76,76 c -3.878,0 -7,3.122 -7,7 v 6 c 0,3.878 3.122,7 7,7 h 14 c 3.878,0 7,-3.122 7,-7 v -6 c 0,-3.878 -3.122,-7 -7,-7 z m 0.5,5 h 13 c 1.385,0 2.5,1.115 2.5,2.5 v 5 c 0,1.385 -1.115,2.5 -2.5,2.5 h -13 C 75.115,91 74,89.885 74,88.5 v -5 C 74,82.115 75.115,81 76.5,81 Z" opacity=".2"/><rect id="rect314" width="26" height="18" x="70" y="77" fill="none" fill-opacity="1" stroke="url(#linearGradient1133)" stroke-linecap="round" stroke-linejoin="bevel" stroke-opacity="1" opacity=".4" rx="6" ry="6"/><rect id="rect316" width="20" height="12" x="73" y="80" fill="none" fill-opacity="1" stroke="url(#linearGradient1135)" stroke-linecap="round" stroke-linejoin="bevel" stroke-opacity="1" stroke-width="1" opacity=".4" rx="3.5" ry="3.5"/><rect id="rect318" width="26" height="18" x="33" y="77" fill="none" fill-opacity="1" stroke="url(#linearGradient1137)" stroke-linecap="round" stroke-linejoin="bevel" stroke-opacity="1" opacity=".4" rx="6" ry="6"/><rect id="rect320" width="20" height="12" x="36" y="80" fill="none" fill-opacity="1" stroke="url(#linearGradient1139)" stroke-linecap="round" stroke-linejoin="bevel" stroke-opacity="1" stroke-width="1" opacity=".4" rx="3.5" ry="3.5"/><rect id="rect1166" width="27" height="5" x="51" y="83.5" fill="#d4d4d4" fill-opacity="1" stroke="#000" stroke-linecap="round" stroke-linejoin="bevel" stroke-opacity=".404" stroke-width="1" opacity="1" rx="3" ry="3"/><rect id="rect1184" width="26" height="4" x="51.5" y="84" fill="url(#linearGradient1199)" fill-opacity="1" stroke="none" stroke-linecap="round" stroke-linejoin="bevel" stroke-opacity=".404" stroke-width="1" opacity=".2" rx="2.25" ry="2.25"/><path id="rect1190" fill="none" fill-opacity="1" stroke="#fff" stroke-linecap="round" stroke-linejoin="bevel" stroke-opacity="1" stroke-width="1" d="m 52,86 c 0,-0.831 0.892,-1.5 2,-1.5 h 21 c 1.108,0 2,0.669 2,1.5" opacity=".4"/></g><rect id="rect2685" width="70.995" height="68.004" x="-29.903" y="7.101" fill="none" fill-opacity="1" stroke="none" stroke-linecap="round" stroke-linejoin="bevel" stroke-opacity="1" opacity=".4" rx="5" ry="5"/></svg>