<svg xmlns="http://www.w3.org/2000/svg" xmlns:svg="http://www.w3.org/2000/svg" xmlns:xlink="http://www.w3.org/1999/xlink" id="svg4143" width="64" height="64" version="1.1"><defs id="defs4145"><linearGradient id="linearGradient853"><stop id="stop849" offset="0" stop-color="#cd9ef7" stop-opacity="1"/><stop id="stop851" offset="1" stop-color="#a56de2" stop-opacity="1"/></linearGradient><linearGradient id="linearGradient3234" x1="23.732" x2="23.732" y1="4.418" y2="42.04" gradientTransform="matrix(-1.4940056,0,0,1.3886149,77.100586,0.03581468)" gradientUnits="userSpaceOnUse" xlink:href="#linearGradient2867-449-88-871-390-598-476-591-434-148-57-177-0"/><linearGradient id="linearGradient2867-449-88-871-390-598-476-591-434-148-57-177-0"><stop id="stop3750-4" offset="0" stop-color="#90dbec" stop-opacity="1"/><stop id="stop3752-4" offset=".262" stop-color="#55c1ec" stop-opacity="1"/><stop id="stop3754-4" offset=".705" stop-color="#3689e6" stop-opacity="1"/><stop id="stop3756-4" offset="1" stop-color="#2b63a0" stop-opacity="1"/></linearGradient><linearGradient id="linearGradient3238" x1="38.941" x2="20.576" y1="15.991" y2="15.991" gradientTransform="matrix(0,-1.6273539,-1.7508644,0,74.437071,75.161427)" gradientUnits="userSpaceOnUse" xlink:href="#linearGradient4087-8"/><linearGradient id="linearGradient4087-8"><stop id="stop4089-4" offset="0" stop-color="#fff" stop-opacity="1"/><stop id="stop4091-8" offset=".512" stop-color="#fff" stop-opacity=".235"/><stop id="stop4093-1" offset=".585" stop-color="#fff" stop-opacity=".157"/><stop id="stop4095-03" offset="1" stop-color="#fff" stop-opacity=".392"/></linearGradient><radialGradient id="radialGradient3140" cx="24.837" cy="36.421" r="15.645" fx="24.837" fy="36.421" gradientTransform="matrix(1,0,0,0.536723,0,16.87306)" gradientUnits="userSpaceOnUse" xlink:href="#linearGradient8662"/><linearGradient id="linearGradient8662"><stop id="stop8664" offset="0" stop-color="#000" stop-opacity="1"/><stop id="stop8666" offset="1" stop-color="#000" stop-opacity="0"/></linearGradient><radialGradient id="radialGradient4195" cx="24.837" cy="36.421" r="15.645" fx="24.837" fy="36.421" gradientTransform="matrix(1,0,0,0.536723,0,16.87306)" gradientUnits="userSpaceOnUse" xlink:href="#linearGradient8662-7"/><linearGradient id="linearGradient8662-7"><stop id="stop8664-0" offset="0" stop-color="#000" stop-opacity="1"/><stop id="stop8666-1" offset="1" stop-color="#000" stop-opacity="0"/></linearGradient><linearGradient id="linearGradient3269-3" x1="38.941" x2="20.576" y1="15.991" y2="15.991" gradientTransform="matrix(0,-1.6273539,-1.7508644,0,59.437071,75.161427)" gradientUnits="userSpaceOnUse" xlink:href="#linearGradient4087-8"/><linearGradient id="linearGradient855" x1="33.945" x2="33.945" y1="6.503" y2="53.406" gradientUnits="userSpaceOnUse" xlink:href="#linearGradient853"/></defs><metadata id="metadata4148"/><path id="path3503-2-0-1" fill="url(#linearGradient855)" fill-opacity="1" fill-rule="nonzero" stroke="none" stroke-dasharray="none" stroke-dashoffset="0" stroke-linecap="butt" stroke-linejoin="round" stroke-miterlimit="7" stroke-opacity="1" stroke-width=".964" d="M 38.695463,53.518037 C 57.665459,40.730214 47.644575,17.1963 26.499999,17.38896 l 0,-10.9068918 -26.0180363,18.7929668 26.0180363,18.699472 0,-10.906891 c 13.637403,-0.528147 21.262444,11.527517 11.51308,20.450421 z" display="block" overflow="visible" visibility="visible" style="marker:none"/><path stroke-opacity="1" style="marker:none" id="path3505-1-4-7" fill="none" stroke="url(#linearGradient3269-3)" stroke-dasharray="none" stroke-dashoffset="0" stroke-linecap="butt" stroke-linejoin="miter" stroke-miterlimit="7" stroke-width=".964" d="M 40.747181,51.500444 C 55.205178,38.368479 46.839675,18.32819 25.499999,18.32819 l 0,-9.9447247 -23.3284733,16.8915697 23.3284733,16.716837 0,-10.027078 c 20.258685,0.201254 19.805943,16.121693 15.247182,19.53565 z" display="block" opacity=".5" overflow="visible" visibility="visible"/><path id="path3503-2-0-4" fill="none" fill-opacity="1" fill-rule="nonzero" stroke="#7239b3" stroke-dasharray="none" stroke-dashoffset="0" stroke-linecap="butt" stroke-linejoin="round" stroke-miterlimit="4" stroke-opacity="1" stroke-width="1" d="M 38.695463,53.518037 C 57.665459,40.730214 47.644575,17.1963 26.499999,17.38896 l 0,-10.9068918 -26.0180363,18.7929668 26.0180363,18.699472 0,-10.906891 c 13.637403,-0.528147 21.262444,11.527517 11.51308,20.450421 z" clip-rule="nonzero" color="#000" color-interpolation="sRGB" color-interpolation-filters="linearRGB" color-rendering="auto" display="inline" enable-background="accumulate" image-rendering="auto" opacity=".5" overflow="visible" shape-rendering="auto" text-rendering="auto" visibility="visible" style="isolation:auto;mix-blend-mode:normal;solid-color:#000;solid-opacity:1;marker:none"/><g id="layer1-6" transform="matrix(2.6666667,0,0,2.6666667,-2.8740425e-7,-21.333333)"><path id="path3501" fill="url(#radialGradient3140)" fill-opacity="1" fill-rule="evenodd" stroke="none" stroke-width="1" d="m 40.481863,36.421127 a 15.644737,8.3968948 0 1 1 -31.2894745,0 15.644737,8.3968948 0 1 1 31.2894745,0 z" display="inline" opacity=".141" overflow="visible" transform="matrix(0.52995454,0,0,-0.65783905,0.487385,48.935435)" visibility="visible" style="marker:none"/><g id="g4190" transform="translate(-2,0)"><path id="path3501-0" fill="url(#radialGradient4195)" fill-opacity="1" fill-rule="evenodd" stroke="none" stroke-width="1" d="m 40.481863,36.421127 a 15.644737,8.3968948 0 1 1 -31.2894745,0 15.644737,8.3968948 0 1 1 31.2894745,0 z" display="inline" opacity=".141" overflow="visible" transform="matrix(0.52995454,0,0,-0.65783905,0.487385,48.935435)" visibility="visible" style="marker:none"/></g></g><path id="path3503-2" fill="url(#linearGradient3234)" fill-opacity="1" fill-rule="nonzero" stroke="none" stroke-dasharray="none" stroke-dashoffset="0" stroke-linecap="butt" stroke-linejoin="round" stroke-miterlimit="7" stroke-opacity="1" stroke-width=".964" d="M 53.695463,53.518037 C 72.665459,40.730214 62.644575,17.1963 41.499999,17.38896 l 0,-10.9068915 -26.018036,18.7929665 26.018036,18.699472 0,-10.906891 c 13.637403,-0.528147 21.262444,11.527517 11.51308,20.450421 z" display="block" overflow="visible" visibility="visible" style="marker:none"/><path stroke-opacity="1" style="marker:none" id="path3505-1" fill="none" stroke="url(#linearGradient3238)" stroke-dasharray="none" stroke-dashoffset="0" stroke-linecap="butt" stroke-linejoin="miter" stroke-miterlimit="7" stroke-width=".964" d="M 55.747181,51.500444 C 70.205178,38.368479 61.839675,18.32819 40.499999,18.32819 l 0,-9.9447244 -23.328473,16.8915694 23.328473,16.716837 0,-10.027078 c 20.258685,0.201254 19.805943,16.121693 15.247182,19.53565 z" display="block" opacity=".53" overflow="visible" visibility="visible"/><path clip-rule="nonzero" style="marker:none;isolation:auto;mix-blend-mode:normal;solid-color:#000;solid-opacity:1;filter-blend-mode:normal;filter-gaussianBlur-deviation:0" id="path3503-2-0" fill="#000" fill-opacity="0" fill-rule="nonzero" stroke="#00537d" stroke-dasharray="none" stroke-dashoffset="0" stroke-linecap="round" stroke-linejoin="round" stroke-miterlimit="4" stroke-opacity="1" stroke-width="1" d="M 53.695463,53.518037 C 72.665459,40.730214 62.644575,17.1963 41.499999,17.38896 l 0,-10.9068916 -26.018036,18.7929666 26.018036,18.699472 0,-10.906891 c 13.637403,-0.528147 21.262444,11.527517 11.51308,20.450421 z" color="#000" color-interpolation="sRGB" color-interpolation-filters="linearRGB" color-rendering="auto" display="inline" enable-background="accumulate" image-rendering="auto" opacity=".5" overflow="visible" shape-rendering="auto" text-rendering="auto" visibility="visible"/></svg>