<svg xmlns="http://www.w3.org/2000/svg" xmlns:svg="http://www.w3.org/2000/svg" xmlns:xlink="http://www.w3.org/1999/xlink" id="svg3489" width="64" height="64" version="1.1"><defs id="defs3491"><linearGradient id="linearGradient3820-7-2"><stop id="stop3822-2-6" offset="0" stop-color="#000" stop-opacity="1"/><stop id="stop3824-1-2" offset="1" stop-color="#000" stop-opacity="0"/></linearGradient><radialGradient id="radialGradient3300" cx="99.189" cy="185.297" r="62.769" fx="99.189" fy="185.297" gradientTransform="matrix(0.3823536,7.5555777e-8,-1.8372241e-8,0.1115198,-5.9254271,36.335849)" gradientUnits="userSpaceOnUse" xlink:href="#linearGradient3820-7-2"/><radialGradient id="radialGradient4192" cx="99.189" cy="185.297" r="62.769" fx="99.189" fy="185.297" gradientTransform="matrix(0.2549024,5.3967361e-8,-1.2248161e-8,0.07965545,6.7163816,44.240666)" gradientUnits="userSpaceOnUse" xlink:href="#linearGradient3820-7-2"/><linearGradient id="linearGradient4011"><stop id="stop4013" offset="0" stop-color="#fff" stop-opacity="1"/><stop id="stop4015" offset=".508" stop-color="#fff" stop-opacity=".235"/><stop id="stop4017" offset=".835" stop-color="#fff" stop-opacity=".157"/><stop id="stop4019" offset="1" stop-color="#fff" stop-opacity=".392"/></linearGradient><linearGradient id="linearGradient12398-3" x1="71.204" x2="71.204" y1="6.238" y2="44.341" gradientTransform="matrix(1.5405412,0,0,1.5405412,-78.508458,-7.0638606)" gradientUnits="userSpaceOnUse" xlink:href="#linearGradient4011"/><linearGradient id="linearGradient11527-6-5" x1="2035.165" x2="2035.165" y1="3208.074" y2="3241.997" gradientTransform="matrix(2.2610751,0,0,1.6903709,-4577.9225,-5418.7024)" gradientUnits="userSpaceOnUse" xlink:href="#linearGradient947"/><linearGradient id="linearGradient947"><stop id="stop943" offset="0" stop-color="#ed5353" stop-opacity="1"/><stop id="stop945" offset="1" stop-color="#c6262e" stop-opacity="1"/></linearGradient></defs><metadata id="metadata3494"/><g id="g4198"><path id="path3818-0" fill="url(#radialGradient3300)" fill-opacity="1" stroke="none" d="m 55.999998,57.0017 a 24,6.9985714 0 1 1 -47.9999991,0 24,6.9985714 0 1 1 47.9999991,0 z" opacity=".2"/><path id="path4190" fill="url(#radialGradient4192)" fill-opacity="1" stroke="none" d="m 47.999998,59.0017 a 16,4.9988822 0 1 1 -31.999999,0 16,4.9988822 0 1 1 31.999999,0 z" opacity=".4"/></g><path id="path2555-7-8-5-0-9" fill="url(#linearGradient11527-6-5)" fill-opacity="1" fill-rule="nonzero" stroke="none" stroke-width="1" d="m 32.000007,2.4999979 c -16.277096,0 -29.500006,13.2229111 -29.500006,29.5000001 0,16.277089 13.22291,29.5 29.500006,29.5 16.277071,0 29.500011,-13.222911 29.499991,-29.5 0,-16.277089 -13.22292,-29.5000001 -29.499991,-29.5000001 z" color="#000" display="inline" enable-background="accumulate" opacity=".99" overflow="visible" visibility="visible" style="marker:none"/><path id="path8655-6-0-9-5-0" fill="none" stroke="url(#linearGradient12398-3)" stroke-dasharray="none" stroke-dashoffset="0" stroke-linecap="round" stroke-linejoin="round" stroke-miterlimit="4" stroke-opacity="1" stroke-width="1" d="m 60.499998,31.998979 c 0,15.740647 -12.760843,28.501031 -28.499653,28.501031 C 16.260084,60.50001 3.5,47.739475 3.5,31.998979 3.5,16.259081 16.260084,3.4999855 32.000345,3.4999855 c 15.73881,0 28.499653,12.7590955 28.499653,28.4989935 z" color="#000" display="inline" enable-background="accumulate" opacity=".4" overflow="visible" visibility="visible" style="marker:none"/><path id="path2555-4" fill="none" fill-opacity="1" stroke="#7a0000" stroke-dasharray="none" stroke-dashoffset="0" stroke-linecap="round" stroke-linejoin="round" stroke-miterlimit="4" stroke-opacity="1" stroke-width="1" d="m 32.000006,2.4999977 c -16.277082,0 -29.500003,13.2229173 -29.500003,29.4999983 0,16.277085 13.222921,29.500008 29.500003,29.500002 16.27708,0 29.50001,-13.222917 29.49999,-29.500002 0,-16.277081 -13.22291,-29.4999983 -29.49999,-29.4999983 z" color="#000" display="inline" enable-background="accumulate" opacity=".5" overflow="visible" vector-effect="none" visibility="visible" style="marker:none"/><path id="rect968-3-5" fill="#7a0000" fill-opacity="1" stroke="none" stroke-dasharray="none" stroke-dashoffset="0" stroke-linecap="butt" stroke-linejoin="miter" stroke-miterlimit="4" stroke-opacity="1" stroke-width=".836" d="m 22.257812,19.609375 c -0.934414,0 -1.870966,0.365162 -2.578124,1.072266 -1.417604,1.41742 -1.417603,3.74078 0,5.158203 l 7.162109,7.162109 -7.162109,7.162109 c -1.417602,1.417422 -1.417602,3.740781 0,5.158204 1.417508,1.417327 3.740702,1.417331 5.158203,0 L 32,38.158203 l 7.162109,7.164063 c 1.417505,1.417322 3.740691,1.417318 5.158203,0 1.417582,-1.417426 1.417582,-3.740779 0,-5.158204 l -7.162109,-7.162109 7.162109,-7.162109 c 1.417583,-1.417425 1.417585,-3.740781 0,-5.158203 -1.417512,-1.417318 -3.740697,-1.417322 -5.158203,0 L 32,27.84375 24.837891,20.681641 C 24.12998,19.973819 23.192247,19.609375 22.257812,19.609375 Z" opacity=".05" transform="matrix(1.0087042,0,0,1.0087042,-0.27852752,-0.28900935)" vector-effect="none" style="marker:none;font-variant-east_asian:normal"/><path id="rect968-3" fill="#7a0000" fill-opacity="1" stroke="none" stroke-dasharray="none" stroke-dashoffset="0" stroke-linecap="butt" stroke-linejoin="miter" stroke-miterlimit="4" stroke-opacity="1" stroke-width=".843" d="m 22.258037,20.499995 c -0.704416,0 -1.408636,0.272917 -1.948391,0.81263 -1.079529,1.079389 -1.079529,2.81691 0,3.896302 l 7.793566,7.792612 -7.793566,7.792612 c -1.079529,1.079392 -1.079529,2.816911 0,3.896304 1.079531,1.079393 2.817261,1.079393 3.896783,0 l 7.793576,-7.792611 7.793557,7.792611 c 1.079532,1.079393 2.817262,1.079393 3.896803,0 1.079512,-1.079393 1.079512,-2.816912 0,-3.896304 l -7.793576,-7.792612 7.793576,-7.792612 c 1.079512,-1.079392 1.079512,-2.816913 0,-3.896302 -1.079541,-1.079392 -2.817271,-1.079392 -3.896803,0 l -7.793557,7.792609 -7.793576,-7.792609 c -0.539766,-0.539698 -1.243966,-0.81263 -1.948392,-0.81263 z" opacity=".15" vector-effect="none" style="marker:none;font-variant-east_asian:normal"/><path id="rect968" fill="#fff" fill-opacity="1" stroke="none" stroke-dasharray="none" stroke-dashoffset="0" stroke-linecap="butt" stroke-linejoin="miter" stroke-miterlimit="4" stroke-opacity="1" stroke-width=".843" d="m 22.258037,19.499996 c -0.704416,0 -1.408636,0.272917 -1.948391,0.81263 -1.079529,1.079389 -1.079529,2.81691 0,3.896302 l 7.793566,7.792612 -7.793566,7.792612 c -1.079529,1.079392 -1.079529,2.816911 0,3.896304 1.079531,1.079393 2.817261,1.079393 3.896783,0 l 7.793576,-7.792611 7.793557,7.792611 c 1.079532,1.079393 2.817262,1.079393 3.896803,0 1.079512,-1.079393 1.079512,-2.816912 0,-3.896304 l -7.793576,-7.792612 7.793576,-7.792612 c 1.079512,-1.079392 1.079512,-2.816913 0,-3.896302 -1.079541,-1.079392 -2.817271,-1.079392 -3.896803,0 l -7.793557,7.792609 -7.793576,-7.792609 c -0.539766,-0.539698 -1.243966,-0.81263 -1.948392,-0.81263 z" opacity="1" vector-effect="none" style="marker:none"/></svg>