<svg xmlns="http://www.w3.org/2000/svg" width="16" height="16"><g><path fill="#666" fill-rule="evenodd" d="M1205.5-186a2.5 2.5 0 0 0-2.5 2.5 2.5 2.5 0 0 0 .051.482l-4.846 2.694a2.5 2.5 0 0 0-1.705-.676 2.5 2.5 0 0 0-2.5 2.5 2.5 2.5 0 0 0 2.5 2.5 2.5 2.5 0 0 0 1.717-.684l4.834 2.688a2.5 2.5 0 0 0-.05.496 2.5 2.5 0 0 0 2.5 2.5 2.5 2.5 0 0 0 2.5-2.5 2.5 2.5 0 0 0-2.5-2.5 2.5 2.5 0 0 0-1.722.688l-4.832-2.688a2.5 2.5 0 0 0 .053-.5 2.5 2.5 0 0 0-.057-.514l4.829-2.683a2.5 2.5 0 0 0 1.728.697 2.5 2.5 0 0 0 2.5-2.5 2.5 2.5 0 0 0-2.5-2.5z" color="#000" overflow="visible" transform="translate(-1193 187)" style="isolation:auto;mix-blend-mode:normal"/></g></svg>