<svg xmlns="http://www.w3.org/2000/svg" xmlns:svg="http://www.w3.org/2000/svg" xmlns:xlink="http://www.w3.org/1999/xlink" id="svg2" width="24" height="24" version="1.2"><defs id="defs4"><linearGradient id="linearGradient4011"><stop id="stop4013" offset="0" stop-color="#fff" stop-opacity="1"/><stop id="stop4015-3" offset=".508" stop-color="#fff" stop-opacity=".235"/><stop id="stop4017-2" offset=".835" stop-color="#fff" stop-opacity=".157"/><stop id="stop4019" offset="1" stop-color="#fff" stop-opacity=".392"/></linearGradient><linearGradient id="linearGradient27416-1-5"><stop id="stop27420-2-2" offset="0" stop-color="#9bdb4d" stop-opacity="1"/><stop id="stop27422-3-2" offset="1" stop-color="#68b723" stop-opacity="1"/></linearGradient><linearGradient id="linearGradient12398-3" x1="71.204" x2="71.204" y1="6.238" y2="44.341" gradientTransform="matrix(0.5135135,0,0,0.5135135,-24.83614,-1.0212801)" gradientUnits="userSpaceOnUse" xlink:href="#linearGradient4011"/><linearGradient id="linearGradient11527-6-5" x1="2035.165" x2="2035.165" y1="3208.074" y2="3241.997" gradientTransform="matrix(0.8047894,0,0,0.60165743,-1628.8199,-1928.0804)" gradientUnits="userSpaceOnUse" xlink:href="#linearGradient27416-1-5"/></defs><metadata id="metadata7"/><path id="path2555-7-8-5-0-9" fill="url(#linearGradient11527-6-5)" fill-opacity="1" fill-rule="nonzero" stroke="none" stroke-width="1" d="M 12,1.4999999 C 6.2064599,1.4999999 1.4999999,6.2064599 1.4999999,12 1.4999999,17.79354 6.2064599,22.5 12,22.5 17.79354,22.5 22.50001,17.79354 22.5,12 22.5,6.2064599 17.79354,1.4999999 12,1.4999999 Z" color="#000" display="inline" enable-background="accumulate" opacity=".99" overflow="visible" visibility="visible" style="marker:none"/><path id="path2555-7-8-5-1" fill="none" stroke="#206b00" stroke-dasharray="none" stroke-dashoffset="0" stroke-linecap="round" stroke-linejoin="round" stroke-miterlimit="4" stroke-opacity="1" stroke-width="1" d="M 12,1.4999999 C 6.2064599,1.4999999 1.4999999,6.2064599 1.4999999,12 1.4999999,17.79354 6.2064599,22.5 12,22.5 17.79354,22.5 22.50001,17.79354 22.5,12 22.5,6.2064599 17.79354,1.4999999 12,1.4999999 Z" color="#000" display="inline" enable-background="accumulate" opacity=".5" overflow="visible" visibility="visible" style="marker:none"/><path id="path8655-6-0-9-5-0" fill="none" stroke="url(#linearGradient12398-3)" stroke-dasharray="none" stroke-dashoffset="0" stroke-linecap="round" stroke-linejoin="round" stroke-miterlimit="4" stroke-opacity="1" stroke-width="1" d="m 21.49999,11.99966 c 0,5.24688 -4.25361,9.50034 -9.49988,9.50034 -5.2467501,0 -9.5001101,-4.25351 -9.5001101,-9.50034 0,-5.2466301 4.25336,-9.4996601 9.5001101,-9.4996601 5.24627,0 9.49988,4.25303 9.49988,9.4996601 z" color="#000" display="inline" enable-background="accumulate" opacity=".5" overflow="visible" visibility="visible" style="marker:none"/><path id="path4285-6" fill="#fff" fill-opacity="1" fill-rule="nonzero" stroke="none" stroke-dasharray="none" stroke-dashoffset="0" stroke-linecap="butt" stroke-linejoin="miter" stroke-miterlimit="4" stroke-opacity="1" stroke-width=".843" d="M 12,6.5 C 9.207344,6.5 6.87218,8.416531 6.203125,11 H 7.6875 C 8.307257,9.215684 10.005331,7.9375 12,7.9375 c 1.387271,0 2.631388,0.616947 3.46875,1.59375 L 13.5,11.5 H 18 V 7 L 16.484375,8.515625 C 15.388811,7.276248 13.784754,6.5 12,6.5 Z m -6,7 V 18 L 7.765625,16.234375 C 8.848209,17.324114 10.34186,18 12,18 c 2.792657,0 5.12782,-1.916531 5.796875,-4.5 H 16.3125 c -0.619756,1.784316 -2.317832,3.0625 -4.3125,3.0625 -1.25885,0 -2.392665,-0.519627 -3.21875,-1.34375 L 10.5,13.5 Z" color="#000" display="inline" enable-background="accumulate" opacity=".5" overflow="visible" vector-effect="none" visibility="visible" style="marker:none;font-variant-east_asian:normal"/><path stroke-opacity="1" style="marker:none;font-variant-east_asian:normal" id="path4285" fill="#206b00" fill-opacity="1" fill-rule="nonzero" stroke="none" stroke-dasharray="none" stroke-dashoffset="0" stroke-linecap="butt" stroke-linejoin="miter" stroke-miterlimit="4" stroke-width=".843" d="M 12,6 C 9.207344,6 6.87218,7.916531 6.203125,10.5 H 7.6875 C 8.307257,8.715684 10.005331,7.4375 12,7.4375 c 1.387271,0 2.631388,0.616947 3.46875,1.59375 L 13.5,11 H 18 V 6.5 L 16.484375,8.015625 C 15.388811,6.776248 13.784754,6 12,6 Z m -6,7 v 4.5 L 7.765625,15.734375 C 8.848209,16.824114 10.34186,17.5 12,17.5 c 2.792657,0 5.12782,-1.916531 5.796875,-4.5 H 16.3125 c -0.619756,1.784316 -2.317832,3.0625 -4.3125,3.0625 -1.25885,0 -2.392665,-0.519628 -3.21875,-1.34375 L 10.5,13 Z" color="#000" display="inline" enable-background="accumulate" opacity="1" overflow="visible" vector-effect="none" visibility="visible"/></svg>