<svg xmlns="http://www.w3.org/2000/svg" xmlns:svg="http://www.w3.org/2000/svg" xmlns:xlink="http://www.w3.org/1999/xlink" id="svg4715" width="32" height="32" version="1.1"><defs id="defs4717"><linearGradient id="linearGradient909"><stop id="stop905" offset="0" stop-color="#fafafa" stop-opacity="1"/><stop id="stop907" offset="1" stop-color="#d4d4d4" stop-opacity="1"/></linearGradient><linearGradient id="linearGradient3924"><stop id="stop3926" offset="0" stop-color="#fff" stop-opacity="1"/><stop id="stop3928" offset=".04" stop-color="#fff" stop-opacity=".235"/><stop id="stop3930" offset=".958" stop-color="#fff" stop-opacity=".157"/><stop id="stop3932" offset="1" stop-color="#fff" stop-opacity=".392"/></linearGradient><radialGradient id="radialGradient3163" cx="4.993" cy="43.5" r="2.5" fx="4.993" fy="43.5" gradientTransform="matrix(2.003784,0,0,1.4,27.98813,-17.4)" gradientUnits="userSpaceOnUse" xlink:href="#linearGradient3688-166-749"/><linearGradient id="linearGradient3688-166-749"><stop id="stop2883" offset="0" stop-color="#181818" stop-opacity="1"/><stop id="stop2885" offset="1" stop-color="#181818" stop-opacity="0"/></linearGradient><radialGradient id="radialGradient3165" cx="4.993" cy="43.5" r="2.5" fx="4.993" fy="43.5" gradientTransform="matrix(2.003784,0,0,1.4,-20.01187,-104.4)" gradientUnits="userSpaceOnUse" xlink:href="#linearGradient3688-464-309"/><linearGradient id="linearGradient3688-464-309"><stop id="stop2889" offset="0" stop-color="#181818" stop-opacity="1"/><stop id="stop2891" offset="1" stop-color="#181818" stop-opacity="0"/></linearGradient><linearGradient id="linearGradient3167" x1="25.058" x2="25.058" y1="47.028" y2="39.999" gradientUnits="userSpaceOnUse" xlink:href="#linearGradient3702-501-757"/><linearGradient id="linearGradient3702-501-757"><stop id="stop2895" offset="0" stop-color="#181818" stop-opacity="0"/><stop id="stop2897" offset=".5" stop-color="#181818" stop-opacity="1"/><stop id="stop2899" offset="1" stop-color="#181818" stop-opacity="0"/></linearGradient><linearGradient id="linearGradient3027" x1="24" x2="24" y1="6.24" y2="41.76" gradientTransform="matrix(0.67567568,0,0,0.67567567,-0.2162133,-0.21620877)" gradientUnits="userSpaceOnUse" xlink:href="#linearGradient3924"/><linearGradient id="linearGradient903" x1="14.33" x2="14.33" y1="32.022" y2="-.07" gradientTransform="translate(0,-32)" gradientUnits="userSpaceOnUse" xlink:href="#linearGradient909"/><clipPath id="clipPath8125" clipPathUnits="userSpaceOnUse"><path id="path8127" fill="#000" fill-opacity="1" fill-rule="nonzero" stroke="none" stroke-dasharray="none" stroke-miterlimit="4" stroke-opacity="1" stroke-width="2" d="m 15,7.9999995 c -0.277,0 -0.5,0.223 -0.5,0.5 V 10.1875 c -0.548639,0.140741 -1.055018,0.37601 -1.53125,0.65625 L 11.75,9.625 c -0.195869,-0.19587 -0.491631,-0.19587 -0.6875,0 L 9.625,11.0625 c -0.1958686,0.195869 -0.1958686,0.491631 0,0.6875 l 1.21875,1.21875 C 10.56351,13.444982 10.328241,13.951361 10.1875,14.5 H 8.5 C 8.223,14.5 8,14.723 8,15 v 2 c 0,0.277 0.223,0.5 0.5,0.5 h 1.6875 c 0.140741,0.548639 0.37601,1.055018 0.65625,1.53125 L 9.625,20.25 c -0.1958686,0.195869 -0.1958686,0.491631 0,0.6875 l 1.4375,1.4375 c 0.195869,0.195869 0.491631,0.195869 0.6875,0 l 1.21875,-1.21875 c 0.476232,0.28024 0.982611,0.515509 1.53125,0.65625 V 23.5 c 0,0.277 0.223,0.5 0.5,0.5 h 2 c 0.277,0 0.5,-0.223 0.5,-0.5 v -1.6875 c 0.548639,-0.140741 1.055018,-0.37601 1.53125,-0.65625 L 20.25,22.375 c 0.195869,0.195869 0.491631,0.195869 0.6875,0 l 1.4375,-1.4375 c 0.195869,-0.195869 0.195869,-0.491631 0,-0.6875 L 21.15625,19.03125 C 21.43649,18.555018 21.671759,18.048639 21.8125,17.5 H 23.5 c 0.277,0 0.5,-0.223 0.5,-0.5 v -2 c 0,-0.277 -0.223,-0.5 -0.5,-0.5 H 21.8125 C 21.671759,13.951361 21.43649,13.444982 21.15625,12.96875 L 22.375,11.75 c 0.195869,-0.19587 0.195869,-0.491631 0,-0.6875 L 20.9375,9.625 c -0.195869,-0.19587 -0.491631,-0.19587 -0.6875,0 l -1.21875,1.21875 C 18.555018,10.56351 18.048639,10.328241 17.5,10.1875 V 8.4999995 c 0,-0.277 -0.223,-0.5 -0.5,-0.5 z M 16,13 c 1.656854,0 3,1.343146 3,3 0,1.656854 -1.343146,3 -3,3 -1.656854,0 -3,-1.343146 -3,-3 0,-1.656854 1.343146,-3 3,-3 z" color="#000" display="inline" enable-background="accumulate" overflow="visible" visibility="visible" style="marker:none"/></clipPath><linearGradient id="linearGradient3453" x1="19.868" x2="19.868" y1="13.068" y2="17.314" gradientTransform="matrix(1,0,0,-1,0,33.003591)" gradientUnits="userSpaceOnUse" xlink:href="#linearGradient4549"/><linearGradient id="linearGradient4549"><stop id="stop4551" offset="0" stop-color="#000" stop-opacity=".272"/><stop id="stop4553" offset="1" stop-color="#000" stop-opacity=".368"/></linearGradient></defs><metadata id="metadata4720"/><g id="g2036" display="inline" transform="matrix(0.6999997,0,0,0.44444486,-0.8000003,10.111104)"><g id="g3712" opacity=".4" transform="matrix(1.052632,0,0,1.285713,-1.263158,-13.42854)"><rect id="rect2801" width="5" height="7" x="38" y="40" fill="url(#radialGradient3163)" fill-opacity="1" stroke="none"/><rect id="rect3696" width="5" height="7" x="-10" y="-47" fill="url(#radialGradient3165)" fill-opacity="1" stroke="none" transform="scale(-1,-1)"/><rect id="rect3700" width="28" height="7" x="10" y="40" fill="url(#linearGradient3167)" fill-opacity="1" stroke="none"/></g></g><rect id="rect5505" width="26" height="26" x="3" y="-29" fill="url(#linearGradient903)" fill-opacity="1" fill-rule="nonzero" stroke="none" stroke-width="1" color="#000" display="inline" enable-background="accumulate" overflow="visible" rx="1.615" ry="1.615" transform="scale(1,-1)" visibility="visible" style="marker:none"/><rect id="rect5505-6-6" width="27" height="27" x="2.5" y="2.5" fill="none" stroke="#555761" stroke-dasharray="none" stroke-dashoffset="0" stroke-linecap="round" stroke-linejoin="round" stroke-miterlimit="4" stroke-opacity="1" stroke-width="1" color="#000" display="inline" enable-background="accumulate" opacity=".5" overflow="visible" rx="2.16" ry="2.16" visibility="visible" style="marker:none"/><rect id="rect6741-7" width="25" height="25" x="3.5" y="3.5" fill="none" stroke="url(#linearGradient3027)" stroke-dasharray="none" stroke-dashoffset="0" stroke-linecap="round" stroke-linejoin="round" stroke-miterlimit="4" stroke-opacity="1" stroke-width="1" rx="1.087" ry="1.19"/><path id="path12664" fill="#fff" fill-opacity="1" fill-rule="nonzero" stroke="none" stroke-width="1" d="m 15,9.0000003 c -0.277,0 -0.5,0.223 -0.5,0.5 V 11.1875 c -0.548639,0.140742 -1.055018,0.376011 -1.53125,0.65625 L 11.75,10.625001 c -0.195869,-0.195871 -0.491631,-0.195871 -0.6875,0 l -1.4375,1.4375 c -0.1958686,0.195869 -0.1958686,0.491631 0,0.6875 l 1.21875,1.21875 C 10.56351,14.444983 10.328241,14.951362 10.1875,15.5 H 8.5 C 8.223,15.5 8,15.723001 8,16 v 2 c 0,0.277001 0.223,0.5 0.5,0.5 h 1.6875 c 0.140741,0.54864 0.37601,1.055018 0.65625,1.53125 L 9.625,21.25 c -0.1958686,0.195869 -0.1958686,0.491632 0,0.6875 l 1.4375,1.4375 c 0.195869,0.195869 0.491631,0.195869 0.6875,0 l 1.21875,-1.21875 c 0.476232,0.28024 0.982611,0.51551 1.53125,0.65625 V 24.5 c 0,0.277001 0.223,0.5 0.5,0.5 h 2 c 0.277,0 0.5,-0.222999 0.5,-0.5 v -1.6875 c 0.548639,-0.14074 1.055018,-0.37601 1.53125,-0.65625 L 20.25,23.375 c 0.195869,0.195869 0.491631,0.195869 0.6875,0 l 1.4375,-1.4375 c 0.195869,-0.195868 0.195869,-0.491631 0,-0.6875 L 21.15625,20.03125 C 21.43649,19.555018 21.671759,19.04864 21.8125,18.5 H 23.5 c 0.277,0 0.5,-0.222999 0.5,-0.5 v -2 c 0,-0.276999 -0.223,-0.499999 -0.5,-0.499999 h -1.6875 c -0.140741,-0.548639 -0.37601,-1.055018 -0.65625,-1.53125 l 1.21875,-1.21875 c 0.195869,-0.195871 0.195869,-0.491631 0,-0.6875 l -1.4375,-1.4375 c -0.195869,-0.195871 -0.491631,-0.195871 -0.6875,0 l -1.21875,1.21875 C 18.555018,11.563511 18.048639,11.328242 17.5,11.187501 V 9.5000003 c 0,-0.277 -0.223,-0.5 -0.5,-0.5 z M 16,14 c 1.656854,0 3,1.343147 3,3 0,1.656854 -1.343146,3 -3,3 -1.656854,0 -3,-1.343146 -3,-3 0,-1.656853 1.343146,-2.999999 3,-3 z" color="#000" display="inline" enable-background="accumulate" opacity=".4" overflow="visible" visibility="visible" style="marker:none"/><path id="path3575-5-3" fill="#fff" fill-opacity="1" fill-rule="nonzero" stroke="none" stroke-width="1" d="m 15,9.0000003 c -0.277,0 -0.5,0.2230005 -0.5,0.5000002 v 1.6875005 c -0.548639,0.140741 -1.055018,0.37601 -1.53125,0.65625 L 11.75,10.625001 c -0.195869,-0.195871 -0.491631,-0.195871 -0.6875,0 l -1.4375,1.4375 c -0.1958686,0.195869 -0.1958686,0.491631 0,0.6875 l 1.21875,1.21875 C 10.56351,14.444983 10.328241,14.951362 10.1875,15.5 H 8.5 C 8.223,15.5 8,15.723001 8,16 v 2 c 0,0.277001 0.223,0.5 0.5,0.5 h 1.6875 c 0.140741,0.54864 0.37601,1.055018 0.65625,1.53125 L 9.625,21.25 c -0.1958686,0.195869 -0.1958686,0.491632 0,0.6875 l 1.4375,1.4375 c 0.195869,0.195869 0.491631,0.195869 0.6875,0 l 1.21875,-1.21875 c 0.476232,0.28024 0.982611,0.51551 1.53125,0.65625 V 24.5 c 0,0.277 0.223,0.5 0.5,0.5 h 2 c 0.277,0 0.5,-0.223 0.5,-0.5 v -1.6875 c 0.548639,-0.14074 1.055018,-0.37601 1.53125,-0.65625 L 20.25,23.375 c 0.195869,0.195869 0.491631,0.195869 0.6875,0 l 1.4375,-1.4375 c 0.195869,-0.195868 0.195869,-0.491631 0,-0.6875 L 21.15625,20.03125 C 21.43649,19.555018 21.671759,19.04864 21.8125,18.5 H 23.5 c 0.277,0 0.5,-0.222999 0.5,-0.5 v -2 c 0,-0.276999 -0.223,-0.499999 -0.5,-0.499999 h -1.6875 c -0.140741,-0.548639 -0.37601,-1.055018 -0.65625,-1.53125 l 1.21875,-1.21875 c 0.195869,-0.195871 0.195869,-0.491631 0,-0.6875 l -1.4375,-1.4375 c -0.195869,-0.195871 -0.491631,-0.195871 -0.6875,0 l -1.21875,1.21875 C 18.555018,11.563511 18.048639,11.328242 17.5,11.187501 V 9.5000005 C 17.5,9.2230008 17.277,9.0000003 17,9.0000003 Z M 16,14 c 1.656854,0 3,1.343147 3,3 0,1.656854 -1.343146,3 -3,3 -1.656854,0 -3,-1.343146 -3,-3 0,-1.656853 1.343146,-2.999999 3,-3 z" color="#000" display="inline" enable-background="accumulate" opacity=".1" overflow="visible" visibility="visible" style="marker:none"/><path id="path3575-5" fill="#bcbcbc" fill-opacity="1" fill-rule="nonzero" stroke="none" stroke-width="1" d="m 15,8.0000003 c -0.277,0 -0.5,0.223 -0.5,0.5 V 10.1875 c -0.548639,0.140742 -1.055018,0.376011 -1.53125,0.65625 L 11.75,9.6250005 c -0.195869,-0.1958697 -0.491631,-0.1958697 -0.6875,0 L 9.625,11.062501 c -0.1958686,0.195869 -0.1958686,0.491631 0,0.6875 l 1.21875,1.21875 C 10.56351,13.444983 10.328241,13.951362 10.1875,14.5 H 8.5 C 8.223,14.5 8,14.723001 8,15 v 2 c 0,0.277 0.223,0.5 0.5,0.5 h 1.6875 c 0.140741,0.54864 0.37601,1.055018 0.65625,1.53125 L 9.625,20.25 c -0.1958686,0.195869 -0.1958686,0.491632 0,0.6875 l 1.4375,1.4375 c 0.195869,0.195869 0.491631,0.195869 0.6875,0 l 1.21875,-1.21875 c 0.476232,0.28024 0.982611,0.51551 1.53125,0.65625 V 23.5 c 0,0.277001 0.223,0.5 0.5,0.5 h 2 c 0.277,0 0.5,-0.222999 0.5,-0.5 v -1.6875 c 0.548639,-0.14074 1.055018,-0.37601 1.53125,-0.65625 L 20.25,22.375 c 0.195869,0.195869 0.491631,0.195869 0.6875,0 l 1.4375,-1.4375 c 0.195869,-0.195868 0.195869,-0.491631 0,-0.6875 L 21.15625,19.03125 C 21.43649,18.555018 21.671759,18.04864 21.8125,17.5 H 23.5 c 0.277,0 0.5,-0.223 0.5,-0.5 v -1.999999 c 0,-0.277 -0.223,-0.5 -0.5,-0.5 h -1.6875 c -0.140741,-0.548639 -0.37601,-1.055018 -0.65625,-1.53125 l 1.21875,-1.21875 c 0.195869,-0.195871 0.195869,-0.491631 0,-0.6875 L 20.9375,9.6250005 c -0.195869,-0.1958697 -0.491631,-0.1958697 -0.6875,0 L 19.03125,10.843751 C 18.555018,10.563511 18.048639,10.328242 17.5,10.187501 V 8.5000003 c 0,-0.277 -0.223,-0.5 -0.5,-0.5 z M 16,13 c 1.656854,0 3,1.343147 3,3 0,1.656855 -1.343146,3 -3,3 -1.656854,0 -3,-1.343145 -3,-3 0,-1.656853 1.343146,-2.999999 3,-3 z" color="#000" display="inline" enable-background="accumulate" overflow="visible" visibility="visible" style="marker:none"/><path id="path4685" fill="none" stroke="url(#linearGradient3453)" stroke-dasharray="none" stroke-linejoin="round" stroke-miterlimit="4" stroke-opacity="1" stroke-width="1" d="m 16,19.56609 c 1.937369,0.05315 3.663354,-1.720097 3.561336,-3.654451 0.004,-1.938938 -1.81466,-3.616278 -3.744666,-3.465913 -1.939185,0.04516 -3.567078,1.907377 -3.368782,3.831972 0.104132,1.811371 1.739,3.322901 3.552112,3.288392 z" color="#000" display="inline" enable-background="accumulate" opacity=".05" overflow="visible" visibility="visible" style="marker:none"/><path d="m 15,7.9999995 c -0.277,0 -0.5,0.223 -0.5,0.5 V 10.1875 c -0.548639,0.140741 -1.055018,0.37601 -1.53125,0.65625 L 11.75,9.625 c -0.195869,-0.19587 -0.491631,-0.19587 -0.6875,0 L 9.625,11.0625 c -0.1958686,0.195869 -0.1958686,0.491631 0,0.6875 l 1.21875,1.21875 C 10.56351,13.444982 10.328241,13.951361 10.1875,14.5 H 8.5 C 8.223,14.5 8,14.723 8,15 v 2 c 0,0.277 0.223,0.5 0.5,0.5 h 1.6875 c 0.140741,0.548639 0.37601,1.055018 0.65625,1.53125 L 9.625,20.25 c -0.1958686,0.195869 -0.1958686,0.491631 0,0.6875 l 1.4375,1.4375 c 0.195869,0.195869 0.491631,0.195869 0.6875,0 l 1.21875,-1.21875 c 0.476232,0.28024 0.982611,0.515509 1.53125,0.65625 V 23.5 c 0,0.277 0.223,0.5 0.5,0.5 h 2 c 0.277,0 0.5,-0.223 0.5,-0.5 v -1.6875 c 0.548639,-0.140741 1.055018,-0.37601 1.53125,-0.65625 L 20.25,22.375 c 0.195869,0.195869 0.491631,0.195869 0.6875,0 l 1.4375,-1.4375 c 0.195869,-0.195869 0.195869,-0.491631 0,-0.6875 L 21.15625,19.03125 C 21.43649,18.555018 21.671759,18.048639 21.8125,17.5 H 23.5 c 0.277,0 0.5,-0.223 0.5,-0.5 v -2 c 0,-0.277 -0.223,-0.5 -0.5,-0.5 H 21.8125 C 21.671759,13.951361 21.43649,13.444982 21.15625,12.96875 L 22.375,11.75 c 0.195869,-0.19587 0.195869,-0.491631 0,-0.6875 L 20.9375,9.625 c -0.195869,-0.19587 -0.491631,-0.19587 -0.6875,0 l -1.21875,1.21875 C 18.555018,10.56351 18.048639,10.328241 17.5,10.1875 V 8.4999995 c 0,-0.277 -0.223,-0.5 -0.5,-0.5 z M 16,13 c 1.656854,0 3,1.343146 3,3 0,1.656854 -1.343146,3 -3,3 -1.656854,0 -3,-1.343146 -3,-3 0,-1.656854 1.343146,-3 3,-3 z" style="marker:none" id="path8121" fill="none" fill-opacity="1" fill-rule="nonzero" stroke="#000" stroke-dasharray="none" stroke-miterlimit="4" stroke-opacity="1" stroke-width="2" clip-path="url(#clipPath8125)" color="#000" display="inline" enable-background="accumulate" opacity=".05" overflow="visible" visibility="visible"/><path id="path8129" fill="none" fill-opacity="1" fill-rule="nonzero" stroke="#000" stroke-dasharray="none" stroke-miterlimit="4" stroke-opacity="1" stroke-width="1" d="m 15,7.9999995 c -0.277,0 -0.5,0.223 -0.5,0.5 V 10.1875 c -0.548639,0.140741 -1.055018,0.37601 -1.53125,0.65625 L 11.75,9.625 c -0.195869,-0.19587 -0.491631,-0.19587 -0.6875,0 L 9.625,11.0625 c -0.1958686,0.195869 -0.1958686,0.491631 0,0.6875 l 1.21875,1.21875 C 10.56351,13.444982 10.328241,13.951361 10.1875,14.5 H 8.5 C 8.223,14.5 8,14.723 8,15 v 2 c 0,0.277 0.223,0.5 0.5,0.5 h 1.6875 c 0.140741,0.548639 0.37601,1.055018 0.65625,1.53125 L 9.625,20.25 c -0.1958686,0.195869 -0.1958686,0.491631 0,0.6875 l 1.4375,1.4375 c 0.195869,0.195869 0.491631,0.195869 0.6875,0 l 1.21875,-1.21875 c 0.476232,0.28024 0.982611,0.515509 1.53125,0.65625 V 23.5 c 0,0.277 0.223,0.5 0.5,0.5 h 2 c 0.277,0 0.5,-0.223 0.5,-0.5 v -1.6875 c 0.548639,-0.140741 1.055018,-0.37601 1.53125,-0.65625 L 20.25,22.375 c 0.195869,0.195869 0.491631,0.195869 0.6875,0 l 1.4375,-1.4375 c 0.195869,-0.195869 0.195869,-0.491631 0,-0.6875 L 21.15625,19.03125 C 21.43649,18.555018 21.671759,18.048639 21.8125,17.5 H 23.5 c 0.277,0 0.5,-0.223 0.5,-0.5 v -2 c 0,-0.277 -0.223,-0.5 -0.5,-0.5 H 21.8125 C 21.671759,13.951361 21.43649,13.444982 21.15625,12.96875 L 22.375,11.75 c 0.195869,-0.19587 0.195869,-0.491631 0,-0.6875 L 20.9375,9.625 c -0.195869,-0.19587 -0.491631,-0.19587 -0.6875,0 l -1.21875,1.21875 C 18.555018,10.56351 18.048639,10.328241 17.5,10.1875 V 8.4999995 c 0,-0.277 -0.223,-0.5 -0.5,-0.5 z M 16,13 c 1.656854,0 3,1.343146 3,3 0,1.656854 -1.343146,3 -3,3 -1.656854,0 -3,-1.343146 -3,-3 0,-1.656854 1.343146,-3 3,-3 z" clip-path="url(#clipPath8125)" color="#000" display="inline" enable-background="accumulate" opacity=".1" overflow="visible" visibility="visible" style="marker:none"/></svg>