<svg xmlns="http://www.w3.org/2000/svg" xmlns:osb="http://www.openswatchbook.org/uri/2009/osb" xmlns:svg="http://www.w3.org/2000/svg" xmlns:xlink="http://www.w3.org/1999/xlink" id="svg6860" width="32" height="32" version="1.1"><defs id="defs6862"><linearGradient id="linearGradient851"><stop id="stop847" offset="0" stop-color="#cd9ef7" stop-opacity="1"/><stop id="stop849" offset="1" stop-color="#a56de2" stop-opacity="1"/></linearGradient><linearGradient id="linearGradient3924-0"><stop id="stop3926-6" offset="0" stop-color="#fff" stop-opacity="1"/><stop id="stop3928-3" offset=".04" stop-color="#fff" stop-opacity=".235"/><stop id="stop3930-2" offset=".958" stop-color="#fff" stop-opacity=".157"/><stop id="stop3932-62" offset="1" stop-color="#fff" stop-opacity=".392"/></linearGradient><linearGradient id="linearGradient3688-166-749-6"><stop id="stop2883-8" offset="0" stop-color="#181818" stop-opacity="1"/><stop id="stop2885-3" offset="1" stop-color="#181818" stop-opacity="0"/></linearGradient><linearGradient id="linearGradient3702-501-757-3"><stop id="stop2895-3" offset="0" stop-color="#181818" stop-opacity="0"/><stop id="stop2897-28" offset=".5" stop-color="#181818" stop-opacity="1"/><stop id="stop2899-8" offset="1" stop-color="#181818" stop-opacity="0"/></linearGradient><linearGradient id="linearGradient4526" osb:paint="solid"><stop id="stop4528" offset="0" stop-color="#fff" stop-opacity="1"/></linearGradient><linearGradient id="linearGradient4161-0" x1="24" x2="24" y1="6.24" y2="41.76" gradientTransform="matrix(0.67567568,0,0,0.67567568,-0.216217,-0.21620574)" gradientUnits="userSpaceOnUse" xlink:href="#linearGradient3924-0"/><radialGradient id="radialGradient2976-2" cx="4.993" cy="43.5" r="2.5" fx="4.993" fy="43.5" gradientTransform="matrix(2.003784,0,0,1.4,27.98813,-17.4)" gradientUnits="userSpaceOnUse" xlink:href="#linearGradient3688-166-749-6"/><radialGradient id="radialGradient2978-5" cx="4.993" cy="43.5" r="2.5" fx="4.993" fy="43.5" gradientTransform="matrix(2.003784,0,0,1.4,-20.01187,-104.4)" gradientUnits="userSpaceOnUse" xlink:href="#linearGradient3688-166-749-6"/><linearGradient id="linearGradient5014" x1="25.058" x2="25.058" y1="47.028" y2="39.999" gradientUnits="userSpaceOnUse" xlink:href="#linearGradient3702-501-757-3"/><linearGradient id="linearGradient853" x1="18.145" x2="18.145" y1="2.682" y2="29.318" gradientUnits="userSpaceOnUse" xlink:href="#linearGradient851"/></defs><metadata id="metadata6865"/><g id="g2036-2-5" display="inline" transform="matrix(0.6999997,0,0,0.3333336,-0.8000002,15.33333)"><g id="g3712-3-1" opacity=".4" transform="matrix(1.052632,0,0,1.285713,-1.263158,-13.42854)"><rect id="rect2801-0-5" width="5" height="7" x="38" y="40" fill="url(#radialGradient2976-2)" fill-opacity="1" stroke="none"/><rect id="rect3696-2-7" width="5" height="7" x="-10" y="-47" fill="url(#radialGradient2978-5)" fill-opacity="1" stroke="none" transform="scale(-1,-1)"/><rect id="rect3700-1-6" width="28" height="7" x="10" y="40" fill="url(#linearGradient5014)" fill-opacity="1" stroke="none"/></g></g><rect id="rect5505-9" width="27" height="27" x="2.5" y="2.5" fill="url(#linearGradient853)" fill-opacity="1" fill-rule="nonzero" stroke="none" stroke-width="1" color="#000" display="inline" enable-background="accumulate" overflow="visible" rx="2.16" ry="2.16" visibility="visible" style="marker:none"/><rect id="rect6741-7-4-90" width="25" height="25" x="3.5" y="3.5" fill="none" stroke="url(#linearGradient4161-0)" stroke-dasharray="none" stroke-dashoffset="0" stroke-linecap="round" stroke-linejoin="round" stroke-miterlimit="4" stroke-opacity="1" stroke-width="1" opacity=".5" rx="1.087" ry="1.087"/><rect id="rect5505-6-5" width="27" height="27" x="2.5" y="2.5" fill="none" fill-opacity="1" fill-rule="nonzero" stroke="#7239b3" stroke-dasharray="none" stroke-dashoffset="0" stroke-linecap="butt" stroke-linejoin="miter" stroke-miterlimit="4" stroke-opacity="1" stroke-width="1" clip-rule="nonzero" color="#000" color-interpolation="sRGB" color-interpolation-filters="linearRGB" color-rendering="auto" display="inline" enable-background="accumulate" image-rendering="auto" opacity=".5" overflow="visible" rx="2.16" ry="2.16" shape-rendering="auto" text-rendering="auto" visibility="visible" style="isolation:auto;mix-blend-mode:normal;solid-color:#000;solid-opacity:1;marker:none"/><path id="path8357-1" fill="#452981" fill-opacity="1" fill-rule="evenodd" stroke="none" stroke-dasharray="none" stroke-dashoffset="0" stroke-linecap="butt" stroke-linejoin="round" stroke-miterlimit="4" stroke-opacity="1" stroke-width="2" d="m 19.5,10 a 2.5,2.5 0 0 0 -2.5,2.5 2.5,2.5 0 0 0 0.08789,0.654297 l -3.94336,2.464844 A 2.5,2.5 0 0 0 11.5,15 2.5,2.5 0 0 0 9,17.5 2.5,2.5 0 0 0 11.5,20 2.5,2.5 0 0 0 13.101562,19.417969 l 3.97461,2.484375 A 2.5,2.5 0 0 0 17,22.5 2.5,2.5 0 0 0 19.5,25 2.5,2.5 0 0 0 22,22.5 2.5,2.5 0 0 0 19.5,20 2.5,2.5 0 0 0 17.855469,20.621094 L 13.910156,18.154297 A 2.5,2.5 0 0 0 14,17.5 2.5,2.5 0 0 0 13.92383,16.900391 l 3.972656,-2.482422 A 2.5,2.5 0 0 0 19.5,15 2.5,2.5 0 0 0 22,12.5 2.5,2.5 0 0 0 19.5,10 Z" clip-rule="nonzero" color="#000" color-interpolation="sRGB" color-interpolation-filters="linearRGB" color-rendering="auto" display="inline" enable-background="accumulate" image-rendering="auto" opacity=".15" overflow="visible" shape-rendering="auto" text-rendering="auto" visibility="visible" style="isolation:auto;mix-blend-mode:normal;solid-color:#000;solid-opacity:1"/><path id="path8359-2" fill="#452981" fill-opacity="1" fill-rule="evenodd" stroke="#000" stroke-dasharray="none" stroke-dashoffset="0" stroke-linecap="butt" stroke-linejoin="round" stroke-miterlimit="4" stroke-opacity="1" stroke-width="2" d="m 19.5,10 a 2.5,2.5 0 0 0 -2.5,2.5 2.5,2.5 0 0 0 0.08789,0.654297 l -3.94336,2.464844 A 2.5,2.5 0 0 0 11.5,15 2.5,2.5 0 0 0 9,17.5 2.5,2.5 0 0 0 11.5,20 2.5,2.5 0 0 0 13.101562,19.417969 l 3.97461,2.484375 A 2.5,2.5 0 0 0 17,22.5 2.5,2.5 0 0 0 19.5,25 2.5,2.5 0 0 0 22,22.5 2.5,2.5 0 0 0 19.5,20 2.5,2.5 0 0 0 17.855469,20.621094 L 13.910156,18.154297 A 2.5,2.5 0 0 0 14,17.5 2.5,2.5 0 0 0 13.92383,16.900391 l 3.972656,-2.482422 A 2.5,2.5 0 0 0 19.5,15 2.5,2.5 0 0 0 22,12.5 2.5,2.5 0 0 0 19.5,10 Z" clip-rule="nonzero" color="#000" color-interpolation="sRGB" color-interpolation-filters="linearRGB" color-rendering="auto" display="inline" enable-background="accumulate" image-rendering="auto" opacity=".05" overflow="visible" shape-rendering="auto" text-rendering="auto" visibility="visible" style="isolation:auto;mix-blend-mode:normal;solid-color:#000;solid-opacity:1"/><path id="path8343-1" fill="#fff" fill-opacity="1" fill-rule="evenodd" stroke="none" stroke-dasharray="none" stroke-dashoffset="0" stroke-linecap="butt" stroke-linejoin="round" stroke-miterlimit="4" stroke-opacity="1" stroke-width="2" d="M 19.5,9.0000003 A 2.5,2.5 0 0 0 17,11.5 a 2.5,2.5 0 0 0 0.08789,0.654297 l -3.94336,2.464844 A 2.5,2.5 0 0 0 11.5,14 2.5,2.5 0 0 0 9,16.5 2.5,2.5 0 0 0 11.5,19 2.5,2.5 0 0 0 13.101562,18.417969 l 3.97461,2.484375 A 2.5,2.5 0 0 0 17,21.5 2.5,2.5 0 0 0 19.5,24 2.5,2.5 0 0 0 22,21.5 2.5,2.5 0 0 0 19.5,19 2.5,2.5 0 0 0 17.855469,19.621094 L 13.910156,17.154297 A 2.5,2.5 0 0 0 14,16.5 2.5,2.5 0 0 0 13.92383,15.900391 l 3.972656,-2.482422 A 2.5,2.5 0 0 0 19.5,14 2.5,2.5 0 0 0 22,11.5 2.5,2.5 0 0 0 19.5,9.0000003 Z" clip-rule="nonzero" color="#000" color-interpolation="sRGB" color-interpolation-filters="linearRGB" color-rendering="auto" display="inline" enable-background="accumulate" image-rendering="auto" opacity="1" overflow="visible" shape-rendering="auto" text-rendering="auto" visibility="visible" style="isolation:auto;mix-blend-mode:normal;solid-color:#000;solid-opacity:1"/></svg>