<svg xmlns="http://www.w3.org/2000/svg" xmlns:svg="http://www.w3.org/2000/svg" xmlns:xlink="http://www.w3.org/1999/xlink" id="svg4121" width="32" height="32" version="1.1"><defs id="defs4123"><linearGradient id="linearGradient841"><stop id="stop837" offset="0" stop-color="#ffe16b" stop-opacity="1"/><stop id="stop839" offset="1" stop-color="#f9c440" stop-opacity="1"/></linearGradient><linearGradient id="linearGradient3220" x1="71.204" x2="71.204" y1="15.369" y2="40.496" gradientTransform="matrix(1.1022033,0,0,1.1022038,-63.55275,-14.715001)" gradientUnits="userSpaceOnUse" xlink:href="#linearGradient4806-9"/><linearGradient id="linearGradient4806-9"><stop id="stop4808-49" offset="0" stop-color="#fff" stop-opacity="1"/><stop id="stop4810-05" offset=".424" stop-color="#fff" stop-opacity=".235"/><stop id="stop4812-6" offset=".821" stop-color="#fff" stop-opacity=".157"/><stop id="stop4814-7" offset="1" stop-color="#fff" stop-opacity=".392"/></linearGradient><linearGradient id="linearGradient3820-7-2-2"><stop id="stop3822-2-6-36" offset="0" stop-color="#3d3d3d" stop-opacity="1"/><stop id="stop3864-8-7-6" offset=".5" stop-color="#686868" stop-opacity=".498"/><stop id="stop3824-1-2-4" offset="1" stop-color="#686868" stop-opacity="0"/></linearGradient><radialGradient id="radialGradient4119" cx="99.157" cy="186.171" r="62.769" fx="99.157" fy="186.171" gradientTransform="matrix(0.17524541,0,0,0.05575992,-1.37681,18.119145)" gradientUnits="userSpaceOnUse" xlink:href="#linearGradient3820-7-2-2"/><linearGradient id="linearGradient843" x1="1.5" x2="30.5" y1="16" y2="16" gradientTransform="rotate(90,16,16)" gradientUnits="userSpaceOnUse" xlink:href="#linearGradient841"/></defs><metadata id="metadata4126"/><path id="path3818-0-2" fill="url(#radialGradient4119)" fill-opacity="1" stroke="none" d="m 27.000001,28.499999 a 11,3.4999999 0 1 1 -21.9999996,0 11,3.4999999 0 1 1 21.9999996,0 z"/><path id="path2555-7-65" fill="url(#linearGradient843)" fill-opacity="1" fill-rule="nonzero" stroke="none" stroke-width="1" d="M 30.499807,16 C 30.499807,7.999507 24.000493,1.500193 16,1.500193 7.999507,1.500193 1.500191,7.999507 1.500193,16 c 0,8.000492 6.499314,14.499812 14.499807,14.499807 8.000493,0 14.499807,-6.499315 14.499807,-14.499807 z" color="#000" display="inline" enable-background="accumulate" overflow="visible" visibility="visible" style="marker:none"/><path id="path2555-7-1-7" fill="none" stroke="#ad5f00" stroke-dasharray="none" stroke-dashoffset="0" stroke-linecap="round" stroke-linejoin="round" stroke-miterlimit="4" stroke-opacity="1" stroke-width="1" d="M 16,1.5 C 7.9994,1.5 1.5,7.999399 1.5,15.999999 1.5,24.0006 7.9994,30.500003 16,30.5 24.0006,30.5 30.50001,24.0006 30.5,15.999999 30.5,7.999399 24.0006,1.5 16,1.5 Z" color="#000" display="inline" enable-background="accumulate" opacity=".5" overflow="visible" visibility="visible" style="marker:none"/><path id="path3421" fill="none" stroke="url(#linearGradient3220)" stroke-dasharray="none" stroke-dashoffset="0" stroke-linecap="round" stroke-linejoin="round" stroke-miterlimit="4" stroke-opacity="1" stroke-width="1" d="M 29.5,16 C 29.5,23.455845 23.45583,29.5 16,29.5 8.54417,29.5 2.5,23.455845 2.5,16 2.5,8.544157 8.54417,2.5 16,2.5 23.45583,2.5 29.5,8.544157 29.5,16 Z" color="#000" display="inline" enable-background="accumulate" opacity=".8" overflow="visible" visibility="visible" style="marker:none"/><path d="M 19,8.5 11.5,19 16.000001,19 13,26.5 20.5,16 17.125001,16 Z" style="marker:none" id="path8101" fill="#fff" fill-opacity="1" fill-rule="nonzero" stroke="none" stroke-width="1" display="inline" enable-background="accumulate" opacity=".4" overflow="visible" visibility="visible"/><path id="path3172" fill="#333" fill-opacity="1" fill-rule="nonzero" stroke="none" stroke-width="1" d="M 19,7.5 11.5,18 16.000001,18 13,25.5 20.5,15 17.125001,15 Z" display="inline" enable-background="accumulate" overflow="visible" visibility="visible" style="marker:none"/></svg>