<svg xmlns="http://www.w3.org/2000/svg" xmlns:svg="http://www.w3.org/2000/svg" xmlns:xlink="http://www.w3.org/1999/xlink" id="svg4715" width="32" height="32" version="1.1"><defs id="defs4717"><linearGradient id="linearGradient909"><stop id="stop905" offset="0" stop-color="#fafafa" stop-opacity="1"/><stop id="stop907" offset="1" stop-color="#d4d4d4" stop-opacity="1"/></linearGradient><linearGradient id="linearGradient3924"><stop id="stop3926" offset="0" stop-color="#fff" stop-opacity="1"/><stop id="stop3928" offset=".04" stop-color="#fff" stop-opacity=".235"/><stop id="stop3930" offset=".958" stop-color="#fff" stop-opacity=".157"/><stop id="stop3932" offset="1" stop-color="#fff" stop-opacity=".392"/></linearGradient><radialGradient id="radialGradient3163" cx="4.993" cy="43.5" r="2.5" fx="4.993" fy="43.5" gradientTransform="matrix(2.003784,0,0,1.4,27.98813,-17.4)" gradientUnits="userSpaceOnUse" xlink:href="#linearGradient3688-166-749"/><linearGradient id="linearGradient3688-166-749"><stop id="stop2883" offset="0" stop-color="#181818" stop-opacity="1"/><stop id="stop2885" offset="1" stop-color="#181818" stop-opacity="0"/></linearGradient><radialGradient id="radialGradient3165" cx="4.993" cy="43.5" r="2.5" fx="4.993" fy="43.5" gradientTransform="matrix(2.003784,0,0,1.4,-20.01187,-104.4)" gradientUnits="userSpaceOnUse" xlink:href="#linearGradient3688-464-309"/><linearGradient id="linearGradient3688-464-309"><stop id="stop2889" offset="0" stop-color="#181818" stop-opacity="1"/><stop id="stop2891" offset="1" stop-color="#181818" stop-opacity="0"/></linearGradient><linearGradient id="linearGradient3167" x1="25.058" x2="25.058" y1="47.028" y2="39.999" gradientUnits="userSpaceOnUse" xlink:href="#linearGradient3702-501-757"/><linearGradient id="linearGradient3702-501-757"><stop id="stop2895" offset="0" stop-color="#181818" stop-opacity="0"/><stop id="stop2897" offset=".5" stop-color="#181818" stop-opacity="1"/><stop id="stop2899" offset="1" stop-color="#181818" stop-opacity="0"/></linearGradient><linearGradient id="linearGradient3027" x1="24" x2="24" y1="6.24" y2="41.76" gradientTransform="matrix(0.67567568,0,0,0.67567567,-32.216213,-0.21620877)" gradientUnits="userSpaceOnUse" xlink:href="#linearGradient3924"/><linearGradient id="linearGradient903" x1="14.33" x2="14.33" y1="32.022" y2="-.07" gradientTransform="translate(-32,-32)" gradientUnits="userSpaceOnUse" xlink:href="#linearGradient909"/><linearGradient id="linearGradient4011-2-96"><stop id="stop4013-5-8" offset="0" stop-color="#fff" stop-opacity="1"/><stop id="stop4015-3-48" offset=".508" stop-color="#fff" stop-opacity=".235"/><stop id="stop4017-7-1" offset=".835" stop-color="#fff" stop-opacity=".157"/><stop id="stop4019-6-4" offset="1" stop-color="#fff" stop-opacity=".392"/></linearGradient><linearGradient id="linearGradient3086-3" x1="71.204" x2="71.204" y1="6.884" y2="41.983" gradientTransform="matrix(-0.29729726,0,0,0.29729726,29.326177,-0.5386372)" gradientUnits="userSpaceOnUse" xlink:href="#linearGradient4011-2-96"/><linearGradient id="linearGradient1388" x1="18.5" x2="18.5" y1=".5" y2="10.473" gradientTransform="matrix(-1.3,0,0,1.3,32.05,-0.1500004)" gradientUnits="userSpaceOnUse" xlink:href="#linearGradient1386"/><linearGradient id="linearGradient1386"><stop id="stop1382" offset="0" stop-color="#ed5353" stop-opacity="1"/><stop id="stop1384" offset="1" stop-color="#c6262e" stop-opacity="1"/></linearGradient></defs><metadata id="metadata4720"/><g id="g2036" display="inline" transform="matrix(-0.6999997,0,0,0.44444486,32.8,10.111104)"><g id="g3712" opacity=".4" transform="matrix(1.052632,0,0,1.285713,-1.263158,-13.42854)"><rect id="rect2801" width="5" height="7" x="38" y="40" fill="url(#radialGradient3163)" fill-opacity="1" stroke="none"/><rect id="rect3696" width="5" height="7" x="-10" y="-47" fill="url(#radialGradient3165)" fill-opacity="1" stroke="none" transform="scale(-1)"/><rect id="rect3700" width="28" height="7" x="10" y="40" fill="url(#linearGradient3167)" fill-opacity="1" stroke="none"/></g></g><rect id="rect5505" width="26" height="26" x="-29" y="-29" fill="url(#linearGradient903)" fill-opacity="1" fill-rule="nonzero" stroke="none" stroke-width="1" color="#000" display="inline" enable-background="accumulate" overflow="visible" rx="1.615" ry="1.615" transform="scale(-1)" visibility="visible" style="marker:none"/><rect stroke-opacity="1" style="marker:none" id="rect5505-6-6" width="27" height="27" x="-29.5" y="2.5" fill="none" stroke="#555761" stroke-dasharray="none" stroke-dashoffset="0" stroke-linecap="round" stroke-linejoin="round" stroke-miterlimit="4" stroke-width="1" color="#000" display="inline" enable-background="accumulate" opacity=".5" overflow="visible" rx="2.16" ry="2.16" transform="scale(-1,1)" visibility="visible"/><rect id="rect6741-7" width="25" height="25" x="-28.5" y="3.5" fill="none" stroke="url(#linearGradient3027)" stroke-dasharray="none" stroke-dashoffset="0" stroke-linecap="round" stroke-linejoin="round" stroke-miterlimit="4" stroke-opacity="1" stroke-width="1" rx="1.087" ry="1.19" transform="scale(-1,1)"/><path id="path2555-3-4-1" fill="#000" fill-opacity="1" stroke="none" d="m 8,0.50000007 c 4.13824,0 7.5,3.36175823 7.5,7.50000013 C 15.5,12.138242 12.13824,15.500001 8,15.5 3.861758,15.5 0.499995,12.138242 0.5,8.0000002 0.5,3.8617582 3.861758,0.49999997 8,0.50000007 Z" opacity=".05"/><path id="path2555-3-4" fill="#000" fill-opacity="1" stroke="none" d="m 8,1.5000001 c 3.586475,0 6.5,2.9135238 6.5,6.5000001 C 14.5,11.586476 11.586475,14.500001 8,14.5 4.413524,14.5 1.499996,11.586476 1.5,8.0000002 1.5,4.4135238 4.413524,1.5 8,1.5000001 Z" opacity=".15"/><path id="path2555-3-3" fill="url(#linearGradient1388)" fill-opacity="1" stroke="none" stroke-width="1" d="m 8,0.4999996 c 3.586475,0 6.5,2.9135236 6.5,6.5 C 14.5,10.586475 11.586475,13.500001 8,13.5 4.413524,13.5 1.499997,10.586475 1.5,6.9999996 c 0,-3.5864764 2.913524,-6.5 6.5,-6.5 z"/><path id="path8655-5" fill="none" stroke="url(#linearGradient3086-3)" stroke-dasharray="none" stroke-dashoffset="0" stroke-linecap="round" stroke-linejoin="round" stroke-miterlimit="4" stroke-opacity="1" stroke-width="1" d="m 2.5,6.9998058 c 0,3.0376632 2.462614,5.5001932 5.49993,5.5001932 3.037592,0 5.50007,-2.462558 5.50007,-5.5001932 C 13.5,3.9622823 11.037522,1.500001 7.99993,1.500001 4.962614,1.500001 2.5,3.9622823 2.5,6.9998058 Z" color="#000" display="inline" enable-background="accumulate" opacity=".5" overflow="visible" visibility="visible" style="marker:none"/><path id="path2555-2-6" fill="none" stroke="#6f0000" stroke-dasharray="none" stroke-dashoffset="0" stroke-linecap="round" stroke-linejoin="round" stroke-miterlimit="4" stroke-opacity="1" stroke-width="1" d="m 8,0.4999984 c 3.586476,0 6.5,2.9135249 6.5,6.5 C 14.5,10.586476 11.586476,13.500001 8,13.5 4.413524,13.5 1.499997,10.586476 1.5,6.9999984 c 0,-3.5864751 2.913524,-6.5 6.5,-6.5 z" color="#000" display="inline" enable-background="accumulate" opacity=".5" overflow="visible" visibility="visible" style="marker:none"/></svg>