<svg xmlns="http://www.w3.org/2000/svg" xmlns:svg="http://www.w3.org/2000/svg" xmlns:xlink="http://www.w3.org/1999/xlink" id="svg4354" width="32" height="32" version="1.1" viewBox="0 0 32 32"><defs id="defs4356"><linearGradient id="linearGradient872"><stop id="stop868" offset="0" stop-color="#64baff" stop-opacity="1"/><stop id="stop870" offset="1" stop-color="#3689e6" stop-opacity="1"/></linearGradient><linearGradient id="linearGradient4251" x1="19.875" x2="19.875" y1="38.245" y2="-61.256" gradientTransform="matrix(-0.29999995,0,0,0.29999995,34.258887,19.300002)" gradientUnits="userSpaceOnUse" xlink:href="#linearGradient3707-319-631-407-1-846-5-4-5-44"/><linearGradient id="linearGradient3707-319-631-407-1-846-5-4-5-44"><stop id="stop3788-4-8-9-7" offset="0" stop-color="#365a7c" stop-opacity="1"/><stop id="stop3790-2-1-9-6" offset="1" stop-color="#5ea1ca" stop-opacity="1"/></linearGradient><linearGradient id="linearGradient4253" x1="19.875" x2="19.875" y1="38.245" y2="-61.256" gradientTransform="matrix(-0.29999995,0,0,0.29999995,28.258887,19.300002)" gradientUnits="userSpaceOnUse" xlink:href="#linearGradient3707-319-631-407-1-846-5-4-5-4"/><linearGradient id="linearGradient3707-319-631-407-1-846-5-4-5-4"><stop id="stop3788-4-8-9-8" offset="0" stop-color="#365a7c" stop-opacity="1"/><stop id="stop3790-2-1-9-10" offset="1" stop-color="#5ea1ca" stop-opacity="1"/></linearGradient><linearGradient id="linearGradient4255" x1="19.875" x2="19.875" y1="38.245" y2="-61.256" gradientTransform="matrix(-0.29999995,0,0,0.29999995,22.258887,19.300002)" gradientUnits="userSpaceOnUse" xlink:href="#linearGradient3707-319-631-407-1-846-5-4-5-6"/><linearGradient id="linearGradient3707-319-631-407-1-846-5-4-5-6"><stop id="stop3788-4-8-9-1" offset="0" stop-color="#365a7c" stop-opacity="1"/><stop id="stop3790-2-1-9-1" offset="1" stop-color="#5ea1ca" stop-opacity="1"/></linearGradient><linearGradient id="linearGradient4257" x1="19.875" x2="19.875" y1="38.245" y2="-61.256" gradientTransform="matrix(-0.29999995,0,0,0.29999995,16.258887,19.300002)" gradientUnits="userSpaceOnUse" xlink:href="#linearGradient3707-319-631-407-1-846-5-4-5"/><linearGradient id="linearGradient3707-319-631-407-1-846-5-4-5"><stop id="stop3788-4-8-9" offset="0" stop-color="#365a7c" stop-opacity="1"/><stop id="stop3790-2-1-9" offset="1" stop-color="#5ea1ca" stop-opacity="1"/></linearGradient><linearGradient id="linearGradient3141" x1="24" x2="24" y1="6.271" y2="41.729" gradientTransform="matrix(0.72972972,0,0,0.64864869,-1.5135104,0.93243894)" gradientUnits="userSpaceOnUse" xlink:href="#linearGradient3924"/><linearGradient id="linearGradient3924"><stop id="stop3926" offset="0" stop-color="#fff" stop-opacity="1"/><stop id="stop3928" offset=".042" stop-color="#fff" stop-opacity=".235"/><stop id="stop3930" offset=".951" stop-color="#fff" stop-opacity=".157"/><stop id="stop3932" offset="1" stop-color="#fff" stop-opacity=".392"/></linearGradient><radialGradient id="radialGradient2910" cx="605.714" cy="486.648" r="117.143" fx="605.714" fy="486.648" gradientTransform="matrix(-0.04372487,0,0,0.01647059,31.794815,21.294422)" gradientUnits="userSpaceOnUse" xlink:href="#linearGradient5060-6-6-5"/><linearGradient id="linearGradient5060-6-6-5"><stop id="stop5062-3-0-3" offset="0" stop-color="#000" stop-opacity="1"/><stop id="stop5064-1-4-9" offset="1" stop-color="#000" stop-opacity="0"/></linearGradient><radialGradient id="radialGradient2913" cx="605.714" cy="486.648" r="117.143" fx="605.714" fy="486.648" gradientTransform="matrix(0.04372487,0,0,0.01647059,0.20519206,21.294422)" gradientUnits="userSpaceOnUse" xlink:href="#linearGradient5060-6-6-5"/><linearGradient id="linearGradient5048-7-7-5"><stop id="stop5050-5-6-4" offset="0" stop-color="#000" stop-opacity="0"/><stop id="stop5056-9-0-1" offset=".5" stop-color="#000" stop-opacity="1"/><stop id="stop5052-6-9-5" offset="1" stop-color="#000" stop-opacity="0"/></linearGradient><linearGradient id="linearGradient4352" x1="302.857" x2="302.857" y1="366.648" y2="609.505" gradientTransform="matrix(0.04372487,0,0,0.01647059,0.19658512,21.294422)" gradientUnits="userSpaceOnUse" xlink:href="#linearGradient5048-7-7-5"/><linearGradient id="linearGradient874" x1="16" x2="16" y1="3" y2="29.567" gradientUnits="userSpaceOnUse" xlink:href="#linearGradient872"/></defs><metadata id="metadata4359"/><rect id="rect2512-9-5" width="21.113" height="4" x="5.444" y="27.333" fill="url(#linearGradient4352)" fill-opacity="1" fill-rule="nonzero" stroke="none" stroke-width="1" display="inline" opacity=".402" overflow="visible" visibility="visible" style="marker:none"/><path d="m 26.556432,27.333467 c 0,0 0,3.999779 0,3.999779 C 28.808154,31.340773 32,30.437099 32,29.333099 c 0,-1.104 -2.512752,-1.999632 -5.443568,-1.999632 z" style="marker:none" id="path2514-7-4" fill="url(#radialGradient2913)" fill-opacity="1" fill-rule="nonzero" stroke="none" stroke-width="1" display="inline" opacity=".402" overflow="visible" visibility="visible"/><path d="m 5.4435678,27.333467 c 0,0 0,3.999779 0,3.999779 C 3.1918461,31.340773 0,30.437099 0,29.333099 c 0,-1.104 2.5127521,-1.999632 5.4435678,-1.999632 z" style="marker:none" id="path2516-8-9" fill="url(#radialGradient2910)" fill-opacity="1" fill-rule="nonzero" stroke="none" stroke-width="1" display="inline" opacity=".402" overflow="visible" visibility="visible"/><rect id="rect5505" width="29" height="26" x="1.5" y="3.5" fill="url(#linearGradient874)" fill-opacity="1" fill-rule="nonzero" stroke="none" stroke-dasharray="none" stroke-dashoffset="0" stroke-linecap="round" stroke-linejoin="round" stroke-miterlimit="4" stroke-opacity="1" stroke-width="1" color="#000" display="inline" enable-background="accumulate" overflow="visible" rx="2" ry="2.08" visibility="visible" style="marker:none"/><path id="path4306" fill="#fff" fill-opacity=".588" stroke="#fff" stroke-linecap="butt" stroke-linejoin="miter" stroke-opacity="1" stroke-width="1" d="m 5.5,25.5 c -0.554,0 -1,0.446 -1,1 v 2 h 23 v -2 c 0,-0.554 -0.446,-1 -1,-1 z" opacity=".7"/><path id="path3184" fill="url(#linearGradient4257)" fill-opacity="1" fill-rule="nonzero" stroke="none" stroke-width="1" d="M 9.118401,22.000001 H 4.8815972 C 4.3931925,22.000001 4,22.393194 4,22.881598 v 4.236805 C 4,27.606808 4.3931925,28 4.8815972,28 H 9.118401 C 9.606807,28 10,27.606808 10,27.118403 V 22.881598 C 10,22.393194 9.606807,22.000001 9.118401,22.000001 Z" color="#000" display="inline" enable-background="accumulate" opacity=".3" overflow="visible" visibility="visible" style="marker:none"/><path id="path3176" fill="#f7f7f7" fill-opacity="1" fill-rule="nonzero" stroke="#fff" stroke-dashoffset="0" stroke-linecap="butt" stroke-linejoin="miter" stroke-miterlimit="4" stroke-opacity="1" stroke-width=".985" d="M 8.206706,23.492713 H 5.7932951 c -0.1665219,0 -0.3005814,0.13406 -0.3005814,0.300581 v 2.413411 c 0,0.166522 0.1340595,0.300581 0.3005814,0.300581 H 8.206706 c 0.1665209,0 0.3005805,-0.134059 0.3005805,-0.300581 v -2.413411 c 0,-0.166521 -0.1340596,-0.300581 -0.3005805,-0.300581 z" color="#000" display="inline" enable-background="accumulate" overflow="visible" visibility="visible" style="marker:none"/><path id="path3184-5" fill="url(#linearGradient4255)" fill-opacity="1" fill-rule="nonzero" stroke="none" stroke-width="1" d="M 15.118401,22.000001 H 10.881597 C 10.393193,22.000001 10,22.393194 10,22.881598 v 4.236805 C 10,27.606808 10.393193,28 10.881597,28 h 4.236804 C 15.606807,28 16,27.606808 16,27.118403 v -4.236805 c 0,-0.488404 -0.393193,-0.881597 -0.881599,-0.881597 z" color="#000" display="inline" enable-background="accumulate" opacity=".3" overflow="visible" visibility="visible" style="marker:none"/><path id="path3176-9" fill="#f7f7f7" fill-opacity="1" fill-rule="nonzero" stroke="#fff" stroke-dashoffset="0" stroke-linecap="butt" stroke-linejoin="miter" stroke-miterlimit="4" stroke-opacity="1" stroke-width=".985" d="m 14.206706,23.492713 h -2.413411 c -0.166522,0 -0.300581,0.13406 -0.300581,0.300581 v 2.413411 c 0,0.166522 0.134059,0.300581 0.300581,0.300581 h 2.413411 c 0.166521,0 0.300581,-0.134059 0.300581,-0.300581 v -2.413411 c 0,-0.166521 -0.13406,-0.300581 -0.300581,-0.300581 z" color="#000" display="inline" enable-background="accumulate" overflow="visible" visibility="visible" style="marker:none"/><path id="path3184-0" fill="url(#linearGradient4253)" fill-opacity="1" fill-rule="nonzero" stroke="none" stroke-width="1" d="M 21.118401,22.000001 H 16.881597 C 16.393193,22.000001 16,22.393194 16,22.881598 v 4.236805 C 16,27.606808 16.393193,28 16.881597,28 h 4.236804 C 21.606807,28 22,27.606808 22,27.118403 v -4.236805 c 0,-0.488404 -0.393193,-0.881597 -0.881599,-0.881597 z" color="#000" display="inline" enable-background="accumulate" opacity=".3" overflow="visible" visibility="visible" style="marker:none"/><path id="path3176-4" fill="#f7f7f7" fill-opacity="1" fill-rule="nonzero" stroke="#fff" stroke-dashoffset="0" stroke-linecap="butt" stroke-linejoin="miter" stroke-miterlimit="4" stroke-opacity="1" stroke-width=".985" d="m 20.206706,23.492713 h -2.413411 c -0.166522,0 -0.300581,0.13406 -0.300581,0.300581 v 2.413411 c 0,0.166522 0.134059,0.300581 0.300581,0.300581 h 2.413411 c 0.166521,0 0.300581,-0.134059 0.300581,-0.300581 v -2.413411 c 0,-0.166521 -0.13406,-0.300581 -0.300581,-0.300581 z" color="#000" display="inline" enable-background="accumulate" overflow="visible" visibility="visible" style="marker:none"/><path id="path3184-7" fill="url(#linearGradient4251)" fill-opacity="1" fill-rule="nonzero" stroke="none" stroke-width="1" d="M 27.118401,22.000001 H 22.881597 C 22.393193,22.000001 22,22.393194 22,22.881598 v 4.236805 C 22,27.606808 22.393193,28 22.881597,28 h 4.236804 C 27.606807,28 28,27.606808 28,27.118403 v -4.236805 c 0,-0.488404 -0.393193,-0.881597 -0.881599,-0.881597 z" color="#000" display="inline" enable-background="accumulate" opacity=".3" overflow="visible" visibility="visible" style="marker:none"/><path id="path3176-5" fill="#f7f7f7" fill-opacity="1" fill-rule="nonzero" stroke="#fff" stroke-dashoffset="0" stroke-linecap="butt" stroke-linejoin="miter" stroke-miterlimit="4" stroke-opacity="1" stroke-width=".985" d="m 26.206706,23.492713 h -2.413411 c -0.166522,0 -0.300581,0.13406 -0.300581,0.300581 v 2.413411 c 0,0.166522 0.134059,0.300581 0.300581,0.300581 h 2.413411 c 0.166521,0 0.300581,-0.134059 0.300581,-0.300581 v -2.413411 c 0,-0.166521 -0.13406,-0.300581 -0.300581,-0.300581 z" color="#000" display="inline" enable-background="accumulate" overflow="visible" visibility="visible" style="marker:none"/><rect id="rect5505-1" width="29" height="26" x="1.5" y="3.5" fill="#000" fill-opacity="0" fill-rule="nonzero" stroke="#002e99" stroke-dasharray="none" stroke-dashoffset="0" stroke-linecap="round" stroke-linejoin="round" stroke-miterlimit="4" stroke-opacity="1" stroke-width="1" clip-rule="nonzero" color="#000" color-interpolation="sRGB" color-interpolation-filters="linearRGB" color-rendering="auto" display="inline" enable-background="accumulate" image-rendering="auto" opacity=".5" overflow="visible" rx="2" ry="2.08" shape-rendering="auto" text-rendering="auto" visibility="visible" style="isolation:auto;mix-blend-mode:normal;solid-color:#000;solid-opacity:1;marker:none"/><rect id="rect6741-7" width="27" height="24" x="2.5" y="4.5" fill="none" stroke="url(#linearGradient3141)" stroke-dasharray="none" stroke-dashoffset="0" stroke-linecap="round" stroke-linejoin="round" stroke-miterlimit="4" stroke-opacity="1" stroke-width="1" opacity=".5" rx="1" ry="1.043"/></svg>