<svg xmlns="http://www.w3.org/2000/svg" xmlns:svg="http://www.w3.org/2000/svg" xmlns:xlink="http://www.w3.org/1999/xlink" id="svg3172" width="128" height="128" version="1.1"><defs id="defs3174"><linearGradient id="linearGradient3600"><stop id="stop3602" offset="0" stop-color="#f4f4f4" stop-opacity="1"/><stop id="stop3604" offset="1" stop-color="#dbdbdb" stop-opacity="1"/></linearGradient><linearGradient id="linearGradient3702-501-757-486"><stop id="stop3100" offset="0" stop-color="#181818" stop-opacity="0"/><stop id="stop3102" offset=".5" stop-color="#181818" stop-opacity="1"/><stop id="stop3104" offset="1" stop-color="#181818" stop-opacity="0"/></linearGradient><linearGradient id="linearGradient3688-464-309-255"><stop id="stop3094" offset="0" stop-color="#181818" stop-opacity="1"/><stop id="stop3096" offset="1" stop-color="#181818" stop-opacity="0"/></linearGradient><linearGradient id="linearGradient3019-2" x1="25.132" x2="25.132" y1=".985" y2="47.013" gradientTransform="matrix(2.6285655,0,0,2.5204893,0.914429,-4.3579715)" gradientUnits="userSpaceOnUse" xlink:href="#linearGradient3600"/><linearGradient id="linearGradient3016-9" x1="24" x2="24" y1="5.564" y2="42.195" gradientTransform="matrix(2.4594595,0,0,3.1081081,4.9729852,-14.594554)" gradientUnits="userSpaceOnUse" xlink:href="#linearGradient3977-3"/><linearGradient id="linearGradient3977-3"><stop id="stop3979-6" offset="0" stop-color="#fff" stop-opacity="1"/><stop id="stop3981-0" offset=".006" stop-color="#fff" stop-opacity=".235"/><stop id="stop3983-6" offset=".994" stop-color="#fff" stop-opacity=".157"/><stop id="stop3985-2" offset="1" stop-color="#fff" stop-opacity=".392"/></linearGradient><linearGradient id="linearGradient3148" x1="-51.786" x2="-51.786" y1="50.786" y2="2.906" gradientTransform="matrix(2.1456297,0,0,2.3791292,158.08983,-7.746462)" gradientUnits="userSpaceOnUse" xlink:href="#linearGradient3104-6"/><linearGradient id="linearGradient3104-6"><stop id="stop3106-3" offset="0" stop-color="#000" stop-opacity=".318"/><stop id="stop3108-9" offset="1" stop-color="#000" stop-opacity=".24"/></linearGradient><linearGradient id="linearGradient4097" x1="25.058" x2="25.058" y1="47.028" y2="39.999" gradientTransform="matrix(2.8421052,0,0,0.71428566,-4.2105336,87.430066)" gradientUnits="userSpaceOnUse" xlink:href="#linearGradient3702-501-757-486"/><radialGradient id="radialGradient4095" cx="4.993" cy="43.5" r="2.5" fx="4.993" fy="43.5" gradientTransform="matrix(5.6949649,0,0,0.99999992,-52.665305,-162.00149)" gradientUnits="userSpaceOnUse" xlink:href="#linearGradient3688-464-309-255"/><radialGradient id="radialGradient4093" cx="4.993" cy="43.5" r="2.5" fx="4.993" fy="43.5" gradientTransform="matrix(5.6949649,0,0,0.99999992,75.334676,75.001496)" gradientUnits="userSpaceOnUse" xlink:href="#linearGradient3688-464-309-255"/><linearGradient id="linearGradient856" x1="60.446" x2="60.446" y1="1.557" y2="117.926" gradientUnits="userSpaceOnUse" xlink:href="#linearGradient854"/><linearGradient id="linearGradient854"><stop id="stop850" offset="0" stop-color="#a56de2" stop-opacity="1"/><stop id="stop852" offset="1" stop-color="#7239b3" stop-opacity="1"/></linearGradient></defs><metadata id="metadata3177"/><g id="g978" stroke-width="1.039" opacity=".2" transform="matrix(0.92592591,0,0,1,4.7407489,0)"><rect id="rect2801" width="14.211" height="5" x="103.789" y="116.001" fill="url(#radialGradient4093)" fill-opacity="1" stroke="none" stroke-width="1.481"/><rect id="rect3696" width="14.211" height="5" x="-24.211" y="-121.001" fill="url(#radialGradient4095)" fill-opacity="1" stroke="none" stroke-width="1.481" transform="scale(-1)"/><rect id="rect3700" width="79.579" height="5" x="24.211" y="116.001" fill="url(#linearGradient4097)" fill-opacity="1" stroke="none" stroke-width="1.481"/></g><path id="path4160" fill="url(#linearGradient3019-2)" fill-opacity="1" stroke="none" d="m 18,2.0004521 c 21.081878,0 91.99989,0.00694 91.99989,0.00694 L 110,118 c 0,0 -61.333339,0 -91.999999,0 0,-38.666664 0,-77.33333 0,-115.999995 z" display="inline"/><path id="rect6741-1" fill="none" stroke="url(#linearGradient3016-9)" stroke-dasharray="none" stroke-dashoffset="0" stroke-linecap="round" stroke-linejoin="round" stroke-miterlimit="4" stroke-opacity="1" stroke-width="1" d="m 109.5,117.5 h -91 V 2.500002 h 91 z"/><path id="path4160-6-1" fill="none" stroke="url(#linearGradient3148)" stroke-dasharray="none" stroke-dashoffset="0" stroke-linecap="butt" stroke-linejoin="round" stroke-miterlimit="4" stroke-opacity="1" stroke-width="1" d="m 17.500001,1.49999 c 21.311001,0 92.999899,0.008 92.999899,0.008 l 1e-4,116.99202 c 0,0 -61.999997,0 -92.999999,0 0,-39.000096 0,-77.999807 0,-116.999456 z" display="inline"/><path display="inline" style="line-height:125%;-inkscape-font-specification:'Open Sans Semi-Bold';text-align:center;isolation:auto;mix-blend-mode:normal;solid-color:#000;solid-opacity:1;marker:none" id="text3028-0" fill="url(#linearGradient856)" fill-opacity="1" fill-rule="nonzero" stroke="none" stroke-dasharray="none" stroke-dashoffset="0" stroke-linecap="butt" stroke-linejoin="round" stroke-miterlimit="4" stroke-opacity="1" stroke-width="1" d="m 63.750004,46.71885 c -2.718756,2.6e-5 -5.246096,0.613306 -7.625,1.9375 l 1.4375,3.125001 c 0.902342,-0.445292 1.863278,-0.808572 2.8125,-1.125 0.949214,-0.316384 1.949212,-0.499978 3.0625,-0.5 1.23046,2.2e-5 2.21874,0.285178 2.875,0.8125 0.656238,0.527366 0.937488,1.265646 0.9375,2.25 -1.2e-5,0.843767 -0.15236,1.578142 -0.5625,2.1875 -0.398448,0.609392 -1.292978,1.460954 -2.6875,2.5625 -1.171882,0.914075 -2.031256,1.769543 -2.5,2.625 -0.468756,0.85548 -0.687504,1.960948 -0.6875,3.25 v 1.125 h 3.4375 v -0.8125 c -8e-6,-0.94921 0.1992,-1.68749 0.5625,-2.25 0.37499,-0.562489 1.097646,-1.26952 2.1875,-2.125 1.277332,-0.996081 2.171862,-1.816392 2.6875,-2.4375 0.52733,-0.621078 0.929672,-1.257796 1.1875,-1.9375 0.257798,-0.691389 0.374984,-1.496074 0.375,-2.375 -1.6e-5,-1.980448 -0.652358,-3.499977 -2,-4.625 -1.347668,-1.124975 -3.203136,-1.687475 -5.5,-1.687501 z m -13.75,1.25 -18,10.000001 v 4 l 18,10 v -4 l -14,-7.992188 14,-8.007812 z m 28,0 v 4.000001 l 14,8.007812 -14,7.992188 v 4 l 18,-10 v -4 z m -15.3125,19.937501 c -1.722662,4e-6 -2.625004,0.917972 -2.625,2.6875 -4e-6,0.855469 0.242184,1.519531 0.6875,2 0.445308,0.46875 1.105462,0.6875 1.9375,0.6875 0.832024,0 1.42968,-0.269532 1.875,-0.75 0.457022,-0.492187 0.68749,-1.105469 0.6875,-1.9375 -1e-5,-0.843746 -0.1797,-1.542967 -0.625,-2 -0.44532,-0.468746 -1.093758,-0.687496 -1.9375,-0.6875 z" clip-rule="nonzero" color="#000" color-interpolation="sRGB" color-interpolation-filters="linearRGB" color-rendering="auto" enable-background="accumulate" font-family="Open Sans" font-size="18" font-stretch="normal" font-style="normal" font-variant="normal" font-weight="600" image-rendering="auto" letter-spacing="0" opacity="1" overflow="visible" shape-rendering="auto" text-anchor="middle" text-rendering="auto" visibility="visible" word-spacing="0" writing-mode="lr-tb"/></svg>