<svg xmlns="http://www.w3.org/2000/svg" xmlns:svg="http://www.w3.org/2000/svg" xmlns:xlink="http://www.w3.org/1999/xlink" id="svg2453" width="128" height="128" version="1.0"><metadata id="metadata35"/><defs id="defs2455"><linearGradient id="linearGradient3462"><stop id="stop3464" offset="0" stop-color="#fff" stop-opacity="1"/><stop id="stop3466" offset=".035" stop-color="#fff" stop-opacity=".235"/><stop id="stop3468" offset=".964" stop-color="#fff" stop-opacity=".157"/><stop id="stop3470" offset="1" stop-color="#fff" stop-opacity=".392"/></linearGradient><linearGradient id="linearGradient2867-449-88-871-390-598-476-591-434-148-57-177-8-3-3-6-4-8-8-8-5-7"><stop id="stop3750-1-0-7-6-6-1-3-9-3-9" offset="0" stop-color="#505050" stop-opacity="1"/><stop id="stop3752-3-7-4-0-32-8-923-0-7-0" offset=".262" stop-color="#2b2b2b" stop-opacity="1"/><stop id="stop3754-1-8-5-2-7-6-7-1-9-1" offset=".705" stop-color="#0a0a0a" stop-opacity="1"/><stop id="stop3756-1-6-2-6-6-1-96-6-0-1" offset="1" stop-color="#000" stop-opacity="1"/></linearGradient><linearGradient id="linearGradient3133" x1="40.29" x2="40.29" y1="5.414" y2="42.438" gradientTransform="matrix(3.1081078,0,0,2.4594594,-10.594599,11.973044)" gradientUnits="userSpaceOnUse" xlink:href="#linearGradient3462"/><radialGradient id="radialGradient3136" cx="7.118" cy="9.957" r="12.672" fx="7.118" fy="9.957" gradientTransform="matrix(0,21.795969,-33.663904,0,401.68831,-174.34713)" gradientUnits="userSpaceOnUse" xlink:href="#linearGradient2867-449-88-871-390-598-476-591-434-148-57-177-8-3-3-6-4-8-8-8-5-7"/><linearGradient id="linearGradient3127-4-4" x1="20" x2="20" y1="26" y2="13" gradientTransform="matrix(1.326882,0,0,1.326882,9.2598082,6.2451596)" gradientUnits="userSpaceOnUse" xlink:href="#linearGradient3680-6-6-6-3-7-1-8-8"/><linearGradient id="linearGradient3680-6-6-6-3-7-1-8-8"><stop id="stop3682-4-6-1-3-7-7-4-0" offset="0" stop-color="#dcdcdc" stop-opacity="1"/><stop id="stop3684-8-5-8-0-2-6-8-4" offset="1" stop-color="#fff" stop-opacity="1"/></linearGradient><linearGradient id="linearGradient3200" x1="20" x2="20" y1="26" y2="13" gradientTransform="matrix(1.326882,0,0,1.326882,9.2598082,6.2451596)" gradientUnits="userSpaceOnUse" xlink:href="#linearGradient3680-6-6-6-3-7-1-8-8"/><linearGradient id="linearGradient3688-166-749-737"><stop id="stop3088" offset="0" stop-color="#181818" stop-opacity="1"/><stop id="stop3090" offset="1" stop-color="#181818" stop-opacity="0"/></linearGradient><linearGradient id="linearGradient3688-464-309-255"><stop id="stop3094" offset="0" stop-color="#181818" stop-opacity="1"/><stop id="stop3096" offset="1" stop-color="#181818" stop-opacity="0"/></linearGradient><linearGradient id="linearGradient3702-501-757-486"><stop id="stop3100" offset="0" stop-color="#181818" stop-opacity="0"/><stop id="stop3102" offset=".5" stop-color="#181818" stop-opacity="1"/><stop id="stop3104" offset="1" stop-color="#181818" stop-opacity="0"/></linearGradient><linearGradient id="linearGradient3991" x1="25.058" x2="25.058" y1="47.028" y2="39.999" gradientTransform="matrix(3.9285714,0,0,1.2857143,-31.285711,61.071489)" gradientUnits="userSpaceOnUse" xlink:href="#linearGradient3702-501-757-486"/><radialGradient id="radialGradient3994" cx="4.993" cy="43.5" r="2.5" fx="4.993" fy="43.5" gradientTransform="matrix(2.4045407,0,0,1.7999999,-20.01424,-195.30006)" gradientUnits="userSpaceOnUse" xlink:href="#linearGradient3688-464-309-255"/><radialGradient id="radialGradient3997" cx="4.993" cy="43.5" r="2.5" fx="4.993" fy="43.5" gradientTransform="matrix(2.4045407,0,0,1.7999999,105.98576,38.700062)" gradientUnits="userSpaceOnUse" xlink:href="#linearGradient3688-166-749-737"/></defs><rect id="rect3700" width="110" height="9" x="8" y="112.5" fill="url(#linearGradient3991)" fill-opacity="1" stroke="none" opacity=".4"/><rect id="rect2801" width="6" height="9" x="118" y="112.5" fill="url(#radialGradient3997)" fill-opacity="1" stroke="none" opacity=".4"/><rect id="rect3696" width="6" height="9" x="-8" y="-121.5" fill="url(#radialGradient3994)" fill-opacity="1" stroke="none" opacity=".4" transform="scale(-1,-1)"/><rect id="rect5505-21-3-8-5-2" width="117" height="93" x="5.5" y="24.5" fill="url(#radialGradient3136)" fill-opacity="1" fill-rule="nonzero" stroke="none" stroke-width="1" color="#000" display="inline" enable-background="accumulate" opacity=".9" overflow="visible" rx="4" ry="4" visibility="visible" style="marker:none"/><rect id="rect6741-5-0-2-3" width="115" height="91" x="6.5" y="25.5" fill="none" stroke="url(#linearGradient3133)" stroke-dasharray="none" stroke-dashoffset="0" stroke-linecap="round" stroke-linejoin="round" stroke-miterlimit="4" stroke-opacity="1" stroke-width="1" opacity=".3" rx="3" ry="3"/><rect id="rect5505-21-3-8-9-1-1" width="117" height="93" x="5.5" y="24.5" fill="none" stroke="#000" stroke-dasharray="none" stroke-dashoffset="0" stroke-linecap="round" stroke-linejoin="round" stroke-miterlimit="4" stroke-opacity="1" stroke-width="1" color="#000" display="inline" enable-background="accumulate" opacity=".7" overflow="visible" rx="4" ry="4" visibility="visible" style="marker:none"/><g id="layer1-1-4-0-7" fill="#000" fill-opacity="1" fill-rule="nonzero" stroke="none" stroke-width=".99" color="#000" display="inline" opacity=".15" transform="matrix(2,0,0,2,48,58.000061)" visibility="visible" style="marker:none"><path d="M 1.75,-0.5 C 1.0728097,-0.5 0.5,0.07280973 0.5,0.75 l 0,13.5 c 0,0.67719 0.5728097,1.25 1.25,1.25 l 12.5,0 c 0.67719,0 1.25,-0.57281 1.25,-1.25 l 0,-13.5 c 0,-0.67719027 -0.57281,-1.25 -1.25,-1.25 l -12.5,0 z m 2.75,2 7,0 0,5 -7,0 0,-5 z m 0,7 7,0 0,5 -7,0 0,-5 z" style="marker:none" id="path3886" fill="#000" fill-opacity="1" fill-rule="nonzero" stroke="none" stroke-width=".99" color="#000" display="inline" enable-background="accumulate" overflow="visible" visibility="visible"/></g><g id="layer1-1-4-0" fill="#000" fill-opacity="1" fill-rule="nonzero" stroke="none" stroke-width=".99" color="#000" display="inline" opacity=".3" transform="matrix(2,0,0,2,48,58.000061)" visibility="visible" style="marker:none"><path d="M 1.75,0 C 1.3345,0 1,0.3345 1,0.75 l 0,13.5 C 1,14.6655 1.3345,15 1.75,15 l 12.5,0 C 14.6655,15 15,14.6655 15,14.25 L 15,0.75 C 15,0.3345 14.6655,0 14.25,0 L 1.75,0 z M 2,1 3,1 3,2 2,2 2,1 z m 2.5,0 7,0 C 11.777,1 12,1.223 12,1.5 l 0,5 C 12,6.777 11.777,7 11.5,7 l -7,0 C 4.223,7 4,6.777 4,6.5 l 0,-5 C 4,1.223 4.223,1 4.5,1 z m 8.5,0 1,0 0,1 -1,0 0,-1 z M 2,3 3,3 3,4 2,4 2,3 z m 11,0 1,0 0,1 -1,0 0,-1 z M 2,5 3,5 3,6 2,6 2,5 z m 11,0 1,0 0,1 -1,0 0,-1 z M 2,7 3,7 3,8 2,8 2,7 z m 11,0 1,0 0,1 -1,0 0,-1 z m -8.5,1 7,0 C 11.777,8 12,8.223 12,8.5 l 0,5 c 0,0.277 -0.223,0.5 -0.5,0.5 l -7,0 C 4.223,14 4,13.777 4,13.5 l 0,-5 C 4,8.223 4.223,8 4.5,8 z M 2,9 3,9 3,10 2,10 2,9 z m 11,0 1,0 0,1 -1,0 0,-1 z m -11,2 1,0 0,1 -1,0 0,-1 z m 11,0 1,0 0,1 -1,0 0,-1 z m -11,2 1,0 0,1 -1,0 0,-1 z m 11,0 1,0 0,1 -1,0 0,-1 z" style="marker:none" id="rect3032-8-7" fill="#000" fill-opacity="1" fill-rule="nonzero" stroke="none" stroke-width=".99" color="#000" display="inline" enable-background="accumulate" overflow="visible" visibility="visible"/></g><g id="layer1-1-4" fill="url(#linearGradient3127-4-4)" fill-opacity="1" fill-rule="nonzero" stroke="none" stroke-width="1" color="#000" display="inline" transform="matrix(2,0,0,2,48,57.000061)" visibility="visible" style="marker:none"><path d="M 1.75,0 C 1.3345,0 1,0.3345 1,0.75 l 0,13.5 C 1,14.6655 1.3345,15 1.75,15 l 12.5,0 C 14.6655,15 15,14.6655 15,14.25 L 15,0.75 C 15,0.3345 14.6655,0 14.25,0 L 1.75,0 z M 2,1 3,1 3,2 2,2 2,1 z m 2.5,0 7,0 C 11.777,1 12,1.223 12,1.5 l 0,5 C 12,6.777 11.777,7 11.5,7 l -7,0 C 4.223,7 4,6.777 4,6.5 l 0,-5 C 4,1.223 4.223,1 4.5,1 z m 8.5,0 1,0 0,1 -1,0 0,-1 z M 2,3 3,3 3,4 2,4 2,3 z m 11,0 1,0 0,1 -1,0 0,-1 z M 2,5 3,5 3,6 2,6 2,5 z m 11,0 1,0 0,1 -1,0 0,-1 z M 2,7 3,7 3,8 2,8 2,7 z m 11,0 1,0 0,1 -1,0 0,-1 z m -8.5,1 7,0 C 11.777,8 12,8.223 12,8.5 l 0,5 c 0,0.277 -0.223,0.5 -0.5,0.5 l -7,0 C 4.223,14 4,13.777 4,13.5 l 0,-5 C 4,8.223 4.223,8 4.5,8 z M 2,9 3,9 3,10 2,10 2,9 z m 11,0 1,0 0,1 -1,0 0,-1 z m -11,2 1,0 0,1 -1,0 0,-1 z m 11,0 1,0 0,1 -1,0 0,-1 z m -11,2 1,0 0,1 -1,0 0,-1 z m 11,0 1,0 0,1 -1,0 0,-1 z" style="marker:none" id="rect3032-8" fill="url(#linearGradient3200)" fill-opacity="1" fill-rule="nonzero" stroke="none" stroke-width="1" color="#000" display="inline" enable-background="accumulate" overflow="visible" visibility="visible"/></g></svg>