<svg xmlns="http://www.w3.org/2000/svg" width="16" height="16"><g><path fill="#666" d="M1076-247c-.554 0-1 .446-1 1v14c0 .554.446 1 1 1h10c.554 0 1-.446 1-1v-10c0-.554-4.446-5-5-5zm.5 1h5.5v4h4v9.5c0 .277-.223.5-.5.5h-9a.499.499 0 0 1-.5-.5v-13c0-.277.223-.5.5-.5z" color="#bebebe" overflow="visible" transform="translate(-1073 247)" style="marker:none"/><path fill="#666" d="M1078-239v5h6v-5zm1 1h1v.996h-1zm2 0h2v.996h-2zm-2 1.996h1V-235h-1zm2 0h2V-235h-2z" transform="translate(-1073 247)"/></g></svg>