<svg xmlns="http://www.w3.org/2000/svg" xmlns:svg="http://www.w3.org/2000/svg" xmlns:xlink="http://www.w3.org/1999/xlink" id="svg6" width="16" height="16" version="1.1"><metadata id="metadata12"/><defs id="defs10"><linearGradient id="linearGradient4224" x1="24" x2="24" y1="5" y2="43" gradientTransform="matrix(0.2972973,0,0,0.2972973,-16.805484,1.3978382)" gradientUnits="userSpaceOnUse" xlink:href="#linearGradient3924-4-8"/><linearGradient id="linearGradient3924-4-8"><stop id="stop3926-0-4" offset="0" stop-color="#fff" stop-opacity="1"/><stop id="stop3928-6-8" offset=".063" stop-color="#fff" stop-opacity=".235"/><stop id="stop3930-2-1" offset=".951" stop-color="#fff" stop-opacity=".157"/><stop id="stop3932-9-0" offset="1" stop-color="#fff" stop-opacity=".392"/></linearGradient><linearGradient id="linearGradient5882-7" x1="223.217" x2="223.217" y1="38.035" y2="47.987" gradientTransform="translate(-215,-35.000003)" gradientUnits="userSpaceOnUse" xlink:href="#linearGradient5803-0"/><linearGradient id="linearGradient5803-0"><stop id="stop5805-3" offset="0" stop-color="#fff5ef" stop-opacity="1"/><stop id="stop5807-4" offset="1" stop-color="#fef8dd" stop-opacity="1"/></linearGradient><linearGradient id="linearGradient2867-449-88-871-390-598-476-591-434-148-57-177-8-3-3-6-4-8-8-8"><stop id="stop3750-1-0-7-6-6-1-3-9" offset="0" stop-color="#ffcd7d" stop-opacity="1"/><stop id="stop3752-3-7-4-0-32-8-923-0" offset=".262" stop-color="#fc8f36" stop-opacity="1"/><stop id="stop3754-1-8-5-2-7-6-7-1" offset=".705" stop-color="#e23a0e" stop-opacity="1"/><stop id="stop3756-1-6-2-6-6-1-96-6" offset="1" stop-color="#ac441f" stop-opacity="1"/></linearGradient><radialGradient id="radialGradient7347" cx="6.73" cy="9.957" r="12.672" fx="6.2" fy="9.957" gradientTransform="matrix(0,3.1658508,-3.8866533,0,46.97684,-26.720326)" gradientUnits="userSpaceOnUse" xlink:href="#linearGradient2867-449-88-871-390-598-476-591-434-148-57-177-8-3-3-6-4-8-8-8"/><linearGradient id="linearGradient3010" x1="223.217" x2="223.217" y1="38.035" y2="47.987" gradientTransform="translate(-215.0678,-35.000003)" gradientUnits="userSpaceOnUse" xlink:href="#linearGradient5803-0"/><radialGradient id="radialGradient3015" cx="6.73" cy="9.957" r="12.672" fx="6.2" fy="9.957" gradientTransform="matrix(0,3.1658508,-3.8866533,0,46.976839,-26.720324)" gradientUnits="userSpaceOnUse" xlink:href="#linearGradient4644-104-3-3-6-2-0"/><radialGradient id="radialGradient3893" cx="8.913" cy="10.162" r="12.672" fx="8.383" fy="10.162" gradientTransform="matrix(0.04387427,1.7755,-1.5782982,0.03900123,53.980706,-19.149218)" gradientUnits="userSpaceOnUse" xlink:href="#linearGradient4067-0-2"/><linearGradient id="linearGradient4067-0-2"><stop id="stop4069-2-9" offset="0" stop-color="#ffe452" stop-opacity="1"/><stop id="stop4071-8-9" offset="1" stop-color="#ffeb41" stop-opacity="0"/></linearGradient><linearGradient id="linearGradient3112" x1="24" x2="24" y1="5" y2="43" gradientTransform="matrix(0.62162164,0,0,0.62162164,24.413894,-5.3409289)" gradientUnits="userSpaceOnUse" xlink:href="#linearGradient3924-4-8"/><radialGradient id="radialGradient3116" cx="6.73" cy="9.957" r="12.672" fx="6.2" fy="9.957" gradientTransform="matrix(0,6.0881746,-7.4743333,0,114.2883,-57.191874)" gradientUnits="userSpaceOnUse" xlink:href="#linearGradient4644-104-3-3-6-2-0"/><linearGradient id="linearGradient4644-104-3-3-6-2-0"><stop id="stop5237-6-5-1-7-8" offset="0" stop-color="#ff7a35" stop-opacity="1"/><stop id="stop5239-4-6-4-8-5" offset="1" stop-color="#f0431a" stop-opacity="1"/></linearGradient><radialGradient id="radialGradient2976" cx="4.993" cy="43.5" r="2.5" fx="4.993" fy="43.5" gradientTransform="matrix(2.003784,0,0,1.4,27.98813,-17.4)" gradientUnits="userSpaceOnUse" xlink:href="#linearGradient3688-166-749-6"/><linearGradient id="linearGradient3688-166-749-6"><stop id="stop2883-8" offset="0" stop-color="#181818" stop-opacity="1"/><stop id="stop2885-3" offset="1" stop-color="#181818" stop-opacity="0"/></linearGradient><radialGradient id="radialGradient2978" cx="4.993" cy="43.5" r="2.5" fx="4.993" fy="43.5" gradientTransform="matrix(2.003784,0,0,1.4,-20.01187,-104.4)" gradientUnits="userSpaceOnUse" xlink:href="#linearGradient3688-166-749-6"/><linearGradient id="linearGradient2980" x1="25.058" x2="25.058" y1="47.028" y2="39.999" gradientUnits="userSpaceOnUse" xlink:href="#linearGradient3702-501-757-3"/><linearGradient id="linearGradient3702-501-757-3"><stop id="stop2895-3" offset="0" stop-color="#181818" stop-opacity="0"/><stop id="stop2897-28" offset=".5" stop-color="#181818" stop-opacity="1"/><stop id="stop2899-8" offset="1" stop-color="#181818" stop-opacity="0"/></linearGradient><radialGradient id="radialGradient3879" cx="6.73" cy="9.957" r="12.672" fx="6.2" fy="9.957" gradientTransform="matrix(0,3.1658508,-3.8866533,0,46.976839,-26.720324)" gradientUnits="userSpaceOnUse" xlink:href="#linearGradient4067-0-2"/></defs><path id="path2" fill="#666" fill-opacity="1" stroke-dasharray="none" stroke-dashoffset="0" stroke-linecap="butt" stroke-linejoin="miter" stroke-miterlimit="4" stroke-opacity="1" stroke-width="1" d="M 2.5 1 C 1.669 1 1 1.669 1 2.5 L 1 13.5 C 1 14.331 1.669 15 2.5 15 L 13.5 15 C 14.331 15 15 14.331 15 13.5 L 15 2.5 C 15 1.669 14.331 1 13.5 1 L 2.5 1 z M 4 4.0234375 L 4.6660156 4.0234375 C 8.7161036 4.0234375 12 7.3073329 12 11.357422 L 12 12.023438 L 10.666016 12.023438 C 10.666016 12.023438 10.666016 11.72419 10.666016 11.357422 C 10.666016 8.0437089 7.9797276 5.3574219 4.6660156 5.3574219 C 4.3016636 5.3574219 4 5.3748039 4 5.3574219 L 4 4.0234375 z M 4 6.6894531 L 4.6660156 6.6894531 C 7.2433516 6.6894531 9.3339844 8.7800849 9.3339844 11.357422 L 9.3339844 12.023438 L 8 12.023438 L 8 11.357422 C 8 9.5164684 6.5069676 8.0234375 4.6660156 8.0234375 L 4 8.0234375 L 4 6.6894531 z M 5.3339844 9.3574219 C 6.0703604 9.3574219 6.6660156 9.9530766 6.6660156 10.689453 C 6.6660156 11.425837 6.0703604 12.023438 5.3339844 12.023438 C 4.5976004 12.023438 4 11.425837 4 10.689453 C 4 9.9530766 4.5976004 9.3574219 5.3339844 9.3574219 z" color="#000" opacity="1" vector-effect="none" style="marker:none;font-variation-settings:normal"/></svg>