<svg xmlns="http://www.w3.org/2000/svg" xmlns:svg="http://www.w3.org/2000/svg" id="svg7357" width="16" height="16" version="1.1"><metadata id="metadata7362"/><path id="path818" fill="#555761" fill-opacity="1" stroke="none" stroke-dasharray="none" stroke-dashoffset="0" stroke-linecap="butt" stroke-linejoin="miter" stroke-miterlimit="4" stroke-opacity="1" stroke-width="1" d="M 8,16 5.8574219,13.173828 2.34375,13.65625 2.8261719,10.142578 0,8 2.8261719,5.857422 2.34375,2.34375 5.8574219,2.826172 8,0 10.142578,2.826172 13.65625,2.34375 13.173828,5.857422 16,8 13.173828,10.142578 13.65625,13.65625 10.142578,13.173828 Z m 0,-4.025391 c 0.1362185,0 0.272437,-0.05424 0.375,-0.160156 l 2.5,-2.9999999 c 0.231,-0.289 -0.006,-0.8015 -0.375,-0.8125 H 9 V 4.501953 c -0.010267,-0.271776 -0.2282237,-0.48973 -0.5,-0.5 h -1 c -0.031265,-0.0029 -0.062485,-0.0029 -0.09375,0 C 7.1709498,4.053667 7.00231,4.261048 7,4.501953 V 8.0019531 H 5.5 c -0.369,0.011 -0.606,0.5235 -0.375,0.8125 l 2.5,2.9999999 C 7.727563,11.92037 7.8637815,11.974609 8,11.974609 Z" opacity=".99" paint-order="normal" vector-effect="none" style="marker:none"/></svg>