<svg xmlns="http://www.w3.org/2000/svg" xmlns:svg="http://www.w3.org/2000/svg" id="svg1328" width="16" height="16" version="1.1" viewBox="0 0 4.233 4.233"><metadata id="metadata1325"/><g id="g869" transform="rotate(90,2.1166667,2.1166667)"><path id="rect1181-5" fill="#555761" fill-opacity="1" stroke="none" stroke-dasharray="none" stroke-dashoffset="0" stroke-linecap="butt" stroke-linejoin="round" stroke-miterlimit="3" stroke-opacity="1" stroke-width=".265" d="M 3.96875,0 V 4.2333333 H 3.4395833 V 3.7041666 H 0.66145834 c -0.0732901,0 -0.13229166,-0.058992 -0.13229166,-0.1322916 V 2.5135416 c 0,-0.0733 0.0590021,-0.1322916 0.13229166,-0.1322916 H 3.4395833 V 2.1166666 h -1.984375 c -0.07329,0 -0.1322916,-0.059002 -0.1322916,-0.1322916 V 0.92604165 c 0,-0.0733 0.059002,-0.13229166 0.1322916,-0.13229166 h 1.984375 V 0 Z M 3.4395833,1.0583333 H 1.5875 v 0.79375 h 1.8520833 z m 0,1.5875 H 0.79375001 v 0.79375 H 3.4395833 Z" opacity="1" paint-order="normal" vector-effect="none" style="marker:none"/><path id="path41-2-3-6-5-4" fill="#555761" fill-opacity=".931" stroke="none" stroke-linejoin="round" stroke-miterlimit="3" stroke-width=".265" d="M 3.7041666,1.05833 V 1.85208 H 1.5875 V 1.05833 Z m 0,1.5875 V 3.43958 H 0.79375 V 2.64583 Z" opacity=".1"/></g></svg>