<svg xmlns="http://www.w3.org/2000/svg" xmlns:svg="http://www.w3.org/2000/svg" xmlns:xlink="http://www.w3.org/1999/xlink" id="svg18157" width="48" height="48" version="1.1"><defs id="defs18159"><linearGradient id="linearGradient12489" x1="42.471" x2="42.471" y1="11.953" y2="35.582" gradientTransform="matrix(0.89189031,0,0,1.0986542,3.142773,3.887208)" gradientUnits="userSpaceOnUse" xlink:href="#linearGradient3454-2-5-0-3"/><linearGradient id="linearGradient3454-2-5-0-3"><stop id="stop3456-4-9-38-1" offset="0" stop-color="#fff" stop-opacity="1"/><stop id="stop3458-39-80-3-5" offset=".01" stop-color="#fff" stop-opacity=".235"/><stop id="stop3460-7-0-2-4" offset=".99" stop-color="#fff" stop-opacity=".157"/><stop id="stop3462-0-9-8-7" offset="1" stop-color="#fff" stop-opacity=".392"/></linearGradient><radialGradient id="radialGradient12475" cx="605.714" cy="486.648" r="117.143" fx="605.714" fy="486.648" gradientTransform="matrix(-0.03079083,0,0,0.02470588,23.389752,31.94164)" gradientUnits="userSpaceOnUse" xlink:href="#linearGradient5060-820-91-9-0"/><linearGradient id="linearGradient5060-820-91-9-0"><stop id="stop2681-778-5-1" offset="0" stop-color="#000" stop-opacity="1"/><stop id="stop2683-2-86-2" offset="1" stop-color="#000" stop-opacity="0"/></linearGradient><radialGradient id="radialGradient12471" cx="605.714" cy="486.648" r="117.143" fx="605.714" fy="486.648" gradientTransform="matrix(0.03079083,0,0,0.02470588,24.610252,31.94164)" gradientUnits="userSpaceOnUse" xlink:href="#linearGradient5060-179-37-4-0"/><linearGradient id="linearGradient5060-179-37-4-0"><stop id="stop2675-91-9-2" offset="0" stop-color="#000" stop-opacity="1"/><stop id="stop2677-09-0-9" offset="1" stop-color="#000" stop-opacity="0"/></linearGradient><linearGradient id="linearGradient12467" x1="302.857" x2="302.857" y1="366.648" y2="609.505" gradientTransform="matrix(0.07938856,0,0,0.02470588,-4.6932879,31.94164)" gradientUnits="userSpaceOnUse" xlink:href="#linearGradient5048-585-73-1-5"/><linearGradient id="linearGradient5048-585-73-1-5"><stop id="stop2667-99-4-6" offset="0" stop-color="#000" stop-opacity="0"/><stop id="stop2669-5-9-4" offset=".5" stop-color="#000" stop-opacity="1"/><stop id="stop2671-56-4-2" offset="1" stop-color="#000" stop-opacity="0"/></linearGradient><linearGradient id="linearGradient12463" x1="21.37" x2="21.37" y1="7.227" y2="34.143" gradientTransform="matrix(0.89189031,0,0,1.0580283,3.1206621,5.3535997)" gradientUnits="userSpaceOnUse" xlink:href="#linearGradient4507-0-4-7"/><linearGradient id="linearGradient4507-0-4-7"><stop id="stop4509-35-6-1" offset="0" stop-color="#fff" stop-opacity="1"/><stop id="stop4511-46-3-8" offset="0" stop-color="#fff" stop-opacity=".235"/><stop id="stop4513-15-5-9" offset=".99" stop-color="#fff" stop-opacity=".157"/><stop id="stop4515-1-1-8" offset="1" stop-color="#fff" stop-opacity=".392"/></linearGradient><linearGradient id="linearGradient12459" x1="62.989" x2="62.989" y1="13" y2="16" gradientTransform="translate(-50.940897)" gradientUnits="userSpaceOnUse" xlink:href="#linearGradient4646-7-4-3"/><linearGradient id="linearGradient4646-7-4-3"><stop id="stop4648-8-0-3" offset="0" stop-color="#f9f9f9" stop-opacity="1"/><stop id="stop4650-1-7-3" offset="1" stop-color="#d8d8d8" stop-opacity="1"/></linearGradient><linearGradient id="linearGradient4632-0-6-4-4-4"><stop id="stop4634-4-4-7-4" offset="0" stop-color="#efdfc4" stop-opacity="1"/><stop id="stop4636-3-1-5-9" offset="1" stop-color="#e7c591" stop-opacity="1"/></linearGradient><linearGradient id="linearGradient997" x1="45.429" x2="45.429" y1="52.771" y2="113.494" gradientTransform="matrix(0.50413225,0,0,0.49333391,3.097875,-11.033513)" gradientUnits="userSpaceOnUse" xlink:href="#linearGradient4632-0-6-4-4-4"/></defs><metadata id="metadata18162"/><path stroke-width=".992" style="marker:none;font-variant-east_asian:normal" id="rect4251-0-0-61" fill="none" fill-opacity="1" stroke="#7e8087" stroke-dasharray="none" stroke-dashoffset="0" stroke-linecap="square" stroke-linejoin="miter" stroke-miterlimit="4" stroke-opacity="1" d="m 5.5000021,8.4999997 c -0.554,0 -1,0.446 -1,1 V 11.5 h -1 c -0.554,0 -1,0.446 -1,1 v 6 c 0,0.554 0.446,1 1,1 H 44.500002 c 0.554,0 1,-0.446 1,-1 v -6 c 0,-0.554 -0.446,-1 -1,-1 h -23 V 9.4999997 c 0,-0.554 -0.446,-1 -1,-1 z" color="#000" display="inline" enable-background="accumulate" opacity=".5" overflow="visible" vector-effect="none" visibility="visible"/><path id="rect4251-3-2" fill="url(#linearGradient12459)" fill-opacity="1" fill-rule="nonzero" stroke="none" stroke-width="1" d="m 5.5000021,8.9999997 c -0.277,0 -0.5,0.223 -0.5,0.5 V 12 h -1.5 c -0.277,0 -0.5,0.223 -0.5,0.5 v 6 c 0,0.277 0.223,0.5 0.5,0.5 H 44.500002 c 0.277,0 0.5,-0.223 0.5,-0.5 v -6 c 0,-0.277 -0.223,-0.5 -0.5,-0.5 h -23.5 V 9.4999997 c 0,-0.277 -0.223,-0.5 -0.5,-0.5 z" color="#000" display="inline" enable-background="accumulate" overflow="visible" visibility="visible" style="marker:none"/><path id="rect4251-9-21-7" fill="none" stroke="url(#linearGradient12463)" stroke-dasharray="none" stroke-dashoffset="0" stroke-linecap="round" stroke-linejoin="round" stroke-miterlimit="4" stroke-opacity="1" stroke-width="1" d="M 5.5000021,9.4999997 V 12.5 h -2 v 7 H 44.500002 v -7 h -24 V 9.4999997 Z" color="#000" display="inline" enable-background="accumulate" overflow="visible" visibility="visible" style="marker:none"/><rect id="rect4173-8-8" width="38.333" height="6" x="4.833" y="41" fill="url(#linearGradient12467)" fill-opacity="1" fill-rule="nonzero" stroke="none" stroke-width="1" display="inline" opacity=".3" overflow="visible" visibility="visible" style="marker:none"/><path id="path5058-9-0" fill="url(#radialGradient12471)" fill-opacity="1" fill-rule="nonzero" stroke="none" stroke-width="1" d="m 43.166672,41.00021 c 0,0 0,5.99967 0,5.99967 1.58565,0.0113 3.83333,-1.34422 3.83333,-3.00022 0,-1.656 -1.76947,-2.99945 -3.83333,-2.99945 z" display="inline" opacity=".3" overflow="visible" visibility="visible" style="marker:none"/><path id="path5018-6-6" fill="url(#radialGradient12475)" fill-opacity="1" fill-rule="nonzero" stroke="none" stroke-width="1" d="m 4.8333321,41.00021 c 0,0 0,5.99967 0,5.99967 -1.58565,0.0113 -3.83333,-1.34422 -3.83333,-3.00022 0,-1.656 1.76947,-2.99945 3.83333,-2.99945 z" display="inline" opacity=".3" overflow="visible" visibility="visible" style="marker:none"/><path id="path3388-7-1" fill="url(#linearGradient997)" fill-opacity="1" stroke="#987124" stroke-dasharray="none" stroke-dashoffset="0" stroke-linecap="butt" stroke-linejoin="miter" stroke-miterlimit="4" stroke-opacity=".498" stroke-width="1" d="m 2.1626121,15.50019 c -1.07231,0.12829 -0.49959,1.45416 -0.58508,2.19974 0.12444,0.48182 0.92748,26.17643 0.92748,26.17643 0,0.7414 0.35172,0.61579 1.24292,0.61579 13.1885599,0 27.7725299,0 40.9610899,0 0.96008,0.0231 0.75718,0.0121 0.75718,-0.62748 0,0 0.99298,-27.35421 1.0285,-27.7811 0,-0.44949 0.0902,-0.58338 -0.47316,-0.58338 -14.08405,0 -29.77488,0 -43.8589299,0 z" opacity="1" vector-effect="none" style="font-variant-east_asian:normal;marker:none"/><path id="path4587-3-5" fill="none" stroke="url(#linearGradient12489)" stroke-dasharray="none" stroke-dashoffset="0" stroke-linecap="round" stroke-linejoin="miter" stroke-miterlimit="4" stroke-opacity="1" stroke-width="1" d="m 2.5221121,16.499999 c 0.016793,0.183202 0.022163,0.537823 0.03125,0.908598 0.023112,0.08973 0.025524,0.06151 0.03125,0.09735 0.011058,0.06921 0.027034,0.143566 0.03125,0.1947 0.0064,0.07761 -0.00668,0.179686 0,0.292049 0.013352,0.224726 0.045306,0.530459 0.0625,0.908598 0.034388,0.756279 0.078083,1.7745 0.125,3.017843 0.093834,2.486687 0.2030642,5.769016 0.3125,9.02108 0.2122959,6.308724 0.3945663,12.188203 0.40625,12.558123 0.1225025,0.0037 0.071108,0 0.25,0 H 44.490862 c 0.0124,-0.341463 0.253182,-6.673493 0.5,-13.401821 0.126691,-3.453636 0.245386,-6.941969 0.34375,-9.572728 0.04918,-1.31538 0.09434,-2.421026 0.125,-3.212543 0.01322,-0.341237 0.02246,-0.594976 0.03125,-0.811249 z" color="#000" display="inline" enable-background="accumulate" opacity=".5" overflow="visible" visibility="visible" style="marker:none"/><path stroke-opacity="1" style="marker:none;font-variant-east_asian:normal" id="rect3032-6-0" fill="#fff" fill-opacity="1" fill-rule="nonzero" stroke="none" stroke-dasharray="none" stroke-dashoffset="0" stroke-linecap="butt" stroke-linejoin="miter" stroke-miterlimit="4" stroke-width="5" d="m 17.750016,23.999988 c -0.4155,0 -0.75,0.3345 -0.75,0.75 v 13.5 c 0,0.4155 0.3345,0.75 0.75,0.75 h 12.5 c 0.4155,0 0.75,-0.3345 0.75,-0.75 v -13.5 c 0,-0.4155 -0.3345,-0.75 -0.75,-0.75 z m 0.25,1 h 1 v 1 h -1 z m 2.5,0 h 7 c 0.277,0 0.5,0.223 0.5,0.5 v 5 c 0,0.277 -0.223,0.5 -0.5,0.5 h -7 c -0.277,0 -0.5,-0.223 -0.5,-0.5 v -5 c 0,-0.277 0.223,-0.5 0.5,-0.5 z m 8.5,0 h 1 v 1 h -1 z m -11,2 h 1 v 1 h -1 z m 11,0 h 1 v 1 h -1 z m -11,2 h 1 v 1 h -1 z m 11,0 h 1 v 1 h -1 z m -11,2 h 1 v 1 h -1 z m 11,0 h 1 v 1 h -1 z m -8.5,1 h 7 c 0.277,0 0.5,0.223 0.5,0.5 v 5 c 0,0.277 -0.223,0.5 -0.5,0.5 h -7 c -0.277,0 -0.5,-0.223 -0.5,-0.5 v -5 c 0,-0.277 0.223,-0.5 0.5,-0.5 z m -2.5,1 h 1 v 1 h -1 z m 11,0 h 1 v 1 h -1 z m -11,2 h 1 v 1 h -1 z m 11,0 h 1 v 1 h -1 z m -11,2 h 1 v 1 h -1 z m 11,0 h 1 v 1 h -1 z" color="#000" display="inline" enable-background="accumulate" opacity=".3" overflow="visible" vector-effect="none" visibility="visible"/><path stroke-opacity=".498" style="marker:none;font-variant-east_asian:normal" id="rect3032-7" fill="#7e5514" fill-opacity=".971" fill-rule="nonzero" stroke="none" stroke-dasharray="none" stroke-dashoffset="0" stroke-linecap="butt" stroke-linejoin="miter" stroke-miterlimit="4" stroke-width="1" d="m 17.750016,22.999988 c -0.4155,0 -0.75,0.3345 -0.75,0.75 v 13.5 c 0,0.4155 0.3345,0.75 0.75,0.75 h 12.5 c 0.4155,0 0.75,-0.3345 0.75,-0.75 v -13.5 c 0,-0.4155 -0.3345,-0.75 -0.75,-0.75 z m 0.25,1 h 1 v 1 h -1 z m 2.5,0 h 7 c 0.277,0 0.5,0.223 0.5,0.5 v 5 c 0,0.277 -0.223,0.5 -0.5,0.5 h -7 c -0.277,0 -0.5,-0.223 -0.5,-0.5 v -5 c 0,-0.277 0.223,-0.5 0.5,-0.5 z m 8.5,0 h 1 v 1 h -1 z m -11,2 h 1 v 1 h -1 z m 11,0 h 1 v 1 h -1 z m -11,2 h 1 v 1 h -1 z m 11,0 h 1 v 1 h -1 z m -11,2 h 1 v 1 h -1 z m 11,0 h 1 v 1 h -1 z m -8.5,1 h 7 c 0.277,0 0.5,0.223 0.5,0.5 v 5 c 0,0.277 -0.223,0.5 -0.5,0.5 h -7 c -0.277,0 -0.5,-0.223 -0.5,-0.5 v -5 c 0,-0.277 0.223,-0.5 0.5,-0.5 z m -2.5,1 h 1 v 1 h -1 z m 11,0 h 1 v 1 h -1 z m -11,2 h 1 v 1 h -1 z m 11,0 h 1 v 1 h -1 z m -11,2 h 1 v 1 h -1 z m 11,0 h 1 v 1 h -1 z" color="#000" display="inline" enable-background="accumulate" opacity=".6" overflow="visible" vector-effect="none" visibility="visible"/></svg>