<svg xmlns="http://www.w3.org/2000/svg" xmlns:svg="http://www.w3.org/2000/svg" xmlns:xlink="http://www.w3.org/1999/xlink" id="svg11300" width="48.055" height="48" display="inline" enable-background="new" version="1.0" viewBox="0 0 48.055 48"><metadata id="metadata154"/><title id="title4162">elementary Icon Template</title><defs id="defs3"><linearGradient id="linearGradient4712"><stop id="stop4708" offset="0" stop-color="#000" stop-opacity="1"/><stop id="stop4710" offset="1" stop-color="#000" stop-opacity="0"/></linearGradient><linearGradient id="34542"><stop id="stop3456-4-9-38-1-8" offset="0" stop-color="#fff" stop-opacity="1"/><stop id="stop3458-39-80-3-5-5" offset=".003" stop-color="#fff" stop-opacity=".235"/><stop id="stop3460-7-0-2-4-2" offset=".99" stop-color="#fff" stop-opacity=".157"/><stop id="stop3462-0-9-8-7-2" offset="1" stop-color="#fff" stop-opacity=".392"/></linearGradient><linearGradient id="50485"><stop id="stop2667-18" offset="0" stop-color="#000" stop-opacity="0"/><stop id="stop2669-9" offset=".5" stop-color="#000" stop-opacity="1"/><stop id="stop2671-33" offset="1" stop-color="#000" stop-opacity="0"/></linearGradient><linearGradient id="46464"><stop id="stop4648-8-0-3-6" offset="0" stop-color="#f9f9f9" stop-opacity="1"/><stop id="stop4650-1-7-3-4" offset="1" stop-color="#d8d8d8" stop-opacity="1"/></linearGradient><linearGradient id="linearGradient1359" x1="63.412" x2="63.412" y1="18.216" y2="21.216" gradientTransform="translate(-50.940791,-1e-5)" gradientUnits="userSpaceOnUse" xlink:href="#46464"/><linearGradient id="linearGradient1361" x1="302.857" x2="302.857" y1="366.648" y2="609.505" gradientTransform="matrix(0.07938856,0,0,0.02470588,-4.69321,31.94163)" gradientUnits="userSpaceOnUse" xlink:href="#50485"/><radialGradient id="radialGradient1363" cx="605.714" cy="486.648" r="117.143" fx="605.714" fy="486.648" gradientTransform="matrix(0.03079083,0,0,0.02470588,24.61029,31.94163)" gradientUnits="userSpaceOnUse" xlink:href="#linearGradient4712"/><radialGradient id="radialGradient1365" cx="605.714" cy="486.648" r="117.143" fx="605.714" fy="486.648" gradientTransform="matrix(-0.03079083,0,0,0.02470588,23.38989,31.94163)" gradientUnits="userSpaceOnUse" xlink:href="#linearGradient4712"/><linearGradient id="linearGradient1369" x1="27.335" x2="27.335" y1="-1.815" y2="21.229" gradientTransform="matrix(0.89186139,0,0,0.86792712,4.12081,24.57503)" gradientUnits="userSpaceOnUse" xlink:href="#34542"/><linearGradient id="linearGradient4632-0-6-4-4-4"><stop id="stop4634-4-4-7-4" offset="0" stop-color="#efdfc4" stop-opacity="1"/><stop id="stop4636-3-1-5-9" offset="1" stop-color="#e7c591" stop-opacity="1"/></linearGradient><linearGradient id="linearGradient997-3" x1="45.429" x2="45.429" y1="64.794" y2="113.494" gradientTransform="matrix(0.50413225,0,0,0.49333391,13.966446,-10.999227)" gradientUnits="userSpaceOnUse" xlink:href="#linearGradient4632-0-6-4-4-4"/><linearGradient id="linearGradient12463" x1="21.37" x2="21.37" y1="7.227" y2="34.143" gradientTransform="matrix(0.89189031,0,0,1.0580283,3.1206621,5.3536)" gradientUnits="userSpaceOnUse" xlink:href="#linearGradient4507-0-4-7"/><linearGradient id="linearGradient4507-0-4-7"><stop id="stop4509-35-6-1" offset="0" stop-color="#fff" stop-opacity="1"/><stop id="stop4511-46-3-8" offset="0" stop-color="#fff" stop-opacity=".235"/><stop id="stop4513-15-5-9" offset=".99" stop-color="#fff" stop-opacity=".157"/><stop id="stop4515-1-1-8" offset="1" stop-color="#fff" stop-opacity=".392"/></linearGradient></defs><path id="rect4251-0-0-9-7-3-3" fill="none" fill-opacity="1" stroke="#7e8087" stroke-dasharray="none" stroke-dashoffset="0" stroke-linecap="square" stroke-linejoin="miter" stroke-miterlimit="4" stroke-opacity="1" stroke-width=".992" d="m 5.50009,8.49999 c -0.554,0 -1,0.446 -1,1 v 2 h -1 c -0.554,0 -1,0.446 -1,1 v 12 h 43 v -12 c 0,-0.554 -0.446,-1 -1,-1 h -23 v -2 c 0,-0.554 -0.446,-1 -1,-1 z" color="#000" display="inline" enable-background="accumulate" opacity=".5" overflow="visible" vector-effect="none" visibility="visible" style="marker:none;font-variant-east_asian:normal"/><path id="rect4251-4-8-2-72-8" fill="url(#linearGradient1359)" fill-opacity="1" fill-rule="nonzero" stroke="none" stroke-width="1" d="m 5.50009,8.99999 c -0.277,0 -0.5,0.223 -0.5,0.5 v 2.5 h -1.5 c -0.277,0 -0.5,0.223 -0.5,0.5 L 3.00007,24 h 42 l 2e-5,-11.50001 c 0,-0.277 -0.223,-0.5 -0.5,-0.5 h -23.5 v -2.5 c 0,-0.277 -0.223,-0.5 -0.5,-0.5 z" color="#000" display="inline" enable-background="accumulate" overflow="visible" visibility="visible" style="marker:none"/><rect id="rect4173-6-1-6-8-3" width="38.333" height="6" x="4.833" y="41" fill="url(#linearGradient1361)" fill-opacity="1" fill-rule="nonzero" stroke="none" stroke-width="1" display="inline" opacity=".3" overflow="visible" visibility="visible" style="marker:none"/><path d="m 43.16679,41.0002 c 0,0 0,5.99967 0,5.99967 1.5856,0.0113 3.8333,-1.34422 3.8333,-3.00022 0,-1.656 -1.7695,-2.99945 -3.8333,-2.99945 z" style="marker:none" id="path5058-7-5-8-1-4" fill="url(#radialGradient1363)" fill-opacity="1" fill-rule="nonzero" stroke="none" stroke-width="1" display="inline" opacity=".3" overflow="visible" visibility="visible"/><path d="m 4.83339,41.0002 c 0,0 0,5.99967 0,5.99967 -1.5856,0.0113 -3.8333,-1.34422 -3.8333,-3.00022 0,-1.656 1.7695,-2.99945 3.8333,-2.99945 z" style="marker:none" id="path5018-8-7-1-0-4" fill="url(#radialGradient1365)" fill-opacity="1" fill-rule="nonzero" stroke="none" stroke-width="1" display="inline" opacity=".3" overflow="visible" visibility="visible"/><path id="rect4251-9-21-7" fill="none" stroke="url(#linearGradient12463)" stroke-dasharray="none" stroke-dashoffset="0" stroke-linecap="round" stroke-linejoin="round" stroke-miterlimit="4" stroke-opacity="1" stroke-width="1" d="m 5.5000021,9.5 v 3 h -2 v 11 H 44.500002 v -11 h -24 v -3 z" color="#000" display="inline" enable-background="accumulate" overflow="visible" visibility="visible" style="marker:none"/><path id="path3983" fill="url(#linearGradient997-3)" fill-opacity="1" fill-rule="nonzero" stroke="#987124" stroke-dasharray="none" stroke-dashoffset="0" stroke-linecap="butt" stroke-linejoin="round" stroke-miterlimit="4" stroke-opacity=".498" stroke-width="1" d="m 0.50007,22 2.5,22.5 H 45.36749 L 47.55311,21.99954 C 47.60163,21.5 47.00007,21.5 47.00007,21.5 h -46 c -0.5,0 -0.5,0.5 -0.5,0.5 z" color="#000" display="inline" enable-background="accumulate" opacity="1" overflow="visible" vector-effect="none" visibility="visible" style="marker:none;font-variant-east_asian:normal"/><path id="path3985" fill="none" stroke="url(#linearGradient1369)" stroke-dasharray="none" stroke-dashoffset="0" stroke-linecap="round" stroke-linejoin="miter" stroke-miterlimit="4" stroke-opacity="1" stroke-width="1" d="m 1.50007,22.5 2.36742,21 h 40.63258 l 2,-21 z" color="#000" display="inline" enable-background="accumulate" opacity=".5" overflow="visible" visibility="visible" style="marker:none"/><path stroke-opacity="1" style="marker:none;font-variant-east_asian:normal" id="path7565" fill="#fff" fill-opacity="1" fill-rule="nonzero" stroke="none" stroke-dasharray="none" stroke-dashoffset="0" stroke-linecap="butt" stroke-linejoin="miter" stroke-miterlimit="4" stroke-width="1.7" d="m 29.750392,28.69571 -8.289882,1.548033 c -0.554,0.120549 -1.03289,0.601258 -1,1.06586 l 0.52279,7.384881 c -0.561771,-0.238879 -1.283256,-0.335474 -2.03125,-0.177644 -1.349764,0.284807 -2.195584,1.205255 -1.90625,2.055586 0.289334,0.850331 1.618986,1.325288 2.96875,1.040481 1.076833,-0.227216 1.819117,-0.870104 1.9375,-1.548033 l -0.49154,-6.97884 7.914882,-1.522655 -0.392092,5.506938 c -0.561771,-0.238879 -1.283256,-0.335473 -2.03125,-0.177643 -1.349764,0.284807 -2.195585,1.205255 -1.90625,2.055586 0.289335,0.85033 1.618986,1.325288 2.96875,1.040481 1.076834,-0.227217 1.819117,-0.870105 1.9375,-1.548033 l 0.423342,-9.08518 c 0,-0.349324 -0.265844,-0.610678 -0.625,-0.659818 z" color="#000" display="inline" enable-background="accumulate" opacity=".3" overflow="visible" vector-effect="none" visibility="visible"/><path stroke-opacity=".498" style="marker:none;font-variant-east_asian:normal" id="rect2996-4" fill="#7e5514" fill-opacity=".971" fill-rule="nonzero" stroke="none" stroke-dasharray="none" stroke-dashoffset="0" stroke-linecap="butt" stroke-linejoin="miter" stroke-miterlimit="4" stroke-width="1" d="m 29.750392,27.69571 -8.289882,1.548033 c -0.554,0.120549 -1.03289,0.601258 -1,1.06586 l 0.52279,7.384881 c -0.561771,-0.238879 -1.283256,-0.335474 -2.03125,-0.177644 -1.349764,0.284807 -2.195584,1.205255 -1.90625,2.055586 0.289334,0.850331 1.618986,1.325288 2.96875,1.040481 1.076833,-0.227216 1.819117,-0.870104 1.9375,-1.548033 l -0.49154,-6.97884 7.914882,-1.522655 -0.392092,5.506938 c -0.561771,-0.238879 -1.283256,-0.335473 -2.03125,-0.177643 -1.349764,0.284807 -2.195585,1.205255 -1.90625,2.055586 0.289335,0.85033 1.618986,1.325288 2.96875,1.040481 1.076834,-0.227217 1.819117,-0.870105 1.9375,-1.548033 l 0.423342,-9.08518 c 0,-0.349324 -0.265844,-0.610678 -0.625,-0.659818 z" color="#000" display="inline" enable-background="accumulate" opacity=".6" overflow="visible" vector-effect="none" visibility="visible"/></svg>