<svg xmlns="http://www.w3.org/2000/svg" xmlns:svg="http://www.w3.org/2000/svg" xmlns:xlink="http://www.w3.org/1999/xlink" id="svg3495" width="24" height="24" version="1.1"><defs id="defs3497"><clipPath id="clipPath3669" clipPathUnits="userSpaceOnUse"><path id="path3671" d="M 0,96 96,96 96,0 0,0 0,96 z"/></clipPath><linearGradient id="linearGradient3793" x1="12" x2="12" y1="22" y2="-2" gradientTransform="translate(0,26)" gradientUnits="userSpaceOnUse" xlink:href="#linearGradient3821"/><linearGradient id="linearGradient3821"><stop id="stop3823" offset="0" stop-color="#555" stop-opacity="1"/><stop id="stop3825" offset="1" stop-color="#666" stop-opacity="1"/></linearGradient><linearGradient id="linearGradient3011" x1="12" x2="12" y1="22" y2="-2" gradientTransform="translate(31.883514,24.756453)" gradientUnits="userSpaceOnUse" xlink:href="#linearGradient3821"/><linearGradient id="linearGradient3800" x1="12" x2="12" y1="22" y2="0" gradientTransform="translate(1,28)" gradientUnits="userSpaceOnUse" xlink:href="#linearGradient3821"/><linearGradient id="linearGradient3810" x1="12" x2="12" y1="22" y2="0" gradientUnits="userSpaceOnUse" xlink:href="#linearGradient3821"/><linearGradient id="linearGradient3824" x1="12" x2="12" y1="22" y2="0" gradientUnits="userSpaceOnUse" xlink:href="#linearGradient3821"/><linearGradient id="linearGradient3843" x1="12" x2="12" y1="22" y2="0" gradientUnits="userSpaceOnUse" xlink:href="#linearGradient3821"/><radialGradient id="radialGradient3960" cx="40" cy="43.5" r="2" fx="40" fy="43.5" gradientTransform="matrix(1,0,0,0.75,-21,12.375)" gradientUnits="userSpaceOnUse" xlink:href="#linearGradient3952"/><linearGradient id="linearGradient3952"><stop id="stop3954" offset="0" stop-color="#000" stop-opacity="1"/><stop id="stop3956" offset="1" stop-color="#000" stop-opacity="0"/></linearGradient><radialGradient id="radialGradient3957" cx="9" cy="43.5" r="2" fx="9" fy="43.5" gradientTransform="matrix(1,0,0,0.75,-4,12.375)" gradientUnits="userSpaceOnUse" xlink:href="#linearGradient3944"/><linearGradient id="linearGradient3944"><stop id="stop3946" offset="0" stop-color="#000" stop-opacity="1"/><stop id="stop3948" offset="1" stop-color="#000" stop-opacity="0"/></linearGradient><linearGradient id="linearGradient3954" x1="25" x2="25" y1="45" y2="42" gradientTransform="translate(-8,1.5)" gradientUnits="userSpaceOnUse" xlink:href="#linearGradient3960"/><linearGradient id="linearGradient3960"><stop id="stop3962" offset="0" stop-color="#000" stop-opacity="0"/><stop id="stop3970" offset=".5" stop-color="#000" stop-opacity="1"/><stop id="stop3964" offset="1" stop-color="#000" stop-opacity="0"/></linearGradient><linearGradient id="linearGradient3994" x1="25" x2="25" y1="45" y2="42" gradientTransform="translate(-8,1.5)" gradientUnits="userSpaceOnUse" xlink:href="#linearGradient3960"/><linearGradient id="linearGradient4038" x1="25" x2="25" y1="45" y2="42" gradientTransform="translate(-9,-1)" gradientUnits="userSpaceOnUse" xlink:href="#linearGradient3960"/><radialGradient id="radialGradient4041" cx="9" cy="43.5" r="2" fx="9" fy="43.5" gradientTransform="matrix(1,0,0,0.75,-4,9.875)" gradientUnits="userSpaceOnUse" xlink:href="#linearGradient3944"/><radialGradient id="radialGradient4044" cx="40" cy="43.5" r="2" fx="40" fy="43.5" gradientTransform="matrix(1,0,0,0.75,-22,9.875)" gradientUnits="userSpaceOnUse" xlink:href="#linearGradient3952"/><radialGradient id="radialGradient4051" cx="40" cy="43.5" r="2" fx="40" fy="43.5" gradientTransform="matrix(1,0,0,0.75,-21,12.375)" gradientUnits="userSpaceOnUse" xlink:href="#linearGradient3952"/><radialGradient id="radialGradient4053" cx="9" cy="43.5" r="2" fx="9" fy="43.5" gradientTransform="matrix(1,0,0,0.75,-3,12.375)" gradientUnits="userSpaceOnUse" xlink:href="#linearGradient3944"/><linearGradient id="linearGradient4055" x1="25" x2="25" y1="45" y2="42" gradientTransform="translate(-8,1.5)" gradientUnits="userSpaceOnUse" xlink:href="#linearGradient3960"/><radialGradient id="radialGradient5584" cx="11.031" cy="17.125" r="9.844" fx="11.031" fy="17.125" gradientTransform="matrix(0.63623879,0,0,0.14315373,8.98149,18.449012)" gradientUnits="userSpaceOnUse" xlink:href="#linearGradient3952"/><linearGradient id="linearGradient3217" x1="11.192" x2="11.192" y1="-.741" y2="30.298" gradientTransform="matrix(0.57894734,0,0,0.55555556,34.074641,10.496731)" gradientUnits="userSpaceOnUse" xlink:href="#linearGradient3242"/><linearGradient id="linearGradient3242"><stop id="stop3244" offset="0" stop-color="#f8b17e" stop-opacity="1"/><stop id="stop3246" offset=".312" stop-color="#e35d4f" stop-opacity="1"/><stop id="stop3248" offset=".571" stop-color="#c6262e" stop-opacity="1"/><stop id="stop3250" offset="1" stop-color="#690b54" stop-opacity="1"/></linearGradient><linearGradient id="linearGradient5567" x1="41.225" x2="41.225" y1="23.238" y2="7.39" gradientUnits="userSpaceOnUse" xlink:href="#linearGradient2490"/><linearGradient id="linearGradient2490"><stop id="stop2492" offset="0" stop-color="#791235" stop-opacity="1"/><stop id="stop2494" offset="1" stop-color="#dd3b27" stop-opacity="1"/></linearGradient><linearGradient id="linearGradient3167" x1="36.011" x2="16.331" y1="13.023" y2="32.702" gradientTransform="matrix(0.3077295,-0.29497944,0.3077295,0.29497944,25.944842,17.144019)" gradientUnits="userSpaceOnUse" xlink:href="#linearGradient7916"/><linearGradient id="linearGradient7916"><stop id="stop7918" offset="0" stop-color="#fff" stop-opacity="1"/><stop id="stop7920" offset="1" stop-color="#fff" stop-opacity="0"/></linearGradient><linearGradient id="linearGradient2419" x1="28.449" x2="16.331" y1="20.584" y2="32.702" gradientTransform="matrix(0.3077295,-0.29497944,0.3077295,0.29497944,25.634631,17.292858)" gradientUnits="userSpaceOnUse" xlink:href="#linearGradient7916"/></defs><metadata id="metadata3500"/><g id="layer1" transform="translate(0,-24)"><g id="g4195"><path id="path11643-3-2" fill="url(#linearGradient3800)" fill-opacity="1" stroke="none" stroke-width="2" d="m 5.5,28.5 0,0.5 0,3 0,0.5 0.5,0 8.5,0 c 0.08206,0 0.389728,0.133396 0.625,0.375 0.235272,0.241604 0.375,0.582603 0.375,0.625 l 0,1 -7,0 c -1.5181314,0 -2.8768217,0.632337 -3.75,1.625 L 4.71875,36.15625 C 3.8831141,37.123332 3.4895182,38.317935 3.5,39.5 3.50999,40.69972 3.9302675,41.914024 4.78125,42.875 5.6466277,43.852232 6.9943753,44.5 8.5,44.5 l 7.5,0 1.5,0 1.5,0 0.5,0 0,-0.5 c -0.03639,-1.081809 0,-1.899832 0,-3 l 0,-7.5 c 0,-2.720691 -2.208767,-5 -5,-5 l -8.5,0 z m 3,10 7,0 0,2 -7,0 C 7.9951765,40.5 7.9571342,40.448611 7.78125,40.25 7.6331845,40.082802 7.502401,39.770483 7.5,39.5 7.4979278,39.210532 7.6330513,38.882946 7.75,38.75 7.9077178,38.570708 7.9580406,38.5 8.5,38.5 Z" baseline-shift="baseline" color="#000" direction="ltr" display="inline" enable-background="accumulate" font-family="Sans" font-stretch="normal" font-style="normal" font-variant="normal" font-weight="normal" letter-spacing="normal" overflow="visible" text-anchor="start" text-decoration="none" visibility="visible" word-spacing="normal" writing-mode="lr-tb" style="line-height:normal;-inkscape-font-specification:Sans;text-indent:0;text-align:start;text-decoration-line:none;text-transform:none;block-progression:tb;marker:none"/><path id="path3791" fill="none" stroke="#000" stroke-dasharray="none" stroke-miterlimit="4" stroke-opacity="1" stroke-width="1" d="m 5.5,28.5 0,0.5 0,3 0,0.5 0.5,0 8.5,0 c 0.08206,0 0.389728,0.133396 0.625,0.375 0.235272,0.241604 0.375,0.582603 0.375,0.625 l 0,1 -7,0 c -1.5181314,0 -2.8768217,0.632337 -3.75,1.625 L 4.71875,36.15625 C 3.8831141,37.123332 3.4895182,38.317935 3.5,39.5 3.50999,40.69972 3.9302675,41.914024 4.78125,42.875 5.6466277,43.852232 6.9943753,44.5 8.5,44.5 l 7.5,0 1.5,0 1.5,0 0.5,0 0,-0.5 c -0.03639,-1.081809 0,-1.899832 0,-3 l 0,-7.5 c 0,-2.720691 -2.208767,-5 -5,-5 l -8.5,0 z m 3,10 7,0 0,2 -7,0 C 7.9951765,40.5 7.9571342,40.448611 7.78125,40.25 7.6331845,40.082802 7.502401,39.770483 7.5,39.5 7.4979278,39.210532 7.6330513,38.882946 7.75,38.75 7.9077178,38.570708 7.9580406,38.5 8.5,38.5 Z" baseline-shift="baseline" color="#000" direction="ltr" display="inline" enable-background="accumulate" font-family="Sans" font-stretch="normal" font-style="normal" font-variant="normal" font-weight="normal" letter-spacing="normal" opacity=".61" overflow="visible" text-anchor="start" text-decoration="none" visibility="visible" word-spacing="normal" writing-mode="lr-tb" style="line-height:normal;-inkscape-font-specification:Sans;text-indent:0;text-align:start;text-decoration-line:none;text-transform:none;block-progression:tb;marker:none"/><path id="path3802" fill="#fff" fill-opacity="1" stroke="none" stroke-width="2" d="m 6,29 0,1 8.5,0 c 2.519034,0 4.5,2.049922 4.5,4.5 l 0,-1 C 19,31.049922 17.019034,29 14.5,29 Z m 2.5,6 c -1.3792903,0 -2.6021596,0.590155 -3.375,1.46875 l -0.03125,0 L 5.0625,36.5 C 4.3290499,37.365593 3.99065,38.445603 4,39.5 4.00139,39.666857 4.012256,39.834179 4.03125,40 4.117778,39.112343 4.4462387,38.227291 5.0625,37.5 l 0.03125,-0.03125 0.03125,0 C 5.8978404,36.590155 7.1207097,36 8.5,36 l 7,0 0.5,0 0,-0.5 0,-0.5 -0.5,0 z M 7.0625,40 C 7.0205927,40.155264 6.9986707,40.314313 7,40.5 c 0.0038,0.428221 0.1501803,0.804592 0.40625,1.09375 0.085614,0.09668 0.2264879,0.228465 0.4375,0.3125 C 8.0547621,41.990285 8.2306223,42 8.5,42 l 7,0 0.5,0 0,-0.5 0,-0.5 -0.5,0 -7,0 C 8.2306223,41 8.0547621,40.990285 7.84375,40.90625 7.6327379,40.822215 7.491864,40.69043 7.40625,40.59375 7.2563739,40.424508 7.1306289,40.221905 7.0625,40 Z" baseline-shift="baseline" color="#000" direction="ltr" display="inline" enable-background="accumulate" font-family="Sans" font-stretch="normal" font-style="normal" font-variant="normal" font-weight="normal" letter-spacing="normal" opacity=".2" overflow="visible" text-anchor="start" text-decoration="none" visibility="visible" word-spacing="normal" writing-mode="lr-tb" style="line-height:normal;-inkscape-font-specification:Sans;text-indent:0;text-align:start;text-decoration-line:none;text-transform:none;block-progression:tb;marker:none"/><path id="rect3940" fill="url(#radialGradient4051)" fill-opacity="1" stroke="none" d="m 19,43.5 0,3 0.5,0 c 0.831,0 1.5,-0.669 1.5,-1.5 0,-0.831 -0.669,-1.5 -1.5,-1.5 l -0.5,0 z" opacity=".2"/><path id="rect3942" fill="url(#radialGradient4053)" fill-opacity="1" stroke="none" d="M 5.40625,43.5 C 4.6271875,43.5 4,44.127187 4,44.90625 l 0,0.1875 C 4,45.872813 4.6271875,46.5 5.40625,46.5 L 6,46.5 l 0,-3 -0.59375,0 z" opacity=".2"/><path id="rect3938" fill="url(#linearGradient4055)" fill-opacity="1" stroke="none" d="m 6,43.5 13,0 0,3 -13,0 z" opacity=".2"/><g id="g4239" transform="translate(1.737025,25.690312)"><path id="path3843-1" fill="url(#radialGradient5584)" fill-opacity="1" fill-rule="nonzero" stroke="none" stroke-width="1" d="m 22.262975,20.900519 a 6.2629757,1.4091694 0 0 1 -12.5259514,0 6.2629757,1.4091694 0 1 1 12.5259514,0 z" color="#000" display="inline" enable-background="accumulate" opacity=".4" overflow="visible" visibility="visible" style="marker:none"/><g id="layer1-3" transform="translate(-25.02201,-0.941175)"><path d="m 46.52201,20.385514 -3.184991,-2.946158 3.06471,-3.086417 -2.209232,-1.911764 -3.154011,2.941176 -3.217945,-2.941176 -2.298531,1.982082 3.217944,3.003528 -3.217944,2.955566 2.298531,2.058824 3.214211,-3.088236 3.22168,3.088236 2.265578,-2.055661 z" style="line-height:125%;text-align:start" id="text1314" fill="url(#linearGradient3217)" fill-opacity="1" stroke="url(#linearGradient5567)" stroke-dasharray="none" stroke-linecap="butt" stroke-linejoin="round" stroke-miterlimit="4" stroke-opacity="1" stroke-width="1" font-family="Bitstream Vera Sans" font-size="59.901" font-stretch="normal" font-style="normal" font-variant="normal" font-weight="bold" text-anchor="start" writing-mode="lr-tb"/><path id="path7076" fill="none" stroke="url(#linearGradient3167)" stroke-dasharray="none" stroke-linecap="square" stroke-linejoin="miter" stroke-miterlimit="4" stroke-opacity="1" stroke-width="1" d="m 44.93385,14.418281 -0.647334,-0.627116 -3.264508,2.866366 -3.225731,-2.863558 -0.824531,0.673766" font-family="Bitstream Vera Sans" font-size="59.901" font-stretch="normal" font-style="normal" font-variant="normal" font-weight="bold" opacity=".5" text-anchor="start" writing-mode="lr-tb" style="line-height:125%;text-align:start"/><path id="path3165" fill="none" stroke="url(#linearGradient2419)" stroke-dasharray="none" stroke-linecap="butt" stroke-linejoin="miter" stroke-miterlimit="4" stroke-opacity="1" stroke-width="1" d="m 45.42749,20.732088 -2.99345,-2.713434 m -2.968147,0.03651 -2.804358,2.701545" font-family="Bitstream Vera Sans" font-size="59.901" font-stretch="normal" font-style="normal" font-variant="normal" font-weight="bold" opacity=".4" text-anchor="start" writing-mode="lr-tb" style="line-height:125%;text-align:start"/></g></g></g></g></svg>