<svg xmlns="http://www.w3.org/2000/svg" xmlns:svg="http://www.w3.org/2000/svg" xmlns:xlink="http://www.w3.org/1999/xlink" id="svg11300" width="128" height="128" display="inline" enable-background="new" version="1.0" viewBox="0 0 128 128"><metadata id="metadata154"/><title id="title4162">elementary Icon Template</title><defs id="defs3"><linearGradient id="linearGradient4712"><stop id="stop4708" offset="0" stop-color="#000" stop-opacity="1"/><stop id="stop4710" offset="1" stop-color="#000" stop-opacity="0"/></linearGradient><linearGradient id="34542"><stop id="stop3456-4-9-38-1-8" offset="0" stop-color="#fff" stop-opacity="1"/><stop id="stop3458-39-80-3-5-5" offset=".003" stop-color="#fff" stop-opacity=".235"/><stop id="stop3460-7-0-2-4-2" offset=".99" stop-color="#fff" stop-opacity=".157"/><stop id="stop3462-0-9-8-7-2" offset="1" stop-color="#fff" stop-opacity=".392"/></linearGradient><linearGradient id="50485"><stop id="stop2667-18" offset="0" stop-color="#000" stop-opacity="0"/><stop id="stop2669-9" offset=".5" stop-color="#000" stop-opacity="1"/><stop id="stop2671-33" offset="1" stop-color="#000" stop-opacity="0"/></linearGradient><linearGradient id="46464"><stop id="stop4648-8-0-3-6" offset="0" stop-color="#f9f9f9" stop-opacity="1"/><stop id="stop4650-1-7-3-4" offset="1" stop-color="#d8d8d8" stop-opacity="1"/></linearGradient><linearGradient id="linearGradient22546" x1="302.857" x2="302.857" y1="366.648" y2="609.505" gradientTransform="matrix(0.21400397,0,0,0.06588235,-13.34714,82.994307)" gradientUnits="userSpaceOnUse" xlink:href="#50485"/><radialGradient id="radialGradient22548" cx="605.714" cy="486.648" r="117.143" fx="605.714" fy="486.648" gradientTransform="matrix(0.08300137,0,0,0.06588235,65.64502,82.994307)" gradientUnits="userSpaceOnUse" xlink:href="#linearGradient4712"/><radialGradient id="radialGradient22550" cx="605.714" cy="486.648" r="117.143" fx="605.714" fy="486.648" gradientTransform="matrix(-0.08300135,0,0,0.06588235,62.35497,82.994307)" gradientUnits="userSpaceOnUse" xlink:href="#linearGradient4712"/><linearGradient id="linearGradient29482" x1="63.412" x2="63.412" y1="19.664" y2="21.216" gradientTransform="matrix(2.7619048,0,0,2.7619048,-142.97955,-2.644346)" gradientUnits="userSpaceOnUse" xlink:href="#46464"/><linearGradient id="linearGradient4242" x1="27.335" x2="27.335" y1="-11.032" y2="22.381" gradientTransform="matrix(1.7837124,0,0,1.7358442,8.24151,77.150247)" gradientUnits="userSpaceOnUse" xlink:href="#34542"/><linearGradient id="linearGradient5873" x1="97.539" x2="97.539" y1="12.108" y2="44.261" gradientTransform="matrix(2.6658408,0,0,2.6469079,-143.33283,-1.0498827)" gradientUnits="userSpaceOnUse" xlink:href="#linearGradient9235"/><linearGradient id="linearGradient9235"><stop id="stop9237" offset="0" stop-color="#fff" stop-opacity="1"/><stop id="stop9239" offset=".024" stop-color="#fff" stop-opacity=".235"/><stop id="stop9241" offset=".979" stop-color="#fff" stop-opacity=".157"/><stop id="stop9243" offset="1" stop-color="#fff" stop-opacity=".392"/></linearGradient><linearGradient id="linearGradient4632-0-6-4-4-4"><stop id="stop4634-4-4-7-4" offset="0" stop-color="#efdfc4" stop-opacity="1"/><stop id="stop4636-3-1-5-9" offset="1" stop-color="#e7c591" stop-opacity="1"/></linearGradient><linearGradient id="linearGradient997" x1="413.606" x2="413.606" y1="8.127" y2="130.485" gradientTransform="matrix(0.50413225,0,0,0.49333391,-142.29195,52.540598)" gradientUnits="userSpaceOnUse" xlink:href="#linearGradient4632-0-6-4-4-4"/></defs><path id="rect8678-4-5" fill="url(#linearGradient29482)" fill-opacity="1" fill-rule="nonzero" stroke="none" stroke-width="1" d="m 12.83723,22.031037 c -1.108,-9e-5 -1.83721,1.07377 -1.83721,2.18177 L 11,30.000107 H 8 c -1.108,0 -2,0.892 -2,2 v 30.99984 h 116 l 0.0361,-30.99984 c 10e-4,-1.108 -0.892,-2 -2,-2 L 57,29.999947 56.9505,24.034577 c -0.009,-1.10796 -0.892,-1.99991 -2,-2 z" color="#000" display="inline" enable-background="accumulate" overflow="visible" visibility="visible" style="marker:none"/><path stroke-width=".992" style="marker:none;font-variant-east_asian:normal" id="path3468-0" fill="none" fill-opacity="1" stroke="#7e8087" stroke-dasharray="none" stroke-dashoffset="0" stroke-linecap="square" stroke-linejoin="miter" stroke-miterlimit="4" stroke-opacity="1" d="m 13.50002,21.499947 c -1.87818,0.0205 -2.99999,1.09607 -3,2.85402 l -2e-5,5.14598 c -0.9606,0 -1.4771,-0.003 -2.1044,0 -1.67856,0.008 -2.87762,0.94491 -2.87762,2.83298 C 5.61158,59.830577 5.5,63.499947 5.5,63.499947 h 117 l 0.036,-31.19486 c 0.002,-1.75796 -1.15786,-2.82564 -3.03605,-2.80514 h -62 v -5.01742 c 0,-1.75795 -1.23699,-2.97889 -2.99783,-2.97904 L 13.5,21.499947 Z" color="#000" display="inline" enable-background="accumulate" opacity=".5" overflow="visible" vector-effect="none" visibility="visible"/><path stroke-width="1" style="marker:none;font-variant-east_asian:normal" id="rect8678-8" fill="none" fill-opacity="1" stroke="url(#linearGradient5873)" stroke-dasharray="none" stroke-dashoffset="0" stroke-linecap="round" stroke-linejoin="round" stroke-miterlimit="4" stroke-opacity="1" d="m 13.33723,22.499787 c -1.108,-10e-5 -1.83721,1.07377 -1.83721,2.18177 l -2e-5,5.81855 h -3 c -1.108,0 -2,0.892 -2,2 l 2e-5,29.99984 h 115 l 0.036,-29.99984 c 0.001,-1.108 -0.892,-2 -2,-2 L 56.5,30.499947 l 2e-5,-5.81839 c 0,-1.108 -0.94156,-2.17814 -2.04956,-2.17823 z" color="#000" display="inline" enable-background="accumulate" opacity="1" overflow="visible" vector-effect="none" visibility="visible"/><rect id="rect22540" width="103.333" height="16" x="12.333" y="107.15" fill="url(#linearGradient22546)" fill-opacity="1" fill-rule="nonzero" stroke="none" stroke-width=".997" display="inline" opacity=".3" overflow="visible" visibility="visible" style="marker:none"/><path id="path22542" fill="url(#radialGradient22548)" fill-opacity="1" fill-rule="nonzero" stroke="none" stroke-width=".997" d="m 115.66666,107.15048 c 0,0 0,15.99912 0,15.99912 4.27437,0.0301 10.33334,-3.58459 10.33334,-8.00059 0,-4.416 -4.76988,-7.99853 -10.33334,-7.99853 z" display="inline" opacity=".3" overflow="visible" visibility="visible" style="marker:none"/><path id="path22544" fill="url(#radialGradient22550)" fill-opacity="1" fill-rule="nonzero" stroke="none" stroke-width=".997" d="m 12.33334,107.15048 c 0,0 0,15.99912 0,15.99912 C 8.05897,123.17975 2,119.56501 2,115.14901 c 0,-4.416 4.76987,-7.99853 10.33334,-7.99853 z" display="inline" opacity=".3" overflow="visible" visibility="visible" style="marker:none"/><path stroke-opacity=".498" style="marker:none;font-variant-east_asian:normal" id="path4232" fill="url(#linearGradient997)" fill-opacity="1" fill-rule="nonzero" stroke="#987124" stroke-dasharray="none" stroke-dashoffset="0" stroke-linecap="butt" stroke-linejoin="miter" stroke-miterlimit="4" stroke-width="1" d="M 1.5,59.499947 6,115.49995 c 0,0 0,2 2,2 h 111.99935 c 2.00065,0 2.00065,-2 2.00065,-2 l 4.5,-56.000003 c 0.097,-0.99902 0.5,-3 -2,-3 H 4 c -3,0 -2.61436,2.02287 -2.5,3 z" color="#000" display="inline" enable-background="accumulate" opacity="1" overflow="visible" vector-effect="none" visibility="visible"/><path id="path4234" fill="none" stroke="url(#linearGradient4242)" stroke-dasharray="none" stroke-dashoffset="0" stroke-linecap="round" stroke-linejoin="miter" stroke-miterlimit="4" stroke-opacity="1" stroke-width="1" d="M 2.53891,59.641217 7,115.49995 c 0,0 0,1 1,1 h 112 c 1,0 1,-1 1,-1 l 4.5,-56.000003 c 0.15378,-1.59495 0,-2 -1,-2 H 4.04143 c -1.04143,0 -1.80961,-0.22529 -1.50252,2.14127 z" color="#000" display="inline" enable-background="accumulate" opacity=".5" overflow="visible" visibility="visible" style="marker:none"/><path stroke-opacity="1" style="marker:none;font-variant-east_asian:normal" id="path14800" fill="#fff" fill-opacity="1" fill-rule="nonzero" stroke="none" stroke-dasharray="none" stroke-dashoffset="0" stroke-linecap="butt" stroke-linejoin="miter" stroke-miterlimit="4" stroke-width="5.1" d="M 80.53835,70.999779 56.282139,75.5248 c -1.662743,0.352373 -3.045914,1.754852 -3.001341,3.115588 l 0.707107,21.586572 c -1.686067,-0.698258 -3.851489,-0.98061 -6.096474,-0.519261 -4.051101,0.832511 -6.589698,3.523051 -5.721306,6.008631 0.868391,2.48559 4.85913,3.87392 8.910231,3.04141 3.231944,-0.66417 5.459789,-2.54338 5.815098,-4.52502 l -0.613315,-20.399685 23.130708,-4.45084 -1.414213,16.097206 c -1.686067,-0.698262 -3.851489,-0.980615 -6.096474,-0.519265 -4.051102,0.832511 -6.589699,3.523053 -5.721307,6.008634 0.86839,2.48558 4.859129,3.87392 8.910232,3.04141 3.231946,-0.66417 5.45979,-2.54339 5.815098,-4.525023 l 1.508005,-26.556681 c 0,-1.021099 -0.797888,-1.785056 -1.875838,-1.928697 z" color="#000" display="inline" enable-background="accumulate" opacity=".2" overflow="visible" vector-effect="none" visibility="visible"/><path stroke-opacity=".498" style="marker:none;font-variant-east_asian:normal" id="rect2996-4-9" fill="#7e5514" fill-opacity=".971" fill-rule="nonzero" stroke="none" stroke-dasharray="none" stroke-dashoffset="0" stroke-linecap="butt" stroke-linejoin="miter" stroke-miterlimit="4" stroke-width="1" d="M 80.53835,69.999779 56.282139,74.5248 c -1.662743,0.352373 -3.045914,1.754852 -3.001341,3.115588 l 0.707107,21.586576 c -1.686067,-0.698262 -3.851489,-0.980614 -6.096474,-0.519265 -4.051101,0.832511 -6.589698,3.523051 -5.721306,6.008631 0.868391,2.48559 4.85913,3.87392 8.910231,3.04141 3.231944,-0.66417 5.459789,-2.54338 5.815098,-4.52502 l -0.613315,-20.399685 23.130708,-4.45084 -1.414213,16.097206 c -1.686067,-0.698262 -3.851489,-0.980615 -6.096474,-0.519265 -4.051102,0.832511 -6.589699,3.523053 -5.721307,6.008634 0.86839,2.48558 4.859129,3.87392 8.910232,3.04141 3.231946,-0.66417 5.45979,-2.54339 5.815098,-4.525023 l 1.508005,-26.556681 c 0,-1.021099 -0.797888,-1.785056 -1.875838,-1.928697 z" color="#000" display="inline" enable-background="accumulate" opacity=".6" overflow="visible" vector-effect="none" visibility="visible"/></svg>