<svg xmlns="http://www.w3.org/2000/svg" xmlns:svg="http://www.w3.org/2000/svg" id="svg3935" width="16" height="16" version="1.1"><metadata id="metadata3940"/><g id="g4189"><path display="inline" style="line-height:normal;text-indent:0;text-align:start;text-decoration-line:none;text-decoration-style:solid;text-decoration-color:#000;text-transform:none;block-progression:tb;white-space:normal;isolation:auto;mix-blend-mode:normal;solid-color:#000;solid-opacity:1" id="path8117" fill="#f9c440" fill-opacity="1" fill-rule="nonzero" stroke="none" stroke-dasharray="none" stroke-dashoffset="0" stroke-linecap="round" stroke-linejoin="miter" stroke-miterlimit="4" stroke-opacity="1" stroke-width="1" d="M 8 0 L 1 2.1289062 L 1 2.5 C 1 6.6186368 1.0914972 9.0416717 2.0292969 10.949219 C 2.9670966 12.856766 4.7033327 14.092 7.75 15.855469 L 8 16 L 8.25 15.855469 C 11.296667 14.092 13.032903 12.856766 13.970703 10.949219 C 14.908503 9.0416717 15 6.6186368 15 2.5 L 15 2.1289062 L 8 0 z M 7.0097656 3 L 9.0097656 3 L 9.0097656 7 L 8.5097656 9 L 7.5097656 9 L 7.0097656 7 L 7.0097656 3 z M 7.96875 10 A 1 1 0 0 1 8.0097656 10 A 1 1 0 0 1 8.0097656 12 A 1.0002103 1.0002103 0 0 1 7.96875 10 z" baseline-shift="baseline" clip-rule="nonzero" color="#000" color-interpolation="sRGB" color-interpolation-filters="linearRGB" color-rendering="auto" direction="ltr" enable-background="accumulate" font-family="sans-serif" font-size="medium" font-stretch="normal" font-style="normal" font-variant="normal" font-weight="normal" image-rendering="auto" letter-spacing="normal" opacity="1" overflow="visible" shape-rendering="auto" text-anchor="start" text-decoration="none" text-rendering="auto" visibility="visible" word-spacing="normal" writing-mode="lr-tb"/></g></svg>