<svg xmlns="http://www.w3.org/2000/svg" xmlns:svg="http://www.w3.org/2000/svg" xmlns:xlink="http://www.w3.org/1999/xlink" id="svg6436" width="24" height="24" version="1.1"><defs id="defs6438"><linearGradient id="linearGradient5747"><stop id="stop5749" offset="0" stop-color="#000" stop-opacity="1"/><stop id="stop5751" offset="1" stop-color="#000" stop-opacity="0"/></linearGradient><radialGradient id="radialGradient4358-2" cx="4.993" cy="43.5" r="2.5" gradientTransform="matrix(1.2022704,0,0,0.59999988,14.99287,-4.59993)" gradientUnits="userSpaceOnUse" xlink:href="#linearGradient5747"/><radialGradient id="radialGradient4360-3" cx="4.993" cy="43.5" r="2.5" gradientTransform="matrix(1.2022704,0,0,0.59999988,-9.00712,-47.60006)" gradientUnits="userSpaceOnUse" xlink:href="#linearGradient5747"/><linearGradient id="linearGradient4362-5" x1="25.058" x2="25.058" y1="43.528" y2="39.999" gradientTransform="matrix(0.6428571,0,0,0.42857134,-3.42854,2.85721)" gradientUnits="userSpaceOnUse" spreadMethod="reflect" xlink:href="#linearGradient5747"/><linearGradient id="linearGradient3924-0"><stop id="stop3926-6" offset="0" stop-color="#fff" stop-opacity="1"/><stop id="stop3928-3" offset="0" stop-color="#fff" stop-opacity=".235"/><stop id="stop3930-2" offset="1" stop-color="#fff" stop-opacity=".157"/><stop id="stop3932-62" offset="1" stop-color="#fff" stop-opacity=".392"/></linearGradient><linearGradient id="linearGradient3030" x1="40.104" x2="40.104" y1="6.588" y2="41.318" gradientTransform="matrix(0.51351353,0,0,0.45945948,-0.3243235,0.97297965)" gradientUnits="userSpaceOnUse" xlink:href="#linearGradient3924-0"/><linearGradient id="linearGradient872"><stop id="stop868" offset="0" stop-color="#64baff" stop-opacity="1"/><stop id="stop870" offset="1" stop-color="#3689e6" stop-opacity="1"/></linearGradient><linearGradient id="linearGradient874-3" x1="16" x2="16" y1="3" y2="29.567" gradientTransform="matrix(0.72413793,0,0,0.72413793,0.413793,0.1379302)" gradientUnits="userSpaceOnUse" xlink:href="#linearGradient872"/></defs><metadata id="metadata6441"/><g id="g4325" transform="translate(0,-0.10006294)"><rect id="rect2801-0" width="3" height="3" x="21" y="20" fill="url(#radialGradient4358-2)" fill-opacity="1" opacity=".4"/><rect id="rect3696-08" width="3" height="3" x="-3" y="-23" fill="url(#radialGradient4360-3)" fill-opacity="1" opacity=".4" transform="scale(-1,-1)"/><rect id="rect3700-96" width="18" height="3" x="3" y="20" fill="url(#linearGradient4362-5)" fill-opacity="1" opacity=".4"/></g><rect stroke-miterlimit="4" style="marker:none;font-variant-east_asian:normal" id="rect5505-21" width="21" height="19" x="1.5" y="2.5" fill="url(#linearGradient874-3)" fill-opacity="1" fill-rule="nonzero" stroke="none" stroke-dasharray="none" stroke-dashoffset="0" stroke-linecap="round" stroke-linejoin="round" stroke-opacity="1" stroke-width="1" color="#000" display="inline" enable-background="accumulate" opacity="1" overflow="visible" rx="1" ry="1" vector-effect="none" visibility="visible"/><rect id="rect1181" width="18" height="4" x="3" y="16" fill="#002e99" fill-opacity="1" stroke="none" stroke-dasharray="none" stroke-dashoffset="0" stroke-linecap="round" stroke-linejoin="round" stroke-miterlimit="4" stroke-opacity="1" stroke-width="1" opacity=".15" rx="1" ry=".84" vector-effect="none" style="marker:none"/><rect id="rect5505-6" width="21" height="19" x="1.5" y="2.5" fill="#000" fill-opacity="0" stroke="#002e99" stroke-dasharray="none" stroke-dashoffset="0" stroke-linecap="round" stroke-linejoin="round" stroke-miterlimit="4" stroke-opacity="1" stroke-width="1" color="#000" display="inline" enable-background="accumulate" opacity=".5" overflow="visible" rx="1" ry="1" vector-effect="none" visibility="visible" style="marker:none;font-variant-east_asian:normal"/><rect id="rect6741-7-4" width="19" height="17" x="2.5" y="3.5" fill="none" stroke="url(#linearGradient3030)" stroke-dasharray="none" stroke-dashoffset="0" stroke-linecap="round" stroke-linejoin="round" stroke-miterlimit="4" stroke-opacity="1" stroke-width="1" opacity=".5"/><path id="path4306" fill="#fff" fill-opacity=".588" stroke="#fff" stroke-linecap="butt" stroke-linejoin="miter" stroke-opacity="1" stroke-width="1" d="m 4.2391307,18.5 c -0.4094789,0 -0.7391306,0.297334 -0.7391306,0.666667 V 20.5 H 20.500001 V 19.166667 C 20.500001,18.797334 20.170349,18.5 19.76087,18.5 Z" opacity=".7"/><path id="path3176" fill="#f7f7f7" fill-opacity="1" fill-rule="nonzero" stroke="#fff" stroke-dashoffset="0" stroke-linecap="butt" stroke-linejoin="miter" stroke-miterlimit="4" stroke-opacity="1" stroke-width=".985" d="M 6.3064152,17.492712 H 4.6935855 c -0.1112831,0 -0.2008716,0.08959 -0.2008716,0.200872 v 1.612829 c 0,0.111283 0.089591,0.200872 0.2008716,0.200872 h 1.6128297 c 0.1112822,0 0.2008715,-0.08959 0.2008715,-0.200872 v -1.612829 c 0,-0.111282 -0.089591,-0.200872 -0.2008715,-0.200872 z" color="#000" display="inline" enable-background="accumulate" overflow="visible" visibility="visible" style="marker:none"/><path id="path3176-1" fill="#f7f7f7" fill-opacity="1" fill-rule="nonzero" stroke="#fff" stroke-dashoffset="0" stroke-linecap="butt" stroke-linejoin="miter" stroke-miterlimit="4" stroke-opacity="1" stroke-width=".985" d="M 10.306415,17.492712 H 8.6935854 c -0.111283,0 -0.2008715,0.08959 -0.2008715,0.200873 v 1.612828 c 0,0.111283 0.089591,0.200872 0.2008715,0.200872 h 1.6128296 c 0.111282,0 0.200872,-0.08959 0.200872,-0.200872 v -1.612828 c 0,-0.111283 -0.08959,-0.200873 -0.200872,-0.200873 z" color="#000" display="inline" enable-background="accumulate" overflow="visible" visibility="visible" style="marker:none"/><path id="path3176-1-2" fill="#f7f7f7" fill-opacity="1" fill-rule="nonzero" stroke="#fff" stroke-dashoffset="0" stroke-linecap="butt" stroke-linejoin="miter" stroke-miterlimit="4" stroke-opacity="1" stroke-width=".985" d="m 15.306415,17.492712 h -1.612829 c -0.111283,0 -0.200872,0.08959 -0.200872,0.200872 v 1.612829 c 0,0.111283 0.08959,0.200872 0.200872,0.200872 h 1.612829 c 0.111282,0 0.200872,-0.08959 0.200872,-0.200872 v -1.612829 c 0,-0.111282 -0.08959,-0.200872 -0.200872,-0.200872 z" color="#000" display="inline" enable-background="accumulate" overflow="visible" visibility="visible" style="marker:none"/><path id="path3176-1-2-7" fill="#f7f7f7" fill-opacity="1" fill-rule="nonzero" stroke="#fff" stroke-dashoffset="0" stroke-linecap="butt" stroke-linejoin="miter" stroke-miterlimit="4" stroke-opacity="1" stroke-width=".985" d="m 19.306415,17.492712 h -1.612829 c -0.111283,0 -0.200872,0.08959 -0.200872,0.200872 v 1.612829 c 0,0.111283 0.08959,0.200872 0.200872,0.200872 h 1.612829 c 0.111282,0 0.200872,-0.08959 0.200872,-0.200872 v -1.612829 c 0,-0.111282 -0.08959,-0.200872 -0.200872,-0.200872 z" color="#000" display="inline" enable-background="accumulate" overflow="visible" visibility="visible" style="marker:none"/></svg>