<svg xmlns="http://www.w3.org/2000/svg" xmlns:svg="http://www.w3.org/2000/svg" xmlns:xlink="http://www.w3.org/1999/xlink" id="svg4354" width="24" height="24" version="1.1"><defs id="defs4356"><linearGradient id="linearGradient26179" x1="9" x2="9" y1="22" y2="2" gradientTransform="matrix(0.98924728,0,0,0.98924728,1.0752691,0.1494461)" gradientUnits="userSpaceOnUse" xlink:href="#linearGradient13193"/><linearGradient id="linearGradient13193"><stop id="stop13195" offset="0" stop-color="#000" stop-opacity="1"/><stop id="stop13197" offset="1" stop-color="#333" stop-opacity="1"/></linearGradient><linearGradient id="linearGradient26181" x1="14" x2="6" y1="8" y2="16" gradientUnits="userSpaceOnUse" xlink:href="#linearGradient7449"/><linearGradient id="linearGradient7449"><stop id="stop7451" offset="0" stop-color="#fff" stop-opacity="1"/><stop id="stop7457" offset=".125" stop-color="#fff" stop-opacity="0"/><stop id="stop7453" offset="1" stop-color="#fff" stop-opacity="0"/></linearGradient><clipPath id="clipPath7445" clipPathUnits="userSpaceOnUse"><path id="path7447" fill="#333" fill-opacity="1" fill-rule="evenodd" stroke="none" stroke-dasharray="none" stroke-linecap="butt" stroke-linejoin="miter" stroke-miterlimit="4" stroke-opacity="1" stroke-width="2" d="M 8,2.6855469 V 16.685547 l 3.132812,-3.820313 2.066407,4.986328 a 1.0001,1.0001 0 1 0 1.847656,-0.765624 L 12.935547,11.990234 17.314453,12 Z"/></clipPath></defs><metadata id="metadata4359"/><path id="path98960" fill="#000" fill-opacity="1" fill-rule="evenodd" stroke="#000" stroke-dasharray="none" stroke-linecap="butt" stroke-linejoin="round" stroke-miterlimit="4" stroke-opacity="1" stroke-width="6" d="m 8.9892474,4.784611 v 13.849462 l 3.0991256,-3.779234 2.044188,4.932711 a 0.98934621,0.98934621 0 1 0 1.827789,-0.757391 l -2.088626,-5.040912 4.331821,0.0097 z" opacity=".02"/><path id="path98958" fill="#000" fill-opacity="1" fill-rule="evenodd" stroke="#000" stroke-dasharray="none" stroke-linecap="butt" stroke-linejoin="round" stroke-miterlimit="4" stroke-opacity="1" stroke-width="2" d="m 8.9892474,4.784611 v 13.849462 l 3.0991256,-3.779234 2.044188,4.932711 a 0.98934621,0.98934621 0 1 0 1.827789,-0.757391 l -2.088626,-5.040912 4.331821,0.0097 z" opacity=".2"/><path id="path7433" fill="#000" fill-opacity="1" fill-rule="evenodd" stroke="#000" stroke-dasharray="none" stroke-linecap="butt" stroke-linejoin="round" stroke-miterlimit="4" stroke-opacity="1" stroke-width="4" d="m 8.9892474,4.784611 v 13.849462 l 3.0991256,-3.779234 2.044188,4.932711 a 0.98934621,0.98934621 0 1 0 1.827789,-0.757391 l -2.088626,-5.040912 4.331821,0.0097 z" opacity=".05"/><path id="path7431" fill="none" fill-opacity="1" fill-rule="evenodd" stroke="#fff" stroke-dasharray="none" stroke-linecap="butt" stroke-linejoin="miter" stroke-miterlimit="4" stroke-opacity="1" stroke-width="2" d="m 8,3.795363 v 13.849463 l 3.099126,-3.779235 2.044188,4.932711 a 0.98934618,0.98934618 0 1 0 1.827788,-0.757391 L 12.882477,13 l 4.33182,0.0097 z"/><path id="path7371" fill="url(#linearGradient26179)" fill-opacity="1" fill-rule="evenodd" stroke="none" stroke-dasharray="none" stroke-linecap="butt" stroke-linejoin="miter" stroke-miterlimit="4" stroke-opacity="1" stroke-width="2.667" d="m 8,3.795363 v 13.849463 l 3.099126,-3.779235 2.044188,4.932711 a 0.98934618,0.98934618 0 1 0 1.827788,-0.757391 L 12.882477,13 l 4.33182,0.0097 z"/><path id="path7441" fill="none" fill-opacity="1" fill-rule="evenodd" stroke="url(#linearGradient26181)" stroke-dasharray="none" stroke-linecap="butt" stroke-linejoin="miter" stroke-miterlimit="4" stroke-opacity="1" stroke-width="2.696" d="M 8,2.6855469 V 16.685547 l 3.132812,-3.820313 2.066407,4.986328 a 1.0001,1.0001 0 1 0 1.847656,-0.765624 L 12.935547,11.990234 17.314453,12 Z" clip-path="url(#clipPath7445)" opacity=".4" transform="matrix(0.98924729,0,0,0.98924729,0.0860218,1.1386934)"/></svg>