<svg xmlns="http://www.w3.org/2000/svg" xmlns:svg="http://www.w3.org/2000/svg" xmlns:xlink="http://www.w3.org/1999/xlink" id="svg3749" width="24" height="24" version="1.1"><metadata id="metadata148432"/><defs id="defs3751"><linearGradient id="linearGradient837"><stop id="stop833" offset="0" stop-color="#ffe16b" stop-opacity="1"/><stop id="stop835" offset="1" stop-color="#f9c440" stop-opacity="1"/></linearGradient><linearGradient id="linearGradient3820-7-2-2"><stop id="stop3822-2-6-36" offset="0" stop-color="#3d3d3d" stop-opacity="1"/><stop id="stop3864-8-7-6" offset=".5" stop-color="#686868" stop-opacity=".498"/><stop id="stop3824-1-2-4" offset="1" stop-color="#686868" stop-opacity="0"/></linearGradient><linearGradient id="linearGradient4806-9"><stop id="stop4808-49" offset="0" stop-color="#fff" stop-opacity="1"/><stop id="stop4810-05" offset=".424" stop-color="#fff" stop-opacity=".235"/><stop id="stop4812-6" offset=".821" stop-color="#fff" stop-opacity=".157"/><stop id="stop4814-7" offset="1" stop-color="#fff" stop-opacity=".392"/></linearGradient><linearGradient id="linearGradient3097" x1="71.204" x2="71.204" y1="15.369" y2="40.496" gradientTransform="matrix(0.77562456,0,0,0.77562491,-43.981566,-9.6142608)" gradientUnits="userSpaceOnUse" xlink:href="#linearGradient4806-9"/><radialGradient id="radialGradient3108" cx="99.157" cy="186.171" r="62.769" fx="99.157" fy="186.171" gradientTransform="matrix(0.11151981,0,0,0.03548359,0.942029,15.166729)" gradientUnits="userSpaceOnUse" xlink:href="#linearGradient3820-7-2-2"/><linearGradient id="linearGradient839" x1="1.5" x2="22.5" y1="12" y2="12" gradientTransform="rotate(90,12,12)" gradientUnits="userSpaceOnUse" xlink:href="#linearGradient837"/></defs><path id="path3818-0-2" fill="url(#radialGradient3108)" fill-opacity="1" stroke="none" d="m 19,21.772727 a 7,2.2272727 0 0 1 -14,0 7,2.2272727 0 1 1 14,0 z"/><path id="path2555-7-65" fill="url(#linearGradient839)" fill-opacity="1" fill-rule="nonzero" stroke="none" stroke-width="1" d="M 22.5,12 C 22.5,6.2064621 17.793538,1.5000001 12,1.5000001 6.2064622,1.5000001 1.4999992,6.2064621 1.5000002,12 c 0,5.793537 4.706462,10.500004 10.4999998,10.5 5.793538,0 10.5,-4.706463 10.5,-10.5 z" color="#000" display="inline" enable-background="accumulate" overflow="visible" visibility="visible" style="marker:none"/><path id="path2555-7-1-7" fill="none" stroke="#ad5f00" stroke-dasharray="none" stroke-dashoffset="0" stroke-linecap="round" stroke-linejoin="round" stroke-miterlimit="4" stroke-opacity="1" stroke-width="1" d="M 12,1.5000001 C 6.206462,1.5000001 1.5,6.2064618 1.5,11.999999 1.5,17.793538 6.206462,22.500002 12,22.5 17.793538,22.5 22.500007,17.793538 22.5,11.999999 22.5,6.2064618 17.793538,1.5000001 12,1.5000001 z" color="#000" display="inline" enable-background="accumulate" opacity=".5" overflow="visible" visibility="visible" style="marker:none"/><path id="path3421" fill="none" stroke="url(#linearGradient3097)" stroke-dasharray="none" stroke-dashoffset="0" stroke-linecap="round" stroke-linejoin="round" stroke-miterlimit="4" stroke-opacity="1" stroke-width="1" d="m 21.500001,12 c 0,5.246706 -4.253305,9.5 -9.500001,9.5 -5.246695,0 -9.5,-4.253294 -9.5,-9.5 0,-5.2467042 4.253305,-9.5000003 9.5,-9.5000003 5.246696,0 9.500001,4.2532961 9.500001,9.5000003 z" color="#000" display="inline" enable-background="accumulate" opacity=".8" overflow="visible" visibility="visible" style="marker:none"/><path d="m 14.25,5 -5.5,9 3,0 -2,6 5.5,-9 -2.5,0 z" style="marker:none" id="path3172" fill="#333" fill-opacity="1" fill-rule="nonzero" stroke="none" stroke-width="1" display="inline" enable-background="accumulate" overflow="visible" visibility="visible"/></svg>