<svg xmlns="http://www.w3.org/2000/svg" xmlns:svg="http://www.w3.org/2000/svg" xmlns:xlink="http://www.w3.org/1999/xlink" id="svg3182" width="32" height="32" version="1.1"><defs id="defs3184"><linearGradient id="linearGradient3977"><stop id="stop3979" offset="0" stop-color="#fff" stop-opacity="1"/><stop id="stop3981" offset="0" stop-color="#fff" stop-opacity=".235"/><stop id="stop3983" offset="1" stop-color="#fff" stop-opacity=".157"/><stop id="stop3985" offset="1" stop-color="#fff" stop-opacity=".392"/></linearGradient><linearGradient id="linearGradient3600-4"><stop id="stop3602-7" offset="0" stop-color="#f4f4f4" stop-opacity="1"/><stop id="stop3604-6" offset="1" stop-color="#dbdbdb" stop-opacity="1"/></linearGradient><linearGradient id="linearGradient5060"><stop id="stop5062" offset="0" stop-color="#000" stop-opacity="1"/><stop id="stop5064" offset="1" stop-color="#000" stop-opacity="0"/></linearGradient><linearGradient id="linearGradient5048"><stop id="stop5050" offset="0" stop-color="#000" stop-opacity="0"/><stop id="stop5056" offset=".5" stop-color="#000" stop-opacity="1"/><stop id="stop5052" offset="1" stop-color="#000" stop-opacity="0"/></linearGradient><linearGradient id="linearGradient3013" x1="24" x2="24" y1="6.185" y2="41.815" gradientTransform="matrix(0.56756757,0,0,0.72972971,2.378382,-2.5135063)" gradientUnits="userSpaceOnUse" xlink:href="#linearGradient3977"/><linearGradient id="linearGradient3016" x1="25.132" x2="25.132" y1=".985" y2="47.013" gradientTransform="matrix(0.62856997,0,0,0.60839392,0.91431981,-0.5347905)" gradientUnits="userSpaceOnUse" xlink:href="#linearGradient3600-4"/><radialGradient id="radialGradient3021" cx="605.714" cy="486.648" r="117.143" fx="605.714" fy="486.648" gradientTransform="matrix(0.01566318,0,0,0.00823529,17.610433,25.980565)" gradientUnits="userSpaceOnUse" xlink:href="#linearGradient5060"/><radialGradient id="radialGradient3024" cx="605.714" cy="486.648" r="117.143" fx="605.714" fy="486.648" gradientTransform="matrix(-0.01566318,0,0,0.00823529,14.389566,25.980565)" gradientUnits="userSpaceOnUse" xlink:href="#linearGradient5060"/><linearGradient id="linearGradient3027" x1="302.857" x2="302.857" y1="366.648" y2="609.505" gradientTransform="matrix(0.04576928,0,0,0.00823529,-0.5423243,25.980548)" gradientUnits="userSpaceOnUse" xlink:href="#linearGradient5048"/><linearGradient id="linearGradient3104-6"><stop id="stop3106-3" offset="0" stop-color="#000" stop-opacity=".318"/><stop id="stop3108-9" offset="1" stop-color="#000" stop-opacity=".24"/></linearGradient><linearGradient id="linearGradient3148" x1="-51.786" x2="-51.786" y1="50.786" y2="2.906" gradientTransform="matrix(0.53064141,0,0,0.58970049,39.269607,-1.791918)" gradientUnits="userSpaceOnUse" xlink:href="#linearGradient3104-6"/><radialGradient id="radialGradient3947" cx="7.806" cy="9.957" r="12.672" fx="7.276" fy="9.957" gradientTransform="matrix(-1.0624208e-7,4.3506752,-5.3177267,-1.3059556e-7,68.942118,-39.41615)" gradientUnits="userSpaceOnUse" xlink:href="#linearGradient2867-449-88-871-390-598-476-591-434-148-57-177-8-3-4"/><linearGradient id="linearGradient2867-449-88-871-390-598-476-591-434-148-57-177-8-3-4"><stop id="stop3750-1-0-7" offset="0" stop-color="#ffcd7d" stop-opacity="1"/><stop id="stop3752-3-7-6" offset=".262" stop-color="#fc8f36" stop-opacity="1"/><stop id="stop3754-1-8-5" offset=".705" stop-color="#e23a0e" stop-opacity="1"/><stop id="stop3756-1-6-6" offset="1" stop-color="#ac441f" stop-opacity="1"/></linearGradient></defs><metadata id="metadata3187"/><rect id="rect2879" width="22.1" height="2" x="4.95" y="29" fill="url(#linearGradient3027)" fill-opacity="1" fill-rule="nonzero" stroke="none" stroke-width="1" display="inline" opacity=".15" overflow="visible" visibility="visible" style="marker:none"/><path id="path2881" fill="url(#radialGradient3024)" fill-opacity="1" fill-rule="nonzero" stroke="none" stroke-width="1" d="m 4.9499887,29.000086 c 0,0 0,1.99989 0,1.99989 -0.806615,0.0038 -1.950002,-0.448074 -1.950002,-1.000074 0,-0.552 0.900121,-0.999816 1.950002,-0.999816 z" display="inline" opacity=".15" overflow="visible" visibility="visible" style="marker:none"/><path id="path2883" fill="url(#radialGradient3021)" fill-opacity="1" fill-rule="nonzero" stroke="none" stroke-width="1" d="m 27.050011,29.000086 c 0,0 0,1.99989 0,1.99989 0.806614,0.0038 1.950002,-0.448074 1.950002,-1.000074 0,-0.552 -0.900122,-0.999816 -1.950002,-0.999816 z" display="inline" opacity=".15" overflow="visible" visibility="visible" style="marker:none"/><path id="path4160-3" fill="url(#linearGradient3016)" fill-opacity="1" stroke="none" d="m 5,1 c 5.041316,0 21.999973,0.00179 21.999973,0.00179 L 27,29 C 27,29 12.333334,29 5,29 5,19.666667 5,10.333336 5,1.0000041 z" display="inline"/><path id="rect6741-1" fill="none" stroke="url(#linearGradient3013)" stroke-dasharray="none" stroke-dashoffset="0" stroke-linecap="round" stroke-linejoin="miter" stroke-miterlimit="4" stroke-opacity="1" stroke-width="1" d="m 26.5,28.5 -21,0 0,-27 21,0 z"/><path id="path4160-6-1" fill="none" stroke="url(#linearGradient3148)" stroke-dasharray="none" stroke-dashoffset="0" stroke-linecap="butt" stroke-linejoin="round" stroke-miterlimit="4" stroke-opacity="1" stroke-width="1" d="m 4.499961,0.499944 c 5.27048,0 23.000054,0.002 23.000054,0.002 l 2.4e-5,28.998112 c 0,0 -15.333385,0 -23.000078,0 0,-9.666722 0,-19.333346 0,-28.999956 z" display="inline"/><path color-rendering="auto" style="line-height:125%;text-align:start;isolation:auto;mix-blend-mode:normal;solid-color:#000;solid-opacity:1;marker:none" id="path4311" fill="url(#radialGradient3947)" fill-opacity="1" fill-rule="nonzero" stroke="none" stroke-dasharray="none" stroke-dashoffset="0" stroke-linecap="butt" stroke-linejoin="round" stroke-miterlimit="4" stroke-opacity="1" stroke-width="1" d="m 7.0632875,25.901592 c 0,-0.307077 0.1060126,-0.564877 0.3180327,-0.773399 0.2120289,-0.212298 0.4713803,-0.318452 0.7780543,-0.318459 0.2990989,7e-6 0.5527716,0.106162 0.7610092,0.318459 0.2120214,0.208522 0.3180327,0.466322 0.3180327,0.773399 0,0.299511 -0.1060126,0.555414 -0.3180327,0.767713 -0.2082376,0.208522 -0.4619103,0.312779 -0.7610092,0.312772 -0.306674,7e-6 -0.5660254,-0.10425 -0.7780543,-0.312772 C 7.1693064,26.460798 7.0632875,26.204895 7.0632875,25.901592 M 7,20.970736 7,22.787124 c 2.3201852,0 4.204678,1.888165 4.204678,4.212876 l 1.82234,0 c 0,-3.329992 -2.703511,-6.029264 -6.027018,-6.029264 z m 0.00312,-3.974485 0,2.007805 c 4.40528,0 7.98215,3.581636 7.98215,7.992795 l 2.014725,0 c 1.5e-5,-5.521882 -4.482334,-10.0006 -9.99686,-10.0006 z" clip-rule="nonzero" color="#000" color-interpolation="sRGB" color-interpolation-filters="linearRGB" display="inline" enable-background="accumulate" font-family="Bitstream Vera Serif" font-size="13.59" font-stretch="normal" font-style="normal" font-variant="normal" font-weight="bold" image-rendering="auto" opacity="1" overflow="visible" shape-rendering="auto" text-anchor="start" text-rendering="auto" visibility="visible" writing-mode="lr-tb"/></svg>