<svg xmlns="http://www.w3.org/2000/svg" xmlns:svg="http://www.w3.org/2000/svg" xmlns:xlink="http://www.w3.org/1999/xlink" id="svg2526" width="32" height="32" version="1.0"><metadata id="metadata58"/><defs id="defs2528"><linearGradient id="linearGradient5060"><stop id="stop5062" offset="0" stop-color="#000" stop-opacity="1"/><stop id="stop5064" offset="1" stop-color="#000" stop-opacity="0"/></linearGradient><linearGradient id="linearGradient5048"><stop id="stop5050" offset="0" stop-color="#000" stop-opacity="0"/><stop id="stop5056" offset=".5" stop-color="#000" stop-opacity="1"/><stop id="stop5052" offset="1" stop-color="#000" stop-opacity="0"/></linearGradient><linearGradient id="linearGradient3188" x1="302.857" x2="302.857" y1="366.648" y2="609.505" gradientTransform="matrix(0.08449704,0,0,0.01235294,-6.5396456,38.470822)" gradientUnits="userSpaceOnUse" xlink:href="#linearGradient5048"/><radialGradient id="radialGradient3190" cx="605.714" cy="486.648" r="117.143" fx="605.714" fy="486.648" gradientTransform="matrix(-0.0289166,0,0,0.01235294,21.026894,38.470848)" gradientUnits="userSpaceOnUse" xlink:href="#linearGradient5060"/><radialGradient id="radialGradient3192" cx="605.714" cy="486.648" r="117.143" fx="605.714" fy="486.648" gradientTransform="matrix(0.02891661,0,0,0.01235294,26.973101,38.470848)" gradientUnits="userSpaceOnUse" xlink:href="#linearGradient5060"/><linearGradient id="linearGradient2867-449-88-871-390-598-476-591-434-148-57-177-8-3-3-6-4-8-8-8-5-7"><stop id="stop3750-1-0-7-6-6-1-3-9-3-9" offset="0" stop-color="#505050" stop-opacity="1"/><stop id="stop3752-3-7-4-0-32-8-923-0-7-0" offset=".262" stop-color="#2b2b2b" stop-opacity="1"/><stop id="stop3754-1-8-5-2-7-6-7-1-9-1" offset=".705" stop-color="#0a0a0a" stop-opacity="1"/><stop id="stop3756-1-6-2-6-6-1-96-6-0-1" offset="1" stop-color="#000" stop-opacity="1"/></linearGradient><linearGradient id="linearGradient3462"><stop id="stop3464" offset="0" stop-color="#fff" stop-opacity="1"/><stop id="stop3466" offset=".035" stop-color="#fff" stop-opacity=".235"/><stop id="stop3468" offset=".964" stop-color="#fff" stop-opacity=".157"/><stop id="stop3470" offset="1" stop-color="#fff" stop-opacity=".392"/></linearGradient><linearGradient id="linearGradient3217" x1="40.29" x2="40.29" y1="5.414" y2="42.438" gradientTransform="matrix(0.78378379,0,0,0.64864867,-2.8108146,0.93243362)" gradientUnits="userSpaceOnUse" xlink:href="#linearGradient3462"/><radialGradient id="radialGradient3220" cx="7.118" cy="9.957" r="12.672" fx="7.118" fy="9.957" gradientTransform="matrix(0,6.0934966,-8.919496,0,105.47297,-52.09169)" gradientUnits="userSpaceOnUse" xlink:href="#linearGradient2867-449-88-871-390-598-476-591-434-148-57-177-8-3-3-6-4-8-8-8-5-7"/><linearGradient id="linearGradient3680-6-6-6-3-7-1-8-8-6-4"><stop id="stop3682-4-6-1-3-7-7-4-0-3-2" offset="0" stop-color="#dcdcdc" stop-opacity="1"/><stop id="stop3684-8-5-8-0-2-6-8-4-3-2" offset="1" stop-color="#fff" stop-opacity="1"/></linearGradient><linearGradient id="linearGradient3354" x1="20" x2="20" y1="26" y2="13" gradientTransform="matrix(0.94777285,0,0,0.9730468,-33.586838,-7.6485)" gradientUnits="userSpaceOnUse" xlink:href="#linearGradient3680-6-6-6-3-7-1-8-8-6-4"/></defs><g id="g3257" opacity=".4" transform="matrix(0.6666592,0,0,1.3333333,1.792e-4,-30.333332)"><rect id="rect2879" width="40.8" height="3" x="3.6" y="43" fill="url(#linearGradient3188)" fill-opacity="1" fill-rule="nonzero" stroke="none" stroke-width="1" display="inline" overflow="visible" visibility="visible" style="marker:none"/><path id="path2881" fill="url(#radialGradient3190)" fill-opacity="1" fill-rule="nonzero" stroke="none" stroke-width="1" d="m 3.6,43.00013 c 0,0 0,2.999835 0,2.999835 C 2.1108662,46.005612 0,45.327854 0,44.499854 0,43.671856 1.6617608,43.000131 3.6,43.00013 z" display="inline" overflow="visible" visibility="visible" style="marker:none"/><path id="path2883" fill="url(#radialGradient3192)" fill-opacity="1" fill-rule="nonzero" stroke="none" stroke-width="1" d="m 44.4,43.00013 c 0,0 0,2.999835 0,2.999835 1.489133,0.0056 3.6,-0.672111 3.6,-1.500111 0,-0.827998 -1.661761,-1.499723 -3.6,-1.499724 z" display="inline" overflow="visible" visibility="visible" style="marker:none"/></g><rect id="rect5505-21-3-8-5-2" width="31" height="26" x=".5" y="3.5" fill="url(#radialGradient3220)" fill-opacity="1" fill-rule="nonzero" stroke="none" stroke-width="1" color="#000" display="inline" enable-background="accumulate" opacity=".9" overflow="visible" rx="1.051" ry="1.106" visibility="visible" style="marker:none"/><rect id="rect6741-5-0-2-3" width="29" height="24" x="1.5" y="4.5" fill="none" stroke="url(#linearGradient3217)" stroke-dasharray="none" stroke-dashoffset="0" stroke-linecap="round" stroke-linejoin="round" stroke-miterlimit="4" stroke-opacity="1" stroke-width="1" opacity=".3"/><rect id="rect5505-21-3-8-9-1-1" width="31" height="26" x=".5" y="3.5" fill="none" stroke="#000" stroke-dasharray="none" stroke-dashoffset="0" stroke-linecap="round" stroke-linejoin="round" stroke-miterlimit="4" stroke-opacity="1" stroke-width="1" color="#000" display="inline" enable-background="accumulate" opacity=".7" overflow="visible" rx="1.051" ry="1.106" visibility="visible" style="marker:none"/><g id="g3349" transform="translate(50.486698,23.228284)"><path id="path3452" fill="#000" fill-opacity="1" fill-rule="nonzero" stroke="none" stroke-width="1" d="M 19.53125,21 C 18.662276,21 18,21.750922 18,22.5625 l 0,9.875 C 18,33.249078 18.662276,34 19.53125,34 l 8.9375,0 C 29.337724,34 30,33.249078 30,32.4375 l 0,-9.875 C 30,21.750922 29.337724,21 28.46875,21 l -8.9375,0 z M 22,24 l 4,0 0,2 -4,0 0,-2 z m 0,5 4,0 0,2 -4,0 0,-2 z" color="#000" display="inline" enable-background="accumulate" opacity=".15" overflow="visible" transform="translate(-58.486701,-33.228284)" visibility="visible" style="marker:none"/><path id="rect3032-8-4" fill="#000" fill-opacity="1" fill-rule="nonzero" stroke="none" stroke-width="1" d="m -38.955451,-11.228284 c -0.296786,0 -0.53125,0.2578 -0.53125,0.5625 l 0,9.875 c 0,0.3047 0.234464,0.5625 0.53125,0.5625 l 8.9375,0 c 0.296786,0 0.53125,-0.2578 0.53125,-0.5625 l 0,-9.875 c 0,-0.3047 -0.234464,-0.5625 -0.53125,-0.5625 l -8.9375,0 z m 0.1875,0.71875 0.71875,0 0,0.75 -0.71875,0 0,-0.75 z m 7.84375,0 0.71875,0 0,0.75 -0.71875,0 0,-0.75 z m -6.0625,0.28125 5,0 c 0.277,0 0.5,0.223 0.5,0.5 l 0,3 c 0,0.277 -0.223,0.5 -0.5,0.5 l -5,0 c -0.277,0 -0.5,-0.223 -0.5,-0.5 l 0,-3 c 0,-0.277 0.223,-0.5 0.5,-0.5 z m -1.78125,1.1875 0.71875,0 0,0.75 -0.71875,0 0,-0.75 z m 7.84375,0 0.71875,0 0,0.75 -0.71875,0 0,-0.75 z m -7.84375,1.46875 0.71875,0 0,0.75 -0.71875,0 0,-0.75 z m 7.84375,0 0.71875,0 0,0.75 -0.71875,0 0,-0.75 z m -7.84375,1.46875 0.71875,0 0,0.75 -0.71875,0 0,-0.75 z m 7.84375,0 0.71875,0 0,0.75 -0.71875,0 0,-0.75 z m -6.0625,0.875 5,0 c 0.277,0 0.5,0.223 0.5,0.5 l 0,3 c 0,0.277 -0.223,0.5 -0.5,0.5 l -5,0 c -0.277,0 -0.5,-0.223 -0.5,-0.5 l 0,-3 c 0,-0.277 0.223,-0.5 0.5,-0.5 z m -1.78125,0.59375 0.71875,0 0,0.75 -0.71875,0 0,-0.75 z m 7.84375,0 0.71875,0 0,0.75 -0.71875,0 0,-0.75 z m -7.84375,1.46875 0.71875,0 0,0.75 -0.71875,0 0,-0.75 z m 7.84375,0 0.71875,0 0,0.75 -0.71875,0 0,-0.75 z m -7.84375,1.46875 0.71875,0 0,0.75 -0.71875,0 0,-0.75 z m 7.84375,0 0.71875,0 0,0.75 -0.71875,0 0,-0.75 z" color="#000" display="inline" enable-background="accumulate" opacity=".3" overflow="visible" visibility="visible" style="marker:none"/><path id="rect3032-8-9" fill="url(#linearGradient3354)" fill-opacity="1" fill-rule="nonzero" stroke="none" stroke-width="1" d="m -38.955451,-12.228284 c -0.296786,0 -0.53125,0.2578 -0.53125,0.5625 l 0,9.875 c 0,0.3047 0.234464,0.5625 0.53125,0.5625 l 8.9375,0 c 0.296786,0 0.53125,-0.2578 0.53125,-0.5625 l 0,-9.875 c 0,-0.3047 -0.234464,-0.5625 -0.53125,-0.5625 l -8.9375,0 z m 0.1875,0.71875 0.71875,0 0,0.75 -0.71875,0 0,-0.75 z m 7.84375,0 0.71875,0 0,0.75 -0.71875,0 0,-0.75 z m -6.0625,0.28125 5,0 c 0.277,0 0.5,0.223 0.5,0.5 l 0,3 c 0,0.277 -0.223,0.5 -0.5,0.5 l -5,0 c -0.277,0 -0.5,-0.223 -0.5,-0.5 l 0,-3 c 0,-0.277 0.223,-0.5 0.5,-0.5 z m -1.78125,1.1875 0.71875,0 0,0.75 -0.71875,0 0,-0.75 z m 7.84375,0 0.71875,0 0,0.75 -0.71875,0 0,-0.75 z m -7.84375,1.46875 0.71875,0 0,0.75 -0.71875,0 0,-0.75 z m 7.84375,0 0.71875,0 0,0.75 -0.71875,0 0,-0.75 z m -7.84375,1.46875 0.71875,0 0,0.75 -0.71875,0 0,-0.75 z m 7.84375,0 0.71875,0 0,0.75 -0.71875,0 0,-0.75 z m -6.0625,0.875 5,0 c 0.277,0 0.5,0.223 0.5,0.5 l 0,3 c 0,0.277 -0.223,0.5 -0.5,0.5 l -5,0 c -0.277,0 -0.5,-0.223 -0.5,-0.5 l 0,-3 c 0,-0.277 0.223,-0.5 0.5,-0.5 z m -1.78125,0.59375 0.71875,0 0,0.75 -0.71875,0 0,-0.75 z m 7.84375,0 0.71875,0 0,0.75 -0.71875,0 0,-0.75 z m -7.84375,1.46875 0.71875,0 0,0.75 -0.71875,0 0,-0.75 z m 7.84375,0 0.71875,0 0,0.75 -0.71875,0 0,-0.75 z m -7.84375,1.46875 0.71875,0 0,0.75 -0.71875,0 0,-0.75 z m 7.84375,0 0.71875,0 0,0.75 -0.71875,0 0,-0.75 z" color="#000" display="inline" enable-background="accumulate" overflow="visible" visibility="visible" style="marker:none"/></g></svg>