<svg xmlns="http://www.w3.org/2000/svg" xmlns:svg="http://www.w3.org/2000/svg" xmlns:xlink="http://www.w3.org/1999/xlink" id="svg3049" width="128" height="128" version="1.1"><defs id="defs3051"><linearGradient id="linearGradient897"><stop id="stop893" offset="0" stop-color="#ffa154" stop-opacity="1"/><stop id="stop895" offset="1" stop-color="#f37329" stop-opacity="1"/></linearGradient><linearGradient id="linearGradient3924"><stop id="stop3926" offset="0" stop-color="#fff" stop-opacity="1"/><stop id="stop3928" offset=".063" stop-color="#fff" stop-opacity=".235"/><stop id="stop3930" offset=".951" stop-color="#fff" stop-opacity=".157"/><stop id="stop3932" offset="1" stop-color="#fff" stop-opacity=".392"/></linearGradient><linearGradient id="linearGradient3688-166-749-5"><stop id="stop2883-0" offset="0" stop-color="#181818" stop-opacity="1"/><stop id="stop2885-5" offset="1" stop-color="#181818" stop-opacity="0"/></linearGradient><linearGradient id="linearGradient3688-464-309-8"><stop id="stop2889-9" offset="0" stop-color="#181818" stop-opacity="1"/><stop id="stop2891-4" offset="1" stop-color="#181818" stop-opacity="0"/></linearGradient><linearGradient id="linearGradient3702-501-757-0"><stop id="stop2895-0" offset="0" stop-color="#181818" stop-opacity="0"/><stop id="stop2897-2" offset=".5" stop-color="#181818" stop-opacity="1"/><stop id="stop2899-6" offset="1" stop-color="#181818" stop-opacity="0"/></linearGradient><linearGradient id="linearGradient3811"><stop id="stop3813" offset="0" stop-color="#000" stop-opacity="1"/><stop id="stop3815" offset="1" stop-color="#000" stop-opacity="0"/></linearGradient><radialGradient id="radialGradient3946" cx="4.993" cy="43.5" r="2.5" fx="4.993" fy="43.5" gradientTransform="matrix(2.003784,0,0,1.4,27.98813,-17.4)" gradientUnits="userSpaceOnUse" xlink:href="#linearGradient3688-166-749-5"/><radialGradient id="radialGradient3948" cx="4.993" cy="43.5" r="2.5" fx="4.993" fy="43.5" gradientTransform="matrix(2.003784,0,0,1.4,-20.01187,-104.4)" gradientUnits="userSpaceOnUse" xlink:href="#linearGradient3688-464-309-8"/><linearGradient id="linearGradient3950" x1="25.058" x2="25.058" y1="47.028" y2="39.999" gradientUnits="userSpaceOnUse" xlink:href="#linearGradient3702-501-757-0"/><linearGradient id="linearGradient3965" x1="24" x2="24" y1="5" y2="43" gradientTransform="matrix(2.7297298,0,0,2.7297298,-1.5135175,1.488319)" gradientUnits="userSpaceOnUse" xlink:href="#linearGradient3924"/><radialGradient id="radialGradient3976" cx="-4.029" cy="93.468" r="35.338" fx="-4.029" fy="93.468" gradientTransform="matrix(1.5563924,0,0,0.16978827,70.270355,102.1321)" gradientUnits="userSpaceOnUse" xlink:href="#linearGradient3811"/><linearGradient id="linearGradient891" x1="66.997" x2="66.997" y1="15.857" y2="117.81" gradientUnits="userSpaceOnUse" xlink:href="#linearGradient897"/><linearGradient id="linearGradient5228" x1="167.983" x2="167.983" y1="8.508" y2="54.78" gradientTransform="matrix(1.832495,0,0,1.8439152,-232.17581,8.558599)" gradientUnits="userSpaceOnUse" xlink:href="#linearGradient5803"/><linearGradient id="linearGradient5803"><stop id="stop5805" offset="0" stop-color="#fff5ef" stop-opacity="1"/><stop id="stop5807" offset="1" stop-color="#fef8dd" stop-opacity="1"/></linearGradient></defs><metadata id="metadata3054"/><path id="path3041" fill="url(#radialGradient3976)" fill-opacity="1" fill-rule="nonzero" stroke="none" stroke-width="1" d="m 119,118.00181 a 55,6 0 0 1 -109.9999975,0 55,6 0 1 1 109.9999975,0 z" color="#000" display="inline" enable-background="accumulate" opacity=".2" overflow="visible" visibility="visible" style="marker:none"/><g id="g2036" display="inline" transform="matrix(2.6999989,0,0,0.55555607,-0.8000075,94.890689)"><g id="g3712" opacity=".4" transform="matrix(1.052632,0,0,1.285713,-1.263158,-13.42854)"><rect id="rect2801" width="5" height="7" x="38" y="40" fill="url(#radialGradient3946)" fill-opacity="1" stroke="none"/><rect id="rect3696" width="5" height="7" x="-10" y="-47" fill="url(#radialGradient3948)" fill-opacity="1" stroke="none" transform="scale(-1,-1)"/><rect id="rect3700" width="28" height="7" x="10" y="40" fill="url(#linearGradient3950)" fill-opacity="1" stroke="none"/></g></g><rect id="rect5505-21-3" width="103" height="103" x="12.5" y="15.502" fill="url(#linearGradient891)" fill-opacity="1" fill-rule="nonzero" stroke="none" stroke-width="1" color="#000" display="inline" enable-background="accumulate" overflow="visible" rx="6.055" ry="6.055" visibility="visible" style="marker:none"/><rect id="rect6741-7" width="101" height="101" x="13.5" y="16.502" fill="none" stroke="url(#linearGradient3965)" stroke-dasharray="none" stroke-dashoffset="0" stroke-linecap="round" stroke-linejoin="round" stroke-miterlimit="4" stroke-opacity="1" stroke-width="1" opacity=".5" rx="5" ry="5"/><rect id="rect5505-21-3-1" width="103" height="103" x="12.5" y="15.502" fill="none" stroke="#a62100" stroke-dasharray="none" stroke-dashoffset="0" stroke-linecap="round" stroke-linejoin="round" stroke-miterlimit="4" stroke-opacity="1" stroke-width="1" color="#000" display="inline" enable-background="accumulate" opacity=".5" overflow="visible" rx="6.055" ry="6.055" visibility="visible" style="marker:none"/><path id="path4050" fill="#a62100" fill-opacity="1" stroke="none" d="m 22.303752,105.72962 c 0,-1.47342 0.508889,-2.71039 1.526562,-3.71092 1.017737,-1.01865 2.262621,-1.528 3.734659,-1.52804 1.435674,4e-5 2.653299,0.50939 3.652842,1.52804 1.017702,1.00053 1.52655,2.2375 1.52655,3.71092 0,1.43711 -0.508848,2.66499 -1.52655,3.68364 -0.999543,1.00053 -2.217168,1.50078 -3.652842,1.50075 -1.472038,3e-5 -2.716922,-0.50022 -3.734659,-1.50075 -1.017673,-1.00046 -1.526562,-2.22833 -1.526562,-3.68364 m -0.303775,-23.659227 0,8.715391 c 11.136886,0 20.182432,9.05979 20.182432,20.214216 l 8.74723,0 c 0,-15.977965 -12.976831,-28.929607 -28.929662,-28.929607 z m 0.01504,-19.070369 0,9.633847 c 21.145334,0 38.314292,17.185406 38.314292,38.351019 l 9.670672,0 C 70.000049,84.489803 48.484794,63.000024 22.015085,63.000024 z" font-family="Bitstream Vera Serif" font-size="13.59" font-stretch="normal" font-style="normal" font-variant="normal" font-weight="bold" opacity=".3" text-anchor="start" writing-mode="lr-tb" style="text-align:start;line-height:125%"/><path font-family="Bitstream Vera Serif" style="text-align:start;line-height:125%" id="path4052" fill="#a62100" fill-opacity="1" stroke="#ba3d12" stroke-dasharray="none" stroke-linejoin="round" stroke-miterlimit="4" stroke-opacity="1" stroke-width="2" d="m 22.303752,105.72962 c 0,-1.47342 0.508889,-2.71039 1.526562,-3.71092 1.017737,-1.01865 2.262621,-1.528 3.734659,-1.52804 1.435674,4e-5 2.653299,0.50939 3.652842,1.52804 1.017702,1.00053 1.52655,2.2375 1.52655,3.71092 0,1.43711 -0.508848,2.66499 -1.52655,3.68364 -0.999543,1.00053 -2.217168,1.50078 -3.652842,1.50075 -1.472038,3e-5 -2.716922,-0.50022 -3.734659,-1.50075 -1.017673,-1.00046 -1.526562,-2.22833 -1.526562,-3.68364 m -0.303775,-23.659227 0,8.715391 c 11.136886,0 20.182432,9.05979 20.182432,20.214216 l 8.74723,0 c 0,-15.977965 -12.976831,-28.929607 -28.929662,-28.929607 z m 0.01504,-19.070369 0,9.633847 c 21.145334,0 38.314292,17.185406 38.314292,38.351019 l 9.670672,0 C 70.000049,84.489803 48.484794,63.000024 22.015085,63.000024 z" font-size="13.59" font-stretch="normal" font-style="normal" font-variant="normal" font-weight="bold" opacity=".3" text-anchor="start" writing-mode="lr-tb"/><path d="m 22.303752,104.72962 c 0,-1.47342 0.508889,-2.71039 1.526562,-3.71092 1.017737,-1.01865 2.262621,-1.528 3.734659,-1.52804 1.435674,4e-5 2.653299,0.50939 3.652842,1.52804 1.017702,1.00053 1.52655,2.2375 1.52655,3.71092 0,1.43711 -0.508848,2.66499 -1.52655,3.68364 -0.999543,1.00053 -2.217168,1.50078 -3.652842,1.50075 -1.472038,3e-5 -2.716922,-0.50022 -3.734659,-1.50075 -1.017673,-1.00046 -1.526562,-2.22833 -1.526562,-3.68364 m -0.303775,-23.659227 0,8.715391 c 11.136886,0 20.182432,9.05979 20.182432,20.214216 l 8.74723,0 c 0,-15.977965 -12.976831,-28.929607 -28.929662,-28.929607 z m 0.01504,-19.070369 0,9.633847 c 21.145334,0 38.314292,17.185406 38.314292,38.351019 l 9.670672,0 C 70.000049,83.489803 48.484794,62.000024 22.015085,62.000024 z" style="text-align:start;line-height:125%;font-variation-settings:normal" id="path4311" fill="url(#linearGradient5228)" fill-opacity="1" stroke="none" stroke-dasharray="none" stroke-dashoffset="0" stroke-linecap="butt" stroke-linejoin="miter" stroke-miterlimit="4" stroke-opacity="1" stroke-width="1" font-family="Bitstream Vera Serif" font-size="13.59" font-stretch="normal" font-style="normal" font-variant="normal" font-weight="bold" opacity="1" text-anchor="start" vector-effect="none" writing-mode="lr-tb"/></svg>