<svg xmlns="http://www.w3.org/2000/svg" xmlns:svg="http://www.w3.org/2000/svg" xmlns:xlink="http://www.w3.org/1999/xlink" id="svg4379" width="128" height="128" version="1.1"><defs id="defs4381"><linearGradient id="linearGradient3159" x1="24" x2="24" y1="5" y2="43" gradientTransform="matrix(2.7297298,0,0,2.7297298,-1.5135124,1.486514)" gradientUnits="userSpaceOnUse" xlink:href="#linearGradient3924-776"/><linearGradient id="linearGradient3924-776"><stop id="stop3124" offset="0" stop-color="#fff" stop-opacity="1"/><stop id="stop3126" offset=".063" stop-color="#fff" stop-opacity=".235"/><stop id="stop3128" offset=".951" stop-color="#fff" stop-opacity=".157"/><stop id="stop3130" offset="1" stop-color="#fff" stop-opacity=".392"/></linearGradient><radialGradient id="radialGradient2455-1" cx="4.993" cy="43.5" r="2.5" fx="4.993" fy="43.5" gradientTransform="matrix(2.003784,0,0,1.4,27.98813,-17.4)" gradientUnits="userSpaceOnUse" xlink:href="#linearGradient3688-166-749-5"/><linearGradient id="linearGradient3688-166-749-5"><stop id="stop2883-0" offset="0" stop-color="#181818" stop-opacity="1"/><stop id="stop2885-5" offset="1" stop-color="#181818" stop-opacity="0"/></linearGradient><radialGradient id="radialGradient2457-5" cx="4.993" cy="43.5" r="2.5" fx="4.993" fy="43.5" gradientTransform="matrix(2.003784,0,0,1.4,-20.01187,-104.4)" gradientUnits="userSpaceOnUse" xlink:href="#linearGradient3688-464-309-8"/><linearGradient id="linearGradient3688-464-309-8"><stop id="stop2889-9" offset="0" stop-color="#181818" stop-opacity="1"/><stop id="stop2891-4" offset="1" stop-color="#181818" stop-opacity="0"/></linearGradient><linearGradient id="linearGradient2459-7" x1="25.058" x2="25.058" y1="47.028" y2="39.999" gradientUnits="userSpaceOnUse" xlink:href="#linearGradient3702-501-757-0"/><linearGradient id="linearGradient3702-501-757-0"><stop id="stop2895-0" offset="0" stop-color="#181818" stop-opacity="0"/><stop id="stop2897-2" offset=".5" stop-color="#181818" stop-opacity="1"/><stop id="stop2899-6" offset="1" stop-color="#181818" stop-opacity="0"/></linearGradient><linearGradient id="linearGradient3811"><stop id="stop3813" offset="0" stop-color="#000" stop-opacity="1"/><stop id="stop3815" offset="1" stop-color="#000" stop-opacity="0"/></linearGradient><radialGradient id="radialGradient4377" cx="-4.029" cy="93.468" r="35.338" fx="-4.029" fy="93.468" gradientTransform="matrix(1.5563924,0,0,0.16978827,70.270358,102.13029)" gradientUnits="userSpaceOnUse" xlink:href="#linearGradient3811"/><linearGradient id="linearGradient4227" x1="29.625" x2="29.625" y1="43.125" y2="15.25" gradientTransform="matrix(2.0677539,0,0,1.8727272,3.195109,7.5279291)" gradientUnits="userSpaceOnUse" xlink:href="#linearGradient4221"/><linearGradient id="linearGradient4221"><stop id="stop4223" offset="0" stop-color="#5c86c9" stop-opacity="1"/><stop id="stop4225" offset="1" stop-color="#70fcc5" stop-opacity="1"/></linearGradient><linearGradient id="linearGradient4324" x1="29" x2="29" y1="33.133" y2="53.18" gradientTransform="matrix(1.8727272,0,0,1.8727272,4.072731,7.0727301)" gradientUnits="userSpaceOnUse" xlink:href="#linearGradient4318"/><linearGradient id="linearGradient4318"><stop id="stop4320" offset="0" stop-color="#00547b" stop-opacity="1"/><stop id="stop4322" offset="1" stop-color="#11415b" stop-opacity="0"/></linearGradient><radialGradient id="radialGradient4147" cx="6.73" cy="9.957" r="12.672" fx="6.2" fy="9.957" gradientTransform="matrix(0,12.323866,-15.12977,0,216.84362,-122.21566)" gradientUnits="userSpaceOnUse" xlink:href="#linearGradient2867-449-88-871-390-598-476-591-434-148-57-177-8-3-3-6-4-8-8-8-5-3"/><linearGradient id="linearGradient2867-449-88-871-390-598-476-591-434-148-57-177-8-3-3-6-4-8-8-8-5-3"><stop id="stop3750-1-0-7-6-6-1-3-9-3-6" offset="0" stop-color="#1d1d34" stop-opacity="1"/><stop id="stop4207" offset=".355" stop-color="#1d1d34" stop-opacity="1"/><stop id="stop3756-1-6-2-6-6-1-96-6-0-7" offset="1" stop-color="#1b3545" stop-opacity="1"/></linearGradient></defs><metadata id="metadata4384"/><path id="path3041" fill="url(#radialGradient4377)" fill-opacity="1" fill-rule="nonzero" stroke="none" stroke-width="1" d="M 119,118 A 55,6 0 0 1 9.0000016,118 55,6 0 1 1 119,118 Z" color="#000" display="inline" enable-background="accumulate" opacity=".2" overflow="visible" visibility="visible" style="marker:none"/><g id="g3712" opacity=".5" transform="matrix(2.8421052,0,0,0.71428566,-4.2105271,87.428575)"><rect id="rect2801" width="5" height="7" x="38" y="40" fill="url(#radialGradient2455-1)" fill-opacity="1" stroke="none"/><rect id="rect3696" width="5" height="7" x="-10" y="-47" fill="url(#radialGradient2457-5)" fill-opacity="1" stroke="none" transform="scale(-1,-1)"/><rect id="rect3700" width="28" height="7" x="10" y="40" fill="url(#linearGradient2459-7)" fill-opacity="1" stroke="none"/></g><rect id="rect5505-21-3" width="103" height="103" x="12.5" y="15.5" fill="url(#radialGradient4147)" fill-opacity="1" fill-rule="nonzero" stroke="none" stroke-dasharray="none" stroke-dashoffset="0" stroke-linecap="butt" stroke-linejoin="miter" stroke-miterlimit="4" stroke-opacity="1" stroke-width="1" clip-rule="nonzero" color="#000" color-interpolation="sRGB" color-interpolation-filters="linearRGB" color-rendering="auto" display="inline" enable-background="accumulate" image-rendering="auto" opacity="1" overflow="visible" rx="6.055" ry="6.055" shape-rendering="auto" text-rendering="auto" visibility="visible" style="marker:none;isolation:auto;mix-blend-mode:normal;solid-color:#000;solid-opacity:1;filter-blend-mode:normal;filter-gaussianBlur-deviation:0"/><path id="path4213-2" fill="url(#linearGradient4324)" fill-opacity="1" fill-rule="evenodd" stroke="none" stroke-dasharray="none" stroke-linecap="butt" stroke-linejoin="round" stroke-miterlimit="4" stroke-opacity="1" stroke-width="1" d="m 56.805364,37.021735 c -1.545681,0 -0.354,29.71175 -4.070987,42.27536 0,-4.429038 -5.58892,-5.062224 -5.58892,-5.062224 -6.579306,0 -7.757918,-7.026384 -7.757918,-7.026384 0,8.413287 -5.303622,8.321205 -5.303622,8.321205 l -21.583913,0 0,37.352128 c 0,3.11247 2.505709,5.61818 5.618181,5.61818 l 91.763635,0 c 3.11247,0 5.61818,-2.50571 5.61818,-5.61818 l 0,-37.000992 c -3.29548,0 -6.26925,-3.043185 -6.26925,-3.043185 -1.93852,-1.93125 -2.61466,-3.394318 -4.32702,-3.394318 -1.71236,0 -2.2641,2.106818 -2.2641,2.106818 0,0 -0.98369,3.833233 -4.359941,3.833233 -3.376258,0 -5.267047,-5.296301 -5.267045,-5.296301 0,0 -2.310831,-5.823013 -6.430185,-5.823013 -4.119356,0 -6.492365,5.881535 -6.492365,5.881535 -1.744667,7.549436 -11.115661,4.681822 -11.115661,4.681822 -5.815557,-0.585231 -5.302885,5.759554 -7.234871,12.289772 C 58.573312,61.19162 58.351046,37.021735 56.805364,37.021735 Z"/><path id="path4213-9" fill="none" fill-rule="evenodd" stroke="#000" stroke-dasharray="none" stroke-linecap="butt" stroke-linejoin="round" stroke-miterlimit="4" stroke-opacity="1" stroke-width="1" d="m 12.5,76.528504 22.183172,0 c 0,0 5.435272,-1.178188 5.435272,-5.553439 0,0 1.135635,4.230266 7.113952,4.230266 0,0 4.043995,0.07655 4.086922,4.722565 1.136427,0.541265 2.793605,0.166652 2.793605,0.166652 5.1192,-18.052871 1.106782,-37.700149 2.60805,-37.874284 1.535404,-0.178086 -6.68e-4,25.365909 3.643728,45.944827 0.05483,-0.18899 2.850437,0.10213 2.908619,-0.0843 2.706009,-8.674106 1.339541,-13.460335 6.646624,-12.005539 0,0 9.884646,1.916649 11.629312,-5.778833 0,0 2.331757,-5.251424 4.905711,-5.251424 3.690076,0 6.000143,7.20465 6.000143,7.20465 0,0 2.319333,4.086008 5.695589,4.086008 3.376261,0 5.477791,-3.382288 5.477791,-3.382288 0,0 0.72096,-2.672674 1.23134,-2.672674 0.89673,0 2.1762,1.885196 4.11472,3.853803 0,0 3.22997,2.751988 6.52545,2.751988" opacity=".15"/><path id="path4213" fill="none" fill-rule="evenodd" stroke="url(#linearGradient4227)" stroke-dasharray="none" stroke-linecap="butt" stroke-linejoin="round" stroke-miterlimit="4" stroke-opacity="1" stroke-width="1" d="m 12.500004,75.53134 21.582181,0 c 0,0 5.30649,0.08914 5.30649,-8.324224 0,0 1.178562,7.02616 7.757868,7.02616 0,0 5.589396,0.63319 5.589396,5.062208 3.716987,-12.563595 2.52521,-42.272101 4.070891,-42.272101 1.545682,0 1.765316,24.169885 4.931565,50.095456 1.931986,-6.530218 1.42158,-12.875003 7.237138,-12.289772 0,0 9.369511,2.867614 11.114177,-4.681822 0,0 2.374685,-5.881533 6.494041,-5.881533 4.119354,0 6.429423,5.823011 6.429423,5.823011 0,0 1.890053,5.296301 5.266309,5.296301 3.376257,0 4.361667,-3.833233 4.361667,-3.833233 0,0 0.54925,-2.106818 2.26161,-2.106818 1.71236,0 2.39084,1.463068 4.32936,3.394318 0,0 2.9724,3.043185 6.26788,3.043185"/><rect id="rect6741-7" width="101" height="101" x="13.5" y="16.5" fill="none" stroke="url(#linearGradient3159)" stroke-dasharray="none" stroke-dashoffset="0" stroke-linecap="round" stroke-linejoin="round" stroke-miterlimit="4" stroke-opacity="1" stroke-width="1" opacity=".3" rx="5" ry="5"/><rect id="rect5505-21-6" width="103" height="103" x="12.5" y="15.5" fill="none" fill-opacity="1" fill-rule="nonzero" stroke="#000" stroke-dasharray="none" stroke-dashoffset="0" stroke-linecap="round" stroke-linejoin="round" stroke-miterlimit="4" stroke-opacity="1" stroke-width="1" clip-rule="nonzero" color="#000" color-interpolation="sRGB" color-interpolation-filters="linearRGB" color-rendering="auto" display="inline" enable-background="accumulate" image-rendering="auto" opacity=".5" overflow="visible" rx="6" ry="6" shape-rendering="auto" text-rendering="auto" visibility="visible" style="marker:none;isolation:auto;mix-blend-mode:normal;solid-color:#000;solid-opacity:1;filter-blend-mode:normal;filter-gaussianBlur-deviation:0"/></svg>