<svg xmlns="http://www.w3.org/2000/svg" xmlns:svg="http://www.w3.org/2000/svg" xmlns:xlink="http://www.w3.org/1999/xlink" id="svg3810" width="16" height="16" version="1.1"><defs id="defs3812"><linearGradient id="linearGradient4320"><stop id="stop4322" offset="0" stop-color="#fff" stop-opacity="1"/><stop id="stop4324" offset=".373" stop-color="#fff" stop-opacity=".235"/><stop id="stop4326" offset=".995" stop-color="#fff" stop-opacity=".157"/><stop id="stop4328" offset="1" stop-color="#fff" stop-opacity=".392"/></linearGradient><radialGradient id="radialGradient3259" cx="64.575" cy="48.605" r="31" fx="64.575" fy="48.605" gradientTransform="matrix(0,0.38528829,-0.41958841,0,32.389496,-16.793007)" gradientUnits="userSpaceOnUse" xlink:href="#linearGradient3242-7-3-8-0-4-58-06"/><linearGradient id="linearGradient3242-7-3-8-0-4-58-06"><stop id="stop3244-5-8-5-6-4-3-8" offset="0" stop-color="#cdf87e" stop-opacity="1"/><stop id="stop3246-9-5-1-5-3-0-7" offset=".262" stop-color="#a2e34f" stop-opacity="1"/><stop id="stop3248-7-2-0-7-5-35-9" offset=".661" stop-color="#68b723" stop-opacity="1"/><stop id="stop3250-8-2-8-5-6-40-4" offset="1" stop-color="#1d7e0d" stop-opacity="1"/></linearGradient><linearGradient id="linearGradient2867-449-88-871-390-598-476-591-434-148-57-177-641-289-620-227-114-444-680-744-8-7"><stop id="stop5430-8-6" offset="0" stop-color="#5f5f5f" stop-opacity="1"/><stop id="stop5432-3-5" offset=".262" stop-color="#4f4f4f" stop-opacity="1"/><stop id="stop5434-1-6" offset=".705" stop-color="#3b3b3b" stop-opacity="1"/><stop id="stop5436-8-9" offset="1" stop-color="#2b2b2b" stop-opacity="1"/></linearGradient><linearGradient id="linearGradient3707-319-631-407-324-616-674-812-821-107-178-392-400-6-7"><stop id="stop5440-4-4" offset="0" stop-color="#272727" stop-opacity="1"/><stop id="stop5442-3-5" offset="1" stop-color="#454545" stop-opacity="1"/></linearGradient><radialGradient id="radialGradient3066" cx="10.904" cy="8.45" r="20" fx="10.904" fy="8.45" gradientTransform="matrix(0,0.7455191,-0.67881264,0,12.738896,-6.181255)" gradientUnits="userSpaceOnUse" xlink:href="#linearGradient2867-449-88-871-390-598-476-591-434-148-57-177-641-289-620-227-114-444-680-744-8-7"/><linearGradient id="linearGradient3068" x1="24" x2="24" y1="44" y2="3.899" gradientTransform="matrix(0.53695193,0,0,0.53021938,-5.8838175,-4.9704086)" gradientUnits="userSpaceOnUse" xlink:href="#linearGradient3707-319-631-407-324-616-674-812-821-107-178-392-400-6-7"/><linearGradient id="linearGradient3068-0" x1="26.305" x2="26.305" y1="16.918" y2="32.093" gradientTransform="matrix(0.53695193,0,0,0.53021938,-5.8838175,-4.970409)" gradientUnits="userSpaceOnUse" xlink:href="#linearGradient4320"/></defs><metadata id="metadata3815"/><path id="path3107" fill="url(#radialGradient3066)" fill-opacity="1" fill-rule="nonzero" stroke="url(#linearGradient3068)" stroke-dasharray="none" stroke-dashoffset="0" stroke-linecap="round" stroke-linejoin="round" stroke-miterlimit="4" stroke-opacity="1" stroke-width="1" d="M 6.4238281,2.5117188 C 6.0354944,2.5615579 5.6894531,2.7558594 5.6894531,2.7558594 L 5.140625,3.0136719 c 0,0 -0.5971316,0.489858 -0.6035156,0.65625 -0.335812,0.559065 -0.1827479,1.2380214 -0.2167969,1.8496093 0.03272,0.525084 -0.3568494,0.9128775 -0.1621094,1.4453126 -0.02841,0.5140149 0.4234236,0.815721 0.7128907,1.1875 0.3257669,0.4703499 0.7683358,1.0835913 0.4199218,1.6464843 -0.644065,0.8781729 -1.577101,1.2071079 -2.5546875,1.6855469 -0.00295,0.01676 -0.003,0.0073 -0.00586,0.02344 C 2.6025991,11.519127 2.5,11.619092 2.5,11.75 l 0,1.5 c 0,0.1385 0.1115,0.25 0.25,0.25 l 8.5,0 c 0.1385,0 0.25,-0.1115 0.25,-0.25 l 0,-1.650391 C 10.553617,11.148756 9.428997,10.666959 8.765625,9.8652344 8.367095,9.3282474 8.7655531,8.6825091 9.0800781,8.2050781 9.3249581,7.8073801 9.836435,7.553969 9.84375,7.046875 10.031961,6.532396 9.7483275,6.1059294 9.6953125,5.6152344 9.6260025,4.9646824 9.814648,4.2537165 9.484375,3.6484375 9.036565,3.0290695 8.2150601,2.7579069 7.4707031,2.5917969 c -0.21591,-0.04096 -0.43575,-0.068706 -0.65625,-0.070312 -0.1279435,-0.028115 -0.2611804,-0.026379 -0.390625,-0.00977 z" color="#000" display="inline" enable-background="accumulate" overflow="visible" visibility="visible" style="marker:none"/><path id="path4318" fill="none" fill-opacity="1" fill-rule="nonzero" stroke="url(#linearGradient3068-0)" stroke-dasharray="none" stroke-dashoffset="0" stroke-linecap="round" stroke-linejoin="round" stroke-miterlimit="4" stroke-opacity="1" stroke-width="1" d="m 6.6074219,3.4628906 c 0.017092,0.00376 -0.00543,-0.00317 -0.060547,0.00391 -0.1464991,0.018802 -0.3867188,0.1289062 -0.3867188,0.1289062 a 0.96322446,0.96322446 0 0 1 -0.060547,0.03125 L 5.6738281,3.8261719 c -0.045716,0.038826 -0.08742,0.073501 -0.1679687,0.1503906 -0.045001,0.042957 -0.073828,0.073412 -0.097656,0.099609 a 0.96322446,0.96322446 0 0 1 0,0.00195 0.96322446,0.96322446 0 0 1 -0.044922,0.087891 C 5.2712228,4.319276 5.3264032,4.7612244 5.28125,5.5722656 l 0,-0.1132812 C 5.3132817,5.9730223 5.155321,6.3389504 5.1015625,6.5175781 5.047804,6.6962058 5.0622079,6.633967 5.0625,6.6347656 a 0.96322446,0.96322446 0 0 1 0.056641,0.3828125 c 0.00189,-0.034277 -0.039711,-0.093772 0.035156,0.00195 0.074867,0.095725 0.2601823,0.2631063 0.4765625,0.5410157 a 0.96322446,0.96322446 0 0 1 0.03125,0.042969 c 0.1581992,0.2284118 0.4017069,0.5472769 0.5722656,0.9941406 0.1705587,0.4468638 0.2276356,1.139271 -0.125,1.7089848 a 0.96322446,0.96322446 0 0 1 -0.041016,0.0625 c -0.7530339,1.02675 -1.7441286,1.432446 -2.6054688,1.832031 l 0,0.335937 7.0742184,0 0,-0.33789 C 9.700277,11.811572 8.7498789,11.356463 8.0234375,10.478516 a 0.96322446,0.96322446 0 0 1 -0.03125,-0.03906 C 7.591268,9.8992465 7.5903481,9.1943673 7.734375,8.7285156 7.8765963,8.2685041 8.1057159,7.937798 8.2695312,7.6894531 8.4977542,7.3249424 8.7346153,7.13365 8.8359375,7.0214844 8.9388523,6.9075557 8.8818382,6.9653472 8.8808594,7.0332031 A 0.96322446,0.96322446 0 0 1 8.9394531,6.7167969 C 8.9504292,6.6867934 8.957562,6.6944864 8.921875,6.5410156 8.886188,6.3875449 8.7812912,6.1168402 8.7382812,5.71875 a 0.96322446,0.96322446 0 0 1 0,-0.00195 C 8.6462129,4.8526326 8.7243368,4.3968225 8.6425781,4.1855469 8.4244812,3.9257496 7.9105961,3.6795601 7.2695312,3.5351562 7.1019731,3.5043867 6.9446216,3.48538 6.8066406,3.484375 A 0.96322446,0.96322446 0 0 1 6.6074219,3.4628906 Z" color="#000" display="inline" enable-background="accumulate" opacity=".3" overflow="visible" visibility="visible" style="marker:none"/><path id="path2262" fill="url(#radialGradient3259)" fill-opacity="1" fill-rule="nonzero" stroke="none" stroke-dasharray="none" stroke-dashoffset="0" stroke-linecap="round" stroke-linejoin="round" stroke-miterlimit="4" stroke-opacity="1" stroke-width=".985" d="m 10.5,10.5 0,-2.0072863 3,0 0,2.0072863 2.007286,0 0,3 -2.007286,0 0,2.007286 -3,0 0,-2.007286 -2.007286,0 0,-3 2.007286,0 z" color="#000" display="inline" enable-background="accumulate" overflow="visible" visibility="visible" style="marker:none"/><path id="path2262-5" fill="none" fill-opacity="1" fill-rule="nonzero" stroke="#0f5a00" stroke-dasharray="none" stroke-dashoffset="0" stroke-linecap="round" stroke-linejoin="round" stroke-miterlimit="4" stroke-opacity="1" stroke-width="1" d="m 10.5,10.5 0,-2.0072863 3,0 0,2.0072863 2.007286,0 0,3 -2.007286,0 0,2.007286 -3,0 0,-2.007286 -2.007286,0 0,-3 2.007286,0 z" clip-rule="nonzero" color="#000" color-interpolation="sRGB" color-interpolation-filters="linearRGB" color-rendering="auto" display="inline" enable-background="accumulate" image-rendering="auto" opacity=".5" overflow="visible" shape-rendering="auto" text-rendering="auto" visibility="visible" style="isolation:auto;mix-blend-mode:normal;solid-color:#000;solid-opacity:1;marker:none"/><rect id="rect4304" width="2" height="1" x="11" y="9" fill="#fff" fill-opacity="1" fill-rule="nonzero" stroke="none" stroke-dasharray="none" stroke-dashoffset="0" stroke-linecap="round" stroke-linejoin="round" stroke-miterlimit="4" stroke-opacity="1" stroke-width="1" clip-rule="nonzero" color="#000" color-interpolation="sRGB" color-interpolation-filters="linearRGB" color-rendering="auto" display="inline" enable-background="accumulate" image-rendering="auto" opacity=".5" overflow="visible" shape-rendering="auto" text-rendering="auto" visibility="visible" style="isolation:auto;mix-blend-mode:normal;solid-color:#000;solid-opacity:1;marker:none"/><rect id="rect4304-6" width="2" height="1" x="11" y="14" fill="#fff" fill-opacity="1" fill-rule="nonzero" stroke="none" stroke-dasharray="none" stroke-dashoffset="0" stroke-linecap="round" stroke-linejoin="round" stroke-miterlimit="4" stroke-opacity="1" stroke-width="1" clip-rule="nonzero" color="#000" color-interpolation="sRGB" color-interpolation-filters="linearRGB" color-rendering="auto" display="inline" enable-background="accumulate" image-rendering="auto" opacity=".2" overflow="visible" shape-rendering="auto" text-rendering="auto" visibility="visible" style="isolation:auto;mix-blend-mode:normal;solid-color:#000;solid-opacity:1;marker:none"/><rect id="rect4304-6-2" width="2" height="1" x="9" y="11" fill="#fff" fill-opacity="1" fill-rule="nonzero" stroke="none" stroke-dasharray="none" stroke-dashoffset="0" stroke-linecap="round" stroke-linejoin="round" stroke-miterlimit="4" stroke-opacity="1" stroke-width="1" clip-rule="nonzero" color="#000" color-interpolation="sRGB" color-interpolation-filters="linearRGB" color-rendering="auto" display="inline" enable-background="accumulate" image-rendering="auto" opacity=".4" overflow="visible" shape-rendering="auto" text-rendering="auto" visibility="visible" style="isolation:auto;mix-blend-mode:normal;solid-color:#000;solid-opacity:1;marker:none"/><rect id="rect4304-6-2-4" width="2" height="1" x="13" y="11" fill="#fff" fill-opacity="1" fill-rule="nonzero" stroke="none" stroke-dasharray="none" stroke-dashoffset="0" stroke-linecap="round" stroke-linejoin="round" stroke-miterlimit="4" stroke-opacity="1" stroke-width="1" clip-rule="nonzero" color="#000" color-interpolation="sRGB" color-interpolation-filters="linearRGB" color-rendering="auto" display="inline" enable-background="accumulate" image-rendering="auto" opacity=".4" overflow="visible" shape-rendering="auto" text-rendering="auto" visibility="visible" style="isolation:auto;mix-blend-mode:normal;solid-color:#000;solid-opacity:1;marker:none"/></svg>