<svg xmlns="http://www.w3.org/2000/svg" xmlns:svg="http://www.w3.org/2000/svg" xmlns:xlink="http://www.w3.org/1999/xlink" id="svg4524" width="16" height="16" version="1.1"><defs id="defs4526"><linearGradient id="linearGradient2867-449-88-871-390-598-476-591-434-148-57-177-641-289-620-227-114-444-680-744-4-1"><stop id="stop5430-5-0" offset="0" stop-color="#737373" stop-opacity="1"/><stop id="stop5432-2-0" offset=".262" stop-color="#636363" stop-opacity="1"/><stop id="stop5434-9-6" offset=".705" stop-color="#4b4b4b" stop-opacity="1"/><stop id="stop5436-2-7" offset="1" stop-color="#3f3f3f" stop-opacity="1"/></linearGradient><radialGradient id="radialGradient3769" cx="16.202" cy="-19.005" r="20" fx="16.202" fy="-19.005" gradientTransform="matrix(0,1.5000006,-1.5241254,0,-16.959842,-23.077676)" gradientUnits="userSpaceOnUse" xlink:href="#linearGradient2867-449-88-871-390-598-476-591-434-148-57-177-641-289-620-227-114-444-680-744-4-1"/><radialGradient id="radialGradient3896" cx="16.202" cy="-19.005" r="20" fx="16.202" fy="-19.005" gradientTransform="matrix(0,1.5000006,-1.5241254,0,-17.131885,-23.077676)" gradientUnits="userSpaceOnUse" xlink:href="#linearGradient2867-449-88-871-390-598-476-591-434-148-57-177-641-289-620-227-114-444-680-744-4-1"/><radialGradient id="radialGradient3896-0" cx="22.652" cy="-40.142" r="20" fx="22.652" fy="-40.142" gradientTransform="matrix(-1.4583908,0,0,-1.5241254,45.582541,-59.323023)" gradientUnits="userSpaceOnUse" xlink:href="#linearGradient2867-449-88-871-390-598-476-591-434-148-57-177-641-289-620-227-114-444-680-744-4-1-5"/><linearGradient id="linearGradient2867-449-88-871-390-598-476-591-434-148-57-177-641-289-620-227-114-444-680-744-4-1-5"><stop id="stop5430-5-0-9" offset="0" stop-color="#737373" stop-opacity="1"/><stop id="stop5432-2-0-0" offset=".262" stop-color="#636363" stop-opacity="1"/><stop id="stop5434-9-6-8" offset=".705" stop-color="#4b4b4b" stop-opacity="1"/><stop id="stop5436-2-7-0" offset="1" stop-color="#3f3f3f" stop-opacity="1"/></linearGradient><radialGradient id="radialGradient4419" cx="12" cy="3" r="8" fx="12" fy="3" gradientTransform="matrix(1.5646867e-7,3.7500001,-3.8749999,1.625e-7,20.624999,-46)" gradientUnits="userSpaceOnUse" xlink:href="#linearGradient2867-449-88-871-390-598-476-591-434-148-57-177-641-289-620-227-114-444-680-744-4-1-5"/><clipPath id="clipPath4477" clipPathUnits="userSpaceOnUse"><path id="path4479" fill="url(#radialGradient4481)" fill-opacity="1" fill-rule="evenodd" stroke="none" stroke-linecap="butt" stroke-linejoin="miter" stroke-opacity="1" stroke-width="1" d="M 7,1 C 6.446,1 6,1.446 6,2 L 6,6 2,6 C 1.446,6 1,6.446 1,7 l 0,2 c 0,0.554 0.446,1 1,1 l 4,0 0,4 c 0,0.554 0.446,1 1,1 l 2,0 c 0.554,0 1,-0.446 1,-1 l 0,-4 4,0 c 0.554,0 1,-0.446 1,-1 L 15,7 C 15,6.446 14.554,6 14,6 L 10,6 10,2 C 10,1.446 9.554,1 9,1 L 7,1 Z"/></clipPath><radialGradient id="radialGradient4481" cx="12" cy="3" r="8" fx="12" fy="3" gradientTransform="matrix(1.5646867e-7,3.7500001,-3.8749999,1.625e-7,20.624999,-46)" gradientUnits="userSpaceOnUse" xlink:href="#linearGradient2867-449-88-871-390-598-476-591-434-148-57-177-641-289-620-227-114-444-680-744-4-1-5"/></defs><metadata id="metadata4529"/><path id="path4197" fill="#fff" fill-opacity="1" fill-rule="evenodd" stroke="none" stroke-linecap="butt" stroke-linejoin="miter" stroke-opacity="1" stroke-width="1" d="M 7 2 C 6.446 2 6 2.446 6 3 L 6 7 L 2 7 C 1.446 7 1 7.446 1 8 L 1 10 C 1 10.554 1.446 11 2 11 L 6 11 L 6 15 C 6 15.554 6.446 16 7 16 L 9 16 C 9.554 16 10 15.554 10 15 L 10 11 L 14 11 C 14.554 11 15 10.554 15 10 L 15 8 C 15 7.446 14.554 7 14 7 L 10 7 L 10 3 C 10 2.446 9.554 2 9 2 L 7 2 z" clip-path="none" opacity=".35"/><path id="path4417" fill="url(#radialGradient4419)" fill-opacity="1" fill-rule="evenodd" stroke="none" stroke-linecap="butt" stroke-linejoin="miter" stroke-opacity="1" stroke-width="1" d="M 7 1 C 6.446 1 6 1.446 6 2 L 6 6 L 2 6 C 1.446 6 1 6.446 1 7 L 1 9 C 1 9.554 1.446 10 2 10 L 6 10 L 6 14 C 6 14.554 6.446 15 7 15 L 9 15 C 9.554 15 10 14.554 10 14 L 10 10 L 14 10 C 14.554 10 15 9.554 15 9 L 15 7 C 15 6.446 14.554 6 14 6 L 10 6 L 10 2 C 10 1.446 9.554 1 9 1 L 7 1 z"/><path id="path4173" fill="none" fill-opacity="1" fill-rule="evenodd" stroke="#000" stroke-dasharray="none" stroke-linecap="butt" stroke-linejoin="miter" stroke-miterlimit="4" stroke-opacity="1" stroke-width="2" d="M 7 1 C 6.446 1 6 1.446 6 2 L 6 6 L 2 6 C 1.446 6 1 6.446 1 7 L 1 9 C 1 9.554 1.446 10 2 10 L 6 10 L 6 14 C 6 14.554 6.446 15 7 15 L 9 15 C 9.554 15 10 14.554 10 14 L 10 10 L 14 10 C 14.554 10 15 9.554 15 9 L 15 7 C 15 6.446 14.554 6 14 6 L 10 6 L 10 2 C 10 1.446 9.554 1 9 1 L 7 1 z" clip-path="url(#clipPath4477)" opacity=".1"/></svg>