<svg xmlns="http://www.w3.org/2000/svg" xmlns:svg="http://www.w3.org/2000/svg" xmlns:xlink="http://www.w3.org/1999/xlink" id="svg3338" width="16" height="16" version="1.0"><metadata id="metadata26"/><defs id="defs3340"><linearGradient id="linearGradient3533-867"><stop id="stop2752" offset="0" stop-color="#d1b0e6" stop-opacity="1"/><stop id="stop2754" offset="1" stop-color="#b483d5" stop-opacity="1"/></linearGradient><linearGradient id="linearGradient3279" x1="17" x2="16" y1="11" y2="15" gradientTransform="translate(-9.001188,-4)" gradientUnits="userSpaceOnUse" xlink:href="#linearGradient3533-867"/><linearGradient id="linearGradient3266-587"><stop id="stop2764" offset="0" stop-color="#9853c6" stop-opacity="1"/><stop id="stop2766" offset="1" stop-color="#903fc4" stop-opacity="0"/></linearGradient><linearGradient id="linearGradient3311" x1="19" x2="19.999" y1="16.322" y2="15.004" gradientTransform="matrix(-1,0,0,1,23.999249,-3.0039745)" gradientUnits="userSpaceOnUse" xlink:href="#linearGradient3266-587"/><linearGradient id="linearGradient3330"><stop id="stop3332" offset="0" stop-color="#c198dd" stop-opacity="0"/><stop id="stop3336" offset="1" stop-color="#b483d5" stop-opacity="1"/></linearGradient><linearGradient id="linearGradient3309" x1="20.387" x2="19.467" y1="14.776" y2="15.924" gradientTransform="matrix(-1,0,0,1,24.999686,-3.0039745)" gradientUnits="userSpaceOnUse" xlink:href="#linearGradient3330"/><linearGradient id="linearGradient3434" x1="17" x2="16" y1="11" y2="15" gradientTransform="translate(-9.001188,-4)" gradientUnits="userSpaceOnUse" xlink:href="#linearGradient3533-867"/><linearGradient id="linearGradient3436" x1="20.387" x2="19.467" y1="14.776" y2="15.924" gradientTransform="matrix(-1,0,0,1,24.999686,-3.0039745)" gradientUnits="userSpaceOnUse" xlink:href="#linearGradient3330"/><linearGradient id="linearGradient3438" x1="19" x2="19.999" y1="16.322" y2="15.004" gradientTransform="matrix(-1,0,0,1,23.999249,-3.0039745)" gradientUnits="userSpaceOnUse" xlink:href="#linearGradient3266-587"/></defs><g id="layer1"><g id="g3429" transform="matrix(-1,0,0,1,15.999249,0)"><path id="path2823" fill="#c49bde" fill-opacity="1" stroke="#9853c6" stroke-dasharray="none" stroke-miterlimit="4" stroke-opacity="1" stroke-width="1.818" d="M 8.9085675,8.5 C 8.9085675,9.001788 8.501788,9.4085675 8,9.4085675 7.498212,9.4085675 7.0914325,9.001788 7.0914325,8.5 7.0914325,7.998212 7.498212,7.5914325 8,7.5914325 8.501788,7.5914325 8.9085675,7.998212 8.9085675,8.5 z" transform="matrix(0.5501356,0,0,0.5501356,3.5992447,5.3235183)"/><path id="path2849" fill="url(#linearGradient3434)" fill-opacity="1" stroke="#9853c6" stroke-dasharray="none" stroke-linecap="butt" stroke-linejoin="round" stroke-miterlimit="4" stroke-opacity="1" stroke-width="1" d="M 8.1082455,12.444637 C 9.9972996,12.396273 11.472748,11.091132 11.499249,9 c 0.0265,-2.091132 -1.652582,-3.5751173 -4,-3.5 l 0,2 -4,-3.5 c 0,0 4,-3.5 4,-3.5 l 0,2 c 3.936619,-0.049298 7.056338,2.5633803 7,6.5 -0.05633,3.936217 -3.357693,6.689654 -6.2249135,6.444637"/><path id="path3605" fill="url(#linearGradient3436)" fill-opacity="1" stroke="url(#linearGradient3438)" stroke-dasharray="none" stroke-linecap="butt" stroke-linejoin="round" stroke-miterlimit="4" stroke-opacity="1" stroke-width="1" d="M 8.1670691,12.444637 C 5.8759901,12.505678 4.52575,11.136453 4.499249,9.4960255 l -3,0.004 c 0,3.5422535 3.4752424,6.0739765 6.8062284,5.9683435"/></g></g></svg>