<svg xmlns="http://www.w3.org/2000/svg" xmlns:svg="http://www.w3.org/2000/svg" xmlns:xlink="http://www.w3.org/1999/xlink" id="svg7435" width="16" height="16" version="1.1"><defs id="defs7437"><linearGradient id="linearGradient2690"><stop id="stop2682" offset="0" stop-color="#fff" stop-opacity="1"/><stop id="stop2684" offset="0" stop-color="#fff" stop-opacity=".235"/><stop id="stop2686" offset="1" stop-color="#fff" stop-opacity=".157"/><stop id="stop2688" offset="1" stop-color="#fff" stop-opacity=".392"/></linearGradient><linearGradient id="linearGradient1847"><stop id="stop1839" offset="0" stop-color="#fff" stop-opacity="1"/><stop id="stop1841" offset=".498" stop-color="#fff" stop-opacity=".235"/><stop id="stop1843" offset=".75" stop-color="#fff" stop-opacity=".157"/><stop id="stop1845" offset="1" stop-color="#fff" stop-opacity=".392"/></linearGradient><linearGradient id="linearGradient963"><stop id="stop955" offset="0" stop-color="#fff" stop-opacity="1"/><stop id="stop957" offset="0" stop-color="#fff" stop-opacity=".235"/><stop id="stop959" offset="1" stop-color="#fff" stop-opacity=".157"/><stop id="stop961" offset="1" stop-color="#fff" stop-opacity=".392"/></linearGradient><linearGradient id="linearGradient870"><stop id="stop866" offset="0" stop-color="#43d6b5" stop-opacity="1"/><stop id="stop868" offset="1" stop-color="#22cc93" stop-opacity="1"/></linearGradient><linearGradient id="linearGradient874" x1="25.132" x2="25.132" y1=".985" y2="47.013" gradientTransform="matrix(.48571543 0 0 .45629666 -34.78968 -5.734851)" gradientUnits="userSpaceOnUse"><stop id="stop870" offset="0" stop-color="#fafafa" stop-opacity="1"/><stop id="stop872" offset="1" stop-color="#d4d4d4" stop-opacity="1"/></linearGradient><linearGradient id="linearGradient1697-3" x1="51.798" x2="51.798" y1="-98.563" y2="-61.563" gradientTransform="matrix(0.21621622,0,0,0.21621622,-0.689191,23.310812)" gradientUnits="userSpaceOnUse" xlink:href="#linearGradient1847"/><linearGradient id="linearGradient1695-9" x1="26.95" x2="26.95" y1="-42.232" y2="-21.23" gradientTransform="matrix(0.52631574,0,0,0.52631574,-1.315788,22.684197)" gradientUnits="userSpaceOnUse" xlink:href="#linearGradient874"/><linearGradient id="linearGradient1693-0" x1="24" x2="24" y1="7.818" y2="40.193" gradientTransform="matrix(0.21621622,0,0,0.21621622,0.312062,5.309558)" gradientUnits="userSpaceOnUse" xlink:href="#linearGradient963"/><linearGradient id="linearGradient1691-8" x1="14.6" x2="14.6" y1="2.656" y2="21.283" gradientTransform="matrix(0.52631574,0,0,0.52631574,-0.815788,4.184197)" gradientUnits="userSpaceOnUse" xlink:href="#linearGradient874"/><linearGradient id="linearGradient1691-8-2" x1="14.6" x2="14.6" y1="2.656" y2="21.283" gradientTransform="matrix(0.52631574,0,0,0.52631574,-0.815788,4.184197)" gradientUnits="userSpaceOnUse" xlink:href="#linearGradient870"/><linearGradient id="linearGradient2521" x1="24" x2="24" y1="7.818" y2="26.318" gradientTransform="matrix(0.21621622,0,0,0.21621622,0.312062,5.309558)" gradientUnits="userSpaceOnUse" xlink:href="#linearGradient2690"/></defs><metadata id="metadata7440"/><rect id="rect5505-21-8-4-8" width="10" height="10" x=".5" y="5.5" fill="url(#linearGradient1691-8)" fill-opacity="1" fill-rule="nonzero" stroke="none" stroke-width="1" color="#000" display="inline" enable-background="accumulate" opacity="1" overflow="visible" rx="1" ry="1" visibility="visible" style="marker:none"/><rect id="rect6741-9-5-5" width="8" height="8" x="1.501" y="6.499" fill="none" stroke="url(#linearGradient1693-0)" stroke-dasharray="none" stroke-dashoffset="0" stroke-linecap="round" stroke-linejoin="round" stroke-miterlimit="4" stroke-opacity="1" stroke-width="1" opacity="1"/><path id="path8335-9-9" fill="url(#linearGradient1695-9)" fill-opacity="1" stroke="none" stroke-dasharray="none" stroke-dashoffset="0" stroke-linecap="butt" stroke-linejoin="miter" stroke-miterlimit="4" stroke-opacity="1" stroke-width="1" d="M 15.5,6 A 5.5000005,5.5000019 0 1 1 4.499999,6 5.5000005,5.5000019 0 1 1 15.5,6 Z" opacity="1" vector-effect="none" style="marker:none"/><path id="path8339-6" fill="none" fill-opacity="1" stroke="url(#linearGradient1697-3)" stroke-dasharray="none" stroke-dashoffset="0" stroke-linecap="round" stroke-linejoin="round" stroke-miterlimit="4" stroke-opacity="1" stroke-width="1" d="m 14.499993,5.999999 a 4.4999993,4.4999996 0 1 1 -8.999998,0 4.4999993,4.4999996 0 1 1 8.999998,0 z" opacity="1" vector-effect="none"/><path id="rect5505-21-8-4-8-5" fill="url(#linearGradient1691-8-2)" fill-opacity="1" fill-rule="nonzero" stroke="none" stroke-width="1" d="M 4.525391,5.5 A 5.5000005,5.5000019 0 0 0 4.5,6 a 5.5000005,5.5000019 0 0 0 6,5.472656 V 6.5 c 0,-0.554 -0.446,-1 -1,-1 z" color="#000" display="inline" enable-background="accumulate" opacity="1" overflow="visible" visibility="visible" style="marker:none"/><path id="rect5505-21-8-1-25-0" fill="none" fill-opacity="1" stroke="#105845" stroke-dasharray="none" stroke-dashoffset="0" stroke-linecap="round" stroke-linejoin="round" stroke-miterlimit="4" stroke-opacity="1" stroke-width="1" d="M 4.525391,5.5 A 5.5000005,5.5000019 0 0 0 4.5,6 a 5.5000005,5.5000019 0 0 0 6,5.472656 V 6.5 c 0,-0.554 -0.446,-1 -1,-1 z" color="#000" display="inline" enable-background="accumulate" opacity=".5" overflow="visible" vector-effect="none" visibility="visible" style="marker:none"/><path id="rect5505-21-8-4-8-5-8" fill="none" fill-opacity="1" fill-rule="nonzero" stroke="url(#linearGradient2521)" stroke-dasharray="none" stroke-dashoffset="0" stroke-linecap="round" stroke-linejoin="round" stroke-miterlimit="4" stroke-opacity="1" stroke-width="1" d="m 5.528129,6.498047 c 0.141277,1.237881 0.819621,2.478208 1.886532,3.170206 0.622588,0.405988 1.354411,0.707945 2.087292,0.794801 l -0.002,-3.965007 z" color="#000" display="inline" enable-background="accumulate" opacity=".5" overflow="visible" vector-effect="none" visibility="visible" style="marker:none"/><path id="rect5505-21-8-1-25-0-4" fill="none" stroke="#555761" stroke-dasharray="none" stroke-dashoffset="0" stroke-linecap="round" stroke-linejoin="round" stroke-miterlimit="4" stroke-opacity="1" stroke-width="1" d="M 10.160156,0.501953 A 5.5000005,5.5000019 0 0 0 4.525391,5.5 H 1.5 c -0.554,0 -1,0.446 -1,1 v 8 c 0,0.554 0.446,1 1,1 h 8 c 0.554,0 1,-0.446 1,-1 V 11.472656 A 5.5000005,5.5000019 0 0 0 15.5,6 5.5000005,5.5000019 0 0 0 10.160156,0.501953 Z" color="#000" display="inline" enable-background="accumulate" opacity=".5" overflow="visible" visibility="visible" style="marker:none"/></svg>