<svg xmlns="http://www.w3.org/2000/svg" xmlns:svg="http://www.w3.org/2000/svg" xmlns:xlink="http://www.w3.org/1999/xlink" id="svg2" width="16" height="16" version="1.0"><metadata id="metadata48"/><defs id="defs4"><linearGradient id="linearGradient3324"><stop id="stop3326" offset="0" stop-color="#fff" stop-opacity="1"/><stop id="stop3328" offset="1" stop-color="#fff" stop-opacity="0"/></linearGradient><linearGradient id="linearGradient4950" x1="16" x2="16" y1="209" y2="200" gradientUnits="userSpaceOnUse" xlink:href="#linearGradient4948"/><linearGradient id="linearGradient4948"><stop id="stop4944" offset="0" stop-color="#a1a1a1" stop-opacity="1"/><stop id="stop4946" offset="1" stop-color="#d6d6d6" stop-opacity="1"/></linearGradient><linearGradient id="linearGradient4822" x1="13" x2="19" y1="199.5" y2="199.5" gradientUnits="userSpaceOnUse" xlink:href="#linearGradient2904"/><linearGradient id="linearGradient2904"><stop id="stop2906" offset="0" stop-color="#b9b9b9" stop-opacity="1"/><stop id="stop2910" offset=".216" stop-color="#fff" stop-opacity="1"/><stop id="stop2912" offset=".702" stop-color="#c3c3c3" stop-opacity="1"/><stop id="stop2908" offset="1" stop-color="#878787" stop-opacity="1"/></linearGradient><linearGradient id="linearGradient4905" x1="16" x2="16" y1="196" y2="203" gradientUnits="userSpaceOnUse" xlink:href="#linearGradient3324"/><linearGradient id="linearGradient4725" x1="16.977" x2="32.046" y1="14.011" y2="14.011" gradientTransform="matrix(0.99514874,0,0,0.79639888,-5.8926,188.34141)" gradientUnits="userSpaceOnUse" xlink:href="#linearGradient11193"/><linearGradient id="linearGradient11193"><stop id="stop11195" offset="0" stop-color="#fff" stop-opacity="1"/><stop id="stop9375" offset=".238" stop-color="#e5e5e5" stop-opacity="1"/><stop id="stop11205" offset=".549" stop-color="#e1e1e1" stop-opacity="1"/><stop id="stop11201" offset=".692" stop-color="#ababab" stop-opacity="1"/><stop id="stop11203" offset=".806" stop-color="#959595" stop-opacity="1"/><stop id="stop11197" offset="1" stop-color="#d3d3d3" stop-opacity="1"/></linearGradient></defs><g id="g5681" display="inline" transform="translate(-8,-194)"><path id="path4767" fill="url(#linearGradient4950)" fill-opacity="1" fill-rule="nonzero" stroke="#000" stroke-dasharray="none" stroke-dashoffset="0" stroke-linecap="butt" stroke-linejoin="round" stroke-miterlimit="4" stroke-opacity=".4" stroke-width="1" d="m 9.5,199.5 v 0.5 1.5 h 1 v 0.5 c 0,2.66237 1.884174,4.88351 4.400391,5.39062 l 0.0293,0.006 0.0293,0.002 c 0,0 0.03706,0.004 0.04102,0.004 V 207.5 L 13.5,208 l 1.1e-5,1.5 h 5 L 18.5,208 17,207.5 v -0.0977 c 0.004,-3.3e-4 0.04102,-0.004 0.04102,-0.004 l 0.0293,-0.002 0.0293,-0.006 C 19.615804,206.88379 21.5,204.66237 21.5,202 v -0.5 h 1 v -2 h -3 v 2.5 c 0,1.94765 -1.552351,3.5 -3.5,3.5 -1.947649,0 -3.5,-1.55235 -3.5,-3.5 v -2.5 z" clip-rule="nonzero" color="#bebebe" color-interpolation="sRGB" color-interpolation-filters="linearRGB" color-rendering="auto" display="inline" enable-background="accumulate" image-rendering="auto" opacity="1" overflow="visible" shape-rendering="auto" text-rendering="auto" visibility="visible" style="isolation:auto;mix-blend-mode:normal;solid-color:#000;solid-opacity:1;marker:none"/><rect id="rect13081" width="5" height="10" x="13.5" y="194.5" fill="url(#linearGradient4822)" fill-opacity="1" stroke="#000" stroke-dasharray="none" stroke-dashoffset="0" stroke-linecap="square" stroke-linejoin="round" stroke-miterlimit="4" stroke-opacity=".4" stroke-width="1" display="inline" enable-background="new" rx="2.5" ry="2.5"/><path id="path13103" fill="#000" fill-opacity="1" fill-rule="nonzero" stroke="none" stroke-width="1" d="m 17.000003,195.5 c 0,0.276 -0.224,0.5 -0.5,0.5 -0.276,0 -0.5,-0.224 -0.5,-0.5 0,-0.276 0.224,-0.5 0.5,-0.5 0.276,0 0.5,0.224 0.5,0.5 z m -2,0 c 0,0.276 -0.224,0.5 -0.5,0.5 -0.276,0 -0.5,-0.224 -0.5,-0.5 0,-0.276 0.224,-0.5 0.5,-0.5 0.276,0 0.5,0.224 0.5,0.5 z m 0,2 c 0,0.276 -0.224,0.5 -0.5,0.5 -0.276,0 -0.5,-0.224 -0.5,-0.5 0,-0.276 0.224,-0.5 0.5,-0.5 0.276,0 0.5,0.224 0.5,0.5 z m 2,0 c 0,0.276 -0.224,0.5 -0.5,0.5 -0.276,0 -0.5,-0.224 -0.5,-0.5 0,-0.276 0.224,-0.5 0.5,-0.5 0.276,0 0.5,0.224 0.5,0.5 z m -1,1 c 0,0.276 -0.224,0.5 -0.5,0.5 -0.276,0 -0.5,-0.224 -0.5,-0.5 0,-0.276 0.224,-0.5 0.5,-0.5 0.276,0 0.5,0.224 0.5,0.5 z m 0,-2 c 0,0.276 -0.224,0.5 -0.5,0.5 -0.276,0 -0.5,-0.224 -0.5,-0.5 0,-0.276 0.224,-0.5 0.5,-0.5 0.276,0 0.5,0.224 0.5,0.5 z m 2,0 c 0,0.276 -0.224,0.5 -0.5,0.5 -0.276,0 -0.5,-0.224 -0.5,-0.5 0,-0.276 0.224,-0.5 0.5,-0.5 0.276,0 0.5,0.224 0.5,0.5 z m 0,2 c 0,0.276 -0.224,0.5 -0.5,0.5 -0.276,0 -0.5,-0.224 -0.5,-0.5 0,-0.276 0.224,-0.5 0.5,-0.5 0.276,0 0.5,0.224 0.5,0.5 z m -1,1 c 0,0.276 -0.224,0.5 -0.5,0.5 -0.276,0 -0.5,-0.224 -0.5,-0.5 0,-0.276 0.224,-0.5 0.5,-0.5 0.276,0 0.5,0.224 0.5,0.5 z m -2,0 c 0,0.276 -0.224,0.5 -0.5,0.5 -0.276,0 -0.5,-0.224 -0.5,-0.5 0,-0.276 0.224,-0.5 0.5,-0.5 0.276,0 0.5,0.224 0.5,0.5 z" color="#000" display="inline" enable-background="new" opacity=".291" overflow="visible" visibility="visible" style="marker:none"/><rect id="rect4889" width="3" height="8" x="14.5" y="195.5" fill="none" fill-opacity="1" stroke="url(#linearGradient4905)" stroke-dasharray="none" stroke-dashoffset="0" stroke-linecap="square" stroke-linejoin="round" stroke-miterlimit="4" stroke-opacity="1" stroke-width="1" display="inline" enable-background="new" opacity=".3" rx="1.5" ry="1.5"/><path id="path4940" fill="none" fill-rule="evenodd" stroke="#fff" stroke-linecap="butt" stroke-linejoin="miter" stroke-opacity="1" stroke-width="1" d="m 14,208.5 h 4" opacity=".3"/><path id="path4942" fill="none" fill-rule="evenodd" stroke="#fff" stroke-linecap="butt" stroke-linejoin="miter" stroke-opacity="1" stroke-width="1" d="m 20,200.5 h 2" opacity=".3"/><path id="path9404" fill="none" fill-opacity="1" stroke="#fff" stroke-dasharray="none" stroke-dashoffset="0" stroke-linecap="round" stroke-linejoin="round" stroke-miterlimit="4" stroke-opacity=".498" stroke-width="1" d="m 20.499901,202.26502 c -4e-6,1.51301 -0.857692,2.91109 -2.249982,3.66759 -1.392289,0.75651 -3.107661,0.75651 -4.49995,0 C 12.357684,205.1761 11.500001,203.77803 11.5,202.26502" opacity="1"/><path id="path10961" fill="none" fill-rule="evenodd" stroke="#000" stroke-linecap="butt" stroke-linejoin="miter" stroke-opacity="1" stroke-width="1" d="m 11,201.5 h 1" opacity=".2"/><path id="path10963" fill="none" fill-rule="evenodd" stroke="#000" stroke-linecap="butt" stroke-linejoin="miter" stroke-opacity="1" stroke-width="1" d="m 20,201.5 h 1" opacity=".2"/><path id="path4723" fill="url(#linearGradient4725)" fill-opacity="1" fill-rule="nonzero" stroke="#000" stroke-dasharray="none" stroke-miterlimit="4" stroke-opacity=".251" stroke-width="1" d="m 12.5,199.5 h 7 v 2 h -7 z" color="#000" display="inline" enable-background="accumulate" overflow="visible" visibility="visible" style="marker:none"/></g></svg>