<svg xmlns="http://www.w3.org/2000/svg" xmlns:svg="http://www.w3.org/2000/svg" id="svg2" width="16" height="16" version="1.1" viewBox="0 0 20 20" xml:space="preserve"><metadata id="metadata8"/><defs id="defs6"><clipPath id="clipPath16" clipPathUnits="userSpaceOnUse"><path id="path18" d="m 1.272,8.834 c 0,-0.321 0.024,-0.638 0.07,-0.946 l 0,0 C 1.382,7.382 1.374,6.833 1.382,6.383 l 0,0 C 1.391,5.897 1.402,5.274 1.402,5.274 l 0,0 C 1.408,4.885 1.551,4.247 1.803,3.554 l 0,0 C 2.005,2.996 2.239,2.512 2.451,2.185 l 0,0 c 0,0 10e-4,-0.002 0.002,-0.004 l 0,0 C 2.488,2.128 2.523,2.079 2.556,2.034 l 0,0 C 2.699,1.829 2.953,1.469 3.085,1.3 l 0,0 C 3.101,1.278 3.117,1.259 3.131,1.242 l 0,0 C 3.271,1.08 3.366,0.998 3.495,0.93 l 0,0 C 3.623,0.86 3.721,0.915 3.721,0.915 l 0,0 c 0.082,0.024 0.098,0.249 0.057,0.614 l 0,0 1.117,-0.74 C 4.927,0.77 4.964,0.765 5.001,0.776 l 0,0 0.479,0.137 C 5.481,0.911 5.483,0.91 5.484,0.909 l 0,0 C 5.497,0.892 5.51,0.879 5.521,0.87 l 0,0 C 5.611,0.793 5.738,0.76 5.861,0.796 l 0,0 0.502,0.145 c 0.254,0.071 0.422,0.292 0.435,0.537 l 0,0 C 6.838,1.801 6.52,3.2 6.022,4.847 l 0,0 C 5.505,6.556 4.974,7.936 4.775,8.113 l 0,0 c -0.15,0.176 -0.399,0.259 -0.64,0.19 l 0,0 L 3.633,8.158 C 3.532,8.129 3.453,8.059 3.411,7.971 l 0,0 L 2.872,7.816 C 2.836,7.807 2.808,7.782 2.792,7.753 l 0,0 L 2.281,6.57 C 2.275,6.581 2.27,6.591 2.265,6.601 l 0,0 L 2.22,6.722 C 2.084,7.21 2.012,7.723 2.012,8.252 l 0,0 c 0,3.224 2.681,5.837 5.988,5.837 l 0,0 c 3.308,0 5.989,-2.613 5.989,-5.837 l 0,0 c 0,-0.559 -0.082,-1.099 -0.232,-1.612 l 0,0 -0.015,-0.039 C 13.737,6.591 13.731,6.581 13.726,6.57 l 0,0 -0.511,1.183 c -0.016,0.029 -0.044,0.054 -0.08,0.063 l 0,0 -0.539,0.155 c -0.042,0.088 -0.12,0.158 -0.223,0.187 l 0,0 -0.502,0.145 c -0.24,0.069 -0.49,-0.014 -0.64,-0.19 l 0,0 C 11.032,7.936 10.502,6.556 9.986,4.847 l 0,0 C 9.486,3.2 9.168,1.801 9.209,1.478 l 0,0 C 9.221,1.233 9.391,1.012 9.644,0.941 l 0,0 0.503,-0.145 C 10.27,0.76 10.397,0.793 10.485,0.87 l 0,0 c 0.012,0.009 0.025,0.022 0.039,0.039 l 0,0 c 0.001,0.001 0.001,0.002 0.002,0.004 l 0,0 0.479,-0.137 c 0.038,-0.011 0.076,-0.006 0.106,0.013 l 0,0 1.117,0.74 C 12.189,1.164 12.203,0.939 12.285,0.915 l 0,0 c 0,0 0.098,-0.055 0.227,0.015 l 0,0 c 0.129,0.068 0.224,0.15 0.363,0.312 l 0,0 c 0.016,0.017 0.03,0.036 0.047,0.058 l 0,0 c 0.132,0.169 0.385,0.529 0.529,0.734 l 0,0 c 0.034,0.044 0.068,0.094 0.102,0.147 l 0,0 c 0.002,0.002 0.003,0.004 0.003,0.004 l 0,0 c 0.211,0.327 0.446,0.811 0.648,1.369 l 0,0 c 0.252,0.693 0.395,1.331 0.4,1.72 l 0,0 c 0,0 0.011,0.623 0.02,1.109 l 0,0 c 0.009,0.485 -0.001,1.085 0.05,1.622 l 0,0 c 0.036,0.271 0.055,0.549 0.055,0.829 l 0,0 c 0,3.622 -3.013,6.559 -6.729,6.559 l 0,0 c -3.716,0 -6.728,-2.937 -6.728,-6.559"/></clipPath><linearGradient id="linearGradient24" x1="0" x2="1" y1="0" y2="0" gradientTransform="matrix(0,-14.490933,-14.490933,0,8,15.141615)" gradientUnits="userSpaceOnUse" spreadMethod="pad"><stop id="stop26" offset="0" stop-color="#3d3d3e" stop-opacity="1"/><stop id="stop28" offset=".406" stop-color="#3d3d3e" stop-opacity="1"/><stop id="stop30" offset=".572" stop-color="#343334" stop-opacity="1"/><stop id="stop32" offset=".748" stop-color="#656263" stop-opacity="1"/><stop id="stop34" offset=".971" stop-color="#1f1d1d" stop-opacity="1"/><stop id="stop36" offset="1" stop-color="#1f1d1d" stop-opacity="1"/></linearGradient><clipPath id="clipPath44" clipPathUnits="userSpaceOnUse"><path id="path46" d="M 0,16 16,16 16,0 0,0 0,16 Z"/></clipPath><clipPath id="clipPath52" clipPathUnits="userSpaceOnUse"><path id="path54" d="m 1.27167,15.3924 13.45663,0 0,-7.50516 -13.45663,0 0,7.50516 z"/></clipPath><clipPath id="clipPath56" clipPathUnits="userSpaceOnUse"><path id="path58" d="m 2.012,8.252 c 0,3.224 2.681,5.837 5.988,5.837 3.308,0 5.988,-2.613 5.988,-5.837 l 0.687,-0.248 0,0.001 c 0.035,0.271 0.054,0.548 0.054,0.829 0,3.622 -3.013,6.559 -6.729,6.559 -3.716,0 -6.729,-2.937 -6.729,-6.559 0,-0.321 0.025,-0.638 0.071,-0.947"/></clipPath><linearGradient id="linearGradient60" x1="0" x2="1" y1="0" y2="0" gradientTransform="matrix(1.2701696,-3.9489443,-3.9489443,-1.2701696,5.7189016,16.066862)" gradientUnits="userSpaceOnUse" spreadMethod="pad"><stop id="stop62" offset="0" stop-color="#797b79" stop-opacity="1"/><stop id="stop64" offset=".074" stop-color="#797b79" stop-opacity="1"/><stop id="stop66" offset=".928" stop-color="#1f1d1d" stop-opacity="1"/><stop id="stop68" offset="1" stop-color="#1f1d1d" stop-opacity="1"/></linearGradient><clipPath id="clipPath88" clipPathUnits="userSpaceOnUse"><path id="path90" d="m 1.64365,14.3202 12.71275,0 0,-7.98055 -12.71275,0 0,7.98055 z"/></clipPath><clipPath id="clipPath104" clipPathUnits="userSpaceOnUse"><path id="path106" d="M 2.303,10.935 C 2.266,10.859 2.315,10.766 2.39,10.766 l 0,0 0.175,0 c 0.17,0 0.331,0.093 0.429,0.252 l 0,0 C 4.106,12.81 5.933,13.857 8,13.857 l 0,0 c 2.067,0 3.894,-1.047 5.006,-2.839 l 0,0 c 0.099,-0.159 0.258,-0.252 0.429,-0.252 l 0,0 0.175,0 c 0.074,0 0.123,0.093 0.087,0.169 l 0,0 C 12.536,13.3 10.42,14.64 8,14.64 l 0,0 c -2.42,0 -4.537,-1.34 -5.697,-3.705"/></clipPath><radialGradient id="radialGradient112" cx="0" cy="0" r="1" fx="0" fy="0" gradientTransform="matrix(6.0688472,0.0043192,0.0042099,-5.9152617,7.9582925,8.8003244)" gradientUnits="userSpaceOnUse" spreadMethod="pad"><stop id="stop114" offset="0" stop-color="#1f1d1d" stop-opacity="1"/><stop id="stop116" offset=".928" stop-color="#1f1d1d" stop-opacity="1"/><stop id="stop118" offset="1" stop-color="#343334" stop-opacity="1"/></radialGradient><clipPath id="clipPath126" clipPathUnits="userSpaceOnUse"><path id="path128" d="M 14.007,3.801 C 13.663,2.757 13.287,1.871 13.015,1.422 l 0,0 c 0.137,0.185 0.322,0.448 0.436,0.612 l 0,0 c 0.034,0.044 0.068,0.094 0.102,0.147 l 0,0 c 0.002,0.002 0.003,0.004 0.003,0.004 l 0,0 c 0.211,0.327 0.446,0.811 0.648,1.369 l 0,0 c 0.252,0.693 0.395,1.331 0.4,1.72 l 0,0 c 0,0 0.011,0.58 0.019,1.056 l 0,0 C 14.583,5.816 14.357,4.865 14.007,3.801"/></clipPath><linearGradient id="linearGradient134" x1="0" x2="1" y1="0" y2="0" gradientTransform="matrix(1.6087636,0,0,-1.6087636,13.014541,3.8762968)" gradientUnits="userSpaceOnUse" spreadMethod="pad"><stop id="stop136" offset="0" stop-color="#2b2829" stop-opacity="1"/><stop id="stop138" offset=".37" stop-color="#2b2829" stop-opacity="1"/><stop id="stop140" offset="1" stop-color="#3b3839" stop-opacity="1"/></linearGradient><clipPath id="clipPath148" clipPathUnits="userSpaceOnUse"><path id="path150" d="m 12.795,4.055 c -0.491,-1.674 -0.72,-3.079 -0.51,-3.14 l 0,0 c 0.209,-0.059 0.778,1.248 1.269,2.922 l 0,0 c 0.492,1.674 0.72,3.08 0.51,3.14 l 0,0 C 14.06,6.978 14.055,6.979 14.05,6.979 l 0,0 c -0.221,0 -0.775,-1.287 -1.255,-2.924"/></clipPath><linearGradient id="linearGradient156" x1="0" x2="1" y1="0" y2="0" gradientTransform="matrix(1.9351749,0,0,-1.9351749,12.206968,3.9462035)" gradientUnits="userSpaceOnUse" spreadMethod="pad"><stop id="stop158" offset="0" stop-color="#1a1817" stop-opacity="1"/><stop id="stop160" offset="1" stop-color="#2c2a2a" stop-opacity="1"/></linearGradient><clipPath id="clipPath168" clipPathUnits="userSpaceOnUse"><path id="path170" d="M 13.214,7.752 C 13.216,7.747 13.218,7.745 13.221,7.74 l 0,0 -0.006,0.013 -10e-4,-0.001 z"/></clipPath><linearGradient id="linearGradient176" x1="0" x2="1" y1="0" y2="0" gradientTransform="matrix(0.0066598,0,0,-0.0066598,13.214201,7.7469387)" gradientUnits="userSpaceOnUse" spreadMethod="pad"><stop id="stop178" offset="0" stop-color="#6d6e70" stop-opacity="1"/><stop id="stop180" offset=".506" stop-color="#545557" stop-opacity="1"/><stop id="stop182" offset="1" stop-color="#2c2a2a" stop-opacity="1"/></linearGradient><clipPath id="clipPath190" clipPathUnits="userSpaceOnUse"><path id="path192" d="M 13.231,7.7 C 13.295,7.43 12.96,5.946 12.429,4.189 l 0,0 C 11.89,2.407 11.338,0.968 11.138,0.806 l 0,0 1.26,0.836 c 0.168,0.109 0.535,1.079 0.927,2.377 l 0,0 c 0.393,1.299 0.576,2.15 0.496,2.331 l 0,0 -0.599,1.388 C 13.226,7.726 13.229,7.713 13.231,7.7"/></clipPath><linearGradient id="linearGradient198" x1="0" x2="1" y1="0" y2="0" gradientTransform="matrix(1.4131899,4.1548328,4.1548328,-1.4131899,11.922723,1.8766948)" gradientUnits="userSpaceOnUse" spreadMethod="pad"><stop id="stop200" offset="0" stop-color="#2c2a2a" stop-opacity="1"/><stop id="stop202" offset=".5" stop-color="#2c2a2a" stop-opacity="1"/><stop id="stop204" offset=".803" stop-color="#545557" stop-opacity="1"/><stop id="stop206" offset="1" stop-color="#7b7979" stop-opacity="1"/></linearGradient><clipPath id="clipPath214" clipPathUnits="userSpaceOnUse"><path id="path216" d="M 11.127,0.799 11.13,0.801 C 11.129,0.8 11.128,0.799 11.127,0.799 m -0.01,-0.007 c 10e-4,0.001 0.002,0.001 0.003,0.002 l 0,0 c 0.002,0.001 0.004,0.003 0.007,0.005 l 0,0 -0.01,-0.007 z m -0.006,-0.002 0,-0.002 0.006,0.004 C 11.115,0.791 11.113,0.791 11.111,0.79"/></clipPath><linearGradient id="linearGradient222" x1="0" x2="1" y1="0" y2="0" gradientTransform="matrix(0.0183603,0,0,-0.0183603,11.111258,0.7942702)" gradientUnits="userSpaceOnUse" spreadMethod="pad"><stop id="stop224" offset="0" stop-color="#6d6e70" stop-opacity="1"/><stop id="stop226" offset=".506" stop-color="#545557" stop-opacity="1"/><stop id="stop228" offset="1" stop-color="#2c2a2a" stop-opacity="1"/></linearGradient><clipPath id="clipPath236" clipPathUnits="userSpaceOnUse"><path id="path238" d="M 11.231,8.113 C 11.032,7.936 10.502,6.556 9.986,4.847 l 0,0 C 9.486,3.2 9.168,1.801 9.209,1.478 l 0,0 C 9.221,1.233 9.391,1.012 9.644,0.941 l 0,0 0.503,-0.145 C 10.27,0.76 10.397,0.793 10.485,0.87 l 0,0 c 0.012,0.009 0.025,0.022 0.039,0.039 l 0,0 c 0.23,0.281 0.765,1.687 1.287,3.412 l 0,0 c 0.565,1.869 0.91,3.436 0.801,3.613 l 0,0 c -0.037,0.105 -0.123,0.19 -0.239,0.224 l 0,0 -0.502,0.145 c -0.057,0.016 -0.115,0.024 -0.172,0.024 l 0,0 c -0.182,0 -0.353,-0.08 -0.468,-0.214"/></clipPath><linearGradient id="linearGradient244" x1="0" x2="1" y1="0" y2="0" gradientTransform="matrix(1.7061411,-0.5033271,-0.5033271,-1.7061411,10.060526,4.8287263)" gradientUnits="userSpaceOnUse" spreadMethod="pad"><stop id="stop246" offset="0" stop-color="#363233" stop-opacity="1"/><stop id="stop248" offset=".334" stop-color="#343131" stop-opacity="1"/><stop id="stop250" offset="1" stop-color="#2b2829" stop-opacity="1"/></linearGradient><clipPath id="clipPath258" clipPathUnits="userSpaceOnUse"><path id="path260" d="M 11.231,8.113 C 11.032,7.936 10.502,6.556 9.986,4.847 l 0,0 C 9.486,3.2 9.168,1.801 9.209,1.478 l 0,0 C 9.221,1.233 9.391,1.012 9.644,0.941 l 0,0 0.503,-0.145 C 10.27,0.76 10.397,0.793 10.485,0.87 l 0,0 c 0.012,0.009 0.025,0.022 0.039,0.039 l 0,0 c 0.23,0.281 0.765,1.687 1.287,3.412 l 0,0 c 0.565,1.869 0.91,3.436 0.801,3.613 l 0,0 c -0.037,0.105 -0.123,0.19 -0.239,0.224 l 0,0 -0.502,0.145 c -0.057,0.016 -0.115,0.024 -0.172,0.024 l 0,0 c -0.182,0 -0.353,-0.08 -0.468,-0.214"/></clipPath><linearGradient id="linearGradient266" x1="0" x2="1" y1="0" y2="0" gradientTransform="matrix(-2.101368,-7.0339379,-7.0339379,2.101368,11.946324,8.0945358)" gradientUnits="userSpaceOnUse" spreadMethod="pad"><stop id="stop268" offset="0" stop-color="#3b3839" stop-opacity="1"/><stop id="stop270" offset=".279" stop-color="#363233" stop-opacity="1"/><stop id="stop272" offset=".5" stop-color="#322e2f" stop-opacity="1"/><stop id="stop274" offset="1" stop-color="#2b2829" stop-opacity="1"/></linearGradient><clipPath id="clipPath282" clipPathUnits="userSpaceOnUse"><path id="path284" d="M 12.612,7.934 C 12.721,7.757 12.376,6.19 11.811,4.321 l 0,0 C 11.291,2.604 10.758,1.202 10.526,0.913 l 0,0 0.479,-0.137 c 0.041,-0.012 0.083,-0.004 0.115,0.018 l 0,0 c 0.18,0.077 0.751,1.551 1.309,3.395 l 0,0 C 12.96,5.946 13.295,7.43 13.231,7.7 l 0,0 C 13.226,7.753 13.19,7.801 13.135,7.816 l 0,0 -0.542,0.157 C 12.598,7.96 12.606,7.948 12.612,7.934"/></clipPath><linearGradient id="linearGradient290" x1="0" x2="1" y1="0" y2="0" gradientTransform="matrix(-1.5331925,-6.7165794,-6.7165794,1.5331925,12.68727,7.6392431)" gradientUnits="userSpaceOnUse" spreadMethod="pad"><stop id="stop292" offset="0" stop-color="#d3d2d2" stop-opacity="1"/><stop id="stop294" offset=".139" stop-color="#a7a5a6" stop-opacity="1"/><stop id="stop296" offset=".274" stop-color="#6d6e70" stop-opacity="1"/><stop id="stop298" offset="1" stop-color="#373737" stop-opacity="1"/></linearGradient><clipPath id="clipPath306" clipPathUnits="userSpaceOnUse"><path id="path308" d="M 1.402,5.274 C 1.408,4.885 1.551,4.247 1.803,3.554 l 0,0 C 2.005,2.996 2.239,2.512 2.451,2.185 l 0,0 c 0,0 10e-4,-0.002 0.002,-0.004 l 0,0 C 2.488,2.128 2.523,2.079 2.556,2.034 l 0,0 C 2.67,1.87 2.855,1.607 2.992,1.422 l 0,0 C 2.72,1.871 2.344,2.757 2,3.801 l 0,0 C 1.65,4.865 1.425,5.816 1.383,6.33 l 0,0 C 1.392,5.854 1.402,5.274 1.402,5.274"/></clipPath><linearGradient id="linearGradient314" x1="0" x2="1" y1="0" y2="0" gradientTransform="matrix(-1.6087534,0,0,-1.6087534,2.9921873,3.8762996)" gradientUnits="userSpaceOnUse" spreadMethod="pad"><stop id="stop316" offset="0" stop-color="#2b2829" stop-opacity="1"/><stop id="stop318" offset=".37" stop-color="#2b2829" stop-opacity="1"/><stop id="stop320" offset="1" stop-color="#3b3839" stop-opacity="1"/></linearGradient><clipPath id="clipPath328" clipPathUnits="userSpaceOnUse"><path id="path330" d="m 1.942,6.977 c -0.21,-0.06 0.019,-1.466 0.51,-3.14 l 0,0 C 2.944,2.163 3.512,0.856 3.721,0.915 l 0,0 c 0.21,0.061 -0.017,1.466 -0.509,3.14 l 0,0 C 2.731,5.692 2.177,6.979 1.957,6.979 l 0,0 c -0.005,0 -0.01,-0.001 -0.015,-0.002"/></clipPath><linearGradient id="linearGradient336" x1="0" x2="1" y1="0" y2="0" gradientTransform="matrix(-1.9351636,0,0,-1.9351636,3.7997584,3.9462059)" gradientUnits="userSpaceOnUse" spreadMethod="pad"><stop id="stop338" offset="0" stop-color="#1a1817" stop-opacity="1"/><stop id="stop340" offset="1" stop-color="#2c2a2a" stop-opacity="1"/></linearGradient><clipPath id="clipPath348" clipPathUnits="userSpaceOnUse"><path id="path350" d="m 2.786,7.74 c 10e-4,0.005 0.005,0.007 0.007,0.012 l 0,0 L 2.792,7.753 2.786,7.74 Z"/></clipPath><linearGradient id="linearGradient356" x1="0" x2="1" y1="0" y2="0" gradientTransform="matrix(-0.0066598,0,0,-0.0066598,2.7925394,7.7469411)" gradientUnits="userSpaceOnUse" spreadMethod="pad"><stop id="stop358" offset="0" stop-color="#6d6e70" stop-opacity="1"/><stop id="stop360" offset=".506" stop-color="#545557" stop-opacity="1"/><stop id="stop362" offset="1" stop-color="#2c2a2a" stop-opacity="1"/></linearGradient><clipPath id="clipPath370" clipPathUnits="userSpaceOnUse"><path id="path372" d="M 2.185,6.35 C 2.105,6.169 2.289,5.318 2.682,4.019 l 0,0 C 3.074,2.721 3.441,1.751 3.608,1.642 l 0,0 1.26,-0.836 c -0.2,0.162 -0.751,1.601 -1.29,3.383 l 0,0 C 3.046,5.946 2.712,7.43 2.777,7.7 l 0,0 c 0,0.013 0.003,0.026 0.008,0.038 l 0,0 -0.6,-1.388 z"/></clipPath><linearGradient id="linearGradient378" x1="0" x2="1" y1="0" y2="0" gradientTransform="matrix(-1.4131893,4.1548309,-4.1548309,-1.4131893,4.0840125,1.8766984)" gradientUnits="userSpaceOnUse" spreadMethod="pad"><stop id="stop380" offset="0" stop-color="#2c2a2a" stop-opacity="1"/><stop id="stop382" offset=".5" stop-color="#2c2a2a" stop-opacity="1"/><stop id="stop384" offset=".803" stop-color="#545557" stop-opacity="1"/><stop id="stop386" offset="1" stop-color="#7b7979" stop-opacity="1"/></linearGradient><clipPath id="clipPath394" clipPathUnits="userSpaceOnUse"><path id="path396" d="M 4.887,0.794 C 4.888,0.793 4.888,0.793 4.889,0.793 l 0,0 -0.012,0.008 C 4.881,0.798 4.883,0.796 4.887,0.794 m 0.008,-0.006 0,0.002 C 4.893,0.791 4.891,0.792 4.889,0.793 l 0,0 0.006,-0.005 z"/></clipPath><linearGradient id="linearGradient402" x1="0" x2="1" y1="0" y2="0" gradientTransform="matrix(-0.0183602,0,0,-0.0183602,4.8954687,0.7942718)" gradientUnits="userSpaceOnUse" spreadMethod="pad"><stop id="stop404" offset="0" stop-color="#6d6e70" stop-opacity="1"/><stop id="stop406" offset=".506" stop-color="#545557" stop-opacity="1"/><stop id="stop408" offset="1" stop-color="#2c2a2a" stop-opacity="1"/></linearGradient><clipPath id="clipPath416" clipPathUnits="userSpaceOnUse"><path id="path418" d="M 4.135,8.303 3.633,8.158 C 3.517,8.124 3.432,8.039 3.396,7.934 l 0,0 C 3.286,7.757 3.631,6.19 4.197,4.321 l 0,0 C 4.718,2.596 5.253,1.19 5.484,0.909 l 0,0 C 5.497,0.892 5.51,0.879 5.521,0.87 l 0,0 C 5.611,0.793 5.738,0.76 5.861,0.796 l 0,0 0.502,0.145 c 0.254,0.071 0.422,0.292 0.435,0.537 l 0,0 C 6.838,1.801 6.52,3.2 6.022,4.847 l 0,0 C 5.505,6.556 4.974,7.936 4.775,8.113 l 0,0 C 4.661,8.247 4.489,8.327 4.308,8.327 l 0,0 C 4.251,8.327 4.193,8.319 4.135,8.303"/></clipPath><linearGradient id="linearGradient424" x1="0" x2="1" y1="0" y2="0" gradientTransform="matrix(-1.7061406,-0.503327,0.503327,-1.7061406,5.9462085,4.8287272)" gradientUnits="userSpaceOnUse" spreadMethod="pad"><stop id="stop426" offset="0" stop-color="#363233" stop-opacity="1"/><stop id="stop428" offset=".334" stop-color="#343131" stop-opacity="1"/><stop id="stop430" offset="1" stop-color="#2b2829" stop-opacity="1"/></linearGradient><clipPath id="clipPath438" clipPathUnits="userSpaceOnUse"><path id="path440" d="M 4.135,8.303 3.633,8.158 C 3.517,8.124 3.432,8.039 3.396,7.934 l 0,0 C 3.286,7.757 3.631,6.19 4.197,4.321 l 0,0 C 4.718,2.596 5.253,1.19 5.484,0.909 l 0,0 C 5.497,0.892 5.51,0.879 5.521,0.87 l 0,0 C 5.611,0.793 5.738,0.76 5.861,0.796 l 0,0 0.502,0.145 c 0.254,0.071 0.422,0.292 0.435,0.537 l 0,0 C 6.838,1.801 6.52,3.2 6.022,4.847 l 0,0 C 5.505,6.556 4.974,7.936 4.775,8.113 l 0,0 C 4.661,8.247 4.489,8.327 4.308,8.327 l 0,0 C 4.251,8.327 4.193,8.319 4.135,8.303"/></clipPath><linearGradient id="linearGradient446" x1="0" x2="1" y1="0" y2="0" gradientTransform="matrix(2.101367,-7.0339351,7.0339351,2.101367,4.0604105,8.0945358)" gradientUnits="userSpaceOnUse" spreadMethod="pad"><stop id="stop448" offset="0" stop-color="#3b3839" stop-opacity="1"/><stop id="stop450" offset=".279" stop-color="#363233" stop-opacity="1"/><stop id="stop452" offset=".5" stop-color="#322e2f" stop-opacity="1"/><stop id="stop454" offset="1" stop-color="#2b2829" stop-opacity="1"/></linearGradient><clipPath id="clipPath462" clipPathUnits="userSpaceOnUse"><path id="path464" d="M 2.872,7.816 C 2.816,7.801 2.78,7.753 2.777,7.7 l 0,0 C 2.712,7.43 3.046,5.946 3.578,4.189 l 0,0 C 4.135,2.345 4.706,0.871 4.887,0.794 l 0,0 C 4.919,0.772 4.961,0.764 5.001,0.776 l 0,0 0.479,0.137 C 5.249,1.202 4.716,2.604 4.197,4.321 l 0,0 C 3.631,6.19 3.286,7.757 3.396,7.934 l 0,0 C 3.4,7.948 3.408,7.96 3.415,7.973 l 0,0 -0.543,-0.157 z"/></clipPath><linearGradient id="linearGradient470" x1="0" x2="1" y1="0" y2="0" gradientTransform="matrix(1.533192,-6.7165771,6.7165771,1.533192,3.3194628,7.6392431)" gradientUnits="userSpaceOnUse" spreadMethod="pad"><stop id="stop472" offset="0" stop-color="#d3d2d2" stop-opacity="1"/><stop id="stop474" offset=".139" stop-color="#a7a5a6" stop-opacity="1"/><stop id="stop476" offset=".274" stop-color="#6d6e70" stop-opacity="1"/><stop id="stop478" offset="1" stop-color="#373737" stop-opacity="1"/></linearGradient><clipPath id="clipPath486" clipPathUnits="userSpaceOnUse"><path id="path488" d="M 0,16 16,16 16,0 0,0 0,16 Z"/></clipPath><clipPath id="clipPath494" clipPathUnits="userSpaceOnUse"><path id="path496" d="m 0.771667,15.8924 14.456633,0 0,-15.622472 -14.456633,0 0,15.622472 z"/></clipPath><clipPath id="clipPath498" clipPathUnits="userSpaceOnUse"><path id="path500" d="m 0.771667,15.8924 14.456633,0 0,-15.622472 -14.456633,0 0,15.622472 z"/></clipPath><clipPath id="clipPath522" clipPathUnits="userSpaceOnUse"><path id="path524" d="m 2.83141,1.24168 4.9344,0 0,-1.084942 -4.9344,0 0,1.084942 z"/></clipPath><clipPath id="clipPath526" clipPathUnits="userSpaceOnUse"><path id="path528" d="m 7.766,0.699 c 0,-0.3 -1.105,-0.542 -2.467,-0.542 -1.363,0 -2.467,0.242 -2.467,0.542 0,0.3 1.104,0.542 2.467,0.542 1.362,0 2.467,-0.242 2.467,-0.542"/></clipPath><clipPath id="clipPath530" clipPathUnits="userSpaceOnUse"><path id="path532" d="m -32768,32767 65535,0 0,-65535 -65535,0 0,65535 z"/></clipPath><radialGradient id="radialGradient534" cx="0" cy="0" r="1" fx="0" fy="0" gradientTransform="matrix(2.4779773,0,0,-0.5081836,5.2986059,0.699213)" gradientUnits="userSpaceOnUse" spreadMethod="pad"><stop id="stop536" offset="0" stop-color="#fff" stop-opacity="1"/><stop id="stop538" offset=".531" stop-color="#fff" stop-opacity="0"/><stop id="stop540" offset="1" stop-color="#fff" stop-opacity="0"/></radialGradient><mask id="mask542" width="1" height="1" x="0" y="0" maskUnits="userSpaceOnUse"><g id="g544"><g id="g546" clip-path="url(#clipPath530)"><g id="g548"><g id="g550"><path id="path552" fill="url(#radialGradient534)" stroke="none" d="m -32768,32767 65535,0 0,-65535 -65535,0 0,65535 z"/></g></g></g></g></mask><radialGradient id="radialGradient554" cx="0" cy="0" r="1" fx="0" fy="0" gradientTransform="matrix(2.4779773,0,0,-0.5081836,5.2986059,0.699213)" gradientUnits="userSpaceOnUse" spreadMethod="pad"><stop id="stop556" offset="0" stop-color="#100f0d" stop-opacity="1"/><stop id="stop558" offset=".531" stop-color="#100f0d" stop-opacity="1"/><stop id="stop560" offset="1" stop-color="#100f0d" stop-opacity="1"/></radialGradient><clipPath id="clipPath584" clipPathUnits="userSpaceOnUse"><path id="path586" d="m 8.31392,1.24168 4.93438,0 0,-1.084942 -4.93438,0 0,1.084942 z"/></clipPath><clipPath id="clipPath588" clipPathUnits="userSpaceOnUse"><path id="path590" d="m 13.248,0.699 c 0,-0.3 -1.104,-0.542 -2.467,-0.542 -1.362,0 -2.467,0.242 -2.467,0.542 0,0.3 1.105,0.542 2.467,0.542 1.363,0 2.467,-0.242 2.467,-0.542"/></clipPath><clipPath id="clipPath592" clipPathUnits="userSpaceOnUse"><path id="path594" d="m -32768,32767 65535,0 0,-65535 -65535,0 0,65535 z"/></clipPath><radialGradient id="radialGradient596" cx="0" cy="0" r="1" fx="0" fy="0" gradientTransform="matrix(2.4779773,0,0,-0.5081836,10.781114,0.6992117)" gradientUnits="userSpaceOnUse" spreadMethod="pad"><stop id="stop598" offset="0" stop-color="#fff" stop-opacity="1"/><stop id="stop600" offset=".531" stop-color="#fff" stop-opacity="0"/><stop id="stop602" offset="1" stop-color="#fff" stop-opacity="0"/></radialGradient><mask id="mask604" width="1" height="1" x="0" y="0" maskUnits="userSpaceOnUse"><g id="g606"><g id="g608" clip-path="url(#clipPath592)"><g id="g610"><g id="g612"><path id="path614" fill="url(#radialGradient596)" stroke="none" d="m -32768,32767 65535,0 0,-65535 -65535,0 0,65535 z"/></g></g></g></g></mask><radialGradient id="radialGradient616" cx="0" cy="0" r="1" fx="0" fy="0" gradientTransform="matrix(2.4779773,0,0,-0.5081836,10.781114,0.6992117)" gradientUnits="userSpaceOnUse" spreadMethod="pad"><stop id="stop618" offset="0" stop-color="#100f0d" stop-opacity="1"/><stop id="stop620" offset=".531" stop-color="#100f0d" stop-opacity="1"/><stop id="stop622" offset="1" stop-color="#100f0d" stop-opacity="1"/></radialGradient></defs><g id="g10" transform="matrix(1.25,0,0,-1.25,0,20)"><g id="g12"><g id="g14" clip-path="url(#clipPath16)"><g id="g20"><g id="g22"><path id="path38" fill="url(#linearGradient24)" stroke="none" d="m 1.272,8.834 c 0,-0.321 0.024,-0.638 0.07,-0.946 l 0,0 C 1.382,7.382 1.374,6.833 1.382,6.383 l 0,0 C 1.391,5.897 1.402,5.274 1.402,5.274 l 0,0 C 1.408,4.885 1.551,4.247 1.803,3.554 l 0,0 C 2.005,2.996 2.239,2.512 2.451,2.185 l 0,0 c 0,0 10e-4,-0.002 0.002,-0.004 l 0,0 C 2.488,2.128 2.523,2.079 2.556,2.034 l 0,0 C 2.699,1.829 2.953,1.469 3.085,1.3 l 0,0 C 3.101,1.278 3.117,1.259 3.131,1.242 l 0,0 C 3.271,1.08 3.366,0.998 3.495,0.93 l 0,0 C 3.623,0.86 3.721,0.915 3.721,0.915 l 0,0 c 0.082,0.024 0.098,0.249 0.057,0.614 l 0,0 1.117,-0.74 C 4.927,0.77 4.964,0.765 5.001,0.776 l 0,0 0.479,0.137 C 5.481,0.911 5.483,0.91 5.484,0.909 l 0,0 C 5.497,0.892 5.51,0.879 5.521,0.87 l 0,0 C 5.611,0.793 5.738,0.76 5.861,0.796 l 0,0 0.502,0.145 c 0.254,0.071 0.422,0.292 0.435,0.537 l 0,0 C 6.838,1.801 6.52,3.2 6.022,4.847 l 0,0 C 5.505,6.556 4.974,7.936 4.775,8.113 l 0,0 c -0.15,0.176 -0.399,0.259 -0.64,0.19 l 0,0 L 3.633,8.158 C 3.532,8.129 3.453,8.059 3.411,7.971 l 0,0 L 2.872,7.816 C 2.836,7.807 2.808,7.782 2.792,7.753 l 0,0 L 2.281,6.57 C 2.275,6.581 2.27,6.591 2.265,6.601 l 0,0 L 2.22,6.722 C 2.084,7.21 2.012,7.723 2.012,8.252 l 0,0 c 0,3.224 2.681,5.837 5.988,5.837 l 0,0 c 3.308,0 5.989,-2.613 5.989,-5.837 l 0,0 c 0,-0.559 -0.082,-1.099 -0.232,-1.612 l 0,0 -0.015,-0.039 C 13.737,6.591 13.731,6.581 13.726,6.57 l 0,0 -0.511,1.183 c -0.016,0.029 -0.044,0.054 -0.08,0.063 l 0,0 -0.539,0.155 c -0.042,0.088 -0.12,0.158 -0.223,0.187 l 0,0 -0.502,0.145 c -0.24,0.069 -0.49,-0.014 -0.64,-0.19 l 0,0 C 11.032,7.936 10.502,6.556 9.986,4.847 l 0,0 C 9.486,3.2 9.168,1.801 9.209,1.478 l 0,0 C 9.221,1.233 9.391,1.012 9.644,0.941 l 0,0 0.503,-0.145 C 10.27,0.76 10.397,0.793 10.485,0.87 l 0,0 c 0.012,0.009 0.025,0.022 0.039,0.039 l 0,0 c 0.001,0.001 0.001,0.002 0.002,0.004 l 0,0 0.479,-0.137 c 0.038,-0.011 0.076,-0.006 0.106,0.013 l 0,0 1.117,0.74 C 12.189,1.164 12.203,0.939 12.285,0.915 l 0,0 c 0,0 0.098,-0.055 0.227,0.015 l 0,0 c 0.129,0.068 0.224,0.15 0.363,0.312 l 0,0 c 0.016,0.017 0.03,0.036 0.047,0.058 l 0,0 c 0.132,0.169 0.385,0.529 0.529,0.734 l 0,0 c 0.034,0.044 0.068,0.094 0.102,0.147 l 0,0 c 0.002,0.002 0.003,0.004 0.003,0.004 l 0,0 c 0.211,0.327 0.446,0.811 0.648,1.369 l 0,0 c 0.252,0.693 0.395,1.331 0.4,1.72 l 0,0 c 0,0 0.011,0.623 0.02,1.109 l 0,0 c 0.009,0.485 -0.001,1.085 0.05,1.622 l 0,0 c 0.036,0.271 0.055,0.549 0.055,0.829 l 0,0 c 0,3.622 -3.013,6.559 -6.729,6.559 l 0,0 c -3.716,0 -6.728,-2.937 -6.728,-6.559"/></g></g></g></g><g id="g40"><g id="g42" clip-path="url(#clipPath44)"><g id="g48"><g id="g70"><g id="g72" clip-path="url(#clipPath52)" opacity=".3"><g id="g74"><g id="g76" clip-path="url(#clipPath56)"><g id="g78"><g id="g80"><path id="path82" fill="url(#linearGradient60)" stroke="none" d="m 2.012,8.252 c 0,3.224 2.681,5.837 5.988,5.837 3.308,0 5.988,-2.613 5.988,-5.837 l 0.687,-0.248 0,0.001 c 0.035,0.271 0.054,0.548 0.054,0.829 0,3.622 -3.013,6.559 -6.729,6.559 -3.716,0 -6.729,-2.937 -6.729,-6.559 0,-0.321 0.025,-0.638 0.071,-0.947"/></g></g></g></g></g></g></g><g id="g84"><g id="g92"><g id="g94" clip-path="url(#clipPath88)" opacity=".8"><g id="g96" transform="translate(14.0781,6.3398)"><path id="path98" fill="#231f20" fill-opacity="1" fill-rule="nonzero" stroke="none" d="m 0,0 c 0.005,0.011 0.011,0.021 0.017,0.032 l 0.015,0.042 c 0.16,0.544 0.246,1.117 0.246,1.711 0,3.422 -2.845,6.195 -6.356,6.195 -3.511,0 -6.357,-2.773 -6.357,-6.195 0,-0.562 0.078,-1.107 0.222,-1.625 l 0.047,-0.128 C -12.16,0.021 -12.154,0.011 -12.149,0 l 0.352,0.23 c -0.006,0.011 -0.011,0.021 -0.016,0.031 l -0.045,0.121 c -0.136,0.488 -0.208,1.001 -0.208,1.531 0,3.223 2.681,5.837 5.988,5.837 3.307,0 5.988,-2.614 5.988,-5.837 0,-0.559 -0.081,-1.1 -0.231,-1.612 L -0.336,0.261 C -0.342,0.251 -0.347,0.241 -0.353,0.23 L 0,0 Z"/></g></g></g></g></g></g><g id="g100"><g id="g102" clip-path="url(#clipPath104)"><g id="g108"><g id="g110"><path id="path120" fill="url(#radialGradient112)" stroke="none" d="M 2.303,10.935 C 2.266,10.859 2.315,10.766 2.39,10.766 l 0,0 0.175,0 c 0.17,0 0.331,0.093 0.429,0.252 l 0,0 C 4.106,12.81 5.933,13.857 8,13.857 l 0,0 c 2.067,0 3.894,-1.047 5.006,-2.839 l 0,0 c 0.099,-0.159 0.258,-0.252 0.429,-0.252 l 0,0 0.175,0 c 0.074,0 0.123,0.093 0.087,0.169 l 0,0 C 12.536,13.3 10.42,14.64 8,14.64 l 0,0 c -2.42,0 -4.537,-1.34 -5.697,-3.705"/></g></g></g></g><g id="g122"><g id="g124" clip-path="url(#clipPath126)"><g id="g130"><g id="g132"><path id="path142" fill="url(#linearGradient134)" stroke="none" d="M 14.007,3.801 C 13.663,2.757 13.287,1.871 13.015,1.422 l 0,0 c 0.137,0.185 0.322,0.448 0.436,0.612 l 0,0 c 0.034,0.044 0.068,0.094 0.102,0.147 l 0,0 c 0.002,0.002 0.003,0.004 0.003,0.004 l 0,0 c 0.211,0.327 0.446,0.811 0.648,1.369 l 0,0 c 0.252,0.693 0.395,1.331 0.4,1.72 l 0,0 c 0,0 0.011,0.58 0.019,1.056 l 0,0 C 14.583,5.816 14.357,4.865 14.007,3.801"/></g></g></g></g><g id="g144"><g id="g146" clip-path="url(#clipPath148)"><g id="g152"><g id="g154"><path id="path162" fill="url(#linearGradient156)" stroke="none" d="m 12.795,4.055 c -0.491,-1.674 -0.72,-3.079 -0.51,-3.14 l 0,0 c 0.209,-0.059 0.778,1.248 1.269,2.922 l 0,0 c 0.492,1.674 0.72,3.08 0.51,3.14 l 0,0 C 14.06,6.978 14.055,6.979 14.05,6.979 l 0,0 c -0.221,0 -0.775,-1.287 -1.255,-2.924"/></g></g></g></g><g id="g164"><g id="g166" clip-path="url(#clipPath168)"><g id="g172"><g id="g174"><path id="path184" fill="url(#linearGradient176)" stroke="none" d="M 13.214,7.752 C 13.216,7.747 13.218,7.745 13.221,7.74 l 0,0 -0.006,0.013 -10e-4,-0.001 z"/></g></g></g></g><g id="g186"><g id="g188" clip-path="url(#clipPath190)"><g id="g194"><g id="g196"><path id="path208" fill="url(#linearGradient198)" stroke="none" d="M 13.231,7.7 C 13.295,7.43 12.96,5.946 12.429,4.189 l 0,0 C 11.89,2.407 11.338,0.968 11.138,0.806 l 0,0 1.26,0.836 c 0.168,0.109 0.535,1.079 0.927,2.377 l 0,0 c 0.393,1.299 0.576,2.15 0.496,2.331 l 0,0 -0.599,1.388 C 13.226,7.726 13.229,7.713 13.231,7.7"/></g></g></g></g><g id="g210"><g id="g212" clip-path="url(#clipPath214)"><g id="g218"><g id="g220"><path id="path230" fill="url(#linearGradient222)" stroke="none" d="M 11.127,0.799 11.13,0.801 C 11.129,0.8 11.128,0.799 11.127,0.799 m -0.01,-0.007 c 10e-4,0.001 0.002,0.001 0.003,0.002 l 0,0 c 0.002,0.001 0.004,0.003 0.007,0.005 l 0,0 -0.01,-0.007 z m -0.006,-0.002 0,-0.002 0.006,0.004 C 11.115,0.791 11.113,0.791 11.111,0.79"/></g></g></g></g><g id="g232"><g id="g234" clip-path="url(#clipPath236)"><g id="g240"><g id="g242"><path id="path252" fill="url(#linearGradient244)" stroke="none" d="M 11.231,8.113 C 11.032,7.936 10.502,6.556 9.986,4.847 l 0,0 C 9.486,3.2 9.168,1.801 9.209,1.478 l 0,0 C 9.221,1.233 9.391,1.012 9.644,0.941 l 0,0 0.503,-0.145 C 10.27,0.76 10.397,0.793 10.485,0.87 l 0,0 c 0.012,0.009 0.025,0.022 0.039,0.039 l 0,0 c 0.23,0.281 0.765,1.687 1.287,3.412 l 0,0 c 0.565,1.869 0.91,3.436 0.801,3.613 l 0,0 c -0.037,0.105 -0.123,0.19 -0.239,0.224 l 0,0 -0.502,0.145 c -0.057,0.016 -0.115,0.024 -0.172,0.024 l 0,0 c -0.182,0 -0.353,-0.08 -0.468,-0.214"/></g></g></g></g><g id="g254"><g id="g256" clip-path="url(#clipPath258)"><g id="g262"><g id="g264"><path id="path276" fill="url(#linearGradient266)" stroke="none" d="M 11.231,8.113 C 11.032,7.936 10.502,6.556 9.986,4.847 l 0,0 C 9.486,3.2 9.168,1.801 9.209,1.478 l 0,0 C 9.221,1.233 9.391,1.012 9.644,0.941 l 0,0 0.503,-0.145 C 10.27,0.76 10.397,0.793 10.485,0.87 l 0,0 c 0.012,0.009 0.025,0.022 0.039,0.039 l 0,0 c 0.23,0.281 0.765,1.687 1.287,3.412 l 0,0 c 0.565,1.869 0.91,3.436 0.801,3.613 l 0,0 c -0.037,0.105 -0.123,0.19 -0.239,0.224 l 0,0 -0.502,0.145 c -0.057,0.016 -0.115,0.024 -0.172,0.024 l 0,0 c -0.182,0 -0.353,-0.08 -0.468,-0.214"/></g></g></g></g><g id="g278"><g id="g280" clip-path="url(#clipPath282)"><g id="g286"><g id="g288"><path id="path300" fill="url(#linearGradient290)" stroke="none" d="M 12.612,7.934 C 12.721,7.757 12.376,6.19 11.811,4.321 l 0,0 C 11.291,2.604 10.758,1.202 10.526,0.913 l 0,0 0.479,-0.137 c 0.041,-0.012 0.083,-0.004 0.115,0.018 l 0,0 c 0.18,0.077 0.751,1.551 1.309,3.395 l 0,0 C 12.96,5.946 13.295,7.43 13.231,7.7 l 0,0 C 13.226,7.753 13.19,7.801 13.135,7.816 l 0,0 -0.542,0.157 C 12.598,7.96 12.606,7.948 12.612,7.934"/></g></g></g></g><g id="g302"><g id="g304" clip-path="url(#clipPath306)"><g id="g310"><g id="g312"><path id="path322" fill="url(#linearGradient314)" stroke="none" d="M 1.402,5.274 C 1.408,4.885 1.551,4.247 1.803,3.554 l 0,0 C 2.005,2.996 2.239,2.512 2.451,2.185 l 0,0 c 0,0 10e-4,-0.002 0.002,-0.004 l 0,0 C 2.488,2.128 2.523,2.079 2.556,2.034 l 0,0 C 2.67,1.87 2.855,1.607 2.992,1.422 l 0,0 C 2.72,1.871 2.344,2.757 2,3.801 l 0,0 C 1.65,4.865 1.425,5.816 1.383,6.33 l 0,0 C 1.392,5.854 1.402,5.274 1.402,5.274"/></g></g></g></g><g id="g324"><g id="g326" clip-path="url(#clipPath328)"><g id="g332"><g id="g334"><path id="path342" fill="url(#linearGradient336)" stroke="none" d="m 1.942,6.977 c -0.21,-0.06 0.019,-1.466 0.51,-3.14 l 0,0 C 2.944,2.163 3.512,0.856 3.721,0.915 l 0,0 c 0.21,0.061 -0.017,1.466 -0.509,3.14 l 0,0 C 2.731,5.692 2.177,6.979 1.957,6.979 l 0,0 c -0.005,0 -0.01,-0.001 -0.015,-0.002"/></g></g></g></g><g id="g344"><g id="g346" clip-path="url(#clipPath348)"><g id="g352"><g id="g354"><path id="path364" fill="url(#linearGradient356)" stroke="none" d="m 2.786,7.74 c 10e-4,0.005 0.005,0.007 0.007,0.012 l 0,0 L 2.792,7.753 2.786,7.74 Z"/></g></g></g></g><g id="g366"><g id="g368" clip-path="url(#clipPath370)"><g id="g374"><g id="g376"><path id="path388" fill="url(#linearGradient378)" stroke="none" d="M 2.185,6.35 C 2.105,6.169 2.289,5.318 2.682,4.019 l 0,0 C 3.074,2.721 3.441,1.751 3.608,1.642 l 0,0 1.26,-0.836 c -0.2,0.162 -0.751,1.601 -1.29,3.383 l 0,0 C 3.046,5.946 2.712,7.43 2.777,7.7 l 0,0 c 0,0.013 0.003,0.026 0.008,0.038 l 0,0 -0.6,-1.388 z"/></g></g></g></g><g id="g390"><g id="g392" clip-path="url(#clipPath394)"><g id="g398"><g id="g400"><path id="path410" fill="url(#linearGradient402)" stroke="none" d="M 4.887,0.794 C 4.888,0.793 4.888,0.793 4.889,0.793 l 0,0 -0.012,0.008 C 4.881,0.798 4.883,0.796 4.887,0.794 m 0.008,-0.006 0,0.002 C 4.893,0.791 4.891,0.792 4.889,0.793 l 0,0 0.006,-0.005 z"/></g></g></g></g><g id="g412"><g id="g414" clip-path="url(#clipPath416)"><g id="g420"><g id="g422"><path id="path432" fill="url(#linearGradient424)" stroke="none" d="M 4.135,8.303 3.633,8.158 C 3.517,8.124 3.432,8.039 3.396,7.934 l 0,0 C 3.286,7.757 3.631,6.19 4.197,4.321 l 0,0 C 4.718,2.596 5.253,1.19 5.484,0.909 l 0,0 C 5.497,0.892 5.51,0.879 5.521,0.87 l 0,0 C 5.611,0.793 5.738,0.76 5.861,0.796 l 0,0 0.502,0.145 c 0.254,0.071 0.422,0.292 0.435,0.537 l 0,0 C 6.838,1.801 6.52,3.2 6.022,4.847 l 0,0 C 5.505,6.556 4.974,7.936 4.775,8.113 l 0,0 C 4.661,8.247 4.489,8.327 4.308,8.327 l 0,0 C 4.251,8.327 4.193,8.319 4.135,8.303"/></g></g></g></g><g id="g434"><g id="g436" clip-path="url(#clipPath438)"><g id="g442"><g id="g444"><path id="path456" fill="url(#linearGradient446)" stroke="none" d="M 4.135,8.303 3.633,8.158 C 3.517,8.124 3.432,8.039 3.396,7.934 l 0,0 C 3.286,7.757 3.631,6.19 4.197,4.321 l 0,0 C 4.718,2.596 5.253,1.19 5.484,0.909 l 0,0 C 5.497,0.892 5.51,0.879 5.521,0.87 l 0,0 C 5.611,0.793 5.738,0.76 5.861,0.796 l 0,0 0.502,0.145 c 0.254,0.071 0.422,0.292 0.435,0.537 l 0,0 C 6.838,1.801 6.52,3.2 6.022,4.847 l 0,0 C 5.505,6.556 4.974,7.936 4.775,8.113 l 0,0 C 4.661,8.247 4.489,8.327 4.308,8.327 l 0,0 C 4.251,8.327 4.193,8.319 4.135,8.303"/></g></g></g></g><g id="g458"><g id="g460" clip-path="url(#clipPath462)"><g id="g466"><g id="g468"><path id="path480" fill="url(#linearGradient470)" stroke="none" d="M 2.872,7.816 C 2.816,7.801 2.78,7.753 2.777,7.7 l 0,0 C 2.712,7.43 3.046,5.946 3.578,4.189 l 0,0 C 4.135,2.345 4.706,0.871 4.887,0.794 l 0,0 C 4.919,0.772 4.961,0.764 5.001,0.776 l 0,0 0.479,0.137 C 5.249,1.202 4.716,2.604 4.197,4.321 l 0,0 C 3.631,6.19 3.286,7.757 3.396,7.934 l 0,0 C 3.4,7.948 3.408,7.96 3.415,7.973 l 0,0 -0.543,-0.157 z"/></g></g></g></g><g id="g482"><g id="g484" clip-path="url(#clipPath486)"><g id="g490"><g id="g502"><g id="g504" clip-path="url(#clipPath494)"><g id="g506"><g id="g510"><g id="g512" clip-path="url(#clipPath498)" opacity=".5"><g id="g514" transform="translate(14.7285,8.8345)"><path id="path516" fill="none" stroke="#231f20" stroke-dasharray="none" stroke-linecap="butt" stroke-linejoin="round" stroke-miterlimit="10" stroke-opacity="1" stroke-width="1" d="m 0,0 c 0,3.622 -3.013,6.558 -6.729,6.558 -3.715,0 -6.728,-2.936 -6.728,-6.558 0,-0.322 0.024,-0.638 0.07,-0.947 0.04,-0.506 0.033,-1.054 0.041,-1.505 0.009,-0.486 0.019,-1.108 0.019,-1.108 l 10e-4,0 c 0.006,-0.39 0.148,-1.027 0.4,-1.721 0.203,-0.557 0.437,-1.042 0.648,-1.368 0,0 0.002,-0.002 0.003,-0.005 0.035,-0.053 0.069,-0.101 0.102,-0.146 0.144,-0.205 0.398,-0.566 0.529,-0.735 0.017,-0.021 0.032,-0.041 0.047,-0.057 0.139,-0.162 0.234,-0.244 0.363,-0.313 0.129,-0.069 0.227,-0.014 0.227,-0.014 0.082,0.023 0.097,0.249 0.057,0.614 l 1.117,-0.74 c 0.031,-0.019 0.068,-0.025 0.106,-0.014 l 0.478,0.138 c 0.001,-0.002 0.003,-0.003 0.004,-0.004 0.014,-0.018 0.026,-0.031 0.038,-0.039 0.089,-0.078 0.216,-0.11 0.339,-0.075 l 0.502,0.145 c 0.254,0.072 0.422,0.293 0.435,0.537 0.041,0.324 -0.277,1.723 -0.776,3.37 -0.516,1.708 -1.047,3.089 -1.246,3.265 -0.151,0.177 -0.4,0.259 -0.64,0.19 l -0.502,-0.144 c -0.102,-0.03 -0.18,-0.099 -0.222,-0.187 l -0.54,-0.155 c -0.036,-0.01 -0.063,-0.034 -0.08,-0.064 l -0.511,-1.182 c -0.005,0.011 -0.01,0.02 -0.015,0.03 l -0.045,0.121 c -0.136,0.488 -0.209,1.001 -0.209,1.531 0,0.901 0.21,1.754 0.584,2.516 0.159,0.01 0.306,0.1 0.399,0.25 1.111,1.791 2.938,2.839 5.005,2.839 2.068,0 3.895,-1.048 5.006,-2.839 0.092,-0.15 0.241,-0.24 0.399,-0.25 0.374,-0.762 0.584,-1.615 0.584,-2.516 0,-0.559 -0.081,-1.1 -0.232,-1.612 l -0.014,-0.04 c -0.006,-0.01 -0.011,-0.019 -0.017,-0.03 l -0.511,1.182 c -0.016,0.03 -0.044,0.054 -0.079,0.064 l -0.54,0.155 c -0.042,0.088 -0.12,0.157 -0.222,0.187 l -0.502,0.144 c -0.241,0.069 -0.49,-0.013 -0.64,-0.19 -0.199,-0.176 -0.73,-1.557 -1.246,-3.265 -0.499,-1.647 -0.818,-3.046 -0.777,-3.37 0.013,-0.244 0.182,-0.465 0.436,-0.537 l 0.502,-0.145 c 0.123,-0.035 0.25,-0.003 0.339,0.075 0.012,0.008 0.024,0.021 0.038,0.039 0.001,10e-4 0.002,0.002 0.003,0.004 l 0.478,-0.138 c 0.038,-0.011 0.077,-0.005 0.107,0.014 l 1.117,0.74 c -0.04,-0.365 -0.025,-0.591 0.057,-0.614 0,0 0.097,-0.055 0.226,0.014 0.13,0.069 0.225,0.151 0.363,0.313 0.016,0.016 0.031,0.036 0.047,0.057 0.132,0.169 0.386,0.53 0.53,0.735 0.033,0.045 0.067,0.093 0.101,0.146 0.002,0.003 0.003,0.005 0.003,0.005 0.212,0.326 0.446,0.811 0.649,1.368 0.252,0.694 0.394,1.331 0.4,1.721 0,0 0.011,0.622 0.02,1.108 0.008,0.486 -0.001,1.085 0.05,1.622 l 0,0 C -0.019,-0.558 0,-0.281 0,0 Z"/></g></g></g></g></g></g></g><g id="g518"><g id="g562"><g id="g564" clip-path="url(#clipPath522)" opacity=".2"><g id="g566"><g id="g568" clip-path="url(#clipPath526)"><g id="g570"><g id="g574" mask="url(#mask542)"><g id="g576"><path id="path578" fill="url(#radialGradient554)" stroke="none" d="m 7.766,0.699 c 0,-0.3 -1.105,-0.542 -2.467,-0.542 -1.363,0 -2.467,0.242 -2.467,0.542 0,0.3 1.104,0.542 2.467,0.542 1.362,0 2.467,-0.242 2.467,-0.542"/></g></g></g></g></g></g></g></g><g id="g580"><g id="g624"><g id="g626" clip-path="url(#clipPath584)" opacity=".2"><g id="g628"><g id="g630" clip-path="url(#clipPath588)"><g id="g632"><g id="g636" mask="url(#mask604)"><g id="g638"><path id="path640" fill="url(#radialGradient616)" stroke="none" d="m 13.248,0.699 c 0,-0.3 -1.104,-0.542 -2.467,-0.542 -1.362,0 -2.467,0.242 -2.467,0.542 0,0.3 1.105,0.542 2.467,0.542 1.363,0 2.467,-0.242 2.467,-0.542"/></g></g></g></g></g></g></g></g></g></g></g></svg>