<svg xmlns="http://www.w3.org/2000/svg" xmlns:svg="http://www.w3.org/2000/svg" xmlns:xlink="http://www.w3.org/1999/xlink" id="svg3297" width="16" height="16" version="1.0"><metadata id="metadata58"/><defs id="defs3299"><linearGradient id="linearGradient4472"><stop id="stop4474" offset="0" stop-color="#fff" stop-opacity="1"/><stop id="stop4476" offset=".021" stop-color="#fff" stop-opacity=".235"/><stop id="stop4478" offset=".992" stop-color="#fff" stop-opacity=".157"/><stop id="stop4480" offset="1" stop-color="#fff" stop-opacity=".392"/></linearGradient><linearGradient id="linearGradient2215-9"><stop id="stop2223-6" offset="0" stop-color="#7a7a7a" stop-opacity="1"/><stop id="stop2219-1" offset="1" stop-color="#474747" stop-opacity="1"/></linearGradient><linearGradient id="linearGradient7056-0"><stop id="stop7064-4" offset="0" stop-color="#e6e6e6" stop-opacity="1"/><stop id="stop7060-2" offset="1" stop-color="#c8c8c8" stop-opacity="1"/></linearGradient><radialGradient id="radialGradient8215" cx="4.199" cy="2.312" r="8" fx="4.199" fy="2.312" gradientTransform="matrix(1.1767008,1.0376968,-0.76927742,0.87232541,1.0363585,-3.2771526)" gradientUnits="userSpaceOnUse" xlink:href="#linearGradient7056-0"/><linearGradient id="linearGradient8226" x1="53.991" x2="53.991" y1="87.896" y2="104.281" gradientTransform="matrix(0.1242128,0,0,0.1863981,0.233129,-3.9907482)" gradientUnits="userSpaceOnUse" xlink:href="#linearGradient2215-9"/><linearGradient id="linearGradient4161" x1="24" x2="24" y1="7.34" y2="41.034" gradientTransform="matrix(0.26751495,0,0,0.26751495,4.7162587,-0.01354682)" gradientUnits="userSpaceOnUse" xlink:href="#linearGradient4472"/><linearGradient id="linearGradient4525" x1="24" x2="24" y1="50.676" y2="54.887" gradientTransform="matrix(0.26751495,0,0,0.26751495,4.7162587,-0.01354682)" gradientUnits="userSpaceOnUse" xlink:href="#linearGradient4472"/></defs><path id="rect2990" fill="url(#radialGradient8215)" fill-opacity="1" fill-rule="nonzero" stroke="none" stroke-dasharray="none" stroke-dashoffset="0" stroke-linecap="round" stroke-linejoin="round" stroke-miterlimit="4" stroke-opacity="1" stroke-width="1" d="M 1.4897093,1.4657632 0.514749,12.488885 C 0.505,12.488885 0.5,12.491788 0.5,12.499999 l 14.999999,0 c 0,-0.0082 -0.005,-0.01111 -0.01475,-0.01111 L 14.479867,1.2478485 c 0,0 -0.187746,-0.74340135 -0.909635,-0.74340135 -0.688148,0 -10.5350353,-0.004447 -11.2600103,-0.004447 -0.75868,0 -0.8205124,0.96576325 -0.8205124,0.96576325 z" display="inline" enable-background="accumulate" overflow="visible" visibility="visible" style="marker:none"/><path id="rect2990-0" fill="none" fill-opacity="1" fill-rule="nonzero" stroke="#000" stroke-dasharray="none" stroke-dashoffset="0" stroke-linecap="round" stroke-linejoin="round" stroke-miterlimit="4" stroke-opacity="1" stroke-width="1" d="M 1.4897093,1.465763 0.514749,12.488885 C 0.505,12.488885 0.5,12.491785 0.5,12.499995 l 14.999999,0 c 0,-0.0082 -0.005,-0.01111 -0.01475,-0.01111 L 14.479867,1.2478483 c 0,0 -0.187746,-0.74340136 -0.909635,-0.74340136 -0.688148,0 -10.5350353,-0.004447 -11.2600103,-0.004447 -0.75868,0 -0.8205124,0.96576326 -0.8205124,0.96576326 z" display="inline" enable-background="accumulate" opacity=".35" overflow="visible" visibility="visible" style="marker:none"/><path id="rect2992" fill="url(#linearGradient8226)" fill-opacity="1" fill-rule="nonzero" stroke="none" stroke-dasharray="none" stroke-dashoffset="0" stroke-linecap="butt" stroke-linejoin="round" stroke-miterlimit="4" stroke-opacity="1" stroke-width="1" d="m 15.49723,12.5 c -0.304165,2.535038 -0.22639,2.983925 -0.777167,2.983925 -0.21573,0.03617 -8.698317,0 -13.470165,0 C 0.651763,15.483925 0.802893,15.533245 0.5,12.5 Z" display="inline" enable-background="accumulate" overflow="visible" visibility="visible" style="marker:none"/><path id="rect2992-2" fill="none" fill-opacity="1" fill-rule="nonzero" stroke="#000" stroke-dasharray="none" stroke-dashoffset="0" stroke-linecap="butt" stroke-linejoin="round" stroke-miterlimit="4" stroke-opacity="1" stroke-width="1" d="m 15.49723,12.5 c -0.304165,2.535038 -0.22639,2.983925 -0.777167,2.983925 -0.21573,0.03617 -8.698317,0 -13.470165,0 C 0.651763,15.483925 0.802893,15.533245 0.5,12.5 Z" display="inline" enable-background="accumulate" opacity=".5" overflow="visible" visibility="visible" style="marker:none"/><path id="path4266" fill="none" fill-opacity="1" fill-rule="nonzero" stroke="url(#linearGradient4161)" stroke-dasharray="none" stroke-dashoffset="0" stroke-linecap="round" stroke-linejoin="round" stroke-miterlimit="4" stroke-opacity="1" stroke-width="1" d="m 2.4980469,1.5019531 c -0.00136,0.00636 -0.00781,0.027344 -0.00781,0.027344 a 1.0015087,1.0015087 0 0 1 -0.00195,0.023437 l -0.8789062,9.9453126 12.78125,0 -0.892578,-9.9921876 C 12.708012,1.5058107 3.4947245,1.5020781 2.4980469,1.5019531 Z" clip-rule="nonzero" color="#000" color-interpolation="sRGB" color-interpolation-filters="linearRGB" color-rendering="auto" display="inline" enable-background="accumulate" image-rendering="auto" opacity=".6" overflow="visible" shape-rendering="auto" text-rendering="auto" visibility="visible" style="marker:none;isolation:auto;mix-blend-mode:normal;solid-color:#000;solid-opacity:1;filter-blend-mode:normal;filter-gaussianBlur-deviation:0"/><path id="path4497" fill="none" fill-opacity="1" fill-rule="nonzero" stroke="url(#linearGradient4525)" stroke-dasharray="none" stroke-dashoffset="0" stroke-linecap="round" stroke-linejoin="round" stroke-miterlimit="4" stroke-opacity="1" stroke-width="1" d="m 1.578125,13.476562 c 0.035324,0.3836 0.082771,0.870078 0.1015625,1.03125 2.352568,8.41e-4 5.411826,0.0094 8.015625,0.01367 1.3716895,0.0023 2.6003495,0.0036 3.4980465,0.002 0.448849,-8.46e-4 0.815103,-0.0034 1.072266,-0.0059 0.0025,-2.4e-5 0.0034,2.4e-5 0.0059,0 0.02745,-0.171355 0.08454,-0.677932 0.125,-1.041016 l -12.818359,0 z" clip-rule="nonzero" color="#000" color-interpolation="sRGB" color-interpolation-filters="linearRGB" color-rendering="auto" display="inline" enable-background="accumulate" image-rendering="auto" opacity=".2" overflow="visible" shape-rendering="auto" text-rendering="auto" visibility="visible" style="marker:none;isolation:auto;mix-blend-mode:normal;solid-color:#000;solid-opacity:1;filter-blend-mode:normal;filter-gaussianBlur-deviation:0"/><rect id="rect835" width="1" height="1" x="2" y="13.6" fill="#f9c440" fill-opacity=".9" fill-rule="nonzero" stroke="none" stroke-opacity=".6" stroke-width="1" opacity="1" paint-order="normal" vector-effect="none"/><rect id="rect837" width="1" height="1" x="4" y="13.6" fill="#f9c440" fill-opacity=".9" fill-rule="nonzero" stroke="none" stroke-opacity=".6" stroke-width="1" opacity="1" paint-order="normal" vector-effect="none"/><rect id="rect839" width="1" height="1" x="6" y="13.6" fill="#f9c440" fill-opacity=".9" fill-rule="nonzero" stroke="none" stroke-opacity=".6" stroke-width="1" opacity="1" paint-order="normal" vector-effect="none"/><rect id="rect841" width="1" height=".984" x="8" y="13.616" fill="#eabb43" fill-opacity="1" fill-rule="nonzero" stroke="none" stroke-opacity=".6" stroke-width="1" opacity="1" paint-order="normal" vector-effect="none"/><rect id="rect843" width="1" height="1" x="13" y="13.6" fill="#d1ff82" fill-opacity=".9" fill-rule="nonzero" stroke="none" stroke-opacity=".6" stroke-width="1" opacity="1" paint-order="normal" vector-effect="none"/><circle id="path845" cx="3.5" cy="2.5" r=".5" fill="#838383" fill-opacity="1" fill-rule="nonzero" stroke="none" stroke-opacity=".6" opacity="1" paint-order="normal" vector-effect="none"/><circle id="path845-3" cx="2.5" cy="10.5" r=".5" fill="#838383" fill-opacity="1" fill-rule="nonzero" stroke="none" stroke-opacity=".6" opacity="1" paint-order="normal" vector-effect="none"/><circle id="path845-6" cx="12.5" cy="2.5" r=".5" fill="#838383" fill-opacity="1" fill-rule="nonzero" stroke="none" stroke-opacity=".6" opacity="1" paint-order="normal" vector-effect="none"/><circle id="path845-7" cx="13.5" cy="10.5" r=".5" fill="#838383" fill-opacity="1" fill-rule="nonzero" stroke="none" stroke-opacity=".6" opacity="1" paint-order="normal" vector-effect="none"/></svg>