<svg xmlns="http://www.w3.org/2000/svg" xmlns:svg="http://www.w3.org/2000/svg" xmlns:xlink="http://www.w3.org/1999/xlink" id="svg3694" width="16" height="16" version="1.1"><metadata id="metadata32"/><defs id="defs3696"><linearGradient id="linearGradient3208"><stop id="stop3210" offset="0" stop-color="#fff" stop-opacity="1"/><stop id="stop3212" offset="1" stop-color="#fff" stop-opacity="0"/></linearGradient><linearGradient id="linearGradient3775"><stop id="stop3777" offset="0" stop-color="#fff" stop-opacity="1"/><stop id="stop3779" offset="1" stop-color="#fff" stop-opacity="0"/></linearGradient><linearGradient id="linearGradient3600-8"><stop id="stop3602-2" offset="0" stop-color="#f4f4f4" stop-opacity="1"/><stop id="stop3604-5" offset="1" stop-color="#dbdbdb" stop-opacity="1"/></linearGradient><linearGradient id="linearGradient3104-5"><stop id="stop3106-2" offset="0" stop-color="#aaa" stop-opacity="1"/><stop id="stop3108-2" offset="1" stop-color="#c8c8c8" stop-opacity="1"/></linearGradient><linearGradient id="linearGradient2841" x1="14" x2="32" y1="2" y2="40" gradientTransform="matrix(0.81494236,0,0,0.38737582,-10.008247,-1.5522154)" gradientUnits="userSpaceOnUse" xlink:href="#linearGradient3208"/><linearGradient id="linearGradient2845" x1="24.118" x2="-32.012" y1="33.658" y2="33.658" gradientTransform="matrix(5.4681973e-8,-0.23725628,0.25777328,1.1743586e-7,-0.6760755,7.0635602)" gradientUnits="userSpaceOnUse" xlink:href="#linearGradient3775"/><linearGradient id="linearGradient2848" x1="18.601" x2="18.601" y1=".854" y2="49.956" gradientTransform="matrix(0.39270105,0,0,0.31287267,5.3918039,0.04958457)" gradientUnits="userSpaceOnUse" xlink:href="#linearGradient3600-8"/><linearGradient id="linearGradient2850" x1="-74.785" x2="-74.785" y1="54.703" y2="2.104" gradientTransform="matrix(0.31710483,0,0,0.29280221,28.722287,-0.29910633)" gradientUnits="userSpaceOnUse" xlink:href="#linearGradient3104-5"/></defs><path id="path4487" fill="url(#linearGradient2848)" fill-opacity="1" fill-rule="nonzero" stroke="url(#linearGradient2850)" stroke-dasharray="none" stroke-dashoffset="0" stroke-linecap="butt" stroke-linejoin="round" stroke-miterlimit="4" stroke-opacity="1" stroke-width="1" d="M 7.9843638,0.49997357 C 6.8345762,0.51920767 5.5919505,0.60942047 4.6463942,1.2538279 3.6626917,2.2525512 3.7783766,3.6477523 3.6277993,4.8810663 3.4130449,7.7733943 3.4351987,10.706739 3.9562309,13.576327 c 0.1782697,0.732877 0.7972636,1.46809 1.6350966,1.607411 1.6398036,0.428508 3.4516468,0.436992 5.0689515,-0.06904 0.762163,-0.261673 1.25744,-0.904165 1.393272,-1.602974 0.248816,-0.998252 0.278655,-2.026154 0.373362,-3.037461 C 12.56496,7.8271693 12.539137,5.1558563 12.071066,2.5341264 11.922151,1.7645558 11.329257,1.0481573 10.480832,0.82341137 9.6839833,0.56095347 8.8246203,0.52591477 7.9843638,0.49997357 z" color="#000" display="inline" enable-background="accumulate" overflow="visible" visibility="visible" style="marker:none"/><path id="rect1320-6-9-3" fill="none" stroke="url(#linearGradient2845)" stroke-dasharray="none" stroke-dashoffset="0" stroke-linecap="round" stroke-linejoin="round" stroke-miterlimit="4" stroke-opacity="1" stroke-width="1" d="M 8.0003823,1.5000002 C 7.1066894,1.5201698 6.1509528,1.5805131 5.3918561,2.0802072 4.6137025,2.9443067 4.7463693,4.1511436 4.599359,5.2058764 4.4398991,7.7586836 4.4392557,10.337613 4.8461825,12.870066 c 0.1192,0.603817 0.5151102,1.217197 1.1841336,1.360013 1.1823966,0.348905 2.4711403,0.342481 3.6719632,0.07878 C 10.27522,14.182857 10.830028,13.854714 11.0148,13.294601 11.29678,12.53397 11.301374,11.711991 11.393171,10.917876 11.557873,8.4650496 11.553931,5.9905663 11.225987,3.550057 11.139163,2.888187 10.906467,2.125986 10.194323,1.8488565 9.5131854,1.5555102 8.7356962,1.5278131 8.0003823,1.5000002 z" display="inline" overflow="visible" visibility="visible" style="marker:none"/><path id="rect3238" fill="url(#linearGradient2841)" fill-opacity="1" fill-rule="nonzero" stroke="none" stroke-width="1" d="M 7.9285015,1.5216845 C 6.910403,1.5447645 5.8265924,1.6173845 4.9618269,2.1891285 4.0753521,3.1778233 4.2274319,4.5579073 4.0599575,5.7647223 3.9299587,7.8549963 3.888923,9.9554033 4.0480914,12.045848 L 11.642779,4.1557053 c -0.01191,-0.09541 -0.02284,-0.190731 -0.0356,-0.286048 -0.09891,-0.757305 -0.363525,-1.6375681 -1.1748,-1.9546575 C 9.6564243,1.5793555 8.7661753,1.5535084 7.9285043,1.5216845 z" display="inline" enable-background="accumulate" opacity=".4" overflow="visible" visibility="visible" style="marker:none"/></svg>