<svg xmlns="http://www.w3.org/2000/svg" xmlns:svg="http://www.w3.org/2000/svg" xmlns:xlink="http://www.w3.org/1999/xlink" id="svg3786" width="16" height="16" version="1.0"><metadata id="metadata39"/><defs id="defs3788"><linearGradient id="linearGradient3874"><stop id="stop3876" offset="0" stop-color="#000" stop-opacity="1"/><stop id="stop3878" offset="1" stop-color="#000" stop-opacity="0"/></linearGradient><linearGradient id="linearGradient3861" x1="17.741" x2="11.218" y1="24.05" y2="12.883" gradientTransform="matrix(0.99778,0,0,0.88551429,0.053179,4.2043715)" gradientUnits="userSpaceOnUse"><stop id="stop3863" offset="0" stop-color="#0a0a0a" stop-opacity="1"/><stop id="stop3865" offset=".144" stop-color="#1f1f1f" stop-opacity="1"/><stop id="stop3867" offset=".144" stop-color="#434343" stop-opacity="1"/><stop id="stop3869" offset="1" stop-color="#393939" stop-opacity="1"/></linearGradient><radialGradient id="radialGradient3841" cx="14.237" cy="12.595" r="23" gradientTransform="matrix(1.1924,0.53139429,-0.49419,0.81474,3.4847,3.6991715)" gradientUnits="userSpaceOnUse"><stop id="stop3843" offset="0" stop-color="#535353" stop-opacity="1"/><stop id="stop3845" offset="1" stop-color="#393939" stop-opacity="1"/></radialGradient><linearGradient id="linearGradient3839" x1="11.181" x2="4.815" y1="36.874" y2="29.922" gradientTransform="translate(0.4996891,-26)" gradientUnits="userSpaceOnUse" xlink:href="#radialGradient3841"/><linearGradient id="linearGradient3859" x1="24.852" x2="24.852" y1="41.077" y2="25.165" gradientTransform="translate(-0.7503109,-23)" gradientUnits="userSpaceOnUse" xlink:href="#linearGradient3861"/><linearGradient id="linearGradient3880" x1="22.261" x2="22" y1="19.219" y2="51" gradientTransform="translate(0.4996891,-26)" gradientUnits="userSpaceOnUse" xlink:href="#linearGradient3874"/><linearGradient id="linearGradient2756" x1="1.5" x2="1.5" y1="4.265" y2="8" gradientTransform="matrix(0.49065479,-0.59354527,0.56198192,0.51821218,18.829464,30.766379)" gradientUnits="userSpaceOnUse" xlink:href="#linearGradient3648"/><linearGradient id="linearGradient16397"><stop id="stop16399" offset="0" stop-color="#565656" stop-opacity="1"/><stop id="stop16401" offset="1" stop-color="#454545" stop-opacity="1"/></linearGradient><linearGradient id="linearGradient2760" x1="24" x2="24" y1="3.5" y2="8.5" gradientTransform="matrix(0.49065479,-0.59354527,0.56198192,0.51821218,18.829464,30.766379)" gradientUnits="userSpaceOnUse" xlink:href="#linearGradient3648"/><linearGradient id="linearGradient3648"><stop id="stop3650" offset="0" stop-color="#545454" stop-opacity="1"/><stop id="stop26236" offset=".797" stop-color="#232323" stop-opacity="1"/><stop id="stop3652" offset="1" stop-color="#303030" stop-opacity="1"/></linearGradient><linearGradient id="linearGradient2762" x1="6.5" x2="6.5" y1="3" y2="9" gradientTransform="matrix(0.49065479,-0.59354527,0.56198192,0.51821218,18.829464,30.766379)" gradientUnits="userSpaceOnUse" xlink:href="#linearGradient16397"/></defs><path id="rect6431" fill="url(#linearGradient3859)" fill-opacity="1" fill-rule="evenodd" stroke="#000" stroke-opacity=".726" d="m 1.5,2.5 c -1.05805826,0 -1.04419417,1 -1.04419417,1 L 0.5,14.5 c 0,0 0.0277282,1 1,1 l 13,0 c 1.016466,0 1,-1 1,-1 l 0,-11 c 0,0 0.100942,-1 -1,-1 z" enable-background="new"/><path id="path3246" fill="url(#linearGradient3839)" fill-opacity="1" stroke="none" stroke-dasharray="none" stroke-linecap="butt" stroke-linejoin="miter" stroke-miterlimit="4" stroke-opacity="1" stroke-width=".5" d="m 2.5,4.5 -3.14e-4,8 11.000158,0 3.11e-4,-8 z"/><path id="path3854" fill="none" fill-opacity="1" stroke="url(#linearGradient3880)" stroke-dasharray="none" stroke-linecap="butt" stroke-linejoin="round" stroke-miterlimit="4" stroke-opacity="1" stroke-width="1" d="m 2.5,4.5 -3.109e-4,8 11.0001549,0 3.11e-4,-8 z" opacity="1"/><path id="path3856" fill="none" fill-opacity="1" fill-rule="evenodd" stroke="none" stroke-linecap="round" stroke-linejoin="round" stroke-opacity="1" stroke-width="1" d="m 3.4996891,-6.5 c -0.8098,0 -2.03495,0.167807 -2.21875,0.84375 l -0.28125,20.125 L 31.999689,14.5 15.218439,-5.65625 C 15.058439,-6.20405 14.158689,-6.5 13.499689,-6.5 Z m 28.4999999,21 -30.9999999,0 1,2 13.0937499,0 z" enable-background="new"/><path id="path12857" fill="none" fill-rule="evenodd" stroke="#fff" stroke-linecap="round" stroke-linejoin="miter" stroke-opacity="1" stroke-width="1" d="M 2.4996891,13.5 13.5,13.5" opacity=".2"/><g id="g13258" transform="matrix(0.38717593,0,0,0.39091759,-3.1874354,-1.6766793)"><g id="g13247"><path id="rect10493" fill="#888a85" fill-opacity="1" stroke="none" d="m 42.941747,6.988926 0.849112,-0.9890436 c 0.274821,-0.3201091 0.733073,-0.3583997 1.040955,-0.074497 l 0.574456,0.5297142 c 0.307883,0.283903 0.345353,0.7793084 0.07053,1.0994194 L 44.627689,8.5435629 C 44.35287,8.863672 43.894616,8.9019634 43.586733,8.6180596 L 43.012283,8.0883454 C 42.7044,7.8044419 42.666928,7.3090352 42.941747,6.988926 Z"/><path id="rect10499" fill="url(#linearGradient2756)" fill-opacity="1" stroke="none" d="m 22.656347,32.726228 1.855628,-4.041818 2.247927,2.072849 -3.541573,2.487179 z"/><path id="rect10487" fill="url(#linearGradient2760)" fill-opacity="1" stroke="none" d="M 35.974026,20.975212 44.86614,10.346408 C 45.538156,9.5334716 45.306548,8.3187954 44.96278,8.0017987 L 43.382202,6.5443269 C 43.038431,6.2273305 42.040747,6.2549096 41.368731,7.0678475 L 32.446172,17.722123 Z"/><path id="path10502" fill="url(#linearGradient2762)" fill-opacity="1" stroke="none" d="m 23.829147,28.856182 3.122929,2.822848 0.71151,-0.650674 7.732875,-8.602391 0.577565,-1.450753 -3.527854,-3.253089 -1.283136,0.800136 -7.027305,9.253008 z"/><path id="path10496" fill="#000" fill-opacity="1" fill-rule="evenodd" stroke="none" stroke-width="1" d="m 22.411019,33.023 c -0.135422,0.163819 -0.119443,0.412852 0.03566,0.555879 0.155107,0.143026 0.390898,0.126152 0.526318,-0.03767 l 0.490655,-0.593546 -0.561983,-0.518211 z" color="#000" display="inline" enable-background="accumulate" overflow="visible" visibility="visible" style="marker:none"/><path id="path12486" fill="none" stroke="#000" stroke-dasharray="none" stroke-dashoffset="0" stroke-linecap="butt" stroke-linejoin="round" stroke-miterlimit="1" stroke-opacity="1" stroke-width="2.57" d="m 22.413641,33.618849 3.998183,-2.016327 1.251762,-0.574166 7.732875,-8.602391 0.577565,-1.450753 8.679786,-10.499942 c 0.65822,-0.796248 0.948993,-1.8034379 0.607014,-2.2384518 L 45.710874,7.692394 C 45.989264,7.3556264 45.899999,6.7835131 45.51345,6.427071 L 44.807879,5.7764531 C 44.421331,5.420011 43.872552,5.4037725 43.594163,5.7405409 L 43.144114,6.2849648 C 42.689864,5.985765 41.784177,6.4259323 41.125959,7.2221811 l -8.679787,10.4999419 -1.283136,0.800136 -7.027305,9.253008 -0.369798,1.387438 z" opacity=".7"/><path id="path12944" fill="none" fill-rule="evenodd" stroke="#fff" stroke-linecap="round" stroke-linejoin="miter" stroke-opacity="1" stroke-width="2.57" d="m 24.0625,32 1,-4 7,-9 1.875,-1.25 8.375,-10.375" opacity=".2"/><path id="path12946" fill="none" fill-rule="evenodd" stroke="#000" stroke-linecap="round" stroke-linejoin="miter" stroke-opacity="1" stroke-width="2.57" d="m 25.388325,31.292893 1.707107,-0.994796 7.441942,-8.558058 1.079505,-2.133884 8.640165,-10.1098347" opacity=".2"/></g></g></svg>