<svg xmlns="http://www.w3.org/2000/svg" xmlns:svg="http://www.w3.org/2000/svg" xmlns:xlink="http://www.w3.org/1999/xlink" id="svg3818" width="16" height="16" version="1.1"><defs id="defs3820"><linearGradient id="linearGradient3005" x1="12.938" x2="15.25" y1="8.438" y2="19.813" gradientTransform="matrix(0.11904764,0,0,0.19999985,4.6428569,2.4000005)" gradientUnits="userSpaceOnUse" xlink:href="#linearGradient6592-2-7"/><linearGradient id="linearGradient6592-2-7"><stop id="stop6594-0-2" offset="0" stop-color="#fff" stop-opacity=".275"/><stop id="stop6596-2-5" offset="1" stop-color="#fff" stop-opacity="0"/></linearGradient><radialGradient id="radialGradient3008" cx="19.063" cy="8.418" r="11" fx="19.063" fy="8.418" gradientTransform="matrix(0.32939335,0,0,0.36487803,-0.1983676,0.81012763)" gradientUnits="userSpaceOnUse" xlink:href="#linearGradient9936"/><linearGradient id="linearGradient9936"><stop id="stop9938" offset="0" stop-color="#575757" stop-opacity="1"/><stop id="stop9940" offset="1" stop-color="#333" stop-opacity="1"/></linearGradient><linearGradient id="linearGradient3143"><stop id="stop3145" offset="0" stop-color="#f2f2f2" stop-opacity="1"/><stop id="stop3147" offset="1" stop-color="#b3b3b3" stop-opacity="1"/></linearGradient><linearGradient id="linearGradient3206"><stop id="stop3208" offset="0" stop-color="gray" stop-opacity="1"/><stop id="stop3210" offset="1" stop-color="#999" stop-opacity="1"/></linearGradient><linearGradient id="linearGradient3814" x1="-74.836" x2="-74.342" y1="5.486" y2="107.02" gradientTransform="matrix(0.15331518,0,0,0.14230986,19.019685,-0.05868398)" gradientUnits="userSpaceOnUse" xlink:href="#linearGradient3143"/><linearGradient id="linearGradient3816" x1="-497" x2="-497" y1="361.815" y2="340.791" gradientTransform="matrix(0.66569945,0,0,0.68119,335.02416,-231.29577)" gradientUnits="userSpaceOnUse" xlink:href="#linearGradient3206"/></defs><metadata id="metadata3823"/><g id="layer1"><rect stroke-linecap="round" style="marker:none" id="rect2170" width="9.956" height="14.956" x="2.522" y=".522" fill="url(#linearGradient3814)" fill-opacity="1" fill-rule="evenodd" stroke="url(#linearGradient3816)" stroke-dasharray="none" stroke-dashoffset="0" stroke-linejoin="round" stroke-miterlimit="3.429" stroke-opacity="1" stroke-width="1.044" display="inline" enable-background="accumulate" overflow="visible" rx="1" ry="1" visibility="visible"/><path id="path5133" fill="#fff" fill-opacity="1" fill-rule="evenodd" stroke="none" stroke-width="1.019" d="M 7.4999938,9.0000001 C 6.1190459,9.0000001 5,10.118112 5,11.497901 5,12.87769 6.1190459,14 7.4999938,14 8.8809542,14 10,12.87769 10,11.497901 10,10.118112 8.8809542,9.0000064 7.4999938,9.0000001 z m 0,1.3537339 c 0.6318098,0 1.1451452,0.51289 1.1451452,1.144167 0,0.631277 -0.5133354,1.144168 -1.1451452,1.144168 -0.6318037,6e-6 -1.1451391,-0.512891 -1.1451391,-1.144168 6.3e-6,-0.631277 0.5133354,-1.144167 1.1451391,-1.144167 z" display="inline" enable-background="accumulate" overflow="visible" visibility="visible" style="marker:none"/><rect stroke-linecap="round" style="marker:none" id="rect4140-0" width="6.051" height="5.051" x="4.474" y="2.474" fill="url(#radialGradient3008)" fill-opacity="1" fill-rule="evenodd" stroke="#333" stroke-dasharray="none" stroke-dashoffset="0" stroke-linejoin="round" stroke-miterlimit="3.429" stroke-opacity="1" stroke-width=".949" display="inline" enable-background="accumulate" overflow="visible" rx="0" ry="0" visibility="visible"/><path id="rect6588" fill="url(#linearGradient3005)" fill-opacity="1" stroke="none" d="m 5,3.0000001 5,0 0,1.6000002 -5,1.3999998 0,-3 z"/></g></svg>