<svg xmlns="http://www.w3.org/2000/svg" xmlns:svg="http://www.w3.org/2000/svg" xmlns:xlink="http://www.w3.org/1999/xlink" id="svg7357" width="16" height="16" version="1.1"><defs id="defs7359"><linearGradient id="linearGradient839"><stop id="stop835" offset="0" stop-color="#ffa154" stop-opacity="1"/><stop id="stop837" offset="1" stop-color="#f37329" stop-opacity="1"/></linearGradient><linearGradient id="linearGradient4224" x1="24" x2="24" y1="7.182" y2="40.818" gradientTransform="matrix(0.2972973,0,0,0.2972973,0.86486973,0.86486734)" gradientUnits="userSpaceOnUse" xlink:href="#linearGradient3924-4-8"/><linearGradient id="linearGradient3924-4-8"><stop id="stop3926-0-4" offset="0" stop-color="#fff" stop-opacity="1"/><stop id="stop3928-6-8" offset="0" stop-color="#fff" stop-opacity=".235"/><stop id="stop3930-2-1" offset="1" stop-color="#fff" stop-opacity=".157"/><stop id="stop3932-9-0" offset="1" stop-color="#fff" stop-opacity=".392"/></linearGradient><linearGradient id="linearGradient841" x1="7.536" x2="7.536" y1="1.514" y2="14.43" gradientUnits="userSpaceOnUse" xlink:href="#linearGradient839"/></defs><metadata id="metadata7362"/><rect id="rect5505-21-2" width="13" height="13" x="1.5" y="1.5" fill="url(#linearGradient841)" fill-opacity="1" fill-rule="nonzero" stroke="none" stroke-width="1" color="#000" display="inline" enable-background="accumulate" opacity="1" overflow="visible" rx="1" ry="1" visibility="visible" style="marker:none"/><rect id="rect6741-0-3" width="11" height="11" x="2.5" y="2.5" fill="none" stroke="url(#linearGradient4224)" stroke-dasharray="none" stroke-dashoffset="0" stroke-linecap="round" stroke-linejoin="round" stroke-miterlimit="4" stroke-opacity="1" stroke-width="1" opacity=".35"/><rect id="rect5505-21-2-8" width="13" height="13" x="1.5" y="1.5" fill="none" stroke="#a62100" stroke-dasharray="none" stroke-dashoffset="0" stroke-linecap="round" stroke-linejoin="round" stroke-miterlimit="4" stroke-opacity="1" stroke-width="1" color="#000" display="inline" enable-background="accumulate" opacity=".5" overflow="visible" rx="1" ry="1" visibility="visible" style="marker:none"/><path id="path3883" fill="#a62100" fill-opacity="1" fill-rule="nonzero" stroke="#ba3d12" stroke-dasharray="none" stroke-linejoin="round" stroke-miterlimit="4" stroke-opacity="1" stroke-width="2" d="m 4,5 v 1.3333334 c 0,0.017382 0.302312,2.6e-6 0.666664,2.6e-6 3.313712,0 6,2.6862876 6,6 0,0.366768 2e-6,0.666664 2e-6,0.666664 H 12 V 12.333336 C 12,8.283248 8.716752,5 4.666664,5 Z m 0,2.666664 v 1.3333356 c 0,0 0.302312,0 0.666664,0 C 6.507616,8.9999996 8,10.492385 8,12.333336 8,12.700104 8,13 8,13 H 9.333336 V 12.333336 C 9.333336,9.7559996 7.244,7.666664 4.666664,7.666664 Z m 1.333336,2.666673 C 4.596952,10.333337 4,10.930289 4,11.666664 4,12.403048 4.596952,13 5.333336,13 c 0.736376,0 1.333328,-0.596952 1.333328,-1.333336 0,-0.736375 -0.596952,-1.333327 -1.333328,-1.333327 z" color="#000" display="inline" enable-background="new" opacity=".15" overflow="visible" visibility="visible" style="marker:none"/><path id="path3881" fill="#a62100" fill-opacity="1" fill-rule="nonzero" stroke="none" stroke-width="1.696" d="m 4,5 v 1.3333334 c 0,0.017382 0.302312,2.6e-6 0.666664,2.6e-6 3.313712,0 6,2.6862876 6,6 0,0.366768 2e-6,0.666664 2e-6,0.666664 H 12 V 12.333336 C 12,8.283248 8.716752,5 4.666664,5 Z m 0,2.666664 v 1.3333356 c 0,0 0.302312,0 0.666664,0 C 6.507616,8.9999996 8,10.492385 8,12.333336 8,12.700104 8,13 8,13 H 9.333336 V 12.333336 C 9.333336,9.7559996 7.244,7.666664 4.666664,7.666664 Z m 1.333336,2.666673 C 4.596952,10.333337 4,10.930289 4,11.666664 4,12.403048 4.596952,13 5.333336,13 c 0.736376,0 1.333328,-0.596952 1.333328,-1.333336 0,-0.736375 -0.596952,-1.333327 -1.333328,-1.333327 z" color="#000" display="inline" enable-background="new" opacity=".3" overflow="visible" visibility="visible" style="marker:none"/><path id="path3871" fill="#fff" fill-opacity="1" fill-rule="nonzero" stroke="none" stroke-width="1.696" d="m 4,4.0232232 v 1.3333334 c 0,0.017382 0.302312,2.6e-6 0.666664,2.6e-6 3.313712,0 6,2.686288 6,6.0000008 0,0.366768 2e-6,0.666664 2e-6,0.666664 H 12 V 11.35656 C 12,7.3064712 8.716752,4.0232232 4.666664,4.0232232 Z m 0,2.666664 v 1.333336 c 0,0 0.302312,0 0.666664,0 C 6.507616,8.0232232 8,9.5156068 8,11.35656 c 0,0.366768 0,0.666664 0,0.666664 H 9.333336 V 11.35656 C 9.333336,8.7792232 7.244,6.6898872 4.666664,6.6898872 Z M 5.333336,9.3565588 C 4.596952,9.3565588 4,9.9535122 4,10.689888 c 0,0.736384 0.596952,1.333336 1.333336,1.333336 0.736376,0 1.333328,-0.596952 1.333328,-1.333336 0,-0.7363758 -0.596952,-1.3333292 -1.333328,-1.3333292 z" color="#000" display="inline" enable-background="new" overflow="visible" visibility="visible" style="marker:none"/></svg>