<svg xmlns="http://www.w3.org/2000/svg" xmlns:svg="http://www.w3.org/2000/svg" xmlns:xlink="http://www.w3.org/1999/xlink" id="svg7357" width="16" height="16" version="1.1"><defs id="defs7359"><linearGradient id="linearGradient839"><stop id="stop835" offset="0" stop-color="#ffa154" stop-opacity="1"/><stop id="stop837" offset="1" stop-color="#f37329" stop-opacity="1"/></linearGradient><linearGradient id="linearGradient4224" x1="24" x2="24" y1="7.182" y2="40.818" gradientTransform="matrix(0.2972973,0,0,0.2972973,0.86486973,0.86486734)" gradientUnits="userSpaceOnUse" xlink:href="#linearGradient3924-4-8"/><linearGradient id="linearGradient3924-4-8"><stop id="stop3926-0-4" offset="0" stop-color="#fff" stop-opacity="1"/><stop id="stop3928-6-8" offset="0" stop-color="#fff" stop-opacity=".235"/><stop id="stop3930-2-1" offset="1" stop-color="#fff" stop-opacity=".157"/><stop id="stop3932-9-0" offset="1" stop-color="#fff" stop-opacity=".392"/></linearGradient><linearGradient id="linearGradient5882-7" x1="223.217" x2="223.217" y1="38.035" y2="47.987" gradientTransform="translate(-215,-35.000003)" gradientUnits="userSpaceOnUse" xlink:href="#linearGradient5803-0"/><linearGradient id="linearGradient5803-0"><stop id="stop5805-3" offset="0" stop-color="#fff5ef" stop-opacity="1"/><stop id="stop5807-4" offset="1" stop-color="#fef8dd" stop-opacity="1"/></linearGradient><linearGradient id="linearGradient841" x1="7.536" x2="7.536" y1="1.514" y2="14.43" gradientUnits="userSpaceOnUse" xlink:href="#linearGradient839"/></defs><metadata id="metadata7362"/><rect id="rect5505-21-2" width="13" height="13" x="1.5" y="1.5" fill="url(#linearGradient841)" fill-opacity="1" fill-rule="nonzero" stroke="none" stroke-width="1" color="#000" display="inline" enable-background="accumulate" opacity="1" overflow="visible" rx="1" ry="1" visibility="visible" style="marker:none"/><path id="path6041" fill="#a62100" fill-opacity="1" fill-rule="nonzero" stroke="none" d="m 8.4374997,3.031247 v 0.03125 c -0.52547,0.0098 -1.11382,0.389913 -1.28125,0.78125 -0.15297,0.357526 -0.12305,0.623827 -0.0937,0.875 0.004,0.03651 -0.0364,0.08992 -0.0312,0.125 v 5.03125 c -0.0597,0.01413 -0.12825,-0.01703 -0.1875,0 -0.01,0.0028 -0.0214,-0.0029 -0.0312,0 v 0.03125 c -1.24512,0.348605 -2.39917,1.416768 -2.28125,2.90625 a 0.96662978,0.96662978 0 0 0 0,0.0625 c 0.0842,0.71044 0.47924,1.261734 1,1.625 h 2.96875 c 0.75213,-0.500615 1.20102,-1.373254 1.3125,-2.3125 a 0.96662978,0.96662978 0 0 0 0.0625,0.03125 c 0.2439203,0.06806 0.5385203,0.03755 0.7500003,-0.0625 0.21148,-0.100046 0.33245,-0.226692 0.40625,-0.3125 0.14759,-0.171615 0.21774,-0.257538 0.125,-0.15625 a 0.96662978,0.96662978 0 0 0 0.0625,-0.09375 C 12.39933,10.01108 12.49895,7.725358 11.1877,6.124997 10.73142,5.567796 10.35445,5.279309 10.2502,5.062497 A 0.96662978,0.96662978 0 0 0 10.1877,4.968747 C 10.01889,4.699027 9.8986897,4.386627 9.8439497,4.062497 a 0.96662978,0.96662978 0 0 0 -0.125,-0.34375 c -0.31385,-0.512523 -0.8193,-0.676956 -1.21875,-0.6875 -0.0192,-5.08e-4 -0.0439,-1.48e-4 -0.0625,0 z" color="#000" display="inline" enable-background="accumulate" opacity=".15" overflow="visible" visibility="visible" style="marker:none"/><path id="path3926" fill="#a62100" fill-opacity="1" fill-rule="nonzero" stroke="none" d="m 8.4460597,3.989786 c -0.42554,-0.024 -0.49097,0.43676 -0.44606,0.74277 v 6.01404 c -0.26105,-0.0549 -0.60167,-0.0314 -0.89598,0.0554 -0.88431,0.23526 -1.67046,1.03472 -1.59755,1.95566 0.10219,0.86241 1.12393,1.42508 1.9663,1.16895 0.95426,-0.22591 1.50754,-1.05504 1.50754,-2.12519 v -4.76113 c 0.79277,0.41916 1.5066603,1.20244 1.4903503,2.12522 0.009,0.66704 -0.17842,1.33407 -0.44266,1.94127 -0.0356,0.0733 0.0419,0.14513 0.099,0.17295 0.15302,0.0427 0.23252,-0.15786 0.319,-0.25231 0.92096,-1.23478 0.98053,-3.04941 -0.0135,-4.26256 -0.35277,-0.4308 -0.8122003,-0.7977 -1.0527903,-1.29807 -0.24087,-0.38486 -0.39351,-0.82027 -0.46768,-1.25941 -0.0972,-0.15873 -0.28241,-0.21909 -0.46599,-0.21763 z" color="#000" display="inline" enable-background="accumulate" opacity=".3" overflow="visible" visibility="visible" style="marker:none"/><path id="path3926-4" fill="url(#linearGradient5882-7)" fill-opacity="1" stroke="none" d="m 8.4460597,2.990267 c -0.42554,-0.024 -0.49097,0.43676 -0.44606,0.74277 v 6.01404 c -0.26105,-0.0549 -0.60167,-0.0314 -0.89598,0.0554 -0.88431,0.23526 -1.67046,1.03472 -1.59755,1.95566 0.10219,0.86241 1.12393,1.42508 1.9663,1.16895 0.95426,-0.22591 1.50754,-1.05504 1.50754,-2.12519 v -4.76113 c 0.79277,0.41916 1.5066603,1.20244 1.4903503,2.12522 0.009,0.66704 -0.17842,1.33407 -0.44266,1.94127 -0.0356,0.0733 0.0419,0.14513 0.099,0.17295 0.15302,0.0427 0.23252,-0.15786 0.319,-0.25231 0.92096,-1.23478 0.98053,-3.04941 -0.0135,-4.26256 -0.35277,-0.4308 -0.8122003,-0.7977 -1.0527903,-1.29807 -0.24087,-0.38486 -0.39351,-0.82027 -0.46768,-1.25941 -0.0972,-0.15873 -0.28241,-0.21909 -0.46599,-0.21763 z" opacity="1"/><rect id="rect6741-0-3" width="11" height="11" x="2.5" y="2.5" fill="none" stroke="url(#linearGradient4224)" stroke-dasharray="none" stroke-dashoffset="0" stroke-linecap="round" stroke-linejoin="round" stroke-miterlimit="4" stroke-opacity="1" stroke-width="1" opacity=".35"/><rect id="rect5505-21-2-8" width="13" height="13" x="1.5" y="1.5" fill="none" stroke="#a62100" stroke-dasharray="none" stroke-dashoffset="0" stroke-linecap="round" stroke-linejoin="round" stroke-miterlimit="4" stroke-opacity="1" stroke-width="1" color="#000" display="inline" enable-background="accumulate" opacity=".5" overflow="visible" rx="1" ry="1" visibility="visible" style="marker:none"/></svg>