<svg xmlns="http://www.w3.org/2000/svg" xmlns:svg="http://www.w3.org/2000/svg" xmlns:xlink="http://www.w3.org/1999/xlink" id="svg8860" width="16" height="16" version="1.1"><defs id="defs8862"><linearGradient id="linearGradient10270-0" x1="11.35" x2="11.35" y1=".667" y2="8.172" gradientTransform="matrix(0.89189031,0,0,0.94046961,3.14398,5.346537)" gradientUnits="userSpaceOnUse" xlink:href="#linearGradient3454-2-5-0-3-8"/><linearGradient id="linearGradient3454-2-5-0-3-8"><stop id="stop3456-4-9-38-1-9" offset="0" stop-color="#fff" stop-opacity="1"/><stop id="stop3458-39-80-3-5-6" offset=".01" stop-color="#fff" stop-opacity=".235"/><stop id="stop3460-7-0-2-4-4" offset=".99" stop-color="#fff" stop-opacity=".157"/><stop id="stop3462-0-9-8-7-8" offset="1" stop-color="#fff" stop-opacity=".392"/></linearGradient><linearGradient id="linearGradient10268-4" x1="76.041" x2="76.041" y1="49.372" y2="35.431" gradientTransform="matrix(0.38156409,0,0,0.32896952,-18.24159,0.28216731)" gradientUnits="userSpaceOnUse" xlink:href="#linearGradient6129-963-697-142-998-580-273-44-2-2-2"/><linearGradient id="linearGradient6129-963-697-142-998-580-273-44-2-2-2"><stop id="stop2661-01-6-2-4" offset="0" stop-color="#0a0a0a" stop-opacity=".498"/><stop id="stop2663-64-5-5-3" offset="1" stop-color="#0a0a0a" stop-opacity="0"/></linearGradient><linearGradient id="linearGradient10262-3" x1="84.309" x2="84.309" y1="16.111" y2="42.924" gradientTransform="matrix(0.33333327,0,0,0.34148555,-17.08621,-0.60407268)" gradientUnits="userSpaceOnUse" xlink:href="#linearGradient4632-0-6-4-4"/><linearGradient id="linearGradient4632-0-6-4-4"><stop id="stop4634-4-4-7-5" offset="0" stop-color="#e9e9e9" stop-opacity="1"/><stop id="stop4636-3-1-5-4" offset="1" stop-color="#b4b4b4" stop-opacity="1"/></linearGradient><linearGradient id="linearGradient10473-4-0" x1="-51.786" x2="-51.786" y1="53.514" y2="2.061" gradientTransform="matrix(0.31070043,0,0,0.27489387,20.17717,-0.10316268)" gradientUnits="userSpaceOnUse" xlink:href="#linearGradient3104-8-8-97-4-6-11-5-5-4-4"/><linearGradient id="linearGradient3104-8-8-97-4-6-11-5-5-4-4"><stop id="stop3106-5-4-3-5-0-2-1-0-7-7" offset="0" stop-color="#000" stop-opacity=".322"/><stop id="stop3108-4-3-7-8-2-0-7-9-0-6" offset="1" stop-color="#000" stop-opacity=".278"/></linearGradient><linearGradient id="linearGradient4346"><stop id="stop4348" offset="0" stop-color="#fff" stop-opacity="1"/><stop id="stop4350" offset="1" stop-color="#d8d8d8" stop-opacity="1"/></linearGradient><linearGradient id="linearGradient8858" x1="62.989" x2="62.989" y1="11.645" y2="15.385" gradientTransform="matrix(0.33333327,0,0,0.32971018,-17.44063,-0.64784268)" gradientUnits="userSpaceOnUse" xlink:href="#linearGradient4346"/></defs><metadata id="metadata8865"/><g id="layer1"><path d="m 2.02332,1.976667 0,1 -1,0 0,4 14,0 0,-4 -7,0 0,-1 -6,0 z" style="marker:none" id="rect4170-0" fill="url(#linearGradient8858)" fill-opacity="1" fill-rule="nonzero" stroke="none" stroke-width="1" color="#000" display="inline" enable-background="accumulate" overflow="visible" visibility="visible"/><path id="rect4170" fill="none" stroke="url(#linearGradient10473-4-0)" stroke-dasharray="none" stroke-dashoffset="0" stroke-linecap="butt" stroke-linejoin="miter" stroke-miterlimit="4" stroke-opacity="1" stroke-width="1" d="m 15.52332,4 0,-1.273333 c 0,-0.1385 -0.1115,-0.25 -0.25,-0.25 l -6.75,0 0,-0.71875 c 0,-0.1385 -0.1115,-0.25 -0.25,-0.25 l -6.5,0 c -0.1385,0 -0.25,0.1115 -0.25,0.25 l 0,0.71875 -0.75,0 c -0.1385,0 -0.25,0.1115 -0.25,0.25 L 0.52332,4" color="#000" display="inline" enable-background="accumulate" opacity=".8" overflow="visible" visibility="visible" style="marker:none"/><path d="m 0.55988,4.453367 c 0.75732,0 14.39951,0.0316 14.98675,0.0316 0,0.6186 -0.0285,10.00962 -0.0624,10.00962 -5.26001,0.0178 -13.45265,-0.014 -14.98423,-0.014 0,-1.16748 0.0599,-7.62459 0.0599,-10.02721 z" style="marker:none" id="rect3086" fill="url(#linearGradient10262-3)" fill-opacity="1" fill-rule="nonzero" stroke="none" stroke-width="1" color="#000" display="inline" enable-background="accumulate" overflow="visible" visibility="visible"/><path id="rect3086-1" fill="url(#linearGradient10268-4)" fill-opacity="1" fill-rule="nonzero" stroke="none" stroke-width="1" d="m 0.08698,3.976647 c 0.8053,0 15.31189,0.0341 15.93634,0.0341 0,0.67729 -0.0303,10.95971 -0.0663,10.95971 -5.5933,0.02 -14.30504,-0.0148 -15.93366,-0.0148 0,-1.2783 0.0636,-8.34831 0.0636,-10.97898 z" color="#000" display="inline" enable-background="accumulate" opacity=".4" overflow="visible" visibility="visible" style="marker:none"/><path id="rect3086-9" fill="none" stroke="url(#linearGradient10270-0)" stroke-dasharray="none" stroke-dashoffset="0" stroke-linecap="round" stroke-linejoin="miter" stroke-miterlimit="4" stroke-opacity="1" stroke-width="1" d="m 1.57504,5.476667 c 0.65431,0 12.44092,0.0251 12.94828,0.0251 0,0.49259 -0.0246,7.97055 -0.0539,7.97055 -4.54455,0.0142 -11.62285,-0.0111 -12.9461,-0.0111 0,-0.92965 0.0517,-6.07138 0.0517,-7.98455 z" color="#000" display="inline" enable-background="accumulate" opacity=".5" overflow="visible" visibility="visible" style="marker:none"/><path id="rect3086-0" fill="none" stroke="#000" stroke-dasharray="none" stroke-dashoffset="0" stroke-linecap="round" stroke-linejoin="round" stroke-miterlimit="4" stroke-opacity="1" stroke-width="1" d="m 0.55988,4.453367 c 0.75732,0 14.39951,0.0316 14.98675,0.0316 0,0.6186 -0.0285,10.00962 -0.0624,10.00962 -5.26001,0.0178 -13.45265,-0.014 -14.98423,-0.014 0,-1.16748 0.0599,-7.62459 0.0599,-10.02721 z" color="#000" display="inline" enable-background="accumulate" opacity=".3" overflow="visible" visibility="visible" style="marker:none"/></g></svg>