<svg xmlns="http://www.w3.org/2000/svg" xmlns:svg="http://www.w3.org/2000/svg" xmlns:xlink="http://www.w3.org/1999/xlink" id="svg7357" width="16" height="16" version="1.1"><defs id="defs7359"><linearGradient id="linearGradient839"><stop id="stop835" offset="0" stop-color="#ffa154" stop-opacity="1"/><stop id="stop837" offset="1" stop-color="#f37329" stop-opacity="1"/></linearGradient><linearGradient id="linearGradient3293" x1="61.219" x2="61.219" y1="15.834" y2="19.272" gradientTransform="matrix(2.3268746,0,0,2.3268746,-135.94475,-32.842783)" gradientUnits="userSpaceOnUse" xlink:href="#linearGradient4806"/><linearGradient id="linearGradient4806"><stop id="stop4808" offset="0" stop-color="#fff" stop-opacity="1"/><stop id="stop4810" offset=".125" stop-color="#fff" stop-opacity=".235"/><stop id="stop4812" offset=".875" stop-color="#fff" stop-opacity=".157"/><stop id="stop4814" offset="1" stop-color="#fff" stop-opacity=".392"/></linearGradient><linearGradient id="linearGradient11527-6-5-3" x1="2065.696" x2="2065.696" y1="3220.528" y2="3244.851" gradientTransform="matrix(0.81996151,0,0,0.61300006,-1684.8015,-1973.6141)" gradientUnits="userSpaceOnUse" xlink:href="#linearGradient839"/></defs><metadata id="metadata7362"/><path id="path833" fill="url(#linearGradient11527-6-5-3)" fill-opacity="1" stroke="none" stroke-dasharray="none" stroke-dashoffset="0" stroke-linecap="butt" stroke-linejoin="miter" stroke-miterlimit="4" stroke-opacity="1" stroke-width="1" d="M 8,0.49996722 5.9913242,3.149515 2.6972424,2.6972425 3.1495149,5.9913243 0.49996721,8 3.1495149,10.008676 2.6972424,13.302758 5.9913242,12.850485 8,15.500033 10.008676,12.850485 13.302757,13.302758 12.850485,10.008676 15.500033,8 12.850485,5.9913243 13.302757,2.6972425 10.008676,3.149515 Z" opacity=".99" paint-order="normal" vector-effect="none" style="marker:none;font-variant-east_asian:normal"/><path id="path841" fill="none" fill-opacity="1" stroke="#a62100" stroke-dasharray="none" stroke-dashoffset="0" stroke-linecap="round" stroke-linejoin="round" stroke-miterlimit="4" stroke-opacity="1" stroke-width="1" d="M 8,0.49996722 5.9913242,3.149515 2.6972424,2.6972425 3.1495149,5.9913243 0.49996721,8 3.1495149,10.008676 2.6972424,13.302758 5.9913242,12.850485 8,15.500033 10.008676,12.850485 13.302757,13.302758 12.850485,10.008676 15.500033,8 12.850485,5.9913243 13.302757,2.6972425 10.008676,3.149515 Z" opacity=".5" paint-order="normal" vector-effect="none" style="marker:none"/><path id="path841-5" fill="none" fill-opacity="1" stroke="url(#linearGradient3293)" stroke-dasharray="none" stroke-dashoffset="0" stroke-linecap="round" stroke-linejoin="miter" stroke-miterlimit="4" stroke-opacity="1" stroke-width="1" d="M 8,2.15625 6.7890625,3.7539062 A 1.0004397,1.0004397 0 0 1 5.8554688,4.140625 L 3.8671875,3.8671875 4.140625,5.8554688 A 1.0004397,1.0004397 0 0 1 3.7539062,6.7890625 L 2.15625,8 3.7539062,9.2109375 A 1.0004397,1.0004397 0 0 1 4.140625,10.144531 l -0.2734375,1.988281 1.9882813,-0.273437 a 1.0004397,1.0004397 0 0 1 0.9335937,0.386719 L 8,13.84375 9.2109375,12.246094 a 1.0004397,1.0004397 0 0 1 0.9335935,-0.386719 l 1.988281,0.273437 -0.273437,-1.988281 A 1.0004397,1.0004397 0 0 1 12.246094,9.2109375 L 13.84375,8 12.246094,6.7890625 A 1.0004397,1.0004397 0 0 1 11.859375,5.8554688 L 12.132812,3.8671875 10.144531,4.140625 A 1.0004397,1.0004397 0 0 1 9.2109375,3.7539062 Z" opacity=".3" paint-order="normal" vector-effect="none" style="marker:none;font-variant-east_asian:normal"/><path id="path818-1-1-2" fill="#a62100" fill-opacity="1" stroke="none" stroke-dasharray="none" stroke-dashoffset="0" stroke-linecap="butt" stroke-linejoin="miter" stroke-miterlimit="4" stroke-opacity="1" stroke-width="1" d="m 8,14.000624 c -0.4016709,0 -0.8020585,-0.163613 -1.09375,-0.464844 a 1.0001,1.0001 0 0 1 -0.048828,-0.05469 l -2.5,-3 A 1.0001,1.0001 0 0 1 4.34375,10.465468 C 3.9441082,9.9654829 3.976531,9.3506208 4.1796875,8.9107802 4.382844,8.4709397 4.8302303,8.0470604 5.4707031,8.0279677 a 1.0001,1.0001 0 0 1 0.029297,0 H 6 V 5.5279676 a 1.0001,1.0001 0 0 1 0,-0.0098 c 0.00673,-0.702023 0.506517,-1.316273 1.1914062,-1.466797 a 1.0001,1.0001 0 0 1 0.1230469,-0.01953 c 0.092225,-0.0086 0.1851192,-0.0086 0.2773438,0 L 7.5,4.0279676 h 1 a 1.0001,1.0001 0 0 1 0.037109,0 C 9.3222229,4.0576356 9.9703399,4.7057316 10,5.4908586 a 1.0001,1.0001 0 0 1 0,0.03711 v 2.4999991 h 0.5 a 1.0001,1.0001 0 0 1 0.0293,0 c 0.640473,0.019093 1.087859,0.442972 1.291015,0.8828125 0.203157,0.4398406 0.23558,1.0547027 -0.164062,1.5546878 a 1.0001,1.0001 0 0 1 -0.01367,0.01563 l -2.4999999,3 A 1.0001,1.0001 0 0 1 9.09375,13.53578 C 8.8020601,13.837007 8.4016744,14.000624 8,14.000624 Z" opacity=".05" paint-order="normal" vector-effect="none" style="marker:none"/><path id="path818-1-1" fill="#a62100" fill-opacity="1" stroke="none" stroke-dasharray="none" stroke-dashoffset="0" stroke-linecap="butt" stroke-linejoin="miter" stroke-miterlimit="4" stroke-opacity="1" stroke-width="1" d="m 8,13 c 0.1362185,0 0.272437,-0.05424 0.375,-0.160156 l 2.5,-3.0000003 c 0.231,-0.289 -0.006,-0.8015 -0.375,-0.8125 H 9 V 5.527344 c -0.010267,-0.271776 -0.2282237,-0.48973 -0.5,-0.5 h -1 c -0.031265,-0.0029 -0.062485,-0.0029 -0.09375,0 C 7.1709498,5.079058 7.00231,5.286439 7,5.527344 V 9.0273437 H 5.5 c -0.369,0.011 -0.606,0.5235 -0.375,0.8125 l 2.5,3.0000003 C 7.727563,12.945761 7.8637815,13 8,13 Z" opacity=".15" paint-order="normal" vector-effect="none" style="marker:none"/><path id="path818-1" fill="#fafafa" fill-opacity="1" stroke="none" stroke-dasharray="none" stroke-dashoffset="0" stroke-linecap="butt" stroke-linejoin="miter" stroke-miterlimit="4" stroke-opacity="1" stroke-width="1" d="m 8,12.000222 c 0.1362185,0 0.272437,-0.05424 0.375,-0.160156 l 2.5,-3.0000003 c 0.231,-0.289 -0.006,-0.8015 -0.375,-0.8125 H 9 V 4.5275656 c -0.010267,-0.271776 -0.2282237,-0.48973 -0.5,-0.5 h -1 c -0.031265,-0.0029 -0.062485,-0.0029 -0.09375,0 -0.2353002,0.051714 -0.40394,0.259095 -0.40625,0.5 V 8.0275657 H 5.5 c -0.369,0.011 -0.606,0.5235 -0.375,0.8125 l 2.5,3.0000003 C 7.727563,11.945983 7.8637815,12.000222 8,12.000222 Z" opacity="1" paint-order="normal" vector-effect="none" style="marker:none"/></svg>