<svg xmlns="http://www.w3.org/2000/svg" xmlns:svg="http://www.w3.org/2000/svg" xmlns:xlink="http://www.w3.org/1999/xlink" id="svg5757" width="16" height="16" version="1.1"><defs id="defs5759"><linearGradient id="linearGradient5726-5-4-8-0" x1="71.204" x2="71.204" y1="6.238" y2="44.341" gradientTransform="matrix(0.35135133,0,0,0.35135133,-17.203623,-0.90927544)" gradientUnits="userSpaceOnUse" xlink:href="#linearGradient4011-7-0-0-5-3"/><linearGradient id="linearGradient4011-7-0-0-5-3"><stop id="stop4013-1-0-0-8-8" offset="0" stop-color="#fff" stop-opacity="1"/><stop id="stop4015-6-1-4-5-2" offset=".508" stop-color="#fff" stop-opacity=".235"/><stop id="stop4017-5-2-7-7-3" offset=".835" stop-color="#fff" stop-opacity=".157"/><stop id="stop4019-1-1-5-0-7" offset="1" stop-color="#fff" stop-opacity=".392"/></linearGradient><linearGradient id="linearGradient4044-1-0-1-6-9"><stop id="stop4046-5-15-6-5-7" offset="0" stop-color="#fff3cb" stop-opacity="1"/><stop id="stop4048-7-8-1-9-7" offset=".433" stop-color="#fdde76" stop-opacity="1"/><stop id="stop4050-0-5-9-1-8" offset=".692" stop-color="#f9c440" stop-opacity="1"/><stop id="stop4052-2-7-1-8-4" offset="1" stop-color="#e48b20" stop-opacity="1"/></linearGradient><radialGradient id="radialGradient5755" cx="282.788" cy="533.112" r="6.83" fx="277.665" fy="533.112" gradientTransform="matrix(0,0.91915984,-0.99587439,0,814.28776,272.60038)" gradientUnits="userSpaceOnUse" xlink:href="#linearGradient4044-1-0-1-6-9"/><linearGradient id="linearGradient4189"><stop id="stop4191" offset="0" stop-color="#fff" stop-opacity="1"/><stop id="stop4197" offset=".5" stop-color="#fff" stop-opacity="1"/><stop id="stop4193" offset="1" stop-color="#fff" stop-opacity="0"/></linearGradient><linearGradient id="linearGradient11238-5-4"><stop id="stop11240-9-6" offset="0" stop-color="#60170a" stop-opacity="1"/><stop id="stop11242-4-1" offset="1" stop-color="#29140a" stop-opacity="1"/></linearGradient><linearGradient id="linearGradient3042" x1="318.42" x2="318.42" y1="906.384" y2="912.357" gradientTransform="matrix(1.25,0,0,0.70833327,-387,-633.00649)" gradientUnits="userSpaceOnUse" xlink:href="#linearGradient11238-5-4"/><linearGradient id="linearGradient3044" x1="316" x2="319" y1="155.5" y2="155.5" gradientTransform="matrix(1.3333333,0,0,1,-413.33333,-147.28571)" gradientUnits="userSpaceOnUse" spreadMethod="reflect" xlink:href="#linearGradient4189"/><linearGradient id="linearGradient3830" x1="8.02" x2="13.243" y1="10.614" y2="10.614" gradientTransform="translate(0,-0.328571)" gradientUnits="userSpaceOnUse" spreadMethod="reflect" xlink:href="#linearGradient4189"/><linearGradient id="linearGradient4254-0"><stop id="stop4256-1" offset="0" stop-color="#e84b00" stop-opacity="1"/><stop id="stop4258-1" offset="1" stop-color="#e44a00" stop-opacity=".799"/></linearGradient><linearGradient id="linearGradient3067" x1="316" x2="316" y1="911.362" y2="909.362" gradientTransform="matrix(1.500025,0,0,1,-466.00787,-898.11218)" gradientUnits="userSpaceOnUse" xlink:href="#linearGradient4254-0"/></defs><metadata id="metadata5762"/><g id="layer1"><path id="path3009-1-5-0-2-1" fill="url(#radialGradient5755)" fill-opacity="1" fill-rule="nonzero" stroke="none" stroke-width=".911" d="m 289.75,533.11218 a 6.375,6.375 0 1 1 -12.75,0 6.375,6.375 0 1 1 12.75,0 z" color="#000" display="inline" enable-background="accumulate" overflow="visible" transform="matrix(1.1764706,0,0,1.1764706,-325.38236,-619.19081)" visibility="visible" style="marker:none"/><path id="path3964-7-71-6" fill="#43340d" fill-opacity="1" stroke="none" stroke-width="1" d="m 267.67143,512.297 a 0.8419643,1.7205358 0 1 1 -1.68393,0 0.8419643,1.7205358 0 1 1 1.68393,0 z" color="#000" display="inline" enable-background="accumulate" overflow="visible" transform="matrix(0.89077411,0,0,1.1624286,-231.68477,-589.24539)" visibility="visible" style="marker:none"/><path id="path3964-7-7-2-8" fill="#43340d" fill-opacity="1" stroke="none" stroke-width="1" d="m 267.67143,512.297 a 0.8419643,1.7205358 0 1 1 -1.68393,0 0.8419643,1.7205358 0 1 1 1.68393,0 z" color="#000" display="inline" enable-background="accumulate" overflow="visible" transform="matrix(-0.89077411,0,0,1.1624286,247.68478,-589.24539)" visibility="visible" style="marker:none"/><path id="path8655-6-3-8-4-4-9" fill="none" stroke="url(#linearGradient5726-5-4-8-0)" stroke-dasharray="none" stroke-dashoffset="0" stroke-linecap="round" stroke-linejoin="round" stroke-miterlimit="4" stroke-opacity="1" stroke-width="1" d="m 14.500047,7.9997246 c 0,3.5900004 -2.91036,6.5003004 -6.4999102,6.5003004 -3.58989,0 -6.50009,-2.9103 -6.50009,-6.5003004 0,-3.5898 2.9102,-6.4997 6.50009,-6.4997 3.5895502,0 6.4999102,2.9099 6.4999102,6.4997 l 0,0 z" color="#000" display="inline" enable-background="accumulate" overflow="visible" visibility="visible" style="marker:none"/><path id="path3009-5-8-4-1-5-2" fill="none" stroke="#a53400" stroke-dasharray="none" stroke-miterlimit="4" stroke-opacity="1" stroke-width=".85" d="m 289.75,533.11218 a 6.375,6.375 0 1 1 -12.75,0 6.375,6.375 0 1 1 12.75,0 z" color="#000" display="inline" enable-background="accumulate" opacity=".5" overflow="visible" transform="matrix(1.1764706,0,0,1.1764706,-325.38236,-619.19081)" visibility="visible" style="marker:none"/><path d="m 3.0311301,9 c -0.01,0.1018512 -0.0311,0.1997075 -0.0311,0.3035701 0,2.1795559 2.23858,3.9464299 5,3.9464299 C 10.76145,13.25 13.00003,11.483126 13.00003,9.3035701 13.00003,9.1997107 12.97863,9.1018512 12.96893,9 12.96893,9 11.576974,9.4834694 8,9.425 4.4230261,9.3665306 3.0314301,9 3.0314301,9 z" style="marker:none" id="path3348" fill="url(#linearGradient3042)" fill-opacity="1" fill-rule="nonzero" stroke="none" stroke-width="1.357" color="#000" display="inline" enable-background="accumulate" overflow="visible" visibility="visible"/><path id="path3814" fill="none" stroke="url(#linearGradient3830)" stroke-linecap="butt" stroke-linejoin="miter" stroke-opacity="1" stroke-width="1" d="m 3.2285714,10.071429 c 0,0 0.9095238,0.428571 4.7714286,0.428571 3.861905,0 4.742857,-0.428571 4.742857,-0.428571"/><path id="path3348-1" fill="url(#linearGradient3067)" fill-opacity="1" fill-rule="nonzero" stroke="none" stroke-width="1.357" d="m 5.0186601,11.25 c -0.006,0.0479 -0.0187,0.094 -0.0187,0.14286 0,1.02567 1.34317,1.85714 3.00005,1.85714 1.65688,0 3.0000499,-0.83147 3.0000499,-1.85714 0,-0.0489 -0.0135,-0.0949 -0.0188,-0.14286 l -5.9625999,0 z" color="#000" display="inline" enable-background="accumulate" opacity=".6" overflow="visible" visibility="visible" style="marker:none"/></g></svg>