<svg xmlns="http://www.w3.org/2000/svg" xmlns:svg="http://www.w3.org/2000/svg" xmlns:xlink="http://www.w3.org/1999/xlink" id="svg3999" width="16" height="16" version="1.1"><defs id="defs4001"><linearGradient id="linearGradient3892" x1="2.954" x2="4.701" y1="3.925" y2="5.672" gradientTransform="translate(7.0000038,4.8614497e-7)" gradientUnits="userSpaceOnUse" spreadMethod="reflect" xlink:href="#linearGradient3866-9"/><linearGradient id="linearGradient3866-9"><stop id="stop3868-5" offset="0" stop-color="#93a0ab" stop-opacity="1"/><stop id="stop3874-3" offset=".528" stop-color="#79848c" stop-opacity="1"/><stop id="stop3870-7" offset="1" stop-color="#000" stop-opacity="0"/></linearGradient><linearGradient id="linearGradient3872" x1="2.954" x2="4.701" y1="3.925" y2="5.672" gradientTransform="translate(3.8190246e-6,4.8614497e-7)" gradientUnits="userSpaceOnUse" spreadMethod="reflect" xlink:href="#linearGradient3866"/><linearGradient id="linearGradient3866"><stop id="stop3868" offset="0" stop-color="#93a0ab" stop-opacity="1"/><stop id="stop3874" offset=".528" stop-color="#79848c" stop-opacity="1"/><stop id="stop3870" offset="1" stop-color="#000" stop-opacity="0"/></linearGradient><linearGradient id="linearGradient5150" x1="71.204" x2="71.204" y1="6.238" y2="44.341" gradientTransform="matrix(0.35135133,0,0,0.35135133,-17.203657,-0.90927496)" gradientUnits="userSpaceOnUse" xlink:href="#linearGradient4011"/><linearGradient id="linearGradient4011"><stop id="stop4013" offset="0" stop-color="#fff" stop-opacity="1"/><stop id="stop4015" offset=".508" stop-color="#fff" stop-opacity=".235"/><stop id="stop4017" offset=".835" stop-color="#fff" stop-opacity=".157"/><stop id="stop4019" offset="1" stop-color="#fff" stop-opacity=".392"/></linearGradient><linearGradient id="linearGradient4044"><stop id="stop4046" offset="0" stop-color="#fff3cb" stop-opacity="1"/><stop id="stop4048" offset=".433" stop-color="#fdde76" stop-opacity="1"/><stop id="stop4050" offset=".692" stop-color="#f9c440" stop-opacity="1"/><stop id="stop4052" offset="1" stop-color="#e48b20" stop-opacity="1"/></linearGradient><radialGradient id="radialGradient3997" cx="282.788" cy="533.112" r="6.83" fx="277.665" fy="533.112" gradientTransform="matrix(0,0.91915984,-0.99587439,0,814.28776,272.60038)" gradientUnits="userSpaceOnUse" xlink:href="#linearGradient4044"/></defs><metadata id="metadata4004"/><g id="layer1"><path id="path3009" fill="url(#radialGradient3997)" fill-opacity="1" fill-rule="nonzero" stroke="none" stroke-width=".911" d="m 289.75,533.11218 a 6.375,6.375 0 1 1 -12.75,0 6.375,6.375 0 1 1 12.75,0 z" color="#000" display="inline" enable-background="accumulate" overflow="visible" transform="matrix(1.1764706,0,0,1.1764706,-325.38236,-619.19081)" visibility="visible" style="marker:none"/><path id="path3009-5" fill="none" stroke="#a53400" stroke-dasharray="none" stroke-miterlimit="4" stroke-opacity="1" stroke-width=".85" d="m 289.75,533.11218 a 6.375,6.375 0 1 1 -12.75,0 6.375,6.375 0 1 1 12.75,0 z" color="#000" display="inline" enable-background="accumulate" opacity=".5" overflow="visible" transform="matrix(1.1764706,0,0,1.1764706,-325.38236,-619.19081)" visibility="visible" style="marker:none"/><path id="path3972-9-3" fill="none" stroke="#fff" stroke-dasharray="none" stroke-dashoffset="0" stroke-linecap="butt" stroke-linejoin="miter" stroke-miterlimit="4" stroke-opacity="1" stroke-width="1" d="m 9.4498436,3.4264004 c 2.2578474,-0.2154 2.5151694,1.8236 2.5151694,1.8236" color="#000" display="inline" enable-background="accumulate" opacity=".3" overflow="visible" visibility="visible" style="marker:none"/><path id="path8655-6" fill="none" stroke="url(#linearGradient5150)" stroke-dasharray="none" stroke-dashoffset="0" stroke-linecap="round" stroke-linejoin="round" stroke-miterlimit="4" stroke-opacity="1" stroke-width="1" d="m 14.500013,7.9997249 c 0,3.5900011 -2.91036,6.5003011 -6.4999101,6.5003011 -3.58989,0 -6.50009,-2.9103 -6.50009,-6.5003011 0,-3.5898 2.9102,-6.4997 6.50009,-6.4997 3.5895501,0 6.4999101,2.9099 6.4999101,6.4997 l 0,0 z" color="#000" display="inline" enable-background="accumulate" overflow="visible" visibility="visible" style="marker:none"/><path id="path5609" fill="none" stroke="#fff" stroke-dasharray="none" stroke-dashoffset="0" stroke-linecap="butt" stroke-linejoin="miter" stroke-miterlimit="4" stroke-opacity="1" stroke-width="1" d="m 11.042683,10.000026 c 0,0 0.39756,2.634 -2.4161801,2.5" color="#000" display="inline" enable-background="accumulate" opacity=".3" overflow="visible" visibility="visible" style="marker:none"/><path id="path3972-9" fill="none" stroke="#fff" stroke-dasharray="none" stroke-dashoffset="0" stroke-linecap="butt" stroke-linejoin="miter" stroke-miterlimit="4" stroke-opacity="1" stroke-width="1" d="m 6.9652629,3.4264004 c -2.25792,-0.2154 -2.51525,1.8236 -2.51525,1.8236" color="#000" display="inline" enable-background="accumulate" opacity=".3" overflow="visible" visibility="visible" style="marker:none"/><path id="path3968" fill="none" stroke="#5e4506" stroke-dasharray="none" stroke-dashoffset="0" stroke-linecap="butt" stroke-linejoin="miter" stroke-miterlimit="4" stroke-opacity="1" stroke-width="1" d="m 11.042683,9.0000249 c 0,0 0.39756,2.6340011 -2.4161801,2.5000011" color="#000" display="inline" enable-background="accumulate" overflow="visible" visibility="visible" style="marker:none"/><path id="path3966" fill="none" stroke="#5e4506" stroke-dasharray="none" stroke-dashoffset="0" stroke-linecap="butt" stroke-linejoin="miter" stroke-miterlimit="4" stroke-opacity="1" stroke-width="1" d="M 6.9651823,2.4267 C 4.7073347,2.2113 4.4500129,4.2503 4.4500129,4.2503" color="#000" display="inline" enable-background="accumulate" overflow="visible" visibility="visible" style="marker:none"/><path id="path3966-0" fill="none" stroke="#5e4506" stroke-dasharray="none" stroke-dashoffset="0" stroke-linecap="butt" stroke-linejoin="miter" stroke-miterlimit="4" stroke-opacity="1" stroke-width="1" d="m 9.4498436,2.4267004 c 2.2578474,-0.2154 2.5151694,1.8236 2.5151694,1.8236" color="#000" display="inline" enable-background="accumulate" overflow="visible" visibility="visible" style="marker:none"/><path d="m 2.9687538,3.0000004 c -1.0636535,0.049152 -1.90625,0.9237735 -1.90625,2 l 0.9375,0 0,2 c 0,0.554 0.446,1 1,1 l 3,0 c 0.554,0 1,-0.446 1,-1 l 0,-1 2,0 0,1 c 0,0.554 0.446,1 1.0000002,1 l 3,0 c 0.554,0 1,-0.446 1,-1 l 0,-2 1,0 c 0,-1.108 -0.892,-2 -2,-2 l -1.9375,0 -1.0625,0 c -0.5540002,0 -1.0000002,0.446 -1.0000002,1 l -2,0 c 0,-0.554 -0.446,-1 -1,-1 l -3,0 c -0.010863,0 -0.020473,-3.404e-4 -0.03125,0 z" style="marker:none" id="rect3021" fill="#000" fill-opacity="1" fill-rule="nonzero" stroke="none" stroke-width="1.071" color="#000" display="inline" enable-background="accumulate" overflow="visible" visibility="visible"/><rect id="rect3096" width="3" height="3" x="3" y="4" fill="url(#linearGradient3872)" fill-opacity="1" fill-rule="nonzero" stroke="none" stroke-width="1.071" color="#000" display="inline" enable-background="accumulate" overflow="visible" rx=".5" ry=".5" visibility="visible" style="marker:none"/><rect id="rect3096-1" width="3" height="3" x="10" y="4" fill="url(#linearGradient3892)" fill-opacity="1" fill-rule="nonzero" stroke="none" stroke-width="1.071" color="#000" display="inline" enable-background="accumulate" overflow="visible" rx=".5" ry=".5" visibility="visible" style="marker:none"/></g></svg>