<svg xmlns="http://www.w3.org/2000/svg" xmlns:svg="http://www.w3.org/2000/svg" xmlns:xlink="http://www.w3.org/1999/xlink" id="svg4061" width="16" height="16" version="1.1"><defs id="defs4063"><radialGradient id="radialGradient3963" cx="4" cy="11" r="1" fx="4" fy="11" gradientUnits="userSpaceOnUse" xlink:href="#linearGradient3938-3"/><linearGradient id="linearGradient3938-3"><stop id="stop3942-9" offset="0" stop-color="#cde34f" stop-opacity="1"/><stop id="stop3944-9" offset="1" stop-color="#93b723" stop-opacity="0"/></linearGradient><radialGradient id="radialGradient3936" cx="4" cy="11" r="1" fx="4" fy="11" gradientUnits="userSpaceOnUse" xlink:href="#linearGradient3938"/><linearGradient id="linearGradient3938"><stop id="stop3942" offset="0" stop-color="#cde34f" stop-opacity="1"/><stop id="stop3944" offset="1" stop-color="#93b723" stop-opacity="0"/></linearGradient><linearGradient id="linearGradient5726-4" x1="71.204" x2="71.204" y1="6.238" y2="44.341" gradientTransform="matrix(0.35135133,0,0,0.35135133,-17.203659,-0.90927456)" gradientUnits="userSpaceOnUse" xlink:href="#linearGradient4011-7-06"/><linearGradient id="linearGradient4011-7-06"><stop id="stop4013-1-21" offset="0" stop-color="#fff" stop-opacity="1"/><stop id="stop4015-6-9" offset=".508" stop-color="#fff" stop-opacity=".235"/><stop id="stop4017-5-32" offset=".835" stop-color="#fff" stop-opacity=".157"/><stop id="stop4019-1-0" offset="1" stop-color="#fff" stop-opacity=".392"/></linearGradient><linearGradient id="linearGradient3242-7-3-8-9-9-3"><stop id="stop3244-5-8-5-3-6-0" offset="0" stop-color="#eef87e" stop-opacity="1"/><stop id="stop3246-9-5-1-2-4-4" offset=".262" stop-color="#cde34f" stop-opacity="1"/><stop id="stop3248-7-2-0-84-3-1" offset=".661" stop-color="#93b723" stop-opacity="1"/><stop id="stop3250-8-2-8-3-37-9" offset="1" stop-color="#5a7e0d" stop-opacity="1"/></linearGradient><radialGradient id="radialGradient4059" cx="282.788" cy="533.112" r="6.83" fx="277.665" fy="533.112" gradientTransform="matrix(0,1.5654506,-1.6961056,0,1187.5896,89.837429)" gradientUnits="userSpaceOnUse" xlink:href="#linearGradient3242-7-3-8-9-9-3"/></defs><metadata id="metadata4066"/><g id="layer1"><path id="path3009-1-3" fill="url(#radialGradient4059)" fill-opacity="1" fill-rule="nonzero" stroke="none" stroke-width=".911" d="m 289.75,533.11218 a 6.375,6.375 0 1 1 -12.75,0 6.375,6.375 0 1 1 12.75,0 z" color="#000" display="inline" enable-background="accumulate" overflow="visible" transform="matrix(1.1764706,0,0,1.1764706,-325.38236,-619.19081)" visibility="visible" style="marker:none"/><path id="path3009-5-8-2" fill="none" stroke="#000" stroke-dasharray="none" stroke-miterlimit="4" stroke-opacity="1" stroke-width=".85" d="m 289.75,533.11218 a 6.375,6.375 0 1 1 -12.75,0 6.375,6.375 0 1 1 12.75,0 z" color="#000" display="inline" enable-background="accumulate" opacity=".4" overflow="visible" transform="matrix(1.1764706,0,0,1.1764706,-325.38236,-619.19081)" visibility="visible" style="marker:none"/><path id="path8655-6-3-29" fill="none" stroke="url(#linearGradient5726-4)" stroke-dasharray="none" stroke-dashoffset="0" stroke-linecap="round" stroke-linejoin="round" stroke-miterlimit="4" stroke-opacity="1" stroke-width="1" d="m 14.500011,7.9997254 c 0,3.5900006 -2.91036,6.5003016 -6.4999102,6.5003016 -3.58989,0 -6.50009,-2.910301 -6.50009,-6.5003016 0,-3.5898 2.9102,-6.4997 6.50009,-6.4997 3.5895502,0 6.4999102,2.9099 6.4999102,6.4997 l 0,0 z" color="#000" display="inline" enable-background="accumulate" overflow="visible" visibility="visible" style="marker:none"/><path id="path3397" fill="none" stroke="#fff" stroke-linecap="butt" stroke-linejoin="miter" stroke-opacity="1" stroke-width="1" d="m 4.25,5.0000004 2.5,1.5 -2.5,1.5" opacity=".3"/><path id="path3397-7" fill="none" stroke="#fff" stroke-linecap="butt" stroke-linejoin="miter" stroke-opacity="1" stroke-width="1" d="m 11.75,5.0000004 -2.5,1.5 2.5,1.5" opacity=".3"/><path id="path3397-0" fill="none" stroke="#4e5616" stroke-linecap="butt" stroke-linejoin="miter" stroke-opacity="1" stroke-width="1" d="m 4.25,4.0000004 2.5,1.5 -2.5,1.5"/><path id="path3397-7-8" fill="none" stroke="#4e5616" stroke-linecap="butt" stroke-linejoin="miter" stroke-opacity="1" stroke-width="1" d="m 11.75,4.0000004 -2.5,1.5 2.5,1.5"/><path id="path3928" fill="url(#radialGradient3936)" fill-opacity="1" fill-rule="nonzero" stroke="none" stroke-width="1.071" d="m 5,11 a 1,1 0 1 1 -2,0 1,1 0 1 1 2,0 z" color="#000" display="inline" enable-background="accumulate" overflow="visible" transform="matrix(3,0,0,3,-7.9999962,-22.999999)" visibility="visible" style="marker:none"/><path id="path3928-0" fill="url(#radialGradient3963)" fill-opacity="1" fill-rule="nonzero" stroke="none" stroke-width="1.071" d="m 5,11 a 1,1 0 1 1 -2,0 1,1 0 1 1 2,0 z" color="#000" display="inline" enable-background="accumulate" overflow="visible" transform="matrix(3,0,0,3,3.8190246e-6,-22.999999)" visibility="visible" style="marker:none"/><path id="path3926" fill="none" stroke="#fff" stroke-dasharray="none" stroke-dashoffset="0" stroke-linecap="butt" stroke-linejoin="miter" stroke-miterlimit="4" stroke-opacity="1" stroke-width="1" d="m 6.6081668,11.499595 2.7836734,0 M 10.500004,9.5000005 c 0,0 -2.2499998,1.6000005 0,4.0000005 m -5,-4.0000005 c 0,0 2.2500001,1.6000005 0,4.0000005" color="#000" display="inline" enable-background="accumulate" opacity=".3" overflow="visible" visibility="visible" style="marker:none"/><path id="path3926-9" fill="none" stroke="#5f690d" stroke-linecap="butt" stroke-linejoin="miter" stroke-opacity="1" stroke-width="1" d="m 6.6081668,10.499595 2.7836734,0 M 10.500004,8.5000005 c 0,0 -2.2499998,1.6000005 0,4.0000005 m -5,-4.0000005 c 0,0 2.2500001,1.6000005 0,4.0000005"/></g></svg>