<svg xmlns="http://www.w3.org/2000/svg" xmlns:svg="http://www.w3.org/2000/svg" xmlns:xlink="http://www.w3.org/1999/xlink" id="svg5864" width="16" height="16" version="1.1"><defs id="defs5866"><linearGradient id="linearGradient10680-9-4" x1="71.204" x2="71.204" y1="6.238" y2="44.341" gradientTransform="matrix(0.35135133,0,0,0.35135133,-17.203639,-0.90928244)" gradientUnits="userSpaceOnUse" xlink:href="#linearGradient4011-7-3-1-0"/><linearGradient id="linearGradient4011-7-3-1-0"><stop id="stop4013-1-4-2-8" offset="0" stop-color="#fff" stop-opacity="1"/><stop id="stop4015-6-5-3-8" offset=".508" stop-color="#fff" stop-opacity=".235"/><stop id="stop4017-5-3-6-9" offset=".835" stop-color="#fff" stop-opacity=".157"/><stop id="stop4019-1-06-7-6" offset="1" stop-color="#fff" stop-opacity=".392"/></linearGradient><linearGradient id="linearGradient4044-1-8-1-1"><stop id="stop4046-5-1-1-1" offset="0" stop-color="#fff3cb" stop-opacity="1"/><stop id="stop4048-7-6-8-5" offset=".433" stop-color="#fdde76" stop-opacity="1"/><stop id="stop4050-0-8-2-1" offset=".692" stop-color="#f9c440" stop-opacity="1"/><stop id="stop4052-2-0-3-0" offset="1" stop-color="#e48b20" stop-opacity="1"/></linearGradient><radialGradient id="radialGradient5862" cx="282.788" cy="533.112" r="6.83" fx="277.665" fy="533.112" gradientTransform="matrix(0,0.91915984,-0.99587439,0,814.28776,272.60038)" gradientUnits="userSpaceOnUse" xlink:href="#linearGradient4044-1-8-1-1"/></defs><metadata id="metadata5869"/><g id="layer1"><path id="path3009-1-6-3-1" fill="url(#radialGradient5862)" fill-opacity="1" fill-rule="nonzero" stroke="none" stroke-width=".911" d="m 289.75,533.11218 a 6.375,6.375 0 1 1 -12.75,0 6.375,6.375 0 1 1 12.75,0 z" color="#000" display="inline" enable-background="accumulate" overflow="visible" transform="matrix(1.1764706,0,0,1.1764706,-325.38236,-619.19081)" visibility="visible" style="marker:none"/><path id="path10931" fill="none" stroke="#fff" stroke-dasharray="none" stroke-dashoffset="0" stroke-linecap="butt" stroke-linejoin="miter" stroke-miterlimit="4" stroke-opacity="1" stroke-width="1" d="m 3.6903698,5.0821876 c 0,0 2.05895,0.10359 3.11928,-1.66438" color="#000" display="inline" enable-background="accumulate" opacity=".3" overflow="visible" visibility="visible" style="marker:none"/><path id="path10931-5" fill="none" stroke="#fff" stroke-dasharray="none" stroke-dashoffset="0" stroke-linecap="butt" stroke-linejoin="miter" stroke-miterlimit="4" stroke-opacity="1" stroke-width="1" d="m 12.344241,5.0138276 c 0,0 -2.05253,0.19271 -3.1884612,-1.52766" color="#000" display="inline" enable-background="accumulate" opacity=".3" overflow="visible" visibility="visible" style="marker:none"/><path id="path10931-4" fill="none" stroke="#5e4506" stroke-dasharray="none" stroke-dashoffset="0" stroke-linecap="butt" stroke-linejoin="miter" stroke-miterlimit="4" stroke-opacity="1" stroke-width="1" d="m 3.6843698,4.0708376 c 0,0 2.05814,0.11854 3.13128,-1.64168" color="#000" display="inline" enable-background="accumulate" overflow="visible" visibility="visible" style="marker:none"/><path id="path10931-5-0" fill="none" stroke="#5e4506" stroke-dasharray="none" stroke-dashoffset="0" stroke-linecap="butt" stroke-linejoin="miter" stroke-miterlimit="4" stroke-opacity="1" stroke-width="1" d="m 12.305131,4.0905976 c 0,0 -2.05948,0.0925 -3.1102412,-1.6812" color="#000" display="inline" enable-background="accumulate" overflow="visible" visibility="visible" style="marker:none"/><path id="path3009-5-8-6-1-8" fill="none" stroke="#a53400" stroke-dasharray="none" stroke-miterlimit="4" stroke-opacity="1" stroke-width=".85" d="m 289.75,533.11218 a 6.375,6.375 0 1 1 -12.75,0 6.375,6.375 0 1 1 12.75,0 z" color="#000" display="inline" enable-background="accumulate" opacity=".5" overflow="visible" transform="matrix(1.1764706,0,0,1.1764706,-325.38236,-619.19081)" visibility="visible" style="marker:none"/><path id="path8655-6-3-2-5-7" fill="none" stroke="url(#linearGradient10680-9-4)" stroke-dasharray="none" stroke-dashoffset="0" stroke-linecap="round" stroke-linejoin="round" stroke-miterlimit="4" stroke-opacity="1" stroke-width="1" d="m 14.500031,7.9997176 c 0,3.5900004 -2.91036,6.5003004 -6.4999112,6.5003004 -3.58989,0 -6.50009,-2.9103 -6.50009,-6.5003004 0,-3.5898 2.9102,-6.4997 6.50009,-6.4997 3.5895512,0 6.4999112,2.9099 6.4999112,6.4997 l 0,0 z" color="#000" display="inline" enable-background="accumulate" overflow="visible" visibility="visible" style="marker:none"/><path id="path3964-7-71-2" fill="#43340d" fill-opacity="1" stroke="none" stroke-width="1" d="m 267.67143,512.297 a 0.8419643,1.7205358 0 1 1 -1.68393,0 0.8419643,1.7205358 0 1 1 1.68393,0 z" color="#000" display="inline" enable-background="accumulate" overflow="visible" transform="matrix(0.89077411,0,0,1.1624286,-231.68477,-589.24539)" visibility="visible" style="marker:none"/><path id="path3964-7-7-2-5" fill="#43340d" fill-opacity="1" stroke="none" stroke-width="1" d="m 267.67143,512.297 a 0.8419643,1.7205358 0 1 1 -1.68393,0 0.8419643,1.7205358 0 1 1 1.68393,0 z" color="#000" display="inline" enable-background="accumulate" overflow="visible" transform="matrix(-0.89077411,0,0,1.1624286,247.68478,-589.24539)" visibility="visible" style="marker:none"/><path id="path3417-3-8" fill="none" stroke="#fff" stroke-linecap="butt" stroke-linejoin="miter" stroke-opacity="1" stroke-width="1" d="m 5.0000198,12.999998 c 0,0 0.6377,-1.44392 3,-1.5 2.3623012,-0.0561 3.0000012,1.5 3.0000012,1.5" opacity=".5"/><path id="path3417-7-7-9" fill="none" stroke="#5e4506" stroke-linecap="butt" stroke-linejoin="miter" stroke-opacity="1" stroke-width="1" d="m 5.0000198,11.999998 c 0,0 0.5952,-1.44291 3,-1.5 2.4048012,-0.0571 3.0000012,1.5 3.0000012,1.5"/></g></svg>