<svg xmlns="http://www.w3.org/2000/svg" xmlns:svg="http://www.w3.org/2000/svg" xmlns:xlink="http://www.w3.org/1999/xlink" id="svg4021" width="16" height="16" version="1.1"><defs id="defs4023"><linearGradient id="linearGradient4260" x1="316" x2="316" y1="911.362" y2="909.362" gradientTransform="matrix(1.25,0,0,1,-386.99999,-899.36218)" gradientUnits="userSpaceOnUse" xlink:href="#linearGradient4254"/><linearGradient id="linearGradient4254"><stop id="stop4256" offset="0" stop-color="#e84b00" stop-opacity="1"/><stop id="stop4258" offset="1" stop-color="#932601" stop-opacity="1"/></linearGradient><linearGradient id="linearGradient3143" x1="112.739" x2="112.739" y1="222.618" y2="218.896" gradientTransform="matrix(3.2242646,0,0,1.6121323,-353.49999,-345.88969)" gradientUnits="userSpaceOnUse" xlink:href="#linearGradient11238-5"/><linearGradient id="linearGradient11238-5"><stop id="stop11240-3" offset="0" stop-color="#60170a" stop-opacity="1"/><stop id="stop11242-4" offset="1" stop-color="#29140a" stop-opacity="1"/></linearGradient><linearGradient id="linearGradient3108" x1="112.274" x2="112.274" y1="218.332" y2="221.776" gradientTransform="matrix(3.6848739,0,0,1.880821,-405.14285,-405.70463)" gradientUnits="userSpaceOnUse" xlink:href="#linearGradient3110"/><linearGradient id="linearGradient3110"><stop id="stop3112" offset="0" stop-color="#421602" stop-opacity="1"/><stop id="stop3114" offset="1" stop-color="#a14908" stop-opacity="1"/></linearGradient><linearGradient id="linearGradient5726-0" x1="71.204" x2="71.204" y1="6.238" y2="44.341" gradientTransform="matrix(0.35135133,0,0,0.35135133,-17.20365,-0.90927406)" gradientUnits="userSpaceOnUse" xlink:href="#linearGradient4011-7-5"/><linearGradient id="linearGradient4011-7-5"><stop id="stop4013-1-2" offset="0" stop-color="#fff" stop-opacity="1"/><stop id="stop4015-6-2" offset=".508" stop-color="#fff" stop-opacity=".235"/><stop id="stop4017-5-5" offset=".835" stop-color="#fff" stop-opacity=".157"/><stop id="stop4019-1-13" offset="1" stop-color="#fff" stop-opacity=".392"/></linearGradient><linearGradient id="linearGradient4044-1-5"><stop id="stop4046-5-11" offset="0" stop-color="#fff3cb" stop-opacity="1"/><stop id="stop4048-7-0" offset=".433" stop-color="#fdde76" stop-opacity="1"/><stop id="stop4050-0-0" offset=".692" stop-color="#f9c440" stop-opacity="1"/><stop id="stop4052-2-9" offset="1" stop-color="#e48b20" stop-opacity="1"/></linearGradient><radialGradient id="radialGradient4019" cx="282.788" cy="533.112" r="6.83" fx="277.665" fy="533.112" gradientTransform="matrix(0,0.91915984,-0.99587439,0,814.28776,272.60038)" gradientUnits="userSpaceOnUse" xlink:href="#linearGradient4044-1-5"/></defs><metadata id="metadata4026"/><g id="layer1"><path id="path3009-1-2" fill="url(#radialGradient4019)" fill-opacity="1" fill-rule="nonzero" stroke="none" stroke-width=".911" d="m 289.75,533.11218 a 6.375,6.375 0 1 1 -12.75,0 6.375,6.375 0 1 1 12.75,0 z" color="#000" display="inline" enable-background="accumulate" overflow="visible" transform="matrix(1.1764706,0,0,1.1764706,-325.38236,-619.19081)" visibility="visible" style="marker:none"/><path id="path8655-6-3-23" fill="none" stroke="url(#linearGradient5726-0)" stroke-dasharray="none" stroke-dashoffset="0" stroke-linecap="round" stroke-linejoin="round" stroke-miterlimit="4" stroke-opacity="1" stroke-width="1" d="m 14.50002,7.9997259 c 0,3.5900011 -2.91036,6.5003011 -6.4999107,6.5003011 -3.58989,0 -6.50009,-2.9103 -6.50009,-6.5003011 0,-3.5898 2.9102,-6.4997 6.50009,-6.4997 3.5895507,0 6.4999107,2.9099 6.4999107,6.4997 l 0,0 z" color="#000" display="inline" enable-background="accumulate" overflow="visible" visibility="visible" style="marker:none"/><path id="path11236-6" fill="#fff" fill-opacity="1" fill-rule="nonzero" stroke="none" stroke-width="1" d="m 113.2041,220.75713 a 1.0855188,1.8608894 0 1 1 -2.17104,0 1.0855188,1.8608894 0 1 1 2.17104,0 z" color="#000" display="inline" enable-background="accumulate" opacity=".5" overflow="visible" transform="matrix(3.6848739,0,0,1.880821,-405.14285,-404.70465)" visibility="visible" style="marker:none"/><path d="m 8.0000038,5.0000004 c -2.2124317,0 -4,2.0147186 -4,4.5 0,1.9329976 1.790861,3.5000006 4,3.5000006 2.2091392,0 4.0000002,-1.567003 4.0000002,-3.5000006 0,-2.4852814 -1.787568,-4.5 -4.0000002,-4.5 z" style="marker:none" id="path11236" fill="url(#linearGradient3108)" fill-opacity="1" fill-rule="nonzero" stroke="none" stroke-width="1" color="#000" display="inline" enable-background="accumulate" overflow="visible" visibility="visible"/><path id="path3009-5-8-3" fill="none" stroke="#a53400" stroke-dasharray="none" stroke-miterlimit="4" stroke-opacity="1" stroke-width=".85" d="m 289.75,533.11218 a 6.375,6.375 0 1 1 -12.75,0 6.375,6.375 0 1 1 12.75,0 z" color="#000" display="inline" enable-background="accumulate" opacity=".5" overflow="visible" transform="matrix(1.1764706,0,0,1.1764706,-325.38236,-619.19081)" visibility="visible" style="marker:none"/><path id="path3397" fill="none" stroke="#fff" stroke-linecap="butt" stroke-linejoin="miter" stroke-opacity="1" stroke-width="1" d="m 3.9812125,3.4509909 2.5187913,1.0490095 -2.5,1.5" opacity=".3"/><path id="path3397-0" fill="none" stroke="#5e4506" stroke-linecap="butt" stroke-linejoin="miter" stroke-opacity="1" stroke-width="1" d="m 4.2442903,2.5825298 2.2557135,0.9174706 -2.5,1.5"/><path id="path3397-2" fill="none" stroke="#fff" stroke-linecap="butt" stroke-linejoin="miter" stroke-opacity="1" stroke-width="1" d="M 12.018795,3.4509905 9.5000038,4.5 12.000004,6" opacity=".3"/><path id="path3397-0-4" fill="none" stroke="#5e4506" stroke-linecap="butt" stroke-linejoin="miter" stroke-opacity="1" stroke-width="1" d="M 11.755717,2.5825294 9.5000038,3.5 12.000004,5"/><path d="m 8.0000038,7.0000004 c 0.5522847,0 1,0.4477153 1,1 0,0.5522847 -0.4477153,1 -1,1 -0.5522847,0 -1,-0.4477153 -1,-1 0,-0.5522847 0.4477153,-1 1,-1 z m 0,0 c -1.9329966,0 -3.5,1.3431458 -3.5,3.0000006 0,1.656854 1.5670034,3 3.5,3 1.9329966,0 3.5000002,-1.343146 3.5000002,-3 0,-1.6568548 -1.5670036,-3.0000006 -3.5000002,-3.0000006 z" style="marker:none" id="path11236-7" fill="url(#linearGradient3143)" fill-opacity="1" fill-rule="nonzero" stroke="none" stroke-width="1" color="#000" display="inline" enable-background="accumulate" overflow="visible" visibility="visible"/><rect id="rect4199" width="4" height="1" x="6" y="9" fill="#000" fill-opacity="1" fill-rule="nonzero" stroke="none" stroke-width="1.357" color="#000" display="inline" enable-background="accumulate" overflow="visible" visibility="visible" style="marker:none"/><path d="m 5.5155868,10.000001 c -0.005,0.0479 -0.015583,0.094 -0.015583,0.14286 0,1.02567 1.1192897,1.85714 2.5,1.85714 1.3807104,0 2.5000002,-0.83147 2.5000002,-1.85714 0,-0.0489 -0.01125,-0.0949 -0.01567,-0.14286 l -4.9687507,0 z" style="marker:none" id="path3348-1" fill="url(#linearGradient4260)" fill-opacity="1" fill-rule="nonzero" stroke="none" stroke-width="1.357" color="#000" display="inline" enable-background="accumulate" overflow="visible" visibility="visible"/><path d="m 16.000004,4.8614497e-7 0,1.99999991385503 -1,1 1,0 0,3 -5,0 0,-2 1,-1 -1,0 0,-2.99999991385503 z" style="marker:none" id="rect3156" fill="#3465a4" fill-opacity="1" fill-rule="nonzero" stroke="none" stroke-width="1.071" color="#000" display="inline" enable-background="accumulate" overflow="visible" visibility="visible"/><path d="m 15.000004,1.0000004 0,1 -2,2 2,0 0,1 -3,0 0,-1 2,-2 -2,0 0,-1 z" style="marker:none" id="rect3156-0" fill="#d1e0ef" fill-opacity="1" fill-rule="nonzero" stroke="none" stroke-width="1.071" color="#000" display="inline" enable-background="accumulate" overflow="visible" visibility="visible"/></g></svg>