<svg xmlns="http://www.w3.org/2000/svg" xmlns:svg="http://www.w3.org/2000/svg" xmlns:xlink="http://www.w3.org/1999/xlink" id="svg4876" width="16" height="16" version="1.1"><defs id="defs4878"><linearGradient id="linearGradient5726-5-4-8-0-8" x1="71.204" x2="71.204" y1="6.238" y2="44.341" gradientTransform="matrix(0.35135133,0,0,0.35135133,-17.203613,-0.90928344)" gradientUnits="userSpaceOnUse" xlink:href="#linearGradient4011-7-0-0-5-3-5"/><linearGradient id="linearGradient4011-7-0-0-5-3-5"><stop id="stop4013-1-0-0-8-8-4" offset="0" stop-color="#fff" stop-opacity="1"/><stop id="stop4015-6-1-4-5-2-5" offset=".508" stop-color="#fff" stop-opacity=".235"/><stop id="stop4017-5-2-7-7-3-7" offset=".835" stop-color="#fff" stop-opacity=".157"/><stop id="stop4019-1-1-5-0-7-6" offset="1" stop-color="#fff" stop-opacity=".392"/></linearGradient><linearGradient id="linearGradient4044-1-0-1-6-9-6"><stop id="stop4046-5-15-6-5-7-4" offset="0" stop-color="#fff3cb" stop-opacity="1"/><stop id="stop4048-7-8-1-9-7-2" offset=".433" stop-color="#fdde76" stop-opacity="1"/><stop id="stop4050-0-5-9-1-8-7" offset=".692" stop-color="#f9c440" stop-opacity="1"/><stop id="stop4052-2-7-1-8-4-5" offset="1" stop-color="#e48b20" stop-opacity="1"/></linearGradient><radialGradient id="radialGradient4874" cx="282.788" cy="533.112" r="6.83" fx="277.665" fy="533.112" gradientTransform="matrix(0,0.91915984,-0.99587439,0,814.28776,272.60038)" gradientUnits="userSpaceOnUse" xlink:href="#linearGradient4044-1-0-1-6-9-6"/></defs><metadata id="metadata4881"/><g id="layer1"><path id="path3009-1-5-0-2-1-3" fill="url(#radialGradient4874)" fill-opacity="1" fill-rule="nonzero" stroke="none" stroke-width=".911" d="m 289.75,533.11218 a 6.375,6.375 0 1 1 -12.75,0 6.375,6.375 0 1 1 12.75,0 z" color="#000" display="inline" enable-background="accumulate" overflow="visible" transform="matrix(1.1764706,0,0,1.1764706,-325.38236,-619.19081)" visibility="visible" style="marker:none"/><path id="path3417-3-7" fill="none" stroke="#fff" stroke-linecap="butt" stroke-linejoin="miter" stroke-opacity="1" stroke-width="1" d="m 5.0000268,12.499187 c 0,0 1.26448,1.233542 3,1.274752 1.73553,0.0412 3.0000002,-1.274752 3.0000002,-1.274752" opacity=".3"/><path id="path3417-7-7-5" fill="none" stroke="#5e4506" stroke-linecap="butt" stroke-linejoin="miter" stroke-opacity="1" stroke-width="1" d="m 5.0000268,11.249187 c 0,0 1.26448,1.45879 3,1.5 1.73553,0.0412 3.0000002,-1.5 3.0000002,-1.5"/><path id="path3964-7-71-6-4" fill="#43340d" fill-opacity="1" stroke="none" stroke-width="1" d="m 267.67143,512.297 a 0.841965,1.7205372 0 1 1 -1.68393,0 0.841965,1.7205372 0 1 1 1.68393,0 z" color="#000" display="inline" enable-background="accumulate" overflow="visible" transform="matrix(0.89077411,0,0,1.1624286,-231.68476,-588.24539)" visibility="visible" style="marker:none"/><path id="path3964-7-7-2-8-7" fill="#43340d" fill-opacity="1" stroke="none" stroke-width="1" d="m 267.67143,512.297 a 0.841965,1.7205372 0 1 1 -1.68393,0 0.841965,1.7205372 0 1 1 1.68393,0 z" color="#000" display="inline" enable-background="accumulate" overflow="visible" transform="matrix(-0.89077411,0,0,1.1624286,247.68478,-588.24539)" visibility="visible" style="marker:none"/><path id="path8655-6-3-8-4-4-9-4" fill="none" stroke="url(#linearGradient5726-5-4-8-0-8)" stroke-dasharray="none" stroke-dashoffset="0" stroke-linecap="round" stroke-linejoin="round" stroke-miterlimit="4" stroke-opacity="1" stroke-width="1" d="m 14.500057,7.9997166 c 0,3.5900004 -2.91036,6.5003004 -6.4999102,6.5003004 -3.58989,0 -6.50009,-2.9103 -6.50009,-6.5003004 0,-3.5898 2.9102,-6.4997 6.50009,-6.4997 3.5895502,0 6.4999102,2.9099 6.4999102,6.4997 l 0,0 z" color="#000" display="inline" enable-background="accumulate" overflow="visible" visibility="visible" style="marker:none"/><path id="path3009-5-8-4-1-5-2-3" fill="none" stroke="#a53400" stroke-dasharray="none" stroke-miterlimit="4" stroke-opacity="1" stroke-width=".85" d="m 289.75,533.11218 a 6.375,6.375 0 1 1 -12.75,0 6.375,6.375 0 1 1 12.75,0 z" color="#000" display="inline" enable-background="accumulate" opacity=".5" overflow="visible" transform="matrix(1.1764706,0,0,1.1764706,-325.38236,-619.19081)" visibility="visible" style="marker:none"/><path id="path4880" fill="#966500" fill-opacity=".545" fill-rule="nonzero" stroke="none" stroke-width="1" d="m 154,84.5 a 8,2.5 0 1 1 -16,0 8,2.5 0 1 1 16,0 z" color="#000" display="inline" enable-background="accumulate" overflow="visible" transform="translate(-138,-82.000003)" visibility="visible" style="marker:none"/><path d="m 8.0000068,0.99999656 c -3.86599,0 -7,0.67157004 -7,1.50000004 0,0.82843 3.13401,1.5 7,1.5 3.8659902,0 7.0000002,-0.67157 7.0000002,-1.5 0,-0.82843 -3.13401,-1.50000004 -7.0000002,-1.50000004 z m 0,1.00000004 c 3.3137102,0 6.0000002,0.22386 6.0000002,0.5 0,0.27614 -2.68629,0.5 -6.0000002,0.5 -3.31371,0 -6,-0.22386 -6,-0.5 0,-0.27614 2.68629,-0.5 6,-0.5 z" style="marker:none" id="path4882" fill="#fff9e2" fill-opacity="1" fill-rule="nonzero" stroke="none" stroke-width="1" color="#000" display="inline" enable-background="accumulate" overflow="visible" visibility="visible"/></g></svg>