<svg xmlns="http://www.w3.org/2000/svg" xmlns:svg="http://www.w3.org/2000/svg" xmlns:xlink="http://www.w3.org/1999/xlink" id="svg6233" width="16" height="16" version="1.1"><defs id="defs6235"><linearGradient id="linearGradient5726-5-4-8" x1="71.204" x2="71.204" y1="6.238" y2="44.341" gradientTransform="matrix(0.35135133,0,0,0.35135133,-17.203624,-0.90927404)" gradientUnits="userSpaceOnUse" xlink:href="#linearGradient4011-7-0-0-5"/><linearGradient id="linearGradient4011-7-0-0-5"><stop id="stop4013-1-0-0-8" offset="0" stop-color="#fff" stop-opacity="1"/><stop id="stop4015-6-1-4-5" offset=".508" stop-color="#fff" stop-opacity=".235"/><stop id="stop4017-5-2-7-7" offset=".835" stop-color="#fff" stop-opacity=".157"/><stop id="stop4019-1-1-5-0" offset="1" stop-color="#fff" stop-opacity=".392"/></linearGradient><linearGradient id="linearGradient4438" x1="78" x2="82.5" y1="909.362" y2="909.362" gradientTransform="translate(-69.999988,-898.36218)" gradientUnits="userSpaceOnUse" spreadMethod="reflect" xlink:href="#linearGradient4432"/><linearGradient id="linearGradient4432"><stop id="stop4434" offset="0" stop-color="#fffefe" stop-opacity="1"/><stop id="stop4440" offset=".664" stop-color="#fff" stop-opacity="1"/><stop id="stop4436" offset="1" stop-color="#929292" stop-opacity="1"/></linearGradient><radialGradient id="radialGradient4312" cx="282.788" cy="533.112" r="6.83" fx="277.665" fy="533.112" gradientTransform="matrix(0,0.91915984,-0.99587439,0,814.28776,272.60038)" gradientUnits="userSpaceOnUse" xlink:href="#linearGradient4044-1-0-1-6"/><linearGradient id="linearGradient4044-1-0-1-6"><stop id="stop4046-5-15-6-5" offset="0" stop-color="#fff3cb" stop-opacity="1"/><stop id="stop4048-7-8-1-9" offset=".433" stop-color="#fdde76" stop-opacity="1"/><stop id="stop4050-0-5-9-1" offset=".692" stop-color="#f9c440" stop-opacity="1"/><stop id="stop4052-2-7-1-8" offset="1" stop-color="#e48b20" stop-opacity="1"/></linearGradient><radialGradient id="radialGradient6231" cx="282.788" cy="533.112" r="6.83" fx="277.665" fy="533.112" gradientTransform="matrix(0,0.91915984,-0.99587439,0,814.28776,272.60038)" gradientUnits="userSpaceOnUse" xlink:href="#linearGradient4044-1-0-1-6"/></defs><metadata id="metadata6238"/><g id="layer1"><path id="path3009-1-5-0-2" fill="url(#radialGradient6231)" fill-opacity="1" fill-rule="nonzero" stroke="none" stroke-width=".911" d="m 289.75,533.11218 a 6.375,6.375 0 1 1 -12.75,0 6.375,6.375 0 1 1 12.75,0 z" color="#000" display="inline" enable-background="accumulate" overflow="visible" transform="matrix(1.1764706,0,0,1.1764706,-325.38236,-619.19081)" visibility="visible" style="marker:none"/><path id="path10766-9-9-6" fill="none" stroke="#fff" stroke-dasharray="none" stroke-dashoffset="0" stroke-linecap="round" stroke-linejoin="miter" stroke-miterlimit="4" stroke-opacity="1" stroke-width="1" d="m 3.5000252,6.500026 c 0,0 0.275,-1 1.45001,-1 1.17499,0 1.54999,1 1.54999,1" color="#000" display="inline" enable-background="accumulate" opacity=".3" overflow="visible" visibility="visible" style="marker:none"/><path id="path10766-0-2-4-5" fill="none" stroke="#fff" stroke-dasharray="none" stroke-dashoffset="0" stroke-linecap="round" stroke-linejoin="miter" stroke-miterlimit="4" stroke-opacity="1" stroke-width="1" d="m 9.5000252,6.500026 c 0,0 0.275,-1 1.4500098,-1 1.17499,0 1.54999,1 1.54999,1" color="#000" display="inline" enable-background="accumulate" opacity=".3" overflow="visible" visibility="visible" style="marker:none"/><path id="path10766-3-7" fill="none" stroke="#5e4506" stroke-dasharray="none" stroke-dashoffset="0" stroke-linecap="round" stroke-linejoin="miter" stroke-miterlimit="4" stroke-opacity="1" stroke-width="1" d="m 3.5000252,5.500026 c 0,0 0.275,-1 1.45001,-1 1.17499,0 1.54999,1 1.54999,1" color="#000" display="inline" enable-background="accumulate" overflow="visible" visibility="visible" style="marker:none"/><path id="path10766-0-3-2" fill="none" stroke="#5e4506" stroke-dasharray="none" stroke-dashoffset="0" stroke-linecap="round" stroke-linejoin="miter" stroke-miterlimit="4" stroke-opacity="1" stroke-width="1" d="m 9.5000252,5.500026 c 0,0 0.275,-1 1.4500098,-1 1.17499,0 1.54999,1 1.54999,1" color="#000" display="inline" enable-background="accumulate" overflow="visible" visibility="visible" style="marker:none"/><path id="path10931-9-2" fill="none" stroke="#5e4506" stroke-dasharray="none" stroke-dashoffset="0" stroke-linecap="butt" stroke-linejoin="miter" stroke-miterlimit="4" stroke-opacity="1" stroke-width="1" d="m 2.9358452,3.156466 c 0,0 1.06419,-2.15646 3.06419,-1.65646" color="#000" display="inline" enable-background="accumulate" overflow="visible" visibility="visible" style="marker:none"/><path id="path10931-6-10-4" fill="none" stroke="#5e4506" stroke-dasharray="none" stroke-dashoffset="0" stroke-linecap="butt" stroke-linejoin="miter" stroke-miterlimit="4" stroke-opacity="1" stroke-width="1" d="m 13.000225,3.156466 c 0,0 -1.06419,-2.15646 -3.0641898,-1.65646" color="#000" display="inline" enable-background="accumulate" overflow="visible" visibility="visible" style="marker:none"/><path id="path10931-3-6-4" fill="#fff" stroke="#fff" stroke-dasharray="none" stroke-dashoffset="0" stroke-linecap="butt" stroke-linejoin="miter" stroke-miterlimit="4" stroke-opacity="1" stroke-width="1" d="m 2.9358452,4.156006 c 0,0 1.06419,-2.15646 3.06419,-1.65646" color="#000" display="inline" enable-background="accumulate" opacity=".3" overflow="visible" visibility="visible" style="marker:none"/><path id="path10931-6-2-6-9" fill="#fff" stroke="#fff" stroke-dasharray="none" stroke-dashoffset="0" stroke-linecap="butt" stroke-linejoin="miter" stroke-miterlimit="4" stroke-opacity="1" stroke-width="1" d="m 13.000225,4.156006 c 0,0 -1.06419,-2.15646 -3.0641898,-1.65646" color="#000" display="inline" enable-background="accumulate" opacity=".3" overflow="visible" visibility="visible" style="marker:none"/><path d="m 3.5280012,8.500006 c -0.009,0.11982 -0.02799,0.23495 -0.02799,0.35714 0,2.56418 2.014722,4.64286 4.5,4.64286 2.4852778,0 4.4999998,-2.07868 4.4999998,-4.64286 0,-0.12219 -0.01926,-0.23731 -0.02799,-0.35714 l -8.9437498,0 z" style="marker:none" id="path3348-0" fill="url(#linearGradient4438)" fill-opacity="1" fill-rule="nonzero" stroke="none" stroke-width="1.357" color="#000" display="inline" enable-background="accumulate" overflow="visible" visibility="visible"/><path id="path3348-0-9" fill="#fff" fill-opacity="1" fill-rule="nonzero" stroke="none" stroke-width="1.357" d="m 3.5280012,10.000006 c -0.009,0.11982 -0.02799,0.23495 -0.02799,0.35714 0,2.56418 2.014722,4.642861 4.5,4.642861 2.4852778,0 4.4999998,-2.078681 4.4999998,-4.642861 0,-0.12219 -0.01926,-0.23731 -0.02799,-0.35714 l -8.9437498,0 z" color="#000" display="inline" enable-background="accumulate" opacity=".3" overflow="visible" visibility="visible" style="marker:none"/><path d="m 3.5280012,8.500006 c -0.009,0.11982 -0.02799,0.23495 -0.02799,0.35714 0,2.56418 2.014722,4.64286 4.5,4.64286 2.4852778,0 4.4999998,-2.07868 4.4999998,-4.64286 0,-0.12219 -0.01926,-0.23731 -0.02799,-0.35714 l -8.9437498,0 z" style="marker:none" id="path3348-0-0" fill="none" stroke="#000" stroke-dasharray="none" stroke-miterlimit="4" stroke-opacity="1" stroke-width="1" color="#000" display="inline" enable-background="accumulate" opacity=".3" overflow="visible" visibility="visible"/><path id="path4430" fill="none" stroke="#000" stroke-linecap="butt" stroke-linejoin="miter" stroke-opacity="1" stroke-width="1" d="m 4.0000112,10.437506 c 0,0 4.015616,2.39024 7.9999998,0" opacity=".2"/><path id="path8655-6-3-8-4-4" fill="none" stroke="url(#linearGradient5726-5-4-8)" stroke-dasharray="none" stroke-dashoffset="0" stroke-linecap="round" stroke-linejoin="round" stroke-miterlimit="4" stroke-opacity="1" stroke-width="1" d="m 14.500045,7.999726 c 0,3.59 -2.91036,6.500301 -6.4999098,6.500301 -3.58989,0 -6.50009,-2.910301 -6.50009,-6.500301 0,-3.5898 2.9102,-6.4997 6.50009,-6.4997 3.5895498,0 6.4999098,2.9099 6.4999098,6.4997 l 0,0 z" color="#000" display="inline" enable-background="accumulate" overflow="visible" visibility="visible" style="marker:none"/><path id="path3009-5-8-4-1-5" fill="none" stroke="#a53400" stroke-dasharray="none" stroke-miterlimit="4" stroke-opacity="1" stroke-width=".85" d="m 289.75,533.11218 a 6.375,6.375 0 1 1 -12.75,0 6.375,6.375 0 1 1 12.75,0 z" color="#000" display="inline" enable-background="accumulate" opacity=".5" overflow="visible" transform="matrix(1.1764706,0,0,1.1764706,-325.38236,-619.19081)" visibility="visible" style="marker:none"/></g></svg>