<svg xmlns="http://www.w3.org/2000/svg" xmlns:svg="http://www.w3.org/2000/svg" xmlns:xlink="http://www.w3.org/1999/xlink" id="svg4876" width="16" height="16" version="1.1"><defs id="defs4878"><linearGradient id="linearGradient5726-5-4-8-0-8" x1="71.204" x2="71.204" y1="6.238" y2="44.341" gradientTransform="matrix(0.35135133,0,0,0.35135133,-17.203613,-0.90928344)" gradientUnits="userSpaceOnUse" xlink:href="#linearGradient4011-7-0-0-5-3-5"/><linearGradient id="linearGradient4011-7-0-0-5-3-5"><stop id="stop4013-1-0-0-8-8-4" offset="0" stop-color="#fff" stop-opacity="1"/><stop id="stop4015-6-1-4-5-2-5" offset=".508" stop-color="#fff" stop-opacity=".235"/><stop id="stop4017-5-2-7-7-3-7" offset=".835" stop-color="#fff" stop-opacity=".157"/><stop id="stop4019-1-1-5-0-7-6" offset="1" stop-color="#fff" stop-opacity=".392"/></linearGradient><linearGradient id="linearGradient4044-1-0-1-6-9-6"><stop id="stop4046-5-15-6-5-7-4" offset="0" stop-color="#fff3cb" stop-opacity="1"/><stop id="stop4048-7-8-1-9-7-2" offset=".433" stop-color="#fdde76" stop-opacity="1"/><stop id="stop4050-0-5-9-1-8-7" offset=".692" stop-color="#f9c440" stop-opacity="1"/><stop id="stop4052-2-7-1-8-4-5" offset="1" stop-color="#e48b20" stop-opacity="1"/></linearGradient><radialGradient id="radialGradient4874" cx="282.788" cy="533.112" r="6.83" fx="277.665" fy="533.112" gradientTransform="matrix(0,1.0813645,-1.1716169,0,632.60325,-298.48448)" gradientUnits="userSpaceOnUse" xlink:href="#linearGradient4044-1-0-1-6-9-6"/></defs><metadata id="metadata4881"/><path id="path3009-1-5-0-2-1-3" fill="url(#radialGradient4874)" fill-opacity="1" fill-rule="nonzero" stroke="none" stroke-width=".911" d="m 15.499996,7.9999963 a 7.5000001,7.5000001 0 0 1 -14.9999998,0 7.5000001,7.5000001 0 1 1 14.9999998,0 z" color="#000" display="inline" enable-background="accumulate" overflow="visible" visibility="visible" style="marker:none"/><path id="path3417-3-7" fill="none" stroke="#fff" stroke-linecap="butt" stroke-linejoin="miter" stroke-opacity="1" stroke-width="1" d="m 12.106691,11.312757 c 0,0 -1.264476,1.233542 -2.9999887,1.274752 -1.73553,0.0412 -3.1694922,0.216773 -3.1694922,0.216773" opacity=".3"/><path id="path3417-7-7-5" fill="none" stroke="#5e4506" stroke-linecap="butt" stroke-linejoin="miter" stroke-opacity="1" stroke-width="1" d="m 12.106691,10.062757 c 0,0 -1.264476,1.45879 -2.9999887,1.5 -1.73553,0.0412 -3.1694922,-0.0085 -3.1694922,-0.0085"/><path id="path8655-6-3-8-4-4-9-4" fill="none" stroke="url(#linearGradient5726-5-4-8-0-8)" stroke-dasharray="none" stroke-dashoffset="0" stroke-linecap="round" stroke-linejoin="round" stroke-miterlimit="4" stroke-opacity="1" stroke-width="1" d="m 14.500057,7.9997166 c 0,3.5900004 -2.91036,6.5003004 -6.4999102,6.5003004 -3.58989,0 -6.50009,-2.9103 -6.50009,-6.5003004 0,-3.5898 2.9102,-6.4997 6.50009,-6.4997 3.5895502,0 6.4999102,2.9099 6.4999102,6.4997 l 0,0 z" color="#000" display="inline" enable-background="accumulate" overflow="visible" visibility="visible" style="marker:none"/><path id="path3009-5-8-4-1-5-2-3" fill="none" stroke="#a53400" stroke-dasharray="none" stroke-miterlimit="4" stroke-opacity="1" stroke-width="1" d="m 15.499996,7.9999963 a 7.5000001,7.5000001 0 0 1 -14.9999998,0 7.5000001,7.5000001 0 1 1 14.9999998,0 z" color="#000" display="inline" enable-background="accumulate" opacity=".5" overflow="visible" visibility="visible" style="marker:none"/><path id="path4177" fill="#fff" fill-opacity="1" stroke="none" stroke-dasharray="none" stroke-linejoin="round" stroke-miterlimit="4" stroke-opacity="1" stroke-width="2" d="M 5,8 C 5,8.5522847 5.4477153,9 6,9 6.5522847,9 7,8.5522847 7,8 7,7.4477153 6.5522847,7 6,7 3.4990866,7 2,8 5,8 Z" opacity=".3"/><path id="path4166" fill="#43340d" fill-opacity="1" stroke="none" stroke-dasharray="none" stroke-linejoin="round" stroke-miterlimit="4" stroke-opacity="1" stroke-width="2" d="M 5,7 C 5,7.5522847 5.4477153,8 6,8 6.5522847,8 7,7.5522847 7,7 7,6.4477153 6.5522847,6 6,6 3.4990866,6 2,7 5,7 Z" opacity="1"/><path id="path4179" fill="#fff" fill-opacity="1" stroke="none" stroke-dasharray="none" stroke-linejoin="round" stroke-miterlimit="4" stroke-opacity="1" stroke-width="2" d="m 10,8 c 0,0.5522847 0.447715,1 1,1 0.552285,0 1,-0.4477153 1,-1 C 12,7.4477153 11.552285,7 11,7 8.499087,7 7,8 10,8 Z" opacity=".3"/><path id="path4175" fill="#43340d" fill-opacity="1" stroke="none" stroke-dasharray="none" stroke-linejoin="round" stroke-miterlimit="4" stroke-opacity="1" stroke-width="2" d="m 10,7 c 0,0.5522847 0.447715,1 1,1 0.552285,0 1,-0.4477153 1,-1 C 12,6.4477153 11.552285,6 11,6 8.499087,6 7,7 10,7 Z" opacity="1"/></svg>