<svg xmlns="http://www.w3.org/2000/svg" xmlns:svg="http://www.w3.org/2000/svg" xmlns:xlink="http://www.w3.org/1999/xlink" id="svg4767" width="16" height="16" version="1.1"><defs id="defs4769"><linearGradient id="linearGradient3816"><stop id="stop3818" offset="0" stop-color="#ff7a26" stop-opacity="1"/><stop id="stop3820" offset="1" stop-color="#ff8056" stop-opacity="0"/></linearGradient><linearGradient id="linearGradient10680-9" x1="71.204" x2="71.204" y1="6.238" y2="44.341" gradientTransform="matrix(0.35135133,0,0,0.35135133,-17.203648,-0.90927944)" gradientUnits="userSpaceOnUse" xlink:href="#linearGradient4011-7-3-1"/><linearGradient id="linearGradient4011-7-3-1"><stop id="stop4013-1-4-2" offset="0" stop-color="#fff" stop-opacity="1"/><stop id="stop4015-6-5-3" offset=".508" stop-color="#fff" stop-opacity=".235"/><stop id="stop4017-5-3-6" offset=".835" stop-color="#fff" stop-opacity=".157"/><stop id="stop4019-1-06-7" offset="1" stop-color="#fff" stop-opacity=".392"/></linearGradient><linearGradient id="linearGradient4044-1-8-1"><stop id="stop4046-5-1-1" offset="0" stop-color="#fff3cb" stop-opacity="1"/><stop id="stop4048-7-6-8" offset=".433" stop-color="#fdde76" stop-opacity="1"/><stop id="stop4050-0-8-2" offset=".692" stop-color="#f9c440" stop-opacity="1"/><stop id="stop4052-2-0-3" offset="1" stop-color="#e48b20" stop-opacity="1"/></linearGradient><radialGradient id="radialGradient4765" cx="282.788" cy="533.112" r="6.83" fx="277.665" fy="533.112" gradientTransform="matrix(0,0.91915984,-0.99587439,0,814.28776,272.60038)" gradientUnits="userSpaceOnUse" xlink:href="#linearGradient4044-1-8-1"/><radialGradient id="radialGradient3822" cx="3" cy="10.5" r="2.5" fx="3" fy="10.5" gradientTransform="matrix(0.8,1.8000014e-8,-1.5360009e-8,0.59999991,0.60000016,4.2000008)" gradientUnits="userSpaceOnUse" xlink:href="#linearGradient3816"/><radialGradient id="radialGradient3856" cx="3" cy="10.5" r="2.5" fx="3" fy="10.5" gradientTransform="matrix(0.8,1.8000014e-8,-1.5360009e-8,0.59999991,0.60000016,4.2000008)" gradientUnits="userSpaceOnUse" xlink:href="#linearGradient3816"/></defs><metadata id="metadata4772"/><g id="layer1"><path id="path3009-1-6-3" fill="url(#radialGradient4765)" fill-opacity="1" fill-rule="nonzero" stroke="none" stroke-width=".911" d="m 289.75,533.11218 a 6.375,6.375 0 1 1 -12.75,0 6.375,6.375 0 1 1 12.75,0 z" color="#000" display="inline" enable-background="accumulate" overflow="visible" transform="matrix(1.1764706,0,0,1.1764706,-325.38236,-619.19081)" visibility="visible" style="marker:none"/><path id="path3814-8" fill="url(#radialGradient3856)" fill-opacity="1" fill-rule="nonzero" stroke="none" stroke-width="1" d="m 5,10.5 a 2,1.5 0 1 1 -4,0 2,1.5 0 1 1 4,0 z" color="#000" display="inline" enable-background="accumulate" overflow="visible" transform="matrix(-1.0466017,1.0466017,1.1163752,1.1163752,4.0924283,-5.0424517)" visibility="visible" style="marker:none"/><path id="path3009-5-8-6-1" fill="none" stroke="#a53400" stroke-dasharray="none" stroke-miterlimit="4" stroke-opacity="1" stroke-width=".85" d="m 289.75,533.11218 a 6.375,6.375 0 1 1 -12.75,0 6.375,6.375 0 1 1 12.75,0 z" color="#000" display="inline" enable-background="accumulate" opacity=".5" overflow="visible" transform="matrix(1.1764706,0,0,1.1764706,-325.38236,-619.19081)" visibility="visible" style="marker:none"/><path id="path8655-6-3-2-5" fill="none" stroke="url(#linearGradient10680-9)" stroke-dasharray="none" stroke-dashoffset="0" stroke-linecap="round" stroke-linejoin="round" stroke-miterlimit="4" stroke-opacity="1" stroke-width="1" d="m 14.500024,7.9997206 c 0,3.5900004 -2.91036,6.5003004 -6.4999102,6.5003004 -3.58989,0 -6.50009,-2.9103 -6.50009,-6.5003004 0,-3.5898 2.9102,-6.4997 6.50009,-6.4997 3.5895502,0 6.4999102,2.9099 6.4999102,6.4997 l 0,0 z" color="#000" display="inline" enable-background="accumulate" overflow="visible" visibility="visible" style="marker:none"/><path id="path3417" fill="none" stroke="#fff" stroke-linecap="butt" stroke-linejoin="miter" stroke-opacity="1" stroke-width="1" d="m 5.0000138,13.000001 c 0,0 1.26448,-1.45879 3,-1.5 1.73553,-0.0412 3.0000002,1.5 3.0000002,1.5" opacity=".3"/><path id="path3417-7" fill="none" stroke="#5e4506" stroke-linecap="butt" stroke-linejoin="miter" stroke-opacity="1" stroke-width="1" d="m 5.0000138,12.000001 c 0,0 1.26448,-1.45879 3,-1.5 1.73553,-0.0412 3.0000002,1.5 3.0000002,1.5"/><path id="path3814" fill="url(#radialGradient3822)" fill-opacity="1" fill-rule="nonzero" stroke="none" stroke-width="1" d="m 5,10.5 a 2,1.5 0 1 1 -4,0 2,1.5 0 1 1 4,0 z" color="#000" display="inline" enable-background="accumulate" overflow="visible" transform="matrix(1.0466017,1.0466017,-1.1163752,1.1163752,11.907571,-5.0424517)" visibility="visible" style="marker:none"/></g><path id="path4747" fill="#fff" fill-opacity="1" stroke="none" stroke-width="1" d="m 6.7500012,7.2625365 a 0.75000062,2.0000016 0 1 1 -1.5000012,0 0.75000062,2.0000016 0 1 1 1.5000012,0 z" color="#000" display="inline" enable-background="accumulate" opacity=".3" overflow="visible" visibility="visible" style="marker:none"/><path id="path3964-7-71-6-4" fill="#43340d" fill-opacity="1" stroke="none" stroke-width="1" d="m 6.7500012,6.2625365 a 0.75000062,2.0000016 0 1 1 -1.5000012,0 0.75000062,2.0000016 0 1 1 1.5000012,0 z" color="#000" display="inline" enable-background="accumulate" overflow="visible" visibility="visible" style="marker:none"/><path id="path4749" fill="#fff" fill-opacity="1" stroke="none" stroke-width="1" d="m 9.2499817,7.2625365 a 0.75000065,2.0000017 0 0 0 1.5000013,0 0.75000065,2.0000017 0 1 0 -1.5000013,0 z" color="#000" display="inline" enable-background="accumulate" opacity=".3" overflow="visible" visibility="visible" style="marker:none"/><path id="path3964-7-7-2-8-7" fill="#43340d" fill-opacity="1" stroke="none" stroke-width="1" d="m 9.2499817,6.2625365 a 0.75000065,2.0000017 0 0 0 1.5000013,0 0.75000065,2.0000017 0 1 0 -1.5000013,0 z" color="#000" display="inline" enable-background="accumulate" overflow="visible" visibility="visible" style="marker:none"/></svg>