<svg xmlns="http://www.w3.org/2000/svg" xmlns:svg="http://www.w3.org/2000/svg" xmlns:xlink="http://www.w3.org/1999/xlink" id="svg5372" width="16" height="16" version="1.1"><defs id="defs5374"><linearGradient id="linearGradient5150" x1="71.204" x2="71.204" y1="6.238" y2="44.341" gradientTransform="matrix(0.35135133,0,0,0.35135133,-17.203661,-0.90927544)" gradientUnits="userSpaceOnUse" xlink:href="#linearGradient4011"/><linearGradient id="linearGradient4011"><stop id="stop4013" offset="0" stop-color="#fff" stop-opacity="1"/><stop id="stop4015" offset=".508" stop-color="#fff" stop-opacity=".235"/><stop id="stop4017" offset=".835" stop-color="#fff" stop-opacity=".157"/><stop id="stop4019" offset="1" stop-color="#fff" stop-opacity=".392"/></linearGradient><linearGradient id="linearGradient4044"><stop id="stop4046" offset="0" stop-color="#fff3cb" stop-opacity="1"/><stop id="stop4048" offset=".433" stop-color="#fdde76" stop-opacity="1"/><stop id="stop4050" offset=".692" stop-color="#f9c440" stop-opacity="1"/><stop id="stop4052" offset="1" stop-color="#e48b20" stop-opacity="1"/></linearGradient><radialGradient id="radialGradient5370" cx="282.788" cy="533.112" r="6.83" fx="277.665" fy="533.112" gradientTransform="matrix(0,0.91915984,-0.99587439,0,814.28776,272.60038)" gradientUnits="userSpaceOnUse" xlink:href="#linearGradient4044"/></defs><metadata id="metadata5377"/><g id="layer1"><path id="path3009" fill="url(#radialGradient5370)" fill-opacity="1" fill-rule="nonzero" stroke="none" stroke-width=".911" d="m 289.75,533.11218 a 6.375,6.375 0 1 1 -12.75,0 6.375,6.375 0 1 1 12.75,0 z" color="#000" display="inline" enable-background="accumulate" overflow="visible" transform="matrix(1.1764706,0,0,1.1764706,-325.38236,-619.19081)" visibility="visible" style="marker:none"/><path id="path3009-5" fill="none" stroke="#a53400" stroke-dasharray="none" stroke-miterlimit="4" stroke-opacity="1" stroke-width=".85" d="m 289.75,533.11218 a 6.375,6.375 0 1 1 -12.75,0 6.375,6.375 0 1 1 12.75,0 z" color="#000" display="inline" enable-background="accumulate" opacity=".5" overflow="visible" transform="matrix(1.1764706,0,0,1.1764706,-325.38236,-619.19081)" visibility="visible" style="marker:none"/><path id="path8655-6" fill="none" stroke="url(#linearGradient5150)" stroke-dasharray="none" stroke-dashoffset="0" stroke-linecap="round" stroke-linejoin="round" stroke-miterlimit="4" stroke-opacity="1" stroke-width="1" d="m 14.500009,7.9997245 c 0,3.5900005 -2.91036,6.5003005 -6.4999099,6.5003005 -3.58989,0 -6.50009,-2.9103 -6.50009,-6.5003005 0,-3.5898 2.9102,-6.4997 6.50009,-6.4997 3.5895499,0 6.4999099,2.9099 6.4999099,6.4997 l 0,0 z" color="#000" display="inline" enable-background="accumulate" overflow="visible" visibility="visible" style="marker:none"/><path id="path3964" fill="#43340d" fill-opacity="1" stroke="none" stroke-width="1" d="m 267.67143,512.297 a 0.8419643,1.7205358 0 1 1 -1.68393,0 0.8419643,1.7205358 0 1 1 1.68393,0 z" color="#000" display="inline" enable-background="accumulate" overflow="visible" transform="matrix(0.89077411,0,0,1.1624286,-231.68478,-589.24539)" visibility="visible" style="marker:none"/><path id="path5611" fill="none" stroke="#fff" stroke-dasharray="none" stroke-dashoffset="0" stroke-linecap="butt" stroke-linejoin="miter" stroke-miterlimit="4" stroke-opacity="1" stroke-width="1" d="m 10.233249,9.5000245 1.68103,0" color="#000" display="inline" enable-background="accumulate" opacity=".3" overflow="visible" visibility="visible" style="marker:none"/><path id="path5609" fill="none" stroke="#fff" stroke-dasharray="none" stroke-dashoffset="0" stroke-linecap="butt" stroke-linejoin="miter" stroke-miterlimit="4" stroke-opacity="1" stroke-width="1" d="m 11.042679,10.000025 c 0,0 0.39756,2.634 -2.4161799,2.5" color="#000" display="inline" enable-background="accumulate" opacity=".3" overflow="visible" visibility="visible" style="marker:none"/><path id="path3972-9" fill="none" stroke="#fff" stroke-dasharray="none" stroke-dashoffset="0" stroke-linecap="butt" stroke-linejoin="miter" stroke-miterlimit="4" stroke-opacity="1" stroke-width="1" d="m 6.9652591,3.4264245 c -2.25792,-0.2154 -2.51525,1.8236 -2.51525,1.8236" color="#000" display="inline" enable-background="accumulate" opacity=".3" overflow="visible" visibility="visible" style="marker:none"/><path id="path3968" fill="none" stroke="#5e4506" stroke-dasharray="none" stroke-dashoffset="0" stroke-linecap="butt" stroke-linejoin="miter" stroke-miterlimit="4" stroke-opacity="1" stroke-width="1" d="m 11.042679,9.0000245 c 0,0 0.39756,2.6340005 -2.4161799,2.5000005" color="#000" display="inline" enable-background="accumulate" overflow="visible" visibility="visible" style="marker:none"/><path id="path3966" fill="none" stroke="#5e4506" stroke-dasharray="none" stroke-dashoffset="0" stroke-linecap="butt" stroke-linejoin="miter" stroke-miterlimit="4" stroke-opacity="1" stroke-width="1" d="m 6.9652591,2.4267245 c -2.25792,-0.2154 -2.51525,1.8236 -2.51525,1.8236" color="#000" display="inline" enable-background="accumulate" overflow="visible" visibility="visible" style="marker:none"/><path id="path3972-91" fill="none" stroke="#fff" stroke-dasharray="none" stroke-dashoffset="0" stroke-linecap="butt" stroke-linejoin="miter" stroke-miterlimit="4" stroke-opacity="1" stroke-width="1" d="m 9.2969191,7.3100245 c -0.47741,-1.8572 1.3232299,-2.3104 2.6344099,-0.5975" color="#000" display="inline" enable-background="accumulate" opacity=".3" overflow="visible" visibility="visible" style="marker:none"/><path id="path3972" fill="none" stroke="#5e4506" stroke-dasharray="none" stroke-dashoffset="0" stroke-linecap="butt" stroke-linejoin="miter" stroke-miterlimit="4" stroke-opacity="1" stroke-width="1" d="m 9.2969191,6.3104245 c -0.47741,-1.8572 1.3232299,-2.3104 2.6344099,-0.5975" color="#000" display="inline" enable-background="accumulate" overflow="visible" visibility="visible" style="marker:none"/><path id="path3970" fill="none" stroke="#5e4506" stroke-dasharray="none" stroke-dashoffset="0" stroke-linecap="butt" stroke-linejoin="miter" stroke-miterlimit="4" stroke-opacity="1" stroke-width="1" d="m 10.233249,8.5000245 1.68103,0" color="#000" display="inline" enable-background="accumulate" opacity=".645" overflow="visible" visibility="visible" style="marker:none"/></g></svg>